<svg preserveAspectRatio="none" width="95" height="96" viewBox="0 0 95 96" fill="none" xmlns="http://www.w3.org/2000/svg">
<path vector-effect="non-scaling-stroke" d="M71.2723 71.5925C84.3766 58.4829 84.3766 37.2281 71.2723 24.1185C58.1679 11.0089 36.9216 11.0089 23.8173 24.1185C10.713 37.228 10.713 58.4829 23.8173 71.5925C36.9216 84.7021 58.1679 84.7021 71.2723 71.5925Z" fill="#B9FF66"/>
<path vector-effect="non-scaling-stroke" d="M47.5386 82.2732C28.5874 82.2732 13.1211 66.8399 13.1211 47.8419C13.1211 28.8832 28.5483 13.4106 47.5386 13.4106C66.5288 13.4106 81.956 28.844 81.956 47.8419C81.956 66.8007 66.5288 82.2732 47.5386 82.2732ZM47.5386 15.1342C29.5271 15.1342 14.8439 29.7841 14.8439 47.8419C14.8439 65.8606 29.488 80.5497 47.5386 80.5497C65.55 80.5497 80.2332 65.8998 80.2332 47.8419C80.2332 29.8233 65.5891 15.1342 47.5386 15.1342Z" fill="#B9FF66"/>
</svg>
