<svg preserveAspectRatio="none" width="25" height="25" viewBox="0 0 25 25" fill="none" xmlns="http://www.w3.org/2000/svg">
<path vector-effect="non-scaling-stroke" fill-rule="evenodd" clip-rule="evenodd" d="M21.9456 0C23.6314 0 25 1.36865 25 3.05439V21.9456C25 23.6313 23.6313 25 21.9456 25H16.747V15.5803H19.9989L20.6177 11.5461H16.747V8.92808C16.747 7.82441 17.2876 6.74858 19.0214 6.74858H20.7813V3.31401C20.7813 3.31401 19.1841 3.04146 17.6571 3.04146C14.4692 3.04146 12.3856 4.97353 12.3856 8.47134V11.5461H8.84204V15.5803H12.3856V25H3.05439C1.36865 25 0 23.6313 0 21.9456V3.05439C0 1.36865 1.3686 0 3.05439 0L21.9456 0Z" fill="#EF790C"/>
</svg>
