<svg preserveAspectRatio="none" width="105" height="63" viewBox="0 0 105 63" fill="none" xmlns="http://www.w3.org/2000/svg">
<g clip-path="url(#clip0_4_7623)">
<path vector-effect="non-scaling-stroke" d="M29.9871 22.9887C29.8704 26.6268 31.7042 28.2378 31.7496 29.261C31.728 29.4692 31.6564 29.6693 31.5409 29.8445C31.4253 30.0197 31.2691 30.165 31.0854 30.2681L29.0119 31.7072C28.7435 31.8938 28.4272 32.0007 28.0998 32.0156C28.0302 32.0124 26.7731 32.3096 24.7822 27.9021C23.5676 29.4055 22.0221 30.6133 20.2641 31.4332C18.5061 32.2531 16.5823 32.6633 14.6398 32.6324C12.0025 32.7754 4.85536 31.1483 5.22309 23.6039C4.96552 17.4553 10.7406 13.6357 16.7133 13.9585C17.8635 13.9618 20.2124 14.018 24.3254 14.9656V12.4567C24.7612 8.20668 21.9441 4.90911 17.0665 5.40383C16.6777 5.40543 13.9238 5.32352 9.64066 7.02771C8.44838 7.57061 8.29611 7.48067 7.89922 7.48067C6.69885 7.48067 7.19293 4.03051 7.42296 3.59362C8.26695 2.56564 13.2321 0.646211 18.1048 0.673517C21.3629 0.387814 24.6036 1.38483 27.1263 3.44906C28.1517 4.5864 28.9341 5.91801 29.4261 7.3635C29.918 8.80898 30.1094 10.3383 29.9887 11.8592L29.9871 22.9887ZM15.9876 28.1912C21.241 28.1157 23.4652 24.9836 23.9722 23.2971C24.3708 21.6828 24.3043 20.6613 24.3043 18.8961C22.7379 18.5234 20.4829 18.117 17.8959 18.1138C15.4417 17.9307 10.9593 19.0181 11.1342 23.2955C10.9334 25.9923 12.9356 28.339 15.9876 28.1912ZM43.6755 31.8936C42.4023 32.0092 41.8094 31.1129 41.6215 30.2279L33.5542 3.78155C33.397 3.33502 33.2934 2.87403 33.2431 2.40341C33.2134 2.20939 33.2625 2.01158 33.3798 1.85346C33.497 1.69535 33.6728 1.58985 33.8684 1.56015C33.9073 1.55372 33.5234 1.56015 37.4728 1.56015C38.8951 1.4188 39.3584 2.5287 39.5058 3.2258L45.2922 25.8462L50.664 3.2258C50.7498 2.70859 51.1402 1.44771 52.7375 1.58103H55.5173C55.8688 1.55212 57.317 1.50072 57.5714 3.24668L62.9852 26.1562L68.9579 3.24668C69.0357 2.89652 69.3985 1.42041 71.012 1.58103H74.2065C74.3442 1.56015 75.2028 1.45093 75.057 2.95916C74.9873 3.25631 75.6094 1.24694 66.5118 30.2488C66.3255 31.1338 65.731 32.0301 64.4577 31.9144H61.4301C59.6578 32.0992 59.4035 30.3628 59.376 30.1878L54.0043 8.1617L48.6941 30.1653C48.6682 30.3404 48.4139 32.0767 46.64 31.892H43.6755V31.8936ZM87.9776 32.7979C87.0251 32.7995 82.4828 32.7497 78.6856 30.8238C78.3074 30.665 77.9852 30.3984 77.76 30.0579C77.5347 29.7173 77.4166 29.3181 77.4205 28.9108V27.1841C77.4205 25.8269 78.4248 26.0758 78.8509 26.2381C80.4773 26.8902 81.5205 27.3849 83.5179 27.78C89.455 28.9895 92.0663 27.4106 92.7062 27.0605C94.8364 25.806 95.0049 22.9357 93.5567 21.4467C91.859 20.0349 91.049 19.9819 84.9499 18.0737C84.1983 17.8665 77.8708 15.8876 77.8562 9.66352C77.7574 5.12756 81.9142 0.639785 89.118 0.676728C91.1705 0.675122 96.6394 1.3401 98.12 3.18564C98.3387 3.52134 98.4473 3.91647 98.4311 4.31642V5.9403C98.4311 6.65346 98.1686 7.01004 97.6421 7.01004C96.3932 6.87191 94.1771 5.2159 89.6785 5.28336C88.5624 5.22554 83.2166 5.42953 83.4564 9.29409C83.3867 12.3395 87.767 13.4815 88.2676 13.6132C94.1739 15.3752 96.1486 15.6676 98.4926 18.3644C101.269 21.9382 99.7724 26.1224 99.1973 27.2693C96.1064 33.291 88.1137 32.8011 87.9776 32.7979ZM94.4898 49.6407C83.1453 57.948 66.677 62.3699 52.616 62.3699C33.6434 62.494 15.3101 55.5768 1.22022 42.9781C0.162402 42.032 1.09549 40.7358 2.38172 41.457C18.0116 50.322 35.7079 54.9799 53.7143 54.9685C67.161 54.897 80.4609 52.1923 92.8504 47.0097C94.7587 46.2066 96.377 48.2625 94.4898 49.6407ZM99.2183 44.2936C97.7669 42.4432 89.6153 43.4294 85.9656 43.8615C84.8657 43.9852 84.6794 43.0391 85.6757 42.3404C92.1668 37.8157 102.828 39.1119 104.052 40.633C105.275 42.1541 103.72 52.7455 97.6438 57.8051C96.7107 58.5873 95.8181 58.1745 96.2328 57.1465C97.6 53.7333 100.67 46.1455 99.2183 44.2936Z" fill="#737373"/>
</g>
<defs>
<clipPath id="clip0_4_7623">
<rect vector-effect="non-scaling-stroke" width="104" height="62" fill="white" transform="translate(0.599937 0.5)"/>
</clipPath>
</defs>
</svg>
