<svg preserveAspectRatio="none" width="60" height="60" viewBox="0 0 60 60" fill="none" xmlns="http://www.w3.org/2000/svg">
<g filter="url(#filter0_d_396_51452)">
<rect vector-effect="non-scaling-stroke" x="5" y="3" width="50" height="50" rx="25" fill="white"/>
<path vector-effect="non-scaling-stroke" fill-rule="evenodd" clip-rule="evenodd" d="M33 27.5825V22.4125C33 21.8825 32.79 21.3725 32.41 21.0025L30.7 19.2925C30.5132 19.1052 30.2595 19 29.995 19C29.7305 19 29.4768 19.1052 29.29 19.2925L27.59 20.9925C27.21 21.3725 27 21.8825 27 22.4125V23.5825H23C21.9 23.5825 21 24.4825 21 25.5825V35.5825C21 36.6825 21.9 37.5825 23 37.5825H37C38.1 37.5825 39 36.6825 39 35.5825V29.5825C39 28.4825 38.1 27.5825 37 27.5825H33ZM25 35.5825H23V33.5825H25V35.5825ZM25 31.5825H23V29.5825H25V31.5825ZM25 27.5825H23V25.5825H25V27.5825ZM31 35.5825H29V33.5825H31V35.5825ZM31 31.5825H29V29.5825H31V31.5825ZM31 27.5825H29V25.5825H31V27.5825ZM31 23.5825H29V21.5825H31V23.5825ZM37 35.5825H35V33.5825H37V35.5825ZM37 31.5825H35V29.5825H37V31.5825Z" fill="#C3CAD9"/>
</g>
<defs>
<filter id="filter0_d_396_51452" x="0" y="0" width="60" height="60" filterUnits="userSpaceOnUse" color-interpolation-filters="sRGB">
<feFlood flood-opacity="0" result="BackgroundImageFix"/>
<feColorMatrix in="SourceAlpha" type="matrix" values="0 0 0 0 0 0 0 0 0 0 0 0 0 0 0 0 0 0 127 0" result="hardAlpha"/>
<feOffset dy="2"/>
<feGaussianBlur stdDeviation="2.5"/>
<feColorMatrix type="matrix" values="0 0 0 0 0.14902 0 0 0 0 0.2 0 0 0 0 0.301961 0 0 0 0.03 0"/>
<feBlend mode="normal" in2="BackgroundImageFix" result="effect1_dropShadow_396_51452"/>
<feBlend mode="normal" in="SourceGraphic" in2="effect1_dropShadow_396_51452" result="shape"/>
</filter>
</defs>
</svg>
