<svg preserveAspectRatio="none" width="70" height="75" viewBox="0 0 70 75" fill="none" xmlns="http://www.w3.org/2000/svg">
<g clip-path="url(#clip0_36_461)">
<path vector-effect="non-scaling-stroke" d="M29.2117 6.96643C25.2329 17.1985 21.3309 27.5 17.3905 37.7668C17.0883 38.5464 17.8617 38.8362 18.2324 38.7921C21.0892 38.445 23.6121 36.0715 26.0482 34.2244C28.4843 32.3774 31.002 30.3573 33.4422 28.3182C38.3227 24.2401 42.9995 19.7788 47.6862 15.2858L45.9429 14.3823C42.2328 21.5228 38.7163 28.9071 35.1103 36.1734C31.5043 43.4398 27.8971 50.6963 24.2923 57.9725C22.2593 62.0776 20.2262 66.1826 18.2181 70.3242C17.9003 70.9751 18.0516 71.5473 18.6422 71.6826C19.2329 71.8179 20.0979 71.3388 20.4469 70.6632C27.7618 56.2464 34.88 41.6166 42.084 27.0749C44.1171 22.9699 46.2099 18.9065 48.1796 14.7302C48.4465 14.1673 48.4344 13.6151 47.8836 13.4135C47.2754 13.1902 46.6108 13.6298 46.1548 14.0994C41.9024 18.5088 37.4068 22.4903 32.8786 26.3154C30.6335 28.2151 28.361 30.0584 26.06 31.8353C24.9101 32.7287 23.7578 33.6023 22.5975 34.467C21.4373 35.3317 20.3116 36.3122 18.9846 36.476L19.8265 37.5013C23.7388 27.2286 27.684 17.0014 31.5591 6.70382C31.8436 5.94701 31.1085 5.69183 30.7422 5.71517C30.1517 5.75113 29.4985 6.22942 29.2117 6.96643Z" fill="#EF790C"/>
</g>
<defs>
<clipPath id="clip0_36_461">
<rect vector-effect="non-scaling-stroke" width="61" height="66" fill="white" transform="translate(0 8.82446) rotate(-8.31777)"/>
</clipPath>
</defs>
</svg>
