<svg preserveAspectRatio="none" width="30" height="30" viewBox="0 0 30 30" fill="none" xmlns="http://www.w3.org/2000/svg">
<path vector-effect="non-scaling-stroke" fill-rule="evenodd" clip-rule="evenodd" d="M14.99 5C9.47 5 5 9.48 5 15C5 20.52 9.47 25 14.99 25C20.52 25 25 20.52 25 15C25 9.48 20.52 5 14.99 5ZM15 23C10.58 23 7 19.42 7 15C7 10.58 10.58 7 15 7C19.42 7 23 10.58 23 15C23 19.42 19.42 23 15 23ZM14.78 10H14.72C14.32 10 14 10.32 14 10.72V15.44C14 15.79 14.18 16.12 14.49 16.3L18.64 18.79C18.98 18.99 19.42 18.89 19.62 18.55C19.83 18.21 19.72 17.76 19.37 17.56L15.5 15.26V10.72C15.5 10.32 15.18 10 14.78 10Z" fill="#C3CAD9"/>
</svg>
