<svg preserveAspectRatio="none" width="17" height="16" viewBox="0 0 17 16" fill="none" xmlns="http://www.w3.org/2000/svg">
<path vector-effect="non-scaling-stroke" d="M7.85845 3.21967C7.56556 2.92678 7.09068 2.92678 6.79779 3.21967C6.5049 3.51256 6.5049 3.98744 6.79779 4.28033L7.85845 3.21967ZM11.5781 8L12.1084 8.53033C12.4013 8.23744 12.4013 7.76256 12.1084 7.46967L11.5781 8ZM6.79779 11.7197C6.5049 12.0126 6.5049 12.4874 6.79779 12.7803C7.09068 13.0732 7.56556 13.0732 7.85845 12.7803L6.79779 11.7197ZM6.79779 4.28033L11.0478 8.53033L12.1084 7.46967L7.85845 3.21967L6.79779 4.28033ZM11.0478 7.46967L6.79779 11.7197L7.85845 12.7803L12.1084 8.53033L11.0478 7.46967Z" fill="white"/>
<path vector-effect="non-scaling-stroke" d="M2.32812 8H11.5781H2.32812Z" fill="white"/>
<path vector-effect="non-scaling-stroke" d="M2.32812 8H11.5781" stroke="white" stroke-width="1.5" stroke-linecap="round" stroke-dasharray="10 10"/>
</svg>
