<svg preserveAspectRatio="none" width="60" height="60" viewBox="0 0 60 60" fill="none" xmlns="http://www.w3.org/2000/svg">
<g filter="url(#filter0_d_396_51420)">
<rect vector-effect="non-scaling-stroke" x="5" y="3" width="50" height="50" rx="25" fill="white"/>
<path vector-effect="non-scaling-stroke" fill-rule="evenodd" clip-rule="evenodd" d="M30 26.9C29.39 26.9 28.9 27.39 28.9 28C28.9 28.61 29.39 29.1 30 29.1C30.61 29.1 31.1 28.61 31.1 28C31.1 27.39 30.61 26.9 30 26.9ZM30 18C24.48 18 20 22.48 20 28C20 33.52 24.48 38 30 38C35.52 38 40 33.52 40 28C40 22.48 35.52 18 30 18ZM32.19 30.19L24 34L27.81 25.81L36 22L32.19 30.19Z" fill="#3361FF"/>
</g>
<defs>
<filter id="filter0_d_396_51420" x="0" y="0" width="60" height="60" filterUnits="userSpaceOnUse" color-interpolation-filters="sRGB">
<feFlood flood-opacity="0" result="BackgroundImageFix"/>
<feColorMatrix in="SourceAlpha" type="matrix" values="0 0 0 0 0 0 0 0 0 0 0 0 0 0 0 0 0 0 127 0" result="hardAlpha"/>
<feOffset dy="2"/>
<feGaussianBlur stdDeviation="2.5"/>
<feColorMatrix type="matrix" values="0 0 0 0 0.14902 0 0 0 0 0.2 0 0 0 0 0.301961 0 0 0 0.03 0"/>
<feBlend mode="normal" in2="BackgroundImageFix" result="effect1_dropShadow_396_51420"/>
<feBlend mode="normal" in="SourceGraphic" in2="effect1_dropShadow_396_51420" result="shape"/>
</filter>
</defs>
</svg>
