<svg preserveAspectRatio="none" width="17" height="17" viewBox="0 0 17 17" fill="none" xmlns="http://www.w3.org/2000/svg">
<path vector-effect="non-scaling-stroke" d="M8.12492 0.75C8.26493 0.74991 8.40218 0.789014 8.52112 0.862887C8.64006 0.93676 8.73594 1.04245 8.79792 1.168L10.6799 4.983L14.8899 5.595C15.0284 5.61511 15.1585 5.67355 15.2654 5.76372C15.3724 5.85388 15.4521 5.97218 15.4953 6.10523C15.5386 6.23829 15.5438 6.3808 15.5103 6.51665C15.4769 6.6525 15.4061 6.77628 15.3059 6.874L12.2599 9.844L12.9789 14.036C13.0022 14.1738 12.9866 14.3154 12.9338 14.4449C12.881 14.5743 12.7931 14.6865 12.6801 14.7687C12.567 14.8509 12.4332 14.8999 12.2938 14.9102C12.1544 14.9205 12.0148 14.8917 11.8909 14.827L8.12492 12.847L4.35892 14.827C4.23511 14.892 4.09559 14.9211 3.95611 14.911C3.81663 14.9009 3.68276 14.852 3.5696 14.7699C3.45644 14.6877 3.36851 14.5755 3.31573 14.446C3.26296 14.3165 3.24743 14.1749 3.27092 14.037L3.99092 9.843L0.94292 6.874C0.842487 6.77632 0.77142 6.65247 0.737772 6.51647C0.704125 6.38047 0.709242 6.23777 0.752545 6.10453C0.795847 5.97129 0.875604 5.85284 0.982776 5.76261C1.08995 5.67238 1.22025 5.61397 1.35892 5.594L5.56892 4.983L7.45192 1.168C7.5139 1.04245 7.60979 0.93676 7.72872 0.862887C7.84766 0.789014 7.98491 0.74991 8.12492 0.75ZM8.12492 3.195L6.73992 6C6.68614 6.1089 6.60671 6.20311 6.50846 6.27453C6.41022 6.34595 6.2961 6.39244 6.17592 6.41L3.07892 6.86L5.31892 9.044C5.40607 9.12886 5.47128 9.23365 5.50891 9.34933C5.54654 9.46501 5.55546 9.5881 5.53492 9.708L5.00692 12.792L7.77592 11.336C7.88355 11.2794 8.00332 11.2499 8.12492 11.2499C8.24652 11.2499 8.36629 11.2794 8.47392 11.336L11.2439 12.792L10.7139 9.708C10.6934 9.5881 10.7023 9.46501 10.7399 9.34933C10.7776 9.23365 10.8428 9.12886 10.9299 9.044L13.1699 6.861L10.0739 6.411C9.95374 6.39344 9.83962 6.34695 9.74138 6.27553C9.64313 6.20411 9.5637 6.1099 9.50992 6.001L8.12492 3.195Z" fill="#8B949E"/>
</svg>
