<svg preserveAspectRatio="none" width="17" height="17" viewBox="0 0 17 17" fill="none" xmlns="http://www.w3.org/2000/svg">
<path vector-effect="non-scaling-stroke" d="M8.28146 16.5C8.76871 16.5002 9.23926 16.3225 9.60476 16.0002C9.97026 15.678 10.2055 15.2334 10.2665 14.75C10.2835 14.613 10.1695 14.5 10.0315 14.5H6.53146C6.39346 14.5 6.27946 14.613 6.29646 14.75C6.35736 15.2334 6.59266 15.678 6.95815 16.0002C7.32365 16.3225 7.7942 16.5002 8.28146 16.5ZM3.28146 5.5C3.28146 4.17392 3.80824 2.90215 4.74592 1.96447C5.6836 1.02678 6.95537 0.5 8.28146 0.5C9.60754 0.5 10.8793 1.02678 11.817 1.96447C12.7547 2.90215 13.2815 4.17392 13.2815 5.5V8.447C13.2815 8.497 13.2965 8.545 13.3235 8.586L15.0265 11.141C15.1782 11.3697 15.2652 11.6352 15.2782 11.9093C15.2911 12.1835 15.2295 12.456 15.1 12.698C14.9705 12.9399 14.7778 13.1423 14.5424 13.2835C14.3071 13.4247 14.0379 13.4995 13.7635 13.5H2.79946C2.52443 13.5007 2.25441 13.4265 2.01831 13.2855C1.78221 13.1444 1.58893 12.9418 1.45916 12.6993C1.32939 12.4568 1.26803 12.1836 1.28164 11.9089C1.29526 11.6343 1.38334 11.3685 1.53646 11.14L3.23946 8.586C3.26663 8.54472 3.28122 8.49642 3.28146 8.447V5.5ZM8.28146 2C7.3532 2 6.46296 2.36875 5.80658 3.02513C5.1502 3.6815 4.78146 4.57174 4.78146 5.5V8.447C4.78146 8.793 4.67946 9.13 4.48746 9.417L2.78446 11.973C2.78243 11.9759 2.78138 11.9794 2.78146 11.983L2.78246 11.989C2.78246 11.991 2.78446 11.993 2.78646 11.995L2.79246 11.999L2.79946 12H13.7635L13.7705 11.999L13.7765 11.995L13.7805 11.989L13.7815 11.982C13.7815 11.9784 13.7805 11.9749 13.7785 11.972L12.0755 9.418C11.8836 9.13088 11.7813 8.7933 11.7815 8.448V5.5C11.7815 4.57174 11.4127 3.6815 10.7563 3.02513C10.1 2.36875 9.20971 2 8.28146 2Z" fill="#F0F6FC"/>
</svg>
