<svg preserveAspectRatio="none" width="107" height="106" viewBox="0 0 107 106" fill="none" xmlns="http://www.w3.org/2000/svg">
<rect vector-effect="non-scaling-stroke" opacity="0.15" x="0.517212" width="106" height="106" rx="8" fill="#EF790C"/>
<path vector-effect="non-scaling-stroke" d="M42.9081 29.3888L45.5981 28.5288C48.1206 27.7238 50.8157 29.0263 51.8957 31.5713L54.0457 36.6414C54.9807 38.8489 54.4607 41.4464 52.7607 43.0614L48.0231 47.5565C48.3156 50.2465 49.2206 52.8941 50.7357 55.4991C52.1743 58.0195 54.1041 60.2255 56.4107 61.9867L62.1008 60.0866C64.2558 59.3691 66.6058 60.1966 67.9259 62.1392L71.0084 66.6642C72.5459 68.9243 72.2684 72.0393 70.3609 73.9543L68.3184 76.0068C66.2833 78.0494 63.3758 78.7919 60.6883 77.9519C54.3382 75.9718 48.5056 70.0943 43.1806 60.3191C37.848 50.529 35.9655 42.2189 37.5355 35.3989C38.1955 32.5288 40.238 30.2413 42.9081 29.3888V29.3888Z" fill="#EF790C"/>
</svg>
