<svg preserveAspectRatio="none" width="66" height="134" viewBox="0 0 66 134" fill="none" xmlns="http://www.w3.org/2000/svg">
<path vector-effect="non-scaling-stroke" d="M56.5092 132.59C50.2052 134.744 43.0006 130.475 40.4947 123.071L1.49609 8.80966L24.2844 1.01465L63.3222 115.433C65.8281 122.758 62.774 130.436 56.5092 132.59Z" fill="black"/>
<path vector-effect="non-scaling-stroke" d="M53.1023 134C51.262 134 49.3825 133.569 47.5814 132.668C43.9399 130.866 41.0425 127.498 39.6329 123.345L0.634258 9.08362C0.477637 8.65274 0.712572 8.14352 1.18244 7.98684L23.9708 0.1918C24.2057 0.113459 24.4407 0.113473 24.6364 0.230986C24.8322 0.348499 24.9888 0.505178 25.0671 0.740204L64.1049 115.159C66.7283 122.914 63.4393 131.101 56.7437 133.412C55.6082 133.804 54.3552 134 53.1023 134ZM2.59202 9.35782L41.3165 122.797C42.5695 126.518 45.1538 129.574 48.3645 131.14C50.9487 132.394 53.7288 132.629 56.2347 131.767C62.0297 129.769 64.8489 122.562 62.4995 115.707L23.7358 2.11119L2.59202 9.35782Z" fill="black"/>
</svg>
