<svg preserveAspectRatio="none" width="24" height="13" viewBox="0 0 24 13" fill="none" xmlns="http://www.w3.org/2000/svg">
<path vector-effect="non-scaling-stroke" d="M1 12.7812C1 6.70625 5.925 1.78125 12 1.78125C18.075 1.78125 23 6.70625 23 12.7812C23 18.8563 18.075 23.7812 12 23.7812C5.925 23.7812 1 18.8563 1 12.7812ZM17.398 10.4012C17.5757 10.2118 17.6726 9.96066 17.6684 9.70098C17.6642 9.4413 17.5591 9.19344 17.3754 9.00986C17.1917 8.82628 16.9438 8.72137 16.6841 8.71734C16.4244 8.7133 16.1733 8.81046 15.984 8.98825L9.973 14.9983L8.079 13.1053C7.8904 12.9231 7.6378 12.8223 7.3756 12.8246C7.1134 12.8269 6.86259 12.932 6.67718 13.1174C6.49177 13.3028 6.3866 13.5537 6.38433 13.8158C6.38205 14.078 6.48284 14.3306 6.665 14.5192L9.973 17.8272L17.398 10.4023V10.4012Z" fill="#1ED760"/>
</svg>
