<svg preserveAspectRatio="none" width="12" height="10" viewBox="0 0 12 10" fill="none" xmlns="http://www.w3.org/2000/svg">
<path vector-effect="non-scaling-stroke" opacity="0.4" d="M7.0212 3.65992V2.48167C6.78989 2.48167 6.59808 2.29535 6.59808 2.07066V0.667727C6.59808 0.480852 6.44576 0.333435 6.25395 0.333435H2.37822C1.15966 0.333435 0.166748 1.2974 0.166748 2.48167V3.9005C0.166748 4.01065 0.21188 4.11477 0.290862 4.1915C0.369843 4.26767 0.477032 4.31151 0.589862 4.31151C1.01862 4.31151 1.34583 4.60745 1.34583 4.99654C1.34583 5.40262 1.01298 5.72595 0.595504 5.73089C0.364201 5.73089 0.166748 5.88981 0.166748 6.11998V7.52346C0.166748 8.70718 1.15966 9.66622 2.37258 9.66622H6.25395C6.44576 9.66622 6.59808 9.51771 6.59808 9.33193V8.14766C6.59808 7.91804 6.78989 7.73664 7.0212 7.73664V6.67403C6.78989 6.67403 6.59808 6.48715 6.59808 6.26301V4.07093C6.59808 3.84624 6.78989 3.65992 7.0212 3.65992Z" fill="#0F212B"/>
<path vector-effect="non-scaling-stroke" d="M10.6544 4.99697C10.6544 5.4025 10.9929 5.72583 11.4047 5.73131C11.636 5.73131 11.8335 5.89024 11.8335 6.11493V7.52334C11.8335 8.70761 10.8462 9.66665 9.62762 9.66665H7.78849C7.60232 9.66665 7.44435 9.51813 7.44435 9.33181V8.14808C7.44435 7.91791 7.25818 7.73707 7.02124 7.73707V6.67446C7.25818 6.67446 7.44435 6.48758 7.44435 6.26344V4.07136C7.44435 3.84612 7.25818 3.66034 7.02124 3.66034V2.48155C7.25818 2.48155 7.44435 2.29523 7.44435 2.07054V0.668153C7.44435 0.481278 7.60232 0.333313 7.78849 0.333313H9.62762C10.8462 0.333313 11.8335 1.29235 11.8335 2.47607V3.85708C11.8335 3.96669 11.7883 4.07136 11.7093 4.14753C11.6304 4.22426 11.5232 4.2681 11.4103 4.2681C10.9929 4.2681 10.6544 4.59746 10.6544 4.99697Z" fill="#0F212B"/>
</svg>
