<svg preserveAspectRatio="none" width="17" height="16" viewBox="0 0 17 16" fill="none" xmlns="http://www.w3.org/2000/svg">
<path vector-effect="non-scaling-stroke" d="M8.76555 0.25C8.90556 0.24991 9.0428 0.289014 9.16174 0.362887C9.28068 0.43676 9.37657 0.542452 9.43855 0.668L11.3205 4.483L15.5305 5.095C15.669 5.11511 15.7991 5.17355 15.9061 5.26372C16.0131 5.35388 16.0927 5.47218 16.136 5.60523C16.1792 5.73829 16.1844 5.8808 16.151 6.01665C16.1175 6.1525 16.0467 6.27628 15.9465 6.374L12.9005 9.344L13.6195 13.536C13.6429 13.6738 13.6272 13.8154 13.5744 13.9449C13.5216 14.0743 13.4338 14.1865 13.3207 14.2687C13.2076 14.3509 13.0738 14.3999 12.9344 14.4102C12.795 14.4205 12.6555 14.3917 12.5315 14.327L8.76555 12.347L4.99955 14.327C4.87573 14.392 4.73621 14.4211 4.59674 14.411C4.45726 14.4009 4.32338 14.352 4.21023 14.2699C4.09707 14.1877 4.00914 14.0755 3.95636 13.946C3.90358 13.8165 3.88806 13.6749 3.91155 13.537L4.63155 9.343L1.58355 6.374C1.48311 6.27632 1.41204 6.15247 1.3784 6.01647C1.34475 5.88047 1.34987 5.73777 1.39317 5.60453C1.43647 5.47129 1.51623 5.35284 1.6234 5.26261C1.73057 5.17238 1.86088 5.11397 1.99955 5.094L6.20955 4.483L8.09255 0.668C8.15452 0.542452 8.25041 0.43676 8.36935 0.362887C8.48829 0.289014 8.62553 0.24991 8.76555 0.25ZM8.76555 2.695L7.38055 5.5C7.32676 5.6089 7.24733 5.70311 7.14909 5.77453C7.05085 5.84595 6.93673 5.89244 6.81655 5.91L3.71955 6.36L5.95955 8.544C6.0467 8.62886 6.1119 8.73365 6.14953 8.84933C6.18716 8.96501 6.19609 9.0881 6.17555 9.208L5.64755 12.292L8.41655 10.836C8.52418 10.7794 8.64395 10.7499 8.76555 10.7499C8.88714 10.7499 9.00692 10.7794 9.11455 10.836L11.8845 12.292L11.3545 9.208C11.334 9.0881 11.3429 8.96501 11.3806 8.84933C11.4182 8.73365 11.4834 8.62886 11.5705 8.544L13.8105 6.361L10.7145 5.911C10.5944 5.89344 10.4802 5.84695 10.382 5.77553C10.2838 5.70411 10.2043 5.6099 10.1505 5.501L8.76555 2.695Z" fill="#8B949E"/>
</svg>
