<svg preserveAspectRatio="none" width="60" height="60" viewBox="0 0 60 60" fill="none" xmlns="http://www.w3.org/2000/svg">
<g filter="url(#filter0_d_396_51436)">
<rect vector-effect="non-scaling-stroke" x="5" y="3" width="50" height="50" rx="25" fill="white"/>
<path vector-effect="non-scaling-stroke" fill-rule="evenodd" clip-rule="evenodd" d="M34.4325 22.85L35.8725 24.29L30.9925 29.17L27.7025 25.88C27.5157 25.6927 27.262 25.5875 26.9975 25.5875C26.733 25.5875 26.4793 25.6927 26.2925 25.88L20.2925 31.89C19.9025 32.28 19.9025 32.91 20.2925 33.3C20.6825 33.69 21.3125 33.69 21.7025 33.3L26.9925 28L30.2825 31.29C30.6725 31.68 31.3025 31.68 31.6925 31.29L37.2825 25.71L38.7225 27.15C39.0325 27.46 39.5725 27.24 39.5725 26.8V22.5C39.5825 22.22 39.3625 22 39.0825 22H34.7925C34.3425 22 34.1225 22.54 34.4325 22.85V22.85Z" fill="#C3CAD9"/>
</g>
<defs>
<filter id="filter0_d_396_51436" x="0" y="0" width="60" height="60" filterUnits="userSpaceOnUse" color-interpolation-filters="sRGB">
<feFlood flood-opacity="0" result="BackgroundImageFix"/>
<feColorMatrix in="SourceAlpha" type="matrix" values="0 0 0 0 0 0 0 0 0 0 0 0 0 0 0 0 0 0 127 0" result="hardAlpha"/>
<feOffset dy="2"/>
<feGaussianBlur stdDeviation="2.5"/>
<feColorMatrix type="matrix" values="0 0 0 0 0.14902 0 0 0 0 0.2 0 0 0 0 0.301961 0 0 0 0.03 0"/>
<feBlend mode="normal" in2="BackgroundImageFix" result="effect1_dropShadow_396_51436"/>
<feBlend mode="normal" in="SourceGraphic" in2="effect1_dropShadow_396_51436" result="shape"/>
</filter>
</defs>
</svg>
