<svg preserveAspectRatio="none" width="104" height="43" viewBox="0 0 104 43" fill="none" xmlns="http://www.w3.org/2000/svg">
<g clip-path="url(#clip0_4_7620)">
<path vector-effect="non-scaling-stroke" d="M26.5888 3.79318L19.6202 5.25682L19.588 27.9114C19.588 32.0955 22.7746 34.8 27.0072 34.8C29.3569 34.8 31.0789 34.3705 32.0285 33.8614V28.4841C31.1111 28.85 26.6049 30.1546 26.6049 25.9864V15.9318H32.0285V9.91818H26.6049L26.5888 3.79318ZM40.9283 12.0023L40.4938 9.91818H34.3138V34.2909H41.4433V17.8886C43.1332 15.6932 45.9818 16.1227 46.8991 16.4091V9.91818C45.9335 9.58409 42.6021 8.96364 40.9283 12.0023ZM55.7828 0.5L48.605 2.01136V7.77045L55.7828 6.25909V0.5ZM7.26019 17.0932C7.26019 15.9955 8.19362 15.5659 9.69034 15.55C11.863 15.55 14.6311 16.2023 16.8038 17.3636V10.7136C14.438 9.79091 12.0722 9.425 9.70644 9.425C3.91269 9.425 0.0501862 12.4159 0.0501862 17.4114C0.0501862 25.2386 10.9135 23.9659 10.9135 27.3386C10.9135 28.6432 9.77081 29.0727 8.17753 29.0727C5.81175 29.0727 2.75394 28.1023 0.355967 26.8136V33.1773C3.01144 34.3068 5.69909 34.7841 8.16144 34.7841C14.1 34.7841 18.1878 32.2705 18.1878 27.1796C18.1878 18.7636 7.26019 20.275 7.26019 17.0932ZM103.034 22.3909C103.034 15.1523 99.4935 9.44091 92.7019 9.44091C85.9104 9.44091 81.7743 15.1523 81.7743 22.3432C81.7743 30.8545 86.6507 34.7841 93.6032 34.7841C97.015 34.7841 99.5739 34.0205 101.521 32.9545V27.6409C99.5739 28.6114 97.3369 29.2 94.5044 29.2C91.7202 29.2 89.2739 28.2295 88.9521 24.9205H102.938C102.97 24.5545 103.034 23.075 103.034 22.3909ZM88.8877 19.7182C88.8877 16.5364 90.8672 15.2 92.6536 15.2C94.4079 15.2 96.2747 16.5364 96.2747 19.7182H88.8877ZM70.7178 9.44091C67.9175 9.44091 66.115 10.7455 65.1172 11.6523L64.7471 9.90227H58.4544V42.4841L65.6 40.9886L65.6161 33.0023C66.6461 33.75 68.175 34.7841 70.6696 34.7841C75.7874 34.7841 80.4546 31.0932 80.4546 22.1205C80.4707 13.9114 75.7391 9.44091 70.7178 9.44091ZM69.0119 28.9296C67.3382 28.9296 66.3403 28.325 65.6483 27.5932L65.6 17.0932C66.3403 16.2818 67.3704 15.6932 69.0119 15.6932C71.6191 15.6932 73.4216 18.5886 73.4216 22.2795C73.4377 26.0818 71.6674 28.9296 69.0119 28.9296ZM48.6211 34.2909H55.7989V9.91818H48.6211V34.2909Z" fill="#737373"/>
</g>
<defs>
<clipPath id="clip0_4_7620">
<rect vector-effect="non-scaling-stroke" width="103" height="42" fill="white" transform="translate(0.0332947 0.5)"/>
</clipPath>
</defs>
</svg>
