<svg preserveAspectRatio="none" width="24" height="20" viewBox="0 0 24 20" fill="none" xmlns="http://www.w3.org/2000/svg">
<path vector-effect="non-scaling-stroke" fill-rule="evenodd" clip-rule="evenodd" d="M19.4803 0.232513C21.9718 0.232513 23.999 2.23959 23.999 4.70546L24.0001 7.6011C24.0001 7.82212 23.9119 8.03645 23.7545 8.19273C23.5982 8.35012 23.385 8.43831 23.1629 8.43831C22.2844 8.43831 21.5699 9.13934 21.5699 10.0011C21.5699 10.8629 22.2844 11.5639 23.1629 11.5639C23.625 11.5639 24.0001 11.939 24.0001 12.4011V15.2945C24.0001 17.7604 21.9729 19.7675 19.4814 19.7675H4.51871C2.02717 19.7675 0 17.7604 0 15.2945V12.4011C0 11.939 0.375071 11.5639 0.837212 11.5639C1.71573 11.5639 2.43015 10.8629 2.43015 10.0011C2.43015 9.16389 1.74475 8.53208 0.837212 8.53208C0.615072 8.53208 0.401862 8.44389 0.245582 8.28649C0.0881863 8.13021 0 7.91589 0 7.69486L0.00111628 4.70546C0.00111628 2.23959 2.02829 0.232513 4.51983 0.232513H19.4803ZM19.4803 1.90694H14.9013L14.9019 4.05154C14.9019 4.51368 14.5269 4.88875 14.0647 4.88875C13.6026 4.88875 13.2275 4.51368 13.2275 4.05154L13.2268 1.90694H4.51983C2.95145 1.90694 1.67554 3.16276 1.67554 4.70546L1.67442 6.95812C3.08875 7.30528 4.10457 8.51757 4.10457 10.0011C4.10457 11.4992 3.07089 12.7628 1.67442 13.13V15.2945C1.67442 16.8372 2.95034 18.093 4.51871 18.093H13.2268L13.2275 16.4315C13.2275 15.9682 13.6026 15.5942 14.0647 15.5942C14.5269 15.5942 14.9019 15.9682 14.9019 16.4315L14.9013 18.093H19.4814C21.0497 18.093 22.3257 16.8372 22.3257 15.2945V13.13C20.9292 12.7628 19.8955 11.4992 19.8955 10.0011C19.8955 8.50194 20.9281 7.23942 22.3257 6.87216L22.3245 4.70546C22.3245 3.16276 21.0486 1.90694 19.4803 1.90694ZM14.0647 6.37709C14.5269 6.37709 14.9019 6.75216 14.9019 7.2143V12.5959C14.9019 13.058 14.5269 13.4331 14.0647 13.4331C13.6026 13.4331 13.2275 13.058 13.2275 12.5959V7.2143C13.2275 6.75216 13.6026 6.37709 14.0647 6.37709Z" fill="#00A4FF"/>
</svg>
