<svg preserveAspectRatio="none" width="41" height="59" viewBox="0 0 41 59" fill="none" xmlns="http://www.w3.org/2000/svg">
<path vector-effect="non-scaling-stroke" d="M40.1332 58.3999C40.0941 58.3999 40.0549 58.3999 40.0549 58.3999L19.5376 56.2063C19.4201 56.2063 19.3026 56.1672 19.1852 56.0888C14.7215 55.3837 9.08311 49.7431 4.97181 41.8306C0.625575 33.448 -0.666547 25.3004 1.72192 21.4617L1.76108 21.3441L13.0378 1.36694C13.2727 0.936059 13.7817 0.818551 14.2124 1.05358C14.6432 1.2886 14.7606 1.79783 14.5257 2.22871L3.24898 22.2842C3.24898 22.3234 3.20982 22.3626 3.20982 22.3626C1.17375 25.5354 2.54418 33.3696 6.49886 41.008C10.3752 48.4896 15.9744 54.1302 19.8116 54.4044C19.9291 54.4044 20.0857 54.4436 20.164 54.522L40.2115 56.6764C40.6814 56.7155 41.0338 57.1464 40.9555 57.6165C40.9163 58.0473 40.5639 58.3999 40.1332 58.3999Z" fill="black"/>
</svg>
