<svg preserveAspectRatio="none" width="53" height="39" viewBox="0 0 53 39" fill="none" xmlns="http://www.w3.org/2000/svg">
<path vector-effect="non-scaling-stroke" d="M26.9132 0.780273L0.980103 24.1603H5.62725L26.9132 4.97027L48.1991 24.1603H52.8463L26.9132 0.780273Z" fill="#F27321"/>
<path vector-effect="non-scaling-stroke" d="M26.6303 9.48047H23.8622V12.2205H26.6303V9.48047Z" fill="#F27321"/>
<path vector-effect="non-scaling-stroke" d="M29.9641 9.48047H27.196V12.2205H29.9641V9.48047Z" fill="#F27321"/>
<path vector-effect="non-scaling-stroke" d="M26.6303 12.8501H23.8622V15.5901H26.6303V12.8501Z" fill="#F27321"/>
<path vector-effect="non-scaling-stroke" d="M29.9641 12.8501H27.196V15.5901H29.9641V12.8501Z" fill="#F27321"/>
<path vector-effect="non-scaling-stroke" d="M39.3696 27.29V27.23C41.0264 26.38 42.0366 24.71 42.0366 22.62C42.0366 19.16 39.4302 17.16 35.7832 17.16H29.2267C28.5498 17.16 28.2164 17.49 28.2164 18.16V19.96V27.74C28.2164 29.24 27.8224 30.69 27.1658 31.89C27.0041 32.19 26.8223 32.48 26.6202 32.75L24.7816 30.9C24.3472 30.47 23.8622 30.53 23.4379 31.02L23.0439 31.41C22.6095 31.9 22.6095 32.38 23.1046 32.8L24.9129 34.59C23.6602 35.62 21.9125 36.17 20.195 36.17C15.659 36.17 12.2545 32.47 12.2545 27.74C12.2545 23.04 15.659 19.55 20.195 19.55C23.2561 19.55 25.8221 21.12 27.1759 23.57V19.05C25.3069 17.63 22.9126 16.79 20.195 16.79C13.8204 16.79 9.13281 21.55 9.13281 27.74C9.13281 33.99 13.7598 38.93 20.195 38.93C22.8318 38.93 25.1958 38.11 27.0647 36.62L28.2467 37.79L28.9034 38.44C28.9438 38.48 28.9842 38.52 29.0246 38.55C29.3681 38.83 29.7217 38.81 30.0652 38.56C30.1359 38.51 30.2066 38.45 30.2773 38.38L30.6713 37.96C31.0956 37.47 31.0653 36.99 30.5804 36.56L28.8024 34.81C30.045 33.32 30.9138 31.44 31.227 29.39C31.2674 29.15 31.2876 28.9 31.3179 28.66C31.3381 28.36 31.3583 28.06 31.3583 27.75C31.3583 27.21 31.328 26.69 31.2573 26.17C31.2472 26.12 31.2472 26.08 31.2371 26.03V19.77H35.7428C37.7936 19.77 38.9958 21.05 38.9958 22.93C38.9958 24.81 37.7633 26.18 35.8034 26.18H32.318C32.3786 26.69 32.4089 27.22 32.4089 27.76C32.4089 28.06 32.3988 28.37 32.3786 28.67H36.1166C38.3896 28.67 39.8545 30.16 39.8545 32.34C39.8545 34.52 38.4401 35.98 36.1166 35.98H31.4694C31.8937 36.42 32.0149 36.88 32.0352 37.2C32.0554 37.54 31.9846 38.05 31.5401 38.59H35.9549C39.7838 38.59 42.9458 36.53 42.9458 32.49C42.9256 30.08 41.6426 27.96 39.3696 27.29Z" fill="#F27321"/>
</svg>
