<svg preserveAspectRatio="none" width="51" height="66" viewBox="0 0 51 66" fill="none" xmlns="http://www.w3.org/2000/svg">
<path vector-effect="non-scaling-stroke" d="M39.3034 59.3388C45.4256 56.1581 44.2481 41.7506 36.6732 27.1588C29.0984 12.567 17.9947 3.31643 11.8725 6.49715C5.75019 9.67786 6.92773 24.0854 14.5026 38.6772C22.0774 53.269 33.1811 62.5195 39.3034 59.3388Z" fill="#B9FF66"/>
<path vector-effect="non-scaling-stroke" d="M36.624 60.8479C29.8893 60.8479 20.4921 52.1519 13.7182 39.0296C8.07984 28.1401 5.76968 16.9372 7.84491 10.474C8.58886 8.20209 9.80269 6.59608 11.4864 5.73431C18.1428 2.32644 29.5369 11.61 37.4463 26.8475C43.0846 37.737 45.3948 48.9399 43.3196 55.4031C42.5756 57.675 41.3618 59.281 39.6781 60.1428C38.7384 60.6129 37.7204 60.8479 36.624 60.8479ZM14.5405 6.71359C13.7182 6.71359 12.9351 6.87028 12.2695 7.22282C10.9773 7.88873 10.0376 9.14219 9.45029 10.9832C7.53168 17.0156 9.76354 27.7484 15.2061 38.2462C22.4107 52.1519 33.2567 61.5138 38.8559 58.6151C40.148 57.9492 41.0877 56.6958 41.675 54.8547C43.5936 48.7832 41.3226 38.0896 35.9192 27.5917C29.5761 15.4096 20.4921 6.71359 14.5405 6.71359Z" fill="#B9FF66"/>
</svg>
