<svg preserveAspectRatio="none" width="164" height="26" viewBox="0 0 164 26" fill="none" xmlns="http://www.w3.org/2000/svg">
<path vector-effect="non-scaling-stroke" fill-rule="evenodd" clip-rule="evenodd" d="M12.4023 0.796875C5.65363 0.796875 0.1875 6.26301 0.1875 13.0117C0.1875 18.4167 3.68399 22.982 8.53939 24.6005C9.15013 24.7074 9.37916 24.3409 9.37916 24.0203C9.37916 23.7302 9.36389 22.7683 9.36389 21.7453C6.29491 22.3102 5.50095 20.9971 5.25665 20.31C5.11924 19.9589 4.52376 18.8748 4.00463 18.5847C3.57711 18.3557 2.96637 17.7907 3.98936 17.7755C4.95128 17.7602 5.63837 18.661 5.86739 19.0275C6.96673 20.875 8.72261 20.3558 9.42497 20.0352C9.53185 19.2412 9.85249 18.7068 10.2037 18.4015C7.48586 18.0961 4.64591 17.0426 4.64591 12.3704C4.64591 11.042 5.11924 9.94273 5.89793 9.08769C5.77578 8.78232 5.34826 7.5303 6.02008 5.85076C6.02008 5.85076 7.04307 5.53012 9.37916 7.10278C10.3564 6.82795 11.3946 6.69053 12.4329 6.69053C13.4711 6.69053 14.5094 6.82795 15.4866 7.10278C17.8227 5.51485 18.8457 5.85076 18.8457 5.85076C19.5175 7.5303 19.09 8.78232 18.9678 9.08769C19.7465 9.94273 20.2198 11.0268 20.2198 12.3704C20.2198 17.0578 17.3646 18.0961 14.6468 18.4015C15.0896 18.7832 15.4713 19.5161 15.4713 20.6612C15.4713 22.2949 15.4561 23.608 15.4561 24.0203C15.4561 24.3409 15.6851 24.7226 16.2958 24.6005C21.1207 22.982 24.6172 18.4015 24.6172 13.0117C24.6172 6.26301 19.151 0.796875 12.4023 0.796875Z" fill="white"/>
<path vector-effect="non-scaling-stroke" d="M39.7127 21.3349C38.4041 21.3349 37.2279 21.1324 36.1842 20.7274C35.156 20.3068 34.2758 19.7148 33.5436 18.9514C32.827 18.1725 32.274 17.2456 31.8846 16.1707C31.5107 15.0958 31.3237 13.9041 31.3237 12.5955C31.3237 11.2246 31.5263 10.0095 31.9313 8.95014C32.3519 7.87524 32.9361 6.96391 33.6839 6.21615C34.4316 5.45281 35.3274 4.87641 36.3711 4.48695C37.4149 4.08191 38.5755 3.87939 39.8529 3.87939C41.3328 3.87939 42.6336 4.12865 43.7552 4.62715C44.8769 5.11008 45.7726 5.79553 46.4425 6.6835C47.128 7.55588 47.5408 8.58405 47.681 9.76801H44.503C44.3628 9.08256 44.0746 8.50616 43.6384 8.03881C43.2178 7.55588 42.6803 7.18979 42.0261 6.94054C41.3873 6.67571 40.6629 6.54329 39.8529 6.54329C38.778 6.54329 37.8355 6.77697 37.0254 7.24432C36.2153 7.69609 35.5922 8.37375 35.156 9.2773C34.7198 10.1808 34.5017 11.2869 34.5017 12.5955C34.5017 13.5769 34.6186 14.4571 34.8522 15.236C35.1015 15.9994 35.4598 16.6381 35.9271 17.1522C36.3945 17.6662 36.9475 18.0635 37.5862 18.3439C38.2405 18.6087 38.9649 18.7411 39.7594 18.7411C40.8032 18.7411 41.7067 18.5542 42.47 18.1803C43.2334 17.7909 43.8254 17.2378 44.246 16.5212C44.6666 15.789 44.8769 14.9244 44.8769 13.9274V13.3199L45.7882 14.3948H39.8061V12.1515H48.0081V13.5769C48.0081 14.7609 47.8056 15.8358 47.4006 16.8016C47.0111 17.7519 46.4503 18.562 45.7181 19.2319C45.0015 19.9017 44.1291 20.4236 43.101 20.7975C42.0884 21.1558 40.9589 21.3349 39.7127 21.3349ZM53.9917 21.3349C53.2439 21.3349 52.5585 21.2025 51.9353 20.9377C51.3278 20.6573 50.7981 20.2445 50.3463 19.6992C49.9102 19.154 49.5752 18.4841 49.3415 17.6896C49.1079 16.8795 48.991 15.9526 48.991 14.9089C48.991 13.4912 49.1936 12.3073 49.5986 11.357C50.0192 10.3912 50.6034 9.66675 51.3512 9.18382C52.1145 8.70089 52.9947 8.45943 53.9917 8.45943C54.6771 8.45943 55.2847 8.56847 55.8143 8.78657C56.3596 8.98909 56.8269 9.27729 57.2164 9.65117C57.6059 10.0251 57.9018 10.469 58.1044 10.9831H58.2679L58.3848 8.6931H61.1889V21.1246H58.2679V18.8112H58.1044C57.8084 19.5746 57.3021 20.1899 56.5855 20.6573C55.8689 21.1091 55.0043 21.3349 53.9917 21.3349ZM55.09 18.9514C55.791 18.9514 56.3674 18.7879 56.8191 18.4607C57.2865 18.1336 57.637 17.713 57.8707 17.1989C58.1044 16.6692 58.2212 16.1162 58.2212 15.5398V14.2546C58.2212 13.6626 58.1044 13.1096 57.8707 12.5955C57.637 12.0658 57.2865 11.6452 56.8191 11.3336C56.3674 11.0065 55.791 10.8429 55.09 10.8429C54.4668 10.8429 53.9216 10.9909 53.4542 11.2869C52.9869 11.5829 52.6208 12.0347 52.356 12.6422C52.0911 13.2342 51.9587 13.9897 51.9587 14.9089C51.9587 15.7968 52.0911 16.5446 52.356 17.1522C52.6208 17.7597 52.9869 18.2115 53.4542 18.5075C53.9216 18.8035 54.4668 18.9514 55.09 18.9514ZM62.9192 21.1246V4.0897H65.8401V21.1246H62.9192ZM72.0504 21.3349C71.3026 21.3349 70.6172 21.2025 69.994 20.9377C69.3865 20.6573 68.8568 20.2445 68.4051 19.6992C67.9689 19.154 67.6339 18.4841 67.4003 17.6896C67.1666 16.8795 67.0497 15.9526 67.0497 14.9089C67.0497 13.4912 67.2523 12.3073 67.6573 11.357C68.0779 10.3912 68.6621 9.66675 69.4099 9.18382C70.1732 8.70089 71.0534 8.45943 72.0504 8.45943C72.7358 8.45943 73.3434 8.56847 73.8731 8.78657C74.4183 8.98909 74.8856 9.27729 75.2751 9.65117C75.6646 10.0251 75.9605 10.469 76.1631 10.9831H76.3266L76.4435 8.6931H79.2476V21.1246H76.3266V18.8112H76.1631C75.8671 19.5746 75.3608 20.1899 74.6442 20.6573C73.9276 21.1091 73.063 21.3349 72.0504 21.3349ZM73.1487 18.9514C73.8497 18.9514 74.4261 18.7879 74.8779 18.4607C75.3452 18.1336 75.6957 17.713 75.9294 17.1989C76.1631 16.6692 76.2799 16.1162 76.2799 15.5398V14.2546C76.2799 13.6626 76.1631 13.1096 75.9294 12.5955C75.6957 12.0658 75.3452 11.6452 74.8779 11.3336C74.4261 11.0065 73.8497 10.8429 73.1487 10.8429C72.5255 10.8429 71.9803 10.9909 71.5129 11.2869C71.0456 11.5829 70.6795 12.0347 70.4147 12.6422C70.1498 13.2342 70.0174 13.9897 70.0174 14.9089C70.0174 15.7968 70.1498 16.5446 70.4147 17.1522C70.6795 17.7597 71.0456 18.2115 71.5129 18.5075C71.9803 18.8035 72.5255 18.9514 73.1487 18.9514ZM80.2768 21.1246L85.0205 14.7219L80.7208 8.6931H84.1792L86.96 12.7123H87.1002L89.8575 8.6931H93.1757L88.9696 14.6518L93.6197 21.1246H90.1847L87.0067 16.5913H86.8665L83.5483 21.1246H80.2768ZM94.3074 25.027V22.6201H95.6861C96.06 22.6201 96.3715 22.5734 96.6208 22.4799C96.87 22.3865 97.0803 22.2385 97.2517 22.036C97.4231 21.8334 97.5633 21.5764 97.6723 21.2648L98.35 19.5123V20.8209L93.2792 8.6931H96.4806L99.0276 15.7968L99.495 17.1989H99.6118L100.032 15.7968L102.439 8.6931H105.547L100.523 21.9425C100.242 22.737 99.8924 23.3601 99.4716 23.8119C99.0666 24.2637 98.5914 24.5752 98.0462 24.7466C97.5165 24.9335 96.909 25.027 96.2235 25.027H94.3074Z" fill="white"/>
<path vector-effect="non-scaling-stroke" d="M114.899 21.1247V20.7041C114.899 19.7694 115.054 18.9438 115.366 18.2272C115.678 17.495 116.09 16.8485 116.604 16.2877C117.119 15.7113 117.679 15.1894 118.287 14.722C118.91 14.2547 119.525 13.8107 120.133 13.3901C120.74 12.9695 121.301 12.5489 121.815 12.1282C122.329 11.692 122.742 11.2325 123.054 10.7496C123.365 10.251 123.521 9.6902 123.521 9.06706C123.521 8.47509 123.389 7.961 123.124 7.52481C122.875 7.08861 122.516 6.75368 122.049 6.52C121.597 6.27075 121.068 6.14612 120.46 6.14612C119.806 6.14612 119.237 6.28633 118.754 6.56674C118.271 6.83157 117.897 7.21324 117.633 7.71175C117.383 8.19467 117.274 8.79444 117.305 9.51105H114.945C114.914 8.40498 115.132 7.44691 115.6 6.63684C116.067 5.82677 116.729 5.19584 117.586 4.74407C118.458 4.2923 119.463 4.06641 120.6 4.06641C121.691 4.06641 122.641 4.26893 123.451 4.67397C124.261 5.06343 124.892 5.63204 125.344 6.3798C125.796 7.11198 126.022 7.96879 126.022 8.95022C126.022 9.68241 125.889 10.3445 125.624 10.9365C125.359 11.5285 125.001 12.0737 124.549 12.5722C124.113 13.0551 123.622 13.5069 123.077 13.9275C122.548 14.3326 122.002 14.7298 121.441 15.1193C120.896 15.5087 120.374 15.906 119.876 16.311C119.377 16.7005 118.957 17.1211 118.614 17.5729C118.271 18.0091 118.038 18.4842 117.913 18.9983H126.208V21.1247H114.899ZM133.13 21.3117C132.195 21.3117 131.346 21.1247 130.583 20.7508C129.835 20.3614 129.188 19.8006 128.643 19.0684C128.114 18.3206 127.701 17.4093 127.405 16.3344C127.124 15.2595 126.984 14.0366 126.984 12.6657C126.984 11.2792 127.132 10.0485 127.428 8.97359C127.724 7.89869 128.145 7.00293 128.69 6.28633C129.235 5.55415 129.882 5.0089 130.629 4.6506C131.377 4.27672 132.218 4.08978 133.153 4.08978C134.088 4.08978 134.921 4.28451 135.654 4.67397C136.401 5.04785 137.04 5.60088 137.57 6.33306C138.099 7.06525 138.504 7.96879 138.785 9.04369C139.065 10.1031 139.205 11.3182 139.205 12.6891C139.205 14.0911 139.057 15.3296 138.761 16.4045C138.481 17.4638 138.068 18.3674 137.523 19.1151C136.993 19.8473 136.355 20.4003 135.607 20.7742C134.859 21.1325 134.033 21.3117 133.13 21.3117ZM133.106 19.2553C133.683 19.2553 134.197 19.1307 134.649 18.8814C135.1 18.6322 135.482 18.2427 135.794 17.7131C136.121 17.1834 136.37 16.5058 136.541 15.6801C136.713 14.8389 136.799 13.8419 136.799 12.6891C136.799 11.5207 136.713 10.5237 136.541 9.69798C136.37 8.87233 136.121 8.19467 135.794 7.66501C135.482 7.13535 135.1 6.74589 134.649 6.49664C134.197 6.24738 133.683 6.12276 133.106 6.12276C132.546 6.12276 132.032 6.24738 131.564 6.49664C131.112 6.74589 130.723 7.13535 130.396 7.66501C130.084 8.1791 129.843 8.85675 129.671 9.69798C129.5 10.5237 129.414 11.5207 129.414 12.6891C129.414 13.8419 129.5 14.8389 129.671 15.6801C129.843 16.5058 130.084 17.1834 130.396 17.7131C130.723 18.2427 131.112 18.6322 131.564 18.8814C132.032 19.1307 132.546 19.2553 133.106 19.2553ZM139.877 21.1247V20.7041C139.877 19.7694 140.033 18.9438 140.345 18.2272C140.656 17.495 141.069 16.8485 141.583 16.2877C142.097 15.7113 142.658 15.1894 143.265 14.722C143.889 14.2547 144.504 13.8107 145.112 13.3901C145.719 12.9695 146.28 12.5489 146.794 12.1282C147.308 11.692 147.721 11.2325 148.032 10.7496C148.344 10.251 148.5 9.6902 148.5 9.06706C148.5 8.47509 148.367 7.961 148.103 7.52481C147.853 7.08861 147.495 6.75368 147.028 6.52C146.576 6.27075 146.046 6.14612 145.439 6.14612C144.784 6.14612 144.216 6.28633 143.733 6.56674C143.25 6.83157 142.876 7.21324 142.611 7.71175C142.362 8.19467 142.253 8.79444 142.284 9.51105H139.924C139.893 8.40498 140.111 7.44691 140.578 6.63684C141.046 5.82677 141.708 5.19584 142.564 4.74407C143.437 4.2923 144.442 4.06641 145.579 4.06641C146.669 4.06641 147.62 4.26893 148.43 4.67397C149.24 5.06343 149.871 5.63204 150.322 6.3798C150.774 7.11198 151 7.96879 151 8.95022C151 9.68241 150.868 10.3445 150.603 10.9365C150.338 11.5285 149.98 12.0737 149.528 12.5722C149.092 13.0551 148.601 13.5069 148.056 13.9275C147.526 14.3326 146.981 14.7298 146.42 15.1193C145.875 15.5087 145.353 15.906 144.854 16.311C144.356 16.7005 143.935 17.1211 143.593 17.5729C143.25 18.0091 143.016 18.4842 142.892 18.9983H151.187V21.1247H139.877ZM157.805 21.335C156.621 21.335 155.6 21.1092 154.743 20.6574C153.887 20.2056 153.225 19.5747 152.757 18.7646C152.29 17.9545 152.056 17.012 152.056 15.9371H154.416C154.416 16.5914 154.549 17.1678 154.814 17.6663C155.094 18.1648 155.491 18.5543 156.005 18.8347C156.519 19.1151 157.119 19.2553 157.805 19.2553C158.506 19.2553 159.105 19.1307 159.604 18.8814C160.118 18.6322 160.515 18.2817 160.796 17.8299C161.076 17.3626 161.216 16.8251 161.216 16.2176C161.216 15.7502 161.138 15.3374 160.983 14.9791C160.842 14.6208 160.632 14.3248 160.352 14.0911C160.087 13.8574 159.768 13.6861 159.394 13.577C159.02 13.4524 158.599 13.3901 158.132 13.3901H156.286V11.544H157.992C158.646 11.544 159.191 11.4272 159.627 11.1935C160.063 10.9443 160.391 10.6171 160.609 10.2121C160.842 9.79146 160.959 9.31632 160.959 8.78665C160.959 8.22583 160.827 7.75069 160.562 7.36123C160.313 6.9562 159.954 6.65242 159.487 6.4499C159.035 6.24738 158.49 6.14612 157.851 6.14612C157.166 6.14612 156.574 6.28633 156.075 6.56674C155.593 6.83157 155.219 7.20545 154.954 7.68838C154.705 8.17131 154.572 8.73992 154.557 9.39421H152.196C152.196 8.3193 152.43 7.3846 152.897 6.59011C153.38 5.78003 154.05 5.1569 154.907 4.7207C155.779 4.28451 156.792 4.06641 157.945 4.06641C158.786 4.06641 159.542 4.17546 160.211 4.39356C160.881 4.59608 161.458 4.89207 161.941 5.28152C162.424 5.67098 162.79 6.13833 163.039 6.68358C163.304 7.22882 163.436 7.83637 163.436 8.50624C163.436 9.12938 163.327 9.69799 163.109 10.2121C162.891 10.7262 162.587 11.1624 162.198 11.5207C161.808 11.879 161.349 12.1438 160.819 12.3152V12.4554C161.442 12.5956 161.964 12.8526 162.385 13.2265C162.805 13.6004 163.125 14.06 163.343 14.6052C163.576 15.1349 163.693 15.7424 163.693 16.4279C163.693 17.4093 163.444 18.2661 162.945 18.9983C162.463 19.7305 161.777 20.3069 160.889 20.7275C160.017 21.1325 158.989 21.335 157.805 21.335Z" fill="white"/>
</svg>
