<svg preserveAspectRatio="none" width="165" height="220" viewBox="0 0 165 220" fill="none" xmlns="http://www.w3.org/2000/svg">
<path vector-effect="non-scaling-stroke" d="M4.36738 99.0685L50.8446 1.33691H50.8838C39.333 26.093 47.7514 76.271 74.0245 127.037C100.376 177.881 136.634 213.8 163.573 218.736L162.829 218.697L56.0523 200.404L53.5855 199.973C41.1733 197.779 24.6106 181.641 12.7466 158.608C0.569331 134.988 -1.58421 111.447 3.81921 100.244L4.36738 99.0685Z" fill="white"/>
<path vector-effect="non-scaling-stroke" d="M163.573 219.598C163.573 219.598 163.534 219.598 163.573 219.598L162.79 219.558C162.751 219.558 162.711 219.558 162.672 219.558L55.896 201.266L53.4292 200.835C40.3122 198.524 23.6712 181.719 11.9638 159.039C-1.30981 133.265 -1.97546 110.311 3.03641 99.8911L3.62374 98.716L50.101 1.02357C50.2185 0.827713 50.3751 0.671026 50.61 0.592684C50.845 0.514342 51.0799 0.514345 51.2757 0.631858C51.7064 0.827713 51.9022 1.33693 51.7064 1.76781C39.9207 27.0331 49.2396 77.2503 74.8471 126.684C100.494 176.196 136.243 212.86 163.769 217.913C164.199 217.992 164.513 218.383 164.473 218.853C164.356 219.245 164.004 219.598 163.573 219.598ZM46.3813 12.7749L5.15079 99.4602L4.56346 100.635C-0.409251 110.977 1.0395 134.087 13.4909 158.217C24.9634 180.466 41.1345 196.918 53.7424 199.111L56.2092 199.542L152.1 215.994C126.14 204.595 95.7952 170.947 73.2809 127.467C50.9233 84.3011 40.9387 40.4687 46.3813 12.7749Z" fill="black"/>
</svg>
