<svg preserveAspectRatio="none" width="90" height="32" viewBox="0 0 90 32" fill="none" xmlns="http://www.w3.org/2000/svg">
<path vector-effect="non-scaling-stroke" fill-rule="evenodd" clip-rule="evenodd" d="M42.2172 5.01394C42.6892 2.33494 45.2432 0.54693 47.9222 1.01893L76.0612 5.98094C79.9062 6.65894 83.3812 8.44393 85.8442 11.0239C88.3062 13.6019 89.9742 17.2669 89.2592 21.3249C88.5432 25.3829 85.7222 28.2569 82.5282 29.8389C79.3312 31.4219 75.4542 31.9139 71.6082 31.2359L4.74613 19.4459C2.06763 18.9739 0.279123 16.4189 0.751423 13.7409C1.22372 11.0619 3.77792 9.27393 6.45652 9.74593L73.3192 21.5359C75.3132 21.8869 77.0302 21.5709 78.1572 21.0129C79.2852 20.4539 79.5172 19.8559 79.5592 19.6149C79.6012 19.3749 79.5892 18.7359 78.7212 17.8259C77.8532 16.9169 76.3472 16.0329 74.3512 15.6809L46.0962 9.71594C43.4182 9.24394 41.7442 7.69194 42.2172 5.01394Z" fill="url(#paint0_linear_1617_11682)"/>
<defs>
<linearGradient vector-effect="non-scaling-stroke" id="paint0_linear_1617_11682" x1="70.6852" y1="23.7059" x2="56.7952" y2="-41.4841" gradientUnits="userSpaceOnUse">
<stop stop-color="#A259FF"/>
<stop offset="0.666667" stop-color="white"/>
</linearGradient>
</defs>
</svg>
