<svg preserveAspectRatio="none" width="73" height="73" viewBox="0 0 73 73" fill="none" xmlns="http://www.w3.org/2000/svg">
<path vector-effect="non-scaling-stroke" d="M18.422 9.38281H63.6174V55.0813C63.6174 57.167 62.9989 59.2059 61.8401 60.9401C60.6813 62.6743 59.0343 64.026 57.1074 64.8241C55.1804 65.6223 53.0601 65.8311 51.0144 65.4242C48.9688 65.0173 47.0898 64.013 45.6149 62.5381C44.1401 61.0633 43.1357 59.1843 42.7288 57.1386C42.3219 55.093 42.5308 52.9726 43.3289 51.0457C44.1271 49.1187 45.4788 47.4717 47.213 46.313C48.9472 45.1542 50.9861 44.5357 53.0718 44.5357H57.5913V15.4089H24.4481V55.0813C24.4481 57.167 23.8296 59.2059 22.6708 60.9401C21.5121 62.6743 19.8651 64.026 17.9381 64.8241C16.0112 65.6223 13.8908 65.8311 11.8452 65.4242C9.79953 65.0173 7.92049 64.013 6.44566 62.5381C4.97084 61.0633 3.96647 59.1843 3.55957 57.1386C3.15267 55.093 3.3615 52.9726 4.15967 51.0457C4.95784 49.1187 6.30949 47.4717 8.0437 46.313C9.77792 45.1542 11.8168 44.5357 13.9025 44.5357H18.422V9.38281ZM18.422 50.5618H13.9025C13.0086 50.5618 12.1348 50.8268 11.3916 51.3234C10.6484 51.8201 10.0691 52.5259 9.72701 53.3517C9.38494 54.1776 9.29543 55.0863 9.46982 55.963C9.64421 56.8397 10.0747 57.645 10.7067 58.2771C11.3388 58.9092 12.1441 59.3396 13.0208 59.514C13.8975 59.6884 14.8062 59.5989 15.6321 59.2568C16.4579 58.9147 17.1638 58.3354 17.6604 57.5922C18.157 56.849 18.422 55.9752 18.422 55.0813V50.5618ZM57.5913 50.5618H53.0718C52.1779 50.5618 51.3041 50.8268 50.5609 51.3234C49.8176 51.8201 49.2384 52.5259 48.8963 53.3517C48.5542 54.1776 48.4647 55.0863 48.6391 55.963C48.8135 56.8397 49.2439 57.645 49.876 58.2771C50.5081 58.9092 51.3134 59.3396 52.1901 59.514C53.0668 59.6884 53.9755 59.5989 54.8013 59.2568C55.6272 58.9147 56.333 58.3354 56.8296 57.5922C57.3262 56.849 57.5913 55.9752 57.5913 55.0813V50.5618Z" fill="white"/>
</svg>
