<svg preserveAspectRatio="none" width="13" height="14" viewBox="0 0 13 14" fill="none" xmlns="http://www.w3.org/2000/svg">
<path vector-effect="non-scaling-stroke" d="M6.70312 1.57715C8.77567 1.57715 10.6062 2.63354 11.6846 4.23612L11.6856 4.23751C11.706 4.26311 11.724 4.2899 11.7394 4.31759C12.3484 5.25665 12.7031 6.37628 12.7031 7.57715C12.7031 10.8758 10.0275 13.561 6.73275 13.5771C6.73045 13.5772 6.72808 13.5772 6.72571 13.5772L6.70312 13.5771C3.39461 13.5771 0.703125 10.8857 0.703125 7.57715C0.703125 4.26884 3.39461 1.57715 6.70312 1.57715ZM6.70312 2.73841C6.50724 2.73841 6.31401 2.75011 6.12415 2.77285C6.10068 2.86688 6.05209 2.95543 5.97963 3.02954L4.45469 4.59027C4.34336 4.70416 4.1929 4.76513 4.03928 4.76513C3.97064 4.76513 3.9016 4.75293 3.83492 4.72796C3.61935 4.64672 3.47203 4.4459 3.45965 4.21578L3.44757 4.00038C2.47541 4.88602 1.86437 6.16157 1.86437 7.57715C1.86437 7.85826 1.88848 8.13383 1.93471 8.40194L2.82222 9.13851C2.83126 9.14579 2.84011 9.15366 2.84876 9.16172L3.62294 9.8875C3.69316 9.95319 3.74587 10.0354 3.77636 10.1269L4.07945 11.0324L4.53656 11.2547H5.56446C5.71827 11.2547 5.86597 11.3156 5.97495 11.4246L6.95933 12.4092C9.50879 12.2755 11.5418 10.1593 11.5418 7.57715C11.5418 6.82573 11.3697 6.11376 11.0627 5.47862L10.1603 6.19929L10.3277 6.56533C10.3627 6.64125 10.3804 6.72366 10.3804 6.80706V7.56097C10.3804 7.73327 10.3039 7.89671 10.1717 8.00706C10.0393 8.1172 9.86467 8.16343 9.69532 8.13215L8.75869 7.96064L9.22956 9.24168C9.2866 9.39667 9.2748 9.56856 9.1973 9.71451L8.37474 11.2628C8.28523 11.4314 8.11941 11.5438 7.93282 11.5667L7.86178 11.571C7.647 11.571 7.44972 11.4522 7.34902 11.2624L6.95543 10.5205C6.94875 10.5076 6.94226 10.4944 6.93636 10.481L6.6134 9.74146L6.22533 9.20725L4.85755 9.39431C4.75822 9.40788 4.65692 9.39568 4.56369 9.35831L3.39124 8.89078C3.16839 8.80168 3.02322 8.58513 3.02556 8.34517L3.04191 6.80096C3.04408 6.60348 3.14616 6.42076 3.31334 6.31553L5.27867 5.07954C5.51371 4.93182 5.82094 4.97096 6.01114 5.17375L6.66218 5.86708L7.48492 6.18375L7.75616 6.08678L6.60494 4.44246C6.48162 4.26623 6.46568 4.0363 6.56363 3.84492L7.12044 2.75624C6.98288 2.74443 6.8437 2.73841 6.70312 2.73841Z" fill="#8F8F8F"/>
</svg>
