<svg preserveAspectRatio="none" width="277" height="239" viewBox="0 0 277 239" fill="none" xmlns="http://www.w3.org/2000/svg">
<path vector-effect="non-scaling-stroke" d="M41.3084 238.517C41.2692 238.517 41.2301 238.517 41.2301 238.517L19.5772 236.167C19.4597 236.167 19.3423 236.128 19.2248 236.05C14.7611 235.344 9.12276 229.704 5.01146 221.791C0.626074 213.448 -0.666049 205.3 1.72242 201.462L1.76158 201.344L13.0383 181.367C13.0774 181.289 13.1166 181.249 13.1558 181.21L41.8565 151.401C41.8957 151.362 41.9349 151.323 41.974 151.284L115.508 98.7944L162.024 0.984503C162.141 0.788648 162.298 0.631965 162.533 0.553623C162.768 0.475281 163.003 0.475281 163.199 0.592794C163.629 0.788649 163.825 1.29787 163.629 1.72875C151.844 26.994 161.163 77.2112 186.77 126.645C212.417 176.157 248.165 212.821 275.692 217.874C276.122 217.953 276.436 218.344 276.396 218.814C276.357 219.245 275.966 219.559 275.535 219.598L274.791 219.559C274.752 219.559 274.713 219.559 274.674 219.559L167.936 201.266L82.1081 231.976C82.069 231.976 81.9907 232.015 81.9515 232.015L41.4258 238.478C41.3867 238.517 41.3475 238.517 41.3084 238.517ZM20.2037 234.522L41.3084 236.794L81.6383 230.331L167.623 199.581C167.78 199.542 167.897 199.503 168.054 199.542L264.141 215.994C238.181 204.595 207.836 170.947 185.321 127.468C162.964 84.3012 152.979 40.4689 158.461 12.775L117.035 99.7345C116.956 99.8521 116.878 99.9696 116.761 100.048L43.1095 152.655L14.5262 182.307L3.24948 202.284C3.24948 202.323 3.21032 202.363 3.21032 202.363C1.17425 205.535 2.54468 213.37 6.49936 221.008C10.3757 228.49 15.9749 234.13 19.8121 234.404C19.9688 234.404 20.0862 234.444 20.2037 234.522Z" fill="black"/>
</svg>
