<svg preserveAspectRatio="none" width="29" height="21" viewBox="0 0 29 21" fill="none" xmlns="http://www.w3.org/2000/svg">
<path vector-effect="non-scaling-stroke" d="M26.1931 1.75313C27.0763 1.75313 27.7989 2.47313 27.7989 3.35313V18.5531C27.7989 19.4331 27.0763 20.1531 26.1931 20.1531H2.90873C2.02553 20.1531 1.30291 19.4331 1.30291 18.5531V3.35313C1.30291 2.47313 2.02553 1.75313 2.90873 1.75313H26.1931ZM26.1931 0.953125H2.90873C1.5759 0.953125 0.5 2.02513 0.5 3.35313V18.5531C0.5 19.8811 1.5759 20.9531 2.90873 20.9531H26.1931C27.5259 20.9531 28.6018 19.8811 28.6018 18.5531V3.35313C28.6018 2.02513 27.5259 0.953125 26.1931 0.953125Z" fill="#E7E7E7"/>
</svg>
