<svg preserveAspectRatio="none" width="16" height="17" viewBox="0 0 16 17" fill="none" xmlns="http://www.w3.org/2000/svg">
<path vector-effect="non-scaling-stroke" d="M11.0299 0.96995C11.1704 1.11058 11.2493 1.3012 11.2493 1.49995C11.2493 1.6987 11.1704 1.88933 11.0299 2.02995L4.55994 8.49995L11.0299 14.97C11.1036 15.0386 11.1627 15.1214 11.2037 15.2134C11.2447 15.3054 11.2668 15.4047 11.2685 15.5054C11.2703 15.6061 11.2518 15.7062 11.2141 15.7995C11.1763 15.8929 11.1202 15.9778 11.049 16.049C10.9778 16.1202 10.8929 16.1764 10.7995 16.2141C10.7062 16.2518 10.6061 16.2703 10.5054 16.2685C10.4047 16.2668 10.3054 16.2447 10.2134 16.2037C10.1214 16.1627 10.0386 16.1036 9.96994 16.03L2.43994 8.49995L9.96994 0.96995C10.1106 0.8295 10.3012 0.75061 10.4999 0.75061C10.6987 0.75061 10.8893 0.8295 11.0299 0.96995Z" fill="white"/>
</svg>
