<svg preserveAspectRatio="none" width="1416" height="175" viewBox="0 0 1416 175" fill="none" xmlns="http://www.w3.org/2000/svg">
<rect vector-effect="non-scaling-stroke" width="1416" height="175" fill="#FAFAFA"/>
<g clip-path="url(#clip0_4_7607)">
<g clip-path="url(#clip1_4_7607)">
<g clip-path="url(#clip2_4_7607)">
<path vector-effect="non-scaling-stroke" d="M229.255 102.425L235.419 102.553C233.295 101.818 231.235 100.924 229.255 99.8709V102.425ZM238.542 101.579V102.425L235.419 102.553C241.294 104.548 246.669 104.819 250.66 103.702C247.457 103.734 243.289 103.287 238.542 101.579ZM304.349 83.1901C306.908 83.1901 309 81.131 309 78.577C309 76.023 306.924 74.6662 304.349 74.6662C301.79 74.6662 299.698 76.039 299.698 78.577C299.698 81.115 301.774 83.1901 304.349 83.1901ZM299.682 102.425H309V84.7864H299.682V102.425ZM287.821 102.425H297.139V71.2502L287.821 75.608V102.425ZM282.831 83.3657C279.902 80.4606 274.72 80.6362 274.72 80.6362C274.72 80.6362 269.522 80.4606 266.609 83.3657C263.68 86.2709 263.905 88.777 263.905 91.762C263.905 94.747 263.68 97.2371 266.609 100.142C269.538 103.047 274.72 102.872 274.72 102.872C274.72 102.872 279.919 103.047 282.831 100.142C285.761 97.2371 285.535 94.747 285.535 91.762C285.519 88.761 285.744 86.2549 282.831 83.3657ZM276.426 94.8427C276.426 95.4174 276.136 96.838 274.704 96.838C273.272 96.838 272.982 95.4174 272.982 94.8427V88.3939C272.982 87.0052 274.157 86.654 274.704 86.654C275.251 86.654 276.426 86.9892 276.426 88.3939V94.8427ZM259.335 83.3657C256.406 80.4606 251.223 80.6362 251.223 80.6362C251.223 80.6362 246.041 80.4606 243.112 83.3657C242.806 83.669 242.517 83.9883 242.259 84.3235C236.111 79.5986 230.591 76.9009 225.827 74.5704V71.2662L222.206 72.9582C213.451 69.4305 207.883 70.0531 206.547 72.9742C206.547 72.9742 202.54 78.2099 216.493 90.6606V102.425H225.811V97.8596C224.765 97.1892 223.719 96.4709 222.689 95.6887C220.307 93.9009 218.279 92.2409 216.509 90.6765V85.7282C218.617 88.0747 221.418 90.7404 225.103 93.7573L225.827 94.3319V89.5751C225.827 88.4737 226.101 86.67 227.566 86.67C229.03 86.67 229.272 87.7714 229.272 89.0643V96.838C232.168 98.7855 235.274 100.366 238.558 101.563V86.5742C238.558 83.5892 236.401 80.6042 232.024 80.6042C229.481 80.5883 227.115 81.9132 225.827 84.1V75.4324C232.571 78.7685 239.33 82.8549 241.905 84.7385C240.264 87.069 240.408 89.2239 240.408 91.7141C240.408 94.6991 240.183 97.1892 243.112 100.094C246.041 103 251.223 102.824 251.223 102.824C251.223 102.824 256.422 103 259.335 100.094C262.264 97.1892 262.022 94.6991 262.022 91.7141C262.022 88.761 262.264 86.2549 259.335 83.3657ZM216.493 75.608V85.7122C208.655 77.0127 210.233 73.5808 210.828 73.0859C213.001 71.2662 216.863 71.8089 221.192 73.4211L216.493 75.608ZM252.945 94.8427C252.945 95.4174 252.656 96.838 251.223 96.838C249.791 96.838 249.501 95.4174 249.501 94.8427V88.3939C249.501 87.0052 250.676 86.654 251.223 86.654C251.771 86.654 252.945 86.9892 252.945 88.3939V94.8427Z" fill="#737373"/>
</g>
</g>
<g clip-path="url(#clip3_4_7607)">
<path vector-effect="non-scaling-stroke" d="M395.5 58.9952H408.112V93.0099C408.112 98.4046 410.544 101.615 412.521 102.952C410.463 104.761 404.221 106.358 399.52 102.496C396.764 100.214 395.5 96.4162 395.5 92.8795V58.9952ZM474.269 87.2729V83.6872H478.127V71.1701H473.896C472.259 63.624 465.596 58.0173 457.637 58.0173C448.461 58.0173 440.988 65.5146 440.988 74.7557V103.962C443.582 104.337 446.727 103.913 449.369 101.681C452.141 99.3988 453.389 95.6176 453.389 92.0646V90.9726H459.679V78.4555H453.389V74.6579C453.389 69.0187 461.851 69.0187 461.851 74.6579V87.224C461.851 96.4488 469.308 103.962 478.5 103.962V91.4941C476.149 91.4941 474.269 89.5872 474.269 87.2729ZM426.56 71.1375V89.5546C426.56 92.0646 422.702 92.0646 422.702 89.5546V71.1375H410.252V92.7654C410.252 96.6444 411.549 101.567 417.547 103.18C423.545 104.777 426.982 101.452 426.982 101.452C426.641 103.636 424.631 105.25 421.324 105.576C418.811 105.837 415.618 104.989 414.029 104.305V115.762C418.098 116.985 422.378 117.36 426.609 116.528C434.244 115.045 439.059 108.64 439.059 100.1V71.056H426.56V71.1375Z" fill="#737373"/>
</g>
<g clip-path="url(#clip4_4_7607)">
<path vector-effect="non-scaling-stroke" d="M667 50.1458C654.122 58.8283 652.752 65.1296 651.636 67.0572C650.568 69.0334 649.772 76.825 647.923 80.5993C646.058 84.4222 639.285 87.4352 637.388 88.6987C635.523 89.9622 632.878 94.8704 630.71 99.0982C613.482 98.3855 604.031 105.383 589.4 114.26C594.086 112.689 596.301 111.555 596.301 111.555C611.314 105.724 618.502 100.491 641.102 103.585C641.277 103.585 641.404 103.682 641.548 103.715C642.169 104.071 642.392 104.833 642.042 105.464L633.452 120.983C633.053 121.744 632.208 122.149 631.364 121.971C611.155 118.116 595.202 124.773 580.539 124.984C568.841 125.162 565 119.557 565 119.298C565 119.12 565.096 119.023 565.271 119.023C565.271 119.023 571.375 119.023 581.702 116.544C593.432 93.8175 603.887 85.8639 615.267 85.8639C615.267 85.8639 626.694 85.8639 629.706 95.8909C633.34 89.46 634.217 87.9211 634.217 87.9211C635.061 86.3985 639.795 75.4157 647.987 65.0162C656.194 54.649 662.394 52.0734 667 50.1458Z" fill="#737373"/>
</g>
<g clip-path="url(#clip5_4_7607)">
<g clip-path="url(#clip6_4_7607)">
<path vector-effect="non-scaling-stroke" d="M772.555 69.7932L765.587 71.2568L765.555 93.9114C765.555 98.0955 768.741 100.8 772.974 100.8C775.324 100.8 777.046 100.37 777.995 99.8614V94.4841C777.078 94.85 772.572 96.1546 772.572 91.9864V81.9318H777.995V75.9182H772.572L772.555 69.7932ZM786.895 78.0023L786.46 75.9182H780.28V100.291H787.41V83.8886C789.1 81.6932 791.948 82.1227 792.866 82.4091V75.9182C791.9 75.5841 788.569 74.9636 786.895 78.0023ZM801.75 66.5L794.572 68.0114V73.7705L801.75 72.2591V66.5ZM753.227 83.0932C753.227 81.9955 754.16 81.5659 755.657 81.55C757.83 81.55 760.598 82.2023 762.77 83.3636V76.7136C760.405 75.7909 758.039 75.425 755.673 75.425C749.879 75.425 746.017 78.4159 746.017 83.4114C746.017 91.2386 756.88 89.9659 756.88 93.3386C756.88 94.6432 755.738 95.0727 754.144 95.0727C751.778 95.0727 748.721 94.1023 746.323 92.8136V99.1773C748.978 100.307 751.666 100.784 754.128 100.784C760.067 100.784 764.155 98.2705 764.155 93.1796C764.155 84.7636 753.227 86.275 753.227 83.0932ZM849.001 88.3909C849.001 81.1523 845.46 75.4409 838.669 75.4409C831.877 75.4409 827.741 81.1523 827.741 88.3432C827.741 96.8545 832.617 100.784 839.57 100.784C842.982 100.784 845.541 100.02 847.488 98.9545V93.6409C845.541 94.6114 843.304 95.2 840.471 95.2C837.687 95.2 835.241 94.2295 834.919 90.9205H848.904C848.936 90.5545 849.001 89.075 849.001 88.3909ZM834.854 85.7182C834.854 82.5364 836.834 81.2 838.62 81.2C840.375 81.2 842.241 82.5364 842.241 85.7182H834.854ZM816.685 75.4409C813.884 75.4409 812.082 76.7455 811.084 77.6523L810.714 75.9023H804.421V108.484L811.567 106.989L811.583 99.0023C812.613 99.75 814.142 100.784 816.636 100.784C821.754 100.784 826.421 97.0932 826.421 88.1205C826.437 79.9114 821.706 75.4409 816.685 75.4409ZM814.979 94.9296C813.305 94.9296 812.307 94.325 811.615 93.5932L811.567 83.0932C812.307 82.2818 813.337 81.6932 814.979 81.6932C817.586 81.6932 819.388 84.5886 819.388 88.2795C819.404 92.0818 817.634 94.9296 814.979 94.9296ZM794.588 100.291H801.766V75.9182H794.588V100.291Z" fill="#737373"/>
</g>
</g>
<g clip-path="url(#clip7_4_7607)">
<g clip-path="url(#clip8_4_7607)">
<path vector-effect="non-scaling-stroke" d="M955.887 78.9887C955.771 82.6268 957.604 84.2378 957.65 85.261C957.628 85.4692 957.556 85.6693 957.441 85.8445C957.325 86.0197 957.169 86.165 956.985 86.2681L954.912 87.7072C954.644 87.8938 954.327 88.0007 954 88.0156C953.93 88.0124 952.673 88.3096 950.682 83.9021C949.468 85.4055 947.922 86.6133 946.164 87.4332C944.406 88.2531 942.482 88.6633 940.54 88.6324C937.903 88.7754 930.755 87.1483 931.123 79.6039C930.866 73.4553 936.641 69.6357 942.613 69.9585C943.764 69.9618 946.112 70.018 950.225 70.9656V68.4567C950.661 64.2067 947.844 60.9091 942.967 61.4038C942.578 61.4054 939.824 61.3235 935.541 63.0277C934.348 63.5706 934.196 63.4807 933.799 63.4807C932.599 63.4807 933.093 60.0305 933.323 59.5936C934.167 58.5656 939.132 56.6462 944.005 56.6735C947.263 56.3878 950.504 57.3848 953.026 59.4491C954.052 60.5864 954.834 61.918 955.326 63.3635C955.818 64.809 956.009 66.3383 955.889 67.8592L955.887 78.9887ZM941.888 84.1912C947.141 84.1157 949.365 80.9836 949.872 79.2971C950.271 77.6828 950.204 76.6613 950.204 74.8961C948.638 74.5234 946.383 74.117 943.796 74.1138C941.342 73.9307 936.859 75.0181 937.034 79.2955C936.833 81.9923 938.836 84.339 941.888 84.1912ZM969.576 87.8936C968.302 88.0092 967.709 87.1129 967.522 86.2279L959.454 59.7815C959.297 59.335 959.193 58.874 959.143 58.4034C959.113 58.2094 959.163 58.0116 959.28 57.8535C959.397 57.6953 959.573 57.5898 959.769 57.5601C959.807 57.5537 959.423 57.5601 963.373 57.5601C964.795 57.4188 965.258 58.5287 965.406 59.2258L971.192 81.8462L976.564 59.2258C976.65 58.7086 977.04 57.4477 978.638 57.581H981.417C981.769 57.5521 983.217 57.5007 983.471 59.2467L988.885 82.1562L994.858 59.2467C994.936 58.8965 995.299 57.4204 996.912 57.581H1000.11C1000.24 57.5601 1001.1 57.4509 1000.96 58.9592C1000.89 59.2563 1001.51 57.2469 992.412 86.2488C992.226 87.1338 991.631 88.0301 990.358 87.9144H987.33C985.558 88.0992 985.304 86.3628 985.276 86.1878L979.904 64.1617L974.594 86.1653C974.568 86.3404 974.314 88.0767 972.54 87.892H969.576V87.8936ZM1013.88 88.7979C1012.93 88.7995 1008.38 88.7497 1004.59 86.8238C1004.21 86.665 1003.89 86.3984 1003.66 86.0579C1003.43 85.7173 1003.32 85.3181 1003.32 84.9108V83.1841C1003.32 81.8269 1004.32 82.0758 1004.75 82.2381C1006.38 82.8902 1007.42 83.3849 1009.42 83.78C1015.36 84.9895 1017.97 83.4106 1018.61 83.0605C1020.74 81.806 1020.9 78.9357 1019.46 77.4467C1017.76 76.0349 1016.95 75.9819 1010.85 74.0737C1010.1 73.8665 1003.77 71.8876 1003.76 65.6635C1003.66 61.1276 1007.81 56.6398 1015.02 56.6767C1017.07 56.6751 1022.54 57.3401 1024.02 59.1856C1024.24 59.5213 1024.35 59.9165 1024.33 60.3164V61.9403C1024.33 62.6535 1024.07 63.01 1023.54 63.01C1022.29 62.8719 1020.08 61.2159 1015.58 61.2834C1014.46 61.2255 1009.12 61.4295 1009.36 65.2941C1009.29 68.3395 1013.67 69.4815 1014.17 69.6132C1020.07 71.3752 1022.05 71.6676 1024.39 74.3644C1027.17 77.9382 1025.67 82.1224 1025.1 83.2693C1022.01 89.291 1014.01 88.8011 1013.88 88.7979ZM1020.39 105.641C1009.05 113.948 992.577 118.37 978.516 118.37C959.543 118.494 941.21 111.577 927.12 98.9781C926.062 98.032 926.996 96.7358 928.282 97.457C943.912 106.322 961.608 110.98 979.614 110.968C993.061 110.897 1006.36 108.192 1018.75 103.01C1020.66 102.207 1022.28 104.263 1020.39 105.641ZM1025.12 100.294C1023.67 98.4432 1015.52 99.4294 1011.87 99.8615C1010.77 99.9852 1010.58 99.0391 1011.58 98.3404C1018.07 93.8157 1028.73 95.1119 1029.95 96.633C1031.18 98.1541 1029.62 108.745 1023.54 113.805C1022.61 114.587 1021.72 114.175 1022.13 113.147C1023.5 109.733 1026.57 102.146 1025.12 100.294Z" fill="#737373"/>
</g>
</g>
<g clip-path="url(#clip9_4_7607)">
<g clip-path="url(#clip10_4_7607)">
<path vector-effect="non-scaling-stroke" d="M1188.93 79.1614C1186.53 79.1614 1184.42 80.1556 1182.87 81.7111C1177.17 77.7503 1169.49 75.2006 1160.98 74.928L1165.41 54.9156L1179.49 58.0906C1179.49 61.5543 1182.3 64.3766 1185.75 64.3766C1189.26 64.3766 1192.09 61.4741 1192.09 58.0104C1192.09 54.5467 1189.28 51.6443 1185.75 51.6443C1183.29 51.6443 1181.17 53.1356 1180.11 55.1721L1164.56 51.7084C1163.78 51.5 1163.01 52.0612 1162.81 52.847L1157.95 74.912C1149.51 75.2648 1141.91 77.8144 1136.19 81.7752C1134.64 80.1556 1132.45 79.1614 1130.06 79.1614C1121.18 79.1614 1118.27 91.124 1126.4 95.2131C1126.11 96.4799 1125.99 97.8269 1125.99 99.1739C1125.99 112.612 1141.06 123.5 1159.56 123.5C1178.15 123.5 1193.22 112.612 1193.22 99.1739C1193.22 97.8269 1193.08 96.4158 1192.73 95.149C1200.69 91.0438 1197.76 79.1614 1188.93 79.1614ZM1139.29 96.063C1139.29 92.5351 1142.1 89.6968 1145.63 89.6968C1149.07 89.6968 1151.88 92.5191 1151.88 96.063C1151.88 99.5267 1149.07 102.349 1145.63 102.349C1142.11 102.365 1139.29 99.5267 1139.29 96.063ZM1173.5 111.056C1167.69 116.893 1151.29 116.893 1145.48 111.056C1144.84 110.495 1144.84 109.501 1145.48 108.859C1146.04 108.298 1147.03 108.298 1147.59 108.859C1152.03 113.43 1166.75 113.51 1171.38 108.859C1171.94 108.298 1172.93 108.298 1173.49 108.859C1174.14 109.501 1174.14 110.495 1173.5 111.056ZM1173.37 102.365C1169.93 102.365 1167.12 99.5427 1167.12 96.079C1167.12 92.5512 1169.93 89.7129 1173.37 89.7129C1176.89 89.7129 1179.71 92.5351 1179.71 96.079C1179.7 99.5267 1176.89 102.365 1173.37 102.365Z" fill="#737373"/>
</g>
</g>
</g>
<defs>
<clipPath id="clip0_4_7607">
<rect vector-effect="non-scaling-stroke" width="1050" height="175" fill="white" transform="translate(183)"/>
</clipPath>
<clipPath id="clip1_4_7607">
<rect vector-effect="non-scaling-stroke" width="153" height="34" fill="white" transform="translate(181 70.5)"/>
</clipPath>
<clipPath id="clip2_4_7607">
<rect vector-effect="non-scaling-stroke" width="103" height="34" fill="white" transform="translate(206 70.5)"/>
</clipPath>
<clipPath id="clip3_4_7607">
<rect vector-effect="non-scaling-stroke" width="83" height="59" fill="white" transform="translate(395.5 58)"/>
</clipPath>
<clipPath id="clip4_4_7607">
<rect vector-effect="non-scaling-stroke" width="102" height="75" fill="white" transform="translate(565 50)"/>
</clipPath>
<clipPath id="clip5_4_7607">
<rect vector-effect="non-scaling-stroke" width="151" height="42" fill="white" transform="translate(722 66.5)"/>
</clipPath>
<clipPath id="clip6_4_7607">
<rect vector-effect="non-scaling-stroke" width="103" height="42" fill="white" transform="translate(746 66.5)"/>
</clipPath>
<clipPath id="clip7_4_7607">
<rect vector-effect="non-scaling-stroke" width="151" height="62" fill="white" transform="translate(903 56.5)"/>
</clipPath>
<clipPath id="clip8_4_7607">
<rect vector-effect="non-scaling-stroke" width="104" height="62" fill="white" transform="translate(926.5 56.5)"/>
</clipPath>
<clipPath id="clip9_4_7607">
<rect vector-effect="non-scaling-stroke" width="151" height="72" fill="white" transform="translate(1084 51.5)"/>
</clipPath>
<clipPath id="clip10_4_7607">
<rect vector-effect="non-scaling-stroke" width="76" height="72" fill="white" transform="translate(1121.5 51.5)"/>
</clipPath>
</defs>
</svg>
