<svg preserveAspectRatio="none" width="43" height="59" viewBox="0 0 43 59" fill="none" xmlns="http://www.w3.org/2000/svg">
<path vector-effect="non-scaling-stroke" d="M41.5034 57.5379C34.847 57.0678 25.528 47.6276 18.7542 34.5837C11.5888 20.7563 9.90508 6.45893 14.2905 1.3667L2.58305 21.7356L2.50474 21.8923C0.272892 25.3393 1.56502 33.2911 5.75463 41.3994C9.86593 49.3903 15.6609 54.9526 19.733 55.266L19.6156 55.3443L41.5034 57.5379Z" fill="white"/>
<path vector-effect="non-scaling-stroke" d="M41.5036 58.3996C41.4645 58.3996 41.4645 58.3996 41.4253 58.3996C41.2687 58.3996 41.0729 58.3604 40.9163 58.3604L19.5376 56.206C19.4201 56.206 19.3026 56.1668 19.1852 56.0885C14.7215 55.3834 9.08311 49.7428 4.97181 41.8302C0.625575 33.4476 -0.666547 25.3001 1.72192 21.4613L1.76108 21.3438L12.0589 3.40352C12.4505 2.38507 12.9595 1.48412 13.586 0.739872C13.86 0.387333 14.3691 0.348176 14.7215 0.583202C15.0739 0.857399 15.1913 1.32744 14.9564 1.71915L13.5076 4.18694C11.1975 10.4151 13.4685 22.6365 19.4201 34.0744C25.8807 46.5699 34.6906 55.6968 40.9946 56.5194L41.4645 56.5585C41.9344 56.5977 42.2867 57.0286 42.2476 57.4986C42.2867 58.047 41.9343 58.3996 41.5036 58.3996ZM20.164 54.5216L35.1213 56.0493C29.3655 52.3672 23.0224 44.7681 17.9713 34.9753C13.0769 25.5351 10.6493 15.7424 11.0409 8.6916L3.24898 22.2839C3.24898 22.3231 3.20982 22.3623 3.20982 22.3623C1.17375 25.5351 2.54418 33.3693 6.49886 41.0077C10.3752 48.4893 15.9744 54.1299 19.8116 54.4041C19.9291 54.4041 20.0857 54.4433 20.164 54.5216Z" fill="black"/>
</svg>
