<svg preserveAspectRatio="none" width="165" height="165" viewBox="0 0 165 165" fill="none" xmlns="http://www.w3.org/2000/svg">
<g opacity="0.5">
<path vector-effect="non-scaling-stroke" d="M17.7298 130.638L17.5924 130.775C15.7369 126.721 14.5687 122.116 14.0876 117.031C14.5687 122.048 15.8744 126.583 17.7298 130.638Z" fill="white"/>
<path vector-effect="non-scaling-stroke" d="M61.8484 71.3319C70.8813 71.3319 78.2039 64.0093 78.2039 54.9765C78.2039 45.9436 70.8813 38.621 61.8484 38.621C52.8155 38.621 45.4929 45.9436 45.4929 54.9765C45.4929 64.0093 52.8155 71.3319 61.8484 71.3319Z" fill="white"/>
<path vector-effect="non-scaling-stroke" d="M111.259 13.7441H53.6707C28.6565 13.7441 13.7441 28.6565 13.7441 53.6707V111.259C13.7441 118.749 15.0498 125.278 17.5925 130.775C23.5025 143.832 36.147 151.185 53.6707 151.185H111.259C136.273 151.185 151.185 136.273 151.185 111.259V95.5215V53.6707C151.185 28.6565 136.273 13.7441 111.259 13.7441ZM139.984 85.9007C134.624 81.2964 125.965 81.2964 120.605 85.9007L92.0168 110.434C86.6566 115.038 77.9978 115.038 72.6376 110.434L70.3011 108.51C65.422 104.249 57.6565 103.837 52.1589 107.548L26.4574 124.796C24.9456 120.948 24.0522 116.481 24.0522 111.259V53.6707C24.0522 34.2916 34.2916 24.0522 53.6707 24.0522H111.259C130.638 24.0522 140.877 34.2916 140.877 53.6707V86.6566L139.984 85.9007Z" fill="white"/>
</g>
</svg>
