<svg preserveAspectRatio="none" width="16" height="17" viewBox="0 0 16 17" fill="none" xmlns="http://www.w3.org/2000/svg">
<path vector-effect="non-scaling-stroke" d="M4.97015 0.96995C4.8297 1.11058 4.75081 1.3012 4.75081 1.49995C4.75081 1.6987 4.8297 1.88933 4.97015 2.02995L11.4402 8.49995L4.97015 14.97C4.89647 15.0386 4.83736 15.1214 4.79637 15.2134C4.75538 15.3054 4.73334 15.4047 4.73156 15.5054C4.72979 15.6061 4.74831 15.7062 4.78603 15.7995C4.82375 15.8929 4.8799 15.9778 4.95112 16.049C5.02233 16.1202 5.10717 16.1764 5.20056 16.2141C5.29394 16.2518 5.39397 16.2703 5.49468 16.2685C5.59538 16.2668 5.69469 16.2447 5.78669 16.2037C5.87869 16.1627 5.96149 16.1036 6.03015 16.03L13.5602 8.49995L6.03015 0.96995C5.88953 0.8295 5.6989 0.75061 5.50015 0.75061C5.3014 0.75061 5.11078 0.8295 4.97015 0.96995Z" fill="white"/>
</svg>
