<svg preserveAspectRatio="none" width="60" height="60" viewBox="0 0 60 60" fill="none" xmlns="http://www.w3.org/2000/svg">
<g filter="url(#filter0_d_405_51453)">
<rect vector-effect="non-scaling-stroke" x="5" y="3" width="50" height="50" rx="25" fill="white"/>
<path vector-effect="non-scaling-stroke" fill-rule="evenodd" clip-rule="evenodd" d="M29.5865 37.5C30.6865 37.5 31.5865 36.6 31.5865 35.5H27.5865C27.5865 36.6 28.4765 37.5 29.5865 37.5ZM35.5865 31.5V26.5C35.5865 23.43 33.9465 20.86 31.0865 20.18V19.5C31.0865 18.67 30.4165 18 29.5865 18C28.7565 18 28.0865 18.67 28.0865 19.5V20.18C25.2165 20.86 23.5865 23.42 23.5865 26.5V31.5L22.2965 32.79C21.6665 33.42 22.1065 34.5 22.9965 34.5H36.1665C37.0565 34.5 37.5065 33.42 36.8765 32.79L35.5865 31.5Z" fill="#C3CAD9"/>
</g>
<defs>
<filter id="filter0_d_405_51453" x="0" y="0" width="60" height="60" filterUnits="userSpaceOnUse" color-interpolation-filters="sRGB">
<feFlood flood-opacity="0" result="BackgroundImageFix"/>
<feColorMatrix in="SourceAlpha" type="matrix" values="0 0 0 0 0 0 0 0 0 0 0 0 0 0 0 0 0 0 127 0" result="hardAlpha"/>
<feOffset dy="2"/>
<feGaussianBlur stdDeviation="2.5"/>
<feColorMatrix type="matrix" values="0 0 0 0 0.14902 0 0 0 0 0.2 0 0 0 0 0.301961 0 0 0 0.03 0"/>
<feBlend mode="normal" in2="BackgroundImageFix" result="effect1_dropShadow_405_51453"/>
<feBlend mode="normal" in="SourceGraphic" in2="effect1_dropShadow_405_51453" result="shape"/>
</filter>
</defs>
</svg>
