<svg preserveAspectRatio="none" width="16" height="17" viewBox="0 0 16 17" fill="none" xmlns="http://www.w3.org/2000/svg">
<path vector-effect="non-scaling-stroke" d="M3 1.91611C2.99986 1.79317 3.03211 1.67236 3.09349 1.56584C3.15487 1.45932 3.24322 1.37084 3.34966 1.30931C3.4561 1.24778 3.57686 1.21537 3.6998 1.21533C3.82275 1.2153 3.94353 1.24764 4.05 1.30911L14.94 7.59711C15.0463 7.65858 15.1346 7.74693 15.1959 7.8533C15.2573 7.95967 15.2896 8.08031 15.2896 8.20311C15.2896 8.32592 15.2573 8.44656 15.1959 8.55293C15.1346 8.65929 15.0463 8.74765 14.94 8.80911L4.05 15.0971C3.9436 15.1585 3.82291 15.1909 3.70005 15.1909C3.5772 15.1909 3.4565 15.1586 3.35009 15.0972C3.24369 15.0358 3.15532 14.9474 3.09386 14.841C3.03241 14.7347 3.00004 14.614 3 14.4911V1.91611Z" fill="black"/>
</svg>
