<svg preserveAspectRatio="none" width="95" height="24" viewBox="0 0 95 24" fill="none" xmlns="http://www.w3.org/2000/svg">
<path vector-effect="non-scaling-stroke" fill-rule="evenodd" clip-rule="evenodd" d="M17.9526 11.6667L0 5.18546L7.04737 0L25 6.48121L17.9526 11.6667ZM2 13.1484L16.3621 18.3333L22 14.185L7.6379 9L2 13.1484ZM5 20.1113L15.7716 24L20 20.8887L9.22842 17L5 20.1113Z" fill="#0096C7"/>
<path vector-effect="non-scaling-stroke" d="M31 20.256V3.45599H34.072V20.256H31Z" fill="white"/>
<path vector-effect="non-scaling-stroke" d="M36.0561 20.256V8.35199H38.7681L39.0081 10.368C39.3761 9.66399 39.9041 9.10399 40.5921 8.68799C41.2961 8.27199 42.1201 8.06399 43.0641 8.06399C44.5361 8.06399 45.6801 8.52799 46.4961 9.45599C47.3121 10.384 47.7201 11.744 47.7201 13.536V20.256H44.6481V13.824C44.6481 12.8 44.4401 12.016 44.0241 11.472C43.6081 10.928 42.9601 10.656 42.0801 10.656C41.2161 10.656 40.5041 10.96 39.9441 11.568C39.4001 12.176 39.1281 13.024 39.1281 14.112V20.256H36.0561Z" fill="white"/>
<path vector-effect="non-scaling-stroke" d="M52.5565 20.256L48.1885 8.35199H51.4045L54.4285 17.352L57.4525 8.35199H60.6685L56.2765 20.256H52.5565Z" fill="white"/>
<path vector-effect="non-scaling-stroke" d="M66.6042 20.544C65.4042 20.544 64.3402 20.288 63.4122 19.776C62.4842 19.264 61.7562 18.544 61.2282 17.616C60.7002 16.688 60.4362 15.616 60.4362 14.4C60.4362 13.168 60.6922 12.072 61.2042 11.112C61.7322 10.152 62.4522 9.40799 63.3642 8.87999C64.2922 8.33599 65.3802 8.06399 66.6282 8.06399C67.7962 8.06399 68.8282 8.31999 69.7242 8.832C70.6202 9.34399 71.3162 10.048 71.8122 10.944C72.3242 11.824 72.5802 12.808 72.5802 13.896C72.5802 14.072 72.5722 14.256 72.5562 14.448C72.5562 14.64 72.5482 14.84 72.5322 15.048H63.4842C63.5482 15.976 63.8682 16.704 64.4442 17.232C65.0362 17.76 65.7482 18.024 66.5802 18.024C67.2042 18.024 67.7242 17.888 68.1402 17.616C68.5722 17.328 68.8922 16.96 69.1002 16.512H72.2202C71.9962 17.264 71.6202 17.952 71.0922 18.576C70.5802 19.184 69.9402 19.664 69.1722 20.016C68.4202 20.368 67.5642 20.544 66.6042 20.544ZM66.6282 10.56C65.8762 10.56 65.2122 10.776 64.6362 11.208C64.0602 11.624 63.6922 12.264 63.5322 13.128H69.4602C69.4122 12.344 69.1242 11.72 68.5962 11.256C68.0682 10.792 67.4122 10.56 66.6282 10.56Z" fill="white"/>
<path vector-effect="non-scaling-stroke" d="M78.8839 20.544C77.8279 20.544 76.8999 20.376 76.0999 20.04C75.2999 19.688 74.6599 19.208 74.1799 18.6C73.6999 17.992 73.4119 17.288 73.3159 16.488H76.4119C76.5079 16.952 76.7639 17.352 77.1799 17.688C77.6119 18.008 78.1639 18.168 78.8359 18.168C79.5079 18.168 79.9959 18.032 80.2999 17.76C80.6199 17.488 80.7799 17.176 80.7799 16.824C80.7799 16.312 80.5559 15.968 80.1079 15.792C79.6599 15.6 79.0359 15.416 78.2359 15.24C77.7239 15.128 77.2039 14.992 76.6759 14.832C76.1479 14.672 75.6599 14.472 75.2119 14.232C74.7799 13.976 74.4279 13.656 74.1559 13.272C73.8839 12.872 73.7479 12.384 73.7479 11.808C73.7479 10.752 74.1639 9.86399 74.9959 9.14399C75.8439 8.42399 77.0279 8.06399 78.5479 8.06399C79.9559 8.06399 81.0759 8.39199 81.9079 9.04799C82.7559 9.70399 83.2599 10.608 83.4199 11.76H80.5159C80.3399 10.88 79.6759 10.44 78.5239 10.44C77.9479 10.44 77.4999 10.552 77.1799 10.776C76.8759 11 76.7239 11.28 76.7239 11.616C76.7239 11.968 76.9559 12.248 77.4199 12.456C77.8839 12.664 78.4999 12.856 79.2679 13.032C80.0999 13.224 80.8599 13.44 81.5479 13.68C82.2519 13.904 82.8119 14.248 83.2279 14.712C83.6439 15.16 83.8519 15.808 83.8519 16.656C83.8679 17.392 83.6759 18.056 83.2759 18.648C82.8759 19.24 82.2999 19.704 81.5479 20.04C80.7959 20.376 79.9079 20.544 78.8839 20.544Z" fill="white"/>
<path vector-effect="non-scaling-stroke" d="M90.3023 20.256C89.0543 20.256 88.0543 19.952 87.3023 19.344C86.5503 18.736 86.1743 17.656 86.1743 16.104V10.92H84.1343V8.35199H86.1743L86.5343 5.15999H89.2463V8.35199H92.4623V10.92H89.2463V16.128C89.2463 16.704 89.3663 17.104 89.6063 17.328C89.8623 17.536 90.2943 17.64 90.9023 17.64H92.3903V20.256H90.3023Z" fill="white"/>
</svg>
