<svg preserveAspectRatio="none" width="24" height="24" viewBox="0 0 24 24" fill="none" xmlns="http://www.w3.org/2000/svg">
<g clip-path="url(#clip0_23_465)">
<path vector-effect="non-scaling-stroke" d="M17 2.89999C18.7001 2.90793 20.3279 3.58887 21.5273 4.79387C22.7267 5.99887 23.4 7.62984 23.4 9.32999C23.4 12.9 21.97 14.69 15.95 19.33L13.17 21.49C12.8367 21.7487 12.4269 21.8891 12.005 21.8891C11.5831 21.8891 11.1733 21.7487 10.84 21.49L8.05 19.37C2 14.69 0.599998 12.9 0.599998 9.32999C0.59998 7.62984 1.2733 5.99887 2.47268 4.79387C3.67206 3.58887 5.29986 2.90793 7 2.89999C7.97072 2.9204 8.92436 3.15937 9.79 3.59911C10.6557 4.03886 11.411 4.66808 12 5.43999C12.589 4.66808 13.3443 4.03886 14.21 3.59911C15.0756 3.15937 16.0293 2.9204 17 2.89999V2.89999ZM7 4.69999C5.77725 4.70792 4.60729 5.19921 3.74547 6.06665C2.88365 6.93409 2.39997 8.10722 2.4 9.32999C2.4 12.15 3.55 13.59 9.16 17.96L11.94 20.12C11.9573 20.133 11.9784 20.14 12 20.14C12.0216 20.14 12.0427 20.133 12.06 20.12L14.84 18C20.45 13.64 21.6 12.2 21.6 9.36999C21.6053 8.76113 21.4904 8.15721 21.262 7.5928C21.0335 7.0284 20.696 6.51459 20.2687 6.08081C19.8414 5.64702 19.3328 5.30178 18.7719 5.06484C18.211 4.8279 17.6089 4.70392 17 4.69999C15.44 4.69999 14 5.57999 12.77 7.42999L12 8.49999L11.26 7.42999C10 5.57999 8.58 4.69999 7 4.69999Z" fill="#818C99"/>
</g>
<defs>
<clipPath id="clip0_23_465">
<rect vector-effect="non-scaling-stroke" width="24" height="24" fill="white"/>
</clipPath>
</defs>
</svg>
