<svg preserveAspectRatio="none" width="24" height="24" viewBox="0 0 24 24" fill="none" xmlns="http://www.w3.org/2000/svg">
<path vector-effect="non-scaling-stroke" d="M12 3C10.8181 3 9.64778 3.23279 8.55585 3.68508C7.46392 4.13738 6.47177 4.80031 5.63604 5.63604C4.80031 6.47177 4.13738 7.46392 3.68508 8.55585C3.23279 9.64778 3 10.8181 3 12C3 13.1819 3.23279 14.3522 3.68508 15.4442C4.13738 16.5361 4.80031 17.5282 5.63604 18.364C6.47177 19.1997 7.46392 19.8626 8.55585 20.3149C9.64778 20.7672 10.8181 21 12 21C14.3869 21 16.6761 20.0518 18.364 18.364C20.0518 16.6761 21 14.3869 21 12C21 9.61305 20.0518 7.32387 18.364 5.63604C16.6761 3.94821 14.3869 3 12 3ZM1 12C1 5.925 5.925 1 12 1C18.075 1 23 5.925 23 12C23 18.075 18.075 23 12 23C5.925 23 1 18.075 1 12Z" fill="#B3B3B3"/>
<path vector-effect="non-scaling-stroke" d="M12.0001 6.04999C12.2653 6.04999 12.5197 6.15534 12.7072 6.34288C12.8947 6.53042 13.0001 6.78477 13.0001 7.04999V14.536L14.7931 12.743C14.8853 12.6475 14.9957 12.5713 15.1177 12.5189C15.2397 12.4665 15.3709 12.4389 15.5037 12.4377C15.6365 12.4366 15.7681 12.4619 15.891 12.5122C16.0139 12.5624 16.1256 12.6367 16.2195 12.7306C16.3134 12.8245 16.3876 12.9361 16.4379 13.059C16.4882 13.1819 16.5135 13.3136 16.5123 13.4464C16.5112 13.5792 16.4836 13.7104 16.4312 13.8324C16.3788 13.9544 16.3026 14.0647 16.2071 14.157L12.0001 18.364L7.79308 14.157C7.69757 14.0647 7.62139 13.9544 7.56898 13.8324C7.51657 13.7104 7.48898 13.5792 7.48783 13.4464C7.48668 13.3136 7.51198 13.1819 7.56226 13.059C7.61254 12.9361 7.68679 12.8245 7.78069 12.7306C7.87458 12.6367 7.98623 12.5624 8.10913 12.5122C8.23202 12.4619 8.3637 12.4366 8.49648 12.4377C8.62926 12.4389 8.76048 12.4665 8.88249 12.5189C9.00449 12.5713 9.11483 12.6475 9.20708 12.743L11.0001 14.536V7.04999C11.0001 6.78477 11.1054 6.53042 11.293 6.34288C11.4805 6.15534 11.7349 6.04999 12.0001 6.04999Z" fill="#B3B3B3"/>
</svg>
