<svg preserveAspectRatio="none" width="200" height="32" viewBox="0 0 200 32" fill="none" xmlns="http://www.w3.org/2000/svg">
<path vector-effect="non-scaling-stroke" fill-rule="evenodd" clip-rule="evenodd" d="M14.3431 5.00989C15.8434 3.5096 17.8783 2.66675 20 2.66675H24C24.7364 2.66675 25.3333 3.2637 25.3333 4.00008V9.33342C25.3333 10.0698 24.7364 10.6667 24 10.6667H20V12.0001H24C24.4106 12.0001 24.7983 12.1892 25.0509 12.5129C25.3036 12.8365 25.3931 13.2585 25.2935 13.6568L23.9602 18.9901C23.8118 19.5837 23.2785 20.0001 22.6667 20.0001H20V28.0001C20 28.7365 19.403 29.3334 18.6667 29.3334H13.3333C12.597 29.3334 12 28.7365 12 28.0001V20.0001H9.33333C8.59695 20.0001 8 19.4031 8 18.6667V13.3334C8 12.597 8.59695 12.0001 9.33333 12.0001H12V10.6667C12 8.54502 12.8429 6.51019 14.3431 5.00989ZM20 5.33341C18.5855 5.33341 17.229 5.89532 16.2288 6.89551C15.2286 7.89571 14.6667 9.25226 14.6667 10.6667V13.3334C14.6667 14.0698 14.0697 14.6667 13.3333 14.6667H10.6667V17.3334H13.3333C14.0697 17.3334 14.6667 17.9304 14.6667 18.6667V26.6667H17.3333V18.6667C17.3333 17.9304 17.9303 17.3334 18.6667 17.3334H21.6256L22.2923 14.6667H18.6667C17.9303 14.6667 17.3333 14.0698 17.3333 13.3334V10.6667C17.3333 9.9595 17.6143 9.28123 18.1144 8.78113C18.6145 8.28103 19.2928 8.00008 20 8.00008H22.6667V5.33341H20Z" fill="#CECECE"/>
<path vector-effect="non-scaling-stroke" fill-rule="evenodd" clip-rule="evenodd" d="M66.6667 6.66667C64.4575 6.66667 62.6667 8.45753 62.6667 10.6667V21.3333C62.6667 23.5425 64.4575 25.3333 66.6667 25.3333H77.3333C79.5425 25.3333 81.3333 23.5425 81.3333 21.3333V10.6667C81.3333 8.45753 79.5425 6.66667 77.3333 6.66667H66.6667ZM60 10.6667C60 6.98477 62.9848 4 66.6667 4H77.3333C81.0152 4 84 6.98477 84 10.6667V21.3333C84 25.0152 81.0152 28 77.3333 28H66.6667C62.9848 28 60 25.0152 60 21.3333V10.6667ZM72 13.3333C70.5272 13.3333 69.3333 14.5272 69.3333 16C69.3333 17.4728 70.5272 18.6667 72 18.6667C73.4728 18.6667 74.6667 17.4728 74.6667 16C74.6667 14.5272 73.4728 13.3333 72 13.3333ZM66.6667 16C66.6667 13.0545 69.0545 10.6667 72 10.6667C74.9455 10.6667 77.3333 13.0545 77.3333 16C77.3333 18.9455 74.9455 21.3333 72 21.3333C69.0545 21.3333 66.6667 18.9455 66.6667 16ZM79.3333 10C79.3333 9.26362 78.7364 8.66667 78 8.66667C77.2636 8.66667 76.6667 9.26362 76.6667 10V10.0013C76.6667 10.7377 77.2636 11.3347 78 11.3347C78.7364 11.3347 79.3333 10.7377 79.3333 10.0013V10Z" fill="#CECECE"/>
<path vector-effect="non-scaling-stroke" fill-rule="evenodd" clip-rule="evenodd" d="M137.708 5.17395C137.823 5.14241 137.935 5.11173 138.045 5.08155C139.007 4.81792 139.829 4.5929 140.699 4.17263C140.935 4.04483 141.211 3.98726 141.495 4.02197C142.164 4.10373 142.667 4.67164 142.667 5.34545V5.34679C142.667 5.4693 142.65 5.58924 142.618 5.70386C142.361 6.70534 141.685 8.08143 141.154 9.12207C141.017 9.39082 140.892 9.6345 140.776 9.85791C140.644 10.1132 140.526 10.3421 140.42 10.5517C140.343 10.7063 140.284 10.8273 140.243 10.9172C140.232 12.653 139.993 14.3802 139.532 16.0543L139.53 16.0607C137.894 21.887 133.608 25.7951 128.417 27.3032L128.417 27.3033C123.836 28.6332 118.664 27.6974 114.029 25.1709C113.485 24.8745 113.217 24.2428 113.381 23.6458C113.546 23.0488 114.1 22.6437 114.719 22.6678C116.593 22.7408 118.259 22.27 119.931 21.4116C118.2 20.3419 116.957 19.0953 116.104 17.7484C114.928 15.8901 114.559 13.94 114.576 12.2035C114.593 10.4772 114.991 8.94017 115.374 7.84796C115.568 7.29815 115.76 6.85102 115.907 6.5368C115.981 6.37944 116.044 6.25469 116.089 6.1663C116.112 6.12208 116.131 6.0869 116.145 6.06121L116.162 6.02983L116.168 6.01957L116.17 6.01582L116.171 6.01429C116.171 6.01363 116.171 6.013 117.333 6.66679L116.171 6.013C116.395 5.61577 116.806 5.36022 117.261 5.33543C117.716 5.31063 118.152 5.52003 118.417 5.89062C120.398 8.65765 123.326 10.3511 126.666 10.6302C126.651 7.8232 128.417 5.41239 131.026 4.43546C133.191 3.62453 135.755 3.53056 137.708 5.17395ZM117.734 9.20846C117.474 10.0566 117.253 11.1055 117.242 12.2298C117.229 13.5655 117.511 14.9847 118.358 16.3223C119.202 17.6568 120.672 19.0092 123.2 20.1112C123.647 20.3062 123.952 20.7299 123.995 21.2159C124.038 21.7019 123.812 22.1726 123.406 22.4431C122.137 23.2884 120.829 24.0273 119.426 24.5475C122.298 25.3866 125.145 25.4762 127.673 24.7424M117.734 9.20846C120.419 11.9308 124.05 13.4349 128.034 13.333C128.757 13.3145 129.333 12.7232 129.333 12.0001V10.6668H129.333L129.333 10.6485C129.311 9.00694 130.328 7.54416 131.961 6.93279C133.815 6.23849 135.352 6.44169 136.335 7.55109C136.679 7.93824 137.215 8.09201 137.711 7.9456C137.988 7.86367 138.281 7.7839 138.584 7.70118C138.699 7.66981 138.815 7.63801 138.933 7.60551C138.882 7.70717 138.83 7.80928 138.778 7.9115C138.66 8.14375 138.537 8.38265 138.419 8.61009C138.277 8.88548 138.143 9.14409 138.038 9.35376C137.938 9.55163 137.845 9.74267 137.775 9.90341C137.74 9.98251 137.701 10.0755 137.669 10.1702C137.669 10.1718 137.668 10.1737 137.667 10.1758C137.648 10.2314 137.575 10.4462 137.576 10.7035C137.585 12.2708 137.378 13.8319 136.962 15.343C135.587 20.2321 132.028 23.4773 127.674 24.7423" fill="#CECECE"/>
<path vector-effect="non-scaling-stroke" fill-rule="evenodd" clip-rule="evenodd" d="M177.333 7.99992C175.124 7.99992 173.333 9.79078 173.333 11.9999V19.9999C173.333 22.2091 175.124 23.9999 177.333 23.9999H190.667C192.876 23.9999 194.667 22.2091 194.667 19.9999V11.9999C194.667 9.79078 192.876 7.99992 190.667 7.99992H177.333ZM170.667 11.9999C170.667 8.31802 173.651 5.33325 177.333 5.33325H190.667C194.349 5.33325 197.333 8.31802 197.333 11.9999V19.9999C197.333 23.6818 194.349 26.6666 190.667 26.6666H177.333C173.651 26.6666 170.667 23.6818 170.667 19.9999V11.9999Z" fill="#CECECE"/>
<path vector-effect="non-scaling-stroke" fill-rule="evenodd" clip-rule="evenodd" d="M180.676 10.8398C181.094 10.6031 181.607 10.6096 182.019 10.8568L188.686 14.8568C189.088 15.0977 189.333 15.5317 189.333 16.0001C189.333 16.4684 189.088 16.9024 188.686 17.1434L182.019 21.1434C181.607 21.3906 181.094 21.397 180.676 21.1603C180.258 20.9237 180 20.4804 180 20.0001V12.0001C180 11.5197 180.258 11.0765 180.676 10.8398ZM182.667 14.355V17.6452L185.408 16.0001L182.667 14.355Z" fill="#CECECE"/>
</svg>
