<svg preserveAspectRatio="none" width="1416" height="211" viewBox="0 0 1416 211" fill="none" xmlns="http://www.w3.org/2000/svg">
<rect vector-effect="non-scaling-stroke" width="1416" height="211" fill="#FAFAFA"/>
<g clip-path="url(#clip0_4_7607)">
<g clip-path="url(#clip1_4_7607)">
<path vector-effect="non-scaling-stroke" d="M152.089 120.425L158.253 120.553C156.128 119.818 154.068 118.924 152.089 117.871V120.425ZM161.375 119.579V120.425L158.253 120.553C164.127 122.548 169.502 122.819 173.493 121.702C170.291 121.734 166.122 121.287 161.375 119.579ZM227.182 101.19C229.741 101.19 231.833 99.131 231.833 96.577C231.833 94.023 229.757 92.6662 227.182 92.6662C224.623 92.6662 222.531 94.039 222.531 96.577C222.531 99.115 224.607 101.19 227.182 101.19ZM222.515 120.425H231.833V102.786H222.515V120.425ZM210.654 120.425H219.972V89.2502L210.654 93.608V120.425ZM205.665 101.366C202.736 98.4606 197.554 98.6362 197.554 98.6362C197.554 98.6362 192.355 98.4606 189.442 101.366C186.513 104.271 186.739 106.777 186.739 109.762C186.739 112.747 186.513 115.237 189.442 118.142C192.371 121.047 197.554 120.872 197.554 120.872C197.554 120.872 202.752 121.047 205.665 118.142C208.594 115.237 208.369 112.747 208.369 109.762C208.352 106.761 208.578 104.255 205.665 101.366ZM199.259 112.843C199.259 113.417 198.97 114.838 197.537 114.838C196.105 114.838 195.815 113.417 195.815 112.843V106.394C195.815 105.005 196.99 104.654 197.537 104.654C198.085 104.654 199.259 104.989 199.259 106.394V112.843ZM182.168 101.366C179.239 98.4606 174.057 98.6362 174.057 98.6362C174.057 98.6362 168.875 98.4606 165.945 101.366C165.64 101.669 165.35 101.988 165.092 102.323C158.945 97.5986 153.425 94.9009 148.661 92.5704V89.2662L145.04 90.9582C136.285 87.4305 130.716 88.0531 129.38 90.9742C129.38 90.9742 125.373 96.2099 139.326 108.661V120.425H148.645V115.86C147.599 115.189 146.552 114.471 145.522 113.689C143.141 111.901 141.113 110.241 139.342 108.677V103.728C141.451 106.075 144.251 108.74 147.937 111.757L148.661 112.332V107.575C148.661 106.474 148.934 104.67 150.399 104.67C151.863 104.67 152.105 105.771 152.105 107.064V114.838C155.002 116.785 158.108 118.366 161.391 119.563V104.574C161.391 101.589 159.234 98.6042 154.857 98.6042C152.314 98.5883 149.948 99.9132 148.661 102.1V93.4324C155.404 96.7685 162.163 100.855 164.738 102.739C163.097 105.069 163.242 107.224 163.242 109.714C163.242 112.699 163.016 115.189 165.945 118.094C168.875 121 174.057 120.824 174.057 120.824C174.057 120.824 179.255 121 182.168 118.094C185.097 115.189 184.856 112.699 184.856 109.714C184.856 106.761 185.097 104.255 182.168 101.366V101.366ZM139.326 93.608V103.712C131.489 95.0127 133.066 91.5808 133.661 91.0859C135.834 89.2662 139.697 89.8089 144.026 91.4211L139.326 93.608ZM175.779 112.843C175.779 113.417 175.489 114.838 174.057 114.838C172.624 114.838 172.335 113.417 172.335 112.843V106.394C172.335 105.005 173.51 104.654 174.057 104.654C174.604 104.654 175.779 104.989 175.779 106.394V112.843Z" fill="#737373"/>
</g>
</g>
<g clip-path="url(#clip2_4_7607)">
<path vector-effect="non-scaling-stroke" d="M349.9 76.9952H362.512V111.01C362.512 116.405 364.944 119.615 366.921 120.952C364.863 122.761 358.621 124.358 353.92 120.496C351.164 118.214 349.9 114.416 349.9 110.879V76.9952ZM428.669 105.273V101.687H432.527V89.1701H428.296C426.659 81.624 419.996 76.0173 412.036 76.0173C402.861 76.0173 395.388 83.5146 395.388 92.7557V121.962C397.982 122.337 401.127 121.913 403.769 119.681C406.541 117.399 407.789 113.618 407.789 110.065V108.973H414.079V96.4555H407.789V92.6579C407.789 87.0187 416.251 87.0187 416.251 92.6579V105.224C416.251 114.449 423.708 121.962 432.9 121.962V109.494C430.549 109.494 428.669 107.587 428.669 105.273V105.273ZM380.96 89.1375V107.555C380.96 110.065 377.102 110.065 377.102 107.555V89.1375H364.652V110.765C364.652 114.644 365.949 119.567 371.947 121.18C377.945 122.777 381.382 119.452 381.382 119.452C381.041 121.636 379.031 123.25 375.724 123.576C373.211 123.837 370.018 122.989 368.429 122.305V133.762C372.498 134.985 376.778 135.36 381.009 134.528C388.644 133.045 393.459 126.64 393.459 118.1V89.056H380.96V89.1375V89.1375Z" fill="#737373"/>
</g>
<g clip-path="url(#clip3_4_7607)">
<path vector-effect="non-scaling-stroke" d="M653.467 68.1458C640.589 76.8283 639.219 83.1296 638.103 85.0572C637.035 87.0334 636.238 94.825 634.389 98.5993C632.525 102.422 625.751 105.435 623.855 106.699C621.99 107.962 619.344 112.87 617.177 117.098C599.949 116.385 590.498 123.383 575.867 132.26C580.553 130.689 582.768 129.555 582.768 129.555C597.781 123.724 604.969 118.491 627.568 121.585C627.744 121.585 627.871 121.682 628.014 121.715C628.636 122.071 628.859 122.833 628.509 123.464L619.918 138.983C619.52 139.744 618.675 140.149 617.83 139.971C597.622 136.116 581.668 142.773 567.006 142.984C555.308 143.162 551.467 137.557 551.467 137.298C551.467 137.12 551.562 137.023 551.738 137.023C551.738 137.023 557.842 137.023 568.169 134.544C579.899 111.817 590.354 103.864 601.734 103.864C601.734 103.864 613.161 103.864 616.173 113.891C619.807 107.46 620.683 105.921 620.683 105.921C621.528 104.398 626.261 93.4157 634.453 83.0162C642.661 72.649 648.861 70.0734 653.467 68.1458V68.1458Z" fill="#737373"/>
</g>
<g clip-path="url(#clip4_4_7607)">
<g clip-path="url(#clip5_4_7607)">
<path vector-effect="non-scaling-stroke" d="M788.589 87.7932L781.62 89.2568L781.588 111.911C781.588 116.095 784.775 118.8 789.007 118.8C791.357 118.8 793.079 118.37 794.028 117.861V112.484C793.111 112.85 788.605 114.155 788.605 109.986V99.9318H794.028V93.9182H788.605L788.589 87.7932ZM802.928 96.0023L802.494 93.9182H796.314V118.291H803.443V101.889C805.133 99.6932 807.982 100.123 808.899 100.409V93.9182C807.933 93.5841 804.602 92.9636 802.928 96.0023ZM817.783 84.5L810.605 86.0114V91.7705L817.783 90.2591V84.5ZM769.26 101.093C769.26 99.9955 770.194 99.5659 771.69 99.55C773.863 99.55 776.631 100.202 778.804 101.364V94.7136C776.438 93.7909 774.072 93.425 771.706 93.425C765.913 93.425 762.05 96.4159 762.05 101.411C762.05 109.239 772.913 107.966 772.913 111.339C772.913 112.643 771.771 113.073 770.178 113.073C767.812 113.073 764.754 112.102 762.356 110.814V117.177C765.011 118.307 767.699 118.784 770.161 118.784C776.1 118.784 780.188 116.27 780.188 111.18C780.188 102.764 769.26 104.275 769.26 101.093V101.093ZM865.034 106.391C865.034 99.1523 861.493 93.4409 854.702 93.4409C847.91 93.4409 843.774 99.1523 843.774 106.343C843.774 114.855 848.651 118.784 855.603 118.784C859.015 118.784 861.574 118.02 863.521 116.955V111.641C861.574 112.611 859.337 113.2 856.504 113.2C853.72 113.2 851.274 112.23 850.952 108.92H864.938C864.97 108.555 865.034 107.075 865.034 106.391V106.391ZM850.888 103.718C850.888 100.536 852.867 99.2 854.654 99.2C856.408 99.2 858.275 100.536 858.275 103.718H850.888ZM832.718 93.4409C829.918 93.4409 828.115 94.7455 827.117 95.6523L826.747 93.9023H820.454V126.484L827.6 124.989L827.616 117.002C828.646 117.75 830.175 118.784 832.67 118.784C837.787 118.784 842.455 115.093 842.455 106.12C842.471 97.9114 837.739 93.4409 832.718 93.4409V93.4409ZM831.012 112.93C829.338 112.93 828.34 112.325 827.648 111.593L827.6 101.093C828.34 100.282 829.37 99.6932 831.012 99.6932C833.619 99.6932 835.422 102.589 835.422 106.28C835.438 110.082 833.667 112.93 831.012 112.93ZM810.621 118.291H817.799V93.9182H810.621V118.291Z" fill="#737373"/>
</g>
</g>
<g clip-path="url(#clip6_4_7607)">
<g clip-path="url(#clip7_4_7607)">
<path vector-effect="non-scaling-stroke" d="M1001.99 96.9887C1001.87 100.627 1003.7 102.238 1003.75 103.261C1003.73 103.469 1003.66 103.669 1003.54 103.845C1003.43 104.02 1003.27 104.165 1003.09 104.268L1001.01 105.707C1000.74 105.894 1000.43 106.001 1000.1 106.016C1000.03 106.012 998.773 106.31 996.782 101.902C995.568 103.405 994.022 104.613 992.264 105.433C990.506 106.253 988.582 106.663 986.64 106.632C984.003 106.775 976.855 105.148 977.223 97.6039C976.966 91.4553 982.741 87.6357 988.713 87.9585C989.863 87.9618 992.212 88.018 996.325 88.9656V86.4567C996.761 82.2067 993.944 78.9091 989.066 79.4038C988.678 79.4054 985.924 79.3235 981.641 81.0277C980.448 81.5706 980.296 81.4807 979.899 81.4807C978.699 81.4807 979.193 78.0305 979.423 77.5936C980.267 76.5656 985.232 74.6462 990.105 74.6735C993.363 74.3878 996.604 75.3848 999.126 77.4491C1000.15 78.5864 1000.93 79.918 1001.43 81.3635C1001.92 82.809 1002.11 84.3383 1001.99 85.8592L1001.99 96.9887V96.9887ZM987.988 102.191C993.241 102.116 995.465 98.9836 995.972 97.2971C996.371 95.6828 996.304 94.6613 996.304 92.8961C994.738 92.5234 992.483 92.117 989.896 92.1138C987.442 91.9307 982.959 93.0181 983.134 97.2955C982.933 99.9923 984.936 102.339 987.988 102.191V102.191ZM1015.68 105.894C1014.4 106.009 1013.81 105.113 1013.62 104.228L1005.55 77.7815C1005.4 77.335 1005.29 76.874 1005.24 76.4034C1005.21 76.2094 1005.26 76.0116 1005.38 75.8535C1005.5 75.6953 1005.67 75.5898 1005.87 75.5601C1005.91 75.5537 1005.52 75.5601 1009.47 75.5601C1010.9 75.4188 1011.36 76.5287 1011.51 77.2258L1017.29 99.8462L1022.66 77.2258C1022.75 76.7086 1023.14 75.4477 1024.74 75.581H1027.52C1027.87 75.5521 1029.32 75.5007 1029.57 77.2467L1034.99 100.156L1040.96 77.2467C1041.04 76.8965 1041.4 75.4204 1043.01 75.581H1046.21C1046.34 75.5601 1047.2 75.4509 1047.06 76.9592C1046.99 77.2563 1047.61 75.2469 1038.51 104.249C1038.33 105.134 1037.73 106.03 1036.46 105.914H1033.43C1031.66 106.099 1031.4 104.363 1031.38 104.188L1026 82.1617L1020.69 104.165C1020.67 104.34 1020.41 106.077 1018.64 105.892H1015.68V105.894ZM1059.98 106.798C1059.03 106.799 1054.48 106.75 1050.69 104.824C1050.31 104.665 1049.99 104.398 1049.76 104.058C1049.53 103.717 1049.42 103.318 1049.42 102.911V101.184C1049.42 99.8269 1050.42 100.076 1050.85 100.238C1052.48 100.89 1053.52 101.385 1055.52 101.78C1061.45 102.99 1064.07 101.411 1064.71 101.06C1066.84 99.806 1067 96.9357 1065.56 95.4467C1063.86 94.0349 1063.05 93.9819 1056.95 92.0737C1056.2 91.8665 1049.87 89.8876 1049.86 83.6635C1049.76 79.1276 1053.91 74.6398 1061.12 74.6767C1063.17 74.6751 1068.64 75.3401 1070.12 77.1856C1070.34 77.5213 1070.45 77.9165 1070.43 78.3164V79.9403C1070.43 80.6535 1070.17 81.01 1069.64 81.01C1068.39 80.8719 1066.18 79.2159 1061.68 79.2834C1060.56 79.2255 1055.22 79.4295 1055.46 83.2941C1055.39 86.3395 1059.77 87.4815 1060.27 87.6132C1066.17 89.3752 1068.15 89.6676 1070.49 92.3644C1073.27 95.9382 1071.77 100.122 1071.2 101.269C1068.11 107.291 1060.11 106.801 1059.98 106.798V106.798ZM1066.49 123.641C1055.15 131.948 1038.68 136.37 1024.62 136.37C1005.64 136.494 987.31 129.577 973.22 116.978C972.162 116.032 973.095 114.736 974.382 115.457C990.012 124.322 1007.71 128.98 1025.71 128.968C1039.16 128.897 1052.46 126.192 1064.85 121.01C1066.76 120.207 1068.38 122.263 1066.49 123.641V123.641ZM1071.22 118.294C1069.77 116.443 1061.62 117.429 1057.97 117.861C1056.87 117.985 1056.68 117.039 1057.68 116.34C1064.17 111.816 1074.83 113.112 1076.05 114.633C1077.28 116.154 1075.72 126.745 1069.64 131.805C1068.71 132.587 1067.82 132.175 1068.23 131.147C1069.6 127.733 1072.67 120.146 1071.22 118.294Z" fill="#737373"/>
</g>
</g>
<g clip-path="url(#clip8_4_7607)">
<g clip-path="url(#clip9_4_7607)">
<path vector-effect="non-scaling-stroke" d="M1265.09 97.1614C1262.7 97.1614 1260.59 98.1556 1259.04 99.7111C1253.34 95.7503 1245.66 93.2006 1237.15 92.928L1241.57 72.9156L1255.66 76.0906C1255.66 79.5543 1258.47 82.3766 1261.92 82.3766C1265.43 82.3766 1268.25 79.4741 1268.25 76.0104C1268.25 72.5467 1265.44 69.6443 1261.92 69.6443C1259.46 69.6443 1257.33 71.1356 1256.28 73.1721L1240.73 69.7084C1239.95 69.5 1239.18 70.0612 1238.97 70.847L1234.12 92.912C1225.67 93.2648 1218.07 95.8144 1212.36 99.7752C1210.81 98.1556 1208.62 97.1614 1206.22 97.1614C1197.35 97.1614 1194.44 109.124 1202.57 113.213C1202.28 114.48 1202.15 115.827 1202.15 117.174C1202.15 130.612 1217.23 141.5 1235.73 141.5C1254.32 141.5 1269.39 130.612 1269.39 117.174C1269.39 115.827 1269.24 114.416 1268.89 113.149C1276.86 109.044 1273.92 97.1614 1265.09 97.1614V97.1614ZM1215.45 114.063C1215.45 110.535 1218.26 107.697 1221.79 107.697C1225.24 107.697 1228.05 110.519 1228.05 114.063C1228.05 117.527 1225.24 120.349 1221.79 120.349C1218.28 120.365 1215.45 117.527 1215.45 114.063V114.063ZM1249.67 129.056C1243.86 134.893 1227.46 134.893 1221.65 129.056C1221.01 128.495 1221.01 127.501 1221.65 126.859C1222.21 126.298 1223.2 126.298 1223.76 126.859C1228.19 131.43 1242.92 131.51 1247.55 126.859C1248.1 126.298 1249.09 126.298 1249.65 126.859C1250.31 127.501 1250.31 128.495 1249.67 129.056ZM1249.54 120.365C1246.09 120.365 1243.28 117.543 1243.28 114.079C1243.28 110.551 1246.09 107.713 1249.54 107.713C1253.05 107.713 1255.88 110.535 1255.88 114.079C1255.86 117.527 1253.05 120.365 1249.54 120.365Z" fill="#737373"/>
</g>
</g>
<defs>
<clipPath id="clip0_4_7607">
<rect vector-effect="non-scaling-stroke" width="166.667" height="34" fill="white" transform="translate(97 88.5)"/>
</clipPath>
<clipPath id="clip1_4_7607">
<rect vector-effect="non-scaling-stroke" width="103" height="34" fill="white" transform="translate(128.833 88.5)"/>
</clipPath>
<clipPath id="clip2_4_7607">
<rect vector-effect="non-scaling-stroke" width="83" height="59" fill="white" transform="translate(349.9 76)"/>
</clipPath>
<clipPath id="clip3_4_7607">
<rect vector-effect="non-scaling-stroke" width="102" height="75" fill="white" transform="translate(551.467 68)"/>
</clipPath>
<clipPath id="clip4_4_7607">
<rect vector-effect="non-scaling-stroke" width="166.667" height="42" fill="white" transform="translate(730.2 84.5)"/>
</clipPath>
<clipPath id="clip5_4_7607">
<rect vector-effect="non-scaling-stroke" width="103" height="42" fill="white" transform="translate(762.033 84.5)"/>
</clipPath>
<clipPath id="clip6_4_7607">
<rect vector-effect="non-scaling-stroke" width="166.667" height="62" fill="white" transform="translate(941.267 74.5)"/>
</clipPath>
<clipPath id="clip7_4_7607">
<rect vector-effect="non-scaling-stroke" width="104" height="62" fill="white" transform="translate(972.6 74.5)"/>
</clipPath>
<clipPath id="clip8_4_7607">
<rect vector-effect="non-scaling-stroke" width="166.667" height="72" fill="white" transform="translate(1152.33 69.5)"/>
</clipPath>
<clipPath id="clip9_4_7607">
<rect vector-effect="non-scaling-stroke" width="76" height="72" fill="white" transform="translate(1197.67 69.5)"/>
</clipPath>
</defs>
</svg>
