<svg preserveAspectRatio="none" width="90" height="38" viewBox="0 0 90 38" fill="none" xmlns="http://www.w3.org/2000/svg">
<path vector-effect="non-scaling-stroke" fill-rule="evenodd" clip-rule="evenodd" d="M48.7876 0.668945V5.63727L42.5889 6.95893V1.9661L48.7876 0.668945ZM61.6796 8.40241C59.2593 8.40241 57.7035 9.52822 56.8391 10.3114L56.5181 8.79397H51.0849V37.3313L57.2589 36.0341L57.2836 29.1079C58.1727 29.7442 59.4816 30.6498 61.6549 30.6498C66.0755 30.6498 70.101 27.1254 70.101 19.367C70.0763 12.2694 66.0014 8.40241 61.6796 8.40241ZM60.1978 25.2654C58.7407 25.2654 57.8763 24.7514 57.2836 24.1151L57.2589 15.035C57.9011 14.3252 58.7901 13.8358 60.1978 13.8358C62.4451 13.8358 64.001 16.3321 64.001 19.5383C64.001 22.8179 62.4699 25.2654 60.1978 25.2654ZM89.5627 19.6118C89.5627 13.3462 86.5003 8.40241 80.6473 8.40241C74.7696 8.40241 71.2134 13.3462 71.2134 19.5628C71.2134 26.9297 75.4118 30.6497 81.4376 30.6497C84.3764 30.6497 86.5991 29.9889 88.2785 29.0589V24.164C86.5991 24.9962 84.6729 25.5101 82.228 25.5101C79.8323 25.5101 77.7085 24.6779 77.4368 21.79H89.5133C89.5133 21.6559 89.5221 21.3522 89.5322 21.0017L89.5324 20.9962V20.9949L89.5325 20.994C89.5463 20.5147 89.5627 19.9498 89.5627 19.6118ZM77.3628 17.2866C77.3628 14.521 79.0668 13.3707 80.6227 13.3707C82.1291 13.3707 83.7344 14.521 83.7344 17.2866H77.3628ZM48.7876 8.81771H42.5889V30.2329H48.7876V8.81771ZM35.5533 8.82009L35.9484 10.6312C37.4055 7.98795 40.2949 8.52643 41.0853 8.82009V14.4492C40.3197 14.18 37.85 13.8373 36.3929 15.7219V30.2353H30.2189V8.82009H35.5533ZM23.5987 3.50813L17.5729 4.7808L17.5481 24.3849C17.5481 28.0071 20.2894 30.6748 23.9445 30.6748C25.9695 30.6748 27.4513 30.3077 28.2663 29.8671V24.8988C27.476 25.2171 23.574 26.3429 23.574 22.7206V14.0322H28.2663V8.81908H23.574L23.5987 3.50813ZM9.00357 13.7134C7.69467 13.7134 6.90439 14.0805 6.90439 15.035C6.90439 16.0771 8.26447 16.5356 9.95185 17.1043C12.7025 18.0315 16.323 19.2519 16.3383 23.7724C16.3383 28.1534 12.8067 30.6743 7.66997 30.6743C5.5461 30.6743 3.22466 30.2581 0.927908 29.2792V23.4542C3.00239 24.5801 5.62019 25.4122 7.66997 25.4122C9.05296 25.4122 10.0408 25.0451 10.0408 23.9192C10.0408 22.7649 8.56646 22.2372 6.78651 21.6002C4.07577 20.63 0.65625 19.4063 0.65625 15.3287C0.65625 10.9967 3.99024 8.40241 9.00357 8.40241C11.0534 8.40241 13.0784 8.72055 15.1282 9.52822V15.2797C13.2513 14.2763 10.8805 13.7134 9.00357 13.7134Z" fill="#B7BFC7"/>
</svg>
