<svg preserveAspectRatio="none" width="18" height="19" viewBox="0 0 18 19" fill="none" xmlns="http://www.w3.org/2000/svg">
<path vector-effect="non-scaling-stroke" fill-rule="evenodd" clip-rule="evenodd" d="M6.9542 15.472C5.9318 16.3117 4.3475 16.9898 2.1967 17.5243C2.04832 17.5612 1.89241 17.5539 1.74809 17.5034C1.60378 17.4529 1.47734 17.3614 1.3843 17.2401C1.29126 17.1188 1.23566 16.9729 1.22432 16.8205C1.21299 16.668 1.24642 16.5155 1.3205 16.3818C2.0515 15.0623 2.5093 13.9951 2.6954 13.1933C1.2951 11.8108 0.5 10.0109 0.5 8.0968C0.5 3.887 4.318 0.5 9 0.5C13.682 0.5 17.5 3.887 17.5 8.0968C17.5 12.3065 13.682 15.6935 9 15.6935C8.31206 15.6941 7.62609 15.6198 6.9542 15.4721V15.472Z" stroke="#528BCC" stroke-linecap="round" stroke-linejoin="round"/>
<path vector-effect="non-scaling-stroke" fill-rule="evenodd" clip-rule="evenodd" d="M2.11299 16.8086C2.11126 16.8117 2.10953 16.8148 2.10779 16.8179C2.1128 16.8089 2.11656 16.7992 2.11899 16.7892L2.11299 16.8086ZM2.23499 16.586C4.26659 16.0582 5.70659 15.4015 6.55099 14.6314L6.70949 14.4868L6.91769 14.5389C7.59873 14.7088 8.29808 14.7943 8.99999 14.7935C13.2073 14.7935 16.6 11.7839 16.6 8.09679C16.6 4.40959 13.2073 1.39999 8.99999 1.39999C4.79269 1.39999 1.39999 4.40959 1.39999 8.09679C1.39999 9.84379 2.16299 11.4872 3.51079 12.7273L3.67069 12.8745L3.63429 13.0887C3.48189 13.9859 3.01489 15.1477 2.23489 16.586H2.23499Z" stroke="#528BCC" stroke-width="0.8" stroke-linecap="round"/>
<path vector-effect="non-scaling-stroke" d="M6.8205 14.927C5.883 15.782 4.3015 16.486 2.0761 17.039C2.02221 17.0524 1.96558 17.0497 1.91317 17.0314C1.86075 17.0131 1.81484 16.9798 1.78105 16.9357C1.74726 16.8917 1.72707 16.8387 1.72296 16.7833C1.71885 16.7279 1.73099 16.6726 1.7579 16.624V16.6241C2.5945 15.1141 3.0885 13.9133 3.2399 13.0217C1.853 11.7455 1 10.0095 1 8.0967C1 4.1774 4.5817 1 9 1C13.4183 1 17 4.1773 17 8.0968C17 12.0162 13.4183 15.1935 9 15.1935C8.26532 15.1943 7.53333 15.1048 6.8205 14.9269V14.927Z" stroke="#528BCC" stroke-linecap="round" stroke-linejoin="round"/>
</svg>
