<svg preserveAspectRatio="none" width="56" height="12" viewBox="0 0 56 12" fill="none" xmlns="http://www.w3.org/2000/svg">
<path vector-effect="non-scaling-stroke" d="M9.85497 3.09677L4.12822 8.926H9.85497V11.704H0.132011V8.926L5.85877 3.09677H0.132011V0.318786H9.85497V3.09677Z" fill="white"/>
<path vector-effect="non-scaling-stroke" d="M15.9601 12C14.9127 12 13.9563 11.7305 13.091 11.1916C12.2333 10.6528 11.5464 9.92789 11.0303 9.01708C10.5218 8.10626 10.2675 7.10057 10.2675 6C10.2675 5.17267 10.4155 4.39848 10.7115 3.67742C11.0075 2.94877 11.4136 2.3112 11.9297 1.76471C12.4535 1.21063 13.0607 0.777988 13.7514 0.466793C14.4421 0.155598 15.1783 0 15.9601 0C16.8482 0 17.6603 0.189754 18.3965 0.56926C19.1404 0.941177 19.7704 1.45351 20.2865 2.10626C20.8026 2.75901 21.1783 3.50285 21.4136 4.33776C21.6489 5.17268 21.702 6.04554 21.573 6.95636H13.2504C13.3567 7.3814 13.5313 7.76471 13.7741 8.10626C14.017 8.44023 14.3244 8.70968 14.6963 8.91461C15.0683 9.11195 15.4895 9.21442 15.9601 9.22201C16.4459 9.2296 16.8861 9.11575 17.2808 8.88046C17.6831 8.63757 18.017 8.3112 18.2827 7.90133L21.1176 8.56167C20.6546 9.57116 19.9639 10.3985 19.0455 11.0436C18.1271 11.6812 17.0986 12 15.9601 12ZM13.1593 4.87286H18.7609C18.6774 4.41746 18.499 4.00759 18.2258 3.64326C17.9601 3.27135 17.6299 2.97533 17.2352 2.75522C16.8406 2.5351 16.4155 2.42505 15.9601 2.42505C15.5047 2.42505 15.0834 2.5351 14.6963 2.75522C14.3093 2.96774 13.9791 3.25996 13.7058 3.63188C13.4402 3.99621 13.258 4.40987 13.1593 4.87286Z" fill="white"/>
<path vector-effect="non-scaling-stroke" d="M32.9434 4.50854V11.704H30.1655V5.23719C30.1655 4.78937 30.0554 4.3833 29.8353 4.01898C29.6152 3.64706 29.3192 3.35484 28.9472 3.14231C28.5829 2.9222 28.1768 2.81214 27.729 2.81214C27.2812 2.81214 26.8713 2.9222 26.4994 3.14231C26.1351 3.35484 25.8429 3.64706 25.6228 4.01898C25.4102 4.3833 25.304 4.78937 25.304 5.23719V11.704H22.526L22.5146 0.318786H25.2926L25.304 1.33207C25.6911 0.922201 26.1541 0.59962 26.693 0.364326C27.2319 0.121442 27.8125 0 28.4349 0C29.2622 0 30.0174 0.204934 30.7006 0.614801C31.3837 1.01708 31.9264 1.55977 32.3286 2.24288C32.7385 2.91841 32.9434 3.67362 32.9434 4.50854Z" fill="white"/>
<path vector-effect="non-scaling-stroke" d="M40.8369 11.704H37.2506L33.1064 0.3074H36.0665L39.0495 8.50474L42.021 0.3074H44.9812L40.8369 11.704Z" fill="white"/>
<path vector-effect="non-scaling-stroke" d="M50.3185 12C49.2711 12 48.3147 11.7305 47.4494 11.1916C46.5917 10.6528 45.9048 9.92789 45.3887 9.01708C44.8802 8.10626 44.6259 7.10057 44.6259 6C44.6259 5.17267 44.7739 4.39848 45.0699 3.67742C45.3659 2.94877 45.772 2.3112 46.2881 1.76471C46.8119 1.21063 47.4191 0.777988 48.1098 0.466793C48.8005 0.155598 49.5367 0 50.3185 0C51.2065 0 52.0187 0.189754 52.7549 0.56926C53.4988 0.941177 54.1287 1.45351 54.6449 2.10626C55.161 2.75901 55.5367 3.50285 55.772 4.33776C56.0073 5.17268 56.0604 6.04554 55.9314 6.95636H47.6088C47.7151 7.3814 47.8897 7.76471 48.1325 8.10626C48.3754 8.44023 48.6828 8.70968 49.0547 8.91461C49.4267 9.11195 49.8479 9.21442 50.3185 9.22201C50.8043 9.2296 51.2445 9.11575 51.6392 8.88046C52.0415 8.63757 52.3754 8.3112 52.6411 7.90133L55.476 8.56167C55.013 9.57116 54.3223 10.3985 53.4039 11.0436C52.4855 11.6812 51.457 12 50.3185 12ZM47.5177 4.87286H53.1193C53.0358 4.41746 52.8574 4.00759 52.5842 3.64326C52.3185 3.27135 51.9883 2.97533 51.5936 2.75522C51.199 2.5351 50.7739 2.42505 50.3185 2.42505C49.8631 2.42505 49.4418 2.5351 49.0547 2.75522C48.6676 2.96774 48.3375 3.25996 48.0642 3.63188C47.7986 3.99621 47.6164 4.40987 47.5177 4.87286Z" fill="white"/>
</svg>
