<svg preserveAspectRatio="none" width="73" height="73" viewBox="0 0 73 73" fill="none" xmlns="http://www.w3.org/2000/svg">
<path vector-effect="non-scaling-stroke" d="M36.5 9.38279C31.3992 9.38255 26.4017 10.821 22.0816 13.5328C17.7614 16.2447 14.2937 20.1201 12.0767 24.7139C9.85976 29.3077 8.98339 34.4337 9.54827 39.5031C10.1132 44.5725 12.0964 49.3798 15.2702 53.3729L10.6482 57.2476C5.91737 51.3687 3.34393 44.0461 3.35674 36.5C3.35674 18.1959 18.1959 3.35675 36.5 3.35675C54.8041 3.35675 69.6432 18.1959 69.6432 36.5C69.6537 44.0462 67.0793 51.3684 62.3487 57.2476L57.7297 53.3729C60.9035 49.3798 62.8868 44.5725 63.4517 39.5031C64.0165 34.4337 63.1402 29.3077 60.9232 24.7139C58.7062 20.1201 55.2385 16.2447 50.9184 13.5328C46.5982 10.821 41.6008 9.38255 36.5 9.38279Z" fill="white"/>
<path vector-effect="non-scaling-stroke" d="M36.5001 21.4349C33.3037 21.4349 30.2382 22.7046 27.978 24.9648C25.7178 27.2251 24.448 30.2905 24.448 33.487V42.526C24.4484 45.1982 25.3363 47.7945 26.9724 49.9073C28.6085 52.02 30.9 53.5294 33.4871 54.1985V60.1191L25.3067 66.9827C25.0698 67.1815 24.8998 67.4485 24.8198 67.7473C24.7399 68.0461 24.7538 68.3622 24.8598 68.6528C24.9658 68.9434 25.1586 69.1943 25.4121 69.3715C25.6657 69.5487 25.9676 69.6436 26.2769 69.6432H46.7233C47.0326 69.6436 47.3345 69.5487 47.588 69.3715C47.8415 69.1943 48.0344 68.9434 48.1403 68.6528C48.2463 68.3622 48.2603 68.0461 48.1803 67.7473C48.1004 67.4485 47.9304 67.1815 47.6935 66.9827L39.5131 60.1191V54.1985C44.7106 52.8607 48.5522 48.1423 48.5522 42.526V33.487C48.5522 30.2905 47.2824 27.2251 45.0222 24.9648C42.762 22.7046 39.6965 21.4349 36.5001 21.4349ZM42.5261 42.526C42.5261 44.1242 41.8912 45.657 40.7611 46.7871C39.631 47.9172 38.0983 48.5521 36.5001 48.5521C34.9019 48.5521 33.3691 47.9172 32.239 46.7871C31.1089 45.657 30.474 44.1242 30.474 42.526V33.487C30.474 31.8888 31.1089 30.356 32.239 29.2259C33.3691 28.0958 34.9019 27.4609 36.5001 27.4609C38.0983 27.4609 39.631 28.0958 40.7611 29.2259C41.8912 30.356 42.5261 31.8888 42.5261 33.487V42.526Z" fill="white"/>
</svg>
