<svg preserveAspectRatio="none" width="156" height="237" viewBox="0 0 156 237" fill="none" xmlns="http://www.w3.org/2000/svg">
<path vector-effect="non-scaling-stroke" d="M125.643 236.185C114.131 236.185 100.27 229.761 85.3523 217.266C65.0308 200.265 45.1008 174.06 29.2429 143.428C5.24073 97.0499 -4.66556 49.4963 4.0269 22.2725C6.92439 13.1848 11.7796 6.83911 18.3969 3.43124C27.2068 -1.1126 38.7185 0.0233616 51.6788 6.68243C64.091 13.0673 77.5213 24.3877 90.5991 39.3902C90.9124 39.7427 90.8732 40.2911 90.5208 40.6045C90.1684 40.9179 89.6202 40.8787 89.307 40.5262C62.7598 10.0511 35.8993 -3.58037 19.2191 4.99808C12.9935 8.17093 8.45145 14.2033 5.71059 22.86C-2.86441 49.6922 7.00271 96.7365 30.8091 142.723C59.0009 197.132 98.6651 234.54 125.604 234.54C129.637 234.54 133.396 233.717 136.763 231.955C142.989 228.782 147.531 222.75 150.272 214.093C158.847 187.261 148.98 140.216 125.173 94.2296C118.086 80.5197 110.098 67.6325 101.523 55.9204C101.249 55.5286 101.328 54.9803 101.719 54.7061C102.111 54.4319 102.659 54.5102 102.933 54.9019C111.586 66.6924 119.574 79.658 126.739 93.4462C150.742 139.785 160.648 187.339 151.916 214.563C149.019 223.65 144.163 229.996 137.546 233.404C133.983 235.284 129.989 236.185 125.643 236.185Z" fill="black"/>
</svg>
