<svg preserveAspectRatio="none" width="103" height="103" viewBox="0 0 103 103" fill="none" xmlns="http://www.w3.org/2000/svg">
<path vector-effect="non-scaling-stroke" d="M68.5355 85.5817C87.5118 76.34 95.4522 53.5532 86.2709 34.686C77.0897 15.8188 54.2636 8.01582 35.2873 17.2576C16.311 26.4993 8.3706 49.2861 17.5518 68.1533C26.7331 87.0205 49.5592 94.8234 68.5355 85.5817Z" fill="#B9FF66"/>
<path vector-effect="non-scaling-stroke" d="M51.7177 90.347C47.6456 90.347 43.4951 89.7203 39.4622 88.3493C29.595 85.0589 21.6074 78.1648 16.987 68.8421C12.3667 59.5586 11.6619 49.0216 14.9901 39.1505C21.8815 18.8208 44.0433 7.73541 64.4432 14.512C74.3103 17.8023 82.298 24.6964 86.9183 34.0191C91.5386 43.3027 92.2434 53.8396 88.9152 63.7107C83.3552 80.0059 68.0455 90.347 51.7177 90.347ZM52.1093 14.2769C36.4864 14.2769 21.8423 24.148 16.5563 39.7381C13.3848 49.1783 14.0504 59.2452 18.4749 68.0979C22.8995 76.9897 30.5348 83.6096 39.9712 86.7433C59.4705 93.2065 80.6534 82.6303 87.2315 63.2015C90.4031 53.7613 89.7375 43.6944 85.313 34.8417C80.8884 25.9499 73.2531 19.33 63.8167 16.1963C59.9404 14.8645 55.9857 14.2769 52.1093 14.2769Z" fill="black"/>
</svg>
