<svg preserveAspectRatio="none" width="18" height="23" viewBox="0 0 18 23" fill="none" xmlns="http://www.w3.org/2000/svg">
<path vector-effect="non-scaling-stroke" d="M14.7973 12.3007C14.8081 11.466 15.0298 10.6476 15.4418 9.92168C15.8538 9.19573 16.4428 8.58579 17.1539 8.14862C16.7021 7.50346 16.1062 6.97252 15.4134 6.59796C14.7205 6.22341 13.9499 6.01557 13.1627 5.99094C11.4835 5.81468 9.85552 6.99577 8.99981 6.99577C8.12754 6.99577 6.81004 6.00844 5.39131 6.03763C4.47364 6.06728 3.57929 6.33413 2.79541 6.81219C2.01154 7.29025 1.36486 7.96321 0.918393 8.7655C-1.01561 12.1139 0.426982 17.035 2.27959 19.7416C3.20649 21.0669 4.28977 22.5474 5.70722 22.4949C7.09428 22.4373 7.61232 21.6104 9.28662 21.6104C10.9454 21.6104 11.4314 22.4949 12.8776 22.4615C14.366 22.4373 15.3038 21.1303 16.1981 19.7924C16.8641 18.848 17.3766 17.8043 17.7166 16.6998C16.8518 16.3341 16.1139 15.7219 15.5948 14.9396C15.0757 14.1573 14.7983 13.2395 14.7973 12.3007Z" fill="white"/>
<path vector-effect="non-scaling-stroke" d="M12.0657 4.21089C12.8772 3.23668 13.277 1.9845 13.1802 0.720268C11.9404 0.850489 10.7951 1.44305 9.97262 2.37988C9.57048 2.83754 9.26248 3.36998 9.06624 3.94675C8.86999 4.52352 8.78934 5.13331 8.82891 5.74127C9.44905 5.74765 10.0626 5.61324 10.6232 5.34815C11.1839 5.08307 11.6771 4.69422 12.0657 4.21089Z" fill="white"/>
</svg>
