<svg preserveAspectRatio="none" width="16" height="9" viewBox="0 0 16 9" fill="none" xmlns="http://www.w3.org/2000/svg">
<path vector-effect="non-scaling-stroke" d="M3 2.49424C2.99986 2.3713 3.03211 2.25049 3.09349 2.14397C3.15487 2.03744 3.24322 1.94897 3.34966 1.88743C3.4561 1.8259 3.57686 1.79349 3.6998 1.79346C3.82275 1.79342 3.94353 1.82577 4.05 1.88724L14.94 8.17524C15.0463 8.23671 15.1346 8.32506 15.1959 8.43143C15.2573 8.5378 15.2896 8.65844 15.2896 8.78124C15.2896 8.90404 15.2573 9.02468 15.1959 9.13105C15.1346 9.23742 15.0463 9.32577 14.94 9.38724L4.05 15.6752C3.9436 15.7367 3.82291 15.769 3.70005 15.769C3.5772 15.769 3.4565 15.7367 3.35009 15.6753C3.24369 15.6139 3.15532 15.5255 3.09386 15.4192C3.03241 15.3128 3.00004 15.1921 3 15.0692V2.49424Z" fill="black"/>
</svg>
