<svg preserveAspectRatio="none" width="17" height="16" viewBox="0 0 17 16" fill="none" xmlns="http://www.w3.org/2000/svg">
<path vector-effect="non-scaling-stroke" d="M8.65617 0.25C8.79618 0.24991 8.93343 0.289014 9.05237 0.362887C9.17131 0.43676 9.26719 0.542452 9.32917 0.668L11.2112 4.483L15.4212 5.095C15.5596 5.11511 15.6897 5.17355 15.7967 5.26372C15.9037 5.35388 15.9833 5.47218 16.0266 5.60523C16.0699 5.73829 16.0751 5.8808 16.0416 6.01665C16.0081 6.1525 15.9373 6.27628 15.8372 6.374L12.7912 9.344L13.5102 13.536C13.5335 13.6738 13.5179 13.8154 13.4651 13.9449C13.4123 14.0743 13.3244 14.1865 13.2113 14.2687C13.0982 14.3509 12.9645 14.3999 12.825 14.4102C12.6856 14.4205 12.5461 14.3917 12.4222 14.327L8.65617 12.347L4.89017 14.327C4.76636 14.392 4.62684 14.4211 4.48736 14.411C4.34788 14.4009 4.21401 14.352 4.10085 14.2699C3.98769 14.1877 3.89976 14.0755 3.84698 13.946C3.79421 13.8165 3.77868 13.6749 3.80217 13.537L4.52217 9.343L1.47417 6.374C1.37374 6.27632 1.30267 6.15247 1.26902 6.01647C1.23537 5.88047 1.24049 5.73777 1.28379 5.60453C1.3271 5.47129 1.40685 5.35284 1.51403 5.26261C1.6212 5.17238 1.7515 5.11397 1.89017 5.094L6.10017 4.483L7.98317 0.668C8.04515 0.542452 8.14104 0.43676 8.25997 0.362887C8.37891 0.289014 8.51616 0.24991 8.65617 0.25ZM8.65617 2.695L7.27117 5.5C7.21739 5.6089 7.13796 5.70311 7.03971 5.77453C6.94147 5.84595 6.82735 5.89244 6.70717 5.91L3.61017 6.36L5.85017 8.544C5.93732 8.62886 6.00253 8.73365 6.04016 8.84933C6.07779 8.96501 6.08671 9.0881 6.06617 9.208L5.53817 12.292L8.30717 10.836C8.4148 10.7794 8.53457 10.7499 8.65617 10.7499C8.77777 10.7499 8.89754 10.7794 9.00517 10.836L11.7752 12.292L11.2452 9.208C11.2246 9.0881 11.2336 8.96501 11.2712 8.84933C11.3088 8.73365 11.374 8.62886 11.4612 8.544L13.7012 6.361L10.6052 5.911C10.485 5.89344 10.3709 5.84695 10.2726 5.77553C10.1744 5.70411 10.095 5.6099 10.0412 5.501L8.65617 2.695Z" fill="#8B949E"/>
</svg>
