<svg preserveAspectRatio="none" width="16" height="16" viewBox="0 0 16 16" fill="none" xmlns="http://www.w3.org/2000/svg">
<path vector-effect="non-scaling-stroke" d="M4.97015 0.46995C4.8297 0.610576 4.75081 0.8012 4.75081 0.99995C4.75081 1.1987 4.8297 1.38933 4.97015 1.52995L11.4402 7.99995L4.97015 14.47C4.89647 14.5386 4.83736 14.6214 4.79637 14.7134C4.75538 14.8054 4.73334 14.9047 4.73156 15.0054C4.72979 15.1061 4.74831 15.2062 4.78603 15.2995C4.82375 15.3929 4.8799 15.4778 4.95112 15.549C5.02233 15.6202 5.10717 15.6764 5.20056 15.7141C5.29394 15.7518 5.39397 15.7703 5.49468 15.7685C5.59538 15.7668 5.69469 15.7447 5.78669 15.7037C5.87869 15.6627 5.96149 15.6036 6.03015 15.53L13.5602 7.99995L6.03015 0.46995C5.88953 0.3295 5.6989 0.25061 5.50015 0.25061C5.3014 0.25061 5.11078 0.3295 4.97015 0.46995Z" fill="white"/>
</svg>
