<svg preserveAspectRatio="none" width="25" height="26" viewBox="0 0 25 26" fill="none" xmlns="http://www.w3.org/2000/svg">
<path vector-effect="non-scaling-stroke" fill-rule="evenodd" clip-rule="evenodd" d="M21.9456 0.0390625C23.6314 0.0390625 25 1.40771 25 3.09346V21.9847C25 23.6704 23.6313 25.0391 21.9456 25.0391H16.747V15.6194H19.9989L20.6177 11.5852H16.747V8.96714C16.747 7.86348 17.2876 6.78765 19.0214 6.78765H20.7813V3.35308C20.7813 3.35308 19.1841 3.08052 17.6571 3.08052C14.4692 3.08052 12.3856 5.0126 12.3856 8.5104V11.5852H8.84204V15.6194H12.3856V25.0391H3.05439C1.36865 25.0391 0 23.6704 0 21.9847V3.09346C0 1.40771 1.3686 0.0390625 3.05439 0.0390625L21.9456 0.0390625Z" fill="#606060"/>
</svg>
