<svg preserveAspectRatio="none" width="39" height="35" viewBox="0 0 39 35" fill="none" xmlns="http://www.w3.org/2000/svg">
<path vector-effect="non-scaling-stroke" d="M3.10431 6.2352C4.82714 3.88495 7.37223 2.43562 10.2697 2.12225C12.4624 1.88723 14.4985 2.35728 16.4171 3.53241C17.396 4.11997 18.2574 4.86422 19.0796 5.76515C19.667 4.70754 20.3718 3.76743 21.194 2.98401C22.7994 1.41718 24.718 0.516243 26.8715 0.281217C29.769 -0.0321512 32.5882 0.82961 34.7809 2.74899C36.9344 4.6292 38.3049 7.37116 38.6573 10.4657C39.0097 13.6385 38.1482 16.6939 35.9555 20.0626C33.9978 23.0787 31.022 26.2124 27.5763 29.8945C26.4017 31.1479 25.0704 32.5581 23.7 34.0466C23.3476 34.4383 22.8386 34.7125 22.2904 34.7517C21.7422 34.83 21.2332 34.6733 20.7633 34.36C19.0796 33.1848 17.4743 32.0881 16.0647 31.1479C11.9142 28.3276 8.31194 25.899 5.72769 23.3921C2.8302 20.611 1.34231 17.7906 0.989917 14.6178C0.676675 11.5233 1.42063 8.54629 3.10431 6.2352Z" fill="white"/>
</svg>
