<svg preserveAspectRatio="none" width="16" height="17" viewBox="0 0 16 17" fill="none" xmlns="http://www.w3.org/2000/svg">
<path vector-effect="non-scaling-stroke" d="M2.464 4.70312H3.937C4.13591 4.70312 4.32668 4.78214 4.46733 4.92279C4.60798 5.06344 4.687 5.25421 4.687 5.45312C4.687 5.65203 4.60798 5.8428 4.46733 5.98345C4.32668 6.1241 4.13591 6.20312 3.937 6.20312H0V2.26612C0 2.06721 0.0790176 1.87644 0.21967 1.73579C0.360322 1.59514 0.551088 1.51612 0.75 1.51612C0.948912 1.51612 1.13968 1.59514 1.28033 1.73579C1.42098 1.87644 1.5 2.06721 1.5 2.26612V3.53612C2.2993 2.69104 3.26827 2.02454 4.34332 1.58035C5.41837 1.13616 6.5752 0.924327 7.73789 0.958754C8.90059 0.99318 10.0429 1.27309 11.0897 1.7801C12.1366 2.28712 13.0645 3.00979 13.8124 3.90068C14.5603 4.79157 15.1113 5.83055 15.4294 6.94943C15.7474 8.06831 15.8252 9.24179 15.6578 10.3929C15.4903 11.544 15.0813 12.6466 14.4577 13.6285C13.834 14.6104 13.0097 15.4493 12.039 16.0901C11.8733 16.1931 11.6739 16.2274 11.4833 16.1858C11.2926 16.1442 11.1257 16.0299 11.018 15.8672C10.9102 15.7045 10.8701 15.5063 10.9061 15.3145C10.9422 15.1227 11.0515 14.9526 11.211 14.8401C12.0115 14.3114 12.6901 13.6182 13.2016 12.8066C13.7131 11.995 14.0457 11.0837 14.1773 10.1335C14.3089 9.18324 14.2364 8.21585 13.9647 7.29581C13.693 6.37577 13.2283 5.52422 12.6016 4.79791C11.9749 4.0716 11.2005 3.48722 10.3302 3.08373C9.45986 2.68023 8.51351 2.46689 7.55423 2.45792C6.59495 2.44895 5.64478 2.64456 4.76705 3.03171C3.88932 3.41886 3.10419 3.98866 2.464 4.70312Z" fill="white" fill-opacity="0.698"/>
<path vector-effect="non-scaling-stroke" d="M0.303 8.6101C1.093 8.6101 1.517 8.0901 1.517 7.7031H3.017V15.7031H1.517V10.1101H0V8.6101H0.303ZM5.135 7.6991H9.185V9.1991H6.33L6.085 10.2661C6.341 10.1951 6.61 10.1561 6.889 10.1561C8.51 10.1561 9.843 11.4561 9.843 13.0801C9.843 14.7031 8.51 16.0031 6.89 16.0031C6.17687 16.0062 5.48682 15.7505 4.94796 15.2834C4.40911 14.8163 4.05807 14.1695 3.96 13.4631L5.447 13.2661C5.539 13.9561 6.143 14.5031 6.89 14.5031C7.703 14.5031 8.344 13.8561 8.344 13.0801C8.344 12.3041 7.704 11.6571 6.89 11.6571C6.4 11.6571 5.97 11.8921 5.707 12.2511L5.697 12.2651L5.491 12.5191L4.177 11.8801L5.137 7.6991H5.135Z" fill="white" fill-opacity="0.698"/>
</svg>
