<svg preserveAspectRatio="none" width="25" height="25" viewBox="0 0 25 25" fill="none" xmlns="http://www.w3.org/2000/svg">
<path vector-effect="non-scaling-stroke" d="M15.5484 5.22032C15.6891 5.07987 15.8797 5.00098 16.0784 5.00098C16.2772 5.00098 16.4678 5.07987 16.6084 5.22032L23.1084 11.7203C23.2489 11.8609 23.3278 12.0516 23.3278 12.2503C23.3278 12.4491 23.2489 12.6397 23.1084 12.7803L16.6084 19.2803C16.5168 19.379 16.4002 19.4512 16.2709 19.4892C16.1417 19.5272 16.0046 19.5297 15.874 19.4963C15.7435 19.4629 15.6244 19.395 15.5293 19.2996C15.4341 19.2042 15.3665 19.0849 15.3334 18.9543C15.3 18.8239 15.3024 18.687 15.3402 18.5578C15.378 18.4286 15.45 18.3121 15.5484 18.2203L21.5184 12.2503L15.5484 6.28032C15.408 6.13969 15.3291 5.94907 15.3291 5.75032C15.3291 5.55157 15.408 5.36094 15.5484 5.22032ZM9.10844 5.22032C9.24889 5.36094 9.32778 5.55157 9.32778 5.75032C9.32778 5.94907 9.24889 6.13969 9.10844 6.28032L3.13844 12.2503L9.10844 18.2203C9.20717 18.312 9.27934 18.4286 9.31735 18.5578C9.35537 18.6871 9.35781 18.8242 9.32444 18.9547C9.29107 19.0852 9.22311 19.2044 9.12772 19.2995C9.03233 19.3946 8.91305 19.4623 8.78244 19.4953C8.65207 19.5287 8.51509 19.5264 8.38593 19.4886C8.25677 19.4507 8.14018 19.3788 8.04844 19.2803L1.54844 12.7803C1.40799 12.6397 1.3291 12.4491 1.3291 12.2503C1.3291 12.0516 1.40799 11.8609 1.54844 11.7203L8.04844 5.22032C8.18907 5.07987 8.37969 5.00098 8.57844 5.00098C8.77719 5.00098 8.96782 5.07987 9.10844 5.22032Z" fill="white"/>
</svg>
