<svg preserveAspectRatio="none" width="216" height="279" viewBox="0 0 216 279" fill="none" xmlns="http://www.w3.org/2000/svg">
<path vector-effect="non-scaling-stroke" d="M167.266 253.603C193.694 239.873 188.583 177.629 155.852 114.577C123.121 51.5247 75.1633 11.5412 48.7359 25.2711C22.3085 39.001 27.4187 101.245 60.15 164.297C92.8812 227.349 140.839 267.333 167.266 253.603Z" fill="white"/>
<path vector-effect="non-scaling-stroke" d="M155.643 257.185C144.131 257.185 130.27 250.761 115.352 238.266C95.0308 221.266 75.1008 195.06 59.2429 164.428C35.2407 118.05 25.3344 70.4964 34.0269 43.2726C36.9244 34.1849 41.7796 27.8392 48.3969 24.4313C61.553 17.6939 80.0735 23.4129 100.591 40.5698C120.912 57.57 140.842 83.7754 156.7 114.407C180.742 160.786 190.648 208.339 181.916 235.563C179.019 244.651 174.163 250.996 167.546 254.404C163.983 256.284 159.989 257.185 155.643 257.185ZM60.3784 23.4129C56.3454 23.4129 52.5865 24.2355 49.2191 25.9982C42.9935 29.171 38.4515 35.2033 35.7106 43.8601C27.1356 70.6923 37.0027 117.737 60.8091 163.723C93.2296 226.279 140.764 266.312 166.802 252.955C173.028 249.782 177.57 243.75 180.311 235.093C188.886 208.261 179.019 161.216 155.212 115.23C126.981 60.782 87.3563 23.4129 60.3784 23.4129Z" fill="black"/>
</svg>
