<svg preserveAspectRatio="none" width="30" height="30" viewBox="0 0 30 30" fill="none" xmlns="http://www.w3.org/2000/svg">
<path vector-effect="non-scaling-stroke" fill-rule="evenodd" clip-rule="evenodd" d="M7 21H11C11.55 21 12 20.55 12 20C12 19.45 11.55 19 11 19H7C6.45 19 6 19.45 6 20C6 20.55 6.45 21 7 21ZM6 10C6 10.55 6.45 11 7 11H23C23.55 11 24 10.55 24 10C24 9.45 23.55 9 23 9H7C6.45 9 6 9.45 6 10ZM7 16H17C17.55 16 18 15.55 18 15C18 14.45 17.55 14 17 14H7C6.45 14 6 14.45 6 15C6 15.55 6.45 16 7 16Z" fill="#C3CAD9"/>
</svg>
