<svg preserveAspectRatio="none" width="30" height="30" viewBox="0 0 30 30" fill="none" xmlns="http://www.w3.org/2000/svg">
<path vector-effect="non-scaling-stroke" d="M5.66667 0.333328H1.66667C1.31304 0.333328 0.973905 0.473803 0.723856 0.723852C0.473808 0.9739 0.333333 1.31304 0.333333 1.66666V28.3333C0.333333 28.6869 0.473808 29.0261 0.723856 29.2761C0.973905 29.5262 1.31304 29.6667 1.66667 29.6667H5.66667V0.333328Z" fill="#D6B1FF"/>
<path vector-effect="non-scaling-stroke" d="M8.33333 29.6667H21.6667V0.333328H8.33333V29.6667ZM15 24.3333C14.6464 24.3333 14.3072 24.1929 14.0572 23.9428C13.8071 23.6928 13.6667 23.3536 13.6667 23C13.6667 22.6464 13.8071 22.3072 14.0572 22.0572C14.3072 21.8071 14.6464 21.6667 15 21.6667C15.3536 21.6667 15.6928 21.8071 15.9428 22.0572C16.1929 22.3072 16.3333 22.6464 16.3333 23C16.3333 23.3536 16.1929 23.6928 15.9428 23.9428C15.6928 24.1929 15.3536 24.3333 15 24.3333ZM15 5.66666C15.3536 5.66666 15.6928 5.80714 15.9428 6.05718C16.1929 6.30723 16.3333 6.64637 16.3333 6.99999C16.3333 7.35362 16.1929 7.69276 15.9428 7.9428C15.6928 8.19285 15.3536 8.33333 15 8.33333C14.6464 8.33333 14.3072 8.19285 14.0572 7.9428C13.8071 7.69276 13.6667 7.35362 13.6667 6.99999C13.6667 6.64637 13.8071 6.30723 14.0572 6.05718C14.3072 5.80714 14.6464 5.66666 15 5.66666ZM15 13.6667C15.3536 13.6667 15.6928 13.8071 15.9428 14.0572C16.1929 14.3072 16.3333 14.6464 16.3333 15C16.3333 15.3536 16.1929 15.6928 15.9428 15.9428C15.6928 16.1929 15.3536 16.3333 15 16.3333C14.6464 16.3333 14.3072 16.1929 14.0572 15.9428C13.8071 15.6928 13.6667 15.3536 13.6667 15C13.6667 14.6464 13.8071 14.3072 14.0572 14.0572C14.3072 13.8071 14.6464 13.6667 15 13.6667Z" fill="#8C30F5"/>
<path vector-effect="non-scaling-stroke" d="M28.3333 0.333328H24.3333V29.6667H28.3333C28.687 29.6667 29.0261 29.5262 29.2761 29.2761C29.5262 29.0261 29.6667 28.6869 29.6667 28.3333V1.66666C29.6667 1.31304 29.5262 0.9739 29.2761 0.723852C29.0261 0.473803 28.687 0.333328 28.3333 0.333328Z" fill="#2EC5CE"/>
</svg>
