<svg preserveAspectRatio="none" width="14" height="10" viewBox="0 0 14 10" fill="none" xmlns="http://www.w3.org/2000/svg">
<g clip-path="url(#clip0_23_463)">
<path vector-effect="non-scaling-stroke" d="M7 10C2.8 10 0 6 0 5C0 4 2.8 0 7 0C11.2 0 14 4 14 5C14 6 11.2 10 7 10ZM7 8.5C8.9 8.5 10.5 6.9 10.5 5C10.5 3.1 8.9 1.5 7 1.5C5.1 1.5 3.5 3.1 3.5 5C3.5 6.9 5.1 8.5 7 8.5ZM7 6.6C6.1 6.6 5.4 5.9 5.4 5C5.4 4.1 6.1 3.4 7 3.4C7.9 3.4 8.6 4.1 8.6 5C8.6 5.9 7.9 6.6 7 6.6Z" fill="#818C99"/>
</g>
<defs>
<clipPath id="clip0_23_463">
<rect vector-effect="non-scaling-stroke" width="14" height="10" fill="white"/>
</clipPath>
</defs>
</svg>
