<svg preserveAspectRatio="none" width="102" height="47" viewBox="0 0 102 47" fill="none" xmlns="http://www.w3.org/2000/svg">
<g clip-path="url(#clip0_36_458)">
<path vector-effect="non-scaling-stroke" d="M22.2836 0.245156C17.3968 3.43897 12.9721 7.34098 9.13378 11.8262C7.21462 14.0711 5.4465 16.4549 3.86052 18.9637C2.31009 21.4077 0.870716 24.0229 0.25765 26.9112C-0.306549 29.5773 -1.54607e-05 32.4425 1.81253 34.5347C3.43849 36.4093 5.89519 37.2518 8.24084 37.5804C10.9597 37.9646 13.7407 37.7748 16.455 37.4693C19.436 37.1314 22.3947 36.5343 25.2823 35.7011C31.8083 33.8172 37.9568 30.7021 43.4166 26.5316C43.9586 26.1197 43.2034 25.8142 42.8435 25.8883C35.6333 27.3648 28.8141 30.4892 22.9189 35.0716C21.4662 36.201 20.0757 37.4138 18.7607 38.7144C17.539 39.9179 16.1574 41.4963 16.1796 43.3663C16.224 47.0461 20.9953 47.0924 23.4742 46.9674C31.7106 46.5462 39.5117 43.445 47.0284 40.1447C54.7095 36.775 62.2706 33.1091 69.7252 29.2256C77.1797 25.3421 84.6165 21.204 91.9244 16.9363C92.8173 16.4133 93.7103 15.8902 94.6032 15.3625C94.892 15.1913 95.123 14.8302 94.7676 14.6034C94.4122 14.3766 93.7769 14.5896 93.4437 14.784C86.5312 18.8665 79.552 22.8287 72.4751 26.5964C65.407 30.3642 58.2457 33.9376 50.9778 37.2656C43.9408 40.4826 36.7395 43.8523 29.134 45.2872C27.2192 45.6482 25.2823 45.8889 23.3365 45.9491C21.9593 45.9908 20.4666 45.9861 19.236 45.2455C17.8011 44.38 17.6279 42.6349 18.3964 41.2047C19.2405 39.6355 20.6799 38.4274 21.9771 37.2749C27.2148 32.6323 33.4743 29.2394 40.1381 27.4666C40.9555 27.2491 41.7729 27.0547 42.5992 26.8881L42.0261 26.2447C37.4948 29.7023 32.4036 32.3962 27.0504 34.1783C24.3449 35.0809 21.5728 35.7613 18.7607 36.201C16.1574 36.6037 13.4874 36.8815 10.8486 36.7565C8.57403 36.65 6.09955 36.1871 4.25591 34.6967C2.25678 33.0766 1.43047 30.5447 1.70147 27.9619C1.99467 25.1708 3.21636 22.5695 4.62908 20.2181C6.0418 17.8667 7.68552 15.5014 9.44032 13.3213C13.3986 8.40559 18.0943 4.15642 23.2965 0.749686C23.5408 0.592309 23.7585 0.286814 23.4387 0.0831504C23.1188 -0.120513 22.559 0.0600068 22.2792 0.240527L22.2836 0.245156Z" fill="#EF790C"/>
<path vector-effect="non-scaling-stroke" d="M82.8705 15.9321C88.7613 13.8908 94.8031 12.3356 100.938 11.3265L100.263 11.183C100.414 11.3682 97.6863 13.7612 97.402 14.0251C96.3668 14.9925 95.3273 15.9599 94.2922 16.9319C92.222 18.8667 90.1562 20.8015 88.0905 22.7456C87.8239 23.0002 87.9172 23.2779 88.2504 23.3705C88.628 23.4723 89.1567 23.3057 89.4454 23.0372C93.2482 19.5101 97.0332 15.9599 100.818 12.4143C101.196 12.0625 101.702 11.7107 101.92 11.2201C102.138 10.7294 101.884 10.3684 101.382 10.3406C100.849 10.3082 100.227 10.5119 99.7032 10.6045C99.0768 10.7155 98.4504 10.8359 97.8284 10.9562C95.3939 11.4376 92.9683 11.9884 90.5649 12.6272C87.895 13.3354 85.2517 14.1501 82.6395 15.0527C82.3952 15.136 81.8043 15.3581 81.902 15.7331C81.9953 16.0895 82.6395 16.0201 82.8705 15.9414V15.9321Z" fill="#EF790C"/>
</g>
<defs>
<clipPath id="clip0_36_458">
<rect vector-effect="non-scaling-stroke" width="102" height="47" fill="white"/>
</clipPath>
</defs>
</svg>
