<svg preserveAspectRatio="none" width="136" height="207" viewBox="0 0 136 207" fill="none" xmlns="http://www.w3.org/2000/svg">
<path vector-effect="non-scaling-stroke" d="M109.692 206.574C99.5897 206.574 87.4516 200.934 74.3737 190.005C56.5972 175.12 39.134 152.166 25.2731 125.373C4.24671 84.7917 -4.4066 43.153 3.18952 19.2978C5.73461 11.307 10.0025 5.74468 15.8367 2.72851C29.2277 -4.12641 48.9228 3.78613 69.91 24.4292C70.2624 24.7818 70.2624 25.291 69.91 25.6435C69.5576 25.9961 69.0486 25.9961 68.6962 25.6435C48.2572 5.54883 29.2669 -2.28537 16.6198 4.25618C11.2163 7.03732 7.26166 12.2471 4.83403 19.8071C-2.64462 43.2313 5.96954 84.3609 26.8001 124.589C51.4288 172.182 86.0811 204.851 109.653 204.851C113.177 204.851 116.426 204.107 119.402 202.618C124.806 199.837 128.76 194.627 131.188 187.067C138.667 163.643 130.052 122.513 109.222 82.2848C102.918 70.1418 95.8699 58.743 88.2738 48.4411C87.9997 48.0493 88.0781 47.5009 88.4696 47.2267C88.8612 46.9526 89.4093 47.0309 89.6834 47.4226C97.3578 57.8421 104.445 69.28 110.788 81.5014C131.814 122.082 140.468 163.721 132.872 187.576C130.327 195.567 126.059 201.13 120.224 204.146C117.014 205.752 113.49 206.574 109.692 206.574Z" fill="black"/>
</svg>
