<svg preserveAspectRatio="none" width="84" height="59" viewBox="0 0 84 59" fill="none" xmlns="http://www.w3.org/2000/svg">
<g clip-path="url(#clip0_4_7614)">
<path vector-effect="non-scaling-stroke" d="M0.899963 0.995234H13.5121V35.0099C13.5121 40.4046 15.9437 43.6154 17.9214 44.9519C15.8627 46.761 9.62145 48.3582 4.92028 44.4955C2.16442 42.2137 0.899963 38.4162 0.899963 34.8795V0.995234ZM79.6689 29.2729V25.6872H83.5271V13.1701H79.2961C77.6588 5.62396 70.9961 0.017334 63.0365 0.017334C53.8611 0.017334 46.3879 7.51457 46.3879 16.7557V45.9624C48.9816 46.3372 52.1265 45.9135 54.7689 43.6806C57.541 41.3988 58.7892 37.6176 58.7892 34.0646V32.9726H65.0791V20.4555H58.7892V16.6579C58.7892 11.0187 67.2513 11.0187 67.2513 16.6579V29.224C67.2513 38.4488 74.7084 45.9624 83.9 45.9624V33.4941C81.5494 33.4941 79.6689 31.5872 79.6689 29.2729ZM31.9601 13.1375V31.5546C31.9601 34.0646 28.1019 34.0646 28.1019 31.5546V13.1375H15.6519V34.7654C15.6519 38.6444 16.9488 43.5665 22.9468 45.18C28.9449 46.7773 32.3816 43.4524 32.3816 43.4524C32.0412 45.6364 30.031 47.2499 26.724 47.5759C24.2113 47.8367 21.0177 46.9892 19.4291 46.3046V57.7624C23.498 58.9847 27.7777 59.3596 32.0088 58.5284C39.6441 57.0452 44.4588 50.64 44.4588 42.0996V13.056H31.9601V13.1375Z" fill="#737373"/>
</g>
<defs>
<clipPath id="clip0_4_7614">
<rect vector-effect="non-scaling-stroke" width="83" height="59" fill="white" transform="translate(0.899963)"/>
</clipPath>
</defs>
</svg>
