<svg preserveAspectRatio="none" width="32" height="32" viewBox="0 0 32 32" fill="none" xmlns="http://www.w3.org/2000/svg">
<path vector-effect="non-scaling-stroke" fill-rule="evenodd" clip-rule="evenodd" d="M14.3431 5.00989C15.8434 3.5096 17.8783 2.66675 20 2.66675H24C24.7364 2.66675 25.3333 3.2637 25.3333 4.00008V9.33342C25.3333 10.0698 24.7364 10.6667 24 10.6667H20V12.0001H24C24.4106 12.0001 24.7983 12.1892 25.0509 12.5129C25.3036 12.8365 25.3931 13.2585 25.2935 13.6568L23.9602 18.9901C23.8118 19.5837 23.2785 20.0001 22.6667 20.0001H20V28.0001C20 28.7365 19.403 29.3334 18.6667 29.3334H13.3333C12.597 29.3334 12 28.7365 12 28.0001V20.0001H9.33333C8.59695 20.0001 8 19.4031 8 18.6667V13.3334C8 12.597 8.59695 12.0001 9.33333 12.0001H12V10.6667C12 8.54502 12.8429 6.51019 14.3431 5.00989ZM20 5.33341C18.5855 5.33341 17.229 5.89532 16.2288 6.89551C15.2286 7.89571 14.6667 9.25226 14.6667 10.6667V13.3334C14.6667 14.0698 14.0697 14.6667 13.3333 14.6667H10.6667V17.3334H13.3333C14.0697 17.3334 14.6667 17.9304 14.6667 18.6667V26.6667H17.3333V18.6667C17.3333 17.9304 17.9303 17.3334 18.6667 17.3334H21.6256L22.2923 14.6667H18.6667C17.9303 14.6667 17.3333 14.0698 17.3333 13.3334V10.6667C17.3333 9.9595 17.6143 9.28123 18.1144 8.78113C18.6145 8.28103 19.2928 8.00008 20 8.00008H22.6667V5.33341H20Z" fill="#CECECE"/>
</svg>
