<svg preserveAspectRatio="none" width="16" height="17" viewBox="0 0 16 17" fill="none" xmlns="http://www.w3.org/2000/svg">
<path vector-effect="non-scaling-stroke" d="M8 10C8.39782 10 8.77936 9.84196 9.06066 9.56066C9.34196 9.27936 9.5 8.89782 9.5 8.5C9.5 8.10218 9.34196 7.72064 9.06066 7.43934C8.77936 7.15804 8.39782 7 8 7C7.60218 7 7.22064 7.15804 6.93934 7.43934C6.65804 7.72064 6.5 8.10218 6.5 8.5C6.5 8.89782 6.65804 9.27936 6.93934 9.56066C7.22064 9.84196 7.60218 10 8 10Z" fill="#3FB950"/>
<path vector-effect="non-scaling-stroke" d="M8 0.5C10.1217 0.5 12.1566 1.34285 13.6569 2.84315C15.1571 4.34344 16 6.37827 16 8.5C16 10.6217 15.1571 12.6566 13.6569 14.1569C12.1566 15.6571 10.1217 16.5 8 16.5C5.87827 16.5 3.84344 15.6571 2.34315 14.1569C0.842855 12.6566 0 10.6217 0 8.5C0 6.37827 0.842855 4.34344 2.34315 2.84315C3.84344 1.34285 5.87827 0.5 8 0.5ZM1.5 8.5C1.5 10.2239 2.18482 11.8772 3.40381 13.0962C4.62279 14.3152 6.27609 15 8 15C9.72391 15 11.3772 14.3152 12.5962 13.0962C13.8152 11.8772 14.5 10.2239 14.5 8.5C14.5 6.77609 13.8152 5.12279 12.5962 3.90381C11.3772 2.68482 9.72391 2 8 2C6.27609 2 4.62279 2.68482 3.40381 3.90381C2.18482 5.12279 1.5 6.77609 1.5 8.5Z" fill="#3FB950"/>
</svg>
