<svg preserveAspectRatio="none" width="35" height="31" viewBox="0 0 35 31" fill="none" xmlns="http://www.w3.org/2000/svg">
<path vector-effect="non-scaling-stroke" d="M28.6221 19.1713C26.7427 19.1713 25.0982 20.0723 24.0018 21.4824L12.6859 17.0561C12.6859 16.8994 12.7251 16.7819 12.7251 16.6252C12.7251 16.351 12.686 16.0768 12.6468 15.8026L24.2367 10.4362C25.2939 11.6505 26.8601 12.4339 28.6221 12.4731C31.8328 12.4731 34.4954 9.84863 34.4954 6.59743C34.4954 3.34624 31.872 0.682617 28.6221 0.682617C25.4114 0.682617 22.7488 3.30707 22.7488 6.55826C22.7488 6.83246 22.788 7.10666 22.8272 7.38085L11.2372 12.7473C10.18 11.533 8.61379 10.7496 6.8518 10.7104C3.64107 10.7104 0.978516 13.3348 0.978516 16.586C0.978516 19.8372 3.60192 22.5009 6.8518 22.5009C8.73125 22.5009 10.3758 21.5999 11.4721 20.1898L22.788 24.6161C22.788 24.7728 22.7488 24.8903 22.7488 25.047C22.7488 28.2982 25.3722 30.9618 28.6221 30.9618C31.8328 30.9618 34.4954 28.3373 34.4954 25.0861C34.4562 21.8349 31.8328 19.2105 28.6221 19.1713Z" fill="black"/>
</svg>
