<svg preserveAspectRatio="none" width="60" height="60" viewBox="0 0 60 60" fill="none" xmlns="http://www.w3.org/2000/svg">
<g filter="url(#filter0_d_396_51441)">
<rect vector-effect="non-scaling-stroke" x="5" y="3" width="50" height="50" rx="25" fill="white"/>
<path vector-effect="non-scaling-stroke" fill-rule="evenodd" clip-rule="evenodd" d="M30 18C24.48 18 20 22.48 20 28C20 33.52 24.48 38 30 38C35.52 38 40 33.52 40 28C40 22.48 35.52 18 30 18ZM29 35.93C25.05 35.44 22 32.08 22 28C22 27.38 22.08 26.79 22.21 26.21L27 31V32C27 33.1 27.9 34 29 34V35.93ZM35.9 33.39C35.64 32.58 34.9 32 34 32H33V29C33 28.45 32.55 28 32 28H26V26H28C28.55 26 29 25.55 29 25V23H31C32.1 23 33 22.1 33 21V20.59C35.93 21.78 38 24.65 38 28C38 30.08 37.2 31.97 35.9 33.39Z" fill="#C3CAD9"/>
</g>
<defs>
<filter id="filter0_d_396_51441" x="0" y="0" width="60" height="60" filterUnits="userSpaceOnUse" color-interpolation-filters="sRGB">
<feFlood flood-opacity="0" result="BackgroundImageFix"/>
<feColorMatrix in="SourceAlpha" type="matrix" values="0 0 0 0 0 0 0 0 0 0 0 0 0 0 0 0 0 0 127 0" result="hardAlpha"/>
<feOffset dy="2"/>
<feGaussianBlur stdDeviation="2.5"/>
<feColorMatrix type="matrix" values="0 0 0 0 0.14902 0 0 0 0 0.2 0 0 0 0 0.301961 0 0 0 0.03 0"/>
<feBlend mode="normal" in2="BackgroundImageFix" result="effect1_dropShadow_396_51441"/>
<feBlend mode="normal" in="SourceGraphic" in2="effect1_dropShadow_396_51441" result="shape"/>
</filter>
</defs>
</svg>
