<svg preserveAspectRatio="none" width="26" height="33" viewBox="0 0 26 33" fill="none" xmlns="http://www.w3.org/2000/svg">
<path vector-effect="non-scaling-stroke" fill-rule="evenodd" clip-rule="evenodd" d="M6.49495 21.1615H12.1616L14.745 11.4948H6.49495C3.82829 11.4948 1.66162 13.6615 1.66162 16.3281C1.66162 18.9948 3.82829 21.1615 6.49495 21.1615Z" fill="white"/>
<path vector-effect="non-scaling-stroke" fill-rule="evenodd" clip-rule="evenodd" d="M19.1616 10.4948H6.49495C3.24495 10.4948 0.661621 13.0781 0.661621 16.3281C0.661621 19.5781 3.24495 22.1615 6.49495 22.1615H19.1616C22.4116 22.1615 24.995 19.5781 24.995 16.3281C24.995 13.0781 22.3283 10.4948 19.1616 10.4948ZM1.66162 16.3281C1.66162 13.6615 3.82829 11.4948 6.49495 11.4948H14.745L12.1616 21.1615H6.49495C3.82829 21.1615 1.66162 18.9948 1.66162 16.3281Z" fill="#0066FF"/>
<path vector-effect="non-scaling-stroke" d="M20.8281 13.8281C20.9948 13.9948 20.9948 14.3281 20.8281 14.4948L19.0781 16.3281L20.9115 18.1615C21.0781 18.3281 21.0781 18.6615 20.9115 18.8281C20.7448 18.9948 20.4115 18.9948 20.2448 18.8281L18.4115 16.9948L16.5781 18.8281C16.4115 18.9948 16.0781 18.9948 15.9115 18.8281C15.7448 18.6615 15.7448 18.3281 15.9115 18.1615L17.6615 16.3281L15.8281 14.4948C15.6615 14.3281 15.6615 13.9948 15.8281 13.8281C15.9948 13.6615 16.3281 13.6615 16.4948 13.8281L18.3281 15.6615L20.1615 13.8281C20.3281 13.6615 20.6615 13.6615 20.8281 13.8281Z" fill="white"/>
<path vector-effect="non-scaling-stroke" d="M10.9115 13.9115C11.0781 14.0782 11.1615 14.4115 10.9948 14.5782L7.49479 18.6615C7.41146 18.7448 7.32812 18.8282 7.24479 18.8282C7.07812 18.9115 6.82812 18.9115 6.66146 18.7448L4.82812 16.9115C4.66146 16.7448 4.66146 16.4115 4.82812 16.2448C4.99479 16.0782 5.32812 16.0782 5.49479 16.2448L6.99479 17.6615L10.1615 13.9115C10.3281 13.7448 10.6615 13.7448 10.9115 13.9115Z" fill="#0066FF"/>
</svg>
