<svg preserveAspectRatio="none" width="24" height="22" viewBox="0 0 24 22" fill="none" xmlns="http://www.w3.org/2000/svg">
<path vector-effect="non-scaling-stroke" fill-rule="evenodd" clip-rule="evenodd" d="M14.5934 1.11224C14.6347 1.13757 14.676 1.16424 14.7134 1.1949C16.5157 2.61066 16.648 5.24255 16.6544 10.4984L16.6547 10.9989C16.6547 16.5909 16.572 19.3442 14.7134 20.8056C14.676 20.8349 14.6347 20.8629 14.592 20.8869C14.04 21.2016 13.4787 21.3349 12.9187 21.3349C11.064 21.3349 9.22536 19.8749 7.79336 18.7389C7.14669 18.2256 6.16936 17.4496 5.83202 17.4149C5.44936 17.3856 5.11869 17.3736 4.82669 17.3656C3.76269 17.3269 2.92136 17.2989 1.93202 16.4829C0.741622 15.5025 0.632302 13.5598 0.628174 11.8475L0.629355 11.2869L0.630688 10.9989L0.629355 10.7109L0.628174 10.1503C0.632302 8.43823 0.741622 6.49663 1.93202 5.51623C2.92269 4.70023 3.76536 4.6709 4.83202 4.6349C5.12269 4.62424 5.45202 4.61357 5.83469 4.58557C6.16936 4.54957 7.14669 3.77357 7.79336 3.26024C9.65736 1.7789 12.2134 -0.243765 14.5934 1.11224ZM12.9054 2.67357C11.748 2.67357 10.268 3.84824 9.03602 4.8269C7.85069 5.7669 6.91469 6.5109 5.98136 6.58024C5.56802 6.60957 5.21336 6.6229 4.90136 6.63357C3.90536 6.6669 3.65336 6.68957 3.20402 7.06024C2.68836 7.48374 2.63104 9.05057 2.62834 10.2262L2.62936 10.7016L2.63069 10.9962V11.0016L2.62936 11.2962L2.62834 11.7721C2.63104 12.9486 2.68836 14.5154 3.20402 14.9389C3.65202 15.3096 3.90402 15.3309 4.89736 15.3669C5.21069 15.3762 5.56669 15.3896 5.98136 15.4202C6.91469 15.4882 7.85069 16.2322 9.03602 17.1722C10.5067 18.3389 12.3294 19.7856 13.536 19.1842C14.5141 18.3365 14.6468 16.1339 14.6543 11.4732L14.6547 10.9989C14.6547 6.01224 14.5467 3.6909 13.536 2.81357C13.34 2.71624 13.128 2.67357 12.9054 2.67357ZM21.9367 5.58783C23.85 8.93183 23.85 13.0785 21.9367 16.4118C21.7514 16.7345 21.4154 16.9145 21.0687 16.9145C20.8994 16.9145 20.7287 16.8718 20.5714 16.7812C20.0927 16.5065 19.9274 15.8945 20.202 15.4172C21.7634 12.6958 21.7634 9.31183 20.202 6.5825C19.9274 6.1025 20.094 5.49184 20.5727 5.21717C21.0527 4.94784 21.662 5.10917 21.9367 5.58783Z" fill="#00A4FF"/>
</svg>
