<svg preserveAspectRatio="none" width="61" height="57" viewBox="0 0 61 57" fill="none" xmlns="http://www.w3.org/2000/svg">
<path vector-effect="non-scaling-stroke" d="M36.8605 20.1254H3.51537C2.77535 20.1254 2.06563 20.4194 1.54234 20.9426C1.01904 21.4659 0.72503 22.1756 0.724976 22.9156V44.97C0.725003 45.71 1.019 46.4197 1.54229 46.943C2.06559 47.4663 2.77532 47.7603 3.51537 47.7603H13.8415C14.237 47.7604 14.6164 47.9175 14.8961 48.1972C15.1758 48.4769 15.3329 48.8562 15.3329 49.2518V54.4572C15.3329 54.7747 15.4248 55.0854 15.5976 55.3518C15.7703 55.6181 16.0165 55.8288 16.3064 55.9582C16.5963 56.0877 16.9175 56.1305 17.2311 56.0814C17.5448 56.0322 17.8375 55.8934 18.0739 55.6815L26.2698 48.3359C26.6835 47.9653 27.2193 47.7602 27.7747 47.7601H36.8604C37.6004 47.7601 38.3101 47.4661 38.8334 46.9428C39.3567 46.4195 39.6506 45.7098 39.6507 44.9697V22.9156C39.6506 22.1756 39.3566 21.466 38.8334 20.9427C38.3101 20.4195 37.6005 20.1255 36.8605 20.1254ZM20.1878 38.5947H9.21859C9.03418 38.5992 8.85074 38.5667 8.67907 38.4993C8.50739 38.4318 8.35094 38.3307 8.21893 38.2018C8.08692 38.073 7.98201 37.9191 7.91039 37.7491C7.83876 37.5791 7.80186 37.3965 7.80186 37.212C7.80186 37.0276 7.83876 36.845 7.91039 36.675C7.98201 36.505 8.08692 36.3511 8.21893 36.2222C8.35094 36.0934 8.50739 35.9923 8.67907 35.9248C8.85074 35.8573 9.03418 35.8249 9.21859 35.8294H20.1878C20.3722 35.8249 20.5556 35.8573 20.7273 35.9248C20.899 35.9923 21.0554 36.0934 21.1874 36.2222C21.3194 36.3511 21.4243 36.505 21.496 36.675C21.5676 36.845 21.6045 37.0276 21.6045 37.212C21.6045 37.3965 21.5676 37.5791 21.496 37.7491C21.4243 37.9191 21.3194 38.073 21.1874 38.2018C21.0554 38.3307 20.899 38.4318 20.7273 38.4993C20.5556 38.5667 20.3722 38.5992 20.1878 38.5947ZM31.158 38.5947H26.8799C26.6955 38.5992 26.5121 38.5667 26.3404 38.4993C26.1687 38.4318 26.0123 38.3307 25.8803 38.2018C25.7483 38.073 25.6434 37.9191 25.5717 37.7491C25.5001 37.5791 25.4632 37.3965 25.4632 37.212C25.4632 37.0276 25.5001 36.845 25.5717 36.675C25.6434 36.505 25.7483 36.3511 25.8803 36.2222C26.0123 36.0934 26.1687 35.9923 26.3404 35.9248C26.5121 35.8573 26.6955 35.8249 26.8799 35.8294H31.158C31.5189 35.8382 31.862 35.9877 32.1141 36.246C32.3662 36.5044 32.5074 36.851 32.5074 37.212C32.5074 37.573 32.3662 37.9197 32.1141 38.178C31.862 38.4364 31.5189 38.5859 31.158 38.5947ZM31.158 31.5893H9.21859C9.03418 31.5938 8.85074 31.5614 8.67907 31.4939C8.50739 31.4264 8.35094 31.3253 8.21893 31.1965C8.08692 31.0677 7.98201 30.9137 7.91039 30.7437C7.83876 30.5737 7.80186 30.3911 7.80186 30.2067C7.80186 30.0222 7.83876 29.8396 7.91039 29.6696C7.98201 29.4997 8.08692 29.3457 8.21893 29.2169C8.35094 29.0881 8.50739 28.9869 8.67907 28.9195C8.85074 28.852 9.03418 28.8195 9.21859 28.824H31.158C31.5189 28.8328 31.862 28.9824 32.1141 29.2407C32.3662 29.499 32.5074 29.8457 32.5074 30.2067C32.5074 30.5677 32.3662 30.9143 32.1141 31.1727C31.862 31.431 31.5189 31.5805 31.158 31.5893Z" fill="#EF790C"/>
<path vector-effect="non-scaling-stroke" d="M57.9347 0.108093H24.5896C24.2232 0.108093 23.8603 0.18027 23.5218 0.320501C23.1832 0.460733 22.8756 0.666273 22.6165 0.925387C22.3574 1.1845 22.1519 1.49211 22.0117 1.83066C21.8715 2.1692 21.7993 2.53205 21.7993 2.89849V17.3594H36.8605C38.3336 17.3612 39.7458 17.9471 40.7874 18.9887C41.829 20.0303 42.415 21.4426 42.4168 22.9156V30.251L48.4563 35.6637C48.6927 35.8756 48.9854 36.0145 49.2991 36.0637C49.6127 36.1128 49.9339 36.0701 50.2238 35.9406C50.5137 35.8112 50.7599 35.6005 50.9327 35.3342C51.1055 35.0678 51.1974 34.7572 51.1975 34.4397V29.2343C51.1975 29.0384 51.236 28.8445 51.3109 28.6635C51.3859 28.4826 51.4957 28.3182 51.6342 28.1797C51.7727 28.0412 51.9371 27.9313 52.118 27.8563C52.2989 27.7814 52.4929 27.7428 52.6887 27.7428H57.9347C58.3012 27.7428 58.664 27.6706 59.0025 27.5304C59.3411 27.3901 59.6487 27.1846 59.9078 26.9254C60.1669 26.6663 60.3724 26.3587 60.5126 26.0202C60.6529 25.6816 60.725 25.3188 60.725 24.9523V2.89849C60.725 2.53205 60.6529 2.1692 60.5126 1.83066C60.3724 1.49211 60.1669 1.1845 59.9078 0.925387C59.6487 0.666273 59.3411 0.460733 59.0025 0.320501C58.664 0.18027 58.3011 0.108093 57.9347 0.108093ZM52.232 18.4489H44.9479C44.7635 18.4534 44.5801 18.4209 44.4084 18.3534C44.2367 18.286 44.0803 18.1849 43.9482 18.056C43.8162 17.9272 43.7113 17.7732 43.6397 17.6033C43.5681 17.4333 43.5312 17.2507 43.5312 17.0662C43.5312 16.8818 43.5681 16.6992 43.6397 16.5292C43.7113 16.3592 43.8162 16.2053 43.9482 16.0764C44.0803 15.9476 44.2367 15.8465 44.4084 15.779C44.5801 15.7115 44.7635 15.6791 44.9479 15.6836H52.232C52.4164 15.6791 52.5999 15.7115 52.7715 15.779C52.9432 15.8465 53.0997 15.9476 53.2317 16.0764C53.3637 16.2053 53.4686 16.3592 53.5402 16.5292C53.6118 16.6992 53.6487 16.8818 53.6487 17.0662C53.6487 17.2507 53.6118 17.4333 53.5402 17.6033C53.4686 17.7732 53.3637 17.9272 53.2317 18.056C53.0997 18.1849 52.9432 18.286 52.7715 18.3534C52.5999 18.4209 52.4164 18.4534 52.232 18.4489ZM52.232 11.6546H30.2926C30.1082 11.6591 29.9248 11.6266 29.7531 11.5592C29.5814 11.4917 29.425 11.3906 29.293 11.2617C29.161 11.1329 29.056 10.979 28.9844 10.809C28.9128 10.639 28.8759 10.4564 28.8759 10.2719C28.8759 10.0875 28.9128 9.90487 28.9844 9.73489C29.056 9.5649 29.161 9.41096 29.293 9.28213C29.425 9.15329 29.5814 9.05216 29.7531 8.9847C29.9248 8.91723 30.1082 8.88479 30.2926 8.88928H52.232C52.4164 8.88479 52.5999 8.91723 52.7715 8.9847C52.9432 9.05216 53.0997 9.15329 53.2317 9.28213C53.3637 9.41096 53.4686 9.5649 53.5402 9.73489C53.6118 9.90487 53.6487 10.0875 53.6487 10.2719C53.6487 10.4564 53.6118 10.639 53.5402 10.809C53.4686 10.979 53.3637 11.1329 53.2317 11.2617C53.0997 11.3906 52.9432 11.4917 52.7715 11.5592C52.5999 11.6266 52.4164 11.6591 52.232 11.6546Z" fill="#EF790C"/>
</svg>
