<svg preserveAspectRatio="none" width="61" height="49" viewBox="0 0 61 49" fill="none" xmlns="http://www.w3.org/2000/svg">
<path vector-effect="non-scaling-stroke" d="M46.477 18.1178H32.2271V23.3562C32.2271 27.07 29.1989 30.0914 25.4771 30.0914C21.7552 30.0914 18.7271 27.07 18.7271 23.3562V11.9813L12.6427 15.6295C10.8333 16.7053 9.7271 18.6603 9.7271 20.7557V25.1804L2.22711 29.5021C0.792739 30.3253 0.295865 32.1588 1.13024 33.59L8.63022 46.5552C9.45522 47.9864 11.2927 48.4729 12.7271 47.6497L22.4208 42.0651H35.2271C38.5364 42.0651 41.227 39.3804 41.227 36.0783H42.727C44.3864 36.0783 45.727 34.7406 45.727 33.0849V27.098H46.477C47.7239 27.098 48.727 26.0971 48.727 24.853V20.3628C48.727 19.1187 47.7239 18.1178 46.477 18.1178ZM60.3239 14.6192L52.8239 1.65399C51.9989 0.222759 50.1614 -0.263671 48.727 0.559518L39.0333 6.14411H29.4521C28.3271 6.14411 27.2302 6.46216 26.2739 7.05149L23.1333 9.00656C22.2521 9.54912 21.7271 10.5126 21.7271 11.5416V23.3562C21.7271 25.4236 23.4052 27.098 25.4771 27.098C27.5489 27.098 29.2271 25.4236 29.2271 23.3562V15.1244H46.477C49.3739 15.1244 51.727 17.4723 51.727 20.3628V23.0288L59.227 18.7071C60.6614 17.8746 61.1489 16.0504 60.3239 14.6192Z" fill="#EF790C"/>
</svg>
