<svg preserveAspectRatio="none" width="77" height="12" viewBox="0 0 77 12" fill="none" xmlns="http://www.w3.org/2000/svg">
<path vector-effect="non-scaling-stroke" d="M0.514404 12V0H4.49153C5.3201 0 6.09438 0.157142 6.81438 0.471427C7.54009 0.779997 8.17723 1.21142 8.7258 1.76571C9.28008 2.31428 9.71151 2.95142 10.0201 3.67713C10.3344 4.39713 10.4915 5.17141 10.4915 5.99998C10.4915 6.82854 10.3344 7.60568 10.0201 8.3314C9.71151 9.05139 9.28008 9.68853 8.7258 10.2428C8.17723 10.7914 7.54009 11.2228 6.81438 11.5371C6.09438 11.8457 5.3201 12 4.49153 12H0.514404Z" fill="white"/>
<path vector-effect="non-scaling-stroke" d="M14.9761 12C13.9287 12 12.9724 11.7305 12.1071 11.1916C11.2494 10.6528 10.5625 9.92789 10.0464 9.01708C9.53782 8.10626 9.28355 7.10057 9.28355 6C9.28355 5.17267 9.43155 4.39848 9.72757 3.67742C10.0236 2.94877 10.4297 2.3112 10.9458 1.76471C11.4695 1.21063 12.0767 0.777988 12.7674 0.466793C13.4581 0.155598 14.1944 0 14.9761 0C15.8642 0 16.6763 0.189754 17.4126 0.56926C18.1564 0.941177 18.7864 1.45351 19.3025 2.10626C19.8187 2.75901 20.1944 3.50285 20.4297 4.33776C20.665 5.17268 20.7181 6.04554 20.589 6.95636H12.2665C12.3727 7.3814 12.5473 7.76471 12.7902 8.10626C13.0331 8.44023 13.3405 8.70968 13.7124 8.91461C14.0843 9.11195 14.5056 9.21442 14.9761 9.22201C15.4619 9.2296 15.9021 9.11575 16.2968 8.88046C16.6991 8.63757 17.0331 8.3112 17.2987 7.90133L20.1336 8.56167C19.6706 9.57116 18.9799 10.3985 18.0615 11.0436C17.1431 11.6812 16.1147 12 14.9761 12ZM12.1754 4.87286H17.7769C17.6934 4.41746 17.515 4.00759 17.2418 3.64326C16.9761 3.27135 16.646 2.97533 16.2513 2.75522C15.8566 2.5351 15.4316 2.42505 14.9761 2.42505C14.5207 2.42505 14.0995 2.5351 13.7124 2.75522C13.3253 2.96774 12.9951 3.25996 12.7219 3.63188C12.4562 3.9962 12.2741 4.40987 12.1754 4.87286Z" fill="white"/>
<path vector-effect="non-scaling-stroke" d="M30.855 3.09677L25.1282 8.926H30.855V11.704H21.132V8.926L26.8588 3.09677H21.132V0.318786H30.855V3.09677Z" fill="white"/>
<path vector-effect="non-scaling-stroke" d="M36.9601 12C35.9127 12 34.9563 11.7305 34.091 11.1916C33.2333 10.6528 32.5464 9.92789 32.0303 9.01708C31.5218 8.10626 31.2675 7.10057 31.2675 6C31.2675 5.17267 31.4155 4.39848 31.7115 3.67742C32.0075 2.94877 32.4136 2.3112 32.9297 1.76471C33.4535 1.21063 34.0607 0.777988 34.7514 0.466793C35.4421 0.155598 36.1783 0 36.9601 0C37.8481 0 38.6603 0.189754 39.3965 0.56926C40.1404 0.941177 40.7704 1.45351 41.2865 2.10626C41.8026 2.75901 42.1783 3.50285 42.4136 4.33776C42.6489 5.17268 42.702 6.04554 42.573 6.95636H34.2504C34.3567 7.3814 34.5313 7.76471 34.7741 8.10626C35.017 8.44023 35.3244 8.70968 35.6963 8.91461C36.0683 9.11195 36.4895 9.21442 36.9601 9.22201C37.4459 9.2296 37.8861 9.11575 38.2808 8.88046C38.6831 8.63757 39.017 8.3112 39.2827 7.90133L42.1176 8.56167C41.6546 9.57116 40.9639 10.3985 40.0455 11.0436C39.1271 11.6812 38.0986 12 36.9601 12ZM34.1593 4.87286H39.7609C39.6774 4.41746 39.499 4.00759 39.2258 3.64326C38.9601 3.27135 38.6299 2.97533 38.2352 2.75522C37.8406 2.5351 37.4155 2.42505 36.9601 2.42505C36.5047 2.42505 36.0834 2.5351 35.6963 2.75522C35.3093 2.96774 34.9791 3.25996 34.7058 3.63188C34.4402 3.9962 34.258 4.40987 34.1593 4.87286Z" fill="white"/>
<path vector-effect="non-scaling-stroke" d="M53.9434 4.50854V11.704H51.1655V5.23719C51.1655 4.78937 51.0554 4.3833 50.8353 4.01898C50.6152 3.64706 50.3192 3.35484 49.9472 3.14232C49.5829 2.9222 49.1768 2.81214 48.729 2.81214C48.2812 2.81214 47.8713 2.9222 47.4994 3.14232C47.1351 3.35484 46.8429 3.64706 46.6228 4.01898C46.4102 4.3833 46.304 4.78937 46.304 5.23719V11.704H43.526L43.5146 0.318786H46.2926L46.304 1.33207C46.6911 0.922201 47.1541 0.59962 47.693 0.364326C48.2319 0.121442 48.8125 0 49.4349 0C50.2622 0 51.0174 0.204934 51.7006 0.6148C52.3837 1.01708 52.9264 1.55977 53.3286 2.24288C53.7385 2.91841 53.9434 3.67362 53.9434 4.50854Z" fill="white"/>
<path vector-effect="non-scaling-stroke" d="M61.8369 11.704H58.2506L54.1064 0.3074H57.0665L60.0495 8.50474L63.021 0.3074H65.9812L61.8369 11.704Z" fill="white"/>
<path vector-effect="non-scaling-stroke" d="M71.3185 12C70.2711 12 69.3147 11.7305 68.4494 11.1916C67.5917 10.6528 66.9048 9.92789 66.3887 9.01708C65.8802 8.10626 65.6259 7.10057 65.6259 6C65.6259 5.17267 65.7739 4.39848 66.0699 3.67742C66.3659 2.94877 66.772 2.3112 67.2881 1.76471C67.8119 1.21063 68.4191 0.777988 69.1098 0.466793C69.8005 0.155598 70.5367 0 71.3185 0C72.2065 0 73.0187 0.189754 73.7549 0.56926C74.4988 0.941177 75.1287 1.45351 75.6449 2.10626C76.161 2.75901 76.5367 3.50285 76.772 4.33776C77.0073 5.17268 77.0604 6.04554 76.9314 6.95636H68.6088C68.7151 7.3814 68.8897 7.76471 69.1325 8.10626C69.3754 8.44023 69.6828 8.70968 70.0547 8.91461C70.4267 9.11195 70.8479 9.21442 71.3185 9.22201C71.8043 9.2296 72.2445 9.11575 72.6392 8.88046C73.0415 8.63757 73.3754 8.3112 73.6411 7.90133L76.476 8.56167C76.013 9.57116 75.3223 10.3985 74.4039 11.0436C73.4855 11.6812 72.457 12 71.3185 12ZM68.5177 4.87286H74.1193C74.0358 4.41746 73.8574 4.00759 73.5842 3.64326C73.3185 3.27135 72.9883 2.97533 72.5936 2.75522C72.199 2.5351 71.7739 2.42505 71.3185 2.42505C70.8631 2.42505 70.4418 2.5351 70.0547 2.75522C69.6676 2.96774 69.3375 3.25996 69.0642 3.63188C68.7986 3.9962 68.6164 4.40987 68.5177 4.87286Z" fill="white"/>
</svg>
