<svg preserveAspectRatio="none" width="72" height="88" viewBox="0 0 72 88" fill="none" xmlns="http://www.w3.org/2000/svg">
<path vector-effect="non-scaling-stroke" d="M69.345 80.3879L71.0678 80.0353C61.7489 81.9939 47.0265 67.8923 36.6504 47.8759C26.0393 27.4287 24.0424 7.02061 31.5602 0.988281L30.5813 1.96756L3.3684 30.249C-1.0953 35.2629 0.549225 49.6386 7.75379 63.5443C14.6843 76.9408 24.5122 86.4985 31.2078 86.4594L69.345 80.3879Z" fill="black"/>
<path vector-effect="non-scaling-stroke" d="M31.1694 87.3605C24.0432 87.3605 14.1369 77.7636 6.97148 63.9754C-0.311395 49.8738 -2.15169 35.1455 2.70356 29.7008L29.4074 1.96771C29.8773 1.34097 30.4255 0.792574 31.0128 0.322522C31.3652 0.0483255 31.8742 0.0875013 32.1875 0.400869C32.5007 0.753408 32.5007 1.26263 32.1875 1.576L30.6604 3.182C25.2178 10.4678 27.9195 29.1132 37.4343 47.4844C47.6929 67.3049 62.0237 80.8972 70.7945 79.2521L70.912 79.2129C71.3818 79.1346 71.8125 79.4087 71.93 79.8788C72.0083 80.3488 71.7342 80.7797 71.2644 80.8972C71.2252 80.8972 71.1861 80.8972 71.1469 80.9364L69.5415 81.2498H69.5024L31.3652 87.3213C31.2869 87.3213 31.2086 87.3605 31.1694 87.3605ZM27.1364 6.82491L3.99568 30.8759C-0.311394 35.7331 1.64637 49.913 8.53769 63.192C15.2724 76.1967 24.7871 85.5977 31.1694 85.6369L64.8429 80.2705C55.7589 77.0585 44.5605 64.9546 35.9072 48.307C27.6846 32.4427 24.513 16.3043 27.1364 6.82491Z" fill="black"/>
</svg>
