<svg preserveAspectRatio="none" width="12" height="13" viewBox="0 0 12 13" fill="none" xmlns="http://www.w3.org/2000/svg">
<path vector-effect="non-scaling-stroke" d="M11.4375 6.59375C11.4375 6.74293 11.3782 6.88601 11.2727 6.9915C11.1673 7.09699 11.0242 7.15625 10.875 7.15625H6.5625V11.4688C6.5625 11.6179 6.50324 11.761 6.39775 11.8665C6.29226 11.972 6.14918 12.0312 6 12.0312C5.85082 12.0312 5.70774 11.972 5.60225 11.8665C5.49676 11.761 5.4375 11.6179 5.4375 11.4688V7.15625H1.125C0.975816 7.15625 0.832742 7.09699 0.727252 6.9915C0.621763 6.88601 0.5625 6.74293 0.5625 6.59375C0.5625 6.44457 0.621763 6.30149 0.727252 6.196C0.832742 6.09051 0.975816 6.03125 1.125 6.03125H5.4375V1.71875C5.4375 1.56957 5.49676 1.42649 5.60225 1.321C5.70774 1.21551 5.85082 1.15625 6 1.15625C6.14918 1.15625 6.29226 1.21551 6.39775 1.321C6.50324 1.42649 6.5625 1.56957 6.5625 1.71875V6.03125H10.875C11.0242 6.03125 11.1673 6.09051 11.2727 6.196C11.3782 6.30149 11.4375 6.44457 11.4375 6.59375Z" fill="black"/>
</svg>
