<svg preserveAspectRatio="none" width="24" height="7" viewBox="0 0 24 7" fill="none" xmlns="http://www.w3.org/2000/svg">
<path vector-effect="non-scaling-stroke" d="M4.07227 4.23313H5.45327L4.76277 2.55313L4.07227 4.23313Z" fill="white"/>
<path vector-effect="non-scaling-stroke" d="M14.8875 2.71313V3.48113H17.1195V4.34513H14.8875V5.19313H17.3845L18.5407 3.93713L17.4407 2.71313H14.8875Z" fill="white"/>
<path vector-effect="non-scaling-stroke" d="M23.7275 0.993126H20.0662L19.2312 1.89713L18.4524 0.993126H13.7553H13.1772H10.889L10.2225 2.51313L9.54007 0.993126H6.41675V1.69713L6.0715 0.993126H3.42993L0.868652 6.89713H3.92774L4.32116 5.95313H5.1883L5.5737 6.89713H8.97803V6.18513L9.28314 6.91313H11.0495L11.3546 6.18513V6.91313H13.1371H18.3319L19.191 5.99313L20.01 6.91313H23.607L20.9574 3.97713L23.7275 0.993126ZM13.1532 6.05713H12.1174V2.73713L10.6481 6.05713H9.7408L8.27147 2.73713V6.05713H6.208L5.8226 5.11313H3.70292L3.3095 6.05713H2.20148L4.01606 1.82513H5.52553L7.25178 5.83313V1.82513H8.90577L10.2386 4.69713L11.459 1.82513H13.1532V6.05713ZM21.7684 6.07313H20.4516L19.1991 4.67313L17.9064 6.07313H13.8838V1.83313H17.9706L19.2232 3.22513L20.5158 1.83313H21.8487L19.8735 3.95313L21.7684 6.07313Z" fill="white"/>
</svg>
