<svg preserveAspectRatio="none" width="24" height="24" viewBox="0 0 24 24" fill="none" xmlns="http://www.w3.org/2000/svg">
<path vector-effect="non-scaling-stroke" fill-rule="evenodd" clip-rule="evenodd" d="M9 19H15V17H17V19H17.9932C18.5501 19 19 18.5492 19 17.9931V6.00685C19 5.44996 18.5492 5 17.9932 5H17V7H15V5H9V7H7V5H6.00685C5.44995 5 5 5.45079 5 6.00685V17.9931C5 18.55 5.45078 19 6.00685 19H7V17H9V19ZM9 15V13H7V15H9ZM9 9V11H7V9H9ZM17 11V9H15V11H17ZM17 13V15H15V13H17Z" fill="#2A5885"/>
</svg>
