<svg preserveAspectRatio="none" width="28" height="28" viewBox="0 0 28 28" fill="none" xmlns="http://www.w3.org/2000/svg">
<path vector-effect="non-scaling-stroke" d="M8.225 4.20701L23.9633 13.293C24.0874 13.3647 24.1903 13.4678 24.2619 13.5919C24.3335 13.716 24.3712 13.8567 24.3712 14C24.3712 14.1433 24.3335 14.284 24.2619 14.4081C24.1903 14.5322 24.0874 14.6353 23.9633 14.707L8.225 23.793C8.10087 23.8647 7.96006 23.9024 7.81673 23.9024C7.6734 23.9024 7.53258 23.8647 7.40844 23.7931C7.2843 23.7214 7.1812 23.6184 7.10951 23.4943C7.03781 23.3701 7.00004 23.2293 7 23.086V4.91401C7.00004 4.77067 7.03781 4.62988 7.10951 4.50576C7.1812 4.38165 7.2843 4.27859 7.40844 4.20694C7.53258 4.1353 7.6734 4.09758 7.81673 4.0976C7.96006 4.09761 8.10087 4.13534 8.225 4.20701Z" fill="black"/>
</svg>
