<svg preserveAspectRatio="none" width="17" height="13" viewBox="0 0 17 13" fill="none" xmlns="http://www.w3.org/2000/svg">
<path vector-effect="non-scaling-stroke" d="M1.09375 1.5V10.5H15.0938V1.5H1.09375ZM1.09375 0.5H15.0938C15.359 0.5 15.6133 0.605357 15.8009 0.792893C15.9884 0.98043 16.0938 1.23478 16.0938 1.5V11.5C16.0938 11.7652 15.9884 12.0196 15.8009 12.2071C15.6133 12.3946 15.359 12.5 15.0938 12.5H1.09375C0.828534 12.5 0.57418 12.3946 0.386643 12.2071C0.199107 12.0196 0.09375 11.7652 0.09375 11.5V1.5C0.09375 1.23478 0.199107 0.98043 0.386643 0.792893C0.57418 0.605357 0.828534 0.5 1.09375 0.5Z" fill="white" fill-opacity="0.698"/>
<path vector-effect="non-scaling-stroke" fill-rule="evenodd" clip-rule="evenodd" d="M10.0938 6.5H14.0938V9.5H10.0938V6.5Z" fill="white" fill-opacity="0.698"/>
</svg>
