<svg preserveAspectRatio="none" width="40" height="59" viewBox="0 0 40 59" fill="none" xmlns="http://www.w3.org/2000/svg">
<path vector-effect="non-scaling-stroke" d="M39.3751 21.2613C38.9835 30.7799 22.8907 53.029 19.0535 58.2387C18.6619 58.7871 17.8397 58.748 17.4873 58.1604C15.0596 54.2433 7.03283 41.0818 2.84322 30.4273C1.15955 26.1969 0.102351 22.3581 0.219817 19.6553C0.650525 8.84411 9.77369 0.422345 20.5805 0.853226C31.3874 1.36245 39.8058 10.4501 39.3751 21.2613Z" fill="black"/>
<path vector-effect="non-scaling-stroke" d="M26.1301 26.8267C29.6317 23.3236 29.6317 17.6441 26.1301 14.1411C22.6285 10.6381 16.9513 10.6381 13.4496 14.1411C9.94801 17.6441 9.94801 23.3237 13.4496 26.8267C16.9513 30.3297 22.6285 30.3297 26.1301 26.8267Z" fill="#B9FF66"/>
</svg>
