<svg preserveAspectRatio="none" width="104" height="35" viewBox="0 0 104 35" fill="none" xmlns="http://www.w3.org/2000/svg">
<g clip-path="url(#clip0_4_7611)">
<path vector-effect="non-scaling-stroke" d="M24.0887 32.4249L30.2526 32.5526C28.1283 31.8183 26.0683 30.9244 24.0887 29.8709V32.4249ZM33.3748 31.5789V32.4249L30.2526 32.5526C36.1268 34.5479 41.5022 34.8193 45.4934 33.7019C42.2908 33.7338 38.1225 33.2869 33.3748 31.5789ZM99.1822 13.1901C101.741 13.1901 103.833 11.131 103.833 8.577C103.833 6.02301 101.757 4.6662 99.1822 4.6662C96.6232 4.6662 94.5311 6.03897 94.5311 8.577C94.5311 11.115 96.6072 13.1901 99.1822 13.1901ZM94.515 32.4249H103.833V14.7864H94.515V32.4249ZM82.6539 32.4249H91.9722V1.25024L82.6539 5.60799V32.4249ZM77.6648 13.3657C74.7357 10.4606 69.5536 10.6362 69.5536 10.6362C69.5536 10.6362 64.3553 10.4606 61.4423 13.3657C58.5133 16.2709 58.7386 18.777 58.7386 21.762C58.7386 24.747 58.5133 27.2371 61.4423 30.1423C64.3714 33.0474 69.5536 32.8718 69.5536 32.8718C69.5536 32.8718 74.7518 33.0474 77.6648 30.1423C80.5939 27.2371 80.3686 24.747 80.3686 21.762C80.3525 18.761 80.5778 16.2549 77.6648 13.3657ZM71.2595 24.8427C71.2595 25.4174 70.9698 26.838 69.5375 26.838C68.1051 26.838 67.8154 25.4174 67.8154 24.8427V18.3939C67.8154 17.0052 68.9903 16.654 69.5375 16.654C70.0847 16.654 71.2595 16.9892 71.2595 18.3939V24.8427ZM54.1679 13.3657C51.2389 10.4606 46.0567 10.6362 46.0567 10.6362C46.0567 10.6362 40.8745 10.4606 37.9454 13.3657C37.6397 13.669 37.35 13.9883 37.0925 14.3235C30.9447 9.5986 25.4245 6.90094 20.6608 4.57043V1.2662L17.0397 2.95822C8.28466 -0.56948 2.71622 0.053056 1.38044 2.97418C1.38044 2.97418 -2.6269 8.20986 11.3264 20.6606V32.4249H20.6447V27.8596C19.5986 27.1892 18.5525 26.4709 17.5225 25.6887C15.1406 23.9009 13.1128 22.2409 11.3425 20.6765V15.7282C13.4508 18.0747 16.2511 20.7404 19.9365 23.7573L20.6608 24.3319V19.5751C20.6608 18.4737 20.9343 16.67 22.3989 16.67C23.8634 16.67 24.1048 17.7714 24.1048 19.0643V26.838C27.0017 28.7855 30.1078 30.3657 33.3909 31.5629V16.5742C33.3909 13.5892 31.2343 10.6042 26.8568 10.6042C24.314 10.5883 21.9483 11.9132 20.6608 14.1V5.4324C27.404 8.76855 34.1634 12.8549 36.7384 14.7385C35.0968 17.069 35.2417 19.2239 35.2417 21.7141C35.2417 24.6991 35.0164 27.1892 37.9454 30.0944C40.8745 32.9995 46.0567 32.824 46.0567 32.824C46.0567 32.824 51.255 32.9995 54.1679 30.0944C57.097 27.1892 56.8556 24.6991 56.8556 21.7141C56.8556 18.761 57.097 16.2549 54.1679 13.3657ZM11.3264 5.60799V15.7122C3.48872 7.01268 5.06591 3.58075 5.66138 3.08592C7.83404 1.2662 11.6965 1.80893 16.0258 3.42113L11.3264 5.60799ZM47.7787 24.8427C47.7787 25.4174 47.489 26.838 46.0567 26.838C44.6243 26.838 44.3347 25.4174 44.3347 24.8427V18.3939C44.3347 17.0052 45.5095 16.654 46.0567 16.654C46.6039 16.654 47.7787 16.9892 47.7787 18.3939V24.8427Z" fill="#737373"/>
</g>
<defs>
<clipPath id="clip0_4_7611">
<rect vector-effect="non-scaling-stroke" width="103" height="34" fill="white" transform="translate(0.833313 0.5)"/>
</clipPath>
</defs>
</svg>
