<svg preserveAspectRatio="none" width="70" height="16" viewBox="0 0 70 16" fill="none" xmlns="http://www.w3.org/2000/svg">
<path vector-effect="non-scaling-stroke" d="M0.242065 0.80023C0.242065 0.36023 0.474424 0.110229 0.918933 0.110229H4.41439C6.52581 0.110229 8.04119 1.19023 8.04119 3.10023C8.04119 4.18023 7.51586 5.11023 6.62684 5.58023V5.61023C7.89975 5.99023 8.5059 7.16023 8.5059 8.34023C8.5059 10.6602 6.64704 11.7002 4.4649 11.7002H0.918933C0.474424 11.7002 0.242065 11.4702 0.242065 11.0102V0.80023ZM4.42449 4.85023C5.34382 4.85023 5.85905 4.20023 5.85905 3.36023C5.85905 2.53023 5.36402 1.92023 4.37398 1.92023H2.34338V4.84023H4.42449V4.85023ZM4.62654 9.89023C5.71761 9.89023 6.32377 9.19023 6.32377 8.21023C6.32377 7.25023 5.69741 6.55023 4.62654 6.55023H2.35348V9.90023H4.62654V9.89023Z" fill="#F27321"/>
<path vector-effect="non-scaling-stroke" d="M10.1526 4.07018C10.1526 3.63018 10.3849 3.38018 10.8295 3.38018H11.476C11.9205 3.38018 12.1731 3.62018 12.1731 4.07018V4.85018C12.1731 5.16018 12.1226 5.42018 12.1226 5.42018H12.1529C12.4863 4.42018 13.4056 3.31018 14.5977 3.31018C15.0624 3.31018 15.224 3.54018 15.224 4.00018V4.64018C15.224 5.08018 14.9614 5.33018 14.5169 5.33018C12.9813 5.33018 12.2438 6.83018 12.2438 8.35018V11.0202C12.2438 11.4802 12.0114 11.7102 11.5669 11.7102H10.8396C10.395 11.7102 10.1627 11.4802 10.1627 11.0202V4.07018H10.1526Z" fill="#F27321"/>
<path vector-effect="non-scaling-stroke" d="M16.3353 1.29023V0.80023C16.3353 0.36023 16.5677 0.110229 17.0122 0.110229H17.7396C18.1841 0.110229 18.4366 0.35023 18.4366 0.80023V1.29023C18.4366 1.73023 18.1942 1.96023 17.7396 1.96023H17.0122C16.5677 1.96023 16.3353 1.73023 16.3353 1.29023ZM16.3353 4.07023C16.3353 3.63023 16.5677 3.38023 17.0122 3.38023H17.7396C18.1841 3.38023 18.4164 3.62023 18.4164 4.07023V11.0202C18.4164 11.4802 18.1841 11.7102 17.7396 11.7102H17.0122C16.5677 11.7102 16.3353 11.4802 16.3353 11.0202V4.07023Z" fill="#F27321"/>
<path vector-effect="non-scaling-stroke" d="M24.5284 3.19019C25.8822 3.19019 26.7914 3.68018 27.2864 4.02018C27.6299 4.25018 27.6501 4.59018 27.4177 4.95018L27.2056 5.28019C26.953 5.66019 26.6803 5.66018 26.2863 5.46018C25.9428 5.23018 25.377 4.95018 24.6497 4.95018C23.104 4.95018 22.0937 6.11019 22.0937 7.53019C22.0937 8.93019 23.104 10.1402 24.7204 10.1402C25.5488 10.1402 26.2054 9.78018 26.5994 9.50018C27.0136 9.27018 27.3268 9.32018 27.539 9.71018L27.7006 10.0202C27.9027 10.3802 27.8522 10.7102 27.5188 10.9302C27.0035 11.3102 25.9832 11.8902 24.5385 11.8902C21.7503 11.8902 19.9722 9.95019 19.9722 7.53019C19.9621 5.18019 21.7401 3.19019 24.5284 3.19019Z" fill="#F27321"/>
<path vector-effect="non-scaling-stroke" d="M33.2166 3.19019C35.7725 3.19019 37.8536 5.00018 37.8536 7.55018C37.8536 10.1102 35.7725 11.9102 33.2166 11.9102C30.6606 11.9102 28.5997 10.1102 28.5997 7.55018C28.5997 5.00018 30.6606 3.19019 33.2166 3.19019ZM33.2166 10.1402C34.5804 10.1402 35.722 9.10019 35.722 7.54019C35.722 6.01019 34.5804 4.94019 33.2166 4.94019C31.8527 4.94019 30.7314 6.00019 30.7314 7.54019C30.7314 9.09019 31.8527 10.1402 33.2166 10.1402Z" fill="#F27321"/>
<path vector-effect="non-scaling-stroke" d="M39.369 0.80023C39.369 0.36023 39.6014 0.110229 40.0459 0.110229H40.7733C41.2178 0.110229 41.4501 0.35023 41.4501 0.80023V8.94023C41.4501 9.76023 41.7936 9.90023 42.1068 9.94023C42.3998 9.97023 42.622 10.1502 42.622 10.5302V11.0902C42.622 11.5102 42.42 11.7902 41.925 11.7902C40.8036 11.7902 39.369 11.5002 39.369 9.11023V0.80023Z" fill="#F27321"/>
<path vector-effect="non-scaling-stroke" d="M48.2592 6.56029H48.6027V6.36029C48.6027 5.27029 47.8955 4.89029 47.0368 4.89029C46.3296 4.89029 45.6831 5.15029 45.2891 5.36029C44.8749 5.54029 44.5617 5.47029 44.3697 5.08029L44.2081 4.77029C44.0061 4.39029 44.0768 4.07029 44.4708 3.86029C45.0163 3.58029 45.976 3.17029 47.2287 3.17029C49.4008 3.17029 50.704 4.38029 50.704 6.48029V11.0203C50.704 11.4803 50.4716 11.7103 50.0069 11.7103H49.4513C49.0068 11.7103 48.7744 11.4803 48.7744 11.0203V10.6903C48.7744 10.4603 48.8047 10.3303 48.8047 10.3303H48.7744C48.7744 10.3303 47.9864 11.9003 46.1377 11.9003C44.6021 11.9003 43.3494 10.9203 43.3494 9.40029C43.3393 6.97029 46.37 6.56029 48.2592 6.56029ZM46.6832 10.3203C47.8551 10.3203 48.6128 9.14029 48.6128 8.13029V7.82029H48.2693C47.2186 7.82029 45.4204 7.98029 45.4204 9.22029C45.4204 9.78029 45.8447 10.3203 46.6832 10.3203Z" fill="#F27321"/>
<path vector-effect="non-scaling-stroke" d="M54.2096 13.0602C54.6036 13.2102 55.1289 13.3702 55.9068 13.3702C57.1898 13.3702 58.2809 12.8302 58.2809 11.3502V10.7302C58.2809 10.5302 58.3112 10.3102 58.3112 10.3102H58.2809C57.8161 11.0902 57.0888 11.5502 55.9674 11.5502C53.5125 11.5502 52.1588 9.62018 52.1588 7.32018C52.1588 5.05018 53.4418 3.19019 55.9472 3.19019C57.9071 3.19019 58.4324 4.46018 58.4324 4.46018H58.4627C58.4627 4.46018 58.4425 4.38018 58.4425 4.25018V3.94019C58.4425 3.63019 58.6749 3.39019 59.1194 3.39019H59.675C60.1195 3.39019 60.3519 3.63018 60.3519 4.08018V11.2102C60.3519 14.0702 58.0788 15.1402 55.9977 15.1402C55.0582 15.1402 54.1186 14.9402 53.5428 14.7002C53.1185 14.5202 52.9973 14.2402 53.1791 13.8202L53.3104 13.4402C53.5125 13.0302 53.7651 12.9102 54.2096 13.0602ZM58.3314 7.36018C58.3314 5.45018 57.3716 4.94019 56.2907 4.94019C54.9875 4.94019 54.2803 5.85018 54.2803 7.23018C54.2803 8.73019 55.038 9.79019 56.3917 9.79019C57.3716 9.80019 58.3314 9.22018 58.3314 7.36018Z" fill="#F27321"/>
<path vector-effect="non-scaling-stroke" d="M66.2113 3.19019C68.6056 3.19019 69.9391 4.87018 69.9391 7.16018C69.9391 7.52018 69.6259 7.86018 69.2117 7.86018H64.0797C64.211 9.36018 65.3324 10.1502 66.6053 10.1502C67.3832 10.1502 68.0196 9.86018 68.4237 9.61018C68.8379 9.41018 69.1309 9.46019 69.3431 9.84019L69.5451 10.1702C69.7472 10.5502 69.6764 10.8702 69.3128 11.0802C68.7672 11.4202 67.7772 11.9102 66.4638 11.9102C63.6756 11.9102 61.948 9.92018 61.948 7.55018C61.9379 4.98018 63.6857 3.19019 66.2113 3.19019ZM67.858 6.60018C67.8277 5.44018 67.1205 4.76018 66.1608 4.76018C65.0899 4.76018 64.3322 5.49018 64.1302 6.60018H67.858Z" fill="#F27321"/>
</svg>
