<svg preserveAspectRatio="none" width="131" height="40" viewBox="0 0 131 40" fill="none" xmlns="http://www.w3.org/2000/svg">
<path vector-effect="non-scaling-stroke" d="M0.924072 20.1155C0.924072 30.7434 9.70361 39.5229 20.3315 39.5229C30.9593 39.5229 39.7389 30.7434 39.7389 20.1155C39.7389 9.48763 30.9593 0.823608 20.3315 0.823608C9.70361 0.823608 0.924072 9.48763 0.924072 20.1155ZM27.4937 29.1261C22.9884 26.3536 17.2124 25.6605 10.5123 27.1622C8.89497 27.3933 8.66393 25.0829 10.0502 24.8518C17.4435 23.119 23.6816 23.9277 28.7645 27.0467C30.0352 27.8554 28.7645 29.8192 27.4937 29.1261ZM29.4576 23.9277C24.2592 20.6931 16.2883 19.7689 10.1657 21.6173C8.20185 22.1949 7.50873 19.1913 9.35705 18.7293C16.4038 16.6499 25.0678 17.6896 31.0749 21.3862C32.6921 22.4259 31.0749 24.9673 29.4576 23.9277ZM9.24153 15.7257C7.27769 16.4188 6.00696 13.0688 8.20185 12.2601C15.0175 10.1808 26.5696 10.5273 33.7318 14.8016C35.6957 15.8412 33.8474 19.0758 31.768 17.9206C25.5299 14.224 15.1331 13.8774 9.24153 15.7257ZM53.0237 26.2381C51.0599 26.2381 49.2115 25.5449 47.5943 23.9277C47.4787 23.9277 47.4787 24.0432 47.4787 24.0432L45.6304 26.2381C45.5149 26.3536 45.5149 26.4691 45.6304 26.5846C47.7098 28.433 50.2512 29.3571 53.0237 29.3571C56.9514 29.3571 59.3773 27.1622 59.3773 23.9277C59.3773 21.1552 57.6445 19.6534 53.6013 18.6137C50.2512 17.8051 49.6736 17.2275 49.6736 16.0723C49.6736 14.9171 50.8288 14.224 52.3306 14.224C53.8324 14.224 55.2186 14.8016 56.8359 15.9568C56.8359 15.9568 56.9514 16.0723 57.0669 16.0723C57.1824 16.0723 57.1824 15.9568 57.1824 15.9568L58.7997 13.6464C58.9153 13.5308 58.9153 13.5308 58.7997 13.4153C56.9514 11.9136 54.7565 11.1049 52.3306 11.1049C48.7495 11.1049 46.208 13.2998 46.208 16.4188C46.208 19.7689 48.5184 20.8086 52.2151 21.7328C55.4496 22.4259 55.9117 23.119 55.9117 24.2742C55.9117 25.5449 54.7565 26.2381 53.0237 26.2381ZM63.9981 17.343V15.8412C63.9981 15.7257 63.8826 15.6102 63.7671 15.6102H60.7636C60.6481 15.6102 60.5325 15.7257 60.5325 15.8412V32.8227C60.5325 32.9382 60.6481 33.0538 60.7636 33.0538H63.7671C63.8826 33.0538 63.9981 32.9382 63.9981 32.8227V27.5088C65.1533 28.7795 66.4241 29.3571 68.1569 29.3571C71.2759 29.3571 74.395 26.9312 74.395 22.3104C74.395 17.6896 71.2759 15.3792 68.1569 15.3792C66.4241 15.3792 65.1533 15.9568 63.9981 17.343ZM67.4638 26.3536C65.3844 26.3536 63.8826 24.6208 63.8826 22.3104C63.8826 20 65.3844 18.3827 67.4638 18.3827C69.5431 18.3827 70.9294 20 70.9294 22.3104C70.9294 24.6208 69.5431 26.3536 67.4638 26.3536ZM75.3191 22.4259C75.3191 26.3536 78.4382 29.3571 82.4814 29.3571C86.5246 29.3571 89.6436 26.2381 89.6436 22.3104C89.6436 18.3827 86.6401 15.3792 82.5969 15.3792C78.5537 15.3792 75.3191 18.4982 75.3191 22.4259ZM78.7847 22.3104C78.7847 20 80.2865 18.3827 82.4814 18.3827C84.6763 18.3827 86.2936 20.1155 86.2936 22.4259C86.2936 24.7363 84.7918 26.3536 82.5969 26.3536C80.402 26.3536 78.7847 24.6208 78.7847 22.3104ZM94.9576 15.6102V12.2601C94.9576 12.1446 94.9576 12.0291 94.8421 12.0291H91.8385C91.723 12.0291 91.6075 12.1446 91.6075 12.2601V15.6102H90.1057C89.9902 15.6102 89.8747 15.7257 89.8747 15.8412V18.3827C89.8747 18.4982 89.9902 18.6137 90.1057 18.6137H91.6075V25.3139C91.6075 27.9709 92.8782 29.3571 95.5352 29.3571C96.5749 29.3571 97.6145 29.1261 98.4232 28.664C98.5387 28.664 98.5387 28.5485 98.5387 28.433V26.007C98.5387 25.8915 98.5387 25.776 98.4232 25.776H98.1921C97.6145 26.1226 96.9214 26.2381 96.3438 26.2381C95.4197 26.2381 94.9576 25.776 94.9576 24.8518V18.6137H98.4232C98.5387 18.6137 98.6542 18.4982 98.6542 18.3827V15.8412C98.6542 15.7257 98.5387 15.6102 98.4232 15.6102H94.9576ZM109.86 15.2636C109.86 13.9929 110.322 13.5308 111.361 13.5308C111.939 13.5308 112.517 13.5308 113.094 13.7619H113.21C113.21 13.7619 113.325 13.6464 113.325 13.5308V11.1049C113.325 10.9894 113.325 10.8739 113.21 10.8739C112.632 10.6428 111.824 10.5273 110.668 10.5273C107.896 10.5273 106.51 12.1446 106.51 15.0326V15.6102H105.008C104.892 15.6102 104.777 15.7257 104.777 15.8412V18.3827C104.777 18.4982 104.892 18.6137 105.008 18.6137H106.51V28.895C106.51 29.0106 106.625 29.1261 106.741 29.1261H109.744C109.86 29.1261 109.86 29.0106 109.86 28.895V18.6137H112.748L117.022 28.895C116.56 29.9347 116.098 30.1658 115.405 30.1658C114.827 30.1658 114.249 30.0502 113.672 29.7037H113.556L113.441 29.8192L112.401 32.0141C112.401 32.1296 112.401 32.3606 112.517 32.3606C113.556 32.9382 114.481 33.1693 115.636 33.1693C117.831 33.1693 119.101 32.1296 120.141 29.3571L125.339 15.9568V15.7257C125.339 15.6102 125.224 15.6102 125.108 15.6102H121.989C121.874 15.6102 121.874 15.7257 121.874 15.8412L118.639 24.8518L115.174 15.8412C115.174 15.7257 115.058 15.6102 114.943 15.6102H109.86V15.2636ZM100.272 15.6102C100.156 15.6102 100.04 15.7257 100.04 15.8412V28.895C100.04 29.0106 100.156 29.1261 100.272 29.1261H103.275C103.391 29.1261 103.391 29.0106 103.391 28.895V15.8412C103.391 15.7257 103.391 15.6102 103.275 15.6102H100.272ZM99.5784 11.798C99.5784 12.9532 100.618 13.9929 101.773 13.9929C102.928 13.9929 103.853 12.9532 103.853 11.798C103.853 10.6428 102.928 9.71867 101.773 9.71867C100.618 9.71867 99.5784 10.6428 99.5784 11.798ZM127.881 19.7689C129.036 19.7689 130.076 18.8448 130.076 17.6896C130.076 16.5344 129.036 15.6102 127.881 15.6102C126.726 15.6102 125.801 16.5344 125.801 17.6896C125.801 18.8448 126.726 19.7689 127.881 19.7689ZM127.881 15.8412C128.921 15.8412 129.845 16.6499 129.845 17.6896C129.845 18.7293 128.921 19.5379 127.881 19.5379C126.841 19.5379 126.033 18.7293 126.033 17.6896C126.033 16.6499 126.841 15.8412 127.881 15.8412ZM128.343 17.9206C128.689 17.8051 128.921 17.574 128.921 17.2275C128.921 16.7654 128.458 16.5344 127.996 16.5344H127.072V18.7293H127.534V18.0361H127.996L128.458 18.7293H129.036L128.343 17.9206ZM127.996 16.8809C128.227 16.8809 128.458 16.9964 128.458 17.2275C128.458 17.4585 128.227 17.574 127.996 17.574H127.534V16.8809H127.996Z" fill="white"/>
</svg>
