<svg preserveAspectRatio="none" width="24" height="25" viewBox="0 0 24 25" fill="none" xmlns="http://www.w3.org/2000/svg">
<path vector-effect="non-scaling-stroke" d="M3 22.5938C2.73478 22.5938 2.48043 22.4884 2.29289 22.3009C2.10536 22.1133 2 21.859 2 21.5938V3.59375C2 3.32853 2.10536 3.07418 2.29289 2.88664C2.48043 2.69911 2.73478 2.59375 3 2.59375C3.26522 2.59375 3.51957 2.69911 3.70711 2.88664C3.89464 3.07418 4 3.32853 4 3.59375V21.5938C4 21.859 3.89464 22.1133 3.70711 22.3009C3.51957 22.4884 3.26522 22.5938 3 22.5938ZM15.5 2.72775C15.348 2.63998 15.1755 2.59378 15 2.59378C14.8245 2.59377 14.652 2.63998 14.5 2.72774C14.348 2.81551 14.2218 2.94174 14.134 3.09376C14.0462 3.24577 14 3.41822 14 3.59375V21.5938C14 21.859 14.1054 22.1133 14.2929 22.3009C14.4804 22.4884 14.7348 22.5938 15 22.5938H21C21.2652 22.5938 21.5196 22.4884 21.7071 22.3009C21.8946 22.1133 22 21.859 22 21.5938V7.05775C22 6.88222 21.9538 6.70978 21.866 6.55776C21.7782 6.40575 21.652 6.27952 21.5 6.19175L15.5 2.72775ZM9 2.59375C8.73478 2.59375 8.48043 2.69911 8.29289 2.88664C8.10536 3.07418 8 3.32853 8 3.59375V21.5938C8 21.859 8.10536 22.1133 8.29289 22.3009C8.48043 22.4884 8.73478 22.5938 9 22.5938C9.26522 22.5938 9.51957 22.4884 9.70711 22.3009C9.89464 22.1133 10 21.859 10 21.5938V3.59375C10 3.32853 9.89464 3.07418 9.70711 2.88664C9.51957 2.69911 9.26522 2.59375 9 2.59375Z" fill="#B3B3B3"/>
</svg>
