<svg preserveAspectRatio="none" width="24" height="25" viewBox="0 0 24 25" fill="none" xmlns="http://www.w3.org/2000/svg">
<path vector-effect="non-scaling-stroke" d="M12 0.5C18.63 0.5 24 5.87 24 12.5C23.9994 15.0143 23.2103 17.4651 21.7438 19.5074C20.2773 21.5498 18.2072 23.0808 15.825 23.885C15.225 24.005 15 23.63 15 23.315C15 22.91 15.015 21.62 15.015 20.015C15.015 18.89 14.64 18.17 14.205 17.795C16.875 17.495 19.68 16.475 19.68 11.87C19.68 10.55 19.215 9.485 18.45 8.645C18.57 8.345 18.99 7.115 18.33 5.465C18.33 5.465 17.325 5.135 15.03 6.695C14.07 6.425 13.05 6.29 12.03 6.29C11.01 6.29 9.99 6.425 9.03 6.695C6.735 5.15 5.73 5.465 5.73 5.465C5.07 7.115 5.49 8.345 5.61 8.645C4.845 9.485 4.38 10.565 4.38 11.87C4.38 16.46 7.17 17.495 9.84 17.795C9.495 18.095 9.18 18.62 9.075 19.4C8.385 19.715 6.66 20.225 5.58 18.41C5.355 18.05 4.68 17.165 3.735 17.18C2.73 17.195 3.33 17.75 3.75 17.975C4.26 18.26 4.845 19.325 4.98 19.67C5.22 20.345 6 21.635 9.015 21.08C9.015 22.085 9.03 23.03 9.03 23.315C9.03 23.63 8.805 23.99 8.205 23.885C5.81496 23.0895 3.7361 21.5615 2.26334 19.518C0.79057 17.4744 -0.00132072 15.019 1.65347e-06 12.5C1.65347e-06 5.87 5.37 0.5 12 0.5Z" fill="#6E7681"/>
</svg>
