<svg preserveAspectRatio="none" width="16" height="17" viewBox="0 0 16 17" fill="none" xmlns="http://www.w3.org/2000/svg">
<path vector-effect="non-scaling-stroke" d="M0 4.95312C0 3.95856 0.395088 3.00474 1.09835 2.30147C1.80161 1.59821 2.75544 1.20313 3.75 1.20312H12.25C13.2446 1.20313 14.1984 1.59821 14.9017 2.30147C15.6049 3.00474 16 3.95856 16 4.95312V9.95312C16 10.9477 15.6049 11.9015 14.9017 12.6048C14.1984 13.308 13.2446 13.7031 12.25 13.7031H9.81L10.828 14.7211C10.9017 14.7898 10.9608 14.8726 11.0018 14.9646C11.0428 15.0566 11.0648 15.1559 11.0666 15.2566C11.0684 15.3573 11.0498 15.4573 11.0121 15.5507C10.9744 15.6441 10.9183 15.7289 10.847 15.8002C10.7758 15.8714 10.691 15.9275 10.5976 15.9652C10.5042 16.003 10.4042 16.0215 10.3035 16.0197C10.2028 16.0179 10.1035 15.9959 10.0115 15.9549C9.91946 15.9139 9.83666 15.8548 9.768 15.7811L6.939 12.9531L9.768 10.1251C9.83666 10.0514 9.91946 9.99234 10.0115 9.95134C10.1035 9.91035 10.2028 9.88831 10.3035 9.88653C10.4042 9.88476 10.5042 9.90328 10.5976 9.941C10.691 9.97872 10.7758 10.0349 10.847 10.1061C10.9183 10.1773 10.9744 10.2621 11.0121 10.3555C11.0498 10.4489 11.0684 10.5489 11.0666 10.6496C11.0648 10.7504 11.0428 10.8497 11.0018 10.9417C10.9608 11.0337 10.9017 11.1165 10.828 11.1851L9.811 12.2031H12.25C12.8467 12.2031 13.419 11.9661 13.841 11.5441C14.2629 11.1222 14.5 10.5499 14.5 9.95312V4.95312C14.5 4.35639 14.2629 3.78409 13.841 3.36213C13.419 2.94018 12.8467 2.70312 12.25 2.70312H3.75C3.15326 2.70312 2.58097 2.94018 2.15901 3.36213C1.73705 3.78409 1.5 4.35639 1.5 4.95312V9.95312C1.5 10.5499 1.73705 11.1222 2.15901 11.5441C2.58097 11.9661 3.15326 12.2031 3.75 12.2031H5V13.7031H3.75C2.75544 13.7031 1.80161 13.308 1.09835 12.6048C0.395088 11.9015 0 10.9477 0 9.95312L0 4.95312Z" fill="white" fill-opacity="0.698"/>
</svg>
