<svg preserveAspectRatio="none" width="32" height="32" viewBox="0 0 32 32" fill="none" xmlns="http://www.w3.org/2000/svg">
<path vector-effect="non-scaling-stroke" fill-rule="evenodd" clip-rule="evenodd" d="M25.7084 5.17395C25.8225 5.14241 25.9345 5.11173 26.0447 5.08155C27.0071 4.81792 27.8285 4.5929 28.699 4.17263C28.9351 4.04483 29.2111 3.98726 29.4951 4.02197C30.1639 4.10373 30.6667 4.67164 30.6667 5.34545V5.34679C30.6667 5.4693 30.6499 5.58924 30.618 5.70386C30.3613 6.70534 29.6846 8.08143 29.1544 9.12207C29.0174 9.39082 28.8915 9.6345 28.776 9.85791C28.6441 10.1132 28.5258 10.3421 28.4204 10.5517C28.3427 10.7063 28.2838 10.8273 28.2426 10.9172C28.2322 12.653 27.9934 14.3802 27.5321 16.0543L27.5303 16.0607C25.8936 21.887 21.6085 25.7951 16.4173 27.3032L16.417 27.3033C11.8357 28.6332 6.66401 27.6974 2.02857 25.1709C1.48484 24.8745 1.21671 24.2428 1.38127 23.6458C1.54582 23.0488 2.09974 22.6437 2.71852 22.6678C4.59321 22.7408 6.25866 22.27 7.93109 21.4116C6.20008 20.3419 4.95677 19.0953 4.10432 17.7484C2.92814 15.8901 2.55858 13.94 2.57573 12.2035C2.59277 10.4772 2.99103 8.94017 3.37449 7.84796C3.56752 7.29815 3.76036 6.85102 3.9074 6.5368C3.98104 6.37944 4.04352 6.25469 4.08928 6.1663C4.11217 6.12208 4.13091 6.0869 4.1448 6.06121L4.16193 6.02983L4.16761 6.01957L4.16971 6.01582L4.17056 6.01429C4.17094 6.01363 4.17129 6.013 5.33333 6.66679L4.17129 6.013C4.39478 5.61577 4.80569 5.36022 5.2608 5.33543C5.7159 5.31063 6.15214 5.52003 6.41746 5.89062C8.39847 8.65765 11.3259 10.3511 14.6663 10.6302C14.6509 7.8232 16.4168 5.41239 19.0258 4.43546C21.1914 3.62453 23.7547 3.53056 25.7084 5.17395ZM5.73386 9.20846C5.47424 10.0566 5.25337 11.1055 5.24227 12.2298C5.22908 13.5655 5.51102 14.9847 6.35759 16.3223C7.20224 17.6568 8.67161 19.0092 11.1995 20.1112C11.6468 20.3062 11.9518 20.7299 11.9948 21.2159C12.0378 21.7019 11.8119 22.1726 11.4059 22.4431C10.1369 23.2884 8.82858 24.0273 7.42561 24.5475C10.298 25.3866 13.1455 25.4762 15.6734 24.7424M5.73386 9.20846C8.41852 11.9308 12.0495 13.4349 16.0341 13.333C16.757 13.3145 17.3333 12.7232 17.3333 12.0001V10.6668H17.3335L17.3332 10.6485C17.3107 9.00694 18.3282 7.54416 19.9609 6.93279C21.8151 6.23849 23.3523 6.44169 24.3354 7.55109C24.6785 7.93824 25.2146 8.09201 25.7107 7.9456C25.9883 7.86367 26.2807 7.7839 26.5838 7.70118C26.6988 7.66981 26.8153 7.63801 26.9331 7.60551C26.8821 7.70717 26.8304 7.80928 26.7783 7.9115C26.66 8.14375 26.5366 8.38265 26.4192 8.61009C26.2769 8.88548 26.1434 9.14409 26.038 9.35376C25.9385 9.55163 25.8452 9.74267 25.7747 9.90341C25.7401 9.98251 25.7015 10.0755 25.6693 10.1702C25.6687 10.1718 25.6681 10.1737 25.6674 10.1758C25.6483 10.2314 25.5746 10.4462 25.576 10.7035C25.5847 12.2708 25.3781 13.8319 24.962 15.343C23.5874 20.2321 20.0279 23.4773 15.6736 24.7423" fill="#CECECE"/>
</svg>
