<svg preserveAspectRatio="none" width="17" height="16" viewBox="0 0 17 16" fill="none" xmlns="http://www.w3.org/2000/svg">
<path vector-effect="non-scaling-stroke" d="M6.82659 0.370965C7.66574 0.0018197 8.59944 -0.0952256 9.49658 0.0934559C10.3937 0.282137 11.2092 0.747069 11.8286 1.42296C12.2496 1.88196 12.5416 2.41496 12.7326 2.97696C12.8756 3.39796 12.9956 4.14996 12.9526 4.87096C12.8746 6.19296 12.3146 7.27896 11.5536 8.18696L11.4266 8.33896C11.3565 8.42293 11.3057 8.52119 11.2776 8.62687C11.2496 8.73255 11.2449 8.84309 11.2641 8.95074C11.2832 9.0584 11.3257 9.16056 11.3885 9.25008C11.4513 9.3396 11.5329 9.4143 11.6276 9.46896L13.8366 10.744C14.5587 11.1609 15.1584 11.7606 15.5753 12.4827C15.9922 13.2049 16.2117 14.0241 16.2116 14.858V16H0.975586V14.857C0.975695 14.0233 1.19523 13.2043 1.61212 12.4823C2.02901 11.7603 2.62859 11.1608 3.35059 10.744L5.55959 9.46896C5.65429 9.4143 5.73589 9.3396 5.79868 9.25008C5.86147 9.16056 5.90393 9.0584 5.92308 8.95074C5.94222 8.84309 5.9376 8.73255 5.90953 8.62687C5.88147 8.52119 5.83063 8.42293 5.76059 8.33896L5.63459 8.18696C4.87359 7.27896 4.31259 6.19296 4.23459 4.87096C4.19159 4.14996 4.31159 3.39796 4.45459 2.97696C4.64431 2.40162 4.95223 1.8723 5.35859 1.42296C5.76959 0.974965 6.26859 0.615965 6.82659 0.370965ZM8.59359 1.49996C8.19298 1.49987 7.79673 1.58313 7.43004 1.74444C7.06334 1.90575 6.73422 2.14159 6.46359 2.43696C6.19849 2.73292 5.9982 3.08104 5.87559 3.45896C5.79859 3.68496 5.70059 4.24196 5.73259 4.78196C5.78659 5.70296 6.17259 6.49396 6.78359 7.22396L6.78559 7.22496L6.91259 7.37796C7.12272 7.62986 7.27523 7.92465 7.35943 8.24169C7.44364 8.55873 7.4575 8.89034 7.40006 9.2133C7.34261 9.53626 7.21524 9.84276 7.02687 10.1113C6.8385 10.3799 6.59369 10.604 6.30959 10.768L4.10059 12.043C3.6591 12.2979 3.28378 12.6532 3.00496 13.08C2.72615 13.5068 2.55165 13.9932 2.49559 14.5H14.6916C14.6355 13.9932 14.461 13.5068 14.1822 13.08C13.9034 12.6532 13.5281 12.2979 13.0866 12.043L10.8776 10.768C10.5935 10.604 10.3487 10.3799 10.1603 10.1113C9.97193 9.84276 9.84456 9.53626 9.78712 9.2133C9.72967 8.89034 9.74353 8.55873 9.82774 8.24169C9.91195 7.92465 10.0645 7.62986 10.2746 7.37796L10.4016 7.22496L10.4036 7.22396C11.0156 6.49396 11.4006 5.70396 11.4556 4.78196C11.4876 4.24196 11.3886 3.68496 11.3116 3.45896C11.189 3.08104 10.9887 2.73292 10.7236 2.43696C10.453 2.14159 10.1238 1.90575 9.75713 1.74444C9.39044 1.58313 8.99419 1.49987 8.59359 1.49996Z" fill="white"/>
</svg>
