<svg preserveAspectRatio="none" width="34" height="35" viewBox="0 0 34 35" fill="none" xmlns="http://www.w3.org/2000/svg">
<path vector-effect="non-scaling-stroke" d="M17 30C9.8203 30 4 24.1797 4 17C4 9.8203 9.8203 4 17 4C24.1797 4 30 9.8203 30 17C30 24.1797 24.1797 30 17 30Z" fill="#6F7985"/>
<g filter="url(#filter0_dd_27_42)">
<path vector-effect="non-scaling-stroke" d="M17 30C24.1797 30 30 24.1797 30 17C30 9.8203 24.1797 4 17 4C9.8203 4 4 9.8203 4 17C4 24.1797 9.8203 30 17 30ZM19.2075 20.7933C19.5978 21.1841 19.5974 21.8172 19.2067 22.2075C18.8159 22.5978 18.1828 22.5974 17.7925 22.2067L13.2925 17.7015C12.9022 17.3107 12.9026 16.6776 13.2933 16.2873L17.7933 11.7925C18.1841 11.4022 18.8172 11.4026 19.2075 11.7933C19.5978 12.1841 19.5974 12.8172 19.2067 13.2075L15.4142 16.9956L19.2075 20.7933Z" fill="black"/>
</g>
<path vector-effect="non-scaling-stroke" d="M17 30C24.1797 30 30 24.1797 30 17C30 9.8203 24.1797 4 17 4C9.8203 4 4 9.8203 4 17C4 24.1797 9.8203 30 17 30ZM19.2075 20.7933C19.5978 21.1841 19.5974 21.8172 19.2067 22.2075C18.8159 22.5978 18.1828 22.5974 17.7925 22.2067L13.2925 17.7015C12.9022 17.3107 12.9026 16.6776 13.2933 16.2873L17.7933 11.7925C18.1841 11.4022 18.8172 11.4026 19.2075 11.7933C19.5978 12.1841 19.5974 12.8172 19.2067 13.2075L15.4142 16.9956L19.2075 20.7933Z" fill="white"/>
<defs>
<filter id="filter0_dd_27_42" x="0" y="0" width="34" height="35" filterUnits="userSpaceOnUse" color-interpolation-filters="sRGB">
<feFlood flood-opacity="0" result="BackgroundImageFix"/>
<feColorMatrix in="SourceAlpha" type="matrix" values="0 0 0 0 0 0 0 0 0 0 0 0 0 0 0 0 0 0 127 0" result="hardAlpha"/>
<feOffset dy="1"/>
<feGaussianBlur stdDeviation="2"/>
<feColorMatrix type="matrix" values="0 0 0 0 0 0 0 0 0 0.0784314 0 0 0 0 0.2 0 0 0 0.24 0"/>
<feBlend mode="normal" in2="BackgroundImageFix" result="effect1_dropShadow_27_42"/>
<feColorMatrix in="SourceAlpha" type="matrix" values="0 0 0 0 0 0 0 0 0 0 0 0 0 0 0 0 0 0 127 0" result="hardAlpha"/>
<feOffset/>
<feGaussianBlur stdDeviation="2"/>
<feColorMatrix type="matrix" values="0 0 0 0 0 0 0 0 0 0.0784314 0 0 0 0 0.2 0 0 0 0.04 0"/>
<feBlend mode="normal" in2="effect1_dropShadow_27_42" result="effect2_dropShadow_27_42"/>
<feBlend mode="normal" in="SourceGraphic" in2="effect2_dropShadow_27_42" result="shape"/>
</filter>
</defs>
</svg>
