<svg preserveAspectRatio="none" width="164" height="32" viewBox="0 0 164 32" fill="none" xmlns="http://www.w3.org/2000/svg">
<g clip-path="url(#clip0_103_80)">
<path vector-effect="non-scaling-stroke" d="M97.235 9.46604V6.14258H85.3789V23.2421H97.235V19.774H90.179V15.9834H96.0473V12.664H90.179V9.46604H97.235Z" fill="#B7BFC7"/>
<path vector-effect="non-scaling-stroke" d="M118.141 19.8679H110.734V6.14258H105.875V23.2421H118.141V19.8679Z" fill="#B7BFC7"/>
<path vector-effect="non-scaling-stroke" d="M157.277 12.6592C153.998 11.9205 152.85 11.8349 152.85 10.5304C152.85 9.31994 154.475 8.94343 155.41 8.94343C156.921 8.94343 158.706 9.29594 160.526 10.2287L161.849 7.08211C159.984 6.06573 157.592 5.64258 155.291 5.64258C150.769 5.64258 147.735 7.47715 147.608 11.0537C147.479 14.3155 150.131 15.5355 152.568 16.0389C154.918 16.5244 157.301 16.94 157.349 18.3357C157.393 19.623 156.235 20.1744 154.051 20.1744C152.028 20.1744 150.147 19.5242 148.225 18.7191L147.102 22.1393C149.311 23.0788 151.554 23.5966 153.866 23.5966C157.078 23.5966 159.423 23.0953 161.148 21.4755C162.344 20.3631 162.735 19.0202 162.735 17.7384C162.738 15.0356 161.054 13.5131 157.277 12.6592Z" fill="#B7BFC7"/>
<path vector-effect="non-scaling-stroke" d="M78.4857 9.51818V6.14258H63.5732V9.51818H68.6113V23.2421H73.4416V9.51818H78.4857Z" fill="#B7BFC7"/>
<path vector-effect="non-scaling-stroke" d="M134.719 6.14258V17.0066C134.719 17.8578 134.719 18.0929 134.668 18.4242C134.511 19.4598 133.508 20.0606 131.908 20.0819C130.723 20.0627 129.855 19.7122 129.45 19.0929C129.247 18.7747 129.148 18.2027 129.148 17.2892V6.14258H124.108V17.927C124.108 19.5599 124.327 20.2972 125.065 21.2292C126.28 22.7497 128.652 23.5493 131.918 23.5493C131.954 23.5493 131.986 23.5493 132.025 23.5493C132.042 23.5493 132.072 23.5493 132.097 23.5493C136.469 23.5493 138.727 21.8444 139.379 20.2492C139.705 19.4756 139.729 19.1093 139.729 17.5484V6.14258H134.719Z" fill="#B7BFC7"/>
<path vector-effect="non-scaling-stroke" d="M65.8494 1.4607L37.5889 7.08717V9.05821L37.6787 9.0349C56.3481 4.49682 65.8488 1.76727 65.9256 1.74806C66.0312 1.72062 66.0683 1.63833 66.0539 1.56906C66.038 1.49637 65.9619 1.43601 65.8494 1.4607Z" fill="#B7BFC7"/>
<path vector-effect="non-scaling-stroke" d="M42.8719 0.923258C41.4982 1.00144 38.9545 3.03627 37.5582 4.24468C31.9982 9.05502 27.8641 13.4765 24.8582 18.1071C18.5919 21.4635 10.6013 24.9153 2.66915 27.6092L2.47781 27.6736L0.951172 31.7844L1.82285 31.4477C6.86911 29.5247 15.2917 25.9132 22.9269 21.8984C22.4969 23.0451 22.2802 24.0992 22.2802 25.06C22.2802 25.7766 22.4002 26.4433 22.6396 27.0488C23.1196 28.2586 24.066 29.1749 25.378 29.6954C27.3319 30.4752 29.9977 30.4896 33.0393 29.5686C40.8096 27.2134 50.0263 19.9822 52.0331 18.544L52.1099 18.4899C52.1887 18.4329 52.1943 18.3472 52.1613 18.2889C52.1174 18.2224 52.0249 18.2045 51.9487 18.2512L51.8499 18.3109C49.6965 19.6036 39.2322 25.8164 32.4303 27.6407C28.9655 28.57 26.3252 28.0625 25.3293 26.6697C24.9837 26.1936 24.817 25.5915 24.817 24.8893C24.817 23.5182 25.4624 21.7729 26.7051 19.8327C27.849 19.1819 28.9176 18.5454 29.8804 17.9405C36.5164 14.211 44.1619 6.95984 44.4884 2.53356C44.4898 2.50339 44.4898 2.46841 44.4898 2.43549C44.4898 2.05349 44.3245 1.66052 44.0344 1.37041C43.723 1.05288 43.3129 0.894454 42.8719 0.923258ZM42.1319 3.03284C42.5674 2.75097 42.6929 2.92722 42.5646 3.24545C42.3576 3.75364 41.3994 6.81102 34.2855 12.6515C32.4289 14.172 31.1087 15.0257 28.4354 16.6086C32.813 10.474 39.2041 4.93394 42.1319 3.03284Z" fill="#B7BFC7"/>
<path vector-effect="non-scaling-stroke" d="M37.496 7.10547L7.7629 13.4966L6.61621 16.589L37.5885 9.05731L38.5466 8.51621L38.5199 7.1089L37.496 7.10547Z" fill="#B7BFC7"/>
</g>
<defs>
<clipPath id="clip0_103_80">
<rect vector-effect="non-scaling-stroke" width="162.812" height="31.9978" fill="white" transform="translate(0.328125 0.000976562)"/>
</clipPath>
</defs>
</svg>
