<svg preserveAspectRatio="none" width="17" height="17" viewBox="0 0 17 17" fill="none" xmlns="http://www.w3.org/2000/svg">
<path vector-effect="non-scaling-stroke" d="M8.81242 0.75C8.95243 0.74991 9.08968 0.789014 9.20862 0.862887C9.32756 0.93676 9.42344 1.04245 9.48542 1.168L11.3674 4.983L15.5774 5.595C15.7159 5.61511 15.846 5.67355 15.9529 5.76372C16.0599 5.85388 16.1396 5.97218 16.1828 6.10523C16.2261 6.23829 16.2313 6.3808 16.1978 6.51665C16.1644 6.6525 16.0936 6.77628 15.9934 6.874L12.9474 9.844L13.6664 14.036C13.6897 14.1738 13.6741 14.3154 13.6213 14.4449C13.5685 14.5743 13.4806 14.6865 13.3676 14.7687C13.2545 14.8509 13.1207 14.8999 12.9813 14.9102C12.8419 14.9205 12.7023 14.8917 12.5784 14.827L8.81242 12.847L5.04642 14.827C4.92261 14.892 4.78309 14.9211 4.64361 14.911C4.50413 14.9009 4.37026 14.852 4.2571 14.7699C4.14394 14.6877 4.05601 14.5755 4.00323 14.446C3.95046 14.3165 3.93493 14.1749 3.95842 14.037L4.67842 9.843L1.63042 6.874C1.52999 6.77632 1.45892 6.65247 1.42527 6.51647C1.39162 6.38047 1.39674 6.23777 1.44004 6.10453C1.48335 5.97129 1.5631 5.85284 1.67028 5.76261C1.77745 5.67238 1.90775 5.61397 2.04642 5.594L6.25642 4.983L8.13942 1.168C8.2014 1.04245 8.29729 0.93676 8.41622 0.862887C8.53516 0.789014 8.67241 0.74991 8.81242 0.75ZM8.81242 3.195L7.42742 6C7.37364 6.1089 7.29421 6.20311 7.19596 6.27453C7.09772 6.34595 6.9836 6.39244 6.86342 6.41L3.76642 6.86L6.00642 9.044C6.09357 9.12886 6.15878 9.23365 6.19641 9.34933C6.23404 9.46501 6.24296 9.5881 6.22242 9.708L5.69442 12.792L8.46342 11.336C8.57105 11.2794 8.69082 11.2499 8.81242 11.2499C8.93402 11.2499 9.05379 11.2794 9.16142 11.336L11.9314 12.792L11.4014 9.708C11.3809 9.5881 11.3898 9.46501 11.4274 9.34933C11.4651 9.23365 11.5303 9.12886 11.6174 9.044L13.8574 6.861L10.7614 6.411C10.6412 6.39344 10.5271 6.34695 10.4289 6.27553C10.3306 6.20411 10.2512 6.1099 10.1974 6.001L8.81242 3.195Z" fill="#8B949E"/>
</svg>
