<svg preserveAspectRatio="none" width="68" height="67" viewBox="0 0 68 67" fill="none" xmlns="http://www.w3.org/2000/svg">
<path vector-effect="non-scaling-stroke" d="M4.37951 48.2387C5.95033 53.3733 8.68447 56.5858 11.615 57.8694C15.0491 59.3681 18.7017 58.1431 22.0605 55.6931C25.1478 53.4385 28.2856 50.187 30.739 45.6322C32.7783 41.8529 34.7924 36.0601 34.301 30.3846C34.0751 27.7716 33.1811 25.7256 31.7912 25.6409C30.1844 25.5366 28.5988 27.7065 27.7942 30.5019C26.138 36.2621 27.004 43.2864 29.198 47.4828C31.4874 51.8681 34.8356 53.5362 38.0345 53.2235C41.5523 52.8781 44.9998 50.389 48.0513 46.6227C51.1027 42.8564 53.7205 37.9954 56.1746 32.8346C58.6287 27.6739 60.9429 22.4089 62.002 15.8276C62.253 14.2703 62.4108 12.6804 62.4717 11.0709C62.5162 9.93708 61.1245 10.504 61.0894 11.4162C60.843 17.7108 59.0635 23.2364 57.0344 28.0518C54.9707 32.9454 52.667 37.5979 50.1702 41.6118C47.6866 45.6127 44.8974 48.9359 41.843 50.591C38.8907 52.1939 35.7003 52.2004 32.9816 49.7178C30.4242 47.3851 28.4249 42.8368 28.3135 36.9202C28.2609 34.1444 28.6673 30.9645 29.6835 28.8468C30.0761 28.0323 30.6364 27.1396 31.216 27.1852C31.7957 27.2308 32.2355 27.9867 32.5257 28.8728C33.1534 30.8081 33.0851 33.4993 32.7607 35.7147C32.3716 38.3863 31.6518 40.8168 30.7388 42.9541C28.8501 47.3916 26.2359 50.4867 23.6354 52.8586C20.6155 55.6084 17.3389 57.4329 14.0827 56.892C11.3853 56.4424 8.72732 54.227 6.87706 50.389C6.40751 49.4181 5.99603 48.3429 5.64189 47.1896C5.41264 46.4467 4.08664 47.3329 4.36635 48.2452H4.37933L4.37951 48.2387Z" fill="#EF790C"/>
</svg>
