<svg preserveAspectRatio="none" width="23" height="8" viewBox="0 0 23 8" fill="none" xmlns="http://www.w3.org/2000/svg">
<path vector-effect="non-scaling-stroke" d="M9.29482 0.521125L7.81747 7.35313H9.59993L11.0773 0.521125H9.29482ZM20.7764 0.521125H19.2589C18.9217 0.521125 18.6246 0.721126 18.5042 1.01713L15.8225 7.35313H17.6932L18.0626 6.32913H20.3509L20.5677 7.35313H22.2217L20.7764 0.521125ZM18.5845 4.92913L19.5159 2.36913L20.0538 4.92913H18.5845ZM6.65325 0.521125L4.79853 5.16913L4.0438 1.21713C3.94745 0.769125 3.61022 0.513125 3.2168 0.513125H0.19786L0.157715 0.713126C0.783984 0.849126 1.48251 1.06513 1.91609 1.28913C2.17302 1.44113 2.25331 1.56113 2.3336 1.89713L3.75475 7.36113H5.63355L8.53206 0.529126H6.65325V0.521125ZM13.4218 2.42513C13.4218 2.18513 13.6626 1.91313 14.1765 1.85713C14.4334 1.83313 15.14 1.80113 15.9349 2.16913L16.248 0.713126C15.8144 0.561126 15.2604 0.417126 14.586 0.417126C12.8276 0.417126 11.5831 1.34513 11.5671 2.68113C11.551 3.66513 12.4583 4.21713 13.1247 4.54513C13.8152 4.88113 14.0561 5.09713 14.048 5.39313C14.048 5.84912 13.494 6.05713 12.9802 6.06513C12.0889 6.08113 11.559 5.82513 11.1495 5.63313L10.8284 7.12913C11.2459 7.32113 12.0167 7.48113 12.8196 7.49713C14.6984 7.49713 15.9188 6.57713 15.9349 5.16113C15.9188 3.32913 13.4057 3.21713 13.4218 2.42513Z" fill="#0F2496"/>
</svg>
