<svg preserveAspectRatio="none" width="17" height="16" viewBox="0 0 17 16" fill="none" xmlns="http://www.w3.org/2000/svg">
<path vector-effect="non-scaling-stroke" d="M8.9843 0.25C9.12431 0.24991 9.26155 0.289014 9.38049 0.362887C9.49943 0.43676 9.59532 0.542452 9.6573 0.668L11.5393 4.483L15.7493 5.095C15.8878 5.11511 16.0178 5.17355 16.1248 5.26372C16.2318 5.35388 16.3114 5.47218 16.3547 5.60523C16.398 5.73829 16.4032 5.8808 16.3697 6.01665C16.3362 6.1525 16.2654 6.27628 16.1653 6.374L13.1193 9.344L13.8383 13.536C13.8616 13.6738 13.846 13.8154 13.7932 13.9449C13.7404 14.0743 13.6525 14.1865 13.5394 14.2687C13.4264 14.3509 13.2926 14.3999 13.1532 14.4102C13.0137 14.4205 12.8742 14.3917 12.7503 14.327L8.9843 12.347L5.2183 14.327C5.09448 14.392 4.95496 14.4211 4.81549 14.411C4.67601 14.4009 4.54213 14.352 4.42898 14.2699C4.31582 14.1877 4.22789 14.0755 4.17511 13.946C4.12233 13.8165 4.10681 13.6749 4.1303 13.537L4.8503 9.343L1.8023 6.374C1.70186 6.27632 1.63079 6.15247 1.59715 6.01647C1.5635 5.88047 1.56862 5.73777 1.61192 5.60453C1.65522 5.47129 1.73498 5.35284 1.84215 5.26261C1.94932 5.17238 2.07963 5.11397 2.2183 5.094L6.4283 4.483L8.3113 0.668C8.37327 0.542452 8.46916 0.43676 8.5881 0.362887C8.70704 0.289014 8.84428 0.24991 8.9843 0.25ZM8.9843 2.695L7.5993 5.5C7.54551 5.6089 7.46608 5.70311 7.36784 5.77453C7.2696 5.84595 7.15548 5.89244 7.0353 5.91L3.9383 6.36L6.1783 8.544C6.26545 8.62886 6.33065 8.73365 6.36828 8.84933C6.40591 8.96501 6.41484 9.0881 6.3943 9.208L5.8663 12.292L8.6353 10.836C8.74293 10.7794 8.8627 10.7499 8.9843 10.7499C9.10589 10.7499 9.22567 10.7794 9.3333 10.836L12.1033 12.292L11.5733 9.208C11.5528 9.0881 11.5617 8.96501 11.5993 8.84933C11.6369 8.73365 11.7021 8.62886 11.7893 8.544L14.0293 6.361L10.9333 5.911C10.8131 5.89344 10.699 5.84695 10.6008 5.77553C10.5025 5.70411 10.4231 5.6099 10.3693 5.501L8.9843 2.695Z" fill="#8B949E"/>
</svg>
