<svg preserveAspectRatio="none" width="44" height="13" viewBox="0 0 44 13" fill="none" xmlns="http://www.w3.org/2000/svg">
<path vector-effect="non-scaling-stroke" d="M6.06109 0.910278C9.60707 0.910278 12.1125 3.51028 12.1125 6.83028C12.1125 8.23028 11.6175 9.49028 10.8295 10.5003L11.6175 11.2303C11.9508 11.5103 11.9812 11.8503 11.6882 12.1903L11.3851 12.5203C11.0921 12.8303 10.7588 12.8603 10.4759 12.5903L9.63738 11.7603C8.64733 12.4903 7.42493 12.9003 6.06109 12.9003C2.51512 12.9003 0.00970459 10.2203 0.00970459 6.84028C0.00970459 3.51028 2.53532 0.910278 6.06109 0.910278ZM6.06109 10.9603C6.78847 10.9603 7.54616 10.7503 8.1018 10.3403L7.2936 9.57028C6.98042 9.29028 6.95011 8.95028 7.24308 8.62028L7.53606 8.31028C7.82903 7.98028 8.16241 7.95028 8.44528 8.23028L9.27368 9.06028C9.68788 8.42028 9.92024 7.64028 9.92024 6.82028C9.92024 4.53028 8.25333 2.82028 6.06109 2.82028C3.84865 2.82028 2.20194 4.53028 2.20194 6.82028C2.20194 9.17028 3.84865 10.9603 6.06109 10.9603Z" fill="#F27321"/>
<path vector-effect="non-scaling-stroke" d="M13.6885 5.06024C13.6885 4.62024 13.9309 4.37024 14.3856 4.37024H15.0927C15.5574 4.37024 15.7898 4.61024 15.7898 5.06024V9.30024C15.7898 10.3102 16.0525 11.0002 17.093 11.0002C18.6084 11.0002 19.4469 9.68024 19.4469 8.19024V5.06024C19.4469 4.62024 19.6793 4.37024 20.144 4.37024H20.8511C21.2957 4.37024 21.5482 4.61024 21.5482 5.06024V12.0102C21.5482 12.4702 21.3058 12.7002 20.8511 12.7002H20.2046C19.7601 12.7002 19.5277 12.4702 19.5277 12.0102V11.5202C19.5277 11.3202 19.558 11.1402 19.558 11.1402H19.5277C19.1337 11.9902 18.0427 12.8902 16.6081 12.8902C14.8099 12.8902 13.6885 11.9902 13.6885 9.72024V5.06024Z" fill="#F27321"/>
<path vector-effect="non-scaling-stroke" d="M23.599 2.28022V1.79022C23.599 1.35022 23.8314 1.10022 24.2759 1.10022H25.0032C25.4478 1.10022 25.7003 1.34022 25.7003 1.79022V2.28022C25.7003 2.72022 25.4579 2.95022 25.0032 2.95022H24.2759C23.8314 2.95022 23.599 2.72022 23.599 2.28022ZM23.599 5.06022C23.599 4.62022 23.8314 4.37022 24.2759 4.37022H25.0032C25.4478 4.37022 25.6801 4.61022 25.6801 5.06022V12.0102C25.6801 12.4702 25.4478 12.7002 25.0032 12.7002H24.2759C23.8314 12.7002 23.599 12.4702 23.599 12.0102V5.06022Z" fill="#F27321"/>
<path vector-effect="non-scaling-stroke" d="M31.8022 4.17029C33.156 4.17029 34.0652 4.66029 34.5602 5.00029C34.9037 5.23029 34.9239 5.57029 34.6916 5.93029L34.4794 6.26029C34.2369 6.64029 33.9541 6.64029 33.5601 6.44029C33.2166 6.21029 32.6508 5.93029 31.9235 5.93029C30.3778 5.93029 29.3675 7.09029 29.3675 8.51029C29.3675 9.91029 30.3778 11.1203 31.9942 11.1203C32.8226 11.1203 33.4793 10.7603 33.8732 10.4803C34.2875 10.2503 34.6006 10.3003 34.8128 10.6903L34.9744 11.0003C35.1765 11.3603 35.126 11.6903 34.7926 11.9103C34.2774 12.2903 33.257 12.8703 31.8123 12.8703C29.0241 12.8703 27.246 10.9303 27.246 8.51029C27.2258 6.17029 29.014 4.17029 31.8022 4.17029Z" fill="#F27321"/>
<path vector-effect="non-scaling-stroke" d="M36.4999 1.79022C36.4999 1.35022 36.7423 1.10022 37.197 1.10022H37.9041C38.3688 1.10022 38.6012 1.34022 38.6012 1.79022V7.31022H39.6417L41.3895 4.83022C41.5915 4.50022 41.834 4.37022 42.2179 4.37022H43.0059C43.5716 4.37022 43.7434 4.75022 43.4302 5.19022L41.339 8.10022V8.13022L43.8141 11.8802C44.097 12.3502 43.9151 12.7002 43.3494 12.7002H42.4603C42.0765 12.7002 41.834 12.5502 41.6521 12.2302L39.6923 9.06022H38.6012V12.0102C38.6012 12.4702 38.3688 12.7002 37.9041 12.7002H37.197C36.7524 12.7002 36.4999 12.4702 36.4999 12.0102V1.79022Z" fill="#F27321"/>
</svg>
