<svg preserveAspectRatio="none" width="12" height="13" viewBox="0 0 12 13" fill="none" xmlns="http://www.w3.org/2000/svg">
<path vector-effect="non-scaling-stroke" d="M11.7929 3.75878C11.6633 3.11423 11.3403 2.52449 10.8671 2.06812C10.3938 1.61175 9.79273 1.31042 9.1439 1.20428C8.65642 1.12657 8.15757 1.16263 7.68633 1.30965C7.21509 1.45667 6.78422 1.71066 6.4274 2.05178C6.31125 2.15979 6.15852 2.21984 5.9999 2.21984C5.84129 2.21984 5.68856 2.15979 5.5724 2.05178C4.97998 1.47876 4.18951 1.15608 3.36532 1.15082C2.54113 1.14556 1.74661 1.45812 1.14692 2.02353C0.547223 2.58894 0.188488 3.36371 0.145279 4.18679C0.10207 5.00986 0.37771 5.81793 0.914905 6.44303L5.3519 11.7305C5.43131 11.825 5.53043 11.901 5.64231 11.9531C5.75419 12.0052 5.87611 12.0322 5.99953 12.0322C6.12295 12.0322 6.24487 12.0052 6.35675 11.9531C6.46863 11.901 6.56774 11.825 6.64715 11.7305L11.0842 6.44303C11.3979 6.07883 11.6248 5.64806 11.7475 5.18329C11.8703 4.71852 11.8858 4.23192 11.7929 3.76028V3.75878Z" fill="white"/>
</svg>
