<svg preserveAspectRatio="none" width="95" height="24" viewBox="0 0 95 24" fill="none" xmlns="http://www.w3.org/2000/svg">
<path vector-effect="non-scaling-stroke" fill-rule="evenodd" clip-rule="evenodd" d="M17.9526 11.6667L0 5.18546L7.04737 0L25 6.48121L17.9526 11.6667ZM2 13.1484L16.3621 18.3333L22 14.185L7.6379 9L2 13.1484ZM5 20.1113L15.7716 24L20 20.8887L9.22842 17L5 20.1113Z" fill="#0096C7"/>
<path vector-effect="non-scaling-stroke" d="M31 20.2561V3.45605H34.072V20.2561H31Z" fill="white"/>
<path vector-effect="non-scaling-stroke" d="M36.0561 20.2561V8.35206H38.7681L39.0081 10.3681C39.3761 9.66406 39.9041 9.10405 40.5921 8.68806C41.2961 8.27206 42.1201 8.06406 43.0641 8.06406C44.5361 8.06406 45.6801 8.52806 46.4961 9.45606C47.3121 10.3841 47.7201 11.7441 47.7201 13.5361V20.2561H44.6481V13.8241C44.6481 12.8001 44.4401 12.0161 44.0241 11.4721C43.6081 10.9281 42.9601 10.6561 42.0801 10.6561C41.2161 10.6561 40.5041 10.9601 39.9441 11.5681C39.4001 12.1761 39.1281 13.0241 39.1281 14.1121V20.2561H36.0561Z" fill="white"/>
<path vector-effect="non-scaling-stroke" d="M52.5565 20.2561L48.1885 8.35206H51.4045L54.4285 17.3521L57.4525 8.35206H60.6685L56.2765 20.2561H52.5565Z" fill="white"/>
<path vector-effect="non-scaling-stroke" d="M66.6042 20.5441C65.4042 20.5441 64.3402 20.2881 63.4122 19.7761C62.4842 19.2641 61.7562 18.5441 61.2282 17.6161C60.7002 16.6881 60.4362 15.6161 60.4362 14.4001C60.4362 13.1681 60.6922 12.0721 61.2042 11.1121C61.7322 10.1521 62.4522 9.40805 63.3642 8.88005C64.2922 8.33605 65.3802 8.06406 66.6282 8.06406C67.7962 8.06406 68.8282 8.32006 69.7242 8.83206C70.6202 9.34406 71.3162 10.0481 71.8122 10.9441C72.3242 11.8241 72.5802 12.8081 72.5802 13.8961C72.5802 14.0721 72.5722 14.2561 72.5562 14.4481C72.5562 14.6401 72.5482 14.8401 72.5322 15.0481H63.4842C63.5482 15.9761 63.8682 16.7041 64.4442 17.2321C65.0362 17.7601 65.7482 18.0241 66.5802 18.0241C67.2042 18.0241 67.7242 17.8881 68.1402 17.6161C68.5722 17.3281 68.8922 16.9601 69.1002 16.5121H72.2202C71.9962 17.2641 71.6202 17.9521 71.0922 18.5761C70.5802 19.1841 69.9402 19.6641 69.1722 20.0161C68.4202 20.3681 67.5642 20.5441 66.6042 20.5441ZM66.6282 10.5601C65.8762 10.5601 65.2122 10.7761 64.6362 11.2081C64.0602 11.6241 63.6922 12.2641 63.5322 13.1281H69.4602C69.4122 12.3441 69.1242 11.7201 68.5962 11.2561C68.0682 10.7921 67.4122 10.5601 66.6282 10.5601Z" fill="white"/>
<path vector-effect="non-scaling-stroke" d="M78.8839 20.5441C77.8279 20.5441 76.8999 20.3761 76.0999 20.0401C75.2999 19.6881 74.6599 19.2081 74.1799 18.6001C73.6999 17.9921 73.4119 17.2881 73.3159 16.4881H76.4119C76.5079 16.9521 76.7639 17.3521 77.1799 17.6881C77.6119 18.0081 78.1639 18.1681 78.8359 18.1681C79.5079 18.1681 79.9959 18.0321 80.2999 17.7601C80.6199 17.4881 80.7799 17.1761 80.7799 16.8241C80.7799 16.3121 80.5559 15.9681 80.1079 15.7921C79.6599 15.6001 79.0359 15.4161 78.2359 15.2401C77.7239 15.1281 77.2039 14.9921 76.6759 14.8321C76.1479 14.6721 75.6599 14.4721 75.2119 14.2321C74.7799 13.9761 74.4279 13.6561 74.1559 13.2721C73.8839 12.8721 73.7479 12.3841 73.7479 11.8081C73.7479 10.7521 74.1639 9.86406 74.9959 9.14406C75.8439 8.42406 77.0279 8.06406 78.5479 8.06406C79.9559 8.06406 81.0759 8.39206 81.9079 9.04806C82.7559 9.70406 83.2599 10.6081 83.4199 11.7601H80.5159C80.3399 10.8801 79.6759 10.4401 78.5239 10.4401C77.9479 10.4401 77.4999 10.5521 77.1799 10.7761C76.8759 11.0001 76.7239 11.2801 76.7239 11.6161C76.7239 11.9681 76.9559 12.2481 77.4199 12.4561C77.8839 12.6641 78.4999 12.8561 79.2679 13.0321C80.0999 13.2241 80.8599 13.4401 81.5479 13.6801C82.2519 13.9041 82.8119 14.2481 83.2279 14.7121C83.6439 15.1601 83.8519 15.8081 83.8519 16.6561C83.8679 17.3921 83.6759 18.0561 83.2759 18.6481C82.8759 19.2401 82.2999 19.7041 81.5479 20.0401C80.7959 20.3761 79.9079 20.5441 78.8839 20.5441Z" fill="white"/>
<path vector-effect="non-scaling-stroke" d="M90.3023 20.2561C89.0543 20.2561 88.0543 19.9521 87.3023 19.3441C86.5503 18.7361 86.1743 17.6561 86.1743 16.1041V10.9201H84.1343V8.35206H86.1743L86.5343 5.16006H89.2463V8.35206H92.4623V10.9201H89.2463V16.1281C89.2463 16.7041 89.3663 17.1041 89.6063 17.3281C89.8623 17.5361 90.2943 17.6401 90.9023 17.6401H92.3903V20.2561H90.3023Z" fill="white"/>
</svg>
