<svg preserveAspectRatio="none" width="103" height="75" viewBox="0 0 103 75" fill="none" xmlns="http://www.w3.org/2000/svg">
<g clip-path="url(#clip0_4_7617)">
<path vector-effect="non-scaling-stroke" d="M102.467 0.145752C89.5891 8.82826 88.2185 15.1296 87.1029 17.0572C86.0351 19.0334 85.2382 26.825 83.3895 30.5993C81.5248 34.4222 74.7513 37.4352 72.8548 38.6987C70.9901 39.9622 68.3445 44.8704 66.177 49.0982C48.9485 48.3855 39.4976 55.3833 24.867 64.2602C29.5526 62.6889 31.7679 61.555 31.7679 61.555C46.781 55.7235 53.9688 50.4913 76.5682 53.5853C76.7435 53.5853 76.871 53.6825 77.0145 53.7149C77.636 54.0712 77.8591 54.8326 77.5085 55.4643L68.9182 70.9827C68.5198 71.744 67.6751 72.149 66.8304 71.9708C46.6216 68.1155 30.6682 74.7732 16.0057 74.9838C4.30758 75.1619 0.466644 69.5572 0.466644 69.298C0.466644 69.1198 0.562269 69.0226 0.737582 69.0226C0.737582 69.0226 6.84164 69.0226 17.1691 66.5442C28.8991 43.8175 39.3541 35.8639 50.7335 35.8639C50.7335 35.8639 62.1607 35.8639 65.1729 45.8909C68.8066 39.46 69.6832 37.9211 69.6832 37.9211C70.5279 36.3985 75.2613 25.4157 83.4532 15.0162C91.661 4.64899 97.8607 2.0734 102.467 0.145752Z" fill="#737373"/>
</g>
<defs>
<clipPath id="clip0_4_7617">
<rect vector-effect="non-scaling-stroke" width="102" height="75" fill="white" transform="translate(0.466644)"/>
</clipPath>
</defs>
</svg>
