<svg preserveAspectRatio="none" width="17" height="17" viewBox="0 0 17 17" fill="none" xmlns="http://www.w3.org/2000/svg">
<path vector-effect="non-scaling-stroke" d="M2.03125 3C2.03125 2.33696 2.29464 1.70107 2.76348 1.23223C3.23233 0.763392 3.86821 0.5 4.53125 0.5L13.2813 0.5C13.4802 0.5 13.6709 0.579018 13.8116 0.71967C13.9522 0.860322 14.0313 1.05109 14.0313 1.25V13.75C14.0313 13.9489 13.9522 14.1397 13.8116 14.2803C13.6709 14.421 13.4802 14.5 13.2813 14.5H10.7813C10.5823 14.5 10.3916 14.421 10.2509 14.2803C10.1103 14.1397 10.0313 13.9489 10.0313 13.75C10.0313 13.5511 10.1103 13.3603 10.2509 13.2197C10.3916 13.079 10.5823 13 10.7813 13H12.5313V11H4.53125C4.33433 11 4.14181 11.0582 3.97782 11.1672C3.81382 11.2762 3.68567 11.4312 3.60941 11.6128C3.53316 11.7943 3.51221 11.9943 3.54918 12.1878C3.58615 12.3812 3.67941 12.5594 3.81725 12.7C3.8862 12.7704 3.9406 12.8537 3.97736 12.9451C4.01412 13.0365 4.03251 13.1343 4.03149 13.2328C4.03047 13.3313 4.01005 13.4287 3.97141 13.5193C3.93276 13.6099 3.87664 13.6921 3.80625 13.761C3.73586 13.8299 3.65258 13.8843 3.56117 13.9211C3.46976 13.9579 3.372 13.9763 3.27347 13.9752C3.17495 13.9742 3.07759 13.9538 2.98696 13.9152C2.89633 13.8765 2.8142 13.8204 2.74525 13.75C2.28696 13.2829 2.03054 12.6544 2.03125 12V3ZM12.5313 2H4.53125C4.26603 2 4.01168 2.10536 3.82414 2.29289C3.63661 2.48043 3.53125 2.73478 3.53125 3V9.708C3.84659 9.5702 4.18711 9.49937 4.53125 9.5H12.5313V2ZM5.03125 12.75C5.03125 12.6837 5.05759 12.6201 5.10447 12.5732C5.15136 12.5263 5.21495 12.5 5.28125 12.5H8.78125C8.84756 12.5 8.91114 12.5263 8.95803 12.5732C9.00491 12.6201 9.03125 12.6837 9.03125 12.75V16C9.03125 16.0464 9.01832 16.0919 8.99391 16.1314C8.96951 16.1709 8.93458 16.2028 8.89305 16.2236C8.85153 16.2444 8.80504 16.2532 8.7588 16.249C8.71256 16.2448 8.66839 16.2279 8.63125 16.2L7.18125 15.113C7.13804 15.0804 7.08538 15.0627 7.03125 15.0627C6.97712 15.0627 6.92446 15.0804 6.88125 15.113L5.43125 16.2C5.39411 16.2279 5.34994 16.2448 5.3037 16.249C5.25746 16.2532 5.21097 16.2444 5.16945 16.2236C5.12792 16.2028 5.093 16.1709 5.06859 16.1314C5.04418 16.0919 5.03125 16.0464 5.03125 16V12.75Z" fill="white"/>
</svg>
