<svg preserveAspectRatio="none" width="24" height="50" viewBox="0 0 24 50" fill="none" xmlns="http://www.w3.org/2000/svg">
<path vector-effect="non-scaling-stroke" d="M9.54074 1.35315C6.55096 9.0419 3.61886 16.7828 0.657916 24.4976C0.430805 25.0834 1.012 25.3012 1.29055 25.268C3.43726 25.0072 5.33301 23.2237 7.16358 21.8357C8.99415 20.4478 10.886 18.9298 12.7197 17.3976C16.387 14.3332 19.9014 10.9808 23.4231 7.60463L22.1131 6.92565C19.3253 12.2913 16.6828 17.8401 13.9732 23.3003C11.2635 28.7605 8.55296 34.2132 5.8442 39.6808C4.31649 42.7655 2.78877 45.8501 1.27981 48.9623C1.041 49.4514 1.15466 49.8814 1.5985 49.983C2.04234 50.0847 2.69235 49.7247 2.9546 49.217C8.45124 38.3838 13.8001 27.3904 19.2134 16.4633C20.7412 13.3787 22.3137 10.3253 23.7939 7.18709C23.9945 6.76415 23.9853 6.34915 23.5714 6.19772C23.1145 6.02987 22.615 6.36026 22.2724 6.71313C19.077 10.0265 15.6988 13.0183 12.2962 15.8926C10.6091 17.3201 8.90151 18.7052 7.17245 20.0404C6.30837 20.7118 5.44249 21.3682 4.57067 22.018C3.69884 22.6678 2.85296 23.4046 1.85577 23.5276L2.4884 24.2981C5.42825 16.5788 8.39279 8.89373 11.3047 1.15581C11.5185 0.587123 10.9661 0.395373 10.6908 0.412913C10.2471 0.439933 9.75631 0.799334 9.54074 1.35315Z" fill="#EF790C"/>
</svg>
