<svg preserveAspectRatio="none" width="16" height="17" viewBox="0 0 16 17" fill="none" xmlns="http://www.w3.org/2000/svg">
<path vector-effect="non-scaling-stroke" d="M2.7 1.20312C2.51435 1.20312 2.3363 1.27687 2.20503 1.40815C2.07375 1.53943 2 1.71747 2 1.90313V14.5031C2 14.6888 2.07375 14.8668 2.20503 14.9981C2.3363 15.1294 2.51435 15.2031 2.7 15.2031H5.3C5.48565 15.2031 5.6637 15.1294 5.79497 14.9981C5.92625 14.8668 6 14.6888 6 14.5031V1.90313C6 1.71747 5.92625 1.53943 5.79497 1.40815C5.6637 1.27687 5.48565 1.20313 5.3 1.20312H2.7ZM10.7 1.20312C10.5143 1.20312 10.3363 1.27687 10.205 1.40815C10.0738 1.53943 10 1.71747 10 1.90313V14.5031C10 14.6888 10.0738 14.8668 10.205 14.9981C10.3363 15.1294 10.5143 15.2031 10.7 15.2031H13.3C13.4857 15.2031 13.6637 15.1294 13.795 14.9981C13.9262 14.8668 14 14.6888 14 14.5031V1.90313C14 1.71747 13.9262 1.53943 13.795 1.40815C13.6637 1.27687 13.4857 1.20313 13.3 1.20312H10.7Z" fill="black"/>
</svg>
