<svg preserveAspectRatio="none" width="24" height="25" viewBox="0 0 24 25" fill="none" xmlns="http://www.w3.org/2000/svg">
<g clip-path="url(#clip0_0_859)">
<path vector-effect="non-scaling-stroke" d="M24 0.953125V24.9531H0V0.953125H24ZM16.058 4.3817C14.8616 4.3817 13.8415 4.80357 12.9978 5.64732C12.154 6.49107 11.7321 7.51118 11.7321 8.70759C11.7321 9.02902 11.7679 9.35939 11.8393 9.69866C10.0714 9.60936 8.41296 9.1652 6.86384 8.36607C5.31471 7.56695 4.00002 6.50221 2.91964 5.17188C2.5268 5.84152 2.33036 6.56918 2.33036 7.35491C2.33036 8.09596 2.50446 8.7835 2.85268 9.41741C3.20089 10.0513 3.66964 10.5647 4.25893 10.9576C3.57766 10.9313 2.93909 10.7556 2.34321 10.4304L2.30357 10.4085V10.4621C2.30357 11.5067 2.6317 12.4241 3.28795 13.2143C3.9442 14.0045 4.7723 14.5022 5.77232 14.7076C5.40075 14.8054 5.01814 14.8549 4.63393 14.8549C4.38391 14.8549 4.11161 14.8326 3.81696 14.7879C4.09377 15.654 4.6027 16.3661 5.34375 16.9241C6.0848 17.4822 6.92411 17.7701 7.86161 17.7879C6.2902 19.0201 4.5 19.6362 2.49107 19.6362C2.10713 19.6362 1.75891 19.6183 1.44643 19.5826C3.45536 20.8773 5.66963 21.5246 8.08929 21.5246C9.62502 21.5246 11.0669 21.2812 12.4152 20.7946C13.7634 20.3081 14.9152 19.6562 15.8705 18.8393C16.8259 18.0223 17.6495 17.0826 18.3415 16.0201C19.0335 14.9576 19.5491 13.8482 19.8884 12.692C20.2277 11.5357 20.3973 10.3772 20.3973 9.21652C20.3973 8.9665 20.3929 8.779 20.3839 8.65402C21.2321 8.03795 21.9553 7.29239 22.5536 6.41741C21.7232 6.77457 20.8929 6.99775 20.0625 7.08705C21 6.52455 21.6339 5.72993 21.9643 4.70312C21.1071 5.21205 20.192 5.56027 19.2188 5.74777C18.3616 4.83705 17.308 4.3817 16.058 4.3817Z" fill="#222326"/>
</g>
<defs>
<clipPath id="clip0_0_859">
<rect vector-effect="non-scaling-stroke" width="24" height="24" fill="white" transform="translate(0 0.953125)"/>
</clipPath>
</defs>
</svg>
