<svg preserveAspectRatio="none" width="74" height="32" viewBox="0 0 74 32" fill="none" xmlns="http://www.w3.org/2000/svg">
<g clip-path="url(#clip0_103_75)">
<path vector-effect="non-scaling-stroke" d="M31.705 11.1683C35.1337 2.76097 28.7189 0.475586 24.5528 0.475586H10.7277C11.1301 0.728315 11.4261 1.11855 11.5601 1.57311C11.6942 2.02766 11.6571 2.51529 11.4558 2.94455L3.40034 28.5704C3.2076 29.0687 2.9167 29.5236 2.54472 29.9082C2.17274 30.2928 1.72719 30.5994 1.23438 30.8098H12.4143C11.9711 30.676 11.5987 30.3735 11.3778 29.968C11.157 29.5627 11.1055 29.0869 11.2346 28.6439L14.1563 19.3736C14.1563 19.3736 27.6221 21.2093 31.6683 11.1683H31.705ZM20.8385 2.83439C22.304 2.83439 26.3686 3.03632 23.7325 10.6727C20.9676 18.6946 14.9121 17.0424 14.9121 17.0424L19.3823 2.83439H20.8292H20.8385Z" fill="#B7BFC7"/>
<path vector-effect="non-scaling-stroke" d="M40.6544 30.828H48.1846C45.4221 29.8172 42.9083 28.2306 40.811 26.1746C42.4736 24.6003 43.4805 22.4608 43.6315 20.181H39.7326C39.9589 20.3254 40.1454 20.5235 40.2756 20.7574C40.406 20.9912 40.476 21.2537 40.4793 21.5211C40.4511 22.5452 40.0996 23.5343 39.4746 24.3482C38.0546 22.4549 37.1069 20.2529 36.7096 17.9232C38.6355 17.1443 40.4489 16.1134 42.1015 14.8577C42.6802 14.4234 43.1596 13.8714 43.5076 13.2384C43.8556 12.6055 44.0644 11.9059 44.1199 11.1864V11.0762C44.1222 10.6267 44.0336 10.1813 43.8593 9.76668C43.6852 9.35193 43.429 8.97636 43.106 8.66236C42.4646 8.08981 41.6944 7.67923 40.8604 7.46519C40.0262 7.25115 39.1526 7.2399 38.3133 7.43244C37.0446 7.6848 35.8634 8.26033 34.8847 9.10288C32.6173 11.2323 32.3316 14.7292 32.3316 16.317V17.1614L31.9721 17.3082C30.3131 17.9232 25.8798 19.0888 24.3038 22.7234C23.9763 23.5569 23.8105 24.4444 23.8154 25.3393C23.7958 26.4425 24.0933 27.5285 24.6725 28.469C25.7876 30.2129 27.6863 31.3144 30.7187 31.2226C34.0183 31.1676 37.2719 28.928 37.8433 28.469C38.6814 29.3259 39.6083 30.092 40.6083 30.7545L40.6544 30.828ZM40.6544 10.5531C40.2673 12.9945 37.0876 15.4634 36.3133 15.7939C36.0764 13.9526 36.4553 12.0849 37.3916 10.4797C38.1474 9.3048 39.1705 8.79087 39.9907 9.08455C40.6544 9.31397 40.7189 9.91057 40.6637 10.5531H40.6544ZM36.2673 26.8904C35.088 27.5667 33.7897 28.0122 32.4423 28.2029C30.9214 28.3497 28.3961 27.7624 28.4145 24.7335C28.4145 22.1453 31.2348 20.2546 32.7741 19.5937C33.4718 22.2232 34.6598 24.6984 36.2765 26.8904H36.2673Z" fill="#B7BFC7"/>
<path vector-effect="non-scaling-stroke" d="M63.5208 2.86116C67.9909 1.7873 71.6775 5.27506 72.0094 5.51371L73.2813 1.47526C71.5209 0.942915 58.6818 -3.38007 49.6125 6.92717C44.0364 13.2693 42.6724 26.2567 49.7416 29.7445C57.3086 33.4708 65.6682 29.1754 66.3318 28.8725L69.742 17.9045C69.9188 17.2526 70.2609 16.6569 70.7353 16.1748C71.2099 15.6926 71.801 15.3401 72.4518 15.151H60.47C61.0112 15.2993 61.4717 15.6542 61.7514 16.139C62.031 16.6237 62.1071 17.1989 61.9632 17.7392L58.5068 28.7072C58.0459 28.7899 48.3683 31.1946 53.7878 14.3617C54.9767 10.7454 58.2302 4.12778 63.5483 2.85201L63.5208 2.86116Z" fill="#B7BFC7"/>
</g>
<defs>
<clipPath id="clip0_103_75">
<rect vector-effect="non-scaling-stroke" width="72.6406" height="31.9965" fill="white" transform="translate(0.96875 0.00195312)"/>
</clipPath>
</defs>
</svg>
