<svg preserveAspectRatio="none" width="30" height="30" viewBox="0 0 30 30" fill="none" xmlns="http://www.w3.org/2000/svg">
<path vector-effect="non-scaling-stroke" fill-rule="evenodd" clip-rule="evenodd" d="M24 7H6C4.9 7 4 7.9 4 9V22C4 23.1 4.9 24 6 24H24C25.1 24 26 23.1 26 22V9C26 7.9 25.1 7 24 7ZM24 21C24 21.55 23.55 22 23 22H15V9H23C23.55 9 24 9.45 24 10V21ZM22.25 12.5H16.75C16.34 12.5 16 12.84 16 13.25C16 13.66 16.34 14 16.75 14H22.25C22.66 14 23 13.66 23 13.25C23 12.84 22.66 12.5 22.25 12.5ZM22.25 15H16.75C16.34 15 16 15.34 16 15.75C16 16.16 16.34 16.5 16.75 16.5H22.25C22.66 16.5 23 16.16 23 15.75C23 15.34 22.66 15 22.25 15ZM22.25 17.5H16.75C16.34 17.5 16 17.84 16 18.25C16 18.66 16.34 19 16.75 19H22.25C22.66 19 23 18.66 23 18.25C23 17.84 22.66 17.5 22.25 17.5Z" fill="#8833FF"/>
</svg>
