<svg preserveAspectRatio="none" width="30" height="30" viewBox="0 0 30 30" fill="none" xmlns="http://www.w3.org/2000/svg">
<path vector-effect="non-scaling-stroke" fill-rule="evenodd" clip-rule="evenodd" d="M8 18H22C22.55 18 23 17.55 23 17C23 16.45 22.55 16 22 16H8C7.45 16 7 16.45 7 17C7 17.55 7.45 18 8 18ZM8 22H22C22.55 22 23 21.55 23 21C23 20.45 22.55 20 22 20H8C7.45 20 7 20.45 7 21C7 21.55 7.45 22 8 22ZM8 14H22C22.55 14 23 13.55 23 13C23 12.45 22.55 12 22 12H8C7.45 12 7 12.45 7 13C7 13.55 7.45 14 8 14ZM7 9C7 9.55 7.45 10 8 10H22C22.55 10 23 9.55 23 9C23 8.45 22.55 8 22 8H8C7.45 8 7 8.45 7 9Z" fill="#C3CAD9"/>
</svg>
