<svg preserveAspectRatio="none" width="16" height="16" viewBox="0 0 16 16" fill="none" xmlns="http://www.w3.org/2000/svg">
<path vector-effect="non-scaling-stroke" d="M11.0299 0.46995C11.1704 0.610576 11.2493 0.8012 11.2493 0.99995C11.2493 1.1987 11.1704 1.38933 11.0299 1.52995L4.55994 7.99995L11.0299 14.47C11.1036 14.5386 11.1627 14.6214 11.2037 14.7134C11.2447 14.8054 11.2668 14.9047 11.2685 15.0054C11.2703 15.1061 11.2518 15.2062 11.2141 15.2995C11.1763 15.3929 11.1202 15.4778 11.049 15.549C10.9778 15.6202 10.8929 15.6764 10.7995 15.7141C10.7062 15.7518 10.6061 15.7703 10.5054 15.7685C10.4047 15.7668 10.3054 15.7447 10.2134 15.7037C10.1214 15.6627 10.0386 15.6036 9.96994 15.53L2.43994 7.99995L9.96994 0.46995C10.1106 0.3295 10.3012 0.25061 10.4999 0.25061C10.6987 0.25061 10.8893 0.3295 11.0299 0.46995Z" fill="white"/>
</svg>
