<svg preserveAspectRatio="none" width="77" height="73" viewBox="0 0 77 73" fill="none" xmlns="http://www.w3.org/2000/svg">
<g clip-path="url(#clip0_4_7626)">
<path vector-effect="non-scaling-stroke" d="M68.0926 28.1614C65.6977 28.1614 63.5901 29.1556 62.0414 30.7111C56.3414 26.7503 48.6615 24.2006 40.1515 23.928L44.5742 3.91556L58.6565 7.09061C58.6565 10.5543 61.4666 13.3766 64.9153 13.3766C68.4279 13.3766 71.254 10.4741 71.254 7.01043C71.254 3.54674 68.4439 0.644287 64.9153 0.644287C62.4565 0.644287 60.333 2.1356 59.2792 4.17213L43.7279 0.70843C42.9456 0.499966 42.1792 1.06121 41.9716 1.84696L37.1178 23.912C28.6716 24.2648 21.0716 26.8144 15.3557 30.7752C13.8069 29.1556 11.6195 28.1614 9.22457 28.1614C0.347262 28.1614 -2.55862 40.124 5.56827 44.2131C5.28088 45.4799 5.15314 46.8269 5.15314 48.1739C5.15314 61.6118 20.2254 72.5 38.7305 72.5C57.3153 72.5 72.3876 61.6118 72.3876 48.1739C72.3876 46.8269 72.2439 45.4158 71.8926 44.149C79.8599 40.0438 76.922 28.1614 68.0926 28.1614ZM18.4531 45.063C18.4531 41.5351 21.2632 38.6968 24.7918 38.6968C28.2405 38.6968 31.0506 41.5191 31.0506 45.063C31.0506 48.5267 28.2405 51.349 24.7918 51.349C21.2792 51.365 18.4531 48.5267 18.4531 45.063ZM52.6691 60.0563C46.8573 65.8933 30.4599 65.8933 24.6481 60.0563C24.0094 59.4951 24.0094 58.5008 24.6481 57.8594C25.2069 57.2982 26.1968 57.2982 26.7557 57.8594C31.1943 62.4296 45.9153 62.5098 50.5456 57.8594C51.1044 57.2982 52.0943 57.2982 52.6531 57.8594C53.3078 58.5008 53.3078 59.4951 52.6691 60.0563ZM52.5414 51.365C49.0926 51.365 46.2826 48.5427 46.2826 45.079C46.2826 41.5512 49.0926 38.7129 52.5414 38.7129C56.054 38.7129 58.88 41.5351 58.88 45.079C58.8641 48.5267 56.054 51.365 52.5414 51.365Z" fill="#737373"/>
</g>
<defs>
<clipPath id="clip0_4_7626">
<rect vector-effect="non-scaling-stroke" width="76" height="72" fill="white" transform="translate(0.666595 0.5)"/>
</clipPath>
</defs>
</svg>
