<svg preserveAspectRatio="none" width="12" height="12" viewBox="0 0 12 12" fill="none" xmlns="http://www.w3.org/2000/svg">
<path vector-effect="non-scaling-stroke" opacity="0.4" d="M11.8332 5.99996C11.8332 9.22229 9.22159 11.8333 5.99984 11.8333C2.77809 11.8333 0.166504 9.22229 0.166504 5.99996C0.166504 2.77879 2.77809 0.166626 5.99984 0.166626C9.22159 0.166626 11.8332 2.77879 11.8332 5.99996Z" fill="#0F212B"/>
<path vector-effect="non-scaling-stroke" d="M8.08451 8.22511C8.00809 8.22511 7.93109 8.20527 7.86051 8.16386L5.57034 6.79769C5.43851 6.71836 5.35742 6.57544 5.35742 6.42144V3.47736C5.35742 3.23586 5.55342 3.03986 5.79492 3.03986C6.03642 3.03986 6.23242 3.23586 6.23242 3.47736V6.17294L8.30909 7.41136C8.51617 7.53561 8.58442 7.80394 8.46076 8.01161C8.37851 8.14869 8.23326 8.22511 8.08451 8.22511Z" fill="#0F212B"/>
</svg>
