<svg preserveAspectRatio="none" width="21" height="12" viewBox="0 0 21 12" fill="none" xmlns="http://www.w3.org/2000/svg">
<path vector-effect="non-scaling-stroke" d="M0.514404 12V0H4.49153C5.3201 0 6.09438 0.157142 6.81438 0.471427C7.54009 0.779997 8.17723 1.21142 8.7258 1.76571C9.28008 2.31428 9.71151 2.95142 10.0201 3.67713C10.3344 4.39713 10.4915 5.17141 10.4915 5.99998C10.4915 6.82854 10.3344 7.60568 10.0201 8.3314C9.71151 9.05139 9.28008 9.68853 8.7258 10.2428C8.17723 10.7914 7.54009 11.2228 6.81438 11.5371C6.09438 11.8457 5.3201 12 4.49153 12H0.514404Z" fill="white"/>
<path vector-effect="non-scaling-stroke" d="M14.9761 12C13.9287 12 12.9724 11.7305 12.1071 11.1916C11.2494 10.6528 10.5625 9.92789 10.0464 9.01708C9.53782 8.10626 9.28355 7.10057 9.28355 6C9.28355 5.17267 9.43155 4.39848 9.72757 3.67742C10.0236 2.94877 10.4297 2.3112 10.9458 1.76471C11.4695 1.21063 12.0767 0.777988 12.7674 0.466793C13.4581 0.155598 14.1944 0 14.9761 0C15.8642 0 16.6763 0.189754 17.4126 0.56926C18.1564 0.941177 18.7864 1.45351 19.3025 2.10626C19.8187 2.75901 20.1944 3.50285 20.4297 4.33776C20.665 5.17268 20.7181 6.04554 20.589 6.95636H12.2665C12.3727 7.3814 12.5473 7.76471 12.7902 8.10626C13.0331 8.44023 13.3405 8.70968 13.7124 8.91461C14.0843 9.11195 14.5056 9.21442 14.9761 9.22201C15.4619 9.2296 15.9021 9.11575 16.2968 8.88046C16.6991 8.63757 17.0331 8.3112 17.2987 7.90133L20.1336 8.56167C19.6706 9.57116 18.9799 10.3985 18.0615 11.0436C17.1431 11.6812 16.1147 12 14.9761 12ZM12.1754 4.87286H17.7769C17.6934 4.41746 17.515 4.00759 17.2418 3.64326C16.9761 3.27135 16.646 2.97533 16.2513 2.75522C15.8566 2.5351 15.4316 2.42505 14.9761 2.42505C14.5207 2.42505 14.0995 2.5351 13.7124 2.75522C13.3253 2.96774 12.9951 3.25996 12.7219 3.63188C12.4562 3.99621 12.2741 4.40987 12.1754 4.87286Z" fill="white"/>
</svg>
