<svg preserveAspectRatio="none" width="30" height="54" viewBox="0 0 30 54" fill="none" xmlns="http://www.w3.org/2000/svg">
<g clip-path="url(#clip0_162_3656)">
<path vector-effect="non-scaling-stroke" d="M15.3438 22.5C12.6243 22.5 9.96584 23.3064 7.70467 24.8173C5.44349 26.3282 3.68112 28.4756 2.64041 30.9881C1.59971 33.5006 1.32741 36.2653 1.85796 38.9325C2.38851 41.5997 3.69807 44.0497 5.62104 45.9727C7.54401 47.8957 9.99403 49.2053 12.6613 49.7358C15.3285 50.2663 18.0932 49.994 20.6057 48.9533C23.1181 47.9126 25.2656 46.1503 26.7765 43.8891C28.2873 41.6279 29.0938 38.9695 29.0938 36.25C29.0938 32.6033 27.6451 29.1059 25.0665 26.5273C22.4878 23.9487 18.9905 22.5 15.3438 22.5ZM15.3438 48.35C12.9506 48.35 10.6112 47.6403 8.62136 46.3108C6.63152 44.9812 5.08063 43.0915 4.16481 40.8805C3.24899 38.6695 3.00937 36.2366 3.47625 33.8894C3.94314 31.5422 5.09555 29.3862 6.78776 27.694C8.47998 26.0018 10.636 24.8494 12.9832 24.3825C15.3303 23.9156 17.7632 24.1552 19.9742 25.0711C22.1852 25.9869 24.075 27.5378 25.4045 29.5276C26.7341 31.5174 27.4438 33.8568 27.4438 36.25C27.4401 39.458 26.164 42.5335 23.8957 44.8019C21.6273 47.0703 18.5517 48.3463 15.3438 48.35ZM15.3438 25.25C13.1682 25.25 11.0414 25.8951 9.23248 27.1038C7.42354 28.3125 6.01365 30.0305 5.18108 32.0405C4.34852 34.0505 4.13068 36.2622 4.55512 38.396C4.97956 40.5298 6.0272 42.4898 7.56558 44.0282C9.10396 45.5666 11.064 46.6142 13.1978 47.0386C15.3316 47.4631 17.5433 47.2452 19.5533 46.4127C21.5633 45.5801 23.2812 44.1702 24.4899 42.3613C25.6986 40.5523 26.3438 38.4256 26.3438 36.25C26.3438 34.8055 26.0592 33.3751 25.5064 32.0405C24.9536 30.7059 24.1434 29.4933 23.1219 28.4718C22.1005 27.4504 20.8879 26.6401 19.5533 26.0873C18.2187 25.5345 16.7883 25.25 15.3438 25.25ZM15.8178 31.506C15.9834 31.3037 16.1899 31.1386 16.4237 31.0216C16.6576 30.9046 16.9135 30.8383 17.1748 30.827C17.196 31.0896 17.1641 31.3538 17.0809 31.6038C16.9978 31.8538 16.8651 32.0845 16.6908 32.282C16.5391 32.4993 16.3355 32.6752 16.0985 32.7936C15.8615 32.9121 15.5986 32.9693 15.3338 32.96C15.3091 32.6973 15.3393 32.4324 15.4227 32.182C15.506 31.9317 15.6406 31.7015 15.8178 31.506ZM18.4718 38.984C18.0958 39.558 17.6648 40.136 17.0298 40.136C16.4298 40.136 16.2218 39.748 15.5248 39.748C14.7758 39.748 14.5488 40.136 13.9758 40.136C13.3408 40.136 12.9068 39.527 12.5098 38.959C11.9138 38.0579 11.582 37.0079 11.5518 35.928C11.525 35.3453 11.6592 34.7665 11.9398 34.255C12.1358 33.9079 12.4163 33.616 12.7553 33.4062C13.0943 33.1965 13.4807 33.0757 13.8788 33.055C14.4878 33.034 15.0098 33.491 15.3788 33.491C15.9641 33.2992 16.5636 33.1534 17.1718 33.055C17.5096 33.0538 17.8423 33.1375 18.1394 33.2984C18.4364 33.4593 18.6883 33.6923 18.8718 33.976C18.5657 34.1693 18.3129 34.4362 18.1366 34.7524C17.9604 35.0686 17.8662 35.424 17.8628 35.786C17.8733 36.1847 17.9965 36.5722 18.218 36.9039C18.4396 37.2355 18.7505 37.4976 19.1148 37.66C18.9702 38.1319 18.7533 38.5786 18.4718 38.984Z" fill="#1D1D1F"/>
</g>
<defs>
<clipPath id="clip0_162_3656">
<rect vector-effect="non-scaling-stroke" width="29" height="54" fill="white" transform="translate(0.84375)"/>
</clipPath>
</defs>
</svg>
