<svg preserveAspectRatio="none" width="24" height="23" viewBox="0 0 24 23" fill="none" xmlns="http://www.w3.org/2000/svg">
<path vector-effect="non-scaling-stroke" fill-rule="evenodd" clip-rule="evenodd" d="M11.341 1.92812C11.341 1.41012 10.9211 0.990204 10.4031 0.990204C9.88506 0.990204 9.46517 1.41012 9.46517 1.92812V3.95417H5.06827C3.56813 3.95417 2.35202 5.17027 2.35202 6.67042V14.9693C2.35202 16.4695 3.56812 17.6856 5.06827 17.6856H9.04255C9.56052 17.6856 9.98041 17.2657 9.98041 16.7476C9.98041 16.2296 9.56052 15.8098 9.04255 15.8098H5.06827C4.60412 15.8098 4.22785 15.4334 4.22785 14.9693V6.67042C4.22785 6.20627 4.60412 5.83 5.06827 5.83H15.7383C16.2024 5.83 16.5787 6.20627 16.5787 6.67042V9.09494C16.5787 9.61291 16.9986 10.0328 17.5166 10.0328C18.0346 10.0328 18.4545 9.61291 18.4545 9.09494V6.67042C18.4545 5.17027 17.2384 3.95417 15.7383 3.95417H11.341V1.92812ZM7.5527 8.25724C8.07069 8.25724 8.49061 8.67714 8.49061 9.19511V10.3864C8.49061 10.9044 8.07069 11.3243 7.5527 11.3243C7.0347 11.3243 6.61478 10.9044 6.61478 10.3864V9.19511C6.61478 8.67714 7.0347 8.25724 7.5527 8.25724ZM14.1914 9.19511C14.1914 8.67714 13.7715 8.25724 13.2534 8.25724C12.7355 8.25724 12.3156 8.67714 12.3156 9.19511V10.3864C12.3156 10.9044 12.7355 11.3243 13.2534 11.3243C13.7715 11.3243 14.1914 10.9044 14.1914 10.3864V9.19511ZM12.6117 12.3812C12.8279 12.8519 12.6217 13.4088 12.151 13.6251L12.1491 13.626L12.147 13.6268L12.1423 13.629L12.1304 13.6342C12.1227 13.6376 12.1135 13.6416 12.1027 13.6461L12.0979 13.6481C12.0722 13.6588 12.0388 13.6723 11.998 13.6874C11.9167 13.7176 11.8053 13.7551 11.6687 13.7916C11.3973 13.8645 11.0159 13.9367 10.5661 13.9367C10.1004 13.9367 9.71511 13.8658 9.43904 13.7915C9.30069 13.7543 9.18862 13.7159 9.10614 13.6845C9.0649 13.6688 9.03089 13.6547 9.00444 13.6433C8.98603 13.6353 8.96762 13.6271 8.94945 13.6184L8.94841 13.6178C8.48169 13.3932 8.28548 12.8326 8.51016 12.366C8.73295 11.9031 9.28598 11.7063 9.75025 11.9221C9.75346 11.9235 9.7615 11.9269 9.7742 11.9317C9.8029 11.9426 9.85459 11.9608 9.92631 11.9801C10.0703 12.0188 10.2905 12.0609 10.5661 12.0609C10.8176 12.0609 11.033 12.0201 11.1828 11.9799C11.1873 11.9787 11.3644 11.939 11.3759 11.9168L12.6117 12.3812ZM11.3759 11.9168L12.6117 12.3812C12.3968 11.9134 11.8448 11.7071 11.3759 11.9168ZM19.0581 13.6166C18.7591 13.3177 18.2744 13.3177 17.9754 13.6166L17.8314 13.7607C17.8805 14.3333 18.3414 14.7941 18.9141 14.8431L19.0581 14.6992C19.357 14.4002 19.357 13.9155 19.0581 13.6166ZM14.7346 16.8574L16.3765 15.2155C16.6406 15.6605 17.0141 16.034 17.4592 16.2981L15.8172 17.9401C15.3588 18.3985 15.2005 18.5528 15.0291 18.676C14.8643 18.7944 14.6872 18.8947 14.5008 18.9751C14.3069 19.0587 14.0932 19.115 13.4642 19.2723L13.3818 19.2929L13.4024 19.2104C13.5596 18.5815 13.6159 18.3677 13.6995 18.1739C13.7799 17.9875 13.8802 17.8104 13.9987 17.6456C14.1218 17.4742 14.2761 17.3159 14.7346 16.8574ZM16.649 12.2902C17.6805 11.2587 19.3529 11.2587 20.3845 12.2902C21.416 13.3218 21.416 14.9941 20.3845 16.0256L17.1436 19.2665L17.0932 19.3169C16.7039 19.7063 16.4343 19.976 16.124 20.1991C15.8493 20.3966 15.5541 20.5637 15.2436 20.6976C14.8926 20.8489 14.5225 20.9414 13.9884 21.0748L13.9192 21.092L12.3202 21.4918C12.0006 21.5717 11.6625 21.4781 11.4295 21.2451C11.1965 21.0121 11.1029 20.6741 11.1828 20.3544L11.5826 18.7554L11.5998 18.6863C11.7333 18.1521 11.8257 17.782 11.977 17.4311C12.111 17.1205 12.2781 16.8254 12.4755 16.5507C12.6986 16.2403 12.9684 15.9707 13.3577 15.5814L13.4082 15.531L16.649 12.2902Z" fill="#9058FF"/>
</svg>
