<svg preserveAspectRatio="none" width="25" height="24" viewBox="0 0 25 24" fill="none" xmlns="http://www.w3.org/2000/svg">
<path vector-effect="non-scaling-stroke" fill-rule="evenodd" clip-rule="evenodd" d="M12.0586 2.05573C12.0586 1.50344 11.6109 1.05573 11.0586 1.05573C10.5063 1.05573 10.0586 1.50344 10.0586 2.05573V4.21588H5.37065C3.77122 4.21588 2.47461 5.51248 2.47461 7.11193V15.9602C2.47461 17.5596 3.77121 18.8562 5.37065 18.8562H9.608C10.1603 18.8562 10.6079 18.4085 10.6079 17.8562C10.6079 17.3039 10.1603 16.8562 9.608 16.8562H5.37065C4.87578 16.8562 4.47461 16.455 4.47461 15.9602V7.11193C4.47461 6.61706 4.87578 6.21588 5.37065 6.21588H16.747C17.2418 6.21588 17.6429 6.61706 17.6429 7.11193V9.69693C17.6429 10.2492 18.0907 10.6969 18.643 10.6969C19.1952 10.6969 19.643 10.2492 19.643 9.69693V7.11193C19.643 5.51248 18.3464 4.21588 16.747 4.21588H12.0586V2.05573ZM8.01954 8.80379C8.57182 8.80379 9.01953 9.25148 9.01953 9.80373V11.0738C9.01953 11.6262 8.57182 12.0739 8.01954 12.0739C7.46724 12.0739 7.01953 11.6262 7.01953 11.0738V9.80373C7.01953 9.25148 7.46724 8.80379 8.01954 8.80379ZM15.0977 9.80373C15.0977 9.25148 14.65 8.80379 14.0976 8.80379C13.5454 8.80379 13.0977 9.25148 13.0977 9.80373V11.0738C13.0977 11.6262 13.5454 12.0739 14.0976 12.0739C14.65 12.0739 15.0977 11.6262 15.0977 11.0738V9.80373ZM13.4134 13.2008C13.6439 13.7026 13.4241 14.2964 12.9222 14.5269L12.9202 14.5279L12.9179 14.5288L12.9129 14.5311L12.9003 14.5367C12.8921 14.5403 12.8822 14.5446 12.8707 14.5494L12.8656 14.5515C12.8382 14.5629 12.8026 14.5772 12.7591 14.5934C12.6724 14.6256 12.5537 14.6655 12.408 14.7045C12.1186 14.7822 11.7119 14.8592 11.2324 14.8592C10.7358 14.8592 10.3251 14.7836 10.0307 14.7044C9.88323 14.6647 9.76374 14.6238 9.6758 14.5903C9.63183 14.5736 9.59557 14.5586 9.56737 14.5464C9.54774 14.5378 9.52811 14.5291 9.50874 14.5198L9.50763 14.5192C9.01002 14.2797 8.80082 13.682 9.04038 13.1845C9.27792 12.691 9.86754 12.4812 10.3625 12.7112C10.366 12.7127 10.3745 12.7163 10.3881 12.7214C10.4187 12.7331 10.4738 12.7525 10.5503 12.773C10.7038 12.8144 10.9385 12.8592 11.2324 12.8592C11.5006 12.8592 11.7302 12.8157 11.8899 12.7729C11.8947 12.7716 12.0835 12.7292 12.0959 12.7056L13.4134 13.2008ZM12.0959 12.7056L13.4134 13.2008C13.1843 12.702 12.5957 12.482 12.0959 12.7056ZM20.2865 14.5179C19.9677 14.1992 19.4509 14.1992 19.1321 14.5179L18.9786 14.6715C19.031 15.2821 19.5224 15.7733 20.133 15.8256L20.2865 15.6722C20.6051 15.3534 20.6051 14.8366 20.2865 14.5179ZM15.6768 17.9732L17.4275 16.2226C17.7089 16.6971 18.1073 17.0954 18.5818 17.3768L16.8311 19.1276C16.3423 19.6163 16.1735 19.7808 15.9908 19.9122C15.8151 20.0384 15.6263 20.1454 15.4276 20.231C15.2208 20.3202 14.993 20.3803 14.3224 20.5479L14.2344 20.5699L14.2565 20.4819C14.424 19.8114 14.4841 19.5835 14.5733 19.3768C14.659 19.1781 14.7659 18.9893 14.8922 18.8136C15.0235 18.6308 15.188 18.4621 15.6768 17.9732ZM17.7179 13.1037C18.8177 12.0039 20.6009 12.0039 21.7007 13.1037C22.8005 14.2035 22.8005 15.9866 21.7007 17.0864L18.2453 20.5418L18.1915 20.5955C17.7765 21.0107 17.489 21.2983 17.1581 21.5361C16.8653 21.7466 16.5506 21.9248 16.2195 22.0676C15.8453 22.229 15.4507 22.3275 14.8812 22.4697L14.8074 22.4882L13.1026 22.9144C12.7619 22.9996 12.4013 22.8998 12.1529 22.6514C11.9045 22.403 11.8048 22.0425 11.8899 21.7017L12.3161 19.9969L12.3346 19.9232C12.4769 19.3536 12.5753 18.959 12.7367 18.5849C12.8795 18.2537 13.0577 17.939 13.2682 17.6462C13.506 17.3153 13.7937 17.0278 14.2088 16.6128L14.2626 16.559L17.7179 13.1037Z" fill="#9058FF"/>
</svg>
