<svg preserveAspectRatio="none" width="25" height="24" viewBox="0 0 25 24" fill="none" xmlns="http://www.w3.org/2000/svg">
<path vector-effect="non-scaling-stroke" fill-rule="evenodd" clip-rule="evenodd" d="M11.7186 2.05573C11.7186 1.50344 11.2709 1.05573 10.7186 1.05573C10.1663 1.05573 9.7186 1.50344 9.7186 2.05573V4.21588H5.03066C3.43122 4.21588 2.13461 5.51248 2.13461 7.11193V15.9602C2.13461 17.5596 3.43121 18.8562 5.03066 18.8562H9.268C9.82026 18.8562 10.2679 18.4085 10.2679 17.8562C10.2679 17.3039 9.82026 16.8562 9.268 16.8562H5.03066C4.53579 16.8562 4.13461 16.455 4.13461 15.9602V7.11193C4.13461 6.61706 4.53579 6.21588 5.03066 6.21588H16.407C16.9018 6.21588 17.3029 6.61706 17.3029 7.11193V9.69693C17.3029 10.2492 17.7507 10.6969 18.303 10.6969C18.8552 10.6969 19.303 10.2492 19.303 9.69693V7.11193C19.303 5.51248 18.0064 4.21588 16.407 4.21588H11.7186V2.05573ZM7.67954 8.80379C8.23182 8.80379 8.67953 9.25148 8.67953 9.80373V11.0738C8.67953 11.6262 8.23182 12.0739 7.67954 12.0739C7.12725 12.0739 6.67954 11.6262 6.67954 11.0738V9.80373C6.67954 9.25148 7.12725 8.80379 7.67954 8.80379ZM14.7577 9.80373C14.7577 9.25148 14.31 8.80379 13.7576 8.80379C13.2054 8.80379 12.7577 9.25148 12.7577 9.80373V11.0738C12.7577 11.6262 13.2054 12.0739 13.7576 12.0739C14.31 12.0739 14.7577 11.6262 14.7577 11.0738V9.80373ZM13.0734 13.2008C13.3039 13.7026 13.0841 14.2964 12.5822 14.5269L12.5802 14.5279L12.5779 14.5288L12.5729 14.5311L12.5603 14.5367C12.5521 14.5403 12.5422 14.5446 12.5307 14.5494L12.5256 14.5515C12.4982 14.5629 12.4626 14.5772 12.4191 14.5934C12.3324 14.6256 12.2137 14.6655 12.068 14.7045C11.7786 14.7822 11.3719 14.8592 10.8924 14.8592C10.3958 14.8592 9.98509 14.7836 9.69075 14.7044C9.54323 14.6647 9.42375 14.6238 9.3358 14.5903C9.29183 14.5736 9.25558 14.5586 9.22738 14.5464C9.20775 14.5378 9.18812 14.5291 9.16875 14.5198L9.16763 14.5192C8.67003 14.2797 8.46082 13.682 8.70038 13.1845C8.93792 12.691 9.52755 12.4812 10.0225 12.7112C10.026 12.7127 10.0345 12.7163 10.0481 12.7214C10.0787 12.7331 10.1338 12.7525 10.2103 12.773C10.3638 12.8144 10.5985 12.8592 10.8924 12.8592C11.1606 12.8592 11.3902 12.8157 11.5499 12.7729C11.5547 12.7716 11.7435 12.7292 11.7559 12.7056L13.0734 13.2008ZM11.7559 12.7056L13.0734 13.2008C12.8443 12.702 12.2557 12.482 11.7559 12.7056ZM19.9465 14.5179C19.6277 14.1992 19.1109 14.1992 18.7921 14.5179L18.6386 14.6715C18.691 15.2821 19.1824 15.7733 19.793 15.8256L19.9465 15.6722C20.2651 15.3534 20.2651 14.8366 19.9465 14.5179ZM15.3368 17.9732L17.0875 16.2226C17.3689 16.6971 17.7673 17.0954 18.2418 17.3768L16.4911 19.1276C16.0023 19.6163 15.8335 19.7808 15.6508 19.9122C15.4751 20.0384 15.2863 20.1454 15.0876 20.231C14.8808 20.3202 14.653 20.3803 13.9824 20.5479L13.8944 20.5699L13.9165 20.4819C14.084 19.8114 14.1441 19.5835 14.2333 19.3768C14.319 19.1781 14.4259 18.9893 14.5522 18.8136C14.6835 18.6308 14.848 18.4621 15.3368 17.9732ZM17.3779 13.1037C18.4777 12.0039 20.2609 12.0039 21.3607 13.1037C22.4605 14.2035 22.4605 15.9866 21.3607 17.0864L17.9053 20.5418L17.8515 20.5955C17.4365 21.0107 17.149 21.2983 16.8181 21.5361C16.5253 21.7466 16.2106 21.9248 15.8795 22.0676C15.5053 22.229 15.1107 22.3275 14.5412 22.4697L14.4674 22.4882L12.7626 22.9144C12.4219 22.9996 12.0613 22.8998 11.8129 22.6514C11.5645 22.403 11.4648 22.0425 11.5499 21.7017L11.9761 19.9969L11.9946 19.9232C12.1369 19.3536 12.2353 18.959 12.3967 18.5849C12.5395 18.2537 12.7177 17.939 12.9282 17.6462C13.166 17.3153 13.4537 17.0278 13.8688 16.6128L13.9226 16.559L17.3779 13.1037Z" fill="#9058FF"/>
</svg>
