<svg preserveAspectRatio="none" width="13" height="16" viewBox="0 0 13 16" fill="none" xmlns="http://www.w3.org/2000/svg">
<path vector-effect="non-scaling-stroke" d="M3.02003 14.8395C2.77003 14.6795 2.51003 14.4495 2.25003 14.1295C2.07003 13.9195 1.85003 13.6195 1.59003 13.2295C1.14003 12.5795 0.770029 11.8295 0.490029 10.9795C0.180029 10.0495 0.0300293 9.15953 0.0300293 8.28953C0.0300293 7.31953 0.240029 6.46953 0.650029 5.75953C0.970029 5.18953 1.40003 4.73953 1.95003 4.40953C2.50003 4.06953 3.08003 3.89953 3.71003 3.88953C3.93003 3.88953 4.16003 3.91953 4.41003 3.97953C4.59003 4.02953 4.81003 4.10953 5.07003 4.20953C5.41003 4.33953 5.60003 4.41953 5.66003 4.43953C5.86003 4.50953 6.03003 4.53953 6.16003 4.53953C6.26003 4.53953 6.40003 4.50953 6.56003 4.45953C6.65003 4.42953 6.82003 4.36953 7.06003 4.26953C7.30003 4.17953 7.49003 4.10953 7.64003 4.04953C7.87003 3.97953 8.09003 3.91953 8.29003 3.88953C8.53003 3.84953 8.77003 3.83953 9.00003 3.85953C9.44003 3.88953 9.84003 3.97953 10.2 4.11953C10.83 4.36953 11.34 4.76953 11.72 5.32953C11.56 5.42953 11.41 5.53953 11.27 5.66953C10.96 5.94953 10.7 6.25953 10.51 6.59953C10.24 7.07953 10.11 7.60953 10.11 8.15953C10.12 8.82953 10.29 9.41953 10.63 9.92953C10.87 10.2995 11.19 10.6195 11.58 10.8795C11.77 11.0095 11.94 11.0995 12.1 11.1595C12.02 11.4195 11.93 11.6495 11.85 11.8395C11.63 12.3595 11.37 12.8295 11.08 13.2695C10.81 13.6595 10.6 13.9495 10.44 14.1395C10.19 14.4395 9.95003 14.6595 9.71003 14.8195C9.43003 14.9995 9.13003 15.0895 8.81003 15.0895C8.59003 15.0995 8.38003 15.0695 8.17003 15.0095C8.05003 14.9695 7.87003 14.9095 7.64003 14.8095C7.41003 14.7095 7.22003 14.6395 7.08003 14.5995C6.85003 14.5395 6.61003 14.5095 6.36003 14.5095C6.11003 14.5095 5.87003 14.5395 5.64003 14.5995C5.48003 14.6395 5.30003 14.7095 5.08003 14.7995C4.82003 14.9095 4.65003 14.9795 4.55003 15.0095C4.35003 15.0695 4.14003 15.1095 3.94003 15.1195C3.62003 15.1195 3.32003 15.0295 3.02003 14.8395ZM7.26003 3.41953C6.84003 3.62953 6.44003 3.71953 6.04003 3.68953C5.98003 3.28953 6.04003 2.87953 6.21003 2.42953C6.36003 2.04953 6.56003 1.69953 6.83003 1.38953C7.10003 1.07953 7.43003 0.819531 7.84003 0.609531C8.25003 0.399531 8.64003 0.289531 9.01003 0.269531C9.06003 0.689531 9.01003 1.10953 8.86003 1.54953C8.72003 1.94953 8.51003 2.30953 8.24003 2.63953C7.97003 2.96953 7.64003 3.22953 7.26003 3.41953Z" fill="#1D1D1F"/>
</svg>
