<svg preserveAspectRatio="none" width="155" height="38" viewBox="0 0 155 38" fill="none" xmlns="http://www.w3.org/2000/svg">
<g clip-path="url(#clip0_162_3122)">
<path vector-effect="non-scaling-stroke" d="M26.4518 36.1527C24.4506 38.0948 22.239 37.792 20.1345 36.8764C17.897 35.9422 15.8478 35.8832 13.4848 36.8764C10.5385 38.1465 8.97666 37.7773 7.20441 36.1527C-2.8125 25.8441 -1.33563 10.1412 10.0437 9.55047C12.8055 9.69816 14.7365 11.0753 16.361 11.1898C18.7757 10.6987 21.0907 9.29202 23.679 9.47662C26.7878 9.72769 29.1102 10.9535 30.6609 13.1614C24.2697 17.0013 25.7872 25.4269 31.6578 27.7936C30.4837 30.8803 28.9736 33.9263 26.4481 36.1822L26.4518 36.1527ZM16.1432 9.4397C15.8441 4.8577 19.5548 1.08797 23.8266 0.71875C24.4137 6.00227 19.0231 9.95661 16.1432 9.4397ZM36.6829 37.109H41.4827V12.0575H41.6489L51.8799 37.109H55.7862L66.0173 12.0575H66.1835V37.109H70.9833V3.16298H64.9096L53.8995 30.26H53.7592L42.775 3.16298H36.6829V37.109ZM84.253 37.6407C88.0154 37.6407 90.5334 35.9238 91.8257 33.4316H91.9439V37.1496H97.0502V12.4008H91.9439V26.8447C91.9439 30.703 89.6399 33.2654 86.0622 33.2654C82.5325 33.2654 80.7934 31.1941 80.7934 27.4539V12.4008H75.713V28.4434C75.713 34.1368 78.8181 37.6407 84.253 37.6407ZM110.353 37.6407C116.176 37.6407 120.403 34.5429 120.403 30.0347V30.0126C120.403 26.4681 118.48 24.4706 113.429 23.2965L109.415 22.3808C106.761 21.7458 105.753 20.7157 105.753 19.1871V19.1649C105.753 17.1933 107.466 15.901 110.191 15.901C113.056 15.901 114.747 17.4038 115.05 19.5637L115.072 19.7298H119.838L119.816 19.4492C119.558 15.2475 116.035 11.9836 110.191 11.9836C104.508 11.9836 100.657 15.0112 100.657 19.4271V19.4492C100.657 23.0417 102.984 25.294 107.676 26.3758L111.716 27.2914C114.37 27.9265 115.26 28.8422 115.26 30.4372V30.4593C115.26 32.4568 113.429 33.7232 110.375 33.7232C107.252 33.7232 105.561 32.3867 105.092 30.1086L105.044 29.8723H100.022L100.045 30.0827C100.561 34.5872 104.18 37.6407 110.353 37.6407ZM126.259 8.43173C127.935 8.43173 129.231 7.10993 129.231 5.50752C129.231 3.87926 127.935 2.55746 126.259 2.55746C124.609 2.55746 123.287 3.87926 123.287 5.50752C123.287 7.10993 124.609 8.43173 126.259 8.43173ZM123.711 37.0721H128.807V12.2532H123.711V37.0721ZM143.616 37.6407C149.557 37.6407 153.692 33.8377 154.231 28.8791L154.253 28.7129H149.368L149.346 28.9012C148.737 31.5781 146.74 33.3872 143.616 33.3872C139.695 33.3872 137.088 30.2157 137.088 24.814V24.7918C137.088 19.5083 139.647 16.2186 143.594 16.2186C146.906 16.2186 148.785 18.2603 149.324 20.6824L149.372 20.8707H154.209L154.187 20.7046C153.766 16.0561 149.911 11.9689 143.55 11.9689C136.505 11.9689 131.901 16.9238 131.901 24.7438V24.766C131.897 32.6857 136.405 37.6407 143.616 37.6407Z" fill="#1D1D1F"/>
</g>
<defs>
<clipPath id="clip0_162_3122">
<rect vector-effect="non-scaling-stroke" width="153.964" height="36.9219" fill="white" transform="translate(0.517822 0.71875)"/>
</clipPath>
</defs>
</svg>
