<svg preserveAspectRatio="none" width="26" height="17" viewBox="0 0 26 17" fill="none" xmlns="http://www.w3.org/2000/svg">
<path vector-effect="non-scaling-stroke" d="M16.4169 17C16.1498 17 15.8827 16.9127 15.6719 16.7258C15.2642 16.3643 15.2642 15.7659 15.6719 15.4044L23.4593 8.49843L15.6719 1.59249C15.2642 1.23098 15.2642 0.632631 15.6719 0.271128C16.0795 -0.0903759 16.7542 -0.0903759 17.1619 0.271128L25.6943 7.83775C26.1019 8.19925 26.1019 8.7976 25.6943 9.15911L17.1619 16.7258C16.951 16.9127 16.684 17 16.4169 17Z" fill="black"/>
<path vector-effect="non-scaling-stroke" d="M24.7116 9.4332H1.05425C0.477926 9.4332 0 9.00937 0 8.49828C0 7.98719 0.477926 7.56335 1.05425 7.56335H24.7116C25.2879 7.56335 25.7658 7.98719 25.7658 8.49828C25.7658 9.00937 25.2879 9.4332 24.7116 9.4332Z" fill="black"/>
</svg>
