<svg preserveAspectRatio="none" width="14" height="14" viewBox="0 0 14 14" fill="none" xmlns="http://www.w3.org/2000/svg">
<path vector-effect="non-scaling-stroke" d="M7.19827 13.2237C8.60827 13.2237 10.0483 12.8484 11.0683 12.2937L10.5429 11.0937C9.67294 11.5584 8.47294 11.8884 7.22827 11.8884C4.36294 11.8884 2.20294 9.7437 2.20294 6.8937C2.20294 4.0437 4.28827 1.9137 7.12294 1.9137C9.89827 1.9137 11.9683 3.8037 11.9683 6.33837C11.9683 7.77837 11.1883 8.8737 10.1683 8.8737H9.94294C9.92827 8.5737 9.91294 8.2437 9.91294 7.92837V6.0537C9.91294 4.50837 8.75827 3.42837 7.15294 3.42837C5.63827 3.42837 4.48294 4.44837 4.36294 5.82837L6.01294 5.9037C6.05827 5.25837 6.50827 4.8237 7.12294 4.8237C7.76827 4.8237 8.20294 5.2737 8.20294 5.94837V6.2037L6.94294 6.3237C5.23294 6.45837 4.16827 7.2537 4.16827 8.3937C4.16827 9.3837 5.00827 10.0737 6.19294 10.0737C7.19827 10.0737 7.91827 9.54837 8.27827 8.70837C8.27827 9.2037 8.30827 9.6237 8.35294 9.93837H9.43294C11.7583 9.93837 13.3929 8.3637 13.3929 6.03837C13.3929 2.9637 10.6929 0.578369 7.16827 0.578369C3.53827 0.578369 0.762939 3.3537 0.762939 6.8937C0.762939 10.5084 3.50827 13.2237 7.19827 13.2237ZM5.87827 8.2137C5.87827 7.6737 6.35827 7.29837 7.15294 7.20837L8.23294 7.1037V7.32837C8.23294 8.2137 7.63294 8.97837 6.77827 8.97837C6.25294 8.97837 5.87827 8.67837 5.87827 8.2137Z" fill="white" fill-opacity="0.54"/>
</svg>
