<svg preserveAspectRatio="none" width="12" height="13" viewBox="0 0 12 13" fill="none" xmlns="http://www.w3.org/2000/svg">
<path vector-effect="non-scaling-stroke" d="M11.4375 6.09375C11.4375 6.24293 11.3782 6.38601 11.2727 6.4915C11.1673 6.59699 11.0242 6.65625 10.875 6.65625H6.5625V10.9688C6.5625 11.1179 6.50324 11.261 6.39775 11.3665C6.29226 11.472 6.14918 11.5312 6 11.5312C5.85082 11.5312 5.70774 11.472 5.60225 11.3665C5.49676 11.261 5.4375 11.1179 5.4375 10.9688V6.65625H1.125C0.975816 6.65625 0.832742 6.59699 0.727252 6.4915C0.621763 6.38601 0.5625 6.24293 0.5625 6.09375C0.5625 5.94457 0.621763 5.80149 0.727252 5.696C0.832742 5.59051 0.975816 5.53125 1.125 5.53125H5.4375V1.21875C5.4375 1.06957 5.49676 0.926492 5.60225 0.821002C5.70774 0.715513 5.85082 0.65625 6 0.65625C6.14918 0.65625 6.29226 0.715513 6.39775 0.821002C6.50324 0.926492 6.5625 1.06957 6.5625 1.21875V5.53125H10.875C11.0242 5.53125 11.1673 5.59051 11.2727 5.696C11.3782 5.80149 11.4375 5.94457 11.4375 6.09375Z" fill="black"/>
</svg>
