<svg preserveAspectRatio="none" width="70" height="7" viewBox="0 0 70 7" fill="none" xmlns="http://www.w3.org/2000/svg">
<path vector-effect="non-scaling-stroke" d="M2.85461 0.731003C3.24422 0.703044 3.63519 0.761904 3.9993 0.903337C4.36341 1.04477 4.6916 1.26525 4.96018 1.54888C5.22877 1.8325 5.43106 2.1722 5.55246 2.54347C5.67386 2.91474 5.71135 3.30833 5.66223 3.69584C5.66223 5.60209 4.63196 6.69784 2.85461 6.69784H0.699341V0.731003H2.85461ZM1.62609 5.854H2.75109C3.0295 5.87065 3.30811 5.825 3.56665 5.72038C3.82519 5.61577 4.05715 5.45482 4.24564 5.24925C4.43413 5.04369 4.57441 4.79868 4.65628 4.53206C4.73814 4.26544 4.75952 3.98393 4.71886 3.708C4.75657 3.43317 4.73302 3.1534 4.6499 2.88873C4.56678 2.62407 4.42615 2.38107 4.23809 2.17714C4.05003 1.97321 3.81918 1.8134 3.5621 1.70916C3.30502 1.60493 3.02807 1.55884 2.75109 1.57421H1.62609V5.854Z" fill="white"/>
<path vector-effect="non-scaling-stroke" d="M6.70911 4.44434C6.6808 4.14843 6.71466 3.84986 6.8085 3.56779C6.90234 3.28572 7.05409 3.02638 7.25403 2.80639C7.45398 2.58641 7.69769 2.41065 7.96954 2.29037C8.24139 2.1701 8.53538 2.10797 8.83265 2.10797C9.12992 2.10797 9.42391 2.1701 9.69576 2.29037C9.96761 2.41065 10.2113 2.58641 10.4113 2.80639C10.6112 3.02638 10.763 3.28572 10.8568 3.56779C10.9506 3.84986 10.9845 4.14843 10.9562 4.44434C10.985 4.74057 10.9516 5.03955 10.858 5.32207C10.7644 5.6046 10.6127 5.86441 10.4127 6.08483C10.2127 6.30524 9.96885 6.48138 9.69672 6.60191C9.4246 6.72245 9.13027 6.78472 8.83265 6.78472C8.53502 6.78472 8.24069 6.72245 7.96857 6.60191C7.69644 6.48138 7.45255 6.30524 7.25256 6.08483C7.05256 5.86441 6.9009 5.6046 6.80731 5.32207C6.71371 5.03955 6.68026 4.74057 6.70911 4.44434ZM10.0421 4.44434C10.0421 3.46827 9.60363 2.89747 8.83411 2.89747C8.06165 2.89747 7.62711 3.46827 7.62711 4.44435C7.62711 5.42824 8.06168 5.99464 8.83411 5.99464C9.60365 5.99463 10.0421 5.42432 10.0421 4.44434H10.0421Z" fill="white"/>
<path vector-effect="non-scaling-stroke" d="M16.6017 6.69775H15.6798L14.7491 3.38134H14.6788L13.7521 6.69775H12.839L11.5978 2.19482H12.4991L13.3058 5.63082H13.3722L14.298 2.19482H15.1505L16.0763 5.63082H16.1466L16.9493 2.19482H17.838L16.6017 6.69775Z" fill="white"/>
<path vector-effect="non-scaling-stroke" d="M18.882 2.19482H19.7374V2.91015H19.8038C19.9165 2.65323 20.1065 2.43786 20.3474 2.29405C20.5882 2.15025 20.868 2.08517 21.1476 2.1079C21.3667 2.09143 21.5867 2.12447 21.7913 2.20456C21.9959 2.28466 22.1798 2.40976 22.3295 2.57061C22.4792 2.73145 22.5908 2.92391 22.656 3.13373C22.7212 3.34355 22.7383 3.56535 22.7062 3.7827V6.6977H21.8175V4.00586C21.8175 3.28223 21.5031 2.92236 20.8458 2.92236C20.6971 2.91544 20.5486 2.94075 20.4105 2.99658C20.2725 3.05241 20.1481 3.13744 20.046 3.24582C19.9439 3.35421 19.8664 3.48339 19.8188 3.62452C19.7713 3.76565 19.7549 3.91539 19.7706 4.06347V6.69775H18.882L18.882 2.19482Z" fill="white"/>
<path vector-effect="non-scaling-stroke" d="M24.1222 0.437004H25.0109V6.69774H24.1222V0.437004Z" fill="white"/>
<path vector-effect="non-scaling-stroke" d="M26.2462 4.44434C26.2179 4.14841 26.2518 3.84982 26.3456 3.56774C26.4395 3.28566 26.5913 3.02631 26.7913 2.80632C26.9912 2.58634 27.2349 2.41057 27.5068 2.29029C27.7787 2.17001 28.0727 2.10788 28.37 2.10788C28.6673 2.10788 28.9613 2.17001 29.2331 2.29029C29.505 2.41057 29.7487 2.58634 29.9487 2.80632C30.1487 3.02631 30.3004 3.28566 30.3943 3.56774C30.4882 3.84982 30.522 4.14841 30.4938 4.44434C30.5226 4.74058 30.4891 5.03956 30.3955 5.32209C30.3018 5.60461 30.1501 5.86442 29.9501 6.08483C29.7501 6.30524 29.5062 6.48137 29.2341 6.60189C28.9619 6.72242 28.6676 6.78469 28.37 6.78469C28.0723 6.78469 27.778 6.72242 27.5059 6.60189C27.2337 6.48137 26.9898 6.30524 26.7898 6.08483C26.5898 5.86442 26.4381 5.60461 26.3445 5.32209C26.2509 5.03956 26.2174 4.74058 26.2462 4.44434ZM29.5792 4.44434C29.5792 3.46827 29.1407 2.89747 28.3712 2.89747C27.5987 2.89747 27.1642 3.46827 27.1642 4.44435C27.1642 5.42824 27.5988 5.99464 28.3712 5.99464C29.1407 5.99463 29.5792 5.42432 29.5792 4.44434H29.5792Z" fill="white"/>
<path vector-effect="non-scaling-stroke" d="M31.4293 5.42432C31.4293 4.61377 32.0328 4.14649 33.1041 4.08008L34.3239 4.00977V3.6211C34.3239 3.14551 34.0094 2.87696 33.402 2.87696C32.9059 2.87696 32.5621 3.05909 32.4635 3.37745H31.6031C31.694 2.60401 32.4215 2.10792 33.443 2.10792C34.5719 2.10792 35.2086 2.66992 35.2086 3.6211V6.69776H34.3531V6.06495H34.2828C34.1401 6.29195 33.9397 6.47699 33.7021 6.60121C33.4645 6.72542 33.1981 6.78434 32.9303 6.77195C32.7413 6.79162 32.5502 6.77145 32.3694 6.71275C32.1887 6.65405 32.0222 6.55813 31.8808 6.43116C31.7394 6.30419 31.6262 6.14899 31.5484 5.97558C31.4706 5.80216 31.4301 5.61438 31.4293 5.42432ZM34.3239 5.03955V4.66309L33.2242 4.7334C32.6041 4.7749 32.3229 4.98584 32.3229 5.38281C32.3229 5.78808 32.6744 6.02392 33.1579 6.02392C33.2995 6.03826 33.4426 6.02396 33.5786 5.98187C33.7146 5.93978 33.8408 5.87076 33.9495 5.77892C34.0583 5.68708 34.1475 5.57429 34.2118 5.44727C34.2761 5.32025 34.3142 5.1816 34.3239 5.03955Z" fill="white"/>
<path vector-effect="non-scaling-stroke" d="M36.3766 4.44434C36.3766 3.02149 37.108 2.12012 38.2457 2.12012C38.5271 2.10716 38.8064 2.17456 39.051 2.31446C39.2955 2.45435 39.4951 2.66096 39.6266 2.91012H39.693V0.437004H40.5817V6.69774H39.7301V5.98631H39.6598C39.5182 6.2338 39.3116 6.43784 39.0623 6.57632C38.8131 6.7148 38.5307 6.78246 38.2457 6.77195C37.1002 6.772 36.3766 5.87061 36.3766 4.44434ZM37.2946 4.44434C37.2946 5.39942 37.7448 5.97413 38.4977 5.97413C39.2467 5.97413 39.7096 5.39113 39.7096 4.44825C39.7096 3.50977 39.2419 2.91846 38.4977 2.91846C37.7496 2.91846 37.2946 3.49707 37.2946 4.44434H37.2946Z" fill="white"/>
<path vector-effect="non-scaling-stroke" d="M44.2584 4.44434C44.2301 4.14843 44.264 3.84986 44.3578 3.56779C44.4516 3.28572 44.6034 3.02638 44.8034 2.80639C45.0033 2.58641 45.247 2.41065 45.5188 2.29037C45.7907 2.1701 46.0847 2.10797 46.382 2.10797C46.6792 2.10797 46.9732 2.1701 47.2451 2.29037C47.5169 2.41065 47.7606 2.58641 47.9606 2.80639C48.1605 3.02638 48.3123 3.28572 48.4061 3.56779C48.5 3.84986 48.5338 4.14843 48.5055 4.44434C48.5343 4.74057 48.5009 5.03955 48.4073 5.32207C48.3137 5.6046 48.162 5.86441 47.962 6.08483C47.7621 6.30524 47.5182 6.48138 47.246 6.60191C46.9739 6.72245 46.6796 6.78472 46.382 6.78472C46.0843 6.78472 45.79 6.72245 45.5179 6.60191C45.2458 6.48138 45.0019 6.30524 44.8019 6.08483C44.6019 5.86441 44.4502 5.6046 44.3566 5.32207C44.263 5.03955 44.2296 4.74057 44.2584 4.44434ZM47.5914 4.44434C47.5914 3.46827 47.1529 2.89747 46.3834 2.89747C45.611 2.89747 45.1764 3.46827 45.1764 4.44435C45.1764 5.42824 45.611 5.99464 46.3834 5.99464C47.153 5.99463 47.5914 5.42432 47.5914 4.44434Z" fill="white"/>
<path vector-effect="non-scaling-stroke" d="M49.6979 2.19482H50.5533V2.91015H50.6198C50.7324 2.65323 50.9224 2.43786 51.1633 2.29405C51.4042 2.15025 51.6839 2.08517 51.9635 2.1079C52.1826 2.09143 52.4026 2.12447 52.6072 2.20456C52.8118 2.28466 52.9958 2.40976 53.1454 2.57061C53.2951 2.73145 53.4067 2.92391 53.4719 3.13373C53.5371 3.34355 53.5543 3.56535 53.5221 3.7827V6.6977H52.6334V4.00586C52.6334 3.28223 52.319 2.92236 51.6618 2.92236C51.513 2.91544 51.3645 2.94075 51.2264 2.99658C51.0884 3.05241 50.964 3.13744 50.8619 3.24582C50.7598 3.35421 50.6823 3.48339 50.6348 3.62452C50.5872 3.76565 50.5708 3.91539 50.5865 4.06347V6.69775H49.6979V2.19482Z" fill="white"/>
<path vector-effect="non-scaling-stroke" d="M58.5436 1.07373V2.21533H59.5192V2.96387H58.5436V5.2793C58.5436 5.75098 58.7379 5.95752 59.1803 5.95752C59.2936 5.95716 59.4067 5.95031 59.5192 5.93701V6.67724C59.3596 6.70579 59.1979 6.72098 59.0358 6.72265C58.0475 6.72265 57.6539 6.37499 57.6539 5.50683V2.96383H56.9391V2.21529H57.6539V1.07373H58.5436Z" fill="white"/>
<path vector-effect="non-scaling-stroke" d="M60.733 0.437004H61.6139V2.91845H61.6842C61.8023 2.65913 61.9976 2.44254 62.2432 2.29819C62.4889 2.15385 62.7732 2.08876 63.0572 2.11181C63.2752 2.09995 63.493 2.13634 63.6953 2.21838C63.8976 2.30043 64.0793 2.4261 64.2274 2.58644C64.3755 2.74678 64.4864 2.93783 64.5522 3.14596C64.618 3.3541 64.637 3.57418 64.608 3.79052V6.69775H63.7184V4.00975C63.7184 3.29051 63.3834 2.92625 62.7555 2.92625C62.6028 2.91373 62.4492 2.93473 62.3054 2.98778C62.1616 3.04083 62.0312 3.12466 61.9232 3.2334C61.8152 3.34213 61.7322 3.47316 61.6802 3.61729C61.6281 3.76143 61.6082 3.9152 61.6217 4.06785V6.69773H60.7331L60.733 0.437004Z" fill="white"/>
<path vector-effect="non-scaling-stroke" d="M69.7897 5.48193C69.6689 5.89347 69.4073 6.24946 69.0507 6.48761C68.694 6.72576 68.2649 6.83091 67.8385 6.78466C67.5418 6.7925 67.247 6.73567 66.9745 6.61815C66.702 6.50062 66.4584 6.3252 66.2605 6.10406C66.0625 5.88292 65.9151 5.62136 65.8284 5.33754C65.7417 5.05372 65.7179 4.75443 65.7584 4.46045C65.7189 4.16557 65.7432 3.86564 65.8297 3.58096C65.9162 3.29629 66.0629 3.03352 66.2597 2.81045C66.4566 2.58738 66.6991 2.40921 66.9708 2.288C67.2425 2.16679 67.5371 2.10538 67.8346 2.10791C69.0875 2.10791 69.8434 2.96391 69.8434 4.37791V4.688H66.6637V4.7378C66.6498 4.90305 66.6706 5.06938 66.7247 5.22613C66.7788 5.38288 66.8651 5.52659 66.978 5.64804C67.0909 5.7695 67.2279 5.86602 67.3803 5.93142C67.5327 5.99682 67.6971 6.02965 67.8629 6.0278C68.0755 6.05332 68.2909 6.01505 68.4816 5.91784C68.6724 5.82063 68.8299 5.66889 68.9342 5.4819L69.7897 5.48193ZM66.6637 4.03076H68.9381C68.9493 3.87964 68.9287 3.72784 68.8778 3.58512C68.8268 3.4424 68.7466 3.31192 68.6422 3.20206C68.5378 3.09221 68.4116 3.0054 68.2717 2.94722C68.1317 2.88905 67.9812 2.86079 67.8297 2.86426C67.676 2.86233 67.5235 2.89119 67.3811 2.94914C67.2387 3.00708 67.1094 3.09294 67.0007 3.20165C66.8921 3.31037 66.8063 3.43973 66.7484 3.58213C66.6905 3.72452 66.6617 3.87707 66.6637 4.03076H66.6637Z" fill="white"/>
</svg>
