<svg preserveAspectRatio="none" width="24" height="24" viewBox="0 0 24 24" fill="none" xmlns="http://www.w3.org/2000/svg">
<path vector-effect="non-scaling-stroke" fill-rule="evenodd" clip-rule="evenodd" d="M18.4974 7.07562C19.3502 7.07562 20.0964 7.84033 19.9898 8.71428V16.3613C19.9898 17.2353 19.2436 18 18.3908 18H5.59898C4.74619 18 4 17.2353 4 16.3613V8.93277C4 8.05882 4.74619 7.07562 5.59898 7.07562H6.98477C7.30456 7.07562 7.51776 6.85714 7.62436 6.63866L8.15735 5.43698C8.26395 5.21849 8.58375 5 8.79695 5H15.2995C15.6193 5 15.8325 5.21849 15.9391 5.43698L16.4721 6.63866C16.5787 6.85714 16.8985 7.07562 17.1116 7.07562H18.4974ZM16 12C16 14.1714 14.1714 16 12 16C9.82857 16 8 14.1714 8 12C8 9.82857 9.82857 8 12 8C14.1714 8 16 9.82857 16 12ZM12 9.5C13.413 9.5 14.5 10.587 14.5 12C14.5 13.413 13.413 14.5 12 14.5C10.587 14.5 9.5 13.413 9.5 12C9.5 10.587 10.587 9.5 12 9.5Z" fill="#2A5885"/>
</svg>
