<svg preserveAspectRatio="none" width="360" height="62" viewBox="0 0 360 62" fill="none" xmlns="http://www.w3.org/2000/svg">
<path vector-effect="non-scaling-stroke" fill-rule="evenodd" clip-rule="evenodd" d="M107.204 34.25L104.664 33.96C104.054 33.89 103.454 34.1 103.024 34.53L101.184 36.37C98.3537 34.93 96.0337 32.62 94.5937 29.78L96.4437 27.93C96.8737 27.5 97.0837 26.9 97.0137 26.29L96.7237 23.77C96.6037 22.76 95.7537 22 94.7337 22H93.0037C91.8737 22 90.9337 22.94 91.0037 24.07C91.5337 32.61 98.3637 39.43 106.894 39.96C108.024 40.03 108.964 39.09 108.964 37.96V36.23C108.974 35.22 108.214 34.37 107.204 34.25Z" fill="#FF6633"/>
<path vector-effect="non-scaling-stroke" fill-rule="evenodd" clip-rule="evenodd" d="M148 23H132C130.9 23 130 23.9 130 25V37C130 38.1 130.9 39 132 39H148C149.1 39 150 38.1 150 37V25C150 23.9 149.1 23 148 23ZM147.6 27.25L141.06 31.34C140.41 31.75 139.59 31.75 138.94 31.34L132.4 27.25C132.15 27.09 132 26.82 132 26.53C132 25.86 132.73 25.46 133.3 25.81L140 30L146.7 25.81C147.27 25.46 148 25.86 148 26.53C148 26.82 147.85 27.09 147.6 27.25Z" fill="#29CC39"/>
<path vector-effect="non-scaling-stroke" fill-rule="evenodd" clip-rule="evenodd" d="M189 23H171C169.9 23 169 23.9 169 25V38C169 39.1 169.9 40 171 40H189C190.1 40 191 39.1 191 38V25C191 23.9 190.1 23 189 23ZM189 37C189 37.55 188.55 38 188 38H180V25H188C188.55 25 189 25.45 189 26V37ZM187.25 28.5H181.75C181.34 28.5 181 28.84 181 29.25C181 29.66 181.34 30 181.75 30H187.25C187.66 30 188 29.66 188 29.25C188 28.84 187.66 28.5 187.25 28.5ZM187.25 31H181.75C181.34 31 181 31.34 181 31.75C181 32.16 181.34 32.5 181.75 32.5H187.25C187.66 32.5 188 32.16 188 31.75C188 31.34 187.66 31 187.25 31ZM187.25 33.5H181.75C181.34 33.5 181 33.84 181 34.25C181 34.66 181.34 35 181.75 35H187.25C187.66 35 188 34.66 188 34.25C188 33.84 187.66 33.5 187.25 33.5Z" fill="#8833FF"/>
<path vector-effect="non-scaling-stroke" fill-rule="evenodd" clip-rule="evenodd" d="M217.5 34.05L223.55 38.5125C224.237 38.8875 224.737 38.7 224.912 37.875L227.375 26.275C227.625 25.2625 226.987 24.8125 226.325 25.1125L211.875 30.6875C210.887 31.0875 210.9 31.6375 211.7 31.875L215.412 33.0375L224 27.625C224.4 27.375 224.775 27.5125 224.475 27.7875L217.5 34.05Z" fill="#33BFFF"/>
<path vector-effect="non-scaling-stroke" fill-rule="evenodd" clip-rule="evenodd" d="M259.997 21C254.484 21 250 25.4843 250 30.9971C250 33.1834 250.705 35.211 251.904 36.8568L250.658 40.5711L254.502 39.343C256.083 40.3891 257.969 40.9944 260.003 40.9944C265.516 40.9944 270 36.5099 270 30.9973C270 25.4844 265.516 21.0002 260.003 21.0002H259.997V21ZM257.205 26.0781C257.011 25.6138 256.864 25.5962 256.571 25.5843C256.459 25.5771 256.347 25.5732 256.236 25.5727C255.854 25.5727 255.454 25.6843 255.213 25.9311C254.919 26.2308 254.19 26.9302 254.19 28.3643C254.19 29.7984 255.236 31.1854 255.377 31.3794C255.524 31.5732 257.417 34.5588 260.356 35.7756C262.653 36.7277 263.335 36.6395 263.858 36.5278C264.622 36.3633 265.58 35.7988 265.821 35.1173C266.062 34.4354 266.062 33.8535 265.992 33.7301C265.921 33.6067 265.727 33.5364 265.433 33.3893C265.14 33.2423 263.711 32.537 263.441 32.443C263.176 32.3431 262.924 32.3785 262.724 32.6606C262.442 33.0544 262.166 33.4541 261.942 33.695C261.766 33.8831 261.478 33.9066 261.237 33.8066C260.914 33.6716 260.009 33.3539 258.892 32.3607C258.028 31.5909 257.44 30.633 257.27 30.3451C257.1 30.0513 257.252 29.8806 257.387 29.7221C257.534 29.5398 257.675 29.4106 257.822 29.24C257.969 29.0697 258.052 28.9815 258.146 28.7816C258.246 28.5877 258.175 28.3878 258.105 28.2408C258.034 28.0939 257.446 26.6598 257.205 26.0781V26.0781Z" fill="#29CC39"/>
<rect vector-effect="non-scaling-stroke" x="60" y="1" width="240" height="60" rx="30" stroke="#EDEFF2" stroke-width="2"/>
</svg>
