<svg preserveAspectRatio="none" width="28" height="21" viewBox="0 0 28 21" fill="none" xmlns="http://www.w3.org/2000/svg">
<g clip-path="url(#clip0_0_649)">
<path vector-effect="non-scaling-stroke" d="M0.639893 1.75312H27.2799V20.1531H0.639893V1.75312Z" fill="white"/>
<path vector-effect="non-scaling-stroke" d="M5.78344 14.6329C5.78344 14.3078 5.6144 14.3292 5.45232 14.3257V14.2318C5.5928 14.2387 5.7368 14.2387 5.87752 14.2387C6.0288 14.2387 6.23432 14.2318 6.50096 14.2318C7.43392 14.2318 7.942 14.8568 7.942 15.4968C7.942 15.8547 7.7332 16.7544 6.4576 16.7544C6.27392 16.7544 6.1044 16.7474 5.9352 16.7474C5.77304 16.7474 5.6144 16.751 5.45232 16.7545V16.6606C5.66832 16.6388 5.77312 16.6316 5.78336 16.3858V14.633L5.78344 14.6329ZM6.13664 16.3281C6.13664 16.6064 6.33504 16.6389 6.51144 16.6389C7.29 16.6389 7.5456 16.0497 7.5456 15.5111C7.5456 14.8355 7.11312 14.3476 6.41784 14.3476C6.26984 14.3476 6.20184 14.3582 6.13664 14.3621V16.3281ZM8.06848 16.6606H8.13672C8.23752 16.6606 8.30968 16.6606 8.30968 16.5411V15.5618C8.30968 15.403 8.25568 15.3809 8.12232 15.309V15.2511C8.2916 15.2001 8.4936 15.1319 8.50776 15.121C8.5332 15.1066 8.55464 15.1027 8.57272 15.1027C8.59056 15.1027 8.59808 15.1246 8.59808 15.1536V16.5411C8.59808 16.6606 8.67728 16.6606 8.77816 16.6606H8.83936V16.7546C8.71672 16.7546 8.59056 16.7474 8.46112 16.7474C8.33144 16.7474 8.2016 16.751 8.06848 16.7546V16.6606ZM8.45392 14.5462C8.36008 14.5462 8.27744 14.4596 8.27744 14.3656C8.27744 14.2751 8.36392 14.1918 8.45392 14.1918C8.54728 14.1918 8.63056 14.268 8.63056 14.3656C8.63056 14.4632 8.55096 14.5462 8.45392 14.5462ZM9.18168 15.5834C9.18168 15.4498 9.14184 15.4138 8.97288 15.345V15.2765C9.12768 15.2259 9.27528 15.1789 9.44832 15.1028C9.45904 15.1028 9.4696 15.1102 9.4696 15.1389V15.3739C9.67536 15.2259 9.852 15.1027 10.0937 15.1027C10.3996 15.1027 10.5077 15.3269 10.5077 15.6087V16.5411C10.5077 16.6606 10.5869 16.6606 10.6879 16.6606H10.7528V16.7546C10.6264 16.7546 10.5003 16.7474 10.3709 16.7474C10.241 16.7474 10.1112 16.751 9.98168 16.7546V16.6606H10.0463C10.1475 16.6606 10.2191 16.6606 10.2191 16.5411V15.6053C10.2191 15.399 10.0937 15.298 9.88792 15.298C9.7728 15.298 9.58896 15.3919 9.4696 15.4716V16.541C9.4696 16.6606 9.54928 16.6606 9.65032 16.6606H9.71504V16.7546C9.58896 16.7546 9.46272 16.7474 9.33296 16.7474C9.20336 16.7474 9.07344 16.751 8.94384 16.7546V16.6606H9.00888C9.10968 16.6606 9.18168 16.6606 9.18168 16.541V15.5834ZM11.0268 15.757C11.0193 15.7897 11.0193 15.8438 11.0268 15.9668C11.048 16.31 11.2684 16.5918 11.5562 16.5918C11.7546 16.5918 11.9098 16.4834 12.043 16.3498L12.0932 16.4006C11.9274 16.6209 11.722 16.8087 11.4268 16.8087C10.8537 16.8087 10.7384 16.252 10.7384 16.021C10.7384 15.3125 11.2139 15.1027 11.466 15.1027C11.758 15.1027 12.0718 15.287 12.0751 15.6701C12.0751 15.692 12.0751 15.7134 12.0718 15.7354L12.0391 15.757H11.0268ZM11.6647 15.6414C11.7546 15.6414 11.7652 15.5943 11.7652 15.551C11.7652 15.3667 11.6535 15.2185 11.4516 15.2185C11.2321 15.2185 11.0807 15.3809 11.0375 15.6414H11.6647ZM12.1581 16.6606H12.2554C12.356 16.6606 12.4281 16.6606 12.4281 16.5411V15.5257C12.4281 15.4137 12.295 15.3919 12.2408 15.363V15.309C12.5038 15.1968 12.6481 15.1027 12.6808 15.1027C12.7022 15.1027 12.7128 15.1137 12.7128 15.1499V15.4751H12.7204C12.8103 15.3343 12.9619 15.1027 13.1814 15.1027C13.2716 15.1027 13.3868 15.1641 13.3868 15.2943C13.3868 15.3919 13.3185 15.479 13.2177 15.479C13.1055 15.479 13.1055 15.3919 12.9796 15.3919C12.9182 15.3919 12.7166 15.4751 12.7166 15.692V16.5411C12.7166 16.6606 12.7886 16.6606 12.8896 16.6606H13.0912V16.7546C12.893 16.751 12.7422 16.7474 12.587 16.7474C12.4393 16.7474 12.2878 16.751 12.1582 16.7546L12.1581 16.6606ZM13.5454 16.252C13.5924 16.4906 13.7363 16.6931 13.9995 16.6931C14.2117 16.6931 14.291 16.563 14.291 16.4366C14.291 16.01 13.5058 16.1474 13.5058 15.5655C13.5058 15.363 13.6681 15.1027 14.0642 15.1027C14.1794 15.1027 14.3342 15.1355 14.4747 15.2078L14.5002 15.5762H14.4172C14.3812 15.3487 14.2553 15.2186 14.0244 15.2186C13.8803 15.2186 13.7435 15.3018 13.7435 15.457C13.7435 15.8802 14.5794 15.7498 14.5794 16.3171C14.5794 16.5555 14.3884 16.8088 13.9595 16.8088C13.8154 16.8088 13.6462 16.7582 13.5202 16.6861L13.4804 16.2703L13.5454 16.252ZM17.833 14.8859H17.7432C17.6746 14.4633 17.3756 14.2932 16.9722 14.2932C16.5575 14.2932 15.9558 14.5714 15.9558 15.4387C15.9558 16.1693 16.475 16.6931 17.0297 16.6931C17.3863 16.6931 17.682 16.4474 17.7541 16.0678L17.8367 16.0894L17.7541 16.617C17.6027 16.7112 17.1955 16.8087 16.9574 16.8087C16.1146 16.8087 15.5814 16.263 15.5814 15.4498C15.5814 14.7088 16.2406 14.1774 16.9469 14.1774C17.2386 14.1774 17.5197 14.2717 17.7971 14.3694L17.833 14.8859ZM17.963 16.6606H18.0313C18.1323 16.6606 18.2046 16.6606 18.2046 16.5411V14.5283C18.2046 14.2932 18.1506 14.286 18.0134 14.2463V14.1885C18.1576 14.1416 18.309 14.0765 18.3846 14.033C18.4238 14.0114 18.453 13.9931 18.4637 13.9931C18.4857 13.9931 18.4929 14.015 18.4929 14.044V16.5411C18.4929 16.6606 18.572 16.6606 18.673 16.6606H18.7338V16.7546C18.6118 16.7546 18.4857 16.7474 18.3558 16.7474C18.2262 16.7474 18.0966 16.751 17.963 16.7546V16.6606ZM20.2766 16.5555C20.2766 16.6209 20.3161 16.6244 20.3772 16.6244C20.4206 16.6244 20.4745 16.6209 20.5214 16.6209V16.6969C20.3664 16.7113 20.0709 16.7873 20.0024 16.8087L19.9843 16.7978V16.5054C19.7683 16.6823 19.6024 16.8087 19.3464 16.8087C19.1518 16.8087 18.9501 16.6823 18.9501 16.379V15.4534C18.9501 15.3595 18.9357 15.269 18.7343 15.2511V15.1823C18.8642 15.1788 19.1518 15.1571 19.1989 15.1571C19.2389 15.1571 19.2389 15.1824 19.2389 15.2619V16.1941C19.2389 16.3027 19.2389 16.6134 19.5521 16.6134C19.6745 16.6134 19.8366 16.5195 19.9878 16.3934V15.4206C19.9878 15.3486 19.815 15.309 19.6856 15.2727V15.2077C20.0094 15.1859 20.2116 15.1571 20.2474 15.1571C20.2766 15.1571 20.2766 15.1823 20.2766 15.2223V16.5555ZM20.9936 15.363C21.1376 15.2402 21.332 15.1027 21.5304 15.1027C21.9486 15.1027 22.2005 15.4682 22.2005 15.8618C22.2005 16.3352 21.8547 16.8087 21.3391 16.8087C21.0726 16.8087 20.9322 16.7219 20.8383 16.6823L20.7305 16.7652L20.655 16.7257C20.687 16.5125 20.7054 16.3027 20.7054 16.0824V14.5283C20.7054 14.2932 20.651 14.286 20.5142 14.2463V14.1885C20.6587 14.1416 20.8096 14.0765 20.8854 14.033C20.925 14.0114 20.9537 13.9931 20.9649 13.9931C20.9863 13.9931 20.9935 14.015 20.9935 14.044L20.9936 15.363ZM20.9936 16.346C20.9936 16.4834 21.1231 16.715 21.3646 16.715C21.7502 16.715 21.9122 16.3352 21.9122 16.0134C21.9122 15.6232 21.617 15.298 21.3359 15.298C21.2022 15.298 21.0908 15.3849 20.9935 15.4682L20.9936 16.346ZM5.44824 18.8559H5.47584C5.54624 18.8559 5.62072 18.8463 5.62072 18.7439V17.7137C5.62072 17.6111 5.54624 17.6014 5.47584 17.6014H5.44824V17.5424C5.5248 17.5424 5.6424 17.5502 5.7388 17.5502C5.83664 17.5502 5.95416 17.5424 6.04632 17.5424V17.6014H6.01872C5.9484 17.6014 5.87376 17.6111 5.87376 17.7137V18.7439C5.87376 18.8463 5.9484 18.8559 6.01872 18.8559H6.04632V18.9152C5.95224 18.9152 5.83432 18.9074 5.73656 18.9074C5.64048 18.9074 5.5248 18.9152 5.44824 18.9152V18.8559Z" fill="#211E1F"/>
<path vector-effect="non-scaling-stroke" d="M6.04642 18.9235C5.9517 18.9235 5.83426 18.9156 5.73658 18.9156C5.64074 18.9156 5.52546 18.9235 5.44834 18.9235H5.43994V18.8474H5.47586C5.5469 18.8458 5.61162 18.8401 5.61234 18.7439V17.7137C5.61162 17.6175 5.5469 17.6111 5.47586 17.6098H5.43994V17.5337H5.44834C5.52546 17.5337 5.6429 17.5414 5.73874 17.5414C5.83634 17.5414 5.9537 17.5337 6.04642 17.5337H6.05522V17.6098H6.01898C5.94786 17.6111 5.88274 17.6175 5.88234 17.7137V18.7439C5.88274 18.8401 5.94786 18.8458 6.01898 18.8474H6.05514V18.9234H6.04642V18.9235ZM6.03802 18.9067V18.8647H6.01898C5.94898 18.8647 5.86562 18.8526 5.86522 18.7439V17.7137C5.86562 17.605 5.94898 17.5927 6.01898 17.5927H6.03802V17.551C5.94746 17.551 5.83394 17.5586 5.73882 17.5586C5.64562 17.5586 5.5329 17.5515 5.45706 17.551V17.5927H5.47578C5.5457 17.5927 5.62938 17.605 5.62938 17.7137V18.7439C5.62938 18.8526 5.5457 18.8647 5.47578 18.8647H5.45706V18.9067C5.5329 18.9059 5.6437 18.8988 5.73658 18.8988C5.83202 18.8988 5.94554 18.9062 6.03802 18.9067ZM7.39338 18.5275L7.39738 18.5237V17.7863C7.39738 17.6249 7.28538 17.6015 7.22674 17.6015H7.18346V17.5423C7.27578 17.5423 7.36586 17.5502 7.45794 17.5502C7.53826 17.5502 7.61906 17.5424 7.6993 17.5424V17.6014H7.66994C7.58738 17.6014 7.49522 17.6171 7.49522 17.851V18.7461C7.49522 18.8149 7.49722 18.8835 7.5069 18.9445H7.43226L6.42274 17.8157V18.626C6.42274 18.7971 6.45578 18.8558 6.60698 18.8558H6.64018V18.9152C6.55602 18.9152 6.47186 18.9074 6.38738 18.9074C6.29938 18.9074 6.20914 18.9152 6.12082 18.9152V18.8558H6.14826C6.28354 18.8558 6.32458 18.7637 6.32458 18.6065V17.7782C6.32458 17.6682 6.23418 17.6014 6.14634 17.6014H6.12074V17.5424C6.1953 17.5424 6.2717 17.5502 6.3461 17.5502C6.40498 17.5502 6.46194 17.5424 6.52066 17.5424L7.39338 18.5275Z" fill="#211E1F"/>
<path vector-effect="non-scaling-stroke" d="M7.50686 18.9531L7.42606 18.9501L6.43102 17.8379V18.626C6.43342 18.797 6.45934 18.8455 6.60702 18.8474H6.64902V18.9235H6.64022C6.55542 18.9235 6.47102 18.9156 6.38742 18.9156C6.29958 18.9156 6.20958 18.9236 6.12062 18.9236H6.11206V18.8474H6.14822C6.27782 18.8468 6.31478 18.7634 6.31622 18.6066V17.7783C6.31598 17.6736 6.23038 17.6101 6.1463 17.6098H6.11206V17.534H6.12062C6.19558 17.534 6.27238 17.5415 6.3459 17.5415C6.4043 17.5415 6.4611 17.534 6.52718 17.5369L7.38878 18.5097V17.7865C7.38774 17.63 7.28374 17.6112 7.22662 17.6098H7.1747V17.534H7.18342C7.27606 17.534 7.3663 17.5415 7.4579 17.5415C7.53774 17.5415 7.61806 17.534 7.6991 17.534H7.70766V17.6098H7.6699C7.58902 17.6122 7.5059 17.6192 7.50366 17.8511V18.746C7.50366 18.8147 7.50566 18.8834 7.51518 18.943L7.5171 18.9531H7.50686ZM7.43246 18.9358H7.49726C7.48846 18.8767 7.48686 18.8113 7.48686 18.746V17.8511C7.48686 17.6151 7.5855 17.5927 7.6699 17.5927H7.69062V17.551C7.61334 17.5516 7.5359 17.5586 7.45798 17.5586C7.36822 17.5586 7.28094 17.5516 7.19214 17.551L7.19206 17.5927H7.2267C7.28694 17.5927 7.4059 17.6198 7.4059 17.7865L7.40318 18.5296L7.39918 18.5337L7.39262 18.5398L6.52062 17.551C6.46246 17.551 6.40566 17.5586 6.34598 17.5586C6.27398 17.5586 6.20046 17.5516 6.12942 17.551L6.12894 17.5927H6.14638C6.23838 17.5927 6.33294 17.6632 6.33294 17.7783V18.6065C6.33294 18.7637 6.28926 18.8643 6.1483 18.8649L6.12942 18.8643V18.9067C6.21438 18.9059 6.30166 18.8988 6.38742 18.8988C6.46926 18.8988 6.5507 18.906 6.63174 18.9068V18.8649H6.60694C6.4527 18.8643 6.41438 18.797 6.41414 18.626V17.7936L7.43246 18.9358ZM7.38886 18.5236V18.523L7.38726 18.5216L7.38886 18.5236ZM7.99286 17.6406C7.84558 17.6406 7.84006 17.6761 7.81062 17.8195H7.75174C7.7595 17.7646 7.76934 17.7096 7.77526 17.6523C7.78318 17.5973 7.78694 17.5424 7.78694 17.4854H7.83414C7.8499 17.5445 7.89894 17.5424 7.95206 17.5424H8.96342C9.01646 17.5424 9.06542 17.5406 9.0695 17.4814L9.11622 17.4893C9.10862 17.5424 9.1007 17.5955 9.09478 17.6486C9.09126 17.7017 9.09126 17.7549 9.09126 17.8078L9.03222 17.8298C9.02814 17.757 9.01838 17.6406 8.88718 17.6406H8.56558V18.687C8.56558 18.8386 8.6343 18.8559 8.72806 18.8559H8.7655V18.9152C8.68902 18.9152 8.55158 18.9074 8.44598 18.9074C8.32838 18.9074 8.19094 18.9152 8.11438 18.9152V18.8559H8.15174C8.25982 18.8559 8.31446 18.8462 8.31446 18.691V17.6406H7.99286Z" fill="#211E1F"/>
<path vector-effect="non-scaling-stroke" d="M8.76587 18.9235C8.68867 18.9235 8.55147 18.9156 8.44611 18.9156C8.32867 18.9156 8.19147 18.9235 8.11451 18.9235H8.10635V18.8474H8.15195C8.25995 18.8449 8.30347 18.8434 8.30595 18.691V17.6491H7.99291V17.6318H8.32283V18.691C8.32283 18.8487 8.25955 18.8646 8.15187 18.8648H8.12307V18.9062C8.20035 18.9058 8.33227 18.8987 8.44603 18.8987C8.54827 18.8987 8.67939 18.9058 8.75683 18.9062V18.8648H8.72819C8.63339 18.8646 8.55715 18.8414 8.55715 18.6869V17.6318H8.88723C9.01883 17.6323 9.03603 17.7446 9.04035 17.8175L9.08259 17.8018C9.08259 17.7506 9.08291 17.6991 9.08643 17.6474C9.09211 17.5967 9.09931 17.5466 9.10667 17.4964L9.07675 17.4914C9.06763 17.5486 9.01259 17.5514 8.96315 17.551H7.94203C7.89595 17.551 7.84555 17.5487 7.82795 17.4938H7.79563C7.79539 17.5472 7.79163 17.6005 7.78403 17.6533C7.77835 17.7074 7.76939 17.7593 7.76203 17.8112H7.80403C7.82987 17.6742 7.84667 17.6298 7.99291 17.6318V17.6491C7.84803 17.6517 7.85107 17.6762 7.81915 17.8216L7.81763 17.8282H7.74219L7.74331 17.8181C7.75115 17.763 7.76107 17.7082 7.76691 17.6509C7.77507 17.5963 7.77891 17.5418 7.77891 17.4853V17.4767H7.84107L7.84243 17.4829C7.85587 17.5325 7.89219 17.5328 7.94203 17.5336H8.96339C9.01803 17.5328 9.05779 17.532 9.06115 17.4806L9.06195 17.4713L9.07075 17.4732L9.12611 17.482L9.12491 17.4905C9.11671 17.5432 9.10959 17.5961 9.10355 17.6491C9.09955 17.7014 9.09955 17.7546 9.09955 17.8077V17.8138L9.09419 17.816L9.02467 17.8414L9.02419 17.8298C9.01899 17.756 9.01123 17.649 8.88739 17.649H8.57443V18.6868C8.57619 18.8352 8.63491 18.8454 8.72827 18.8473H8.77427V18.9234H8.76595L8.76587 18.9235ZM9.17907 18.8558H9.20667C9.27707 18.8558 9.35171 18.8463 9.35171 18.7439V17.7137C9.35171 17.6111 9.27715 17.6014 9.20667 17.6014H9.17907V17.5424C9.29843 17.5424 9.50267 17.5502 9.66707 17.5502C9.83211 17.5502 10.0356 17.5424 10.1688 17.5424C10.1658 17.6427 10.1672 17.7431 10.1732 17.8432L10.114 17.859C10.1047 17.7313 10.0812 17.6291 9.87515 17.6291H9.60283V18.1442H9.83595C9.95355 18.1442 9.97915 18.0774 9.99075 17.971H10.0495C10.0416 18.1223 10.0416 18.274 10.0495 18.4254L9.99075 18.4371C9.97923 18.3192 9.97323 18.2426 9.83779 18.2426H9.60291V18.7006C9.60291 18.8286 9.71611 18.8286 9.84179 18.8286C10.0771 18.8286 10.1808 18.8126 10.2397 18.5888L10.2947 18.6022C10.2685 18.7057 10.2464 18.8101 10.2282 18.9152C10.1026 18.9152 9.87699 18.9074 9.70075 18.9074C9.52395 18.9074 9.29091 18.9152 9.17915 18.9152L9.17907 18.8558Z" fill="#211E1F"/>
<path vector-effect="non-scaling-stroke" d="M10.2279 18.9235C10.1019 18.9235 9.87657 18.9155 9.70049 18.9155C9.52385 18.9155 9.29089 18.9235 9.17889 18.9235H9.17065V18.8475H9.20641C9.27753 18.8464 9.34193 18.8401 9.34289 18.744V17.7137C9.34193 17.6177 9.27753 17.6113 9.20641 17.6098H9.17065V17.534H9.17889C9.29857 17.534 9.50249 17.5415 9.66689 17.5415C9.83177 17.5415 10.0352 17.534 10.1687 17.534H10.1775L10.1771 17.5428C10.1757 17.5766 10.1751 17.6105 10.1752 17.6443C10.1752 17.7123 10.1771 17.7866 10.1811 17.8427L10.1814 17.8498L10.1748 17.8517L10.1059 17.8697L10.1055 17.8596C10.0939 17.732 10.077 17.6394 9.87513 17.6375H9.61089L9.61065 18.1353H9.83577C9.94857 18.1342 9.96889 18.0762 9.98217 17.9703L9.98297 17.9626H10.0581L10.0579 17.9714C10.054 18.0479 10.0519 18.1246 10.0517 18.2013C10.0517 18.2757 10.0541 18.3503 10.0579 18.4252L10.0581 18.4322L10.051 18.4338L9.98297 18.4474L9.98217 18.4382C9.96873 18.3182 9.96777 18.2524 9.83753 18.251L9.61089 18.2508V18.7006C9.61105 18.8201 9.71377 18.8194 9.84161 18.8201C10.0776 18.8187 10.1723 18.8073 10.2315 18.5863L10.2334 18.5784L10.2416 18.58L10.3044 18.5962L10.3025 18.6043C10.2772 18.7085 10.2537 18.8124 10.2361 18.9166L10.2345 18.9235H10.2279ZM10.2207 18.9064C10.2384 18.8065 10.2596 18.7072 10.2842 18.6087L10.2454 18.5989C10.1867 18.819 10.073 18.8386 9.84161 18.8371C9.71817 18.8371 9.59441 18.8371 9.59385 18.7006V18.234H9.83753C9.97441 18.2325 9.98841 18.3154 9.99809 18.4274L10.0405 18.4186C10.033 18.2724 10.033 18.1259 10.0405 17.9797L9.99809 17.9796C9.98721 18.082 9.95529 18.154 9.83569 18.1526H9.59385V17.6203H9.87505C10.0791 17.6189 10.1128 17.7245 10.1215 17.8482L10.1639 17.8367C10.1601 17.7727 10.1582 17.7085 10.1581 17.6443C10.1581 17.6106 10.1589 17.5789 10.16 17.551C10.0268 17.5516 9.82825 17.5586 9.66689 17.5586C9.50577 17.5586 9.30745 17.5516 9.18737 17.551V17.5927H9.20641C9.27625 17.5927 9.35977 17.605 9.36001 17.7137V18.744C9.35977 18.8523 9.27625 18.8643 9.20641 18.8649H9.18737V18.9063C9.30177 18.9062 9.52817 18.8989 9.70049 18.8989C9.87337 18.8989 10.0942 18.9062 10.2207 18.9063V18.9064ZM10.5591 17.7508C10.5591 17.6074 10.4808 17.6014 10.4198 17.6014H10.3846V17.5422C10.4474 17.5422 10.5687 17.5502 10.6884 17.5502C10.806 17.5502 10.9003 17.5422 11.004 17.5422C11.2508 17.5422 11.4707 17.6093 11.4707 17.8888C11.4707 18.0654 11.3531 18.1736 11.1983 18.2348L11.5335 18.738C11.5883 18.8212 11.6274 18.8444 11.7236 18.8559V18.9152C11.6588 18.9152 11.5961 18.9074 11.5315 18.9074C11.4707 18.9074 11.4078 18.9152 11.3472 18.9152C11.1963 18.7166 11.0667 18.5041 10.9392 18.2778H10.8103V18.6988C10.8103 18.8504 10.8805 18.8559 10.9707 18.8559H11.006V18.9152C10.894 18.9152 10.7807 18.9074 10.6688 18.9074C10.5746 18.9074 10.4824 18.9152 10.3846 18.9152V18.8559H10.4198C10.4926 18.8559 10.5591 18.8229 10.5591 18.7499V17.7507L10.5591 17.7508ZM10.8103 18.207H10.9059C11.1021 18.207 11.2078 18.1323 11.2078 17.9002C11.2078 17.7254 11.0961 17.6132 10.9214 17.6132C10.8626 17.6132 10.8375 17.6194 10.8102 17.6211V18.207H10.8103Z" fill="#211E1F"/>
<path vector-effect="non-scaling-stroke" d="M11.7237 18.9235C11.658 18.9235 11.5956 18.9156 11.5311 18.9156C11.4713 18.9156 11.4087 18.9236 11.3404 18.9202C11.19 18.7224 11.0612 18.5112 10.9344 18.2865H10.8185V18.6986C10.8206 18.8466 10.8799 18.8453 10.9705 18.8474H11.0145V18.9236H11.0057C10.8937 18.9236 10.78 18.9156 10.6686 18.9156C10.5749 18.9156 10.483 18.9236 10.3846 18.9236H10.376V18.8474H10.4197C10.4905 18.847 10.5501 18.8162 10.5503 18.75V17.7508C10.5488 17.6112 10.4807 17.612 10.4197 17.61H10.376V17.5338H10.3845C10.4481 17.5338 10.569 17.5415 10.6885 17.5415C10.8055 17.5415 10.8997 17.5338 11.0041 17.5338C11.2512 17.5343 11.4788 17.6027 11.4794 17.8882C11.4794 18.0659 11.3624 18.1768 11.211 18.2386L11.5405 18.7334C11.5953 18.815 11.6294 18.8352 11.7249 18.8474L11.7321 18.8486V18.9236L11.7237 18.9235ZM10.8101 18.2694H10.9441L10.9464 18.2737C11.0741 18.4996 11.2029 18.7118 11.3473 18.9068C11.4071 18.9068 11.4701 18.8987 11.5311 18.8987C11.5937 18.8987 11.6541 18.9055 11.7152 18.9065V18.8634C11.6232 18.8519 11.5801 18.8244 11.5265 18.7427L11.1853 18.2307L11.1949 18.2267C11.3484 18.1662 11.4619 18.0611 11.4621 17.8882C11.4619 17.6154 11.2506 17.5522 11.0041 17.551C10.9007 17.551 10.8065 17.5588 10.6885 17.5588C10.5733 17.5588 10.457 17.5516 10.3929 17.551V17.5927H10.4197C10.4807 17.5929 10.5674 17.603 10.5674 17.7508V18.75C10.5674 18.8289 10.4936 18.8649 10.4197 18.865H10.3929V18.9065C10.4873 18.9062 10.5765 18.8987 10.6686 18.8987C10.7782 18.8987 10.8889 18.9062 10.9973 18.9065V18.865H10.9705C10.8811 18.8649 10.8014 18.8538 10.8014 18.6986V18.2694H10.81H10.8101ZM10.8101 18.2154H10.8014V17.6132L10.8089 17.6126C10.8357 17.6105 10.8622 17.6049 10.9215 17.6049C11.1001 17.6049 11.2162 17.7214 11.2165 17.9006C11.216 18.1354 11.1037 18.2152 10.906 18.2153H10.81L10.8101 18.2154ZM10.906 18.1984C11.1001 18.1968 11.1977 18.1292 11.1998 17.9006C11.1987 17.7288 11.0922 17.6222 10.9214 17.6215C10.8685 17.6215 10.8436 17.6264 10.8185 17.6286V18.1984H10.906ZM13.0548 18.5276L13.0584 18.5238V17.7864C13.0584 17.625 12.9468 17.6015 12.888 17.6015H12.845V17.5424C12.937 17.5424 13.0271 17.5502 13.1194 17.5502C13.1999 17.5502 13.28 17.5424 13.3609 17.5424V17.6015H13.3313C13.2489 17.6015 13.1568 17.6171 13.1568 17.8511V18.7462C13.1568 18.8149 13.1587 18.8836 13.1684 18.9446H13.094L12.0844 17.8158V18.626C12.0844 18.7972 12.1177 18.8559 12.2685 18.8559H12.3019V18.9152C12.2177 18.9152 12.1333 18.9074 12.0491 18.9074C11.9606 18.9074 11.8705 18.9152 11.7824 18.9152V18.8559H11.8096C11.945 18.8559 11.9862 18.7638 11.9862 18.6066V17.7782C11.9862 17.6682 11.8961 17.6014 11.808 17.6014H11.7824V17.5425C11.8566 17.5425 11.9334 17.5502 12.0078 17.5502C12.0662 17.5502 12.1233 17.5425 12.1822 17.5425L13.0548 18.5276Z" fill="#211E1F"/>
<path vector-effect="non-scaling-stroke" d="M13.1684 18.953L13.0876 18.9503L12.0926 17.838V18.626C12.0949 18.797 12.1207 18.8456 12.2686 18.8475H12.3102V18.9235H12.3015C12.2167 18.9235 12.1327 18.9155 12.0486 18.9155C11.961 18.9155 11.8705 18.9235 11.7822 18.9235H11.7734V18.8475H11.8094C11.9389 18.847 11.976 18.7634 11.9773 18.606V17.7782C11.9771 17.6734 11.8916 17.61 11.8078 17.6098H11.7734V17.5338H11.7822C11.857 17.5338 11.9338 17.5415 12.0077 17.5415C12.0653 17.5415 12.1222 17.5338 12.188 17.5365L13.0498 18.5098V17.7862C13.0493 17.63 12.9449 17.6106 12.8879 17.6098H12.8361V17.5338H12.8447C12.9374 17.5338 13.0277 17.5415 13.1193 17.5415C13.1993 17.5415 13.2796 17.5338 13.3604 17.5338H13.3689V17.6098H13.3313C13.2504 17.612 13.167 17.6193 13.165 17.8512V18.746C13.165 18.8148 13.1667 18.883 13.1766 18.9434L13.1778 18.953H13.1684ZM13.0939 18.9358H13.1583C13.1498 18.8768 13.1478 18.8114 13.1478 18.746V17.8512C13.148 17.6152 13.2472 17.5934 13.3313 17.5926H13.3518V17.551C13.2748 17.5516 13.1972 17.5587 13.1193 17.5587C13.0293 17.5587 12.9418 17.5516 12.853 17.551V17.5926H12.8879C12.9482 17.5934 13.0671 17.6198 13.0671 17.7862L13.0644 18.5297L13.0606 18.5337L13.0546 18.5401L12.182 17.5511C12.1238 17.5511 12.067 17.5587 12.0077 17.5587C11.9351 17.5587 11.8618 17.5516 11.7905 17.5511V17.5927H11.8078C11.8998 17.5934 11.9944 17.663 11.9944 17.7782V18.606C11.9944 18.7639 11.9501 18.8644 11.8095 18.865L11.7905 18.8648V18.9064C11.8751 18.906 11.9626 18.8989 12.0486 18.8989C12.1309 18.8989 12.2123 18.906 12.2934 18.9064V18.865H12.2686C12.1142 18.8648 12.0756 18.797 12.0753 18.6259V17.7939L13.0939 18.9358ZM13.0498 18.5238V18.5231L13.0482 18.5216L13.0498 18.5238ZM13.6761 18.6339C13.6562 18.7006 13.6326 18.7522 13.6326 18.7872C13.6326 18.8464 13.7151 18.856 13.7796 18.856H13.8014V18.9152C13.7223 18.9105 13.6431 18.9079 13.5638 18.9074C13.4933 18.9074 13.423 18.911 13.3524 18.9153V18.8559H13.3642C13.4406 18.8559 13.5055 18.8108 13.5344 18.7281L13.8485 17.8257C13.8738 17.7529 13.9094 17.6545 13.9213 17.5817C13.9837 17.5602 14.0622 17.5209 14.0994 17.4972C14.1054 17.4952 14.1089 17.4931 14.115 17.4931C14.1209 17.4931 14.1246 17.4931 14.129 17.4993C14.1347 17.5148 14.1404 17.5326 14.1467 17.5483L14.5074 18.577C14.5309 18.6457 14.5542 18.7184 14.5796 18.7775C14.6032 18.8326 14.6446 18.8559 14.7094 18.8559H14.721V18.9153C14.6309 18.9105 14.5407 18.9079 14.4506 18.9075C14.3544 18.9075 14.2562 18.911 14.1562 18.9153V18.8559H14.1779C14.2228 18.8559 14.2995 18.8483 14.2995 18.7991C14.2995 18.7735 14.2818 18.7206 14.2599 18.6574L14.1837 18.4293H13.7386L13.6761 18.634V18.6339ZM13.9622 17.7627H13.9582L13.7758 18.3193H14.1422L13.9622 17.7627Z" fill="#211E1F"/>
<path vector-effect="non-scaling-stroke" d="M14.7203 18.9235C14.6321 18.9195 14.5438 18.9155 14.4505 18.9155C14.3543 18.9155 14.2567 18.9195 14.1563 18.9235L14.1475 18.9241V18.8472H14.1777C14.2231 18.8472 14.2905 18.8368 14.2905 18.799C14.2911 18.7766 14.2734 18.7227 14.2518 18.6601L14.1772 18.4377H13.7447L13.6838 18.6364C13.6639 18.7034 13.6404 18.7554 13.6405 18.7874C13.6412 18.8354 13.7145 18.8472 13.7795 18.8472H13.8097V18.924L13.8009 18.9235C13.7224 18.9195 13.6423 18.9155 13.5641 18.9155C13.4938 18.9155 13.4232 18.9195 13.3529 18.9235L13.3438 18.9241V18.8472H13.364C13.437 18.8469 13.4979 18.8054 13.5262 18.7253L13.8402 17.8228C13.8658 17.7498 13.9012 17.6518 13.9181 17.5734C13.9801 17.5513 14.0398 17.523 14.0961 17.489C14.1016 17.4872 14.107 17.4845 14.115 17.4845C14.1193 17.4843 14.1236 17.4853 14.1274 17.4873C14.1312 17.4893 14.1344 17.4923 14.1366 17.496C14.1422 17.5122 14.1484 17.5296 14.1543 17.5456L14.5154 18.5741C14.5386 18.6431 14.562 18.7158 14.5875 18.7738C14.6102 18.8263 14.6463 18.847 14.7093 18.8472H14.7293V18.9241L14.7203 18.9235ZM14.1646 18.9059C14.2618 18.9026 14.3568 18.8987 14.4505 18.8987C14.5415 18.8987 14.6268 18.9026 14.7121 18.9059V18.8649H14.7093C14.6422 18.8653 14.5957 18.8389 14.5717 18.7809C14.5461 18.7212 14.5222 18.6482 14.4993 18.5794L14.1382 17.551C14.1323 17.5354 14.1265 17.5174 14.1214 17.5036C14.1198 17.5017 14.1201 17.5017 14.1185 17.5017H14.115C14.1109 17.5017 14.1086 17.5029 14.1036 17.5042C14.0658 17.529 13.9871 17.5675 13.929 17.583C13.9169 17.6574 13.8817 17.7555 13.8561 17.8284L13.5424 18.731C13.5125 18.8163 13.4437 18.865 13.364 18.8649H13.3609V18.9059C13.4281 18.9026 13.4961 18.8987 13.5641 18.8987C13.6398 18.8987 13.7173 18.9026 13.7921 18.9059V18.8649H13.7795C13.7157 18.8641 13.6265 18.8569 13.6241 18.7874C13.6242 18.7482 13.6483 18.6978 13.6674 18.6314L13.676 18.6341L13.6674 18.6312L13.732 18.421H14.1891L14.2678 18.6546C14.2898 18.7178 14.3077 18.7702 14.3077 18.799C14.3049 18.8594 14.2221 18.8637 14.1777 18.8649H14.1646V18.9059ZM13.7638 18.3277L13.9516 17.7541H13.9622H13.9681L14.1541 18.3277H13.7638ZM13.7873 18.3106H14.1305L13.9599 17.7836L13.7873 18.3106ZM14.8071 17.6406C14.6599 17.6406 14.6542 17.6761 14.6246 17.8195H14.5657C14.5734 17.7646 14.5833 17.7096 14.5895 17.6523C14.5974 17.5973 14.6009 17.5424 14.6009 17.4854H14.6482C14.6639 17.5445 14.7131 17.5424 14.7657 17.5424H15.7778C15.8303 17.5424 15.8793 17.5406 15.8833 17.4814L15.9302 17.4893C15.9228 17.5424 15.915 17.5955 15.909 17.6486C15.9048 17.7017 15.9048 17.7549 15.9048 17.8078L15.8461 17.8297C15.8424 17.757 15.8326 17.6406 15.7012 17.6406H15.3796V18.687C15.3796 18.8386 15.4484 18.8559 15.5422 18.8559H15.5794V18.9152C15.503 18.9152 15.366 18.9074 15.26 18.9074C15.1425 18.9074 15.005 18.9152 14.9286 18.9152V18.8559H14.9657C15.0737 18.8559 15.1288 18.8462 15.1288 18.691V17.6406H14.8071Z" fill="#211E1F"/>
<path vector-effect="non-scaling-stroke" d="M15.5796 18.9235C15.5026 18.9235 15.3653 18.9155 15.2601 18.9155C15.1429 18.9155 15.0056 18.9235 14.9287 18.9235H14.9201V18.8474H14.9658C15.0739 18.8448 15.1173 18.8434 15.1201 18.691L15.1197 17.6492H14.8072V17.6318H15.137V18.691C15.137 18.8488 15.0735 18.8643 14.9658 18.8646H14.937V18.9067C15.0146 18.9059 15.1463 18.8988 15.2601 18.8988C15.3625 18.8988 15.4935 18.9059 15.571 18.9067V18.8647H15.5421C15.4478 18.8643 15.3714 18.8415 15.3712 18.687V17.6318H15.7013C15.8329 17.6324 15.8501 17.7446 15.8538 17.8175L15.8966 17.8018C15.8966 17.7506 15.8968 17.6992 15.9006 17.6477C15.906 17.597 15.9133 17.5466 15.9206 17.4965L15.8909 17.4914C15.882 17.5486 15.8266 17.5518 15.7778 17.551H14.7559C14.7097 17.5515 14.6597 17.5488 14.6418 17.4936H14.6098C14.6095 17.5471 14.6055 17.6004 14.5978 17.6534C14.5926 17.7075 14.5829 17.7596 14.5757 17.8113H14.6177C14.6437 17.6742 14.6606 17.6298 14.8072 17.6318V17.6492C14.6618 17.6516 14.6651 17.6763 14.633 17.8217L14.6315 17.8283H14.5559L14.5571 17.8185C14.5653 17.763 14.5751 17.7082 14.5808 17.6513C14.5888 17.5964 14.5926 17.5418 14.5926 17.4854V17.4768H14.6546L14.6562 17.483C14.67 17.5326 14.7057 17.5328 14.7559 17.5337L14.7658 17.5339H15.7778C15.8319 17.5329 15.8714 17.532 15.8749 17.4808L15.8754 17.4714L15.8846 17.4733L15.9402 17.4821L15.9388 17.4906C15.9306 17.5433 15.9234 17.5962 15.9173 17.6492C15.9133 17.7015 15.9133 17.7548 15.9133 17.8078V17.8139L15.9078 17.8161L15.8382 17.8414L15.8379 17.8299C15.8329 17.7561 15.8251 17.6491 15.7013 17.6491H15.3881V18.687C15.3902 18.8353 15.4488 18.8455 15.5421 18.8474H15.588V18.9234H15.5796V18.9235ZM16.0028 18.8558H16.0302C16.101 18.8558 16.1751 18.8463 16.1751 18.7438V17.7137C16.1751 17.6111 16.101 17.6014 16.0303 17.6014H16.0028V17.5424C16.0793 17.5424 16.1968 17.5502 16.2926 17.5502C16.391 17.5502 16.5086 17.5424 16.6009 17.5424V17.6014H16.5733C16.5028 17.6014 16.4281 17.6111 16.4281 17.7137V18.7439C16.4281 18.8463 16.5028 18.8559 16.5733 18.8559H16.6009V18.9151C16.5066 18.9151 16.3889 18.9074 16.2911 18.9074C16.1949 18.9074 16.0793 18.9152 16.0028 18.9152V18.8558Z" fill="#211E1F"/>
<path vector-effect="non-scaling-stroke" d="M16.6008 18.9235C16.5061 18.9235 16.3887 18.9155 16.2909 18.9155C16.1951 18.9155 16.0793 18.9235 16.0027 18.9235H15.9941V18.8474H16.0301C16.101 18.8463 16.166 18.8402 16.1663 18.7439V17.7137C16.166 17.6177 16.101 17.6111 16.0301 17.6098H15.9941V17.534H16.0027C16.0793 17.534 16.197 17.5414 16.2925 17.5414C16.3903 17.5414 16.5079 17.534 16.6008 17.534H16.6091V17.6098H16.5733C16.5017 17.6111 16.4373 17.6177 16.4364 17.7137V18.7439C16.4373 18.8402 16.5017 18.8463 16.5733 18.8474H16.6091V18.9234H16.6008V18.9235ZM16.592 18.9063V18.8647H16.5733C16.503 18.8647 16.4198 18.8523 16.4198 18.7439V17.7137C16.4198 17.605 16.503 17.5927 16.5733 17.5927H16.592V17.551C16.5014 17.5515 16.3881 17.5586 16.2925 17.5586C16.1997 17.5586 16.0873 17.5515 16.0113 17.551V17.5927H16.0302C16.0999 17.5927 16.1834 17.605 16.1837 17.7137V18.7439C16.1834 18.8523 16.0999 18.8647 16.0302 18.8647H16.0113V18.9063C16.0869 18.9055 16.1978 18.8988 16.2909 18.8988C16.386 18.8988 16.4995 18.9059 16.5919 18.9063H16.592ZM17.3826 17.513C17.8005 17.513 18.1337 17.7729 18.1337 18.1916C18.1337 18.644 17.8102 18.9446 17.3929 18.9446C16.9768 18.9446 16.6594 18.6614 16.6594 18.2386C16.6594 17.8297 16.9749 17.513 17.3826 17.513ZM17.4122 18.8581C17.7927 18.8581 17.8589 18.5215 17.8589 18.2348C17.8589 17.9474 17.7045 17.5994 17.3789 17.5994C17.0357 17.5994 16.9338 17.9062 16.9338 18.1695C16.9338 18.5215 17.0945 18.8581 17.4122 18.8581Z" fill="#211E1F"/>
<path vector-effect="non-scaling-stroke" d="M16.6509 18.2386C16.6517 17.825 16.9709 17.505 17.3827 17.5044V17.5213C16.9798 17.5213 16.6678 17.8339 16.6675 18.2386C16.6684 18.6567 16.9813 18.9357 17.393 18.9358C17.8062 18.9357 18.1251 18.6392 18.1258 18.1912C18.1254 17.7778 17.7972 17.5218 17.3827 17.5213V17.5044C17.8039 17.5046 18.1415 17.7671 18.1424 18.1912C18.142 18.6483 17.8143 18.9522 17.393 18.953C16.9737 18.9522 16.6517 18.6661 16.6509 18.2386V18.2386ZM16.9255 18.1695C16.9261 17.905 17.0291 17.5906 17.3791 17.5906C17.7119 17.5914 17.8674 17.9459 17.8679 18.2348C17.8673 18.5216 17.8 18.8662 17.4126 18.8662V18.8496C17.7854 18.8491 17.8499 18.5216 17.8509 18.2348C17.8509 17.9498 17.6978 17.6084 17.3791 17.608C17.0427 17.6084 16.9431 17.9076 16.9426 18.1695C16.9428 18.5198 17.102 18.8488 17.4126 18.8496V18.8662C17.087 18.8658 16.9261 18.5236 16.9255 18.1694V18.1695ZM19.4551 18.5276L19.4591 18.5238V17.7864C19.4591 17.625 19.3471 17.6015 19.2882 17.6015H19.2458V17.5424C19.3377 17.5424 19.4278 17.5502 19.5197 17.5502C19.6003 17.5502 19.6806 17.5424 19.7612 17.5424V17.6015H19.7316C19.6494 17.6015 19.5571 17.6171 19.5571 17.8511V18.7462C19.5571 18.8149 19.559 18.8836 19.569 18.9446H19.4946L18.4846 17.8158V18.626C18.4846 18.7972 18.5178 18.8559 18.6687 18.8559H18.7023V18.9152C18.6178 18.9152 18.5338 18.9074 18.4494 18.9074C18.3612 18.9074 18.2708 18.9152 18.1826 18.9152V18.8559H18.2102C18.3457 18.8559 18.3863 18.7638 18.3863 18.6066V17.7782C18.3863 17.6682 18.2966 17.6014 18.2081 17.6014H18.1825V17.5425C18.257 17.5425 18.3336 17.5502 18.4079 17.5502C18.4668 17.5502 18.5235 17.5425 18.5826 17.5425L19.4551 18.5276Z" fill="#211E1F"/>
<path vector-effect="non-scaling-stroke" d="M19.5689 18.953L19.4878 18.9502L18.493 17.8379V18.6261C18.4951 18.797 18.521 18.8454 18.6683 18.8472H18.7107V18.9236H18.7022C18.6172 18.9236 18.533 18.9156 18.4493 18.9156C18.3613 18.9156 18.2713 18.9236 18.1822 18.9236H18.1741V18.8472H18.21C18.3393 18.8468 18.3764 18.7634 18.378 18.6066V17.7782C18.3778 17.6735 18.2922 17.61 18.2079 17.6098H18.1741V17.534H18.1822C18.2574 17.534 18.3338 17.5415 18.4078 17.5415C18.466 17.5415 18.5226 17.534 18.5889 17.5369L19.4503 18.5098V17.7866C19.4498 17.6301 19.3454 17.6112 19.2879 17.6098H19.2365V17.5341H19.2453C19.3376 17.5341 19.428 17.5416 19.5193 17.5416C19.5998 17.5416 19.6797 17.5341 19.761 17.5341H19.7694V17.6098H19.7314C19.6507 17.6122 19.5673 17.6195 19.5656 17.8512V18.7461C19.5656 18.8148 19.5671 18.8834 19.5766 18.9435L19.5782 18.953H19.5689ZM19.4945 18.9358H19.5586C19.55 18.8768 19.5486 18.8114 19.5486 18.746V17.8512C19.5486 17.6147 19.6474 17.5934 19.7314 17.5926H19.7526V17.551C19.6753 17.5516 19.5978 17.5587 19.5194 17.5587C19.4302 17.5587 19.3424 17.5516 19.2537 17.551V17.5926H19.2881C19.3489 17.5934 19.4671 17.6202 19.4671 17.7866L19.465 18.5297L19.4613 18.5337L19.455 18.5401L18.5824 17.5511C18.5246 17.5511 18.4674 17.5587 18.4078 17.5587C18.3357 17.5587 18.2621 17.5516 18.1907 17.5511V17.5927H18.208C18.3 17.5934 18.3948 17.663 18.3948 17.7782V18.6066C18.3948 18.7638 18.351 18.8644 18.21 18.865L18.1907 18.8648V18.9064C18.2758 18.906 18.3631 18.8989 18.4493 18.8989C18.531 18.8989 18.6122 18.906 18.6937 18.9064V18.865H18.6683C18.5145 18.8648 18.476 18.797 18.476 18.6261V17.7936L19.4944 18.9358H19.4945ZM19.4504 18.5238V18.5231L19.4488 18.5216L19.4504 18.5238ZM20.0761 18.6339C20.0569 18.7006 20.0331 18.7522 20.0331 18.7872C20.0331 18.8464 20.1157 18.856 20.18 18.856H20.2018V18.9152C20.1228 18.9105 20.0436 18.9079 19.9645 18.9074C19.8936 18.9074 19.8234 18.911 19.753 18.9153V18.8559H19.7642C19.841 18.8559 19.906 18.8108 19.935 18.7281L20.249 17.8257C20.2743 17.7529 20.3098 17.6545 20.3213 17.5817C20.3835 17.5594 20.4433 17.5311 20.5 17.4972C20.5056 17.4952 20.5096 17.4931 20.5155 17.4931C20.5214 17.4931 20.525 17.4931 20.529 17.4993C20.535 17.5148 20.5411 17.5326 20.547 17.5483L20.9075 18.577C20.931 18.6457 20.9544 18.7184 20.9802 18.7775C21.0038 18.8326 21.045 18.8559 21.1095 18.8559H21.1215V18.9153C21.0313 18.9105 20.941 18.9079 20.8506 18.9075C20.7526 18.908 20.6545 18.9106 20.5566 18.9153V18.8559H20.5783C20.6231 18.8559 20.7 18.8483 20.7 18.7991C20.7 18.7735 20.6822 18.7206 20.6603 18.6574L20.5842 18.4293H20.139L20.0761 18.634V18.6339ZM20.3627 17.7627H20.3587L20.1762 18.3193H20.5431L20.3627 17.7627Z" fill="#211E1F"/>
<path vector-effect="non-scaling-stroke" d="M21.1205 18.9235C21.0323 18.92 20.9442 18.9156 20.8505 18.9156C20.755 18.9156 20.6569 18.92 20.5568 18.9236L20.5481 18.9241V18.8474H20.5778C20.6234 18.8474 20.6911 18.8368 20.6912 18.799C20.6916 18.7766 20.674 18.723 20.6521 18.6601L20.5776 18.4377H20.1448L20.0841 18.6364C20.0646 18.7038 20.0412 18.7554 20.0416 18.7872C20.0416 18.8354 20.115 18.8474 20.1799 18.8474H20.2098V18.9241L20.201 18.9235C20.1226 18.92 20.0424 18.9156 19.9644 18.9156C19.8941 18.9156 19.8236 18.92 19.7529 18.9236L19.7444 18.9241V18.8474H19.7641C19.8373 18.8472 19.8985 18.805 19.927 18.7253L20.2408 17.8228C20.2658 17.7498 20.3011 17.6518 20.3185 17.5737C20.3801 17.5522 20.4589 17.513 20.4969 17.489C20.5021 17.4872 20.5073 17.485 20.5153 17.485C20.5197 17.4845 20.524 17.4854 20.5279 17.4874C20.5317 17.4894 20.5349 17.4925 20.5369 17.4963C20.5427 17.5118 20.5485 17.5296 20.5549 17.5456L20.9155 18.5741C20.9389 18.643 20.9625 18.7157 20.9878 18.7742C21.0109 18.8263 21.0466 18.8469 21.1091 18.8474H21.1295V18.9241L21.1205 18.9235ZM20.5649 18.9062C20.6618 18.9026 20.7573 18.8987 20.8505 18.8987C20.9417 18.8987 21.0273 18.9026 21.1127 18.9059L21.1124 18.8649H21.1092C21.0428 18.865 20.9965 18.8389 20.9721 18.7809C20.9463 18.7212 20.9229 18.6482 20.8995 18.5796L20.5387 17.551C20.5328 17.5354 20.5269 17.5174 20.5221 17.5042C20.5205 17.5017 20.5206 17.5017 20.5191 17.5017H20.5154C20.5113 17.5017 20.5091 17.503 20.5044 17.5044C20.4662 17.5286 20.3876 17.5678 20.3296 17.583C20.3174 17.6574 20.2818 17.7554 20.2565 17.8284L19.9426 18.731C19.9129 18.8163 19.8443 18.865 19.7641 18.8649H19.7613V18.9059C19.8287 18.9026 19.8961 18.8987 19.9644 18.8987C20.0404 18.8987 20.1177 18.9026 20.1932 18.9059V18.8649H20.1798C20.1161 18.8641 20.0266 18.8571 20.0243 18.7872C20.0247 18.7482 20.0491 18.6982 20.068 18.6314L20.076 18.6341L20.068 18.6312L20.1325 18.421H20.5898L20.6684 18.6546C20.69 18.7179 20.7078 18.7702 20.7078 18.799C20.7049 18.8594 20.6227 18.8637 20.5778 18.8649H20.5649L20.5649 18.9062ZM20.1644 18.3275L20.3524 17.7541H20.3626H20.3687L20.5541 18.3275H20.1644ZM20.1879 18.3106H20.5308L20.3603 17.7839L20.1879 18.3106ZM20.3545 17.7651L20.3584 17.7636L20.3544 17.7651H20.3545ZM21.6154 18.7224C21.6154 18.8011 21.6698 18.8246 21.7326 18.8326C21.813 18.8386 21.9013 18.8386 21.9918 18.8286C22.0739 18.8187 22.1446 18.7715 22.1797 18.7224C22.2109 18.679 22.2286 18.624 22.2405 18.5808H22.2973C22.2758 18.6928 22.2483 18.8032 22.2247 18.9152C22.0525 18.9152 21.8797 18.9074 21.7073 18.9074C21.5345 18.9074 21.3623 18.9152 21.1897 18.9152V18.8559H21.2167C21.2877 18.8559 21.3644 18.8463 21.3644 18.7243V17.7137C21.3644 17.6111 21.2876 17.6015 21.2167 17.6015H21.1897V17.5425C21.2933 17.5425 21.3955 17.5502 21.4992 17.5502C21.5995 17.5502 21.6974 17.5425 21.7975 17.5425V17.6015H21.7481C21.6739 17.6015 21.6154 17.6037 21.6154 17.7076V18.7224Z" fill="#211E1F"/>
<path vector-effect="non-scaling-stroke" d="M22.2247 18.9235C22.0519 18.9235 21.8794 18.9157 21.7074 18.9157C21.5347 18.9157 21.3622 18.9235 21.1894 18.9235H21.1811V18.8475H21.2167C21.2879 18.8458 21.355 18.841 21.3558 18.7243V17.7134C21.355 17.6178 21.2882 17.6112 21.2167 17.6098H21.1811V17.534H21.1894C21.2937 17.534 21.3958 17.5415 21.4994 17.5415C21.599 17.5415 21.6968 17.534 21.7975 17.534H21.8056V17.6098H21.7483C21.6723 17.612 21.625 17.6085 21.6235 17.7076V18.7225C21.6241 18.7957 21.6719 18.8154 21.7331 18.8241C21.7678 18.8265 21.8041 18.828 21.8419 18.828C21.8899 18.828 21.9398 18.8257 21.9904 18.8202C22.0703 18.8108 22.1391 18.7646 22.1728 18.7177C22.203 18.6757 22.2204 18.6217 22.2321 18.5787L22.2339 18.5722H22.3077L22.3059 18.5826C22.2838 18.695 22.2569 18.805 22.2331 18.9169L22.2315 18.9236L22.2247 18.9235ZM22.2177 18.9064C22.2404 18.7998 22.2661 18.6954 22.2872 18.5891H22.2469C22.2346 18.6319 22.2173 18.6846 22.1864 18.7276C22.1498 18.7786 22.0772 18.8266 21.9922 18.8371C21.9409 18.8424 21.89 18.8451 21.8418 18.8451C21.8039 18.8451 21.7671 18.8434 21.7316 18.8409C21.6678 18.8338 21.606 18.8065 21.6062 18.7225V17.7075C21.6062 17.5983 21.6752 17.5927 21.7483 17.5927H21.7889V17.551C21.6922 17.5515 21.597 17.5587 21.4994 17.5587C21.3978 17.5587 21.2986 17.5515 21.198 17.551V17.5927H21.2167C21.2867 17.5927 21.3724 17.605 21.3724 17.7132V18.7242C21.3724 18.8514 21.2871 18.8647 21.2167 18.8647H21.198V18.9063C21.3675 18.9062 21.537 18.8988 21.7074 18.8988C21.8778 18.8988 22.048 18.9062 22.2177 18.9063V18.9064ZM22.2735 17.4866C22.3917 17.4866 22.4799 17.5777 22.4799 17.6943C22.4799 17.8106 22.3917 17.9007 22.2735 17.9007C22.1554 17.9007 22.067 17.8106 22.067 17.6943C22.067 17.5777 22.1554 17.4866 22.2735 17.4866ZM22.2735 17.8622C22.3658 17.8622 22.4369 17.7831 22.4369 17.6943C22.4369 17.605 22.367 17.5253 22.2735 17.5253C22.1807 17.5253 22.1097 17.605 22.1097 17.6943C22.1097 17.7831 22.1807 17.8622 22.2735 17.8622ZM22.1707 17.8034V17.7932C22.1962 17.7897 22.2008 17.7905 22.2008 17.7746V17.6214C22.2008 17.5998 22.1984 17.5925 22.1717 17.5936V17.5831H22.2773C22.3138 17.5831 22.3471 17.6004 22.3471 17.6381C22.3471 17.6689 22.3267 17.6917 22.2983 17.7005L22.3322 17.7479C22.348 17.7695 22.3658 17.7897 22.3777 17.7967V17.8034H22.3374C22.3182 17.8034 22.3013 17.7626 22.2632 17.708H22.2403V17.7768C22.2403 17.7904 22.2451 17.7896 22.2706 17.7932V17.8034H22.1707ZM22.2403 17.6943H22.2647C22.2914 17.6943 22.3038 17.6741 22.3038 17.6415C22.3038 17.6085 22.2846 17.5969 22.2634 17.5969H22.2403V17.6943ZM5.78344 14.6329C5.78344 14.3078 5.6144 14.3292 5.45232 14.3257V14.2318C5.5928 14.2387 5.7368 14.2387 5.87752 14.2387C6.0288 14.2387 6.23432 14.2318 6.50096 14.2318C7.43392 14.2318 7.942 14.8568 7.942 15.4968C7.942 15.8547 7.7332 16.7544 6.4576 16.7544C6.27392 16.7544 6.1044 16.7474 5.9352 16.7474C5.77304 16.7474 5.6144 16.751 5.45232 16.7545V16.6606C5.66832 16.6388 5.77312 16.6316 5.78336 16.3858V14.633L5.78344 14.6329ZM6.13664 16.3281C6.13664 16.6064 6.33504 16.6389 6.51144 16.6389C7.29 16.6389 7.5456 16.0497 7.5456 15.5111C7.5456 14.8355 7.11312 14.3476 6.41784 14.3476C6.26984 14.3476 6.20184 14.3582 6.13664 14.3621V16.3281ZM8.06848 16.6606H8.13672C8.23752 16.6606 8.30968 16.6606 8.30968 16.5411V15.5618C8.30968 15.403 8.25568 15.3809 8.12232 15.309V15.2511C8.2916 15.2001 8.4936 15.1319 8.50776 15.121C8.5332 15.1066 8.55464 15.1027 8.57272 15.1027C8.59056 15.1027 8.59808 15.1246 8.59808 15.1536V16.5411C8.59808 16.6606 8.67728 16.6606 8.77816 16.6606H8.83936V16.7546C8.71672 16.7546 8.59056 16.7474 8.46112 16.7474C8.33144 16.7474 8.2016 16.751 8.06848 16.7546V16.6606ZM8.45392 14.5462C8.36008 14.5462 8.27744 14.4596 8.27744 14.3656C8.27744 14.2751 8.36392 14.1918 8.45392 14.1918C8.54728 14.1918 8.63056 14.268 8.63056 14.3656C8.63056 14.4632 8.55096 14.5462 8.45392 14.5462ZM9.18168 15.5834C9.18168 15.4498 9.14184 15.4138 8.97288 15.345V15.2765C9.12768 15.2259 9.27528 15.1789 9.44832 15.1028C9.45904 15.1028 9.4696 15.1102 9.4696 15.1389V15.3739C9.67536 15.2259 9.852 15.1027 10.0937 15.1027C10.3996 15.1027 10.5077 15.3269 10.5077 15.6087V16.5411C10.5077 16.6606 10.5869 16.6606 10.6879 16.6606H10.7528V16.7546C10.6264 16.7546 10.5003 16.7474 10.3709 16.7474C10.241 16.7474 10.1112 16.751 9.98168 16.7546V16.6606H10.0463C10.1475 16.6606 10.2191 16.6606 10.2191 16.5411V15.6053C10.2191 15.399 10.0937 15.298 9.88792 15.298C9.7728 15.298 9.58896 15.3919 9.4696 15.4716V16.541C9.4696 16.6606 9.54928 16.6606 9.65032 16.6606H9.71504V16.7546C9.58896 16.7546 9.46272 16.7474 9.33296 16.7474C9.20336 16.7474 9.07344 16.751 8.94384 16.7546V16.6606H9.00888C9.10968 16.6606 9.18168 16.6606 9.18168 16.541V15.5834ZM11.0268 15.757C11.0193 15.7897 11.0193 15.8438 11.0268 15.9668C11.048 16.31 11.2684 16.5918 11.5562 16.5918C11.7546 16.5918 11.9098 16.4834 12.043 16.3498L12.0932 16.4006C11.9274 16.6209 11.722 16.8087 11.4268 16.8087C10.8537 16.8087 10.7384 16.252 10.7384 16.021C10.7384 15.3125 11.2139 15.1027 11.466 15.1027C11.758 15.1027 12.0718 15.287 12.0751 15.6701C12.0751 15.692 12.0751 15.7134 12.0718 15.7354L12.0391 15.757H11.0268ZM11.6647 15.6414C11.7546 15.6414 11.7652 15.5943 11.7652 15.551C11.7652 15.3667 11.6535 15.2185 11.4516 15.2185C11.2321 15.2185 11.0807 15.3809 11.0375 15.6414H11.6647ZM12.1581 16.6606H12.2554C12.356 16.6606 12.4281 16.6606 12.4281 16.5411V15.5257C12.4281 15.4137 12.295 15.3919 12.2408 15.363V15.309C12.5038 15.1968 12.6481 15.1027 12.6808 15.1027C12.7022 15.1027 12.7128 15.1137 12.7128 15.1499V15.4751H12.7204C12.8103 15.3343 12.9619 15.1027 13.1814 15.1027C13.2716 15.1027 13.3868 15.1641 13.3868 15.2943C13.3868 15.3919 13.3185 15.479 13.2177 15.479C13.1055 15.479 13.1055 15.3919 12.9796 15.3919C12.9182 15.3919 12.7166 15.4751 12.7166 15.692V16.5411C12.7166 16.6606 12.7886 16.6606 12.8896 16.6606H13.0912V16.7546C12.893 16.751 12.7422 16.7474 12.587 16.7474C12.4393 16.7474 12.2878 16.751 12.1582 16.7546L12.1581 16.6606ZM13.5454 16.252C13.5924 16.4906 13.7363 16.6931 13.9995 16.6931C14.2117 16.6931 14.291 16.563 14.291 16.4366C14.291 16.01 13.5058 16.1474 13.5058 15.5655C13.5058 15.363 13.6681 15.1027 14.0642 15.1027C14.1794 15.1027 14.3342 15.1355 14.4747 15.2078L14.5002 15.5762H14.4172C14.3812 15.3487 14.2553 15.2186 14.0244 15.2186C13.8803 15.2186 13.7435 15.3018 13.7435 15.457C13.7435 15.8802 14.5794 15.7498 14.5794 16.3171C14.5794 16.5555 14.3884 16.8088 13.9595 16.8088C13.8154 16.8088 13.6462 16.7582 13.5202 16.6861L13.4804 16.2703L13.5454 16.252ZM17.833 14.8859H17.7432C17.6746 14.4633 17.3756 14.2932 16.9722 14.2932C16.5575 14.2932 15.9558 14.5714 15.9558 15.4387C15.9558 16.1693 16.475 16.6931 17.0297 16.6931C17.3863 16.6931 17.682 16.4474 17.7541 16.0678L17.8367 16.0894L17.7541 16.617C17.6027 16.7112 17.1955 16.8087 16.9574 16.8087C16.1146 16.8087 15.5814 16.263 15.5814 15.4498C15.5814 14.7088 16.2406 14.1774 16.9469 14.1774C17.2386 14.1774 17.5197 14.2717 17.7971 14.3694L17.833 14.8859ZM17.963 16.6606H18.0313C18.1323 16.6606 18.2046 16.6606 18.2046 16.5411V14.5283C18.2046 14.2932 18.1506 14.286 18.0134 14.2463V14.1885C18.1576 14.1416 18.309 14.0765 18.3846 14.033C18.4238 14.0114 18.453 13.9931 18.4637 13.9931C18.4857 13.9931 18.4929 14.015 18.4929 14.044V16.5411C18.4929 16.6606 18.572 16.6606 18.673 16.6606H18.7338V16.7546C18.6118 16.7546 18.4857 16.7474 18.3558 16.7474C18.2262 16.7474 18.0966 16.751 17.963 16.7546V16.6606ZM20.2766 16.5555C20.2766 16.6209 20.3161 16.6244 20.3772 16.6244C20.4206 16.6244 20.4745 16.6209 20.5214 16.6209V16.6969C20.3664 16.7113 20.0709 16.7873 20.0024 16.8087L19.9843 16.7978V16.5054C19.7683 16.6823 19.6024 16.8087 19.3464 16.8087C19.1518 16.8087 18.9501 16.6823 18.9501 16.379V15.4534C18.9501 15.3595 18.9357 15.269 18.7343 15.2511V15.1823C18.8642 15.1788 19.1518 15.1571 19.1989 15.1571C19.2389 15.1571 19.2389 15.1824 19.2389 15.2619V16.1941C19.2389 16.3027 19.2389 16.6134 19.5521 16.6134C19.6745 16.6134 19.8366 16.5195 19.9878 16.3934V15.4206C19.9878 15.3486 19.815 15.309 19.6856 15.2727V15.2077C20.0094 15.1859 20.2116 15.1571 20.2474 15.1571C20.2766 15.1571 20.2766 15.1823 20.2766 15.2223V16.5555ZM20.9936 15.363C21.1376 15.2402 21.332 15.1027 21.5304 15.1027C21.9486 15.1027 22.2005 15.4682 22.2005 15.8618C22.2005 16.3352 21.8547 16.8087 21.3391 16.8087C21.0726 16.8087 20.9322 16.7219 20.8383 16.6823L20.7305 16.7652L20.655 16.7257C20.687 16.5125 20.7054 16.3027 20.7054 16.0824V14.5283C20.7054 14.2932 20.651 14.286 20.5142 14.2463V14.1885C20.6587 14.1416 20.8096 14.0765 20.8854 14.033C20.925 14.0114 20.9537 13.9931 20.9649 13.9931C20.9863 13.9931 20.9935 14.015 20.9935 14.044L20.9936 15.363ZM20.9936 16.346C20.9936 16.4834 21.1231 16.715 21.3646 16.715C21.7502 16.715 21.9122 16.3352 21.9122 16.0134C21.9122 15.6232 21.617 15.298 21.3359 15.298C21.2022 15.298 21.0908 15.3849 20.9935 15.4682L20.9936 16.346ZM5.44824 18.8559H5.47584C5.54624 18.8559 5.62072 18.8463 5.62072 18.7439V17.7137C5.62072 17.6111 5.54624 17.6014 5.47584 17.6014H5.44824V17.5424C5.5248 17.5424 5.6424 17.5502 5.7388 17.5502C5.83664 17.5502 5.95416 17.5424 6.04632 17.5424V17.6014H6.01872C5.9484 17.6014 5.87376 17.6111 5.87376 17.7137V18.7439C5.87376 18.8463 5.9484 18.8559 6.01872 18.8559H6.04632V18.9152C5.95224 18.9152 5.83432 18.9074 5.73656 18.9074C5.64048 18.9074 5.5248 18.9152 5.44824 18.9152V18.8559Z" fill="#211E1F"/>
<path vector-effect="non-scaling-stroke" d="M6.04642 18.9235C5.9517 18.9235 5.83426 18.9156 5.73658 18.9156C5.64074 18.9156 5.52546 18.9235 5.44834 18.9235H5.43994V18.8474H5.47586C5.5469 18.8458 5.61162 18.8401 5.61234 18.7439V17.7137C5.61162 17.6175 5.5469 17.6111 5.47586 17.6098H5.43994V17.5337H5.44834C5.52546 17.5337 5.6429 17.5414 5.73874 17.5414C5.83634 17.5414 5.9537 17.5337 6.04642 17.5337H6.05522V17.6098H6.01898C5.94786 17.6111 5.88274 17.6175 5.88234 17.7137V18.7439C5.88274 18.8401 5.94786 18.8458 6.01898 18.8474H6.05514V18.9234H6.04642V18.9235ZM6.03802 18.9067V18.8647H6.01898C5.94898 18.8647 5.86562 18.8526 5.86522 18.7439V17.7137C5.86562 17.605 5.94898 17.5927 6.01898 17.5927H6.03802V17.551C5.94746 17.551 5.83394 17.5586 5.73882 17.5586C5.64562 17.5586 5.5329 17.5515 5.45706 17.551V17.5927H5.47578C5.5457 17.5927 5.62938 17.605 5.62938 17.7137V18.7439C5.62938 18.8526 5.5457 18.8647 5.47578 18.8647H5.45706V18.9067C5.5329 18.9059 5.6437 18.8988 5.73658 18.8988C5.83202 18.8988 5.94554 18.9062 6.03802 18.9067ZM7.39338 18.5275L7.39738 18.5237V17.7863C7.39738 17.6249 7.28538 17.6015 7.22674 17.6015H7.18346V17.5423C7.27578 17.5423 7.36586 17.5502 7.45794 17.5502C7.53826 17.5502 7.61906 17.5424 7.6993 17.5424V17.6014H7.66994C7.58738 17.6014 7.49522 17.6171 7.49522 17.851V18.7461C7.49522 18.8149 7.49722 18.8835 7.5069 18.9445H7.43226L6.42274 17.8157V18.626C6.42274 18.7971 6.45578 18.8558 6.60698 18.8558H6.64018V18.9152C6.55602 18.9152 6.47186 18.9074 6.38738 18.9074C6.29938 18.9074 6.20914 18.9152 6.12082 18.9152V18.8558H6.14826C6.28354 18.8558 6.32458 18.7637 6.32458 18.6065V17.7782C6.32458 17.6682 6.23418 17.6014 6.14634 17.6014H6.12074V17.5424C6.1953 17.5424 6.2717 17.5502 6.3461 17.5502C6.40498 17.5502 6.46194 17.5424 6.52066 17.5424L7.39338 18.5275Z" fill="#211E1F"/>
<path vector-effect="non-scaling-stroke" d="M7.50686 18.9531L7.42606 18.9501L6.43102 17.8379V18.626C6.43342 18.797 6.45934 18.8455 6.60702 18.8474H6.64902V18.9235H6.64022C6.55542 18.9235 6.47102 18.9156 6.38742 18.9156C6.29958 18.9156 6.20958 18.9236 6.12062 18.9236H6.11206V18.8474H6.14822C6.27782 18.8468 6.31478 18.7634 6.31622 18.6066V17.7783C6.31598 17.6736 6.23038 17.6101 6.1463 17.6098H6.11206V17.534H6.12062C6.19558 17.534 6.27238 17.5415 6.3459 17.5415C6.4043 17.5415 6.4611 17.534 6.52718 17.5369L7.38878 18.5097V17.7865C7.38774 17.63 7.28374 17.6112 7.22662 17.6098H7.1747V17.534H7.18342C7.27606 17.534 7.3663 17.5415 7.4579 17.5415C7.53774 17.5415 7.61806 17.534 7.6991 17.534H7.70766V17.6098H7.6699C7.58902 17.6122 7.5059 17.6192 7.50366 17.8511V18.746C7.50366 18.8147 7.50566 18.8834 7.51518 18.943L7.5171 18.9531H7.50686ZM7.43246 18.9358H7.49726C7.48846 18.8767 7.48686 18.8113 7.48686 18.746V17.8511C7.48686 17.6151 7.5855 17.5927 7.6699 17.5927H7.69062V17.551C7.61334 17.5516 7.5359 17.5586 7.45798 17.5586C7.36822 17.5586 7.28094 17.5516 7.19214 17.551L7.19206 17.5927H7.2267C7.28694 17.5927 7.4059 17.6198 7.4059 17.7865L7.40318 18.5296L7.39918 18.5337L7.39262 18.5398L6.52062 17.551C6.46246 17.551 6.40566 17.5586 6.34598 17.5586C6.27398 17.5586 6.20046 17.5516 6.12942 17.551L6.12894 17.5927H6.14638C6.23838 17.5927 6.33294 17.6632 6.33294 17.7783V18.6065C6.33294 18.7637 6.28926 18.8643 6.1483 18.8649L6.12942 18.8643V18.9067C6.21438 18.9059 6.30166 18.8988 6.38742 18.8988C6.46926 18.8988 6.5507 18.906 6.63174 18.9068V18.8649H6.60694C6.4527 18.8643 6.41438 18.797 6.41414 18.626V17.7936L7.43246 18.9358ZM7.38886 18.5236V18.523L7.38726 18.5216L7.38886 18.5236ZM7.99286 17.6406C7.84558 17.6406 7.84006 17.6761 7.81062 17.8195H7.75174C7.7595 17.7646 7.76934 17.7096 7.77526 17.6523C7.78318 17.5973 7.78694 17.5424 7.78694 17.4854H7.83414C7.8499 17.5445 7.89894 17.5424 7.95206 17.5424H8.96342C9.01646 17.5424 9.06542 17.5406 9.0695 17.4814L9.11622 17.4893C9.10862 17.5424 9.1007 17.5955 9.09478 17.6486C9.09126 17.7017 9.09126 17.7549 9.09126 17.8078L9.03222 17.8298C9.02814 17.757 9.01838 17.6406 8.88718 17.6406H8.56558V18.687C8.56558 18.8386 8.6343 18.8559 8.72806 18.8559H8.7655V18.9152C8.68902 18.9152 8.55158 18.9074 8.44598 18.9074C8.32838 18.9074 8.19094 18.9152 8.11438 18.9152V18.8559H8.15174C8.25982 18.8559 8.31446 18.8462 8.31446 18.691V17.6406H7.99286Z" fill="#211E1F"/>
<path vector-effect="non-scaling-stroke" d="M8.76587 18.9235C8.68867 18.9235 8.55147 18.9156 8.44611 18.9156C8.32867 18.9156 8.19147 18.9235 8.11451 18.9235H8.10635V18.8474H8.15195C8.25995 18.8449 8.30347 18.8434 8.30595 18.691V17.6491H7.99291V17.6318H8.32283V18.691C8.32283 18.8487 8.25955 18.8646 8.15187 18.8648H8.12307V18.9062C8.20035 18.9058 8.33227 18.8987 8.44603 18.8987C8.54827 18.8987 8.67939 18.9058 8.75683 18.9062V18.8648H8.72819C8.63339 18.8646 8.55715 18.8414 8.55715 18.6869V17.6318H8.88723C9.01883 17.6323 9.03603 17.7446 9.04035 17.8175L9.08259 17.8018C9.08259 17.7506 9.08291 17.6991 9.08643 17.6474C9.09211 17.5967 9.09931 17.5466 9.10667 17.4964L9.07675 17.4914C9.06763 17.5486 9.01259 17.5514 8.96315 17.551H7.94203C7.89595 17.551 7.84555 17.5487 7.82795 17.4938H7.79563C7.79539 17.5472 7.79163 17.6005 7.78403 17.6533C7.77835 17.7074 7.76939 17.7593 7.76203 17.8112H7.80403C7.82987 17.6742 7.84667 17.6298 7.99291 17.6318V17.6491C7.84803 17.6517 7.85107 17.6762 7.81915 17.8216L7.81763 17.8282H7.74219L7.74331 17.8181C7.75115 17.763 7.76107 17.7082 7.76691 17.6509C7.77507 17.5963 7.77891 17.5418 7.77891 17.4853V17.4767H7.84107L7.84243 17.4829C7.85587 17.5325 7.89219 17.5328 7.94203 17.5336H8.96339C9.01803 17.5328 9.05779 17.532 9.06115 17.4806L9.06195 17.4713L9.07075 17.4732L9.12611 17.482L9.12491 17.4905C9.11671 17.5432 9.10959 17.5961 9.10355 17.6491C9.09955 17.7014 9.09955 17.7546 9.09955 17.8077V17.8138L9.09419 17.816L9.02467 17.8414L9.02419 17.8298C9.01899 17.756 9.01123 17.649 8.88739 17.649H8.57443V18.6868C8.57619 18.8352 8.63491 18.8454 8.72827 18.8473H8.77427V18.9234H8.76595L8.76587 18.9235ZM9.17907 18.8558H9.20667C9.27707 18.8558 9.35171 18.8463 9.35171 18.7439V17.7137C9.35171 17.6111 9.27715 17.6014 9.20667 17.6014H9.17907V17.5424C9.29843 17.5424 9.50267 17.5502 9.66707 17.5502C9.83211 17.5502 10.0356 17.5424 10.1688 17.5424C10.1658 17.6427 10.1672 17.7431 10.1732 17.8432L10.114 17.859C10.1047 17.7313 10.0812 17.6291 9.87515 17.6291H9.60283V18.1442H9.83595C9.95355 18.1442 9.97915 18.0774 9.99075 17.971H10.0495C10.0416 18.1223 10.0416 18.274 10.0495 18.4254L9.99075 18.4371C9.97923 18.3192 9.97323 18.2426 9.83779 18.2426H9.60291V18.7006C9.60291 18.8286 9.71611 18.8286 9.84179 18.8286C10.0771 18.8286 10.1808 18.8126 10.2397 18.5888L10.2947 18.6022C10.2685 18.7057 10.2464 18.8101 10.2282 18.9152C10.1026 18.9152 9.87699 18.9074 9.70075 18.9074C9.52395 18.9074 9.29091 18.9152 9.17915 18.9152L9.17907 18.8558Z" fill="#211E1F"/>
<path vector-effect="non-scaling-stroke" d="M10.2279 18.9235C10.1019 18.9235 9.87657 18.9155 9.70049 18.9155C9.52385 18.9155 9.29089 18.9235 9.17889 18.9235H9.17065V18.8475H9.20641C9.27753 18.8464 9.34193 18.8401 9.34289 18.744V17.7137C9.34193 17.6177 9.27753 17.6113 9.20641 17.6098H9.17065V17.534H9.17889C9.29857 17.534 9.50249 17.5415 9.66689 17.5415C9.83177 17.5415 10.0352 17.534 10.1687 17.534H10.1775L10.1771 17.5428C10.1757 17.5766 10.1751 17.6105 10.1752 17.6443C10.1752 17.7123 10.1771 17.7866 10.1811 17.8427L10.1814 17.8498L10.1748 17.8517L10.1059 17.8697L10.1055 17.8596C10.0939 17.732 10.077 17.6394 9.87513 17.6375H9.61089L9.61065 18.1353H9.83577C9.94857 18.1342 9.96889 18.0762 9.98217 17.9703L9.98297 17.9626H10.0581L10.0579 17.9714C10.054 18.0479 10.0519 18.1246 10.0517 18.2013C10.0517 18.2757 10.0541 18.3503 10.0579 18.4252L10.0581 18.4322L10.051 18.4338L9.98297 18.4474L9.98217 18.4382C9.96873 18.3182 9.96777 18.2524 9.83753 18.251L9.61089 18.2508V18.7006C9.61105 18.8201 9.71377 18.8194 9.84161 18.8201C10.0776 18.8187 10.1723 18.8073 10.2315 18.5863L10.2334 18.5784L10.2416 18.58L10.3044 18.5962L10.3025 18.6043C10.2772 18.7085 10.2537 18.8124 10.2361 18.9166L10.2345 18.9235H10.2279ZM10.2207 18.9064C10.2384 18.8065 10.2596 18.7072 10.2842 18.6087L10.2454 18.5989C10.1867 18.819 10.073 18.8386 9.84161 18.8371C9.71817 18.8371 9.59441 18.8371 9.59385 18.7006V18.234H9.83753C9.97441 18.2325 9.98841 18.3154 9.99809 18.4274L10.0405 18.4186C10.033 18.2724 10.033 18.1259 10.0405 17.9797L9.99809 17.9796C9.98721 18.082 9.95529 18.154 9.83569 18.1526H9.59385V17.6203H9.87505C10.0791 17.6189 10.1128 17.7245 10.1215 17.8482L10.1639 17.8367C10.1601 17.7727 10.1582 17.7085 10.1581 17.6443C10.1581 17.6106 10.1589 17.5789 10.16 17.551C10.0268 17.5516 9.82825 17.5586 9.66689 17.5586C9.50577 17.5586 9.30745 17.5516 9.18737 17.551V17.5927H9.20641C9.27625 17.5927 9.35977 17.605 9.36001 17.7137V18.744C9.35977 18.8523 9.27625 18.8643 9.20641 18.8649H9.18737V18.9063C9.30177 18.9062 9.52817 18.8989 9.70049 18.8989C9.87337 18.8989 10.0942 18.9062 10.2207 18.9063V18.9064ZM10.5591 17.7508C10.5591 17.6074 10.4808 17.6014 10.4198 17.6014H10.3846V17.5422C10.4474 17.5422 10.5687 17.5502 10.6884 17.5502C10.806 17.5502 10.9003 17.5422 11.004 17.5422C11.2508 17.5422 11.4707 17.6093 11.4707 17.8888C11.4707 18.0654 11.3531 18.1736 11.1983 18.2348L11.5335 18.738C11.5883 18.8212 11.6274 18.8444 11.7236 18.8559V18.9152C11.6588 18.9152 11.5961 18.9074 11.5315 18.9074C11.4707 18.9074 11.4078 18.9152 11.3472 18.9152C11.1963 18.7166 11.0667 18.5041 10.9392 18.2778H10.8103V18.6988C10.8103 18.8504 10.8805 18.8559 10.9707 18.8559H11.006V18.9152C10.894 18.9152 10.7807 18.9074 10.6688 18.9074C10.5746 18.9074 10.4824 18.9152 10.3846 18.9152V18.8559H10.4198C10.4926 18.8559 10.5591 18.8229 10.5591 18.7499V17.7507L10.5591 17.7508ZM10.8103 18.207H10.9059C11.1021 18.207 11.2078 18.1323 11.2078 17.9002C11.2078 17.7254 11.0961 17.6132 10.9214 17.6132C10.8626 17.6132 10.8375 17.6194 10.8102 17.6211V18.207H10.8103Z" fill="#211E1F"/>
<path vector-effect="non-scaling-stroke" d="M11.7237 18.9235C11.658 18.9235 11.5956 18.9156 11.5311 18.9156C11.4713 18.9156 11.4087 18.9236 11.3404 18.9202C11.19 18.7224 11.0612 18.5112 10.9344 18.2865H10.8185V18.6986C10.8206 18.8466 10.8799 18.8453 10.9705 18.8474H11.0145V18.9236H11.0057C10.8937 18.9236 10.78 18.9156 10.6686 18.9156C10.5749 18.9156 10.483 18.9236 10.3846 18.9236H10.376V18.8474H10.4197C10.4905 18.847 10.5501 18.8162 10.5503 18.75V17.7508C10.5488 17.6112 10.4807 17.612 10.4197 17.61H10.376V17.5338H10.3845C10.4481 17.5338 10.569 17.5415 10.6885 17.5415C10.8055 17.5415 10.8997 17.5338 11.0041 17.5338C11.2512 17.5343 11.4788 17.6027 11.4794 17.8882C11.4794 18.0659 11.3624 18.1768 11.211 18.2386L11.5405 18.7334C11.5953 18.815 11.6294 18.8352 11.7249 18.8474L11.7321 18.8486V18.9236L11.7237 18.9235ZM10.8101 18.2694H10.9441L10.9464 18.2737C11.0741 18.4996 11.2029 18.7118 11.3473 18.9068C11.4071 18.9068 11.4701 18.8987 11.5311 18.8987C11.5937 18.8987 11.6541 18.9055 11.7152 18.9065V18.8634C11.6232 18.8519 11.5801 18.8244 11.5265 18.7427L11.1853 18.2307L11.1949 18.2267C11.3484 18.1662 11.4619 18.0611 11.4621 17.8882C11.4619 17.6154 11.2506 17.5522 11.0041 17.551C10.9007 17.551 10.8065 17.5588 10.6885 17.5588C10.5733 17.5588 10.457 17.5516 10.3929 17.551V17.5927H10.4197C10.4807 17.5929 10.5674 17.603 10.5674 17.7508V18.75C10.5674 18.8289 10.4936 18.8649 10.4197 18.865H10.3929V18.9065C10.4873 18.9062 10.5765 18.8987 10.6686 18.8987C10.7782 18.8987 10.8889 18.9062 10.9973 18.9065V18.865H10.9705C10.8811 18.8649 10.8014 18.8538 10.8014 18.6986V18.2694H10.81H10.8101ZM10.8101 18.2154H10.8014V17.6132L10.8089 17.6126C10.8357 17.6105 10.8622 17.6049 10.9215 17.6049C11.1001 17.6049 11.2162 17.7214 11.2165 17.9006C11.216 18.1354 11.1037 18.2152 10.906 18.2153H10.81L10.8101 18.2154ZM10.906 18.1984C11.1001 18.1968 11.1977 18.1292 11.1998 17.9006C11.1987 17.7288 11.0922 17.6222 10.9214 17.6215C10.8685 17.6215 10.8436 17.6264 10.8185 17.6286V18.1984H10.906ZM13.0548 18.5276L13.0584 18.5238V17.7864C13.0584 17.625 12.9468 17.6015 12.888 17.6015H12.845V17.5424C12.937 17.5424 13.0271 17.5502 13.1194 17.5502C13.1999 17.5502 13.28 17.5424 13.3609 17.5424V17.6015H13.3313C13.2489 17.6015 13.1568 17.6171 13.1568 17.8511V18.7462C13.1568 18.8149 13.1587 18.8836 13.1684 18.9446H13.094L12.0844 17.8158V18.626C12.0844 18.7972 12.1177 18.8559 12.2685 18.8559H12.3019V18.9152C12.2177 18.9152 12.1333 18.9074 12.0491 18.9074C11.9606 18.9074 11.8705 18.9152 11.7824 18.9152V18.8559H11.8096C11.945 18.8559 11.9862 18.7638 11.9862 18.6066V17.7782C11.9862 17.6682 11.8961 17.6014 11.808 17.6014H11.7824V17.5425C11.8566 17.5425 11.9334 17.5502 12.0078 17.5502C12.0662 17.5502 12.1233 17.5425 12.1822 17.5425L13.0548 18.5276Z" fill="#211E1F"/>
<path vector-effect="non-scaling-stroke" d="M13.1684 18.953L13.0876 18.9503L12.0926 17.838V18.626C12.0949 18.797 12.1207 18.8456 12.2686 18.8475H12.3102V18.9235H12.3015C12.2167 18.9235 12.1327 18.9155 12.0486 18.9155C11.961 18.9155 11.8705 18.9235 11.7822 18.9235H11.7734V18.8475H11.8094C11.9389 18.847 11.976 18.7634 11.9773 18.606V17.7782C11.9771 17.6734 11.8916 17.61 11.8078 17.6098H11.7734V17.5338H11.7822C11.857 17.5338 11.9338 17.5415 12.0077 17.5415C12.0653 17.5415 12.1222 17.5338 12.188 17.5365L13.0498 18.5098V17.7862C13.0493 17.63 12.9449 17.6106 12.8879 17.6098H12.8361V17.5338H12.8447C12.9374 17.5338 13.0277 17.5415 13.1193 17.5415C13.1993 17.5415 13.2796 17.5338 13.3604 17.5338H13.3689V17.6098H13.3313C13.2504 17.612 13.167 17.6193 13.165 17.8512V18.746C13.165 18.8148 13.1667 18.883 13.1766 18.9434L13.1778 18.953H13.1684ZM13.0939 18.9358H13.1583C13.1498 18.8768 13.1478 18.8114 13.1478 18.746V17.8512C13.148 17.6152 13.2472 17.5934 13.3313 17.5926H13.3518V17.551C13.2748 17.5516 13.1972 17.5587 13.1193 17.5587C13.0293 17.5587 12.9418 17.5516 12.853 17.551V17.5926H12.8879C12.9482 17.5934 13.0671 17.6198 13.0671 17.7862L13.0644 18.5297L13.0606 18.5337L13.0546 18.5401L12.182 17.5511C12.1238 17.5511 12.067 17.5587 12.0077 17.5587C11.9351 17.5587 11.8618 17.5516 11.7905 17.5511V17.5927H11.8078C11.8998 17.5934 11.9944 17.663 11.9944 17.7782V18.606C11.9944 18.7639 11.9501 18.8644 11.8095 18.865L11.7905 18.8648V18.9064C11.8751 18.906 11.9626 18.8989 12.0486 18.8989C12.1309 18.8989 12.2123 18.906 12.2934 18.9064V18.865H12.2686C12.1142 18.8648 12.0756 18.797 12.0753 18.6259V17.7939L13.0939 18.9358ZM13.0498 18.5238V18.5231L13.0482 18.5216L13.0498 18.5238ZM13.6761 18.6339C13.6562 18.7006 13.6326 18.7522 13.6326 18.7872C13.6326 18.8464 13.7151 18.856 13.7796 18.856H13.8014V18.9152C13.7223 18.9105 13.6431 18.9079 13.5638 18.9074C13.4933 18.9074 13.423 18.911 13.3524 18.9153V18.8559H13.3642C13.4406 18.8559 13.5055 18.8108 13.5344 18.7281L13.8485 17.8257C13.8738 17.7529 13.9094 17.6545 13.9213 17.5817C13.9837 17.5602 14.0622 17.5209 14.0994 17.4972C14.1054 17.4952 14.1089 17.4931 14.115 17.4931C14.1209 17.4931 14.1246 17.4931 14.129 17.4993C14.1347 17.5148 14.1404 17.5326 14.1467 17.5483L14.5074 18.577C14.5309 18.6457 14.5542 18.7184 14.5796 18.7775C14.6032 18.8326 14.6446 18.8559 14.7094 18.8559H14.721V18.9153C14.6309 18.9105 14.5407 18.9079 14.4506 18.9075C14.3544 18.9075 14.2562 18.911 14.1562 18.9153V18.8559H14.1779C14.2228 18.8559 14.2995 18.8483 14.2995 18.7991C14.2995 18.7735 14.2818 18.7206 14.2599 18.6574L14.1837 18.4293H13.7386L13.6761 18.634V18.6339ZM13.9622 17.7627H13.9582L13.7758 18.3193H14.1422L13.9622 17.7627Z" fill="#211E1F"/>
<path vector-effect="non-scaling-stroke" d="M14.7203 18.9235C14.6321 18.9195 14.5438 18.9155 14.4505 18.9155C14.3543 18.9155 14.2567 18.9195 14.1563 18.9235L14.1475 18.9241V18.8472H14.1777C14.2231 18.8472 14.2905 18.8368 14.2905 18.799C14.2911 18.7766 14.2734 18.7227 14.2518 18.6601L14.1772 18.4377H13.7447L13.6838 18.6364C13.6639 18.7034 13.6404 18.7554 13.6405 18.7874C13.6412 18.8354 13.7145 18.8472 13.7795 18.8472H13.8097V18.924L13.8009 18.9235C13.7224 18.9195 13.6423 18.9155 13.5641 18.9155C13.4938 18.9155 13.4232 18.9195 13.3529 18.9235L13.3438 18.9241V18.8472H13.364C13.437 18.8469 13.4979 18.8054 13.5262 18.7253L13.8402 17.8228C13.8658 17.7498 13.9012 17.6518 13.9181 17.5734C13.9801 17.5513 14.0398 17.523 14.0961 17.489C14.1016 17.4872 14.107 17.4845 14.115 17.4845C14.1193 17.4843 14.1236 17.4853 14.1274 17.4873C14.1312 17.4893 14.1344 17.4923 14.1366 17.496C14.1422 17.5122 14.1484 17.5296 14.1543 17.5456L14.5154 18.5741C14.5386 18.6431 14.562 18.7158 14.5875 18.7738C14.6102 18.8263 14.6463 18.847 14.7093 18.8472H14.7293V18.9241L14.7203 18.9235ZM14.1646 18.9059C14.2618 18.9026 14.3568 18.8987 14.4505 18.8987C14.5415 18.8987 14.6268 18.9026 14.7121 18.9059V18.8649H14.7093C14.6422 18.8653 14.5957 18.8389 14.5717 18.7809C14.5461 18.7212 14.5222 18.6482 14.4993 18.5794L14.1382 17.551C14.1323 17.5354 14.1265 17.5174 14.1214 17.5036C14.1198 17.5017 14.1201 17.5017 14.1185 17.5017H14.115C14.1109 17.5017 14.1086 17.5029 14.1036 17.5042C14.0658 17.529 13.9871 17.5675 13.929 17.583C13.9169 17.6574 13.8817 17.7555 13.8561 17.8284L13.5424 18.731C13.5125 18.8163 13.4437 18.865 13.364 18.8649H13.3609V18.9059C13.4281 18.9026 13.4961 18.8987 13.5641 18.8987C13.6398 18.8987 13.7173 18.9026 13.7921 18.9059V18.8649H13.7795C13.7157 18.8641 13.6265 18.8569 13.6241 18.7874C13.6242 18.7482 13.6483 18.6978 13.6674 18.6314L13.676 18.6341L13.6674 18.6312L13.732 18.421H14.1891L14.2678 18.6546C14.2898 18.7178 14.3077 18.7702 14.3077 18.799C14.3049 18.8594 14.2221 18.8637 14.1777 18.8649H14.1646V18.9059ZM13.7638 18.3277L13.9516 17.7541H13.9622H13.9681L14.1541 18.3277H13.7638ZM13.7873 18.3106H14.1305L13.9599 17.7836L13.7873 18.3106ZM14.8071 17.6406C14.6599 17.6406 14.6542 17.6761 14.6246 17.8195H14.5657C14.5734 17.7646 14.5833 17.7096 14.5895 17.6523C14.5974 17.5973 14.6009 17.5424 14.6009 17.4854H14.6482C14.6639 17.5445 14.7131 17.5424 14.7657 17.5424H15.7778C15.8303 17.5424 15.8793 17.5406 15.8833 17.4814L15.9302 17.4893C15.9228 17.5424 15.915 17.5955 15.909 17.6486C15.9048 17.7017 15.9048 17.7549 15.9048 17.8078L15.8461 17.8297C15.8424 17.757 15.8326 17.6406 15.7012 17.6406H15.3796V18.687C15.3796 18.8386 15.4484 18.8559 15.5422 18.8559H15.5794V18.9152C15.503 18.9152 15.366 18.9074 15.26 18.9074C15.1425 18.9074 15.005 18.9152 14.9286 18.9152V18.8559H14.9657C15.0737 18.8559 15.1288 18.8462 15.1288 18.691V17.6406H14.8071Z" fill="#211E1F"/>
<path vector-effect="non-scaling-stroke" d="M15.5796 18.9235C15.5026 18.9235 15.3653 18.9155 15.2601 18.9155C15.1429 18.9155 15.0056 18.9235 14.9287 18.9235H14.9201V18.8474H14.9658C15.0739 18.8448 15.1173 18.8434 15.1201 18.691L15.1197 17.6492H14.8072V17.6318H15.137V18.691C15.137 18.8488 15.0735 18.8643 14.9658 18.8646H14.937V18.9067C15.0146 18.9059 15.1463 18.8988 15.2601 18.8988C15.3625 18.8988 15.4935 18.9059 15.571 18.9067V18.8647H15.5421C15.4478 18.8643 15.3714 18.8415 15.3712 18.687V17.6318H15.7013C15.8329 17.6324 15.8501 17.7446 15.8538 17.8175L15.8966 17.8018C15.8966 17.7506 15.8968 17.6992 15.9006 17.6477C15.906 17.597 15.9133 17.5466 15.9206 17.4965L15.8909 17.4914C15.882 17.5486 15.8266 17.5518 15.7778 17.551H14.7559C14.7097 17.5515 14.6597 17.5488 14.6418 17.4936H14.6098C14.6095 17.5471 14.6055 17.6004 14.5978 17.6534C14.5926 17.7075 14.5829 17.7596 14.5757 17.8113H14.6177C14.6437 17.6742 14.6606 17.6298 14.8072 17.6318V17.6492C14.6618 17.6516 14.6651 17.6763 14.633 17.8217L14.6315 17.8283H14.5559L14.5571 17.8185C14.5653 17.763 14.5751 17.7082 14.5808 17.6513C14.5888 17.5964 14.5926 17.5418 14.5926 17.4854V17.4768H14.6546L14.6562 17.483C14.67 17.5326 14.7057 17.5328 14.7559 17.5337L14.7658 17.5339H15.7778C15.8319 17.5329 15.8714 17.532 15.8749 17.4808L15.8754 17.4714L15.8846 17.4733L15.9402 17.4821L15.9388 17.4906C15.9306 17.5433 15.9234 17.5962 15.9173 17.6492C15.9133 17.7015 15.9133 17.7548 15.9133 17.8078V17.8139L15.9078 17.8161L15.8382 17.8414L15.8379 17.8299C15.8329 17.7561 15.8251 17.6491 15.7013 17.6491H15.3881V18.687C15.3902 18.8353 15.4488 18.8455 15.5421 18.8474H15.588V18.9234H15.5796V18.9235ZM16.0028 18.8558H16.0302C16.101 18.8558 16.1751 18.8463 16.1751 18.7438V17.7137C16.1751 17.6111 16.101 17.6014 16.0303 17.6014H16.0028V17.5424C16.0793 17.5424 16.1968 17.5502 16.2926 17.5502C16.391 17.5502 16.5086 17.5424 16.6009 17.5424V17.6014H16.5733C16.5028 17.6014 16.4281 17.6111 16.4281 17.7137V18.7439C16.4281 18.8463 16.5028 18.8559 16.5733 18.8559H16.6009V18.9151C16.5066 18.9151 16.3889 18.9074 16.2911 18.9074C16.1949 18.9074 16.0793 18.9152 16.0028 18.9152V18.8558Z" fill="#211E1F"/>
<path vector-effect="non-scaling-stroke" d="M16.6008 18.9235C16.5061 18.9235 16.3887 18.9155 16.2909 18.9155C16.1951 18.9155 16.0793 18.9235 16.0027 18.9235H15.9941V18.8474H16.0301C16.101 18.8463 16.166 18.8402 16.1663 18.7439V17.7137C16.166 17.6177 16.101 17.6111 16.0301 17.6098H15.9941V17.534H16.0027C16.0793 17.534 16.197 17.5414 16.2925 17.5414C16.3903 17.5414 16.5079 17.534 16.6008 17.534H16.6091V17.6098H16.5733C16.5017 17.6111 16.4373 17.6177 16.4364 17.7137V18.7439C16.4373 18.8402 16.5017 18.8463 16.5733 18.8474H16.6091V18.9234H16.6008V18.9235ZM16.592 18.9063V18.8647H16.5733C16.503 18.8647 16.4198 18.8523 16.4198 18.7439V17.7137C16.4198 17.605 16.503 17.5927 16.5733 17.5927H16.592V17.551C16.5014 17.5515 16.3881 17.5586 16.2925 17.5586C16.1997 17.5586 16.0873 17.5515 16.0113 17.551V17.5927H16.0302C16.0999 17.5927 16.1834 17.605 16.1837 17.7137V18.7439C16.1834 18.8523 16.0999 18.8647 16.0302 18.8647H16.0113V18.9063C16.0869 18.9055 16.1978 18.8988 16.2909 18.8988C16.386 18.8988 16.4995 18.9059 16.5919 18.9063H16.592ZM17.3826 17.513C17.8005 17.513 18.1337 17.7729 18.1337 18.1916C18.1337 18.644 17.8102 18.9446 17.3929 18.9446C16.9768 18.9446 16.6594 18.6614 16.6594 18.2386C16.6594 17.8297 16.9749 17.513 17.3826 17.513ZM17.4122 18.8581C17.7927 18.8581 17.8589 18.5215 17.8589 18.2348C17.8589 17.9474 17.7045 17.5994 17.3789 17.5994C17.0357 17.5994 16.9338 17.9062 16.9338 18.1695C16.9338 18.5215 17.0945 18.8581 17.4122 18.8581Z" fill="#211E1F"/>
<path vector-effect="non-scaling-stroke" d="M16.6509 18.2386C16.6517 17.825 16.9709 17.505 17.3827 17.5044V17.5213C16.9798 17.5213 16.6678 17.8339 16.6675 18.2386C16.6684 18.6567 16.9813 18.9357 17.393 18.9358C17.8062 18.9357 18.1251 18.6392 18.1258 18.1912C18.1254 17.7778 17.7972 17.5218 17.3827 17.5213V17.5044C17.8039 17.5046 18.1415 17.7671 18.1424 18.1912C18.142 18.6483 17.8143 18.9522 17.393 18.953C16.9737 18.9522 16.6517 18.6661 16.6509 18.2386V18.2386ZM16.9255 18.1695C16.9261 17.905 17.0291 17.5906 17.3791 17.5906C17.7119 17.5914 17.8674 17.9459 17.8679 18.2348C17.8673 18.5216 17.8 18.8662 17.4126 18.8662V18.8496C17.7854 18.8491 17.8499 18.5216 17.8509 18.2348C17.8509 17.9498 17.6978 17.6084 17.3791 17.608C17.0427 17.6084 16.9431 17.9076 16.9426 18.1695C16.9428 18.5198 17.102 18.8488 17.4126 18.8496V18.8662C17.087 18.8658 16.9261 18.5236 16.9255 18.1694V18.1695ZM19.4551 18.5276L19.4591 18.5238V17.7864C19.4591 17.625 19.3471 17.6015 19.2882 17.6015H19.2458V17.5424C19.3377 17.5424 19.4278 17.5502 19.5197 17.5502C19.6003 17.5502 19.6806 17.5424 19.7612 17.5424V17.6015H19.7316C19.6494 17.6015 19.5571 17.6171 19.5571 17.8511V18.7462C19.5571 18.8149 19.559 18.8836 19.569 18.9446H19.4946L18.4846 17.8158V18.626C18.4846 18.7972 18.5178 18.8559 18.6687 18.8559H18.7023V18.9152C18.6178 18.9152 18.5338 18.9074 18.4494 18.9074C18.3612 18.9074 18.2708 18.9152 18.1826 18.9152V18.8559H18.2102C18.3457 18.8559 18.3863 18.7638 18.3863 18.6066V17.7782C18.3863 17.6682 18.2966 17.6014 18.2081 17.6014H18.1825V17.5425C18.257 17.5425 18.3336 17.5502 18.4079 17.5502C18.4668 17.5502 18.5235 17.5425 18.5826 17.5425L19.4551 18.5276Z" fill="#211E1F"/>
<path vector-effect="non-scaling-stroke" d="M19.5689 18.953L19.4878 18.9502L18.493 17.8379V18.6261C18.4951 18.797 18.521 18.8454 18.6683 18.8472H18.7107V18.9236H18.7022C18.6172 18.9236 18.533 18.9156 18.4493 18.9156C18.3613 18.9156 18.2713 18.9236 18.1822 18.9236H18.1741V18.8472H18.21C18.3393 18.8468 18.3764 18.7634 18.378 18.6066V17.7782C18.3778 17.6735 18.2922 17.61 18.2079 17.6098H18.1741V17.534H18.1822C18.2574 17.534 18.3338 17.5415 18.4078 17.5415C18.466 17.5415 18.5226 17.534 18.5889 17.5369L19.4503 18.5098V17.7866C19.4498 17.6301 19.3454 17.6112 19.2879 17.6098H19.2365V17.5341H19.2453C19.3376 17.5341 19.428 17.5416 19.5193 17.5416C19.5998 17.5416 19.6797 17.5341 19.761 17.5341H19.7694V17.6098H19.7314C19.6507 17.6122 19.5673 17.6195 19.5656 17.8512V18.7461C19.5656 18.8148 19.5671 18.8834 19.5766 18.9435L19.5782 18.953H19.5689ZM19.4945 18.9358H19.5586C19.55 18.8768 19.5486 18.8114 19.5486 18.746V17.8512C19.5486 17.6147 19.6474 17.5934 19.7314 17.5926H19.7526V17.551C19.6753 17.5516 19.5978 17.5587 19.5194 17.5587C19.4302 17.5587 19.3424 17.5516 19.2537 17.551V17.5926H19.2881C19.3489 17.5934 19.4671 17.6202 19.4671 17.7866L19.465 18.5297L19.4613 18.5337L19.455 18.5401L18.5824 17.5511C18.5246 17.5511 18.4674 17.5587 18.4078 17.5587C18.3357 17.5587 18.2621 17.5516 18.1907 17.5511V17.5927H18.208C18.3 17.5934 18.3948 17.663 18.3948 17.7782V18.6066C18.3948 18.7638 18.351 18.8644 18.21 18.865L18.1907 18.8648V18.9064C18.2758 18.906 18.3631 18.8989 18.4493 18.8989C18.531 18.8989 18.6122 18.906 18.6937 18.9064V18.865H18.6683C18.5145 18.8648 18.476 18.797 18.476 18.6261V17.7936L19.4944 18.9358H19.4945ZM19.4504 18.5238V18.5231L19.4488 18.5216L19.4504 18.5238ZM20.0761 18.6339C20.0569 18.7006 20.0331 18.7522 20.0331 18.7872C20.0331 18.8464 20.1157 18.856 20.18 18.856H20.2018V18.9152C20.1228 18.9105 20.0436 18.9079 19.9645 18.9074C19.8936 18.9074 19.8234 18.911 19.753 18.9153V18.8559H19.7642C19.841 18.8559 19.906 18.8108 19.935 18.7281L20.249 17.8257C20.2743 17.7529 20.3098 17.6545 20.3213 17.5817C20.3835 17.5594 20.4433 17.5311 20.5 17.4972C20.5056 17.4952 20.5096 17.4931 20.5155 17.4931C20.5214 17.4931 20.525 17.4931 20.529 17.4993C20.535 17.5148 20.5411 17.5326 20.547 17.5483L20.9075 18.577C20.931 18.6457 20.9544 18.7184 20.9802 18.7775C21.0038 18.8326 21.045 18.8559 21.1095 18.8559H21.1215V18.9153C21.0313 18.9105 20.941 18.9079 20.8506 18.9075C20.7526 18.908 20.6545 18.9106 20.5566 18.9153V18.8559H20.5783C20.6231 18.8559 20.7 18.8483 20.7 18.7991C20.7 18.7735 20.6822 18.7206 20.6603 18.6574L20.5842 18.4293H20.139L20.0761 18.634V18.6339ZM20.3627 17.7627H20.3587L20.1762 18.3193H20.5431L20.3627 17.7627Z" fill="#211E1F"/>
<path vector-effect="non-scaling-stroke" d="M21.1205 18.9235C21.0323 18.92 20.9442 18.9156 20.8505 18.9156C20.755 18.9156 20.6569 18.92 20.5568 18.9236L20.5481 18.9241V18.8474H20.5778C20.6234 18.8474 20.6911 18.8368 20.6912 18.799C20.6916 18.7766 20.674 18.723 20.6521 18.6601L20.5776 18.4377H20.1448L20.0841 18.6364C20.0646 18.7038 20.0412 18.7554 20.0416 18.7872C20.0416 18.8354 20.115 18.8474 20.1799 18.8474H20.2098V18.9241L20.201 18.9235C20.1226 18.92 20.0424 18.9156 19.9644 18.9156C19.8941 18.9156 19.8236 18.92 19.7529 18.9236L19.7444 18.9241V18.8474H19.7641C19.8373 18.8472 19.8985 18.805 19.927 18.7253L20.2408 17.8228C20.2658 17.7498 20.3011 17.6518 20.3185 17.5737C20.3801 17.5522 20.4589 17.513 20.4969 17.489C20.5021 17.4872 20.5073 17.485 20.5153 17.485C20.5197 17.4845 20.524 17.4854 20.5279 17.4874C20.5317 17.4894 20.5349 17.4925 20.5369 17.4963C20.5427 17.5118 20.5485 17.5296 20.5549 17.5456L20.9155 18.5741C20.9389 18.643 20.9625 18.7157 20.9878 18.7742C21.0109 18.8263 21.0466 18.8469 21.1091 18.8474H21.1295V18.9241L21.1205 18.9235ZM20.5649 18.9062C20.6618 18.9026 20.7573 18.8987 20.8505 18.8987C20.9417 18.8987 21.0273 18.9026 21.1127 18.9059L21.1124 18.8649H21.1092C21.0428 18.865 20.9965 18.8389 20.9721 18.7809C20.9463 18.7212 20.9229 18.6482 20.8995 18.5796L20.5387 17.551C20.5328 17.5354 20.5269 17.5174 20.5221 17.5042C20.5205 17.5017 20.5206 17.5017 20.5191 17.5017H20.5154C20.5113 17.5017 20.5091 17.503 20.5044 17.5044C20.4662 17.5286 20.3876 17.5678 20.3296 17.583C20.3174 17.6574 20.2818 17.7554 20.2565 17.8284L19.9426 18.731C19.9129 18.8163 19.8443 18.865 19.7641 18.8649H19.7613V18.9059C19.8287 18.9026 19.8961 18.8987 19.9644 18.8987C20.0404 18.8987 20.1177 18.9026 20.1932 18.9059V18.8649H20.1798C20.1161 18.8641 20.0266 18.8571 20.0243 18.7872C20.0247 18.7482 20.0491 18.6982 20.068 18.6314L20.076 18.6341L20.068 18.6312L20.1325 18.421H20.5898L20.6684 18.6546C20.69 18.7179 20.7078 18.7702 20.7078 18.799C20.7049 18.8594 20.6227 18.8637 20.5778 18.8649H20.5649L20.5649 18.9062ZM20.1644 18.3275L20.3524 17.7541H20.3626H20.3687L20.5541 18.3275H20.1644ZM20.1879 18.3106H20.5308L20.3603 17.7839L20.1879 18.3106ZM20.3545 17.7651L20.3584 17.7636L20.3544 17.7651H20.3545ZM21.6154 18.7224C21.6154 18.8011 21.6698 18.8246 21.7326 18.8326C21.813 18.8386 21.9013 18.8386 21.9918 18.8286C22.0739 18.8187 22.1446 18.7715 22.1797 18.7224C22.2109 18.679 22.2286 18.624 22.2405 18.5808H22.2973C22.2758 18.6928 22.2483 18.8032 22.2247 18.9152C22.0525 18.9152 21.8797 18.9074 21.7073 18.9074C21.5345 18.9074 21.3623 18.9152 21.1897 18.9152V18.8559H21.2167C21.2877 18.8559 21.3644 18.8463 21.3644 18.7243V17.7137C21.3644 17.6111 21.2876 17.6015 21.2167 17.6015H21.1897V17.5425C21.2933 17.5425 21.3955 17.5502 21.4992 17.5502C21.5995 17.5502 21.6974 17.5425 21.7975 17.5425V17.6015H21.7481C21.6739 17.6015 21.6154 17.6037 21.6154 17.7076V18.7224Z" fill="#211E1F"/>
<path vector-effect="non-scaling-stroke" d="M22.2248 18.9235C22.052 18.9235 21.8795 18.9157 21.7075 18.9157C21.5348 18.9157 21.3623 18.9235 21.1895 18.9235H21.1812V18.8475H21.2168C21.288 18.8458 21.3551 18.841 21.3559 18.7243V17.7134C21.3551 17.6178 21.2883 17.6112 21.2168 17.6098H21.1812V17.534H21.1895C21.2937 17.534 21.3959 17.5415 21.4994 17.5415C21.599 17.5415 21.6968 17.534 21.7976 17.534H21.8056V17.6098H21.7484C21.6724 17.612 21.6251 17.6085 21.6236 17.7076V18.7225C21.6241 18.7957 21.672 18.8154 21.7332 18.8241C21.7678 18.8265 21.8041 18.828 21.842 18.828C21.89 18.828 21.9398 18.8257 21.9904 18.8202C22.0704 18.8108 22.1392 18.7646 22.1728 18.7177C22.2031 18.6757 22.2204 18.6217 22.2321 18.5787L22.234 18.5722H22.3077L22.306 18.5826C22.2838 18.695 22.2569 18.805 22.2332 18.9169L22.2316 18.9236L22.2248 18.9235ZM22.2177 18.9064C22.2404 18.7998 22.2661 18.6954 22.2872 18.5891H22.2469C22.2347 18.6319 22.2173 18.6846 22.1864 18.7276C22.1499 18.7786 22.0772 18.8266 21.9923 18.8371C21.9409 18.8424 21.89 18.8451 21.8419 18.8451C21.804 18.8451 21.7672 18.8434 21.7316 18.8409C21.6679 18.8338 21.606 18.8065 21.6063 18.7225V17.7075C21.6063 17.5983 21.6752 17.5927 21.7484 17.5927H21.7889V17.551C21.6923 17.5515 21.5971 17.5587 21.4994 17.5587C21.3979 17.5587 21.2986 17.5515 21.198 17.551V17.5927H21.2168C21.2868 17.5927 21.3724 17.605 21.3724 17.7132V18.7242C21.3724 18.8514 21.2872 18.8647 21.2168 18.8647H21.198V18.9063C21.3676 18.9062 21.5371 18.8988 21.7075 18.8988C21.8779 18.8988 22.048 18.9062 22.2177 18.9063V18.9064ZM22.2736 17.4866C22.3917 17.4866 22.48 17.5777 22.48 17.6943C22.48 17.8106 22.3917 17.9007 22.2736 17.9007C22.1554 17.9007 22.0671 17.8106 22.0671 17.6943C22.0671 17.5777 22.1554 17.4866 22.2736 17.4866ZM22.2736 17.8622C22.3659 17.8622 22.4369 17.7831 22.4369 17.6943C22.4369 17.605 22.367 17.5253 22.2736 17.5253C22.1808 17.5253 22.1097 17.605 22.1097 17.6943C22.1097 17.7831 22.1808 17.8622 22.2736 17.8622ZM22.1708 17.8034V17.7932C22.1962 17.7897 22.2008 17.7905 22.2008 17.7746V17.6214C22.2008 17.5998 22.1984 17.5925 22.1717 17.5936V17.5831H22.2773C22.3138 17.5831 22.3472 17.6004 22.3472 17.6381C22.3472 17.6689 22.3268 17.6917 22.2984 17.7005L22.3322 17.7479C22.348 17.7695 22.3659 17.7897 22.3777 17.7967V17.8034H22.3375C22.3182 17.8034 22.3013 17.7626 22.2632 17.708H22.2404V17.7768C22.2404 17.7904 22.2452 17.7896 22.2706 17.7932V17.8034H22.1708ZM22.2404 17.6943H22.2648C22.2914 17.6943 22.3039 17.6741 22.3039 17.6415C22.3039 17.6085 22.2846 17.5969 22.2634 17.5969H22.2404V17.6943Z" fill="#211E1F"/>
<path vector-effect="non-scaling-stroke" d="M15.021 13.993C18.0005 14.0074 20.72 11.5501 20.72 8.56072C20.72 5.29168 18.0005 3.032 15.021 3.03312H12.4568C9.44172 3.032 6.95996 5.29232 6.95996 8.56072C6.95996 11.5507 9.44172 14.0074 12.4568 13.993H15.021Z" fill="#0079BE"/>
<path vector-effect="non-scaling-stroke" d="M12.4691 3.48608C9.71391 3.48696 7.48135 5.73224 7.48071 8.50336C7.48135 11.2739 9.71391 13.519 12.4691 13.5198C15.225 13.519 17.458 11.2739 17.4583 8.50336C17.4579 5.73216 15.225 3.48696 12.4691 3.48608ZM9.30711 8.50336C9.30967 7.1492 10.1509 5.99456 11.337 5.53568V11.4703C10.1509 11.0117 9.30967 9.8576 9.30711 8.50336ZM13.6007 11.4716V5.53552C14.7874 5.99328 15.6298 7.14864 15.632 8.50344C15.6321 9.14528 15.4381 9.77216 15.0757 10.3018C14.7132 10.8315 14.1991 11.2393 13.6008 11.4717L13.6007 11.4716Z" fill="white"/>
<path vector-effect="non-scaling-stroke" d="M15.021 13.993C18.0005 14.0074 20.72 11.5501 20.72 8.56072C20.72 5.29168 18.0005 3.032 15.021 3.03312H12.4568C9.44172 3.032 6.95996 5.29232 6.95996 8.56072C6.95996 11.5507 9.44172 14.0074 12.4568 13.993H15.021Z" fill="#0079BE"/>
<path vector-effect="non-scaling-stroke" d="M12.4691 3.48608C9.71391 3.48696 7.48135 5.73224 7.48071 8.50336C7.48135 11.2739 9.71391 13.519 12.4691 13.5198C15.225 13.519 17.458 11.2739 17.4583 8.50336C17.4579 5.73216 15.225 3.48696 12.4691 3.48608ZM9.30711 8.50336C9.30967 7.1492 10.1509 5.99456 11.337 5.53568V11.4703C10.1509 11.0117 9.30967 9.8576 9.30711 8.50336ZM13.6007 11.4716V5.53552C14.7874 5.99328 15.6298 7.14864 15.632 8.50344C15.6321 9.14528 15.4381 9.77216 15.0757 10.3018C14.7132 10.8315 14.1991 11.2393 13.6008 11.4717L13.6007 11.4716Z" fill="white"/>
<path vector-effect="non-scaling-stroke" fill-rule="evenodd" clip-rule="evenodd" d="M2.4 0.953125H25.6C26.928 0.953125 28 2.02512 28 3.35312V18.5531C28 19.8811 26.928 20.9531 25.6 20.9531H2.4C1.072 20.9531 0 19.8811 0 18.5531V3.35312C0 2.02512 1.072 0.953125 2.4 0.953125ZM27.2 3.35312C27.2 2.47312 26.48 1.75312 25.6 1.75312H2.4C1.52 1.75312 0.8 2.47312 0.8 3.35312V18.5531C0.8 19.4331 1.52 20.1531 2.4 20.1531H25.6C26.48 20.1531 27.2 19.4331 27.2 18.5531V3.35312Z" fill="#E7E7E7"/>
</g>
<defs>
<clipPath id="clip0_0_649">
<rect vector-effect="non-scaling-stroke" width="28" height="20" fill="white" transform="translate(0 0.953125)"/>
</clipPath>
</defs>
</svg>
