<svg preserveAspectRatio="none" width="25" height="20" viewBox="0 0 25 20" fill="none" xmlns="http://www.w3.org/2000/svg">
<g filter="url(#filter0_dd_103_16)">
<path vector-effect="non-scaling-stroke" d="M14.8507 15.6861C19.0606 14.5581 21.9019 11.5106 21.1968 8.87939C20.4918 6.24819 16.5075 5.02964 12.2975 6.15769C8.08762 7.28573 5.24634 10.3332 5.95137 12.9644C6.6564 15.5956 10.6408 16.8142 14.8507 15.6861Z" fill="white"/>
<path vector-effect="non-scaling-stroke" d="M20.2444 9.1347C20.4771 10.0038 20.1605 11.0859 19.1458 12.174C18.1421 13.2502 16.5507 14.21 14.5957 14.7338C12.6408 15.2576 10.783 15.2221 9.3756 14.792C7.95256 14.357 7.13734 13.5777 6.90462 12.7096C6.6719 11.8406 6.98849 10.7584 8.00326 9.67034C9.00687 8.59412 10.5983 7.6343 12.5533 7.11049C14.5082 6.58668 16.366 6.62221 17.7734 7.0523C19.1965 7.48733 20.0117 8.26662 20.2444 9.1347Z" stroke="#9A74D0" stroke-width="1.97291"/>
</g>
<defs>
<filter id="filter0_dd_103_16" x="0.911475" y="0.805029" width="23.3526" height="18.2618" filterUnits="userSpaceOnUse" color-interpolation-filters="sRGB">
<feFlood flood-opacity="0" result="BackgroundImageFix"/>
<feColorMatrix in="SourceAlpha" type="matrix" values="0 0 0 0 0 0 0 0 0 0 0 0 0 0 0 0 0 0 127 0" result="hardAlpha"/>
<feOffset dx="-0.986455" dy="-0.986455"/>
<feGaussianBlur stdDeviation="1.97291"/>
<feComposite in2="hardAlpha" operator="out"/>
<feColorMatrix type="matrix" values="0 0 0 0 0 0 0 0 0 0 0 0 0 0 0 0 0 0 0.15 0"/>
<feBlend mode="normal" in2="BackgroundImageFix" result="effect1_dropShadow_103_16"/>
<feColorMatrix in="SourceAlpha" type="matrix" values="0 0 0 0 0 0 0 0 0 0 0 0 0 0 0 0 0 0 127 0" result="hardAlpha"/>
<feOffset dx="-0.986455" dy="-0.986455"/>
<feGaussianBlur stdDeviation="0.986455"/>
<feComposite in2="hardAlpha" operator="out"/>
<feColorMatrix type="matrix" values="0 0 0 0 0 0 0 0 0 0 0 0 0 0 0 0 0 0 0.15 0"/>
<feBlend mode="normal" in2="effect1_dropShadow_103_16" result="effect2_dropShadow_103_16"/>
<feBlend mode="normal" in="SourceGraphic" in2="effect2_dropShadow_103_16" result="shape"/>
</filter>
</defs>
</svg>
