<svg preserveAspectRatio="none" width="17" height="16" viewBox="0 0 17 16" fill="none" xmlns="http://www.w3.org/2000/svg">
<path vector-effect="non-scaling-stroke" d="M8.34375 1.5C6.61984 1.5 4.96654 2.18482 3.74756 3.40381C2.52857 4.62279 1.84375 6.27609 1.84375 8C1.84375 9.72391 2.52857 11.3772 3.74756 12.5962C4.96654 13.8152 6.61984 14.5 8.34375 14.5C10.0677 14.5 11.721 13.8152 12.9399 12.5962C14.1589 11.3772 14.8438 9.72391 14.8438 8C14.8438 6.27609 14.1589 4.62279 12.9399 3.40381C11.721 2.18482 10.0677 1.5 8.34375 1.5ZM0.34375 8C0.34375 5.87827 1.1866 3.84344 2.6869 2.34315C4.18719 0.842855 6.22202 0 8.34375 0C10.4655 0 12.5003 0.842855 14.0006 2.34315C15.5009 3.84344 16.3438 5.87827 16.3438 8C16.3438 10.1217 15.5009 12.1566 14.0006 13.6569C12.5003 15.1571 10.4655 16 8.34375 16C6.22202 16 4.18719 15.1571 2.6869 13.6569C1.1866 12.1566 0.34375 10.1217 0.34375 8Z" fill="white" fill-opacity="0.698"/>
<path vector-effect="non-scaling-stroke" d="M12.0938 8C12.0938 8.19891 12.0147 8.38968 11.8741 8.53033C11.7334 8.67098 11.5427 8.75 11.3438 8.75H9.09375V11C9.09375 11.1989 9.01473 11.3897 8.87408 11.5303C8.73343 11.671 8.54266 11.75 8.34375 11.75C8.14484 11.75 7.95407 11.671 7.81342 11.5303C7.67277 11.3897 7.59375 11.1989 7.59375 11V8.75H5.34375C5.14484 8.75 4.95407 8.67098 4.81342 8.53033C4.67277 8.38968 4.59375 8.19891 4.59375 8C4.59375 7.80109 4.67277 7.61032 4.81342 7.46967C4.95407 7.32902 5.14484 7.25 5.34375 7.25H7.59375V5C7.59375 4.80109 7.67277 4.61032 7.81342 4.46967C7.95407 4.32902 8.14484 4.25 8.34375 4.25C8.54266 4.25 8.73343 4.32902 8.87408 4.46967C9.01473 4.61032 9.09375 4.80109 9.09375 5V7.25H11.3438C11.5427 7.25 11.7334 7.32902 11.8741 7.46967C12.0147 7.61032 12.0938 7.80109 12.0938 8Z" fill="white" fill-opacity="0.698"/>
</svg>
