<svg preserveAspectRatio="none" width="32" height="32" viewBox="0 0 32 32" fill="none" xmlns="http://www.w3.org/2000/svg">
<path vector-effect="non-scaling-stroke" fill-rule="evenodd" clip-rule="evenodd" d="M9.33341 8.00004C7.12428 8.00004 5.33341 9.7909 5.33341 12V20C5.33341 22.2092 7.12428 24 9.33341 24H22.6667C24.8759 24 26.6667 22.2092 26.6667 20V12C26.6667 9.7909 24.8759 8.00004 22.6667 8.00004H9.33341ZM2.66675 12C2.66675 8.31814 5.65152 5.33337 9.33341 5.33337H22.6667C26.3486 5.33337 29.3334 8.31814 29.3334 12V20C29.3334 23.6819 26.3486 26.6667 22.6667 26.6667H9.33341C5.65152 26.6667 2.66675 23.6819 2.66675 20V12Z" fill="#CECECE"/>
<path vector-effect="non-scaling-stroke" fill-rule="evenodd" clip-rule="evenodd" d="M12.6764 10.8397C13.0944 10.603 13.6074 10.6095 14.0193 10.8566L20.686 14.8566C21.0876 15.0976 21.3333 15.5316 21.3333 16C21.3333 16.4683 21.0876 16.9023 20.686 17.1433L14.0193 21.1433C13.6074 21.3904 13.0944 21.3969 12.6764 21.1602C12.2584 20.9236 12 20.4803 12 20V12C12 11.5196 12.2584 11.0764 12.6764 10.8397ZM14.6667 14.3549V17.645L17.4085 16L14.6667 14.3549Z" fill="#CECECE"/>
</svg>
