<svg preserveAspectRatio="none" width="32" height="32" viewBox="0 0 32 32" fill="none" xmlns="http://www.w3.org/2000/svg">
<path vector-effect="non-scaling-stroke" fill-rule="evenodd" clip-rule="evenodd" d="M25.7085 5.17383C25.8226 5.14229 25.9346 5.11161 26.0448 5.08143C27.0071 4.8178 27.8286 4.59278 28.6991 4.17251C28.9351 4.0447 29.2112 3.98714 29.4952 4.02185C30.164 4.10361 30.6667 4.67152 30.6667 5.34533V5.34667C30.6667 5.46918 30.6499 5.58911 30.6181 5.70374C30.3613 6.70522 29.6846 8.08131 29.1544 9.12195C29.0175 9.3907 28.8916 9.63437 28.7761 9.85779C28.6442 10.1131 28.5259 10.3419 28.4205 10.5515C28.3427 10.7062 28.2839 10.8271 28.2427 10.9171C28.2322 12.6529 27.9934 14.3801 27.5322 16.0542L27.5304 16.0606C25.8937 21.8868 21.6085 25.795 16.4174 27.3031L16.4171 27.3031C11.8358 28.6331 6.66407 27.6972 2.02863 25.1707C1.4849 24.8744 1.21677 24.2427 1.38133 23.6457C1.54588 23.0487 2.0998 22.6436 2.71858 22.6677C4.59327 22.7406 6.25872 22.2699 7.93115 21.4114C6.20014 20.3418 4.95683 19.0951 4.10438 17.7483C2.9282 15.89 2.55864 13.9398 2.57579 12.2033C2.59283 10.4771 2.99109 8.94005 3.37455 7.84784C3.56758 7.29803 3.76042 6.8509 3.90746 6.53668C3.9811 6.37932 4.04359 6.25457 4.08934 6.16618C4.11223 6.12196 4.13097 6.08678 4.14486 6.06109L4.16199 6.02971L4.16767 6.01945L4.16977 6.0157L4.17062 6.01417C4.171 6.0135 4.17135 6.01287 5.33339 6.66667L4.17135 6.01287C4.39484 5.61565 4.80575 5.3601 5.26086 5.33531C5.71596 5.31051 6.1522 5.51991 6.41753 5.8905C8.39853 8.65753 11.326 10.351 14.6663 10.6301C14.651 7.82308 16.4169 5.41227 19.0258 4.43534C21.1915 3.62441 23.7548 3.53044 25.7085 5.17383ZM5.73392 9.20834C5.4743 10.0564 5.25343 11.1054 5.24233 12.2297C5.22914 13.5653 5.51108 14.9846 6.35765 16.3222C7.20231 17.6567 8.67167 19.009 11.1996 20.1111C11.6468 20.3061 11.9519 20.7298 11.9949 21.2158C12.0379 21.7018 11.812 22.1725 11.4059 22.443C10.137 23.2883 8.82865 24.0272 7.42567 24.5474C10.298 25.3864 13.1456 25.476 15.6734 24.7423M5.73392 9.20834C8.41858 11.9306 12.0496 13.4348 16.0342 13.3329C16.757 13.3144 17.3334 12.7231 17.3334 12V10.6667H17.3335L17.3333 10.6484C17.3108 9.00681 18.3282 7.54404 19.961 6.93266C21.8151 6.23837 23.3524 6.44157 24.3355 7.55097C24.6786 7.93812 25.2146 8.09189 25.7108 7.94548C25.9884 7.86355 26.2807 7.78378 26.5839 7.70106C26.6988 7.66968 26.8153 7.63789 26.9332 7.60539C26.8821 7.70705 26.8304 7.80916 26.7784 7.91138C26.66 8.14363 26.5367 8.38253 26.4192 8.60997C26.277 8.88536 26.1435 9.14396 26.038 9.35364C25.9385 9.55151 25.8453 9.74254 25.7748 9.90329C25.7401 9.98238 25.7015 10.0754 25.6693 10.1701C25.6688 10.1717 25.6681 10.1736 25.6674 10.1757C25.6483 10.2313 25.5747 10.4461 25.5761 10.7034C25.5848 12.2707 25.3782 13.8318 24.9621 15.3429C23.5874 20.232 20.028 23.4772 15.6737 24.7422" fill="#CECECE"/>
</svg>
