<svg preserveAspectRatio="none" width="32" height="32" viewBox="0 0 32 32" fill="none" xmlns="http://www.w3.org/2000/svg">
<path vector-effect="non-scaling-stroke" fill-rule="evenodd" clip-rule="evenodd" d="M9.33335 7.99992C7.12421 7.99992 5.33335 9.79078 5.33335 11.9999V19.9999C5.33335 22.2091 7.12421 23.9999 9.33335 23.9999H22.6667C24.8758 23.9999 26.6667 22.2091 26.6667 19.9999V11.9999C26.6667 9.79078 24.8758 7.99992 22.6667 7.99992H9.33335ZM2.66669 11.9999C2.66669 8.31802 5.65146 5.33325 9.33335 5.33325H22.6667C26.3486 5.33325 29.3334 8.31802 29.3334 11.9999V19.9999C29.3334 23.6818 26.3486 26.6666 22.6667 26.6666H9.33335C5.65146 26.6666 2.66669 23.6818 2.66669 19.9999V11.9999Z" fill="#CECECE"/>
<path vector-effect="non-scaling-stroke" fill-rule="evenodd" clip-rule="evenodd" d="M12.6764 10.8398C13.0944 10.6031 13.6074 10.6096 14.0193 10.8568L20.686 14.8568C21.0876 15.0977 21.3333 15.5317 21.3333 16.0001C21.3333 16.4684 21.0876 16.9024 20.686 17.1434L14.0193 21.1434C13.6074 21.3906 13.0944 21.397 12.6764 21.1603C12.2584 20.9237 12 20.4804 12 20.0001V12.0001C12 11.5197 12.2584 11.0765 12.6764 10.8398ZM14.6667 14.355V17.6452L17.4085 16.0001L14.6667 14.355Z" fill="#CECECE"/>
</svg>
