<svg preserveAspectRatio="none" width="170" height="44" viewBox="0 0 170 44" fill="none" xmlns="http://www.w3.org/2000/svg">
<g clip-path="url(#clip0_103_70)">
<path vector-effect="non-scaling-stroke" d="M107.834 15.5018C106.869 15.7584 105.999 15.9132 104.918 16.0286V16.3572C106.134 16.3572 106.289 16.4932 106.289 17.4983V20.8771C105.574 19.7183 105.014 19.3715 103.972 19.3715C101.906 19.3715 100.46 21.3211 100.46 24.1028C100.46 26.8845 101.926 28.8359 104.03 28.8359C105.131 28.8359 105.884 28.3348 106.424 27.2531C106.501 27.9862 106.502 28.0633 106.695 28.7976C107.486 28.5462 107.814 28.4685 108.954 28.3336L109.242 28.2942V27.9662C107.949 27.9279 107.834 27.8308 107.834 26.6531V15.5018ZM55.7431 15.6424C55.1343 15.7131 54.5217 15.7458 53.9088 15.7401C53.3677 15.7401 53.0785 15.7212 52.3265 15.6629V16.1441C53.6579 16.2218 53.9277 16.4149 53.9277 17.3041V17.4206L53.5219 26.9039C53.4837 27.9473 53.2917 28.1011 51.9403 28.1982V28.6622C52.9448 28.5845 53.3288 28.5656 53.8694 28.5656C54.4105 28.5656 54.7956 28.5845 55.7813 28.6622V28.1982C54.4294 28.1011 54.1785 27.9273 54.1785 27.0776V26.9039L54.5648 16.8795L57.7305 25.4365L57.9625 26.1119L58.2339 26.8645L58.5036 27.6188L58.7167 28.2376H59.007L59.2179 27.5999L59.4687 26.8645L59.7384 26.1514L59.9704 25.5119L63.1567 16.8983L63.3304 26.9039V27.0005C63.3304 27.9085 63.0412 28.1205 61.7276 28.1982V28.6622C62.9441 28.5462 63.407 28.5079 64.1412 28.5079C64.8738 28.5079 65.3378 28.5462 66.5543 28.6622V28.1982C65.1641 28.1011 64.9898 27.9473 64.9709 26.9039L64.7595 17.4206V17.2852C64.7595 16.4155 65.0486 16.2224 66.3618 16.1441V15.6629C65.6281 15.7212 65.3189 15.7401 64.8367 15.7401C64.2572 15.7401 63.8527 15.7201 62.9835 15.6424L59.335 25.4171L55.7431 15.6424ZM130.843 15.7195V16.2041C132.232 16.2806 132.426 16.4343 132.426 17.4778V26.8451C132.426 27.8885 132.272 28.0228 130.843 28.1393V28.6033H135.728C137.156 28.6033 137.928 28.4296 138.739 27.9279C139.705 27.3096 140.341 26.1302 140.341 24.9131C140.341 23.8708 139.897 22.9251 139.144 22.3457C138.738 22.0371 138.313 21.8623 137.619 21.7268C139.009 21.2057 139.744 20.2206 139.744 18.8692C139.744 17.8635 139.318 16.9743 138.584 16.4149C137.928 15.9321 137.175 15.7189 135.92 15.7189L130.843 15.7195ZM134.048 16.3195H135.688C137.311 16.3195 138.024 17.1103 138.024 18.9075C138.024 19.7954 137.813 20.4332 137.388 20.9354C136.964 21.4183 136.442 21.5731 135.36 21.5731H134.048V16.3195ZM89.6455 19.0812L89.1232 20.0657C88.5055 19.4669 87.9843 19.2543 87.1546 19.2543C84.8764 19.2543 83.3313 21.2257 83.3313 24.1028C83.3313 26.9228 84.857 28.817 87.0964 28.817C88.8346 28.817 89.934 27.6953 90.1849 25.6285H89.3929C89.1615 27.3285 88.4466 28.1793 87.2489 28.1793C85.7632 28.1793 85.0107 26.8079 85.0107 24.1028C85.0107 21.3406 85.8615 19.7772 87.3089 19.7772C88.4872 19.7772 89.2003 20.5874 89.5472 22.2674H89.9735V19.0812H89.6455ZM124.238 19.1395L123.91 19.9303C123.254 19.4869 122.695 19.3132 121.942 19.3132C120.242 19.3132 119.046 20.356 119.046 21.8823C119.046 23.0023 119.491 23.5428 120.899 24.2005L121.787 24.6045L122.52 24.9331C123.466 25.3582 123.834 25.8022 123.834 26.4588C123.834 27.4445 122.984 28.1982 121.845 28.1982C120.494 28.1982 119.682 27.3485 119.334 25.5908L118.911 25.6097V28.8359H119.258L119.72 27.9662C120.454 28.5456 121.149 28.7776 122.038 28.7776C123.853 28.7776 125.147 27.6199 125.147 25.9965C125.147 24.8571 124.624 24.2382 123.158 23.6011L122.347 23.2537C120.589 22.4811 120.301 22.2308 120.301 21.4577C120.301 20.5497 121.092 19.8543 122.115 19.8543C123.331 19.8543 123.968 20.5886 124.142 22.1331H124.587V19.1389L124.238 19.1395ZM152.777 19.1395C152.007 19.4103 151.349 19.564 150.228 19.7189V20.0469C150.325 20.0469 150.423 20.0657 150.481 20.0657C151.446 20.0657 151.561 20.1829 151.58 20.9743V27.2325C151.58 28.0628 151.389 28.2176 150.211 28.2753V28.6622C151.215 28.565 151.619 28.5468 152.294 28.5468C152.99 28.5468 153.377 28.565 154.381 28.6622V28.2753C153.377 28.2371 153.126 28.0433 153.126 27.2719V22.5954C153.126 21.012 153.82 20.1829 155.134 20.1829C156.368 20.1829 156.87 20.8583 156.87 22.5388V27.2719C156.87 28.0433 156.619 28.2371 155.577 28.2753V28.6622C156.58 28.565 156.966 28.5468 157.681 28.5468C158.375 28.5468 158.763 28.565 159.787 28.6622V28.2753C158.609 28.2182 158.414 28.0628 158.414 27.2325V22.5954C158.414 21.8623 158.318 21.3211 158.124 20.8583C157.739 19.9114 156.735 19.3132 155.577 19.3132C154.458 19.3132 153.665 19.7766 152.969 20.82C152.93 20.0857 152.874 19.584 152.777 19.1395ZM78.4759 19.1772C77.6833 19.4086 77.0274 19.5257 75.9268 19.6223V19.9697H76.1776C77.1811 19.9886 77.2788 20.0863 77.2976 20.9166V27.2325C77.2976 28.0628 77.0862 28.2176 75.9079 28.2753V28.6622C76.9702 28.565 77.3753 28.545 78.0708 28.545C78.7462 28.545 79.1519 28.565 80.2125 28.6622V28.2753C79.0353 28.2182 78.8422 28.0628 78.8422 27.2325V23.1954C78.8422 21.2823 79.4787 20.0674 80.4822 20.0674C80.8296 20.0674 81.0627 20.2589 81.0627 20.5303V20.7034L81.0233 20.8977C81.0044 20.9754 80.9856 21.052 80.9856 21.0897C80.9856 21.4771 81.333 21.7468 81.7776 21.7468C82.2599 21.7468 82.5884 21.3789 82.5884 20.8189C82.5884 19.8926 81.8736 19.2549 80.9084 19.2549C79.905 19.2549 79.0736 19.8926 78.6496 20.9937V20.7806C78.6102 20.2012 78.5719 19.8926 78.4759 19.1772ZM71.244 19.2549C68.9269 19.2549 67.48 21.128 67.48 24.1028C67.48 27.0771 68.9269 28.817 71.4171 28.817C73.3091 28.817 74.5445 27.6376 74.796 25.6479H74.0245C73.7925 27.2902 72.9428 28.1793 71.572 28.1793C69.8154 28.1793 69.0435 26.8279 69.0246 23.8137H74.7771C74.7388 20.8394 73.5223 19.2549 71.244 19.2549ZM95.3254 19.2549C93.0083 19.2549 91.5603 21.128 91.5603 24.1028C91.5603 27.0771 93.0083 28.817 95.4985 28.817C97.3905 28.817 98.6271 27.6376 98.8773 25.6479H98.1048C97.8734 27.2902 97.0242 28.1793 95.6534 28.1793C93.8968 28.1793 93.1237 26.8279 93.1043 23.8137H98.8585C98.8191 20.8394 97.6036 19.2549 95.3254 19.2549ZM113.739 19.2549C111.422 19.2549 109.974 21.128 109.974 24.1028C109.974 27.0771 111.422 28.817 113.913 28.817C115.805 28.817 117.04 27.6376 117.291 25.6479H116.518C116.286 27.2902 115.438 28.1793 114.067 28.1793C112.311 28.1793 111.538 26.8279 111.518 23.8137H117.273C117.233 20.8394 116.017 19.2549 113.739 19.2549ZM145.674 19.2549C143.357 19.2549 141.909 21.128 141.909 24.1028C141.909 27.0771 143.357 28.817 145.848 28.817C147.74 28.817 148.975 27.6376 149.226 25.6479H148.453C148.222 27.2902 147.374 28.1793 146.004 28.1793C144.246 28.1793 143.474 26.8279 143.455 23.8137H149.208C149.168 20.8394 147.953 19.2549 145.674 19.2549ZM161.194 19.4863L160.747 21.9977H161.135C161.83 20.2594 162.138 19.9886 163.394 19.9886H165.767L160.536 28.6039H167.176L167.68 25.8228H167.275C166.694 27.5805 166.155 28.1016 164.84 28.1016H162.583L167.834 19.4863H161.194ZM71.2251 19.7566C72.48 19.7566 73.1165 20.8383 73.2331 23.1183H69.0623C69.2555 20.8971 69.9892 19.7566 71.2251 19.7566ZM95.3048 19.7566C96.5597 19.7566 97.1968 20.8383 97.3128 23.1183H93.142C93.3351 20.8971 94.0688 19.7566 95.3048 19.7566ZM113.72 19.7566C114.975 19.7566 115.612 20.8383 115.728 23.1183H111.558C111.75 20.8971 112.485 19.7566 113.72 19.7566ZM145.655 19.7566C146.91 19.7566 147.547 20.8383 147.663 23.1183H143.493C143.685 20.8971 144.42 19.7566 145.655 19.7566ZM104.146 19.9109C105.574 19.9109 106.308 21.3806 106.308 24.2194C106.308 26.9045 105.594 28.2942 104.204 28.2942C102.814 28.2942 102.081 26.8462 102.081 24.084C102.081 21.2829 102.756 19.9109 104.146 19.9109ZM134.048 22.1726H135.882C136.905 22.1726 137.484 22.3451 137.928 22.7897C138.372 23.2343 138.622 24.064 138.622 24.9914C138.622 26.9228 137.657 28.0056 135.939 28.0056H135.245C134.221 28.0056 134.048 27.8496 134.048 26.9999V22.1726ZM126.304 22.9383V23.9371H130.619V22.9383H126.304ZM22.0532 8.30931C22.0532 8.03217 21.9692 8.02303 21.9469 8.29903L21.0635 21.4737L21.9424 21.988L22.0526 8.30988L22.0532 8.30931ZM17.9298 24.5514L21.6384 22.496L20.7961 22.0274L17.8258 24.4594C17.6601 24.6017 17.7344 24.6605 17.9298 24.5514Z" fill="#B7BFC7"/>
<path vector-effect="non-scaling-stroke" d="M22.1164 1.25391C10.3565 1.24819 0.818359 10.6938 0.818359 22.3348C0.818359 33.9758 10.3497 43.4116 22.1164 43.4156C33.8831 43.4191 43.4229 33.9758 43.4229 22.3348C43.4229 10.6932 33.8916 1.25391 22.1164 1.25391ZM22.1164 42.6128C14.113 42.6128 7.83312 38.4506 4.84231 32.7272L5.30459 32.5575C6.08172 33.8255 7.09713 34.9403 8.46112 36.4472C10.1422 38.2951 15.4587 41.8642 22.1124 41.8642C25.4707 41.8764 28.7763 41.0296 31.7151 39.4043C34.6545 37.7785 37.1296 35.4283 38.9053 32.5769C39.1739 32.5015 39.2596 32.3849 39.1704 32.1512C40.7698 29.3324 41.8561 25.7913 41.8561 22.3308C41.8561 20.1514 41.5361 18.3783 41.0293 16.7937C40.7156 15.8176 40.3337 14.8648 39.8864 13.9423C39.8358 13.8609 39.8097 13.7667 39.811 13.6709C39.8916 13.732 39.9567 13.8115 40.0007 13.9023C40.3098 14.4669 41.0024 15.8497 41.3275 16.7497C41.7664 17.9508 42.5481 19.6137 42.5481 22.3308C42.5527 33.4221 33.4711 42.6191 22.1164 42.6128ZM5.06173 32.2369L19.9775 21.5108L18.7016 20.7828L5.41258 31.8341C3.92003 29.1284 2.88347 25.6542 2.88347 22.3502C2.88347 11.8875 11.2091 3.41674 21.7507 3.35217L19.0313 20.2737L20.3021 21.0125L22.0107 3.35502C22.0427 3.13217 22.1952 3.13217 22.1952 3.35502L22.2958 21.9753L25.3226 20.1977L22.4221 3.34817C32.7831 3.62531 41.367 11.9858 41.367 22.3171C41.367 25.6484 40.3613 29.1284 38.8373 31.8512L25.562 20.7885L24.2838 21.5188L38.5522 31.8712C38.895 32.1152 38.7899 32.2261 38.4253 32.0226L22.4026 22.7782V26.2427L38.4619 32.3815C35.0962 37.8729 29.0254 41.386 22.0752 41.386C15.1096 41.386 9.13653 37.8746 5.77087 32.3746L21.8587 26.2319V22.7679L5.1983 32.3964C4.80288 32.6141 4.69831 32.4924 5.06173 32.2369ZM4.65145 32.4426C3.94689 30.9815 3.20461 28.9227 2.89719 27.2941C2.88233 27.2084 2.88576 27.1204 2.90862 27.037C2.96005 27.1136 2.9989 27.1981 3.02576 27.2867C3.50861 28.7815 3.93032 30.1261 5.03202 32.1455L4.65145 32.4426ZM42.5178 18.7582C42.467 18.6847 42.4279 18.6037 42.4018 18.5183C40.8447 13.7137 39.5184 11.8263 36.9625 9.01952C33.5945 5.32357 28.0974 2.46589 22.2466 2.45961C11.0639 2.45846 1.99206 11.5372 1.99206 22.7245C1.99206 26.0502 2.71719 28.9233 3.30004 30.3661C3.98289 32.0392 5.16516 34.2929 5.22402 34.3946C5.26573 34.4775 5.28687 34.5695 5.28687 34.6626C5.21007 34.6012 5.14536 34.526 5.09602 34.4409C4.75716 33.9483 3.36804 31.4455 2.93776 30.3512C1.99206 27.9707 1.29778 25.3736 1.29778 22.6479C1.29778 11.1178 10.6245 1.76762 22.1569 1.76762C32.4591 1.76762 40.7641 8.92752 42.5178 18.5114C42.535 18.5931 42.535 18.6771 42.5178 18.7582Z" fill="#B7BFC7"/>
<path vector-effect="non-scaling-stroke" d="M34.4784 29.3499L23.4985 21.9883L22.5957 22.5043L34.4258 29.4339C34.6361 29.555 34.6807 29.4796 34.4784 29.3499Z" fill="#B7BFC7"/>
</g>
<defs>
<clipPath id="clip0_103_70">
<rect vector-effect="non-scaling-stroke" width="169.141" height="43.9994" fill="white" transform="translate(0.109375)"/>
</clipPath>
</defs>
</svg>
