<svg preserveAspectRatio="none" width="24" height="25" viewBox="0 0 24 25" fill="none" xmlns="http://www.w3.org/2000/svg">
<path vector-effect="non-scaling-stroke" d="M12.5 3.84071C12.348 3.75294 12.1755 3.70674 12 3.70674C11.8245 3.70674 11.652 3.75294 11.5 3.84071L4 8.17071V20.5937H8.5V14.5937C8.5 14.3285 8.60536 14.0741 8.79289 13.8866C8.98043 13.6991 9.23478 13.5937 9.5 13.5937H14.5C14.7652 13.5937 15.0196 13.6991 15.2071 13.8866C15.3946 14.0741 15.5 14.3285 15.5 14.5937V20.5937H20V8.17071L12.5 3.84071ZM10.5 2.10871C10.9561 1.84541 11.4734 1.70679 12 1.70679C12.5266 1.70679 13.0439 1.84541 13.5 2.10871L21 6.43871C21.304 6.61424 21.5565 6.86671 21.732 7.17074C21.9076 7.47477 22 7.81965 22 8.17071V21.5937C22 21.8589 21.8946 22.1133 21.7071 22.3008C21.5196 22.4884 21.2652 22.5937 21 22.5937H14.5C14.2348 22.5937 13.9804 22.4884 13.7929 22.3008C13.6054 22.1133 13.5 21.8589 13.5 21.5937V15.5937H10.5V21.5937C10.5 21.8589 10.3946 22.1133 10.2071 22.3008C10.0196 22.4884 9.76522 22.5937 9.5 22.5937H3C2.73478 22.5937 2.48043 22.4884 2.29289 22.3008C2.10536 22.1133 2 21.8589 2 21.5937V8.17071C2.00001 7.81965 2.09243 7.47477 2.26796 7.17074C2.4435 6.86671 2.69597 6.61424 3 6.43871L10.5 2.10871Z" fill="#B3B3B3"/>
</svg>
