<svg preserveAspectRatio="none" width="16" height="17" viewBox="0 0 16 17" fill="none" xmlns="http://www.w3.org/2000/svg">
<path vector-effect="non-scaling-stroke" d="M8 16.5C5.87827 16.5 3.84344 15.6571 2.34315 14.1569C0.842855 12.6566 0 10.6217 0 8.5C0 6.37827 0.842855 4.34344 2.34315 2.84315C3.84344 1.34285 5.87827 0.5 8 0.5C10.1217 0.5 12.1566 1.34285 13.6569 2.84315C15.1571 4.34344 16 6.37827 16 8.5C16 10.6217 15.1571 12.6566 13.6569 14.1569C12.1566 15.6571 10.1217 16.5 8 16.5ZM6 7.428C6.40283 7.3079 6.74897 7.04681 6.97513 6.69248C7.20129 6.33815 7.29235 5.91425 7.23167 5.4983C7.17098 5.08235 6.9626 4.70214 6.64463 4.4272C6.32666 4.15225 5.92035 4.00095 5.5 4.00095C5.07965 4.00095 4.67334 4.15225 4.35537 4.4272C4.0374 4.70214 3.82902 5.08235 3.76833 5.4983C3.70765 5.91425 3.79871 6.33815 4.02487 6.69248C4.25103 7.04681 4.59717 7.3079 5 7.428V8C5 8.39782 5.15804 8.77936 5.43934 9.06066C5.72064 9.34196 6.10218 9.5 6.5 9.5H7.5V10.572C7.09717 10.6921 6.75103 10.9532 6.52487 11.3075C6.29871 11.6618 6.20765 12.0857 6.26833 12.5017C6.32902 12.9176 6.5374 13.2979 6.85537 13.5728C7.17334 13.8477 7.57965 13.9991 8 13.9991C8.42035 13.9991 8.82666 13.8477 9.14463 13.5728C9.4626 13.2979 9.67098 12.9176 9.73167 12.5017C9.79235 12.0857 9.70129 11.6618 9.47513 11.3075C9.24897 10.9532 8.90283 10.6921 8.5 10.572V9.5H9.5C9.89782 9.5 10.2794 9.34196 10.5607 9.06066C10.842 8.77936 11 8.39782 11 8V7.428C11.4028 7.3079 11.749 7.04681 11.9751 6.69248C12.2013 6.33815 12.2924 5.91425 12.2317 5.4983C12.171 5.08235 11.9626 4.70214 11.6446 4.4272C11.3267 4.15225 10.9204 4.00095 10.5 4.00095C10.0796 4.00095 9.67334 4.15225 9.35537 4.4272C9.0374 4.70214 8.82902 5.08235 8.76833 5.4983C8.70765 5.91425 8.79871 6.33815 9.02487 6.69248C9.25103 7.04681 9.59717 7.3079 10 7.428V8C10 8.13261 9.94732 8.25979 9.85355 8.35355C9.75979 8.44732 9.63261 8.5 9.5 8.5H6.5C6.36739 8.5 6.24021 8.44732 6.14645 8.35355C6.05268 8.25979 6 8.13261 6 8V7.428Z" fill="#8B949E"/>
</svg>
