<svg preserveAspectRatio="none" width="16" height="16" viewBox="0 0 16 16" fill="none" xmlns="http://www.w3.org/2000/svg">
<path vector-effect="non-scaling-stroke" d="M4.96991 0.46995C4.82946 0.610576 4.75057 0.8012 4.75057 0.99995C4.75057 1.1987 4.82946 1.38933 4.96991 1.52995L11.4399 7.99995L4.96991 14.47C4.89622 14.5386 4.83712 14.6214 4.79613 14.7134C4.75514 14.8054 4.73309 14.9047 4.73132 15.0054C4.72954 15.1061 4.74807 15.2062 4.78579 15.2995C4.82351 15.3929 4.87965 15.4778 4.95087 15.549C5.02209 15.6202 5.10692 15.6764 5.20031 15.7141C5.2937 15.7518 5.39373 15.7703 5.49443 15.7685C5.59513 15.7668 5.69445 15.7447 5.78645 15.7037C5.87845 15.6627 5.96125 15.6036 6.02991 15.53L13.5599 7.99995L6.02991 0.46995C5.88928 0.3295 5.69866 0.25061 5.49991 0.25061C5.30116 0.25061 5.11053 0.3295 4.96991 0.46995Z" fill="white"/>
</svg>
