<svg preserveAspectRatio="none" width="131" height="40" viewBox="0 0 131 40" fill="none" xmlns="http://www.w3.org/2000/svg">
<path vector-effect="non-scaling-stroke" d="M0.924316 20.1155C0.924316 30.7434 9.70386 39.5229 20.3317 39.5229C30.9596 39.5229 39.7391 30.7434 39.7391 20.1155C39.7391 9.48763 30.9596 0.823608 20.3317 0.823608C9.70386 0.823608 0.924316 9.48763 0.924316 20.1155ZM27.494 29.1261C22.9887 26.3536 17.2127 25.6605 10.5125 27.1622C8.89522 27.3933 8.66418 25.0829 10.0504 24.8518C17.4437 23.119 23.6818 23.9277 28.7647 27.0467C30.0354 27.8554 28.7647 29.8192 27.494 29.1261ZM29.4578 23.9277C24.2594 20.6931 16.2885 19.7689 10.1659 21.6173C8.20209 22.1949 7.50897 19.1913 9.3573 18.7293C16.404 16.6499 25.0681 17.6896 31.0751 21.3862C32.6924 22.4259 31.0751 24.9673 29.4578 23.9277ZM9.24178 15.7257C7.27793 16.4188 6.00721 13.0688 8.20209 12.2601C15.0178 10.1808 26.5698 10.5273 33.7321 14.8016C35.6959 15.8412 33.8476 19.0758 31.7682 17.9206C25.5301 14.224 15.1333 13.8774 9.24178 15.7257ZM53.024 26.2381C51.0601 26.2381 49.2118 25.5449 47.5945 23.9277C47.479 23.9277 47.479 24.0432 47.479 24.0432L45.6307 26.2381C45.5151 26.3536 45.5151 26.4691 45.6307 26.5846C47.71 28.433 50.2515 29.3571 53.024 29.3571C56.9516 29.3571 59.3776 27.1622 59.3776 23.9277C59.3776 21.1552 57.6448 19.6534 53.6016 18.6137C50.2515 17.8051 49.6739 17.2275 49.6739 16.0723C49.6739 14.9171 50.8291 14.224 52.3308 14.224C53.8326 14.224 55.2188 14.8016 56.8361 15.9568C56.8361 15.9568 56.9516 16.0723 57.0672 16.0723C57.1827 16.0723 57.1827 15.9568 57.1827 15.9568L58.8 13.6464C58.9155 13.5308 58.9155 13.5308 58.8 13.4153C56.9516 11.9136 54.7568 11.1049 52.3308 11.1049C48.7497 11.1049 46.2083 13.2998 46.2083 16.4188C46.2083 19.7689 48.5187 20.8086 52.2153 21.7328C55.4499 22.4259 55.912 23.119 55.912 24.2742C55.912 25.5449 54.7568 26.2381 53.024 26.2381ZM63.9984 17.343V15.8412C63.9984 15.7257 63.8829 15.6102 63.7673 15.6102H60.7638C60.6483 15.6102 60.5328 15.7257 60.5328 15.8412V32.8227C60.5328 32.9382 60.6483 33.0538 60.7638 33.0538H63.7673C63.8829 33.0538 63.9984 32.9382 63.9984 32.8227V27.5088C65.1536 28.7795 66.4243 29.3571 68.1571 29.3571C71.2762 29.3571 74.3952 26.9312 74.3952 22.3104C74.3952 17.6896 71.2762 15.3792 68.1571 15.3792C66.4243 15.3792 65.1536 15.9568 63.9984 17.343ZM67.464 26.3536C65.3846 26.3536 63.8829 24.6208 63.8829 22.3104C63.8829 20 65.3846 18.3827 67.464 18.3827C69.5434 18.3827 70.9296 20 70.9296 22.3104C70.9296 24.6208 69.5434 26.3536 67.464 26.3536ZM75.3194 22.4259C75.3194 26.3536 78.4384 29.3571 82.4816 29.3571C86.5248 29.3571 89.6439 26.2381 89.6439 22.3104C89.6439 18.3827 86.6404 15.3792 82.5972 15.3792C78.5539 15.3792 75.3194 18.4982 75.3194 22.4259ZM78.785 22.3104C78.785 20 80.2867 18.3827 82.4816 18.3827C84.6765 18.3827 86.2938 20.1155 86.2938 22.4259C86.2938 24.7363 84.792 26.3536 82.5972 26.3536C80.4023 26.3536 78.785 24.6208 78.785 22.3104ZM94.9578 15.6102V12.2601C94.9578 12.1446 94.9578 12.0291 94.8423 12.0291H91.8388C91.7233 12.0291 91.6077 12.1446 91.6077 12.2601V15.6102H90.106C89.9904 15.6102 89.8749 15.7257 89.8749 15.8412V18.3827C89.8749 18.4982 89.9904 18.6137 90.106 18.6137H91.6077V25.3139C91.6077 27.9709 92.8785 29.3571 95.5354 29.3571C96.5751 29.3571 97.6148 29.1261 98.4234 28.664C98.5389 28.664 98.5389 28.5485 98.5389 28.433V26.007C98.5389 25.8915 98.5389 25.776 98.4234 25.776H98.1924C97.6148 26.1226 96.9217 26.2381 96.3441 26.2381C95.4199 26.2381 94.9578 25.776 94.9578 24.8518V18.6137H98.4234C98.5389 18.6137 98.6545 18.4982 98.6545 18.3827V15.8412C98.6545 15.7257 98.5389 15.6102 98.4234 15.6102H94.9578ZM109.86 15.2636C109.86 13.9929 110.322 13.5308 111.362 13.5308C111.939 13.5308 112.517 13.5308 113.095 13.7619H113.21C113.21 13.7619 113.326 13.6464 113.326 13.5308V11.1049C113.326 10.9894 113.326 10.8739 113.21 10.8739C112.632 10.6428 111.824 10.5273 110.669 10.5273C107.896 10.5273 106.51 12.1446 106.51 15.0326V15.6102H105.008C104.893 15.6102 104.777 15.7257 104.777 15.8412V18.3827C104.777 18.4982 104.893 18.6137 105.008 18.6137H106.51V28.895C106.51 29.0106 106.625 29.1261 106.741 29.1261H109.744C109.86 29.1261 109.86 29.0106 109.86 28.895V18.6137H112.748L117.022 28.895C116.56 29.9347 116.098 30.1658 115.405 30.1658C114.827 30.1658 114.25 30.0502 113.672 29.7037H113.557L113.441 29.8192L112.401 32.0141C112.401 32.1296 112.401 32.3606 112.517 32.3606C113.557 32.9382 114.481 33.1693 115.636 33.1693C117.831 33.1693 119.102 32.1296 120.141 29.3571L125.34 15.9568V15.7257C125.34 15.6102 125.224 15.6102 125.109 15.6102H121.99C121.874 15.6102 121.874 15.7257 121.874 15.8412L118.639 24.8518L115.174 15.8412C115.174 15.7257 115.058 15.6102 114.943 15.6102H109.86V15.2636ZM100.272 15.6102C100.156 15.6102 100.041 15.7257 100.041 15.8412V28.895C100.041 29.0106 100.156 29.1261 100.272 29.1261H103.275C103.391 29.1261 103.391 29.0106 103.391 28.895V15.8412C103.391 15.7257 103.391 15.6102 103.275 15.6102H100.272ZM99.5786 11.798C99.5786 12.9532 100.618 13.9929 101.774 13.9929C102.929 13.9929 103.853 12.9532 103.853 11.798C103.853 10.6428 102.929 9.71867 101.774 9.71867C100.618 9.71867 99.5786 10.6428 99.5786 11.798ZM127.881 19.7689C129.036 19.7689 130.076 18.8448 130.076 17.6896C130.076 16.5344 129.036 15.6102 127.881 15.6102C126.726 15.6102 125.802 16.5344 125.802 17.6896C125.802 18.8448 126.726 19.7689 127.881 19.7689ZM127.881 15.8412C128.921 15.8412 129.845 16.6499 129.845 17.6896C129.845 18.7293 128.921 19.5379 127.881 19.5379C126.841 19.5379 126.033 18.7293 126.033 17.6896C126.033 16.6499 126.841 15.8412 127.881 15.8412ZM128.343 17.9206C128.69 17.8051 128.921 17.574 128.921 17.2275C128.921 16.7654 128.459 16.5344 127.997 16.5344H127.072V18.7293H127.535V18.0361H127.997L128.459 18.7293H129.036L128.343 17.9206ZM127.997 16.8809C128.228 16.8809 128.459 16.9964 128.459 17.2275C128.459 17.4585 128.228 17.574 127.997 17.574H127.535V16.8809H127.997Z" fill="white"/>
</svg>
