<svg preserveAspectRatio="none" width="15" height="15" viewBox="0 0 15 15" fill="none" xmlns="http://www.w3.org/2000/svg">
<path vector-effect="non-scaling-stroke" fill-rule="evenodd" clip-rule="evenodd" d="M9.61082 4.80206V3.46873H5.61082V4.80206H4.27749V3.46873H2.27749V6.1354H12.9442V3.46873H10.9442V4.80206H9.61082ZM4.27749 2.1354H2.27749C1.92386 2.1354 1.58473 2.27587 1.33468 2.52592C1.08463 2.77597 0.944153 3.11511 0.944153 3.46873V7.46873H14.2775V3.46873C14.2775 3.11511 14.137 2.77597 13.887 2.52592C13.6369 2.27587 13.2978 2.1354 12.9442 2.1354H10.9442V0.802063H9.61082V2.1354H5.61082V0.802063H4.27749V2.1354ZM2.27749 8.80206V12.8021H12.9442V8.80206H14.2775V14.1354H0.944153V8.80206H2.27749Z" fill="white" fill-opacity="0.54"/>
</svg>
