<svg preserveAspectRatio="none" width="24" height="24" viewBox="0 0 24 24" fill="none" xmlns="http://www.w3.org/2000/svg">
<path vector-effect="non-scaling-stroke" d="M17.6555 6.33313C18.0072 6.68435 18.0077 7.2542 17.6564 7.60593L13.5533 11.7144C13.3973 11.8705 13.3973 12.1235 13.5533 12.2797L17.6564 16.3885C17.9784 16.7109 18.0049 17.2166 17.7361 17.5692L17.6555 17.6613C17.3038 18.0125 16.7339 18.0121 16.3827 17.6603L12.2821 13.5535C12.1258 13.397 11.8722 13.397 11.7159 13.5536L7.61687 17.6603C7.26565 18.0121 6.6958 18.0125 6.34407 17.6613C5.99234 17.3101 5.99192 16.7402 6.34313 16.3885L10.4458 12.2796C10.6017 12.1235 10.6017 11.8705 10.4458 11.7144L6.34313 7.60593C6.02119 7.28351 5.99471 6.77781 6.26346 6.42524L6.34407 6.33313C6.6958 5.98192 7.26565 5.98234 7.61687 6.33407L11.716 10.4396C11.8722 10.596 12.1258 10.5961 12.2821 10.4396L16.3827 6.33407C16.7339 5.98234 17.3038 5.98192 17.6555 6.33313Z" fill="#252A31"/>
</svg>
