<svg preserveAspectRatio="none" width="16" height="16" viewBox="0 0 16 16" fill="none" xmlns="http://www.w3.org/2000/svg">
<path vector-effect="non-scaling-stroke" d="M6.14866 2.85298L6.37458 2.7852L6.46595 2.56775L7.33475 0.5H8.66525L9.53405 2.56775L9.61082 2.75047L9.79194 2.83097C9.8752 2.86797 9.96433 2.91017 10.0603 2.95561L10.0632 2.957C10.156 3.00094 10.2553 3.04797 10.3505 3.09032L10.548 3.1781L10.7473 3.09438L12.8117 2.227L13.773 3.18834L12.9056 5.2527L12.8115 5.47676L12.9295 5.68921C13.0247 5.86055 13.1065 6.02796 13.1516 6.1631L13.2233 6.37814L13.4323 6.46595L15.5 7.33475V8.66525L13.4323 9.53405L13.2495 9.61082L13.169 9.79194C13.132 9.8752 13.0898 9.96433 13.0444 10.0603L13.043 10.0631C12.9991 10.1559 12.952 10.2552 12.9097 10.3505L12.8219 10.548L12.9056 10.7473L13.773 12.8117L12.8117 13.773L10.7473 12.9056L10.5232 12.8115L10.3108 12.9295C10.1963 12.9931 10.0775 13.0446 9.94012 13.1042C9.89309 13.1246 9.84389 13.1459 9.79194 13.169L9.61082 13.2495L9.53405 13.4323L8.66525 15.5H7.33475L6.46595 13.4323L6.38492 13.2394L6.19068 13.1617C6.1085 13.1288 6.02712 13.0905 5.93694 13.0466C5.92096 13.0389 5.90441 13.0308 5.8874 13.0224C5.81347 12.9863 5.73086 12.9459 5.64945 12.9097L5.45195 12.8219L5.2527 12.9056L3.18834 13.773L2.227 12.8117L3.09438 10.7473L3.18337 10.5355L3.08063 10.33C2.98007 10.1289 2.90931 9.98684 2.8383 9.80932L2.76061 9.61508L2.56775 9.53405L0.5 8.66525V7.33475L2.56775 6.46595L2.76061 6.38492L2.8383 6.19068C2.90931 6.01317 2.98007 5.87111 3.08063 5.66999L3.18337 5.46451L3.09438 5.2527L2.227 3.18834L3.18834 2.227L5.2527 3.09438L5.47676 3.18852L5.68921 3.0705C5.8764 2.9665 6.00947 2.89473 6.14866 2.85298ZM11.4925 7.98005C11.4925 6.04805 9.932 4.48753 8 4.48753C6.068 4.48753 4.50748 6.04805 4.50748 7.98005C4.50748 9.91205 6.068 11.4726 8 11.4726C9.932 11.4726 11.4925 9.91205 11.4925 7.98005Z" stroke="#505662"/>
</svg>
