<svg preserveAspectRatio="none" width="61" height="57" viewBox="0 0 61 57" fill="none" xmlns="http://www.w3.org/2000/svg">
<path vector-effect="non-scaling-stroke" d="M36.8601 20.1254H3.515C2.77498 20.1254 2.06526 20.4194 1.54197 20.9426C1.01867 21.4659 0.724664 22.1756 0.724609 22.9156V44.97C0.724637 45.71 1.01863 46.4197 1.54193 46.943C2.06522 47.4663 2.77495 47.7603 3.515 47.7603H13.8411C14.2367 47.7604 14.616 47.9175 14.8957 48.1972C15.1754 48.4769 15.3325 48.8562 15.3326 49.2518V54.4572C15.3326 54.7747 15.4245 55.0854 15.5972 55.3518C15.77 55.6181 16.0162 55.8288 16.3061 55.9582C16.5959 56.0877 16.9171 56.1305 17.2308 56.0814C17.5444 56.0322 17.8371 55.8934 18.0736 55.6815L26.2695 48.3359C26.6831 47.9653 27.2189 47.7602 27.7743 47.7601H36.86C37.6 47.7601 38.3097 47.4661 38.833 46.9428C39.3563 46.4195 39.6503 45.7098 39.6503 44.9697V22.9156C39.6502 22.1756 39.3563 21.466 38.833 20.9427C38.3098 20.4195 37.6001 20.1255 36.8601 20.1254ZM20.1874 38.5947H9.21822C9.03382 38.5992 8.85038 38.5667 8.6787 38.4993C8.50702 38.4318 8.35057 38.3307 8.21856 38.2018C8.08655 38.073 7.98165 37.9191 7.91002 37.7491C7.8384 37.5791 7.8015 37.3965 7.8015 37.212C7.8015 37.0276 7.8384 36.845 7.91002 36.675C7.98165 36.505 8.08655 36.3511 8.21856 36.2222C8.35057 36.0934 8.50702 35.9923 8.6787 35.9248C8.85038 35.8573 9.03382 35.8249 9.21822 35.8294H20.1874C20.3718 35.8249 20.5552 35.8573 20.7269 35.9248C20.8986 35.9923 21.0551 36.0934 21.1871 36.2222C21.3191 36.3511 21.424 36.505 21.4956 36.675C21.5672 36.845 21.6041 37.0276 21.6041 37.212C21.6041 37.3965 21.5672 37.5791 21.4956 37.7491C21.424 37.9191 21.3191 38.073 21.1871 38.2018C21.0551 38.3307 20.8986 38.4318 20.7269 38.4993C20.5552 38.5667 20.3718 38.5992 20.1874 38.5947ZM31.1576 38.5947H26.8796C26.6952 38.5992 26.5117 38.5667 26.34 38.4993C26.1684 38.4318 26.0119 38.3307 25.8799 38.2018C25.7479 38.073 25.643 37.9191 25.5714 37.7491C25.4997 37.5791 25.4628 37.3965 25.4628 37.212C25.4628 37.0276 25.4997 36.845 25.5714 36.675C25.643 36.505 25.7479 36.3511 25.8799 36.2222C26.0119 36.0934 26.1684 35.9923 26.34 35.9248C26.5117 35.8573 26.6952 35.8249 26.8796 35.8294H31.1576C31.5185 35.8382 31.8616 35.9877 32.1137 36.246C32.3659 36.5044 32.507 36.851 32.507 37.212C32.507 37.573 32.3659 37.9197 32.1137 38.178C31.8616 38.4364 31.5185 38.5859 31.1576 38.5947ZM31.1576 31.5893H9.21822C9.03382 31.5938 8.85038 31.5614 8.6787 31.4939C8.50702 31.4264 8.35057 31.3253 8.21856 31.1965C8.08655 31.0677 7.98165 30.9137 7.91002 30.7437C7.8384 30.5737 7.8015 30.3911 7.8015 30.2067C7.8015 30.0222 7.8384 29.8396 7.91002 29.6696C7.98165 29.4997 8.08655 29.3457 8.21856 29.2169C8.35057 29.0881 8.50702 28.9869 8.6787 28.9195C8.85038 28.852 9.03382 28.8195 9.21822 28.824H31.1576C31.5185 28.8328 31.8616 28.9824 32.1137 29.2407C32.3659 29.499 32.507 29.8457 32.507 30.2067C32.507 30.5677 32.3659 30.9143 32.1137 31.1727C31.8616 31.431 31.5185 31.5805 31.1576 31.5893Z" fill="#EF790C"/>
<path vector-effect="non-scaling-stroke" d="M57.9342 0.108093H24.5891C24.2227 0.108093 23.8598 0.18027 23.5213 0.320501C23.1828 0.460733 22.8752 0.666273 22.6161 0.925387C22.3569 1.1845 22.1514 1.49211 22.0112 1.83066C21.871 2.1692 21.7988 2.53205 21.7988 2.89849V17.3594H36.86C38.3331 17.3612 39.7453 17.9471 40.7869 18.9887C41.8286 20.0303 42.4145 21.4426 42.4163 22.9156V30.251L48.4558 35.6637C48.6922 35.8756 48.9849 36.0145 49.2986 36.0637C49.6122 36.1128 49.9334 36.0701 50.2233 35.9406C50.5132 35.8112 50.7594 35.6005 50.9322 35.3342C51.105 35.0678 51.197 34.7572 51.197 34.4397V29.2343C51.197 29.0384 51.2355 28.8445 51.3104 28.6635C51.3854 28.4826 51.4952 28.3182 51.6337 28.1797C51.7722 28.0412 51.9366 27.9313 52.1175 27.8563C52.2985 27.7814 52.4924 27.7428 52.6882 27.7428H57.9342C58.3007 27.7428 58.6635 27.6706 59.0021 27.5304C59.3406 27.3901 59.6482 27.1846 59.9073 26.9254C60.1664 26.6663 60.3719 26.3587 60.5121 26.0202C60.6524 25.6816 60.7245 25.3188 60.7245 24.9523V2.89849C60.7245 2.53205 60.6524 2.1692 60.5121 1.83066C60.3719 1.49211 60.1664 1.1845 59.9073 0.925387C59.6482 0.666273 59.3406 0.460733 59.002 0.320501C58.6635 0.18027 58.3007 0.108093 57.9342 0.108093ZM52.2315 18.4489H44.9474C44.763 18.4534 44.5796 18.4209 44.4079 18.3534C44.2362 18.286 44.0798 18.1849 43.9478 18.056C43.8157 17.9272 43.7108 17.7732 43.6392 17.6033C43.5676 17.4333 43.5307 17.2507 43.5307 17.0662C43.5307 16.8818 43.5676 16.6992 43.6392 16.5292C43.7108 16.3592 43.8157 16.2053 43.9478 16.0764C44.0798 15.9476 44.2362 15.8465 44.4079 15.779C44.5796 15.7115 44.763 15.6791 44.9474 15.6836H52.2315C52.4159 15.6791 52.5994 15.7115 52.771 15.779C52.9427 15.8465 53.0992 15.9476 53.2312 16.0764C53.3632 16.2053 53.4681 16.3592 53.5397 16.5292C53.6113 16.6992 53.6482 16.8818 53.6482 17.0662C53.6482 17.2507 53.6113 17.4333 53.5397 17.6033C53.4681 17.7732 53.3632 17.9272 53.2312 18.056C53.0992 18.1849 52.9427 18.286 52.771 18.3534C52.5994 18.4209 52.4159 18.4534 52.2315 18.4489ZM52.2315 11.6546H30.2921C30.1077 11.6591 29.9243 11.6266 29.7526 11.5592C29.5809 11.4917 29.4245 11.3906 29.2925 11.2617C29.1605 11.1329 29.0556 10.979 28.9839 10.809C28.9123 10.639 28.8754 10.4564 28.8754 10.2719C28.8754 10.0875 28.9123 9.90487 28.9839 9.73489C29.0556 9.5649 29.1605 9.41096 29.2925 9.28213C29.4245 9.15329 29.5809 9.05216 29.7526 8.9847C29.9243 8.91723 30.1077 8.88479 30.2921 8.88928H52.2315C52.4159 8.88479 52.5994 8.91723 52.771 8.9847C52.9427 9.05216 53.0992 9.15329 53.2312 9.28213C53.3632 9.41096 53.4681 9.5649 53.5397 9.73489C53.6113 9.90487 53.6482 10.0875 53.6482 10.2719C53.6482 10.4564 53.6113 10.639 53.5397 10.809C53.4681 10.979 53.3632 11.1329 53.2312 11.2617C53.0992 11.3906 52.9427 11.4917 52.771 11.5592C52.5994 11.6266 52.4159 11.6591 52.2315 11.6546Z" fill="#EF790C"/>
</svg>
