<svg preserveAspectRatio="none" width="14" height="14" viewBox="0 0 14 14" fill="none" xmlns="http://www.w3.org/2000/svg">
<path vector-effect="non-scaling-stroke" fill-rule="evenodd" clip-rule="evenodd" d="M11.8187 0.458403C11.6948 0.334535 11.5478 0.236274 11.386 0.169234C11.2242 0.102194 11.0508 0.067688 10.8757 0.067688C10.7005 0.067688 10.5271 0.102194 10.3653 0.169234C10.2035 0.236274 10.0565 0.334535 9.93267 0.458403L3.33333 7.0584V10.3577H6.63333L10.4047 6.5864L9.46133 5.64374L6.08133 9.0244H4.66667V7.6104L8.99 3.2864L11.3473 5.64374L13.2327 3.7584C13.3565 3.63458 13.4548 3.48758 13.5218 3.32577C13.5889 3.16397 13.6234 2.99054 13.6234 2.8154C13.6234 2.64026 13.5889 2.46684 13.5218 2.30503C13.4548 2.14323 13.3565 1.99622 13.2327 1.8724L11.8187 0.458403ZM11.3473 3.7584L9.93267 2.34374L10.876 1.40107L12.29 2.81507L11.3473 3.7584ZM6.66667 0.40107H0V12.4011C0 12.7547 0.140476 13.0938 0.390524 13.3439C0.640573 13.5939 0.979711 13.7344 1.33333 13.7344H13.3333V7.06774H12V12.4011H1.33333V1.7344H6.66667V0.40107Z" fill="white"/>
</svg>
