<svg preserveAspectRatio="none" width="14" height="14" viewBox="0 0 14 14" fill="none" xmlns="http://www.w3.org/2000/svg">
<path vector-effect="non-scaling-stroke" fill-rule="evenodd" clip-rule="evenodd" d="M10.5996 10.5677C11.3163 9.81072 11.7954 8.86032 11.9777 7.83398C12.1601 6.80765 12.0377 5.75038 11.6256 4.79286C11.2136 3.83535 10.5299 3.01958 9.65927 2.44639C8.7886 1.8732 7.76904 1.56773 6.72663 1.56773C5.68422 1.56773 4.66467 1.8732 3.79399 2.44639C2.92332 3.01958 2.23971 3.83535 1.82766 4.79286C1.41561 5.75038 1.29319 6.80765 1.47553 7.83398C1.65787 8.86032 2.13698 9.81072 2.85363 10.5677C3.35203 10.0413 3.95253 9.62195 4.61843 9.33538C5.28434 9.04882 6.00168 8.90102 6.72663 8.90102C7.45158 8.90102 8.16892 9.04882 8.83483 9.33538C9.50074 9.62195 10.1012 10.0413 10.5996 10.5677ZM9.56563 11.4164C9.19471 11.0427 8.75365 10.7459 8.26776 10.543C7.78188 10.3401 7.26072 10.2352 6.73418 10.2342C6.20764 10.2332 5.68609 10.3362 5.19944 10.5372C4.7128 10.7383 4.27063 11.0334 3.8983 11.4057L3.88696 11.4164C4.73692 11.9523 5.72151 12.2359 6.7263 12.2344C7.76963 12.2344 8.74297 11.9344 9.56563 11.4164ZM6.7263 13.5677C10.4083 13.5677 13.393 10.583 13.393 6.90104C13.393 3.21904 10.4083 0.234375 6.7263 0.234375C3.0443 0.234375 0.0596313 3.21904 0.0596313 6.90104C0.0596313 10.583 3.0443 13.5677 6.7263 13.5677ZM6.7263 6.90104C7.07992 6.90104 7.41906 6.76057 7.66911 6.51052C7.91916 6.26047 8.05963 5.92133 8.05963 5.56771C8.05963 5.21409 7.91916 4.87495 7.66911 4.6249C7.41906 4.37485 7.07992 4.23438 6.7263 4.23438C6.37268 4.23438 6.03354 4.37485 5.78349 4.6249C5.53344 4.87495 5.39296 5.21409 5.39296 5.56771C5.39296 5.92133 5.53344 6.26047 5.78349 6.51052C6.03354 6.76057 6.37268 6.90104 6.7263 6.90104ZM6.7263 8.23438C7.43354 8.23438 8.11182 7.95342 8.61192 7.45333C9.11201 6.95323 9.39297 6.27495 9.39297 5.56771C9.39297 4.86046 9.11201 4.18219 8.61192 3.68209C8.11182 3.18199 7.43354 2.90104 6.7263 2.90104C6.01905 2.90104 5.34078 3.18199 4.84068 3.68209C4.34058 4.18219 4.05963 4.86046 4.05963 5.56771C4.05963 6.27495 4.34058 6.95323 4.84068 7.45333C5.34078 7.95342 6.01905 8.23438 6.7263 8.23438Z" fill="white" fill-opacity="0.54"/>
</svg>
