<svg preserveAspectRatio="none" width="50" height="61" viewBox="0 0 50 61" fill="none" xmlns="http://www.w3.org/2000/svg">
<path vector-effect="non-scaling-stroke" d="M37.5664 43.9807L37.5592 44.0007C36.8449 46.0053 35.9558 48.5002 33.5112 49.2816C33.078 49.4192 32.6255 49.4888 32.1702 49.4878C30.3968 49.4878 28.8809 48.5114 27.4208 47.525L31.0638 59.6222C31.1363 59.863 31.2781 60.078 31.472 60.2414C31.6659 60.4047 31.9036 60.5094 32.1565 60.5427C32.4095 60.576 32.6668 60.5366 32.8975 60.4293C33.1282 60.3219 33.3225 60.1511 33.4568 59.9376L36.0707 55.7837C36.2122 55.5588 36.4198 55.3818 36.666 55.276C36.9122 55.1702 37.1853 55.1407 37.4489 55.1915L42.3207 56.1287C42.5711 56.1769 42.8304 56.1528 43.0672 56.0592C43.304 55.9657 43.5083 55.8067 43.6554 55.6015C43.8025 55.3963 43.8862 55.1535 43.8963 54.9025C43.9064 54.6515 43.8426 54.403 43.7125 54.187L37.5664 43.9807Z" fill="#EF790C"/>
<path vector-effect="non-scaling-stroke" d="M17.8289 49.4876C17.3737 49.4887 16.9211 49.4191 16.4879 49.2815C14.2331 48.5606 13.3047 46.3858 12.6133 44.4789L6.76711 54.1869C6.63698 54.403 6.57313 54.6515 6.58326 54.9025C6.59338 55.1535 6.67704 55.3962 6.82415 55.6015C6.97127 55.8067 7.17556 55.9657 7.41239 56.0592C7.64922 56.1528 7.90848 56.1769 8.15891 56.1286L13.0307 55.1914C13.2944 55.1407 13.5675 55.1702 13.8136 55.276C14.0598 55.3818 14.2675 55.5589 14.4089 55.7836L17.0227 59.9375C17.157 60.1511 17.3512 60.3219 17.5819 60.4292C17.8126 60.5366 18.0699 60.576 18.3228 60.5426C18.5757 60.5093 18.8134 60.4047 19.0073 60.2413C19.2011 60.078 19.3429 59.863 19.4154 59.6221L23.1804 47.1198C23.0352 47.2168 22.8952 47.311 22.7729 47.3939C21.2527 48.4236 19.6806 49.4876 17.8289 49.4876Z" fill="#EF790C"/>
<path vector-effect="non-scaling-stroke" d="M50 23.4936C50 21.0805 45.1721 19.4483 44.4537 17.2709C43.7092 15.0144 46.6147 10.9053 45.2258 9.02703C43.8231 7.12993 38.946 8.58703 37.0188 7.20703C35.1105 5.83983 35.0197 0.817027 32.7272 0.0840266C30.5151 -0.623073 27.4513 3.36503 24.9997 3.36503C22.5482 3.36503 19.4849 -0.622973 17.2729 0.0841266C14.9804 0.816727 14.8895 5.83983 12.9813 7.20693C11.0541 8.58743 6.17697 7.13003 4.77429 9.02693C3.38554 10.9051 6.29075 15.0143 5.54639 17.2709C4.82814 19.4484 0 21.0809 0 23.4938C0 25.9067 4.82814 27.5391 5.5469 29.7164C6.29126 31.9729 3.38615 36.082 4.7748 37.9603C6.17738 39.8574 11.0544 38.4003 12.9817 39.7803C14.8898 41.1474 14.9807 46.1703 17.2733 46.9033C19.4855 47.6103 22.5492 43.6223 25.0009 43.6223C27.4526 43.6223 30.516 47.6103 32.728 46.9034C35.0203 46.1706 35.1114 41.1475 37.0196 39.7806C38.9468 38.4 43.8238 39.8574 45.2265 37.9606C46.6154 36.0823 43.7102 31.9732 44.4544 29.7166C45.1719 27.5393 50 25.9071 50 23.4936ZM25.0061 36.6151C22.3697 36.6151 19.7925 35.8456 17.6004 34.4038C15.4083 32.9621 13.6998 30.9128 12.6908 28.5153C11.6819 26.1177 11.4179 23.4795 11.9322 20.9342C12.4465 18.389 13.7161 16.051 15.5803 14.2159C17.4445 12.3809 19.8196 11.1312 22.4054 10.6249C24.9912 10.1186 27.6714 10.3784 30.1071 11.3714C32.5429 12.3645 34.6248 14.0462 36.0895 16.204C37.5543 18.3617 38.3361 20.8985 38.3362 23.4936C38.3362 25.2167 37.9914 26.923 37.3215 28.515C36.6517 30.1069 35.6698 31.5534 34.432 32.7719C33.1942 33.9903 31.7247 34.9569 30.1074 35.6163C28.4901 36.2757 26.7567 36.6151 25.0061 36.6151Z" fill="#EF790C"/>
<path vector-effect="non-scaling-stroke" d="M30.8603 20.3327H28.3579C28.0709 20.3327 27.7913 20.2433 27.5592 20.0773C27.327 19.9113 27.1542 19.6772 27.0656 19.4085L26.2922 17.0658C26.2036 16.7972 26.0307 16.5631 25.7986 16.3971C25.5664 16.2311 25.2869 16.1417 24.9999 16.1417C24.7129 16.1417 24.4334 16.2311 24.2012 16.3971C23.9691 16.5631 23.7962 16.7972 23.7076 17.0658L22.9343 19.4085C22.8457 19.6772 22.6728 19.9113 22.4407 20.0773C22.2085 20.2433 21.9289 20.3327 21.642 20.3327H19.1396C18.8525 20.3326 18.5728 20.4219 18.3405 20.588C18.1082 20.754 17.9353 20.9882 17.8466 21.257C17.7579 21.5257 17.758 21.8152 17.8468 22.0839C17.9356 22.3526 18.1085 22.5868 18.3409 22.7527L20.3654 24.2007C20.5975 24.3668 20.7703 24.6009 20.8589 24.8695C20.9476 25.1381 20.9476 25.4275 20.8589 25.6961L20.0856 28.0387C19.9971 28.3073 19.9973 28.5966 20.0861 28.8651C20.1748 29.1336 20.3476 29.3676 20.5797 29.5335C20.8118 29.6995 21.0913 29.7888 21.3782 29.7888C21.665 29.7889 21.9445 29.6995 22.1767 29.5336L24.2015 28.0859C24.4336 27.9199 24.7132 27.8304 25.0002 27.8304C25.2872 27.8304 25.5668 27.9199 25.7989 28.0859L27.8231 29.5336C28.0553 29.6996 28.3349 29.789 28.6218 29.7889C28.9088 29.7889 29.1883 29.6995 29.4204 29.5334C29.6526 29.3674 29.8254 29.1333 29.914 28.8647C30.0027 28.5961 30.0027 28.3067 29.9141 28.0381L29.1408 25.6955C29.0522 25.4269 29.0522 25.1375 29.1409 24.8689C29.2296 24.6003 29.4024 24.3662 29.6345 24.2001L31.659 22.7521C31.8911 22.5861 32.0638 22.352 32.1525 22.0834C32.2411 21.8148 32.2411 21.5255 32.1524 21.2569C32.0637 20.9883 31.891 20.7542 31.6589 20.5882C31.4267 20.4222 31.1472 20.3328 30.8603 20.3327Z" fill="#EF790C"/>
</svg>
