<svg preserveAspectRatio="none" width="53" height="39" viewBox="0 0 53 39" fill="none" xmlns="http://www.w3.org/2000/svg">
<path vector-effect="non-scaling-stroke" d="M26.9132 0.780273L0.980103 24.1603H5.62725L26.9132 4.97027L48.1991 24.1603H52.8463L26.9132 0.780273Z" fill="#F27321"/>
<path vector-effect="non-scaling-stroke" d="M26.6303 9.48022H23.8622V12.2202H26.6303V9.48022Z" fill="#F27321"/>
<path vector-effect="non-scaling-stroke" d="M29.9641 9.48022H27.196V12.2202H29.9641V9.48022Z" fill="#F27321"/>
<path vector-effect="non-scaling-stroke" d="M26.6303 12.8502H23.8622V15.5902H26.6303V12.8502Z" fill="#F27321"/>
<path vector-effect="non-scaling-stroke" d="M29.9641 12.8502H27.196V15.5902H29.9641V12.8502Z" fill="#F27321"/>
<path vector-effect="non-scaling-stroke" d="M39.3696 27.2903V27.2303C41.0264 26.3803 42.0366 24.7103 42.0366 22.6203C42.0366 19.1603 39.4302 17.1603 35.7832 17.1603H29.2267C28.5498 17.1603 28.2164 17.4903 28.2164 18.1603V19.9603V27.7403C28.2164 29.2403 27.8224 30.6903 27.1658 31.8903C27.0041 32.1903 26.8223 32.4803 26.6202 32.7503L24.7816 30.9003C24.3472 30.4703 23.8622 30.5303 23.4379 31.0203L23.0439 31.4103C22.6095 31.9003 22.6095 32.3803 23.1046 32.8003L24.9129 34.5903C23.6602 35.6203 21.9125 36.1703 20.195 36.1703C15.659 36.1703 12.2545 32.4703 12.2545 27.7403C12.2545 23.0403 15.659 19.5503 20.195 19.5503C23.2561 19.5503 25.8221 21.1203 27.1759 23.5703V19.0503C25.3069 17.6303 22.9126 16.7903 20.195 16.7903C13.8204 16.7903 9.13281 21.5503 9.13281 27.7403C9.13281 33.9903 13.7598 38.9303 20.195 38.9303C22.8318 38.9303 25.1958 38.1103 27.0647 36.6203L28.2467 37.7903L28.9034 38.4403C28.9438 38.4803 28.9842 38.5203 29.0246 38.5503C29.3681 38.8303 29.7217 38.8103 30.0652 38.5603C30.1359 38.5103 30.2066 38.4503 30.2773 38.3803L30.6713 37.9603C31.0956 37.4703 31.0653 36.9903 30.5804 36.5603L28.8024 34.8103C30.045 33.3203 30.9138 31.4403 31.227 29.3903C31.2674 29.1503 31.2876 28.9003 31.3179 28.6603C31.3381 28.3603 31.3583 28.0603 31.3583 27.7503C31.3583 27.2103 31.328 26.6903 31.2573 26.1703C31.2472 26.1203 31.2472 26.0803 31.2371 26.0303V19.7703H35.7428C37.7936 19.7703 38.9958 21.0503 38.9958 22.9303C38.9958 24.8103 37.7633 26.1803 35.8034 26.1803H32.318C32.3786 26.6903 32.4089 27.2203 32.4089 27.7603C32.4089 28.0603 32.3988 28.3703 32.3786 28.6703H36.1166C38.3896 28.6703 39.8545 30.1603 39.8545 32.3403C39.8545 34.5203 38.4401 35.9803 36.1166 35.9803H31.4694C31.8937 36.4203 32.0149 36.8803 32.0352 37.2003C32.0554 37.5403 31.9846 38.0503 31.5401 38.5903H35.9549C39.7838 38.5903 42.9458 36.5303 42.9458 32.4903C42.9256 30.0803 41.6426 27.9603 39.3696 27.2903Z" fill="#F27321"/>
</svg>
