<svg preserveAspectRatio="none" width="58" height="74" viewBox="0 0 58 74" fill="none" xmlns="http://www.w3.org/2000/svg">
<path vector-effect="non-scaling-stroke" d="M28.8782 1.47852C22.7308 4.61219 23.6314 19.1446 31.4624 33.6379C44.5794 57.8847 55.0339 55.0253 56.2477 54.5944C56.2868 54.5944 56.2868 54.6335 56.2477 54.6335L33.7334 72.7697C27.1162 63.4862 20.8122 53.1451 15.0172 41.9813C9.49631 31.2876 4.83684 20.6331 1.15625 10.292L28.8782 1.47852Z" fill="black"/>
<path vector-effect="non-scaling-stroke" d="M33.7332 73.6315C33.694 73.6315 33.6549 73.6315 33.6157 73.6315C33.3808 73.5923 33.185 73.4748 33.0284 73.2789C26.2545 63.7604 19.9506 53.3409 14.273 42.4122C8.83047 31.9144 4.13184 21.2207 0.372936 10.6445C0.294625 10.4095 0.294628 10.1745 0.412094 9.97862C0.529559 9.78277 0.686175 9.62608 0.921107 9.54774L28.643 0.734269C29.0737 0.616756 29.5436 0.812618 29.7002 1.2435C29.8568 1.67438 29.7002 2.14443 29.3087 2.34028C27.9774 3.00619 26.9985 4.338 26.4112 6.29655C24.4925 12.4464 26.8419 23.3359 32.2844 33.3245C45.0882 56.9838 54.9553 54.281 56.0125 53.8893C56.4041 53.7326 56.874 53.9285 57.0697 54.281C57.2655 54.6335 57.1872 55.1428 56.874 55.417L34.2814 73.4356C34.1248 73.5531 33.929 73.6315 33.7332 73.6315ZM2.29154 10.8404C6.01129 21.064 10.5533 31.4052 15.8001 41.5896C21.2818 52.1658 27.39 62.2327 33.929 71.5162L53.4674 55.7695C49.0037 55.5736 40.5854 52.2441 30.7182 34.0296C25.0016 23.4926 22.6523 12.3681 24.7275 5.66982C25.0016 4.80805 25.3148 4.06381 25.7064 3.35873L2.29154 10.8404Z" fill="black"/>
</svg>
