<svg preserveAspectRatio="none" width="16" height="17" viewBox="0 0 16 17" fill="none" xmlns="http://www.w3.org/2000/svg">
<path vector-effect="non-scaling-stroke" d="M7.90021 9.048C8.78473 9.47851 9.53735 10.1373 10.0823 10.9563C10.6272 11.7753 10.9438 12.7248 10.9992 13.707C11.0049 13.8054 10.9911 13.9039 10.9586 13.9969C10.9262 14.0899 10.8758 14.1757 10.8102 14.2492C10.7447 14.3228 10.6653 14.3827 10.5766 14.4255C10.4879 14.4684 10.3916 14.4934 10.2932 14.499C10.1948 14.5046 10.0963 14.4909 10.0033 14.4584C9.91027 14.426 9.82453 14.3756 9.75099 14.31C9.67744 14.2445 9.61753 14.1651 9.57467 14.0764C9.53182 13.9876 9.50685 13.8914 9.50121 13.793C9.44572 12.7691 9.00009 11.8053 8.25593 11.0999C7.51176 10.3944 6.52562 10.0008 5.50021 10C4.47479 10.0008 3.48865 10.3944 2.74448 11.0999C2.00032 11.8053 1.55469 12.7691 1.4992 13.793C1.49362 13.8914 1.46872 13.9877 1.42593 14.0764C1.38313 14.1651 1.32327 14.2446 1.24978 14.3102C1.17628 14.3758 1.09058 14.4263 0.99757 14.4587C0.904561 14.4912 0.806065 14.5051 0.707705 14.4995C0.609345 14.4939 0.513047 14.469 0.42431 14.4262C0.335573 14.3834 0.256134 14.3236 0.19053 14.2501C0.124925 14.1766 0.0744395 14.0909 0.041955 13.9979C0.00947059 13.9049 -0.00437633 13.8064 0.00120485 13.708C0.0563662 12.7256 0.372768 11.7758 0.917734 10.9566C1.4627 10.1374 2.21647 9.47851 3.1012 9.048C2.59074 8.56729 2.23643 7.94434 2.08419 7.25988C1.93196 6.57542 1.98881 5.86102 2.24739 5.20926C2.50597 4.5575 2.95436 3.99843 3.53443 3.60451C4.1145 3.21059 4.79952 2.99998 5.50071 2.99998C6.20189 2.99998 6.88691 3.21059 7.46698 3.60451C8.04705 3.99843 8.49543 4.5575 8.75402 5.20926C9.0126 5.86102 9.06945 6.57542 8.91722 7.25988C8.76498 7.94434 8.41067 8.56729 7.90021 9.048ZM13.2502 0.5C13.4491 0.5 13.6399 0.579018 13.7805 0.71967C13.9212 0.860322 14.0002 1.05109 14.0002 1.25V2.5H15.2502C15.4491 2.5 15.6399 2.57902 15.7805 2.71967C15.9212 2.86032 16.0002 3.05109 16.0002 3.25C16.0002 3.44891 15.9212 3.63968 15.7805 3.78033C15.6399 3.92098 15.4491 4 15.2502 4H14.0002V5.25C14.0002 5.44891 13.9212 5.63968 13.7805 5.78033C13.6399 5.92098 13.4491 6 13.2502 6C13.0513 6 12.8605 5.92098 12.7199 5.78033C12.5792 5.63968 12.5002 5.44891 12.5002 5.25V4H11.2502C11.0513 4 10.8605 3.92098 10.7199 3.78033C10.5792 3.63968 10.5002 3.44891 10.5002 3.25C10.5002 3.05109 10.5792 2.86032 10.7199 2.71967C10.8605 2.57902 11.0513 2.5 11.2502 2.5H12.5002V1.25C12.5002 1.05109 12.5792 0.860322 12.7199 0.71967C12.8605 0.579018 13.0513 0.5 13.2502 0.5ZM5.50021 4.5C5.23387 4.49398 4.96901 4.54123 4.72118 4.63897C4.47335 4.73672 4.24755 4.88299 4.05703 5.0692C3.86651 5.25542 3.71512 5.47782 3.61173 5.72334C3.50835 5.96887 3.45506 6.23258 3.45499 6.49899C3.45492 6.7654 3.50808 7.02913 3.61134 7.27471C3.71461 7.52029 3.86589 7.74277 4.05632 7.92907C4.24674 8.11538 4.47247 8.26177 4.72025 8.35964C4.96803 8.45751 5.23286 8.50489 5.49921 8.499C6.02177 8.48744 6.51904 8.27178 6.88458 7.89816C7.25011 7.52455 7.45486 7.02268 7.45499 6.49999C7.45512 5.9773 7.25062 5.47533 6.88527 5.10153C6.51993 4.72773 6.02276 4.51182 5.50021 4.5Z" fill="#8B949E"/>
</svg>
