<svg preserveAspectRatio="none" width="32" height="32" viewBox="0 0 32 32" fill="none" xmlns="http://www.w3.org/2000/svg">
<path vector-effect="non-scaling-stroke" fill-rule="evenodd" clip-rule="evenodd" d="M10.6667 6.66667C8.45753 6.66667 6.66667 8.45753 6.66667 10.6667V21.3333C6.66667 23.5425 8.45753 25.3333 10.6667 25.3333H21.3333C23.5425 25.3333 25.3333 23.5425 25.3333 21.3333V10.6667C25.3333 8.45753 23.5425 6.66667 21.3333 6.66667H10.6667ZM4 10.6667C4 6.98477 6.98477 4 10.6667 4H21.3333C25.0152 4 28 6.98477 28 10.6667V21.3333C28 25.0152 25.0152 28 21.3333 28H10.6667C6.98477 28 4 25.0152 4 21.3333V10.6667ZM16 13.3333C14.5272 13.3333 13.3333 14.5272 13.3333 16C13.3333 17.4728 14.5272 18.6667 16 18.6667C17.4728 18.6667 18.6667 17.4728 18.6667 16C18.6667 14.5272 17.4728 13.3333 16 13.3333ZM10.6667 16C10.6667 13.0545 13.0545 10.6667 16 10.6667C18.9455 10.6667 21.3333 13.0545 21.3333 16C21.3333 18.9455 18.9455 21.3333 16 21.3333C13.0545 21.3333 10.6667 18.9455 10.6667 16ZM23.3333 10C23.3333 9.26362 22.7364 8.66667 22 8.66667C21.2636 8.66667 20.6667 9.26362 20.6667 10V10.0013C20.6667 10.7377 21.2636 11.3347 22 11.3347C22.7364 11.3347 23.3333 10.7377 23.3333 10.0013V10Z" fill="#CECECE"/>
</svg>
