<svg preserveAspectRatio="none" width="132" height="34" viewBox="0 0 132 34" fill="none" xmlns="http://www.w3.org/2000/svg">
<path vector-effect="non-scaling-stroke" fill-rule="evenodd" clip-rule="evenodd" d="M0.28125 12.6012C0.28125 6.30123 4.8698 0.500977 13.5662 0.500977C20.5364 0.500977 25.9553 5.45408 25.9772 12.0798C25.9772 18.988 21.6071 24.5277 15.5327 24.5277C13.5007 24.5277 11.5778 23.4632 10.9224 22.2249C10.9224 22.2249 9.91718 26.0484 9.67684 26.9825C8.9995 29.5676 6.59597 33.1521 6.39932 33.4128C6.37746 33.4562 6.31191 33.4997 6.24637 33.4997C6.13711 33.4997 6.02786 33.4128 6.02786 33.3041C5.96231 32.9348 5.26311 28.6335 5.87491 25.9832C6.24637 24.4191 8.23474 16.0336 8.23474 16.0336C7.81959 15.0995 7.60108 14.0785 7.62293 13.0574C7.62293 10.2767 9.23985 8.19123 11.272 8.19123C12.9762 8.19123 13.8065 9.47295 13.8065 11.0154C13.8065 12.0773 13.3883 13.4635 12.9452 14.9322C12.6721 15.8372 12.3896 16.7735 12.1896 17.6846C11.7089 19.6615 13.1948 21.2908 15.1613 21.2908C18.7229 21.2908 21.476 17.5542 21.476 12.145C21.476 7.36571 18.0237 4.02025 13.0855 4.02025C7.36073 4.02025 3.99579 8.27813 3.99579 12.6881C3.99579 14.4043 4.6513 16.2509 5.48161 17.2502C5.61271 17.4239 5.67826 17.6411 5.61271 17.8367C5.53328 18.1639 5.40081 18.6844 5.28264 19.1487C5.17326 19.5785 5.07611 19.9602 5.0446 20.096C4.9572 20.4653 4.76055 20.5304 4.36725 20.3567C1.85447 19.1835 0.28125 15.534 0.28125 12.6012ZM68.8056 16.2067C70.204 16.2067 70.6848 17.0539 70.6848 18.0533C70.6848 19.7476 69.3738 20.7687 67.298 20.7687C66.4896 20.747 65.6811 20.6166 64.9163 20.3994C65.1785 18.8353 66.1836 16.2067 68.8056 16.2067ZM98.631 16.2067C99.8987 16.2067 100.51 17.0539 100.51 18.0533C100.51 19.7476 99.1993 20.7687 97.1232 20.7687C96.3147 20.747 95.5062 20.6166 94.7418 20.3994C95.0039 18.8353 96.1405 16.2067 98.631 16.2067ZM126.905 16.337H130.074C130.511 16.337 130.773 16.1633 130.861 15.7505C130.916 15.5371 130.983 15.2662 131.05 14.9955C131.168 14.5218 131.285 14.048 131.341 13.8822C131.428 13.5129 131.232 13.2522 130.817 13.2522H127.67C127.708 13.0974 127.767 12.8814 127.838 12.6205C128.173 11.3802 128.785 9.12198 128.785 7.56059C128.785 3.78058 125.551 0.565425 120.962 0.565425C115.784 0.565425 112.419 4.01954 112.419 8.86394C112.441 10.3195 112.855 11.7315 113.621 12.9698C113.337 12.9481 113.052 12.9481 112.768 12.9481C108.835 12.9481 106.366 15.077 106.366 18.1619C106.366 21.0511 108.661 22.1807 110.824 22.9411C111.118 23.0441 111.409 23.1385 111.689 23.2298C113.247 23.7355 114.516 24.148 114.516 25.4176C114.516 26.417 113.555 27.0035 111.633 27.0035C109.381 27.0035 108.136 25.939 107.808 25.548C108.158 25.2439 108.355 24.7876 108.333 24.3097C108.333 23.3756 107.677 22.637 106.454 22.637C105.427 22.637 104.552 23.4625 104.334 24.5704C102.673 25.9173 100.882 26.7863 98.3258 26.7863C95.7904 26.7863 94.5016 25.4828 94.5016 22.7021C95.0919 22.8759 96.6429 23.0932 97.6484 23.0932C101.909 23.0932 104.815 21.1597 104.815 17.2929C104.815 15.2074 102.98 13.035 99.3524 13.035H99.3304C94.5667 13.035 91.8795 16.0329 90.7214 19.3566C90.5576 19.3132 90.3937 19.2752 90.2298 19.2372C90.0659 19.1991 89.9021 19.1611 89.7382 19.1176C90.0441 18.3139 90.197 17.445 90.197 16.5977C90.197 14.9684 89.1701 13.035 86.4607 13.035C84.5597 13.035 82.7679 14.2733 81.5225 16.1198C81.6617 15.5661 81.7829 15.1023 81.8736 14.7552C81.9821 14.3398 82.0469 14.0915 82.0469 14.056C82.1343 13.7302 82.0032 13.3826 81.5007 13.3826H78.7039C78.3105 13.3826 78.0265 13.5129 77.9172 13.9691C77.8517 14.2733 76.8902 18.0315 75.9507 21.6594C75.3607 23.9404 72.3236 26.7645 68.4997 26.7645C65.987 26.7645 64.6759 25.3742 64.6759 22.5935C65.3315 22.8542 66.7955 23.0714 67.8224 23.0714C72.258 23.0714 75.0111 21.138 75.0111 17.2712C75.0111 15.1857 73.1758 13.0133 69.5486 13.0133H69.5267C64.1515 13.0133 60.874 17.1626 60.3059 21.8766C60.0656 23.8318 58.405 26.5256 56.6133 26.5256C55.7392 26.5256 55.2367 25.9825 55.2367 25.0483C55.2367 24.4136 55.5909 23.0609 56.052 21.3005C56.1748 20.8317 56.3052 20.3336 56.4385 19.8128C56.5795 19.2799 56.757 18.5657 56.9592 17.7524C57.0702 17.3062 57.1886 16.8295 57.3125 16.337H60.2404C60.6774 16.337 60.9177 16.1633 61.027 15.7505C61.1581 15.1639 61.4202 14.1429 61.5077 13.8822C61.595 13.5129 61.3984 13.2522 60.9833 13.2522H58.099C58.099 13.2522 59.4101 8.0167 59.4538 7.86463C59.5849 7.32162 59.126 7.01748 58.6671 7.1261C58.6671 7.1261 56.4385 7.5605 56.0233 7.64739C55.6081 7.73429 55.2804 7.97325 55.1274 8.55981L53.9475 13.2739H51.6532C51.2162 13.2739 50.954 13.4477 50.8666 13.8605C50.8111 14.0735 50.744 14.3439 50.6769 14.6143L50.6766 14.6152C50.5591 15.0891 50.4415 15.5629 50.3859 15.7288C50.2985 16.0981 50.4952 16.3588 50.9103 16.3588H53.1609C53.139 16.4239 52.3524 19.4435 51.6969 22.159C51.391 23.4625 50.364 26.5256 48.7035 26.5256C47.6983 26.5256 47.2831 26.0259 47.2831 24.9397C47.2831 24.118 47.6788 22.6986 48.0864 21.2364C48.5193 19.6834 48.9656 18.082 48.9656 17.0974C48.9656 14.5339 47.5891 13.035 44.7486 13.035C42.9568 13.035 41.0996 14.1864 40.3129 15.1857C40.3129 15.1857 40.5533 14.3602 40.6407 14.0343C40.7281 13.7736 40.5752 13.4912 40.3129 13.4043C40.2474 13.3826 40.16 13.3826 40.0945 13.3826H37.3413C36.7513 13.3826 36.5984 13.7084 36.511 14.0343C36.4874 14.1047 36.1896 15.2781 35.7693 16.9347C35.4114 18.3448 34.9647 20.105 34.5226 21.8332C33.8672 24.4183 32.272 26.569 30.5678 26.569C29.6937 26.569 29.3004 26.0259 29.3004 25.0918C29.3004 24.3874 29.7031 22.7825 30.2143 20.7446L30.2147 20.743C30.2868 20.4556 30.3611 20.1596 30.4367 19.8563C30.8394 18.2774 31.2119 16.8492 31.4838 15.8063C31.7281 14.8695 31.8915 14.2434 31.9224 14.0995C32.0099 13.7302 31.8569 13.426 31.3762 13.426H28.5794C28.0768 13.426 27.8802 13.6867 27.7927 14.056C27.7927 14.056 27.0062 17.0105 26.1758 20.3125C26.1206 20.5282 26.0651 20.7442 26.0096 20.9596L26.0087 20.9633C25.4504 23.1333 24.9085 25.2397 24.9085 26.2866C24.9085 28.3287 25.8262 29.871 28.3609 29.871C30.3055 29.871 31.8569 28.8935 33.0368 27.6335C32.9985 27.7811 32.9633 27.9173 32.9316 28.0404C32.8184 28.4784 32.748 28.751 32.7309 28.7849C32.6217 29.1758 32.7527 29.5235 33.2116 29.5235H36.074C36.5765 29.5235 36.7513 29.3279 36.8606 28.8935C36.9699 28.459 39.0893 20.1387 39.0893 20.1387C39.6574 17.9012 41.0558 16.4022 43.0224 16.4022C43.9619 16.4022 44.7486 17.0105 44.6611 18.2053C44.618 18.7206 44.3459 19.769 44.0328 20.976C43.5538 22.8219 42.9787 25.0388 42.9787 26.2866C42.9787 27.8507 43.5686 29.871 46.5184 29.871C48.5287 29.871 50.0363 28.9152 51.107 27.6552C51.5003 28.9804 52.5491 29.871 54.4719 29.871C57.6621 29.871 59.5849 27.9811 60.721 26.0911C61.6607 28.2852 63.8675 29.871 67.0795 29.871C69.9637 29.8927 72.7387 28.7197 74.7052 26.6125C74.5494 27.2115 74.4183 27.7221 74.3213 28.1C74.2142 28.517 74.1486 28.7724 74.1371 28.8066C74.0279 29.1976 74.2027 29.5235 74.6834 29.5235H77.5021C77.8735 29.5452 78.2013 29.2844 78.2668 28.9152C78.2856 28.8313 78.3728 28.495 78.5112 27.9617C78.6952 27.2526 78.9696 26.1949 79.2938 24.918C80.4081 20.6601 82.178 16.2284 84.8437 16.2284C85.7833 16.2284 86.1766 16.7498 86.1766 17.5753C86.1766 17.8795 86.1111 18.2053 85.9581 18.4876C84.6689 18.227 83.6201 18.857 83.6201 20.2256C83.6201 21.1163 84.5816 21.9418 85.8489 21.9418C86.8322 21.9418 87.6405 21.7028 88.2742 21.2683C88.5041 21.3191 88.7439 21.3699 88.9897 21.422C89.3747 21.5035 89.7753 21.5883 90.1752 21.6811C90.0878 22.2894 90.0222 22.9194 90.0222 23.5494C90.0222 26.9818 92.6005 29.8927 97.0141 29.8927C100.467 29.8927 102.695 28.7414 104.772 27.0252C105.754 28.6328 108.246 29.9144 111.501 29.9144C115.958 29.9144 118.515 27.6118 118.515 24.5487C118.515 21.7897 116.22 20.7687 113.883 19.9214C113.649 19.8371 113.421 19.7575 113.199 19.6805C111.596 19.1222 110.365 18.6935 110.365 17.5102C110.365 16.4022 111.239 15.9026 112.724 15.9026C113.424 15.9026 114.145 16.0112 114.822 16.2284C115.216 17.1843 116.002 18.2487 117.357 18.2487C118.515 18.2487 119.018 17.3364 119.018 16.5108C119.018 15.5515 118.365 14.938 117.588 14.2082C116.448 13.1365 115.041 11.8139 115.041 8.77705C115.041 5.60542 116.855 2.99851 120.591 2.99851C123.191 2.99851 124.895 4.62783 124.895 7.27808C124.895 9.4505 123.562 13.3391 123.562 13.3391H121.312C120.875 13.3391 120.613 13.5129 120.525 13.9257C120.47 14.1387 120.403 14.4091 120.336 14.6795L120.335 14.6806C120.218 15.1542 120.1 15.6281 120.044 15.7939C119.957 16.1633 120.154 16.4239 120.569 16.4239H122.776C122.776 16.4239 120.504 24.7876 120.504 26.3083C120.504 28.3504 121.661 29.8927 124.196 29.8927C127.78 29.8927 130.03 27.5901 130.992 24.2228C131.057 24.049 130.992 23.8535 130.817 23.7666C130.773 23.7449 130.708 23.7449 130.664 23.7449H129.287C129.047 23.7449 128.828 23.9187 128.785 24.1576C128.478 25.3525 127.714 26.6125 126.206 26.6125C125.332 26.6125 124.829 26.0694 124.829 25.1352C124.829 24.4248 125.239 22.8829 125.802 20.7644C125.876 20.4859 125.953 20.1975 126.032 19.8997C126.359 18.5963 126.905 16.337 126.905 16.337ZM33.4717 8.99484C33.3625 10.4721 32.1389 11.6452 30.7186 11.6452C29.2983 11.6452 28.2277 10.4504 28.315 8.99484C28.4243 7.5176 29.6479 6.34449 31.0682 6.34449C32.4885 6.34449 33.5592 7.53932 33.4717 8.99484Z" fill="#B7BFC7"/>
</svg>
