<svg preserveAspectRatio="none" width="56" height="53" viewBox="0 0 56 53" fill="none" xmlns="http://www.w3.org/2000/svg">
<path vector-effect="non-scaling-stroke" d="M0 27.2717V28.6061V52.1822H13.4378V48.8619L13.4847 48.8776C16.9904 50.0435 21.99 51.0677 26.9434 52.8391L27.3135 52.9694L27.694 52.8808C29.2519 52.5186 33.43 51.2194 38.4317 49.6126C43.4334 48.0058 49.1491 46.1148 53.3916 44.6503C55.4256 43.9468 56.5107 41.6714 55.7632 39.6515V39.6462V39.6408C54.9779 37.5745 52.7098 36.6633 50.7697 37.2587L37.6863 41.2567C37.6746 39.895 36.9936 38.5533 35.888 37.6861L35.8202 37.634L35.7473 37.5923C30.1593 34.2633 29.6758 33.8502 21.8195 29.6745L21.4598 29.4817L21.0533 29.5234C18.3592 29.8117 13.7978 30.5636 13.4378 30.6232V27.2716L0 27.2717ZM20.9282 32.234C28.1136 36.0608 28.9322 36.6397 34.2461 39.8078C35.0845 40.4775 35.3056 41.2967 34.7934 42.0335C34.5156 42.4336 34.2426 42.591 33.8395 42.659C33.4404 42.7263 32.8802 42.6553 32.2497 42.3775C29.846 41.2672 28.5435 40.5527 25.8957 39.0676L24.7333 38.416L23.4302 40.7408L24.5925 41.3976C27.2491 42.8876 28.6628 43.6599 31.1342 44.8013L31.1396 44.8067H31.15C32.1604 45.2573 33.2334 45.4633 34.2827 45.2862C34.87 45.1871 35.4317 44.9406 35.935 44.5877L51.5517 39.8079C52.1721 39.6175 52.9995 39.9275 53.2561 40.5793C53.4985 41.2461 53.2027 41.8917 52.5212 42.1274C48.3075 43.582 42.6033 45.4728 37.6187 47.0741C32.7751 48.6301 28.6948 49.8696 27.3865 50.1912C22.3876 48.452 17.4318 47.3779 14.324 46.3443L13.4379 46.0472V33.334L13.6568 33.2975C13.6568 33.2975 18.2298 32.5507 20.9282 32.234Z" fill="#EF790C"/>
<path vector-effect="non-scaling-stroke" d="M38.9946 0C39.524 0 40.0827 0.234774 40.7304 0.870486C41.3781 1.5062 42.0503 2.52942 42.6225 3.85724C43.2483 5.3092 43.7428 7.13286 44.0768 9.16356H33.9125C34.2464 7.13286 34.741 5.3092 35.3667 3.85724C35.939 2.52942 36.6111 1.5062 37.2589 0.870486C37.9066 0.234773 38.4653 0 38.9946 0ZM33.8916 0.927823C33.5419 1.50605 33.21 2.11889 32.9169 2.79911C32.1382 4.60603 31.5753 6.78442 31.2176 9.16356H25.4526C26.9741 5.3594 30.0423 2.36063 33.8916 0.927823ZM44.0977 0.927823C47.9461 2.36067 51.0162 5.35925 52.5367 9.16356H46.7717C46.4139 6.78442 45.8511 4.60603 45.0724 2.79911C44.7793 2.11889 44.4474 1.50605 44.0977 0.927823ZM24.6655 11.8324H24.8427H30.9101C30.8449 12.7344 30.7954 13.6459 30.7954 14.5898C30.7954 15.5336 30.8449 16.4451 30.9101 17.3472H24.8427H24.6655C24.4953 16.4537 24.3997 15.5337 24.3997 14.5898C24.3997 13.6459 24.4953 12.7257 24.6655 11.8324ZM33.5841 11.8324H44.4052C44.4765 12.7294 44.5251 13.6436 44.5251 14.5898C44.5251 15.5359 44.4765 16.4502 44.4052 17.3472H33.5841C33.5128 16.4502 33.4642 15.5359 33.4642 14.5898C33.4642 13.6436 33.5128 12.7294 33.5841 11.8324ZM47.0792 11.8324H53.1465H53.3186C53.4887 12.7257 53.5844 13.6459 53.5844 14.5898C53.5844 15.5337 53.4887 16.4537 53.3186 17.3472H53.1465H47.0792C47.1444 16.4451 47.1939 15.5336 47.1939 14.5898C47.1939 13.6459 47.1444 12.7344 47.0792 11.8324ZM25.4526 20.016H31.2176C31.5753 22.3951 32.1382 24.5735 32.9169 26.3804C33.21 27.0606 33.5419 27.6735 33.8916 28.2517C30.0427 26.8178 26.974 23.8209 25.4526 20.016ZM33.9125 20.016H44.0768C43.7428 22.0467 43.2483 23.8703 42.6225 25.3223C42.0503 26.6501 41.3781 27.6785 40.7304 28.3143C40.0827 28.95 39.524 29.1847 38.9946 29.1847C38.4653 29.1847 37.9066 28.95 37.2589 28.3143C36.6111 27.6785 35.939 26.6501 35.3667 25.3223C34.741 23.8703 34.2464 22.0467 33.9125 20.016ZM46.7717 20.016H52.5367C51.0163 23.8211 47.9457 26.8178 44.0977 28.2517C44.4474 27.6735 44.7793 27.0606 45.0724 26.3804C45.8511 24.5735 46.4139 22.3951 46.7717 20.016Z" fill="#EF790C"/>
</svg>
