<svg preserveAspectRatio="none" width="16" height="17" viewBox="0 0 16 17" fill="none" xmlns="http://www.w3.org/2000/svg">
<path vector-effect="non-scaling-stroke" d="M14.184 1.6431V1.6421L15.606 4.1061C15.7262 4.31469 15.8022 4.54585 15.829 4.78513C15.8559 5.0244 15.8331 5.26665 15.762 5.4967C15.6909 5.72676 15.5732 5.93967 15.4161 6.12213C15.259 6.30459 15.0659 6.45267 14.849 6.55711L3.10395 12.2131C2.70613 12.4047 2.25059 12.4388 1.82868 12.3086C1.40676 12.1784 1.04965 11.8935 0.828954 11.5111L0.381954 10.7361C0.161506 10.3538 0.0936246 9.90236 0.191905 9.47215C0.290186 9.04194 0.547373 8.66474 0.911954 8.4161L11.682 1.07311C11.8808 0.936998 12.1057 0.843477 12.3424 0.798414C12.5791 0.753351 12.8226 0.75772 13.0575 0.811247C13.2925 0.864773 13.5138 0.966301 13.7077 1.10945C13.9015 1.25261 14.0637 1.43429 14.184 1.6431ZM9.47495 10.9631H9.47395L12.118 14.8261C12.2304 14.9903 12.273 15.1924 12.2365 15.388C12.1999 15.5836 12.0871 15.7567 11.923 15.8691C11.7588 15.9816 11.5567 16.0242 11.3611 15.9876C11.1655 15.951 10.9924 15.8383 10.88 15.6741L8.99895 12.9241V15.7501C8.99895 15.949 8.91994 16.1398 8.77928 16.2804C8.63863 16.4211 8.44787 16.5001 8.24895 16.5001C8.05004 16.5001 7.85928 16.4211 7.71862 16.2804C7.57797 16.1398 7.49895 15.949 7.49895 15.7501V12.9241L5.61795 15.6741C5.56227 15.7554 5.49113 15.8249 5.40858 15.8787C5.32603 15.9325 5.23369 15.9695 5.13684 15.9876C4.94124 16.0242 4.73912 15.9816 4.57495 15.8691C4.41078 15.7567 4.29801 15.5836 4.26144 15.388C4.24333 15.2911 4.24448 15.1917 4.26481 15.0953C4.28515 14.9989 4.32427 14.9074 4.37995 14.8261L6.42895 11.8341C6.50266 11.7255 6.60373 11.6382 6.72195 11.5811L8.53095 10.7111C8.69242 10.6332 8.87648 10.6157 9.0497 10.662C9.22292 10.7082 9.37381 10.8151 9.47495 10.9631ZM9.43595 4.4201L4.46495 7.8101L5.40695 9.4401L10.827 6.8301L9.43595 4.4201ZM12.527 2.31211L10.678 3.5721L12.183 6.1771L14.199 5.2071C14.2299 5.19234 14.2575 5.17129 14.2799 5.1453C14.3022 5.1193 14.319 5.08892 14.329 5.05611C14.3394 5.02324 14.3428 4.98855 14.339 4.95428C14.3352 4.92 14.3243 4.8869 14.307 4.8571L12.885 2.39311C12.8676 2.36336 12.8444 2.33746 12.8167 2.317C12.789 2.29654 12.7575 2.28194 12.724 2.27411C12.6903 2.26673 12.6554 2.2663 12.6215 2.27283C12.5877 2.27936 12.5555 2.29273 12.527 2.31211ZM1.75595 9.6571C1.70436 9.69269 1.66802 9.74637 1.65413 9.80749C1.64024 9.8686 1.64981 9.93271 1.68095 9.98711L2.12795 10.7621C2.15953 10.8167 2.21056 10.8573 2.27083 10.8759C2.3311 10.8944 2.39616 10.8895 2.45295 10.8621L4.05095 10.0931L3.22095 8.6571L1.75595 9.6571Z" fill="#8B949E"/>
</svg>
