<svg preserveAspectRatio="none" width="16" height="16" viewBox="0 0 16 16" fill="none" xmlns="http://www.w3.org/2000/svg">
<path vector-effect="non-scaling-stroke" d="M10.9586 9.72112L14.6187 13.3813C14.9604 13.723 14.9604 14.277 14.6187 14.6187C14.277 14.9604 13.723 14.9604 13.3813 14.6187L9.72112 10.9586C8.81578 11.6138 7.70299 12 6.5 12C3.46243 12 1 9.53757 1 6.5C1 3.46243 3.46243 1 6.5 1C9.53757 1 12 3.46243 12 6.5C12 7.70299 11.6138 8.81578 10.9586 9.72112ZM6.5 10.25C8.57107 10.25 10.25 8.57107 10.25 6.5C10.25 4.42893 8.57107 2.75 6.5 2.75C4.42893 2.75 2.75 4.42893 2.75 6.5C2.75 8.57107 4.42893 10.25 6.5 10.25Z" fill="#86A1BF"/>
</svg>
