<svg preserveAspectRatio="none" width="12" height="13" viewBox="0 0 12 13" fill="none" xmlns="http://www.w3.org/2000/svg">
<path vector-effect="non-scaling-stroke" d="M11.7931 3.25878C11.6635 2.61423 11.3406 2.02449 10.8673 1.56812C10.3941 1.11175 9.79297 0.810421 9.14415 0.704277C8.65666 0.626568 8.15781 0.662632 7.68657 0.80965C7.21533 0.956669 6.78447 1.21066 6.42765 1.55178C6.3115 1.65979 6.15876 1.71984 6.00015 1.71984C5.84153 1.71984 5.6888 1.65979 5.57265 1.55178C4.98022 0.978758 4.18976 0.656082 3.36556 0.650822C2.54137 0.645562 1.74685 0.958123 1.14716 1.52353C0.547467 2.08894 0.188732 2.86371 0.145523 3.68679C0.102314 4.50986 0.377954 5.31793 0.915149 5.94303L5.35215 11.2305C5.43156 11.325 5.53068 11.401 5.64256 11.4531C5.75443 11.5052 5.87636 11.5322 5.99977 11.5322C6.12319 11.5322 6.24512 11.5052 6.35699 11.4531C6.46887 11.401 6.56799 11.325 6.6474 11.2305L11.0844 5.94303C11.3982 5.57883 11.625 5.14806 11.7478 4.68329C11.8706 4.21852 11.8861 3.73192 11.7931 3.26028V3.25878Z" fill="white"/>
</svg>
