<svg preserveAspectRatio="none" width="24" height="24" viewBox="0 0 24 24" fill="none" xmlns="http://www.w3.org/2000/svg">
<path vector-effect="non-scaling-stroke" d="M16.5917 12.5985V10.3721C16.5917 6.8985 14.905 4.89999 11.9997 4.89999C9.09438 4.89999 7.40767 6.8985 7.40767 10.3721V12.5985C7.40767 13.4327 7.00334 14.0308 6.13799 14.8817C6.05773 14.9606 5.98545 15.0305 5.8365 15.1738C4.97683 16.0024 4.7514 16.3531 4.83236 16.6592C4.93073 17.0312 5.11021 17.1075 5.90441 17.0985C5.96868 17.0978 6.01943 17.0968 6.13981 17.0942C6.32594 17.0902 6.40569 17.0889 6.50973 17.0889H17.4897C17.5965 17.0889 17.6784 17.0903 17.8691 17.0947C17.9829 17.0973 18.0309 17.0983 18.0917 17.0991C18.8907 17.11 19.0669 17.0355 19.1674 16.6579C19.2484 16.3534 19.0232 16.0031 18.1631 15.1741C18.0153 15.0318 17.9436 14.9625 17.8639 14.8842C16.9964 14.0315 16.5917 13.4334 16.5917 12.5985V12.5985ZM15.8065 18.8889C15.4524 20.7778 13.9617 22 11.9959 22C10.0261 22 8.53739 20.7827 8.18468 18.8889H6.50973C6.42298 18.8889 6.35131 18.8901 6.17827 18.8938C6.05469 18.8965 5.99699 18.8975 5.92472 18.8984C4.40351 18.9156 3.46575 18.517 3.09643 17.1204C2.7757 15.9075 3.25026 15.1693 4.59171 13.8764C4.74015 13.7335 4.80643 13.6694 4.88035 13.5967C5.41043 13.0755 5.6118 12.7776 5.6118 12.5985V10.3721C5.6118 5.9649 8.02974 3.09999 11.9997 3.09999C15.9697 3.09999 18.3876 5.9649 18.3876 10.3721V12.5985C18.3876 12.7778 18.5896 13.0763 19.1214 13.5991C19.1948 13.6713 19.2606 13.7349 19.4079 13.8767C20.7509 15.1712 21.2253 15.909 20.9026 17.1217C20.5294 18.5244 19.5937 18.9197 18.0673 18.8989C17.9992 18.898 17.9449 18.8969 17.8283 18.8942C17.6515 18.8902 17.5782 18.8889 17.4897 18.8889H15.8065ZM11.9959 20.2C12.9615 20.2 13.668 19.7315 13.9527 18.9H10.0375C10.3205 19.7344 11.0256 20.2 11.9959 20.2V20.2Z" fill="#2A5885"/>
</svg>
