<svg preserveAspectRatio="none" width="135" height="40" viewBox="0 0 135 40" fill="none" xmlns="http://www.w3.org/2000/svg">
<path vector-effect="non-scaling-stroke" d="M124.249 6.18747e-08H10.7566C10.3429 6.18747e-08 9.9342 6.1933e-08 9.5216 0.00200006C9.17621 0.00400006 8.83358 0.00981006 8.48488 0.0147001C7.72733 0.0226019 6.97157 0.0816763 6.22416 0.19141C5.4778 0.303533 4.75482 0.514916 4.07967 0.81841C3.40534 1.12447 2.7892 1.52217 2.25357 1.99707C1.71514 2.47064 1.26632 3.01802 0.924356 3.61816C0.581453 4.21711 0.343683 4.85894 0.219258 5.52148C0.0936495 6.18319 0.0260586 6.85252 0.0170916 7.52348C0.00662229 7.83008 0.00551669 8.1377 0 8.44434V31.5586C0.00551669 31.8691 0.00662229 32.1699 0.0170916 32.4805C0.0260614 33.1514 0.0936522 33.8207 0.219258 34.4824C0.343339 35.1453 0.581124 35.7875 0.924356 36.3867C1.26616 36.9849 1.71505 37.5301 2.25357 38.001C2.78717 38.478 3.40371 38.876 4.07967 39.1797C4.75481 39.484 5.47772 39.6966 6.22416 39.8105C6.9717 39.9194 7.72738 39.9785 8.48488 39.9873C8.83358 39.9941 9.17621 39.998 9.5216 39.998C9.93419 40 10.343 40 10.7566 40H124.249C124.655 40 125.067 40 125.472 39.998C125.816 39.998 126.169 39.9941 126.512 39.9873C127.268 39.9789 128.023 39.9198 128.769 39.8105C129.518 39.6958 130.243 39.4833 130.921 39.1797C131.597 38.8758 132.213 38.4778 132.746 38.001C133.283 37.5282 133.733 36.9835 134.079 36.3867C134.42 35.7871 134.655 35.1449 134.777 34.4824C134.903 33.8206 134.973 33.1515 134.987 32.4805C134.991 32.1699 134.991 31.8691 134.991 31.5586C135 31.1953 135 30.834 135 30.4648V9.53613C135 9.16992 135 8.80664 134.991 8.44434C134.991 8.1377 134.991 7.83008 134.987 7.52344C134.973 6.85242 134.903 6.18324 134.777 5.52144C134.655 4.85928 134.419 4.2175 134.079 3.61812C133.383 2.4152 132.278 1.43603 130.921 0.81832C130.243 0.515567 129.518 0.30424 128.769 0.19132C128.023 0.0811028 127.269 0.0220078 126.512 0.0145601C126.169 0.00968006 125.816 0.00382006 125.472 0.00187006C125.067 -0.000129938 124.655 -0.000129938 124.249 -0.000129938V6.18747e-08Z" fill="#A6A6A6"/>
<path vector-effect="non-scaling-stroke" d="M9.42998 39.128C9.08566 39.128 8.74966 39.1241 8.40804 39.1173C7.70034 39.1091 6.9943 39.0546 6.29571 38.9542C5.6443 38.8549 5.01327 38.6702 4.42342 38.4062C3.83897 38.1443 3.30591 37.801 2.84466 37.3893C2.37673 36.9825 1.98715 36.5107 1.69137 35.9926C1.39233 35.471 1.18538 34.912 1.07772 34.335C0.961463 33.715 0.898562 33.0881 0.889561 32.4596C0.882396 32.2487 0.873016 31.5463 0.873016 31.5463V8.44093C0.873016 8.44093 0.883007 7.74938 0.889618 7.5462C0.898236 6.91875 0.960772 6.29279 1.07668 5.67374C1.18454 5.09514 1.39165 4.53452 1.69085 4.01129C1.98554 3.4935 2.37296 3.02132 2.83807 2.61305C3.30266 2.20091 3.83742 1.85582 4.42286 1.59037C5.01136 1.3272 5.6412 1.1438 6.29129 1.04631C6.99218 0.944859 7.70067 0.890008 8.41082 0.88222L9.43053 0.870008H125.57L126.602 0.88271C127.306 0.890111 128.008 0.944473 128.702 1.04533C129.359 1.14404 129.995 1.32872 130.59 1.5933C131.763 2.12826 132.718 2.97461 133.32 4.01374C133.614 4.53335 133.818 5.0894 133.924 5.663C134.042 6.28713 134.107 6.91801 134.121 7.5506C134.124 7.83386 134.124 8.13813 134.124 8.44093C134.133 8.81601 134.133 9.17301 134.133 9.53295V30.466C134.133 30.8294 134.133 31.1839 134.124 31.5414C134.124 31.8667 134.124 32.1647 134.12 32.4713C134.106 33.0926 134.042 33.7122 133.927 34.3252C133.821 34.9064 133.615 35.4698 133.316 35.9956C133.018 36.5081 132.631 36.9758 132.169 37.3815C131.707 37.7954 131.173 38.1407 130.587 38.4043C129.993 38.6703 129.358 38.8557 128.702 38.9542C128.004 39.0552 127.297 39.1097 126.59 39.1173C126.259 39.1241 125.912 39.128 125.576 39.128L124.35 39.13L9.42998 39.128Z" fill="black"/>
</svg>
