<svg preserveAspectRatio="none" width="31" height="30" viewBox="0 0 31 30" fill="none" xmlns="http://www.w3.org/2000/svg">
<path vector-effect="non-scaling-stroke" fill-rule="evenodd" clip-rule="evenodd" d="M19.1674 17.0006H18.3774L18.0974 16.7306C19.2974 15.3306 19.9174 13.4206 19.5774 11.3906C19.1074 8.61063 16.7874 6.39063 13.9874 6.05063C9.75737 5.53063 6.19737 9.09063 6.71737 13.3206C7.05737 16.1206 9.27737 18.4406 12.0574 18.9106C14.0874 19.2506 15.9974 18.6306 17.3974 17.4306L17.6674 17.7106V18.5006L21.9174 22.7506C22.3274 23.1606 22.9974 23.1606 23.4074 22.7506C23.8174 22.3406 23.8174 21.6706 23.4074 21.2606L19.1674 17.0006ZM13.1674 17.0006C10.6774 17.0006 8.66737 14.9906 8.66737 12.5006C8.66737 10.0106 10.6774 8.00063 13.1674 8.00063C15.6574 8.00063 17.6674 10.0106 17.6674 12.5006C17.6674 14.9906 15.6574 17.0006 13.1674 17.0006Z" fill="#C3CAD9"/>
</svg>
