<svg preserveAspectRatio="none" width="17" height="12" viewBox="0 0 17 12" fill="none" xmlns="http://www.w3.org/2000/svg">
<path vector-effect="non-scaling-stroke" d="M16.84 5.9543C16.84 8.78348 14.5469 11.0682 11.7172 11.0682C8.88751 11.0682 6.58472 8.78348 6.58472 5.9543C6.58472 3.12512 8.87776 0.830669 11.7075 0.830669C14.5469 0.830669 16.84 3.12512 16.84 5.9543Z" fill="#F79F1A"/>
<path vector-effect="non-scaling-stroke" d="M10.517 5.9543C10.517 8.78348 8.22394 11.0682 5.39423 11.0682C2.56452 11.0682 0.271484 8.77375 0.271484 5.9543C0.271484 3.13484 2.56452 0.830669 5.39423 0.830669C8.22394 0.830669 10.517 3.12512 10.517 5.9543Z" fill="#EA001B"/>
<path vector-effect="non-scaling-stroke" d="M8.546 1.92929C7.34581 2.86262 6.58472 4.32096 6.58472 5.9543C6.58472 7.58764 7.35557 9.04598 8.546 9.97931C9.74618 9.04598 10.5073 7.58764 10.5073 5.9543C10.5073 4.32096 9.74618 2.86262 8.546 1.92929Z" fill="#FF5F01"/>
</svg>
