<svg preserveAspectRatio="none" width="12" height="13" viewBox="0 0 12 13" fill="none" xmlns="http://www.w3.org/2000/svg">
<path vector-effect="non-scaling-stroke" d="M11.7931 3.75878C11.6635 3.11423 11.3406 2.52449 10.8673 2.06812C10.3941 1.61175 9.79297 1.31042 9.14415 1.20428C8.65666 1.12657 8.15781 1.16263 7.68657 1.30965C7.21533 1.45667 6.78447 1.71066 6.42765 2.05178C6.3115 2.15979 6.15876 2.21984 6.00015 2.21984C5.84153 2.21984 5.6888 2.15979 5.57265 2.05178C4.98022 1.47876 4.18976 1.15608 3.36556 1.15082C2.54137 1.14556 1.74685 1.45812 1.14716 2.02353C0.547467 2.58894 0.188732 3.36371 0.145523 4.18679C0.102314 5.00986 0.377954 5.81793 0.915149 6.44303L5.35215 11.7305C5.43156 11.825 5.53068 11.901 5.64256 11.9531C5.75443 12.0052 5.87636 12.0322 5.99977 12.0322C6.12319 12.0322 6.24512 12.0052 6.35699 11.9531C6.46887 11.901 6.56799 11.825 6.6474 11.7305L11.0844 6.44303C11.3982 6.07883 11.625 5.64806 11.7478 5.18329C11.8706 4.71852 11.8861 4.23192 11.7931 3.76028V3.75878Z" fill="white"/>
</svg>
