<svg preserveAspectRatio="none" width="107" height="44" viewBox="0 0 107 44" fill="none" xmlns="http://www.w3.org/2000/svg">
<path vector-effect="non-scaling-stroke" d="M106.535 32.8316H100.967L101.887 29.1593H90.7095L89.7935 32.8316H84.3958V32.0775C84.4791 31.6628 84.5511 31.2292 84.6533 30.7654C85.6374 26.8066 88.2453 22.8931 92.761 22.8931C94.5476 22.8931 96.3228 23.5718 96.0806 26.0338H102.724C102.985 24.8838 103.424 22.9271 102.171 21.1324C100.755 19.1793 97.9013 18.3951 94.2032 18.3951C91.5536 18.3951 87.7193 18.8136 84.3958 20.9778V0.995076H106.535V32.8316ZM93.4689 38.2119C92.2421 38.4459 90.997 38.5721 89.748 38.5889C86.5573 38.5889 84.3353 37.1109 84.29 33.6649H94.6007L93.4689 38.2119ZM80.7128 20.0314V24.5935C79.335 26.4894 78.3342 28.6305 77.7643 30.9012C77.5972 31.5346 77.4795 32.1801 77.4123 32.8316H74.1608L76.9392 19.6884H67.5823L59.1944 32.8316H58.5737V1.00262H80.7016L80.7128 20.0314ZM68.3545 32.8316H65.0274L70.0653 24.9366L68.3545 32.8316ZM54.9209 19.6581H49.3834L45.5983 32.8316H39.7085C42.7027 31.7307 44.5232 29.623 45.0872 26.5012C45.549 24.0732 45.3296 22.4746 44.3303 21.2794C42.8388 19.4997 39.8486 19.6506 37.1914 19.6506H32.8007V1.00262H54.9134L54.9209 19.6581ZM51.382 32.8316L53.7134 24.5935L53.7931 32.8316H51.382ZM35.2762 29.6985C35.0604 29.6985 34.8447 29.7286 34.5985 29.7286C34.273 29.7286 34.0232 29.7286 33.7849 29.7286H32.3692L33.0239 27.3157L33.3305 26.1205L34.0876 23.3153H35.0453H36.143C38.0128 23.3153 39.1975 23.4209 39.6291 24.0204C39.9583 24.469 39.9167 25.2495 39.527 26.4295C38.8608 28.4693 38.0128 29.5024 35.2912 29.7097M29.1215 20.827L28.777 21.958L25.6089 32.4621L25.484 32.8391H15.0672L14.2535 31.1086L25.484 19.6884H18.2694L9.48798 29.1141L12.3306 19.6884H7.00871V1.00262H29.1215V20.827ZM83.5557 0.154297V21.5734C82.8337 22.145 82.1683 22.7837 81.5683 23.4812V0.154297H57.7486V19.6581H55.7764V0.154297H31.9528V19.6884H29.9806V0.154297H6.15707V22.4369L0.078125 42.608H5.42653L8.1102 33.6686H8.86722L13.3148 42.608H19.776L15.4723 33.6686H25.2342L22.5278 42.608H28.3683L31.0405 33.6911H32.3237V33.6686H45.3257L42.748 42.5817H48.6378L51.1358 33.6686H53.7855L53.8575 42.5817H58.8008L64.4785 33.6686H68.1916L66.2765 42.5817H72.0753L73.9678 33.6686H77.3215C77.189 36.4322 77.8969 38.9471 79.7363 40.6286C81.9847 42.6873 85.4367 43.0793 87.9919 43.0793C91.619 43.0358 95.2303 42.5945 98.7606 41.7635L100.77 33.6686H107.391V0.154297H83.5557Z" fill="#B7BFC7"/>
</svg>
