<svg preserveAspectRatio="none" width="165" height="166" viewBox="0 0 165 166" fill="none" xmlns="http://www.w3.org/2000/svg">
<g opacity="0.5">
<path vector-effect="non-scaling-stroke" d="M17.7299 131.034L17.5925 131.171C15.737 127.117 14.5688 122.513 14.0877 117.427C14.5688 122.444 15.8744 126.98 17.7299 131.034Z" fill="white"/>
<path vector-effect="non-scaling-stroke" d="M61.8485 71.7282C70.8813 71.7282 78.2039 64.4056 78.2039 55.3728C78.2039 46.3399 70.8813 39.0173 61.8485 39.0173C52.8156 39.0173 45.493 46.3399 45.493 55.3728C45.493 64.4056 52.8156 71.7282 61.8485 71.7282Z" fill="white"/>
<path vector-effect="non-scaling-stroke" d="M111.258 14.1405H53.6707C28.6564 14.1405 13.7441 29.0528 13.7441 54.0671V111.655C13.7441 119.145 15.0498 125.674 17.5924 131.171C23.5024 144.228 36.147 151.581 53.6707 151.581H111.258C136.273 151.581 151.185 136.669 151.185 111.655V95.9179V54.0671C151.185 29.0528 136.273 14.1405 111.258 14.1405ZM139.984 86.297C134.623 81.6927 125.965 81.6927 120.604 86.297L92.0167 110.83C86.6565 115.434 77.9977 115.434 72.6375 110.83L70.301 108.906C65.4219 104.645 57.6565 104.233 52.1588 107.944L26.4574 125.193C24.9455 121.344 24.0522 116.878 24.0522 111.655V54.0671C24.0522 34.6879 34.2915 24.4485 53.6707 24.4485H111.258C130.638 24.4485 140.877 34.6879 140.877 54.0671V87.0529L139.984 86.297Z" fill="white"/>
</g>
</svg>
