<svg preserveAspectRatio="none" width="16" height="17" viewBox="0 0 16 17" fill="none" xmlns="http://www.w3.org/2000/svg">
<path vector-effect="non-scaling-stroke" d="M13.536 4.70311H12.063C11.8641 4.70311 11.6733 4.78212 11.5327 4.92278C11.392 5.06343 11.313 5.25419 11.313 5.45311C11.313 5.65202 11.392 5.84278 11.5327 5.98344C11.6733 6.12409 11.8641 6.20311 12.063 6.20311H16V2.26611C16 2.06719 15.921 1.87643 15.7804 1.73578C15.6397 1.59512 15.4489 1.51611 15.25 1.51611C15.0511 1.51611 14.8603 1.59512 14.7197 1.73578C14.579 1.87643 14.5 2.06719 14.5 2.26611V3.53611C13.7008 2.69062 12.7318 2.02373 11.6566 1.57923C10.5815 1.13473 9.42442 0.922663 8.26148 0.956954C7.09855 0.991244 5.95602 1.27112 4.9089 1.7782C3.86178 2.28528 2.93376 3.0081 2.18575 3.89921C1.43774 4.79031 0.886669 5.82956 0.56871 6.9487C0.25075 8.06785 0.173095 9.24159 0.340842 10.3929C0.508589 11.5442 0.917945 12.6469 1.54204 13.6288C2.16613 14.6107 2.99084 15.4495 3.96202 16.0901C4.04397 16.1491 4.13701 16.191 4.23554 16.2132C4.33408 16.2354 4.43608 16.2375 4.53544 16.2193C4.6348 16.2012 4.72946 16.1631 4.81374 16.1074C4.89803 16.0518 4.9702 15.9797 5.02594 15.8954C5.08167 15.8112 5.11981 15.7166 5.13808 15.6172C5.15634 15.5179 5.15435 15.4159 5.13223 15.3173C5.1101 15.2188 5.0683 15.1257 5.00932 15.0437C4.95035 14.9617 4.87541 14.8924 4.78902 14.8401C3.98811 14.3117 3.30908 13.6185 2.79719 12.8069C2.2853 11.9953 1.95233 11.0839 1.82048 10.1335C1.68864 9.18307 1.76094 8.21545 2.03257 7.29516C2.3042 6.37488 2.76892 5.52308 3.39574 4.79657C4.02255 4.07006 4.79706 3.48554 5.66761 3.08199C6.53816 2.67844 7.48474 2.46513 8.44424 2.45628C9.40373 2.44744 10.3541 2.64326 11.2319 3.0307C12.1098 3.41813 12.8949 3.98828 13.535 4.70311H13.536Z" fill="white" fill-opacity="0.698"/>
<path vector-effect="non-scaling-stroke" d="M6.303 8.6101C7.093 8.6101 7.517 8.0901 7.517 7.7031H9.017V15.7031H7.517V10.1101H6V8.6101H6.303ZM11.135 7.6991H15.185V9.1991H12.33L12.085 10.2661C12.341 10.1951 12.61 10.1561 12.889 10.1561C14.51 10.1561 15.843 11.4561 15.843 13.0801C15.843 14.7041 14.51 16.0031 12.889 16.0031C12.1759 16.0062 11.4858 15.7505 10.947 15.2834C10.4081 14.8163 10.0571 14.1695 9.959 13.4631L11.446 13.2661C11.538 13.9561 12.142 14.5031 12.889 14.5031C13.702 14.5031 14.343 13.8561 14.343 13.0801C14.343 12.3041 13.703 11.6571 12.889 11.6571C12.399 11.6571 11.969 11.8921 11.706 12.2511L11.696 12.2651L11.49 12.5191L10.176 11.8801L11.135 7.6991Z" fill="white" fill-opacity="0.698"/>
</svg>
