<svg preserveAspectRatio="none" width="17" height="16" viewBox="0 0 17 16" fill="none" xmlns="http://www.w3.org/2000/svg">
<path vector-effect="non-scaling-stroke" d="M1.78373 1.99998C2.63815 1.19459 3.76915 0.747948 4.94332 0.752228C6.11749 0.756508 7.2452 1.21139 8.09373 2.02298C8.60421 1.5372 9.21985 1.17567 9.89278 0.966509C10.5657 0.757345 11.2778 0.706178 11.9737 0.816984H11.9757C12.9025 0.968682 13.7609 1.39931 14.4367 2.05144C15.1124 2.70357 15.5732 3.54621 15.7577 4.46698V4.46998C15.8909 5.14483 15.8691 5.8411 15.694 6.50629C15.5189 7.17148 15.195 7.78822 14.7467 8.30999L9.44373 14.629C9.19415 14.9253 8.854 15.1313 8.47575 15.2152C8.09749 15.299 7.70216 15.2561 7.35073 15.093C7.11771 14.9846 6.91122 14.8266 6.74573 14.63L1.44173 8.30898C0.677999 7.41457 0.287446 6.26072 0.350922 5.08631C0.414399 3.9119 0.927043 2.80687 1.78273 1.99998H1.78373ZM4.94173 2.25198C4.35128 2.24898 3.7724 2.41566 3.27395 2.73217C2.7755 3.04869 2.37846 3.50172 2.13006 4.03739C1.88166 4.57305 1.79237 5.1688 1.87279 5.75375C1.95322 6.3387 2.19998 6.88824 2.58373 7.33698L2.58873 7.34198L7.89373 13.664C7.93098 13.7078 7.98151 13.7382 8.03765 13.7507C8.09378 13.7631 8.15245 13.7569 8.20473 13.733C8.23941 13.7168 8.27013 13.6933 8.29473 13.664L13.6067 7.33398C13.9076 6.98464 14.1251 6.5715 14.2429 6.12576C14.3607 5.68003 14.3757 5.21336 14.2867 4.76098C14.1621 4.13991 13.8512 3.57154 13.3954 3.13154C12.9397 2.69154 12.3608 2.40079 11.7357 2.29798C11.2669 2.22344 10.7872 2.25831 10.3341 2.39986C9.88098 2.54141 9.46674 2.78582 9.12373 3.11398L9.11673 3.12098C8.83897 3.37944 8.47364 3.52312 8.09423 3.52312C7.71482 3.52312 7.34949 3.37944 7.07173 3.12098L7.06273 3.11298C6.49248 2.56434 5.73305 2.25605 4.94173 2.25198Z" fill="white" fill-opacity="0.698"/>
</svg>
