<svg preserveAspectRatio="none" width="17" height="16" viewBox="0 0 17 16" fill="none" xmlns="http://www.w3.org/2000/svg">
<path vector-effect="non-scaling-stroke" d="M4.37608 3.71981C4.5167 3.57936 4.70733 3.50047 4.90608 3.50047C5.10483 3.50047 5.29545 3.57936 5.43608 3.71981L8.65608 6.93981L11.8761 3.71981C11.9678 3.62109 12.0844 3.54892 12.2136 3.5109C12.3429 3.47289 12.48 3.47044 12.6105 3.50381C12.741 3.53719 12.8601 3.60515 12.9553 3.70053C13.0504 3.79592 13.118 3.9152 13.1511 4.04581C13.1845 4.17619 13.1822 4.31316 13.1443 4.44233C13.1065 4.57149 13.0346 4.68807 12.9361 4.77981L9.71608 7.99981L12.9361 11.2198C13.0348 11.3115 13.107 11.4281 13.145 11.5573C13.183 11.6866 13.1855 11.8237 13.1521 11.9542C13.1187 12.0847 13.0507 12.2038 12.9554 12.299C12.86 12.3941 12.7407 12.4618 12.6101 12.4948C12.4797 12.5282 12.3427 12.5259 12.2136 12.4881C12.0844 12.4502 11.9678 12.3783 11.8761 12.2798L8.65608 9.05981L5.43608 12.2798C5.29382 12.4122 5.10576 12.4843 4.91145 12.481C4.71713 12.4776 4.53168 12.3991 4.39408 12.2618C4.25684 12.1242 4.17828 11.9388 4.17492 11.7444C4.17157 11.5501 4.24367 11.3621 4.37608 11.2198L7.59608 7.99981L4.37608 4.77981C4.23563 4.63919 4.15674 4.44856 4.15674 4.24981C4.15674 4.05106 4.23563 3.86044 4.37608 3.71981Z" fill="white"/>
</svg>
