<svg preserveAspectRatio="none" width="107" height="106" viewBox="0 0 107 106" fill="none" xmlns="http://www.w3.org/2000/svg">
<rect vector-effect="non-scaling-stroke" opacity="0.15" x="0.482788" width="106" height="106" rx="8" fill="#EF790C"/>
<path vector-effect="non-scaling-stroke" d="M60.4022 50.1761C63.1649 50.1761 65.7616 51.2493 67.7128 53.2005L69.6259 55.1136C73.5331 53.3812 76.5838 49.9085 77.5965 45.6751C78.1556 43.3392 78.118 41.0775 77.6175 38.9955C77.3623 37.933 76.013 37.5785 75.2406 38.3506L68.5121 45.0791H61.1293V37.7836L67.8578 31.0551C68.6304 30.2824 68.2753 28.933 67.2129 28.6781C65.1308 28.1776 62.8691 28.14 60.5332 28.6991C55.1328 29.9911 50.9248 34.5799 50.0645 40.0663C49.9238 40.8793 49.8945 41.6703 49.9042 42.4515L57.9882 50.5433C58.7812 50.2738 59.5917 50.1761 60.4022 50.1761ZM65.4999 55.4984C63.2382 53.2366 59.8778 52.806 57.161 54.1409L46.6621 43.7211V37.6654L34.25 28.2914L28 34.4535L37.375 46.8656L43.4335 46.8663L53.8534 57.2765C52.5185 59.9932 52.95 63.3536 55.2118 65.6153L66.6376 77.0508C68.0653 78.4668 70.369 78.4668 71.785 77.0506L76.9364 71.8993C78.3524 70.4833 78.3524 68.1806 76.9362 66.7519L65.4999 55.4984ZM50.2558 58.2718L44.4746 52.5003L29.9336 67.0413C27.3584 69.6165 27.3584 73.7874 29.9336 76.3626C31.2187 77.6467 32.9033 78.2913 34.5918 78.2913C36.2802 78.2913 37.9648 77.6475 39.2519 76.3596L50.8827 64.7288C50.0214 62.6956 49.7382 60.4593 50.2558 58.2718ZM34.25 74.385C32.956 74.385 31.9062 73.3352 31.9062 72.0413C31.9062 70.7464 32.956 69.6975 34.25 69.6975C35.5439 69.6975 36.5937 70.7425 36.5937 72.0413C36.5937 73.3401 35.5439 74.385 34.25 74.385Z" fill="#EF790C"/>
</svg>
