<svg preserveAspectRatio="none" width="24" height="24" viewBox="0 0 24 24" fill="none" xmlns="http://www.w3.org/2000/svg">
<path vector-effect="non-scaling-stroke" fill-rule="evenodd" clip-rule="evenodd" d="M19 6.9C19 6.66182 18.9056 6.43336 18.7375 6.26466C18.5693 6.09597 18.3412 6.00079 18.103 6H5.897C5.6583 6 5.42939 6.09482 5.2606 6.2636C5.09182 6.43239 4.997 6.66131 4.997 6.9C4.997 7.13869 5.09182 7.36761 5.2606 7.5364C5.42939 7.70518 5.6583 7.8 5.897 7.8H18.103C18.598 7.8 19 7.4 19 6.9V6.9ZM19 12C19 11.7618 18.9056 11.5334 18.7375 11.3647C18.5693 11.196 18.3412 11.1008 18.103 11.1H5.897C5.6583 11.1 5.42939 11.1948 5.2606 11.3636C5.09182 11.5324 4.997 11.7613 4.997 12C4.997 12.2387 5.09182 12.4676 5.2606 12.6364C5.42939 12.8052 5.6583 12.9 5.897 12.9H18.103C18.598 12.9 19 12.5 19 12ZM5 17.1C5 17.597 5.41 18 5.896 18H13.104C13.599 18 14 17.6 14 17.1C14 16.603 13.59 16.2 13.104 16.2H5.896C5.401 16.2 5 16.6 5 17.1V17.1Z" fill="#2A5885"/>
</svg>
