<svg preserveAspectRatio="none" width="97" height="97" viewBox="0 0 97 97" fill="none" xmlns="http://www.w3.org/2000/svg">
<path vector-effect="non-scaling-stroke" fill-rule="evenodd" clip-rule="evenodd" d="M28.3191 54.8869L40.8271 54.8979C43.2881 54.9029 44.4361 56.2969 43.3721 58.0009L23.9041 89.6999C9.6081 81.3589 0.0001 65.8599 0.0001 48.1149C0.0001 21.5419 21.5421 -0.0001 48.1141 -0.0001C54.2471 -0.0001 60.1101 1.1499 65.5041 3.2409L25.9401 51.8679C25.9361 51.8739 25.9361 51.8739 25.9381 51.8809L25.9221 51.8889C25.8571 51.9779 25.8031 52.0689 25.7511 52.1679C25.7511 52.1679 25.7481 52.1679 25.7461 52.1739C25.7315 52.1976 25.7193 52.2242 25.7071 52.2506C25.7018 52.2622 25.6966 52.2737 25.6911 52.2849C25.4551 52.7479 25.4011 53.1769 25.5241 53.5469C25.7671 54.3499 26.7651 54.8849 28.3191 54.8869ZM52.8573 38.2293L72.3223 6.5273C86.6203 14.8683 96.2293 30.3683 96.2293 48.1143C96.2293 74.6873 74.6873 96.2293 48.1143 96.2293C41.9813 96.2293 36.1163 95.0793 30.7223 92.9863L70.2823 44.3553C70.2864 44.3553 70.2891 44.3543 70.2907 44.3528C70.2918 44.3518 70.2923 44.3505 70.2923 44.3493L70.3023 44.3413C70.3693 44.2493 70.4273 44.1573 70.4743 44.0623C70.4743 44.0623 70.477 44.0611 70.4791 44.0595C70.4803 44.0585 70.4813 44.0574 70.4813 44.0563C70.4883 44.0413 70.4946 44.0273 70.5007 44.0136C70.5114 43.99 70.5216 43.9673 70.5343 43.9413C70.7693 43.4843 70.8263 43.0533 70.7033 42.6843C70.4613 41.8783 69.4653 41.3453 67.9113 41.3403L55.4003 41.3303C52.9343 41.3253 51.7903 39.9313 52.8573 38.2293Z" fill="#4D4D4D"/>
</svg>
