<svg preserveAspectRatio="none" width="24" height="25" viewBox="0 0 24 25" fill="none" xmlns="http://www.w3.org/2000/svg">
<g clip-path="url(#clip0_0_855)">
<path vector-effect="non-scaling-stroke" d="M0 13.2813V13.2388C0.000857143 16.2374 0.01575 16.6595 0.072 17.9011C0.271982 22.2591 2.69004 24.6811 7.05198 24.8811C8.33304 24.9391 8.74098 24.9531 12 24.9531H0V13.2813ZM12.2808 3.11613C15.2276 3.11687 15.622 3.12984 16.85 3.18614C20.102 3.33411 21.621 4.87712 21.769 8.10512C21.8253 9.33218 21.8373 9.72652 21.838 12.6733V13.2351C21.8372 16.1827 21.8243 16.5761 21.769 17.8031C21.62 21.0281 20.105 22.5741 16.85 22.7221C15.6093 22.7789 15.2215 22.7916 12.189 22.7921H11.8111C8.78046 22.7916 8.39068 22.779 7.15098 22.7221C3.891 22.5731 2.38002 21.0231 2.232 17.8021C2.17575 16.5751 2.16279 16.1817 2.16204 13.2341V12.7642C2.16257 9.73359 2.17613 9.34477 2.232 8.10411C2.38098 4.87713 3.89598 3.33314 7.15098 3.18513C8.379 3.12984 8.77248 3.11687 11.7192 3.11618L12.2808 3.11613ZM12 6.79112C8.59698 6.79112 5.838 9.55011 5.838 12.9531C5.838 16.3561 8.59698 19.1161 12 19.1161C15.403 19.1161 18.162 16.3571 18.162 12.9531C18.162 9.55011 15.403 6.79112 12 6.79112ZM12 8.95311C14.209 8.95311 16 10.7441 16 12.9531C16 15.1631 14.209 16.9531 12 16.9531C9.79098 16.9531 7.99998 15.1631 7.99998 12.9531C7.99998 10.7441 9.79098 8.95311 12 8.95311ZM18.406 5.10812C17.61 5.10812 16.965 5.75313 16.965 6.54813C16.965 7.34313 17.61 7.98813 18.406 7.98813C19.201 7.98813 19.845 7.34313 19.845 6.54813C19.845 5.75313 19.201 5.10812 18.406 5.10812ZM24 12.9531V24.9531H12C15.259 24.9531 15.668 24.9391 16.948 24.8811C21.302 24.6811 23.73 22.2631 23.927 17.9011C23.9861 16.6211 24 16.2121 24 12.9531ZM23.928 8.00613C23.732 3.65211 21.311 1.22613 16.949 1.02614C15.7064 0.968875 15.2843 0.953982 12.2857 0.953125H24V12.9531C24 9.69411 23.986 9.28616 23.928 8.00613ZM0 0.953125H11.7143C8.71575 0.953982 8.29463 0.968875 7.053 1.02512C2.69496 1.22511 0.273 3.64316 0.0730179 8.00511C0.0160179 9.2418 0.00101786 9.66491 0 12.6249V0.953125Z" fill="#222326"/>
</g>
<defs>
<clipPath id="clip0_0_855">
<rect vector-effect="non-scaling-stroke" width="24" height="24" fill="white" transform="translate(0 0.953125)"/>
</clipPath>
</defs>
</svg>
