<svg preserveAspectRatio="none" width="12" height="10" viewBox="0 0 12 10" fill="none" xmlns="http://www.w3.org/2000/svg">
<path vector-effect="non-scaling-stroke" opacity="0.4" d="M7.0212 3.65998V2.48174C6.78989 2.48174 6.59808 2.29541 6.59808 2.07072V0.667788C6.59808 0.480914 6.44576 0.333496 6.25395 0.333496H2.37822C1.15966 0.333496 0.166748 1.29746 0.166748 2.48174V3.90056C0.166748 4.01071 0.21188 4.11484 0.290862 4.19156C0.369843 4.26773 0.477032 4.31158 0.589862 4.31158C1.01862 4.31158 1.34583 4.60751 1.34583 4.9966C1.34583 5.40268 1.01298 5.72602 0.595504 5.73095C0.364201 5.73095 0.166748 5.88987 0.166748 6.12004V7.52352C0.166748 8.70724 1.15966 9.66628 2.37258 9.66628H6.25395C6.44576 9.66628 6.59808 9.51777 6.59808 9.33199V8.14772C6.59808 7.9181 6.78989 7.7367 7.0212 7.7367V6.67409C6.78989 6.67409 6.59808 6.48722 6.59808 6.26308V4.07099C6.59808 3.84631 6.78989 3.65998 7.0212 3.65998Z" fill="white"/>
<path vector-effect="non-scaling-stroke" d="M10.6544 4.99703C10.6544 5.40256 10.9929 5.72589 11.4047 5.73137C11.636 5.73137 11.8335 5.8903 11.8335 6.11499V7.5234C11.8335 8.70767 10.8462 9.66671 9.62762 9.66671H7.78849C7.60232 9.66671 7.44435 9.51819 7.44435 9.33187V8.14814C7.44435 7.91797 7.25818 7.73713 7.02124 7.73713V6.67452C7.25818 6.67452 7.44435 6.48764 7.44435 6.2635V4.07142C7.44435 3.84618 7.25818 3.6604 7.02124 3.6604V2.48161C7.25818 2.48161 7.44435 2.29529 7.44435 2.0706V0.668214C7.44435 0.481339 7.60232 0.333374 7.78849 0.333374H9.62762C10.8462 0.333374 11.8335 1.29241 11.8335 2.47613V3.85714C11.8335 3.96675 11.7883 4.07142 11.7093 4.14759C11.6304 4.22432 11.5232 4.26816 11.4103 4.26816C10.9929 4.26816 10.6544 4.59752 10.6544 4.99703Z" fill="white"/>
</svg>
