<svg preserveAspectRatio="none" width="360" height="50" viewBox="0 0 360 50" fill="none" xmlns="http://www.w3.org/2000/svg">
<g filter="url(#filter0_d_1_5789)">
<rect vector-effect="non-scaling-stroke" x="60" y="3" width="40" height="40" rx="20" fill="white"/>
<path vector-effect="non-scaling-stroke" fill-rule="evenodd" clip-rule="evenodd" d="M80.0001 23C82.0628 23 83.7334 21.3293 83.7334 19.2667C83.7334 17.204 82.0628 15.5333 80.0001 15.5333C77.9374 15.5333 76.2668 17.204 76.2668 19.2667C76.2668 21.3293 77.9374 23 80.0001 23ZM80.0001 24.8667C77.5081 24.8667 72.5334 26.1173 72.5334 28.6V29.5333C72.5334 30.0467 72.9534 30.4667 73.4668 30.4667H86.5334C87.0468 30.4667 87.4668 30.0467 87.4668 29.5333V28.6C87.4668 26.1173 82.4921 24.8667 80.0001 24.8667Z" fill="#C3CAD9"/>
</g>
<g filter="url(#filter1_d_1_5789)">
<rect vector-effect="non-scaling-stroke" x="260" y="3" width="40" height="40" rx="20" fill="white"/>
<path vector-effect="non-scaling-stroke" fill-rule="evenodd" clip-rule="evenodd" d="M274.4 21.1334C273.373 21.1334 272.533 21.9734 272.533 23C272.533 24.0267 273.373 24.8667 274.4 24.8667C275.427 24.8667 276.267 24.0267 276.267 23C276.267 21.9734 275.427 21.1334 274.4 21.1334ZM285.6 21.1334C284.573 21.1334 283.733 21.9734 283.733 23C283.733 24.0267 284.573 24.8667 285.6 24.8667C286.627 24.8667 287.467 24.0267 287.467 23C287.467 21.9734 286.627 21.1334 285.6 21.1334ZM280 21.1334C278.973 21.1334 278.133 21.9734 278.133 23C278.133 24.0267 278.973 24.8667 280 24.8667C281.027 24.8667 281.867 24.0267 281.867 23C281.867 21.9734 281.027 21.1334 280 21.1334Z" fill="#C3CAD9"/>
</g>
<defs>
<filter id="filter0_d_1_5789" x="55" y="0" width="50" height="50" filterUnits="userSpaceOnUse" color-interpolation-filters="sRGB">
<feFlood flood-opacity="0" result="BackgroundImageFix"/>
<feColorMatrix in="SourceAlpha" type="matrix" values="0 0 0 0 0 0 0 0 0 0 0 0 0 0 0 0 0 0 127 0" result="hardAlpha"/>
<feOffset dy="2"/>
<feGaussianBlur stdDeviation="2.5"/>
<feColorMatrix type="matrix" values="0 0 0 0 0.14902 0 0 0 0 0.2 0 0 0 0 0.301961 0 0 0 0.03 0"/>
<feBlend mode="normal" in2="BackgroundImageFix" result="effect1_dropShadow_1_5789"/>
<feBlend mode="normal" in="SourceGraphic" in2="effect1_dropShadow_1_5789" result="shape"/>
</filter>
<filter id="filter1_d_1_5789" x="255" y="0" width="50" height="50" filterUnits="userSpaceOnUse" color-interpolation-filters="sRGB">
<feFlood flood-opacity="0" result="BackgroundImageFix"/>
<feColorMatrix in="SourceAlpha" type="matrix" values="0 0 0 0 0 0 0 0 0 0 0 0 0 0 0 0 0 0 127 0" result="hardAlpha"/>
<feOffset dy="2"/>
<feGaussianBlur stdDeviation="2.5"/>
<feColorMatrix type="matrix" values="0 0 0 0 0.14902 0 0 0 0 0.2 0 0 0 0 0.301961 0 0 0 0.03 0"/>
<feBlend mode="normal" in2="BackgroundImageFix" result="effect1_dropShadow_1_5789"/>
<feBlend mode="normal" in="SourceGraphic" in2="effect1_dropShadow_1_5789" result="shape"/>
</filter>
</defs>
</svg>
