<svg preserveAspectRatio="none" width="24" height="22" viewBox="0 0 24 22" fill="none" xmlns="http://www.w3.org/2000/svg">
<path vector-effect="non-scaling-stroke" fill-rule="evenodd" clip-rule="evenodd" d="M14.5934 1.11225C14.6347 1.13758 14.6761 1.16425 14.7134 1.19492C16.5158 2.61067 16.6481 5.24257 16.6545 10.4984L16.6548 10.9989C16.6548 16.5909 16.5721 19.3442 14.7134 20.8056C14.6761 20.8349 14.6348 20.8629 14.5921 20.8869C14.0401 21.2016 13.4787 21.3349 12.9187 21.3349C11.0641 21.3349 9.22542 19.8749 7.79342 18.7389C7.14675 18.2256 6.16942 17.4496 5.83208 17.4149C5.44942 17.3856 5.11875 17.3736 4.82675 17.3656C3.76275 17.3269 2.92142 17.2989 1.93208 16.4829C0.741683 15.5025 0.632363 13.5598 0.628235 11.8475L0.629416 11.2869L0.63075 10.9989L0.629416 10.7109L0.628235 10.1504C0.632363 8.43825 0.741683 6.49665 1.93208 5.51625C2.92275 4.70025 3.76542 4.67092 4.83208 4.63492C5.12275 4.62425 5.45208 4.61358 5.83475 4.58558C6.16942 4.54958 7.14675 3.77358 7.79342 3.26025C9.65742 1.77892 12.2134 -0.243749 14.5934 1.11225ZM12.9054 2.67358C11.7481 2.67358 10.2681 3.84825 9.03608 4.82692C7.85075 5.76692 6.91475 6.51092 5.98142 6.58025C5.56808 6.60958 5.21342 6.62292 4.90142 6.63358C3.90542 6.66692 3.65342 6.68958 3.20408 7.06025C2.68842 7.48375 2.6311 9.05058 2.62841 10.2262L2.62942 10.7016L2.63075 10.9963V11.0016L2.62942 11.2963L2.62841 11.7721C2.6311 12.9486 2.68842 14.5154 3.20408 14.9389C3.65208 15.3096 3.90408 15.3309 4.89742 15.3669C5.21075 15.3762 5.56675 15.3896 5.98142 15.4202C6.91475 15.4882 7.85075 16.2322 9.03608 17.1722C10.5067 18.3389 12.3294 19.7856 13.5361 19.1843C14.5141 18.3365 14.6468 16.1339 14.6544 11.4732L14.6547 10.9989C14.6547 6.01225 14.5468 3.69092 13.5361 2.81358C13.3401 2.71625 13.1281 2.67358 12.9054 2.67358ZM21.9368 5.58785C23.8501 8.93185 23.8501 13.0785 21.9368 16.4118C21.7514 16.7345 21.4154 16.9145 21.0688 16.9145C20.8994 16.9145 20.7288 16.8718 20.5714 16.7812C20.0928 16.5065 19.9274 15.8945 20.2021 15.4172C21.7634 12.6959 21.7634 9.31185 20.2021 6.58252C19.9274 6.10252 20.0941 5.49185 20.5728 5.21718C21.0528 4.94785 21.6621 5.10918 21.9368 5.58785Z" fill="#00A4FF"/>
</svg>
