<svg preserveAspectRatio="none" width="17" height="17" viewBox="0 0 17 17" fill="none" xmlns="http://www.w3.org/2000/svg">
<path vector-effect="non-scaling-stroke" d="M5.08321 7.927L8.47921 11.323C8.50244 11.3463 8.53002 11.3648 8.5604 11.3774C8.59077 11.39 8.62333 11.3964 8.65621 11.3964C8.6891 11.3964 8.72166 11.39 8.75203 11.3774C8.7824 11.3648 8.80999 11.3463 8.83321 11.323L12.2292 7.927C12.2643 7.89204 12.2881 7.84745 12.2978 7.7989C12.3075 7.75034 12.3026 7.70001 12.2836 7.65427C12.2646 7.60853 12.2325 7.56945 12.1913 7.54199C12.1501 7.51453 12.1017 7.49991 12.0522 7.5H5.26021C5.2107 7.49991 5.16228 7.51453 5.12109 7.54199C5.07989 7.56945 5.04778 7.60853 5.02882 7.65427C5.00986 7.70001 5.00491 7.75034 5.01459 7.7989C5.02428 7.84745 5.04816 7.89204 5.08321 7.927Z" fill="#8B949E"/>
</svg>
