<svg preserveAspectRatio="none" width="30" height="30" viewBox="0 0 30 30" fill="none" xmlns="http://www.w3.org/2000/svg">
<path vector-effect="non-scaling-stroke" fill-rule="evenodd" clip-rule="evenodd" d="M20.2539 19.5H9.67393C7.58393 19.5 5.72393 17.97 5.52393 15.89C5.29393 13.51 7.16393 11.5 9.50393 11.5H21.8639C23.1739 11.5 24.3639 12.44 24.4939 13.74C24.6439 15.24 23.4739 16.5 22.0039 16.5H11.5039C10.9539 16.5 10.5039 16.05 10.5039 15.5C10.5039 14.95 10.9539 14.5 11.5039 14.5H20.2539C20.6639 14.5 21.0039 14.16 21.0039 13.75C21.0039 13.34 20.6639 13 20.2539 13H11.6439C10.3339 13 9.14393 13.94 9.01393 15.24C8.86393 16.74 10.0339 18 11.5039 18H21.8339C23.9239 18 25.7839 16.47 25.9839 14.39C26.2139 12 24.3439 10 22.0039 10H9.73393C6.86393 10 4.29393 12.1 4.02393 14.96C3.72393 18.25 6.28393 21 9.50393 21H20.2539C20.6639 21 21.0039 20.66 21.0039 20.25C21.0039 19.84 20.6639 19.5 20.2539 19.5Z" fill="#C3CAD9"/>
</svg>
