<svg preserveAspectRatio="none" width="859" height="909" viewBox="0 0 859 909" fill="none" xmlns="http://www.w3.org/2000/svg">
<g clip-path="url(#clip0_1_2145)">
<path vector-effect="non-scaling-stroke" opacity="0.6" fill-rule="evenodd" clip-rule="evenodd" d="M1071.34 495.297C1071.34 505.696 1070.83 515.976 1069.84 526.114C1067.49 532.71 1062.53 538.214 1055.9 541.159L984.406 572.936C981.178 574.371 978.689 577.064 977.405 580.355C976.225 583.378 974.984 586.369 973.684 589.329C972.262 592.566 972.115 596.234 973.384 599.534L1001.47 672.567C1004.07 679.315 1003.69 686.695 1000.71 693.007C987.636 708.957 973.006 723.587 957.056 736.668C950.743 739.649 943.364 740.022 936.615 737.426L863.583 709.337C860.283 708.067 856.615 708.214 853.378 709.636C850.418 710.937 847.425 712.178 844.402 713.358C841.111 714.642 838.418 717.131 836.983 720.359L805.206 791.857C802.261 798.483 796.757 803.447 790.161 805.794C780.023 806.788 769.743 807.297 759.344 807.297C748.945 807.297 738.665 806.788 728.527 805.794C721.931 803.447 716.427 798.483 713.482 791.857L681.705 720.359C680.27 717.131 677.577 714.642 674.286 713.358C671.263 712.178 668.271 710.937 665.311 709.636C662.074 708.214 658.407 708.068 655.106 709.337L582.075 737.426C575.325 740.022 567.943 739.649 561.629 736.665C553.837 730.274 546.359 723.514 539.223 716.41L538.231 715.418C531.128 708.282 524.367 700.805 517.977 693.013C514.993 686.7 514.62 679.318 517.216 672.567L545.305 599.536C546.574 596.236 546.428 592.569 545.005 589.332C543.705 586.371 542.463 583.378 541.283 580.355C539.999 577.064 537.51 574.371 534.282 572.936L462.784 541.159C456.158 538.214 451.194 532.71 448.847 526.114C447.853 515.976 447.344 505.696 447.344 495.297C447.344 484.898 447.853 474.618 448.847 464.48C451.194 457.884 456.158 452.38 462.784 449.435L534.282 417.658C537.51 416.223 539.999 413.53 541.283 410.239C542.463 407.216 543.705 404.223 545.005 401.262C546.428 398.025 546.574 394.358 545.305 391.058L517.216 318.027C514.62 311.276 514.993 303.894 517.977 297.581C524.367 289.789 531.127 282.312 538.23 275.177L539.224 274.183C546.36 267.08 553.837 260.319 561.629 253.929C567.943 250.945 575.325 250.572 582.075 253.168L655.106 281.257C658.406 282.526 662.074 282.38 665.311 280.958C668.271 279.657 671.263 278.416 674.286 277.236C677.577 275.952 680.27 273.463 681.705 270.235L713.482 198.737C716.427 192.111 721.931 187.147 728.527 184.8C738.665 183.806 748.945 183.297 759.344 183.297C769.743 183.297 780.023 183.806 790.161 184.8C796.757 187.147 802.261 192.111 805.206 198.737L836.983 270.235C838.418 273.463 841.111 275.952 844.402 277.236C847.425 278.416 850.418 279.657 853.378 280.958C856.615 282.38 860.283 282.527 863.583 281.257L936.615 253.168C943.364 250.572 950.743 250.945 957.056 253.926C973.006 267.007 987.636 281.637 1000.71 297.587C1003.69 303.899 1004.07 311.278 1001.47 318.027L973.384 391.06C972.115 394.36 972.262 398.028 973.684 401.265C974.984 404.225 976.225 407.216 977.405 410.239C978.689 413.53 981.178 416.223 984.406 417.658L1055.9 449.435C1062.53 452.38 1067.49 457.884 1069.84 464.48C1070.83 474.618 1071.34 484.898 1071.34 495.297Z" fill="url(#paint0_linear_1_2145)" fill-opacity="0.6" stroke="url(#paint1_linear_1_2145)" stroke-width="2"/>
</g>
<defs>
<linearGradient vector-effect="non-scaling-stroke" id="paint0_linear_1_2145" x1="460.344" y1="294.297" x2="855.344" y2="712.297" gradientUnits="userSpaceOnUse">
<stop stop-color="#E9789B" stop-opacity="0.04"/>
<stop offset="0.442033" stop-color="#FF7170"/>
<stop offset="1" stop-color="white"/>
</linearGradient>
<linearGradient vector-effect="non-scaling-stroke" id="paint1_linear_1_2145" x1="792.344" y1="183.297" x2="532.344" y2="863.297" gradientUnits="userSpaceOnUse">
<stop stop-color="white"/>
<stop offset="1" stop-color="white" stop-opacity="0.13"/>
</linearGradient>
<clipPath id="clip0_1_2145">
<rect vector-effect="non-scaling-stroke" width="1072" height="908" fill="white" transform="translate(0.34375 0.296875)"/>
</clipPath>
</defs>
</svg>
