<svg preserveAspectRatio="none" width="25" height="24" viewBox="0 0 25 24" fill="none" xmlns="http://www.w3.org/2000/svg">
<path vector-effect="non-scaling-stroke" d="M8.93907 18.7798C8.79862 18.6392 8.71973 18.4486 8.71973 18.2498C8.71973 18.0511 8.79862 17.8604 8.93907 17.7198L14.6591 11.9998L8.93907 6.27982C8.80666 6.13756 8.73455 5.94951 8.73791 5.75519C8.74127 5.56087 8.81982 5.37543 8.95707 5.23782C9.09467 5.10058 9.28012 5.02202 9.47444 5.01867C9.66875 5.01531 9.8568 5.08741 9.99907 5.21982L16.2491 11.4698C16.3895 11.6104 16.4684 11.8011 16.4684 11.9998C16.4684 12.1986 16.3895 12.3892 16.2491 12.5298L9.99907 18.7798C9.85844 18.9203 9.66782 18.9992 9.46907 18.9992C9.27032 18.9992 9.07969 18.9203 8.93907 18.7798Z" fill="#8B949E"/>
</svg>
