<svg preserveAspectRatio="none" width="21" height="21" viewBox="0 0 21 21" fill="none" xmlns="http://www.w3.org/2000/svg">
<path vector-effect="non-scaling-stroke" d="M9.35041 4.52458C8.9843 4.15847 8.3907 4.15847 8.02458 4.52458C7.65847 4.8907 7.65847 5.4843 8.02458 5.85041L9.35041 4.52458ZM14 10.5L14.6629 11.1629C15.029 10.7968 15.029 10.2032 14.6629 9.83708L14 10.5ZM8.02458 15.1496C7.65847 15.5157 7.65847 16.1092 8.02458 16.4754C8.3907 16.8415 8.9843 16.8415 9.35041 16.4754L8.02458 15.1496ZM8.02458 5.85041L13.3371 11.1629L14.6629 9.83708L9.35041 4.52458L8.02458 5.85041ZM13.3371 9.83708L8.02458 15.1496L9.35041 16.4754L14.6629 11.1629L13.3371 9.83708Z" fill="white"/>
<path vector-effect="non-scaling-stroke" d="M2.4375 10.5H14Z" fill="white"/>
<path vector-effect="non-scaling-stroke" d="M2.4375 10.5H14" stroke="white" stroke-width="1.875" stroke-linecap="round" stroke-dasharray="12.5 12.5"/>
</svg>
