<svg preserveAspectRatio="none" width="17" height="16" viewBox="0 0 17 16" fill="none" xmlns="http://www.w3.org/2000/svg">
<path vector-effect="non-scaling-stroke" d="M5.34375 5.37181V6.24981C5.34375 6.66381 5.67975 6.99981 6.09375 6.99981H10.5938C10.7927 6.99981 10.9834 6.92079 11.1241 6.78014C11.2647 6.63949 11.3438 6.44872 11.3438 6.24981V5.37181C10.8433 5.19489 10.4216 4.84676 10.153 4.38895C9.88447 3.93114 9.7864 3.39313 9.87616 2.87001C9.96591 2.34689 10.2377 1.87234 10.6435 1.53023C11.0493 1.18812 11.563 1.00049 12.0938 1.00049C12.6245 1.00049 13.1382 1.18812 13.544 1.53023C13.9498 1.87234 14.2216 2.34689 14.3114 2.87001C14.4011 3.39313 14.303 3.93114 14.0345 4.38895C13.7659 4.84676 13.3442 5.19489 12.8438 5.37181V6.24981C12.8438 6.84655 12.6067 7.41884 12.1847 7.8408C11.7628 8.26276 11.1905 8.49981 10.5938 8.49981H9.09375V10.6278C9.59444 10.8047 10.0165 11.153 10.2852 11.611C10.554 12.069 10.6521 12.6073 10.5624 13.1307C10.4726 13.6541 10.2007 14.1289 9.79471 14.4712C9.38872 14.8134 8.87479 15.0012 8.34375 15.0012C7.81272 15.0012 7.29879 14.8134 6.8928 14.4712C6.48681 14.1289 6.2149 13.6541 6.12514 13.1307C6.03539 12.6073 6.13356 12.069 6.4023 11.611C6.67105 11.153 7.09307 10.8047 7.59375 10.6278V8.49981H6.09375C5.49702 8.49981 4.92472 8.26276 4.50276 7.8408C4.08081 7.41884 3.84375 6.84655 3.84375 6.24981V5.37181C3.34334 5.19489 2.92159 4.84676 2.65303 4.38895C2.38447 3.93114 2.2864 3.39313 2.37616 2.87001C2.46591 2.34689 2.73771 1.87234 3.14351 1.53023C3.54931 1.18812 4.06299 1.00049 4.59375 1.00049C5.12452 1.00049 5.6382 1.18812 6.044 1.53023C6.4498 1.87234 6.7216 2.34689 6.81135 2.87001C6.9011 3.39313 6.80304 3.93114 6.53448 4.38895C6.26592 4.84676 5.84417 5.19489 5.34375 5.37181ZM5.34375 3.24981C5.34375 3.0509 5.26474 2.86013 5.12408 2.71948C4.98343 2.57883 4.79267 2.49981 4.59375 2.49981C4.39484 2.49981 4.20408 2.57883 4.06342 2.71948C3.92277 2.86013 3.84375 3.0509 3.84375 3.24981C3.84375 3.44872 3.92277 3.63949 4.06342 3.78014C4.20408 3.92079 4.39484 3.99981 4.59375 3.99981C4.79267 3.99981 4.98343 3.92079 5.12408 3.78014C5.26474 3.63949 5.34375 3.44872 5.34375 3.24981ZM12.0938 3.99981C12.2927 3.99981 12.4834 3.92079 12.6241 3.78014C12.7647 3.63949 12.8438 3.44872 12.8438 3.24981C12.8438 3.0509 12.7647 2.86013 12.6241 2.71948C12.4834 2.57883 12.2927 2.49981 12.0938 2.49981C11.8948 2.49981 11.7041 2.57883 11.5634 2.71948C11.4228 2.86013 11.3438 3.0509 11.3438 3.24981C11.3438 3.44872 11.4228 3.63949 11.5634 3.78014C11.7041 3.92079 11.8948 3.99981 12.0938 3.99981ZM9.09375 12.7498C9.09375 12.5509 9.01474 12.3601 8.87408 12.2195C8.73343 12.0788 8.54267 11.9998 8.34375 11.9998C8.14484 11.9998 7.95408 12.0788 7.81342 12.2195C7.67277 12.3601 7.59375 12.5509 7.59375 12.7498C7.59375 12.9487 7.67277 13.1395 7.81342 13.2801C7.95408 13.4208 8.14484 13.4998 8.34375 13.4998C8.54267 13.4998 8.73343 13.4208 8.87408 13.2801C9.01474 13.1395 9.09375 12.9487 9.09375 12.7498Z" fill="#8B949E"/>
</svg>
