<svg preserveAspectRatio="none" width="44" height="44" viewBox="0 0 44 44" fill="none" xmlns="http://www.w3.org/2000/svg">
<path vector-effect="non-scaling-stroke" d="M12.1528 19.6836H13.1138V20.6206H13.2078C13.3948 20.0056 14.1218 19.5726 14.9598 19.5726C15.1238 19.5726 15.3348 19.5836 15.4638 19.6016V20.6096C15.3818 20.5856 15.0178 20.5506 14.8188 20.5506C13.8578 20.5506 13.1608 21.1956 13.1608 22.0856V25.9996H12.1528V19.6836ZM40.2878 19.5726C41.6118 19.5726 42.5318 20.2286 42.6668 21.2656H41.6708C41.5358 20.7616 41.0438 20.4276 40.2818 20.4276C39.5318 20.4276 38.9458 20.8086 38.9458 21.3706C38.9458 21.8046 39.2978 22.0746 40.0418 22.2556L41.0148 22.4906C42.2038 22.7776 42.7778 23.2926 42.7778 24.2016C42.7778 25.3316 41.6828 26.1116 40.2468 26.1116C38.8408 26.1116 37.8738 25.4376 37.7628 24.3886H38.7998C38.9698 24.9216 39.4738 25.2616 40.2818 25.2616C41.1318 25.2616 41.7408 24.8576 41.7408 24.2776C41.7408 23.8436 41.4128 23.5506 40.7388 23.3866L39.6548 23.1226C38.4718 22.8356 37.9328 22.3266 37.9328 21.4126C37.9328 20.3636 38.9458 19.5726 40.2878 19.5726ZM33.6228 25.2036C32.4678 25.2036 31.7768 24.3186 31.7768 22.8416C31.7768 21.3706 32.4738 20.4806 33.6228 20.4806C34.7648 20.4806 35.4798 21.3946 35.4798 22.8416C35.4798 24.3006 34.7708 25.2036 33.6228 25.2036ZM35.4568 17.1756V20.6796H35.3688C35.0108 19.9886 34.2668 19.5726 33.3878 19.5726C31.7828 19.5726 30.7338 20.8616 30.7338 22.8416C30.7338 24.8286 31.7708 26.1116 33.3878 26.1116C34.2608 26.1116 35.0108 25.6956 35.4098 24.9926H35.5038V25.9996H36.4648V17.1756H35.4568ZM26.4558 25.2036C25.2608 25.2036 24.5868 24.3356 24.5868 22.8416C24.5868 21.3416 25.2608 20.4806 26.4558 20.4806C27.6518 20.4806 28.3248 21.3416 28.3248 22.8416C28.3248 24.3356 27.6518 25.2036 26.4558 25.2036ZM26.4558 19.5726C24.6568 19.5726 23.5438 20.8086 23.5438 22.8416C23.5438 24.8696 24.6568 26.1116 26.4558 26.1116C28.2548 26.1116 29.3678 24.8696 29.3678 22.8416C29.3678 20.8086 28.2548 19.5726 26.4558 19.5726ZM9.38476 25.9996H10.3928V19.6836H9.38476V25.9996ZM9.18576 17.7616C9.18576 17.3746 9.50276 17.0586 9.88876 17.0586C10.2758 17.0586 10.5918 17.3746 10.5918 17.7616C10.5918 18.1486 10.2758 18.4646 9.88876 18.4646C9.50276 18.4646 9.18576 18.1486 9.18576 17.7616ZM3.04876 22.6836L4.37276 18.9106H4.46576L5.79076 22.6836H3.04876ZM4.94076 17.5446H3.89776L0.780762 25.9996H1.88776L2.73776 23.5796H6.10076L6.95076 25.9996H8.05776L4.94076 17.5446ZM19.8088 22.0446H17.9448V18.4826H19.8088C21.0328 18.4826 21.7068 19.1216 21.7068 20.2816C21.7068 21.4006 21.0098 22.0446 19.8088 22.0446ZM20.0838 17.5446H16.8908V25.9996H17.9448V22.9826H20.0718C21.6598 22.9826 22.7908 21.8636 22.7908 20.2816C22.7908 18.6696 21.6838 17.5446 20.0838 17.5446Z" fill="black" fill-opacity="0.8"/>
</svg>
