<svg preserveAspectRatio="none" width="25" height="25" viewBox="0 0 25 25" fill="none" xmlns="http://www.w3.org/2000/svg">
<path vector-effect="non-scaling-stroke" d="M1.98438 12.8594C1.98438 6.78438 6.90938 1.85938 12.9844 1.85938C19.0594 1.85938 23.9844 6.78438 23.9844 12.8594C23.9844 18.9344 19.0594 23.8594 12.9844 23.8594C6.90938 23.8594 1.98438 18.9344 1.98438 12.8594ZM18.2644 10.1394C18.3968 9.99711 18.4689 9.80906 18.4655 9.61475C18.4622 9.42043 18.3836 9.23498 18.2464 9.09737C18.1088 8.96013 17.9233 8.88158 17.729 8.87822C17.5347 8.87486 17.3466 8.94697 17.2044 9.07938L11.2344 15.0494L8.76438 12.5794C8.62211 12.447 8.43406 12.3749 8.23974 12.3782C8.04543 12.3816 7.85998 12.4601 7.72237 12.5974C7.58513 12.735 7.50658 12.9204 7.50322 13.1147C7.49986 13.3091 7.57197 13.4971 7.70437 13.6394L10.7044 16.6394C10.845 16.7798 11.0356 16.8587 11.2344 16.8587C11.4331 16.8587 11.6237 16.7798 11.7644 16.6394L18.2644 10.1394Z" fill="#3FB950"/>
</svg>
