<svg preserveAspectRatio="none" width="17" height="16" viewBox="0 0 17 16" fill="none" xmlns="http://www.w3.org/2000/svg">
<path vector-effect="non-scaling-stroke" d="M1.93753 3.24996C1.93765 2.83749 2.05116 2.433 2.26563 2.08068C2.48011 1.72836 2.78731 1.44177 3.15365 1.25224C3.52 1.06271 3.93139 0.977534 4.34288 1.00601C4.75436 1.03449 5.1501 1.17553 5.48684 1.41372C5.82359 1.65191 6.08838 1.97808 6.25227 2.35659C6.41617 2.7351 6.47287 3.15138 6.41617 3.55993C6.35947 3.96848 6.19156 4.35359 5.93078 4.67316C5.67001 4.99273 5.32641 5.23447 4.93753 5.37196V10.628C5.43822 10.8049 5.86023 11.1531 6.12898 11.6111C6.39773 12.0692 6.4959 12.6074 6.40614 13.1308C6.31638 13.6542 6.04448 14.129 5.63849 14.4713C5.23249 14.8136 4.71856 15.0013 4.18753 15.0013C3.6565 15.0013 3.14256 14.8136 2.73657 14.4713C2.33058 14.129 2.05867 13.6542 1.96892 13.1308C1.87916 12.6074 1.97733 12.0692 2.24608 11.6111C2.51482 11.1531 2.93684 10.8049 3.43753 10.628V5.37196C2.99874 5.21683 2.61886 4.92944 2.35021 4.5494C2.08157 4.16936 1.93739 3.71537 1.93753 3.24996ZM7.61453 3.07296L10.0105 0.676963C10.0455 0.64191 10.0901 0.618027 10.1386 0.608344C10.1872 0.598661 10.2375 0.603612 10.2833 0.622571C10.329 0.64153 10.3681 0.673642 10.3955 0.714836C10.423 0.756031 10.4376 0.804453 10.4375 0.853963V2.49996H11.4375C12.1006 2.49996 12.7365 2.76336 13.2053 3.2322C13.6741 3.70104 13.9375 4.33692 13.9375 4.99996V10.628C14.4382 10.8049 14.8602 11.1531 15.129 11.6111C15.3977 12.0692 15.4959 12.6074 15.4061 13.1308C15.3164 13.6542 15.0445 14.129 14.6385 14.4713C14.2325 14.8136 13.7186 15.0013 13.1875 15.0013C12.6565 15.0013 12.1426 14.8136 11.7366 14.4713C11.3306 14.129 11.0587 13.6542 10.9689 13.1308C10.8792 12.6074 10.9773 12.0692 11.2461 11.6111C11.5148 11.1531 11.9368 10.8049 12.4375 10.628V4.99996C12.4375 4.73475 12.3322 4.48039 12.1446 4.29286C11.9571 4.10532 11.7027 3.99996 11.4375 3.99996H10.4375V5.64596C10.4376 5.69547 10.423 5.74389 10.3955 5.78509C10.3681 5.82628 10.329 5.8584 10.2833 5.87736C10.2375 5.89631 10.1872 5.90127 10.1386 5.89158C10.0901 5.8819 10.0455 5.85802 10.0105 5.82296L7.61453 3.42696C7.59125 3.40374 7.57278 3.37615 7.56017 3.34578C7.54757 3.31541 7.54108 3.28285 7.54108 3.24996C7.54108 3.21708 7.54757 3.18452 7.56017 3.15415C7.57278 3.12377 7.59125 3.09619 7.61453 3.07296ZM4.18753 2.49996C3.98862 2.49996 3.79785 2.57898 3.6572 2.71963C3.51655 2.86029 3.43753 3.05105 3.43753 3.24996C3.43753 3.44888 3.51655 3.63964 3.6572 3.78029C3.79785 3.92095 3.98862 3.99996 4.18753 3.99996C4.38644 3.99996 4.57721 3.92095 4.71786 3.78029C4.85851 3.63964 4.93753 3.44888 4.93753 3.24996C4.93753 3.05105 4.85851 2.86029 4.71786 2.71963C4.57721 2.57898 4.38644 2.49996 4.18753 2.49996ZM4.18753 12C3.98862 12 3.79785 12.079 3.6572 12.2196C3.51655 12.3603 3.43753 12.5511 3.43753 12.75C3.43753 12.9489 3.51655 13.1396 3.6572 13.2803C3.79785 13.4209 3.98862 13.5 4.18753 13.5C4.38644 13.5 4.57721 13.4209 4.71786 13.2803C4.85851 13.1396 4.93753 12.9489 4.93753 12.75C4.93753 12.5511 4.85851 12.3603 4.71786 12.2196C4.57721 12.079 4.38644 12 4.18753 12ZM12.4375 12.75C12.4375 12.9489 12.5165 13.1396 12.6572 13.2803C12.7979 13.4209 12.9886 13.5 13.1875 13.5C13.3864 13.5 13.5772 13.4209 13.7179 13.2803C13.8585 13.1396 13.9375 12.9489 13.9375 12.75C13.9375 12.5511 13.8585 12.3603 13.7179 12.2196C13.5772 12.079 13.3864 12 13.1875 12C12.9886 12 12.7979 12.079 12.6572 12.2196C12.5165 12.3603 12.4375 12.5511 12.4375 12.75Z" fill="#8B949E"/>
</svg>
