<svg preserveAspectRatio="none" width="31" height="44" viewBox="0 0 31 44" fill="none" xmlns="http://www.w3.org/2000/svg">
<path vector-effect="non-scaling-stroke" d="M27.4742 20.4627C28.4762 20.4627 29.1442 21.2007 29.1672 22.3197H25.6872C25.7632 21.2007 26.4662 20.4627 27.4742 20.4627ZM30.2282 23.1347V22.7477C30.2282 20.7847 29.1912 19.5717 27.4862 19.5717C25.7512 19.5717 24.6382 20.8607 24.6382 22.8477C24.6382 24.8457 25.7342 26.1107 27.4862 26.1107C28.8692 26.1107 29.8532 25.4427 30.1462 24.3647H29.1382C28.8742 24.9217 28.3242 25.2207 27.5092 25.2207C26.4372 25.2207 25.7402 24.4297 25.6872 23.1817V23.1347H30.2282ZM20.6812 19.6837H21.6412V20.6207H21.7352C21.9232 20.0057 22.6492 19.5717 23.4872 19.5717C23.6512 19.5717 23.8622 19.5837 23.9912 19.6017V20.6087C23.9092 20.5857 23.5462 20.5507 23.3472 20.5507C22.3862 20.5507 21.6882 21.6487 21.6882 22.0857V25.9997H20.6812V19.6837ZM16.4112 25.2027C15.2162 25.2027 14.5422 24.3357 14.5422 22.8417C14.5422 21.3417 15.2162 20.4807 16.4112 20.4807C17.6072 20.4807 18.2812 21.3417 18.2812 22.8417C18.2812 24.3357 17.6072 25.2027 16.4112 25.2027ZM16.4112 19.5717C14.6132 19.5717 13.4992 20.8087 13.4992 22.8417C13.4992 24.8687 14.6132 26.1107 16.4112 26.1107C18.2102 26.1107 19.3242 24.8687 19.3242 22.8417C19.3242 20.8087 18.2102 19.5717 16.4112 19.5717ZM10.9332 18.0967V19.7317H12.3402V20.5747H10.9332V24.1497C10.9332 24.8937 11.2152 25.2097 11.8712 25.2097C12.0532 25.2097 12.1522 25.2037 12.3402 25.1867V26.0357C12.1412 26.0707 11.9472 26.0947 11.7482 26.0947C10.4472 26.0947 9.92616 25.6137 9.92616 24.4067V20.5747H8.90616V19.7317H9.92616V18.0967H10.9332ZM2.83016 23.7907C2.95916 24.6757 3.80316 25.2377 5.00416 25.2377C6.14116 25.2377 6.97916 24.6227 6.97916 23.7847C6.97916 23.0647 6.45216 22.6077 5.28616 22.3147L4.20216 22.0327C2.67216 21.6467 2.01016 20.9547 2.01016 19.7537C2.01016 18.3177 3.21116 17.3457 4.99816 17.3457C6.63316 17.3457 7.85216 18.3177 7.94016 19.6837H6.87916C6.73316 18.8167 6.01816 18.3007 4.96316 18.3007C3.83816 18.3007 3.09416 18.8627 3.09416 19.7187C3.09416 20.3807 3.55716 20.7617 4.72316 21.0607L5.60816 21.2947C7.36016 21.7337 8.06316 22.4137 8.06316 23.6557C8.06316 25.2087 6.83816 26.1987 4.90516 26.1987C3.11216 26.1987 1.87516 25.2497 1.76416 23.7907H2.83016Z" fill="black" fill-opacity="0.8"/>
</svg>
