<svg preserveAspectRatio="none" width="24" height="25" viewBox="0 0 24 25" fill="none" xmlns="http://www.w3.org/2000/svg">
<path vector-effect="non-scaling-stroke" d="M1.5 4.625C1.5 4.32663 1.61853 4.04048 1.8295 3.8295C2.04048 3.61853 2.32663 3.5 2.625 3.5H21.375C21.6734 3.5 21.9595 3.61853 22.1705 3.8295C22.3815 4.04048 22.5 4.32663 22.5 4.625C22.5 4.92337 22.3815 5.20952 22.1705 5.4205C21.9595 5.63147 21.6734 5.75 21.375 5.75H2.625C2.32663 5.75 2.04048 5.63147 1.8295 5.4205C1.61853 5.20952 1.5 4.92337 1.5 4.625ZM1.5 12.125C1.5 11.8266 1.61853 11.5405 1.8295 11.3295C2.04048 11.1185 2.32663 11 2.625 11H21.375C21.6734 11 21.9595 11.1185 22.1705 11.3295C22.3815 11.5405 22.5 11.8266 22.5 12.125C22.5 12.4234 22.3815 12.7095 22.1705 12.9205C21.9595 13.1315 21.6734 13.25 21.375 13.25H2.625C2.32663 13.25 2.04048 13.1315 1.8295 12.9205C1.61853 12.7095 1.5 12.4234 1.5 12.125ZM2.625 18.5H21.375C21.6734 18.5 21.9595 18.6185 22.1705 18.8295C22.3815 19.0405 22.5 19.3266 22.5 19.625C22.5 19.9234 22.3815 20.2095 22.1705 20.4205C21.9595 20.6315 21.6734 20.75 21.375 20.75H2.625C2.32663 20.75 2.04048 20.6315 1.8295 20.4205C1.61853 20.2095 1.5 19.9234 1.5 19.625C1.5 19.3266 1.61853 19.0405 1.8295 18.8295C2.04048 18.6185 2.32663 18.5 2.625 18.5Z" fill="#8B949E"/>
</svg>
