<svg preserveAspectRatio="none" width="78" height="44" viewBox="0 0 78 44" fill="none" xmlns="http://www.w3.org/2000/svg">
<path vector-effect="non-scaling-stroke" d="M0.25 17.4863H5.4883V18.4355H1.3047V21.1484H5.2715V22.0859H1.3047V24.9921H5.4883V25.9413H0.25V17.4863ZM7.1494 19.625H8.1689V20.5742H8.2627C8.5791 19.9062 9.1709 19.5137 10.1025 19.5137C11.5205 19.5137 12.3115 20.3516 12.3115 21.8516V25.9414H11.292V22.0976C11.292 20.9609 10.8232 20.416 9.8154 20.416C8.8076 20.416 8.1689 21.0957 8.1689 22.2031V25.9414H7.1494V19.625ZM14.4297 24.3008V20.4688H13.4336V19.625H14.4297V17.9902H15.4844V19.625H16.8672V20.4688H15.4844V24.043C15.4844 24.7871 15.7422 25.086 16.3985 25.086C16.5801 25.086 16.6797 25.0801 16.8673 25.0626V25.9298C16.6681 25.965 16.4747 25.9884 16.2755 25.9884C14.9746 25.9883 14.4297 25.5078 14.4297 24.3008ZM17.8662 22.8066V22.8007C17.8662 20.8495 18.9795 19.5136 20.6963 19.5136C22.4131 19.5136 23.4561 20.7909 23.4561 22.6777V23.0761H18.9092C18.9385 24.3827 19.6592 25.1445 20.7842 25.1445C21.6397 25.1445 22.167 24.7402 22.3369 24.3593L22.3603 24.3066H23.3798L23.3681 24.3535C23.1513 25.209 22.249 26.0527 20.7607 26.0527C18.9561 26.0527 17.8662 24.7871 17.8662 22.8066ZM18.9268 22.2617H22.419C22.3135 21.0137 21.6221 20.4219 20.6905 20.4219C19.7529 20.4219 19.0381 21.0605 18.9268 22.2617ZM24.918 19.625H25.9375V20.5625H26.0313C26.2715 19.9004 26.8633 19.5137 27.7188 19.5137C27.9122 19.5137 28.129 19.5371 28.2286 19.5547V20.5449C28.0177 20.5097 27.8243 20.4863 27.6016 20.4863C26.6289 20.4863 25.9375 21.1015 25.9375 22.0273V25.9414H24.918V19.625ZM29.8838 24.3008V20.4688H28.8877V19.625H29.8838V17.9902H30.9385V19.625H32.3213V20.4688H30.9385V24.043C30.9385 24.7871 31.1963 25.086 31.8526 25.086C32.0342 25.086 32.1338 25.0801 32.3214 25.0626V25.9298C32.1222 25.965 31.9288 25.9884 31.7296 25.9884C30.4287 25.9883 29.8838 25.5078 29.8838 24.3008ZM33.3496 24.1777V24.166C33.3496 23.041 34.1816 22.3906 35.6523 22.3027L37.4628 22.1914V21.6172C37.4628 20.8379 36.9882 20.416 36.0448 20.416C35.2889 20.416 34.7909 20.6972 34.6268 21.1894L34.6209 21.207H33.6014L33.6073 21.1718C33.7714 20.1816 34.7323 19.5136 36.08 19.5136C37.621 19.5136 38.4823 20.3046 38.4823 21.6171V25.9413H37.4628V25.0097H37.369C36.9706 25.6835 36.3085 26.0527 35.4588 26.0527C34.2578 26.0527 33.3496 25.3262 33.3496 24.1777ZM35.6699 25.168C36.707 25.168 37.4629 24.4883 37.4629 23.586V23.0118L35.7754 23.1173C34.8145 23.1759 34.3926 23.5157 34.3926 24.1427V24.1544C34.3926 24.793 34.9375 25.168 35.6699 25.168ZM40.0625 17.7031C40.0625 17.3164 40.3789 17 40.7656 17C41.1523 17 41.4687 17.3164 41.4687 17.7031C41.4687 18.0898 41.1523 18.4062 40.7656 18.4062C40.3789 18.4062 40.0625 18.0898 40.0625 17.7031ZM40.25 19.625H41.2695V25.9414H40.25V19.625ZM43.0713 19.625H44.0908V20.5742H44.1846C44.501 19.9062 45.0928 19.5137 46.0244 19.5137C47.4424 19.5137 48.2334 20.3516 48.2334 21.8516V25.9414H47.2139V22.0976C47.2139 20.9609 46.7451 20.416 45.7373 20.416C44.7295 20.416 44.0908 21.0957 44.0908 22.2031V25.9414H43.0713V19.625ZM49.9531 19.625H50.9726V20.5859H51.0664C51.3476 19.9062 51.9453 19.5136 52.7715 19.5136C53.627 19.5136 54.2246 19.9648 54.5176 20.621H54.6114C54.9512 19.953 55.6719 19.5136 56.545 19.5136C57.8341 19.5136 58.5548 20.2519 58.5548 21.5761V25.9413H57.5353V21.8104C57.5353 20.8788 57.1076 20.4159 56.2169 20.4159C55.338 20.4159 54.7579 21.078 54.7579 21.8807V25.9412H53.7384V21.6521C53.7384 20.9021 53.2228 20.4158 52.4259 20.4158C51.5997 20.4158 50.9728 21.1365 50.9728 22.0271V25.9412H49.9533L49.9531 19.625ZM59.958 22.8066V22.8007C59.958 20.8495 61.0713 19.5136 62.7881 19.5136C64.5049 19.5136 65.5479 20.7909 65.5479 22.6777V23.0761H61.001C61.0303 24.3827 61.751 25.1445 62.876 25.1445C63.7315 25.1445 64.2588 24.7402 64.4287 24.3593L64.4521 24.3066H65.4716L65.46 24.3535C65.2432 25.209 64.3409 26.0527 62.8526 26.0527C61.0479 26.0527 59.958 24.7871 59.958 22.8066ZM61.0186 22.2617H64.5108C64.4053 21.0137 63.7139 20.4219 62.7823 20.4219C61.8447 20.4219 61.1299 21.0605 61.0186 22.2617ZM67.0098 19.625H68.0293V20.5742H68.1231C68.4395 19.9062 69.0313 19.5137 69.9629 19.5137C71.3809 19.5137 72.1719 20.3516 72.1719 21.8516V25.9414H71.1524V22.0976C71.1524 20.9609 70.6836 20.416 69.6758 20.416C68.668 20.416 68.0293 21.0957 68.0293 22.2031V25.9414H67.0098V19.625ZM74.29 24.3008V20.4688H73.2939V19.625H74.29V17.9902H75.3447V19.625H76.7275V20.4688H75.3447V24.043C75.3447 24.7871 75.6025 25.086 76.2588 25.086C76.4404 25.086 76.54 25.0801 76.7276 25.0626V25.9298C76.5284 25.965 76.335 25.9884 76.1358 25.9884C74.835 25.9883 74.29 25.5078 74.29 24.3008Z" fill="black" fill-opacity="0.8"/>
</svg>
