<svg preserveAspectRatio="none" width="36" height="44" viewBox="0 0 36 44" fill="none" xmlns="http://www.w3.org/2000/svg">
<path vector-effect="non-scaling-stroke" d="M29.5132 17.1758H30.5212V20.6798H30.6152C30.9312 19.9828 31.5932 19.5718 32.5602 19.5718C33.8962 19.5718 34.7402 20.4278 34.7402 21.9098V25.9998H33.7322V22.1558C33.7322 21.0368 33.2282 20.4808 32.2732 20.4808C31.1422 20.4808 30.5212 21.1958 30.5212 22.2618V25.9998H29.5132V17.1758ZM27.0932 21.6168C26.9292 20.9898 26.3722 20.4808 25.4642 20.4808C24.3272 20.4808 23.6122 21.3888 23.6122 22.8188C23.6122 24.2778 24.3392 25.2028 25.4642 25.2028C26.3132 25.2028 26.9052 24.8108 27.0932 24.0958H28.1122C27.9302 25.2558 26.9872 26.1118 25.4702 26.1118C23.7002 26.1118 22.5692 24.8278 22.5692 22.8188C22.5692 20.8498 23.6942 19.5718 25.4642 19.5718C26.9992 19.5718 27.9362 20.4918 28.1122 21.6168H27.0932ZM20.5602 18.0488V19.6838H21.9672V20.5278H20.5602V24.1018C20.5602 24.8458 20.8422 25.1618 21.4982 25.1618C21.6802 25.1618 21.7792 25.1558 21.9672 25.1388V25.9888C21.7672 26.0238 21.5742 26.0468 21.3752 26.0468C20.0742 26.0468 19.5532 25.5668 19.5532 24.3598V20.5278H18.5332V19.6838H19.5532V18.0488H20.5602ZM16.3602 23.6448V23.0648L14.6612 23.1758C13.7002 23.2398 13.2782 23.5738 13.2782 24.2068C13.2782 24.8518 13.8232 25.2268 14.5552 25.2268C15.5932 25.2268 16.3602 24.5468 16.3602 23.6448ZM12.2352 24.2308C12.2352 23.0998 13.0672 22.4488 14.5382 22.3618L16.3602 22.2498V21.6758C16.3602 20.8968 15.8742 20.4688 14.9302 20.4688C14.1752 20.4688 13.6472 20.7558 13.5072 21.2538H12.4872C12.6222 20.2398 13.6182 19.5718 14.9662 19.5718C16.5072 19.5718 17.3682 20.3638 17.3682 21.6758V25.9998H16.4072V25.0688H16.3132C15.9032 25.7418 15.2122 26.1118 14.3682 26.1118C13.1432 26.1118 12.2352 25.3848 12.2352 24.2308ZM4.5512 25.9998H3.5552L1.2522 17.5448H2.3532L4.0352 24.4178H4.1052L5.9982 17.5448H7.0642L8.9572 24.4178H9.0272L10.7092 17.5448H11.8102L9.5082 25.9998H8.5122L6.5662 19.3258H6.4962L4.5512 25.9998Z" fill="black" fill-opacity="0.8"/>
</svg>
