<svg preserveAspectRatio="none" width="24" height="24" viewBox="0 0 24 24" fill="none" xmlns="http://www.w3.org/2000/svg">
<path vector-effect="non-scaling-stroke" d="M15.2803 5.21983C15.4208 5.36045 15.4997 5.55108 15.4997 5.74983C15.4997 5.94858 15.4208 6.1392 15.2803 6.27983L9.56032 11.9998L15.2803 17.7198C15.379 17.8115 15.4512 17.9281 15.4892 18.0574C15.5272 18.1866 15.5297 18.3237 15.4963 18.4542C15.4629 18.5848 15.395 18.7039 15.2996 18.799C15.2042 18.8941 15.0849 18.9618 14.9543 18.9948C14.8239 19.0282 14.687 19.0259 14.5578 18.9881C14.4286 18.9502 14.3121 18.8783 14.2203 18.7798L7.97032 12.5298C7.82987 12.3892 7.75098 12.1986 7.75098 11.9998C7.75098 11.8011 7.82987 11.6105 7.97032 11.4698L14.2203 5.21983C14.3609 5.07938 14.5516 5.00049 14.7503 5.00049C14.9491 5.00049 15.1397 5.07938 15.2803 5.21983Z" fill="#8B949E"/>
</svg>
