<svg preserveAspectRatio="none" width="21" height="21" viewBox="0 0 21 21" fill="none" xmlns="http://www.w3.org/2000/svg">
<path vector-effect="non-scaling-stroke" d="M10.0067 4.52458C9.64055 4.15847 9.04695 4.15847 8.68083 4.52458C8.31472 4.8907 8.31472 5.4843 8.68083 5.85041L10.0067 4.52458ZM14.6562 10.5L15.3191 11.1629C15.6852 10.7968 15.6852 10.2032 15.3191 9.83708L14.6562 10.5ZM8.68083 15.1496C8.31472 15.5157 8.31472 16.1092 8.68083 16.4754C9.04695 16.8415 9.64055 16.8415 10.0067 16.4754L8.68083 15.1496ZM8.68083 5.85041L13.9934 11.1629L15.3191 9.83708L10.0067 4.52458L8.68083 5.85041ZM13.9934 9.83708L8.68083 15.1496L10.0067 16.4754L15.3191 11.1629L13.9934 9.83708Z" fill="white"/>
<path vector-effect="non-scaling-stroke" d="M3.09375 10.5H14.6562Z" fill="white"/>
<path vector-effect="non-scaling-stroke" d="M3.09375 10.5H14.6562" stroke="white" stroke-width="1.875" stroke-linecap="round" stroke-dasharray="12.5 12.5"/>
</svg>
