<svg preserveAspectRatio="none" width="17" height="4" viewBox="0 0 17 4" fill="none" xmlns="http://www.w3.org/2000/svg">
<path vector-effect="non-scaling-stroke" d="M8.54883 15.2295L8.89383 15.8955C8.78722 15.9507 8.6689 15.9796 8.54883 15.9796C8.42876 15.9796 8.31044 15.9507 8.20383 15.8955L8.19583 15.8915L8.17783 15.8815C8.07311 15.8274 7.96974 15.7707 7.86783 15.7115C6.64902 15.0178 5.49914 14.2095 4.43383 13.2975C2.59383 11.7105 0.548828 9.32949 0.548828 6.47949C0.548828 3.81549 2.63483 1.97949 4.79883 1.97949C6.34583 1.97949 7.70183 2.78149 8.54883 3.99949C9.39583 2.78149 10.7518 1.97949 12.2988 1.97949C14.4628 1.97949 16.5488 3.81549 16.5488 6.47949C16.5488 9.32949 14.5038 11.7105 12.6638 13.2975C11.5082 14.2855 10.2535 15.1514 8.91983 15.8815L8.90183 15.8915L8.89583 15.8945H8.89383L8.54883 15.2295ZM4.79883 3.47949C3.46283 3.47949 2.04883 4.64349 2.04883 6.47949C2.04883 8.62949 3.62883 10.6235 5.41383 12.1615C6.38771 12.9945 7.43727 13.7347 8.54883 14.3725C9.66039 13.7347 10.7099 12.9945 11.6838 12.1615C13.4688 10.6235 15.0488 8.62949 15.0488 6.47949C15.0488 4.64349 13.6348 3.47949 12.2988 3.47949C10.9258 3.47949 9.68983 4.46549 9.26983 5.93549C9.2256 6.09267 9.13123 6.23108 9.00107 6.32967C8.87091 6.42826 8.71211 6.48161 8.54883 6.48161C8.38555 6.48161 8.22674 6.42826 8.09659 6.32967C7.96643 6.23108 7.87205 6.09267 7.82783 5.93549C7.40783 4.46549 6.17183 3.47949 4.79883 3.47949Z" fill="#C9D1D9"/>
</svg>
