<svg preserveAspectRatio="none" width="319" height="43" viewBox="0 0 319 43" fill="none" xmlns="http://www.w3.org/2000/svg">
<g clip-path="url(#clip0_1_2669)">
<path vector-effect="non-scaling-stroke" d="M4.73068 0.91626H315.176C317.241 0.91626 318.915 2.59037 318.915 4.6555V39.2551C318.915 41.3203 317.241 42.9944 315.176 42.9944H4.73068C2.66556 42.9944 0.991425 41.3203 0.991425 39.2551V4.6555C0.991425 2.59037 2.66556 0.91626 4.73068 0.91626Z" fill="#28A745"/>
<path vector-effect="non-scaling-stroke" d="M97.8883 28.9334V17.0743H95.4057L91.8392 25.8762H91.6913L88.1245 17.0743H85.6426V28.9334H87.615V20.526H87.73L91.0091 28.5636H92.5213L95.8003 20.526H95.9153V28.9334H97.8883ZM105.955 26.4761C105.659 27.1501 104.96 27.5281 103.949 27.5281C102.61 27.5281 101.747 26.5747 101.698 25.0544V24.9475H107.977V24.2983C107.977 21.4793 106.44 19.7782 103.876 19.7782C101.27 19.7782 99.6509 21.5944 99.6509 24.479C99.6509 27.3555 101.245 29.1142 103.892 29.1142C106.012 29.1142 107.516 28.0951 107.886 26.4761H105.955ZM103.867 21.3643C105.092 21.3643 105.897 22.2272 105.938 23.5915H101.706C101.796 22.2436 102.651 21.3643 103.867 21.3643ZM109.518 28.9334H111.556V23.7147C111.556 22.4491 112.476 21.6273 113.799 21.6273C114.145 21.6273 114.687 21.6848 114.843 21.7424V19.8849C114.654 19.8357 114.293 19.8027 113.997 19.8027C112.838 19.8027 111.869 20.4603 111.622 21.3479H111.482V19.9507H109.518V28.9334ZM119.647 32.3522C122.269 32.3522 123.929 31.0456 123.929 28.9827V19.9507H121.965V21.3889H121.825C121.332 20.4109 120.264 19.8027 119.04 19.8027C116.747 19.8027 115.325 21.5944 115.325 24.3476C115.325 27.0432 116.738 28.8019 119.007 28.8019C120.256 28.8019 121.233 28.276 121.751 27.3062H121.892V29.0156C121.892 30.158 121.078 30.8319 119.68 30.8319C118.563 30.8319 117.84 30.4292 117.708 29.7963H115.662C115.826 31.3414 117.338 32.3522 119.647 32.3522ZM119.647 27.1829C118.226 27.1829 117.42 26.0816 117.42 24.3393C117.42 22.6052 118.226 21.504 119.647 21.504C121.061 21.504 121.924 22.6052 121.924 24.3476C121.924 26.0816 121.07 27.1829 119.647 27.1829ZM131.791 26.4761C131.495 27.1501 130.796 27.5281 129.785 27.5281C128.445 27.5281 127.583 26.5747 127.534 25.0544V24.9475H133.813V24.2983C133.813 21.4793 132.276 19.7782 129.712 19.7782C127.106 19.7782 125.487 21.5944 125.487 24.479C125.487 27.3555 127.081 29.1142 129.728 29.1142C131.848 29.1142 133.352 28.0951 133.722 26.4761H131.791ZM129.703 21.3643C130.928 21.3643 131.733 22.2272 131.774 23.5915H127.542C127.632 22.2436 128.487 21.3643 129.703 21.3643ZM139.549 17.0743V28.9334H141.67V25.0132H144.243C146.642 25.0132 148.319 23.4106 148.319 21.0685C148.319 18.6851 146.7 17.0743 144.333 17.0743H139.549ZM141.67 18.8084H143.774C145.303 18.8084 146.166 19.5973 146.166 21.0685C146.166 22.4985 145.278 23.3038 143.766 23.3038H141.67V18.8084ZM157.766 19.9507H155.728V25.1858C155.728 26.5419 155.005 27.3637 153.682 27.3637C152.466 27.3637 151.899 26.6898 151.899 25.2926V19.9507H149.86V25.7858C149.86 27.8897 151.011 29.1142 152.975 29.1142C154.348 29.1142 155.227 28.5307 155.663 27.5034H155.802V28.9334H157.766V19.9507ZM159.842 28.9334H161.88V16.4744H159.842V28.9334ZM164.038 28.9334H166.076V16.4744H164.038V28.9334ZM174.468 24.4708H176.818L179.144 28.9334H181.569L178.98 24.1503C180.393 23.6407 181.215 22.3341 181.215 20.7644C181.215 18.4961 179.654 17.0743 177.164 17.0743H172.348V28.9334H174.468V24.4708ZM174.468 18.7919H176.868C178.215 18.7919 179.037 19.5563 179.037 20.8054C179.037 22.0793 178.265 22.8107 176.918 22.8107H174.468V18.7919ZM188.65 26.4761C188.354 27.1501 187.655 27.5281 186.644 27.5281C185.304 27.5281 184.442 26.5747 184.393 25.0544V24.9475H190.672V24.2983C190.672 21.4793 189.134 19.7782 186.57 19.7782C183.965 19.7782 182.346 21.5944 182.346 24.479C182.346 27.3555 183.94 29.1142 186.586 29.1142C188.707 29.1142 190.211 28.0951 190.581 26.4761H188.65ZM186.562 21.3643C187.787 21.3643 188.592 22.2272 188.633 23.5915H184.401C184.491 22.2436 185.345 21.3643 186.562 21.3643ZM195.475 19.8027C193.207 19.8027 191.769 21.6026 191.769 24.438C191.769 27.2898 193.174 29.0813 195.442 29.0813C196.717 29.0813 197.661 28.5389 198.179 27.5692H198.319V31.9167H200.374V19.9507H198.392V21.4383H198.253C197.76 20.4438 196.692 19.8027 195.475 19.8027ZM196.084 27.3883C194.687 27.3883 193.856 26.2871 193.856 24.4462C193.856 22.6052 194.694 21.504 196.092 21.504C197.481 21.504 198.36 22.6299 198.36 24.4462C198.36 26.2706 197.489 27.3883 196.084 27.3883ZM210.183 19.9507H208.144V25.1858C208.144 26.5419 207.421 27.3637 206.098 27.3637C204.882 27.3637 204.315 26.6898 204.315 25.2926V19.9507H202.277V25.7858C202.277 27.8897 203.427 29.1142 205.391 29.1142C206.764 29.1142 207.643 28.5307 208.079 27.5034H208.218V28.9334H210.183V19.9507ZM218.035 26.4761C217.74 27.1501 217.041 27.5281 216.031 27.5281C214.691 27.5281 213.828 26.5747 213.779 25.0544V24.9475H220.058V24.2983C220.058 21.4793 218.521 19.7782 215.957 19.7782C213.352 19.7782 211.732 21.5944 211.732 24.479C211.732 27.3555 213.326 29.1142 215.973 29.1142C218.093 29.1142 219.597 28.0951 219.967 26.4761H218.035ZM215.948 21.3643C217.173 21.3643 217.978 22.2272 218.02 23.5915H213.786C213.877 22.2436 214.732 21.3643 215.948 21.3643ZM221.393 22.5148C221.393 23.8626 222.207 24.6516 223.933 25.0461L225.527 25.416C226.382 25.6132 226.768 25.9419 226.768 26.4515C226.768 27.1336 226.054 27.6021 225.026 27.6021C224.007 27.6021 223.374 27.1911 223.176 26.5254H221.163C221.319 28.1444 222.733 29.1142 224.976 29.1142C227.221 29.1142 228.806 27.9719 228.806 26.2543C228.806 24.931 228.009 24.1996 226.292 23.8051L224.705 23.4518C223.801 23.2381 223.374 22.9176 223.374 22.408C223.374 21.7424 224.072 21.2903 225.002 21.2903C225.955 21.2903 226.555 21.7012 226.703 22.3341H228.618C228.47 20.715 227.13 19.7782 224.993 19.7782C222.873 19.7782 221.393 20.9041 221.393 22.5148ZM230.948 17.7482V20.0083H229.526V21.5944H230.948V26.5501C230.948 28.2842 231.77 28.9745 233.832 28.9745C234.227 28.9745 234.605 28.9416 234.901 28.8841V27.3226C234.654 27.3473 234.498 27.3637 234.21 27.3637C233.356 27.3637 232.978 26.961 232.978 26.0652V21.5944H234.901V20.0083H232.978V17.7482H230.948Z" fill="white"/>
<path vector-effect="non-scaling-stroke" d="M4.73007 1.15002H315.175C317.111 1.15002 318.681 2.71948 318.681 4.6555V39.2551C318.681 41.1912 317.111 42.7606 315.175 42.7606H4.73007C2.79407 42.7606 1.22458 41.1912 1.22458 39.2551V4.6555C1.22458 2.71948 2.79407 1.15002 4.73007 1.15002Z" stroke="#41434E" stroke-opacity="0.25" stroke-width="0.467535"/>
</g>
<defs>
<clipPath id="clip0_1_2669">
<rect vector-effect="non-scaling-stroke" width="317.924" height="42.0781" fill="white" transform="translate(0.991211 0.916016)"/>
</clipPath>
</defs>
</svg>
