<svg preserveAspectRatio="none" width="17" height="16" viewBox="0 0 17 16" fill="none" xmlns="http://www.w3.org/2000/svg">
<path vector-effect="non-scaling-stroke" d="M8.0147 3.21967C7.72181 2.92678 7.24693 2.92678 6.95404 3.21967C6.66115 3.51256 6.66115 3.98744 6.95404 4.28033L8.0147 3.21967ZM11.7344 8L12.2647 8.53033C12.5576 8.23744 12.5576 7.76256 12.2647 7.46967L11.7344 8ZM6.95404 11.7197C6.66115 12.0126 6.66115 12.4874 6.95404 12.7803C7.24693 13.0732 7.72181 13.0732 8.0147 12.7803L6.95404 11.7197ZM6.95404 4.28033L11.2041 8.53033L12.2647 7.46967L8.0147 3.21967L6.95404 4.28033ZM11.2041 7.46967L6.95404 11.7197L8.0147 12.7803L12.2647 8.53033L11.2041 7.46967Z" fill="white"/>
<path vector-effect="non-scaling-stroke" d="M2.48438 8H11.7344Z" fill="white"/>
<path vector-effect="non-scaling-stroke" d="M2.48438 8H11.7344" stroke="white" stroke-width="1.5" stroke-linecap="round" stroke-dasharray="10 10"/>
</svg>
