<svg preserveAspectRatio="none" width="17" height="16" viewBox="0 0 17 16" fill="none" xmlns="http://www.w3.org/2000/svg">
<path vector-effect="non-scaling-stroke" d="M8.9375 9.5C9.33532 9.5 9.71686 9.34196 9.99816 9.06066C10.2795 8.77936 10.4375 8.39782 10.4375 8C10.4375 7.60218 10.2795 7.22064 9.99816 6.93934C9.71686 6.65804 9.33532 6.5 8.9375 6.5C8.53968 6.5 8.15814 6.65804 7.87684 6.93934C7.59554 7.22064 7.4375 7.60218 7.4375 8C7.4375 8.39782 7.59554 8.77936 7.87684 9.06066C8.15814 9.34196 8.53968 9.5 8.9375 9.5Z" fill="#8B949E"/>
<path vector-effect="non-scaling-stroke" d="M8.9375 0C11.0592 0 13.0941 0.842855 14.5944 2.34315C16.0946 3.84344 16.9375 5.87827 16.9375 8C16.9375 10.1217 16.0946 12.1566 14.5944 13.6569C13.0941 15.1571 11.0592 16 8.9375 16C6.81577 16 4.78094 15.1571 3.28065 13.6569C1.78035 12.1566 0.9375 10.1217 0.9375 8C0.9375 5.87827 1.78035 3.84344 3.28065 2.34315C4.78094 0.842855 6.81577 0 8.9375 0ZM2.4375 8C2.4375 9.72391 3.12232 11.3772 4.34131 12.5962C5.56029 13.8152 7.21359 14.5 8.9375 14.5C10.6614 14.5 12.3147 13.8152 13.5337 12.5962C14.7527 11.3772 15.4375 9.72391 15.4375 8C15.4375 6.27609 14.7527 4.62279 13.5337 3.40381C12.3147 2.18482 10.6614 1.5 8.9375 1.5C7.21359 1.5 5.56029 2.18482 4.34131 3.40381C3.12232 4.62279 2.4375 6.27609 2.4375 8Z" fill="#8B949E"/>
</svg>
