<svg preserveAspectRatio="none" width="18" height="17" viewBox="0 0 18 17" fill="none" xmlns="http://www.w3.org/2000/svg">
<path vector-effect="non-scaling-stroke" d="M10.5 0.62L11.1 0.753333L11.5866 0.926667L11.98 1.12667L12.28 1.34L12.5066 1.56667L12.6733 1.79333L12.78 2.01333L12.8466 2.21333L12.8733 2.38667L12.8866 2.52L12.88 2.60667V6.16667L12.8466 6.58667L12.76 6.95333L12.62 7.26L12.4466 7.51333L12.2466 7.72L12.0266 7.88667L11.7933 8.01333L11.56 8.10667L11.34 8.17333L11.14 8.22L10.9666 8.24667L10.8266 8.26H6.84663L6.38663 8.29333L5.99329 8.38667L5.65996 8.53333L5.38663 8.71333L5.16663 8.92667L4.98663 9.16L4.85329 9.4L4.75329 9.64667L4.68663 9.88L4.63996 10.0933L4.61329 10.2733L4.59996 10.4133V12.4533H3.11329L2.97329 12.4333L2.78663 12.3867L2.57329 12.3067L2.33996 12.1867L2.09996 12.0133L1.85996 11.7733L1.62663 11.4667L1.41329 11.0733L1.22663 10.5867L1.08663 10L0.993294 9.3L0.959961 8.48L0.999961 7.66667L1.10663 6.97333L1.26663 6.39333L1.47996 5.92L1.71996 5.54L1.98663 5.24667L2.26663 5.02667L2.54663 4.86667L2.81329 4.76L3.05329 4.69333L3.26663 4.66L3.42663 4.65333H3.53329L3.57329 4.66H9.0133V4.10667H5.11996L5.11329 2.27333L5.09996 2.02667L5.13329 1.8L5.20663 1.59333L5.31996 1.40667L5.48663 1.23333L5.69329 1.08L5.94663 0.946667L6.23996 0.826667L6.57996 0.726667L6.96663 0.646667L7.39329 0.58L7.86663 0.54L8.37996 0.513333L8.93996 0.5L9.78663 0.533333L10.5 0.62ZM6.29996 1.94L6.14663 2.16L6.09329 2.43333L6.14663 2.70667L6.29996 2.93333L6.51996 3.08L6.79329 3.14L7.06663 3.08L7.28663 2.93333L7.43996 2.70667L7.49329 2.43333L7.43996 2.16L7.28663 1.94L7.06663 1.79333L6.79329 1.73333L6.51996 1.79333L6.29996 1.94ZM15.0266 4.57333L15.2133 4.61333L15.4266 4.69333L15.66 4.81333L15.9 4.99333L16.14 5.22667L16.3733 5.54L16.5866 5.93333L16.7733 6.42L16.9133 7.00667L17.0066 7.7L17.04 8.52L17 9.34L16.8933 10.0333L16.7333 10.6067L16.52 11.08L16.28 11.46L16.0133 11.76L15.7333 11.98L15.4533 12.14L15.1866 12.2467L14.9466 12.3067L14.7333 12.34L14.5733 12.3533L14.4666 12.3467H8.98663V12.8933H12.88L12.8866 14.7333L12.9 14.9733L12.8666 15.2L12.7933 15.4067L12.68 15.6L12.5133 15.7667L12.3066 15.9267L12.0533 16.06L11.76 16.1733L11.42 16.2733L11.0333 16.36L10.6066 16.42L10.1333 16.4667L9.61996 16.4933L9.05996 16.5L8.21329 16.4733L7.49996 16.38L6.89996 16.2467L6.41329 16.08L6.01996 15.88L5.71996 15.66L5.49329 15.4333L5.32663 15.2067L5.21996 14.9867L5.15329 14.7867L5.12663 14.62L5.11329 14.4867L5.11996 14.4V10.84L5.15329 10.4133L5.23996 10.0533L5.37996 9.74667L5.55329 9.49333L5.75329 9.28L5.97329 9.12L6.20663 8.98667L6.43996 8.89333L6.65996 8.82667L6.85996 8.78667L7.03329 8.76L7.17329 8.74667L7.25996 8.74H11.1533L11.6133 8.70667L12.0066 8.61333L12.34 8.47333L12.6133 8.28667L12.8333 8.07333L13.0133 7.84L13.1466 7.6L13.2466 7.36L13.3133 7.12667L13.36 6.91333L13.3866 6.72667L13.4 6.58667V4.54667H14.7933L14.8866 4.55333L15.0266 4.57333ZM10.7133 14.0733L10.56 14.2933L10.5066 14.5667L10.56 14.84L10.7133 15.06L10.9333 15.2133L11.2066 15.2667L11.48 15.2133L11.7 15.06L11.8533 14.84L11.9066 14.5667L11.8533 14.2933L11.7 14.0733L11.48 13.92L11.2066 13.8667L10.9333 13.92L10.7133 14.0733Z" fill="white"/>
</svg>
