<svg preserveAspectRatio="none" width="25" height="25" viewBox="0 0 25 25" fill="none" xmlns="http://www.w3.org/2000/svg">
<path vector-effect="non-scaling-stroke" d="M7.82812 2.25C7.82812 1.284 8.61212 0.5 9.57812 0.5H15.0781C16.0441 0.5 16.8281 1.284 16.8281 2.25V4.5H21.5781C22.5441 4.5 23.3281 5.284 23.3281 6.25V20.75C23.3281 21.2141 23.1437 21.6592 22.8156 21.9874C22.4874 22.3156 22.0423 22.5 21.5781 22.5H3.07812C2.614 22.5 2.16888 22.3156 1.84069 21.9874C1.5125 21.6592 1.32813 21.2141 1.32812 20.75V6.25C1.32812 5.284 2.11212 4.5 3.07812 4.5H7.82812V2.25ZM2.82812 12.49V20.75C2.82812 20.888 2.94013 21 3.07812 21H21.5781C21.6444 21 21.708 20.9737 21.7549 20.9268C21.8018 20.8799 21.8281 20.8163 21.8281 20.75V12.49C21.0608 13.1431 20.0858 13.5012 19.0781 13.5H5.57812C4.57049 13.5012 3.59545 13.1431 2.82812 12.49ZM21.8281 9.25V6.25C21.8281 6.1837 21.8018 6.12011 21.7549 6.07322C21.708 6.02634 21.6444 6 21.5781 6H3.07812C3.01182 6 2.94823 6.02634 2.90135 6.07322C2.85446 6.12011 2.82812 6.1837 2.82812 6.25V9.25C2.82813 9.97935 3.11786 10.6788 3.63358 11.1945C4.14931 11.7103 4.84878 12 5.57812 12H19.0781C19.8075 12 20.5069 11.7103 21.0227 11.1945C21.5384 10.6788 21.8281 9.97935 21.8281 9.25ZM15.3281 2.25C15.3281 2.1837 15.3018 2.12011 15.2549 2.07322C15.208 2.02634 15.1444 2 15.0781 2H9.57812C9.51182 2 9.44823 2.02634 9.40135 2.07322C9.35446 2.12011 9.32812 2.1837 9.32812 2.25V4.5H15.3281V2.25Z" fill="white"/>
</svg>
