<svg preserveAspectRatio="none" width="17" height="16" viewBox="0 0 17 16" fill="none" xmlns="http://www.w3.org/2000/svg">
<path vector-effect="non-scaling-stroke" d="M7.74825 0.133048C8.09492 0.0220569 8.46758 0.0220569 8.81425 0.133048L14.0642 1.81305C14.4176 1.92604 14.7259 2.1484 14.9447 2.44803C15.1634 2.74767 15.2813 3.10906 15.2812 3.48005V7.00005C15.2812 8.56605 14.9612 10.182 13.9782 11.682C12.9952 13.18 11.3932 14.495 8.94625 15.537C8.73598 15.6266 8.50979 15.6728 8.28125 15.6728C8.05271 15.6728 7.82652 15.6266 7.61625 15.537C5.16925 14.495 3.56725 13.18 2.58425 11.682C1.60125 10.182 1.28125 8.56605 1.28125 7.00005V3.48005C1.28122 3.10906 1.39909 2.74767 1.61783 2.44803C1.83658 2.1484 2.14489 1.92604 2.49825 1.81305L7.74825 0.133048ZM8.35825 1.56205C8.3085 1.54606 8.255 1.54606 8.20525 1.56205L2.95525 3.24205C2.90477 3.25816 2.86071 3.28989 2.82943 3.33267C2.79816 3.37545 2.78129 3.42706 2.78125 3.48005V7.00005C2.78125 8.35805 3.05625 9.66605 3.83825 10.86C4.62225 12.054 5.95925 13.2 8.20425 14.157C8.22859 14.1674 8.25478 14.1728 8.28125 14.1728C8.30772 14.1728 8.33391 14.1674 8.35825 14.157C10.6032 13.201 11.9402 12.053 12.7242 10.859C13.5062 9.66605 13.7812 8.36005 13.7812 7.00005V3.48005C13.7809 3.42727 13.7638 3.37595 13.7326 3.3334C13.7013 3.29086 13.6575 3.25924 13.6073 3.24305L8.35725 1.56305L8.35825 1.56205ZM9.03125 4.75005V7.75005C9.03125 7.94896 8.95223 8.13973 8.81158 8.28038C8.67093 8.42103 8.48016 8.50005 8.28125 8.50005C8.08234 8.50005 7.89157 8.42103 7.75092 8.28038C7.61027 8.13973 7.53125 7.94896 7.53125 7.75005V4.75005C7.53125 4.55114 7.61027 4.36037 7.75092 4.21972C7.89157 4.07907 8.08234 4.00005 8.28125 4.00005C8.48016 4.00005 8.67093 4.07907 8.81158 4.21972C8.95223 4.36037 9.03125 4.55114 9.03125 4.75005ZM9.28125 10.5C9.28125 10.7653 9.17589 11.0196 8.98836 11.2072C8.80082 11.3947 8.54647 11.5 8.28125 11.5C8.01603 11.5 7.76168 11.3947 7.57414 11.2072C7.38661 11.0196 7.28125 10.7653 7.28125 10.5C7.28125 10.2348 7.38661 9.98048 7.57414 9.79294C7.76168 9.6054 8.01603 9.50005 8.28125 9.50005C8.54647 9.50005 8.80082 9.6054 8.98836 9.79294C9.17589 9.98048 9.28125 10.2348 9.28125 10.5Z" fill="#8B949E"/>
</svg>
