<svg preserveAspectRatio="none" width="23" height="17" viewBox="0 0 23 17" fill="none" xmlns="http://www.w3.org/2000/svg">
<g clip-path="url(#clip0_1_6890)">
<path vector-effect="non-scaling-stroke" d="M22.3056 2.95901C22.1814 2.47986 21.9335 2.04178 21.5866 1.68869C21.2397 1.3356 20.806 1.07991 20.3292 0.947248C18.5645 0.453131 11.4939 0.453131 11.4939 0.453131C8.54559 0.4177 5.59814 0.574897 2.67035 0.923719C2.1933 1.06608 1.76041 1.32766 1.41253 1.68377C1.06466 2.03988 0.813271 2.47877 0.682111 2.95901C0.365801 4.77306 0.212249 6.61175 0.223287 8.45313C0.211492 10.2945 0.36505 12.1333 0.682111 13.9472C0.810572 14.4262 1.06141 14.8635 1.41 15.2162C1.75858 15.569 2.19292 15.8249 2.67035 15.959C4.45858 16.4531 11.4939 16.4531 11.4939 16.4531C14.4461 16.4886 17.3974 16.3314 20.3292 15.9825C20.806 15.8499 21.2397 15.5942 21.5866 15.2411C21.9335 14.888 22.1814 14.4499 22.3056 13.9708C22.63 12.1576 22.7875 10.3186 22.7762 8.47666C22.8005 6.62647 22.6429 4.77837 22.3056 2.95901ZM9.24682 11.8767V5.0296L15.1292 8.45313L9.24682 11.8767Z" fill="#959DA5"/>
</g>
<defs>
<clipPath id="clip0_1_6890">
<rect vector-effect="non-scaling-stroke" width="22.5529" height="16" fill="white" transform="translate(0.223633 0.453125)"/>
</clipPath>
</defs>
</svg>
