<svg preserveAspectRatio="none" width="17" height="18" viewBox="0 0 17 18" fill="none" xmlns="http://www.w3.org/2000/svg">
<path vector-effect="non-scaling-stroke" d="M1.14575 2.9272L2.36075 4.1422C3.49068 2.66294 5.10096 1.62389 6.91439 1.2039C8.72783 0.783921 10.6309 1.00929 12.2961 1.84121C13.9613 2.67313 15.2844 4.05955 16.0375 5.7618C16.7907 7.46405 16.9269 9.37563 16.4226 11.1674C15.9183 12.9593 14.8051 14.5192 13.2746 15.5788C11.7442 16.6383 9.89222 17.1311 8.03756 16.9724C6.18291 16.8137 4.44161 16.0134 3.11342 14.7092C1.78524 13.4051 0.953274 11.6786 0.76075 9.8272C0.740329 9.62921 0.799392 9.43123 0.924948 9.27679C1.0505 9.12235 1.23227 9.02412 1.43025 9.0037C1.62823 8.98328 1.82622 9.04234 1.98066 9.1679C2.13509 9.29345 2.23333 9.47521 2.25375 9.6732C2.41141 11.1856 3.09432 12.5949 4.18365 13.6558C5.27299 14.7167 6.6998 15.3621 8.21583 15.4798C9.73187 15.5974 11.2412 15.1798 12.4811 14.2997C13.7211 13.4195 14.6132 12.1325 15.0023 10.6625C15.3914 9.19251 15.2528 7.63265 14.6107 6.2543C13.9685 4.87595 12.8635 3.76636 11.4878 3.11857C10.112 2.47079 8.55276 2.32583 7.08121 2.7089C5.60966 3.09198 4.31898 3.97885 3.43375 5.2152L4.79175 6.5732C4.8268 6.60816 4.85069 6.65275 4.86037 6.7013C4.87005 6.74986 4.8651 6.80019 4.84614 6.84593C4.82718 6.89167 4.79507 6.93074 4.75388 6.95821C4.71268 6.98567 4.66426 7.00029 4.61475 7.0002H0.96875C0.902446 7.0002 0.838858 6.97386 0.791974 6.92698C0.74509 6.88009 0.71875 6.8165 0.71875 6.7502V3.1042C0.718662 3.05469 0.733276 3.00627 0.76074 2.96507C0.788205 2.92388 0.827282 2.89176 0.873019 2.87281C0.918755 2.85385 0.969092 2.8489 1.01765 2.85858C1.0662 2.86826 1.11079 2.89214 1.14575 2.9272ZM8.46875 5.0002C8.66766 5.0002 8.85843 5.07922 8.99908 5.21987C9.13973 5.36052 9.21875 5.55129 9.21875 5.7502V8.7422L11.2467 9.5542C11.4255 9.6321 11.5668 9.77654 11.6409 9.95689C11.7149 10.1372 11.7158 10.3393 11.6434 10.5203C11.5709 10.7013 11.4309 10.847 11.2529 10.9265C11.0748 11.006 10.8729 11.0131 10.6897 10.9462L8.18975 9.9462C8.0508 9.89037 7.93171 9.79427 7.84778 9.67025C7.76385 9.54623 7.71892 9.39995 7.71875 9.2502V5.7502C7.71875 5.55129 7.79777 5.36052 7.93842 5.21987C8.07907 5.07922 8.26984 5.0002 8.46875 5.0002Z" fill="#C9D1D9"/>
</svg>
