<svg preserveAspectRatio="none" width="18" height="19" viewBox="0 0 18 19" fill="none" xmlns="http://www.w3.org/2000/svg">
<g clip-path="url(#clip0_1_6884)">
<path vector-effect="non-scaling-stroke" d="M17.007 0.453125H0.994029C0.733668 0.476798 0.49209 0.598726 0.318402 0.794125C0.144713 0.989525 0.0519488 1.24373 0.0589645 1.50507V17.4012C0.0519488 17.6625 0.144713 17.9167 0.318402 18.1121C0.49209 18.3075 0.733668 18.4295 0.994029 18.4531H9.5265V11.4401H7.18883V8.75183H9.5265V6.76481C9.45012 5.90014 9.7119 5.03952 10.2568 4.36383C10.8017 3.68814 11.5873 3.24998 12.4486 3.14144H13.033C13.7363 3.12208 14.44 3.16117 15.1369 3.25832V5.71287H13.6174C12.4486 5.71287 12.3317 6.29728 12.3317 6.99858V8.75183H15.02L14.6694 11.4401H12.3317V18.3362H16.8901C17.1515 18.3433 17.4057 18.2505 17.6011 18.0768C17.7965 17.9031 17.9184 17.6615 17.9421 17.4012V1.38819C17.9257 1.1456 17.8219 0.917178 17.65 0.745248C17.478 0.573318 17.2496 0.469534 17.007 0.453125Z" fill="#959DA5"/>
</g>
<defs>
<clipPath id="clip0_1_6884">
<rect vector-effect="non-scaling-stroke" width="17.8831" height="18" fill="white" transform="translate(0.0585938 0.453125)"/>
</clipPath>
</defs>
</svg>
