<svg preserveAspectRatio="none" width="20" height="21" viewBox="0 0 20 21" fill="none" xmlns="http://www.w3.org/2000/svg">
<path vector-effect="non-scaling-stroke" d="M10 18.1094L10.4313 18.9419C10.298 19.0109 10.1501 19.047 10 19.047C9.84991 19.047 9.70202 19.0109 9.56875 18.9419L9.55875 18.9369L9.53625 18.9244C9.40535 18.8567 9.27615 18.7859 9.14875 18.7119C7.62524 17.8448 6.18789 16.8344 4.85625 15.6944C2.55625 13.7106 0 10.7344 0 7.17188C0 3.84187 2.6075 1.54688 5.3125 1.54688C7.24625 1.54688 8.94125 2.54937 10 4.07187C11.0588 2.54937 12.7537 1.54688 14.6875 1.54688C17.3925 1.54688 20 3.84187 20 7.17188C20 10.7344 17.4437 13.7106 15.1437 15.6944C13.6992 16.9294 12.1309 18.0118 10.4638 18.9244L10.4412 18.9369L10.4338 18.9406H10.4313L10 18.1094ZM5.3125 3.42188C3.6425 3.42188 1.875 4.87688 1.875 7.17188C1.875 9.85938 3.85 12.3519 6.08125 14.2744C7.2986 15.3156 8.61055 16.2409 10 17.0381C11.3895 16.2409 12.7014 15.3156 13.9188 14.2744C16.15 12.3519 18.125 9.85938 18.125 7.17188C18.125 4.87688 16.3575 3.42188 14.6875 3.42188C12.9712 3.42188 11.4262 4.65437 10.9012 6.49187C10.846 6.68834 10.728 6.86137 10.5653 6.9846C10.4026 7.10783 10.2041 7.17453 10 7.17453C9.7959 7.17453 9.59739 7.10783 9.4347 6.9846C9.272 6.86137 9.15403 6.68834 9.09875 6.49187C8.57375 4.65437 7.02875 3.42188 5.3125 3.42188Z" fill="#BF3989"/>
</svg>
