<svg preserveAspectRatio="none" width="17" height="17" viewBox="0 0 17 17" fill="none" xmlns="http://www.w3.org/2000/svg">
<path vector-effect="non-scaling-stroke" d="M8.03125 2.5C8.23016 2.5 8.42093 2.57902 8.56158 2.71967C8.70223 2.86032 8.78125 3.05109 8.78125 3.25V7.5H13.0312C13.2302 7.5 13.4209 7.57902 13.5616 7.71967C13.7022 7.86032 13.7812 8.05109 13.7812 8.25C13.7812 8.44891 13.7022 8.63968 13.5616 8.78033C13.4209 8.92098 13.2302 9 13.0312 9H8.78125V13.25C8.78125 13.4489 8.70223 13.6397 8.56158 13.7803C8.42093 13.921 8.23016 14 8.03125 14C7.83234 14 7.64157 13.921 7.50092 13.7803C7.36027 13.6397 7.28125 13.4489 7.28125 13.25V9H3.03125C2.83234 9 2.64157 8.92098 2.50092 8.78033C2.36027 8.63968 2.28125 8.44891 2.28125 8.25C2.28125 8.05109 2.36027 7.86032 2.50092 7.71967C2.64157 7.57902 2.83234 7.5 3.03125 7.5H7.28125V3.25C7.28125 3.05109 7.36027 2.86032 7.50092 2.71967C7.64157 2.57902 7.83234 2.5 8.03125 2.5Z" fill="#F0F6FC"/>
</svg>
