<svg preserveAspectRatio="none" width="21" height="21" viewBox="0 0 21 21" fill="none" xmlns="http://www.w3.org/2000/svg">
<path vector-effect="non-scaling-stroke" d="M9.39728 4.97771C9.03117 4.6116 8.43757 4.6116 8.07146 4.97771C7.70535 5.34382 7.70535 5.93742 8.07146 6.30353L9.39728 4.97771ZM14.0469 10.9531L14.7097 11.616C15.0759 11.2499 15.0759 10.6563 14.7097 10.2902L14.0469 10.9531ZM8.07146 15.6027C7.70535 15.9689 7.70535 16.5624 8.07146 16.9285C8.43757 17.2946 9.03117 17.2946 9.39728 16.9285L8.07146 15.6027ZM8.07146 6.30353L13.384 11.616L14.7097 10.2902L9.39728 4.97771L8.07146 6.30353ZM13.384 10.2902L8.07146 15.6027L9.39728 16.9285L14.7097 11.616L13.384 10.2902Z" fill="#0D1117"/>
<path vector-effect="non-scaling-stroke" d="M2.48438 10.9531H14.0469Z" fill="#0D1117"/>
<path vector-effect="non-scaling-stroke" d="M2.48438 10.9531H14.0469" stroke="#0D1117" stroke-width="1.875" stroke-linecap="round" stroke-dasharray="12.5 12.5"/>
</svg>
