<svg preserveAspectRatio="none" width="19" height="19" viewBox="0 0 19 19" fill="none" xmlns="http://www.w3.org/2000/svg">
<path vector-effect="non-scaling-stroke" d="M17.5189 0.629028H1.51314C1.25289 0.65269 1.01142 0.774563 0.837815 0.969874C0.664205 1.16518 0.571483 1.41928 0.578496 1.6805V17.5694C0.571483 17.8306 0.664205 18.0847 0.837815 18.28C1.01142 18.4753 1.25289 18.5972 1.51314 18.6209H10.0417V11.6111H7.70513V8.92396H10.0417V6.93785C9.96539 6.07357 10.227 5.21335 10.7717 4.53796C11.3164 3.86257 12.1016 3.42461 12.9625 3.31612H13.5466C14.2496 3.29677 14.953 3.33585 15.6496 3.43295V5.88638H14.1308C12.9625 5.88638 12.8457 6.47053 12.8457 7.17151V8.92396H15.5327L15.1823 11.6111H12.8457V18.504H17.402C17.6632 18.511 17.9173 18.4183 18.1126 18.2447C18.308 18.0711 18.4298 17.8296 18.4535 17.5694V1.56367C18.4371 1.32119 18.3334 1.09287 18.1615 0.921019C17.9897 0.749167 17.7613 0.64543 17.5189 0.629028Z" fill="#959DA5"/>
</svg>
