<svg preserveAspectRatio="none" width="17" height="16" viewBox="0 0 17 16" fill="none" xmlns="http://www.w3.org/2000/svg">
<path vector-effect="non-scaling-stroke" d="M1.82812 7.775V2.75C1.82812 1.784 2.61212 1 3.57812 1H8.60313C9.06713 1 9.51312 1.184 9.84112 1.513L16.0911 7.763C16.419 8.09115 16.6033 8.53609 16.6033 9C16.6033 9.46391 16.419 9.90885 16.0911 10.237L11.0651 15.263C10.737 15.5909 10.292 15.7751 9.82812 15.7751C9.36421 15.7751 8.91928 15.5909 8.59113 15.263L2.34113 9.013C2.01282 8.68462 1.82831 8.23934 1.82812 7.775ZM3.32812 7.775C3.32812 7.841 3.35412 7.905 3.40112 7.952L9.65112 14.202C9.67435 14.2253 9.70194 14.2438 9.73231 14.2564C9.76268 14.269 9.79524 14.2754 9.82812 14.2754C9.86101 14.2754 9.89357 14.269 9.92394 14.2564C9.95431 14.2438 9.9819 14.2253 10.0051 14.202L15.0301 9.177C15.0534 9.15378 15.0719 9.12619 15.0845 9.09582C15.0971 9.06544 15.1036 9.03288 15.1036 9C15.1036 8.96712 15.0971 8.93456 15.0845 8.90418C15.0719 8.87381 15.0534 8.84622 15.0301 8.823L8.78013 2.573C8.75687 2.5498 8.72926 2.53141 8.69889 2.51888C8.66852 2.50636 8.63598 2.49994 8.60313 2.5H3.57812C3.51182 2.5 3.44823 2.52634 3.40135 2.57322C3.35446 2.62011 3.32812 2.6837 3.32812 2.75V7.775ZM6.82812 5C7.09334 5 7.3477 5.10536 7.53523 5.29289C7.72277 5.48043 7.82812 5.73478 7.82812 6C7.82812 6.26522 7.72277 6.51957 7.53523 6.70711C7.3477 6.89464 7.09334 7 6.82812 7C6.56291 7 6.30855 6.89464 6.12102 6.70711C5.93348 6.51957 5.82812 6.26522 5.82812 6C5.82812 5.73478 5.93348 5.48043 6.12102 5.29289C6.30855 5.10536 6.56291 5 6.82812 5Z" fill="#C9D1D9"/>
</svg>
