<svg preserveAspectRatio="none" width="17" height="17" viewBox="0 0 17 17" fill="none" xmlns="http://www.w3.org/2000/svg">
<path vector-effect="non-scaling-stroke" d="M1.5 8.74375V3.71875C1.5 2.75275 2.284 1.96875 3.25 1.96875H8.275C8.739 1.96875 9.185 2.15275 9.513 2.48175L15.763 8.73175C16.0909 9.0599 16.2751 9.50484 16.2751 9.96875C16.2751 10.4327 16.0909 10.8776 15.763 11.2058L10.737 16.2317C10.4088 16.5597 9.96391 16.7439 9.5 16.7439C9.03609 16.7439 8.59115 16.5597 8.263 16.2317L2.013 9.98175C1.6847 9.65337 1.50019 9.20809 1.5 8.74375ZM3 8.74375C3 8.80975 3.026 8.87375 3.073 8.92075L9.323 15.1707C9.34622 15.194 9.37381 15.2125 9.40418 15.2251C9.43456 15.2377 9.46712 15.2442 9.5 15.2442C9.53288 15.2442 9.56544 15.2377 9.59582 15.2251C9.62619 15.2125 9.65378 15.194 9.677 15.1707L14.702 10.1458C14.7253 10.1225 14.7438 10.0949 14.7564 10.0646C14.769 10.0342 14.7754 10.0016 14.7754 9.96875C14.7754 9.93587 14.769 9.90331 14.7564 9.87293C14.7438 9.84256 14.7253 9.81497 14.702 9.79175L8.452 3.54175C8.42874 3.51855 8.40114 3.50016 8.37077 3.48763C8.34039 3.47511 8.30785 3.46869 8.275 3.46875H3.25C3.1837 3.46875 3.12011 3.49509 3.07322 3.54197C3.02634 3.58886 3 3.65245 3 3.71875V8.74375ZM6.5 5.96875C6.76522 5.96875 7.01957 6.07411 7.20711 6.26164C7.39464 6.44918 7.5 6.70353 7.5 6.96875C7.5 7.23397 7.39464 7.48832 7.20711 7.67586C7.01957 7.86339 6.76522 7.96875 6.5 7.96875C6.23478 7.96875 5.98043 7.86339 5.79289 7.67586C5.60536 7.48832 5.5 7.23397 5.5 6.96875C5.5 6.70353 5.60536 6.44918 5.79289 6.26164C5.98043 6.07411 6.23478 5.96875 6.5 5.96875Z" fill="#3FB950"/>
</svg>
