<svg preserveAspectRatio="none" width="24" height="44" viewBox="0 0 24 44" fill="none" xmlns="http://www.w3.org/2000/svg">
<path vector-effect="non-scaling-stroke" d="M8.96831 25.999V19.542H8.89801L6.23201 25.999H5.34131L2.67531 19.542H2.60501V25.999H1.62061V17.5439H2.84521L5.73971 24.5986H5.83351L8.72801 17.5439H9.95261V25.999H8.96831ZM11.4849 24.2294C11.4849 23.0985 12.3169 22.4482 13.7876 22.3603L15.6099 22.249V21.6748C15.6099 20.8955 15.1236 20.4678 14.1802 20.4678C13.4243 20.4678 12.897 20.7549 12.7564 21.253H11.7369C11.8717 20.2393 12.8678 19.5714 14.2154 19.5714C15.7564 19.5714 16.6177 20.3624 16.6177 21.6749V25.9991H15.6568V25.0673H15.563C15.1528 25.7411 14.4614 26.1103 13.6177 26.1103C12.3931 26.1103 11.4849 25.3837 11.4849 24.2294ZM15.6099 23.6435V23.0634L13.9107 23.1747C12.9498 23.2392 12.5279 23.5731 12.5279 24.2059C12.5279 24.8504 13.0728 25.2254 13.8052 25.2254C14.8423 25.2255 15.6099 24.5458 15.6099 23.6435ZM22.5679 21.6162C22.4038 20.9892 21.8472 20.4795 20.939 20.4795C19.8023 20.4795 19.0874 21.3877 19.0874 22.8174C19.0874 24.2764 19.814 25.2022 20.939 25.2022C21.7886 25.2022 22.3804 24.8096 22.5679 24.0948H23.5874C23.4058 25.255 22.4624 26.1104 20.9448 26.1104C19.1753 26.1104 18.0444 24.8272 18.0444 22.8174C18.0444 20.8486 19.1694 19.5713 20.9389 19.5713C22.4741 19.5713 23.4116 20.4912 23.5873 21.6162H22.5679Z" fill="black" fill-opacity="0.8"/>
</svg>
