<svg preserveAspectRatio="none" width="21" height="21" viewBox="0 0 21 21" fill="none" xmlns="http://www.w3.org/2000/svg">
<path vector-effect="non-scaling-stroke" d="M9.99103 4.54021C9.62492 4.1741 9.03132 4.1741 8.66521 4.54021C8.2991 4.90632 8.2991 5.49992 8.66521 5.86603L9.99103 4.54021ZM14.6406 10.5156L15.3035 11.1785C15.6696 10.8124 15.6696 10.2188 15.3035 9.85271L14.6406 10.5156ZM8.66521 15.1652C8.2991 15.5314 8.2991 16.1249 8.66521 16.491C9.03132 16.8571 9.62492 16.8571 9.99103 16.491L8.66521 15.1652ZM8.66521 5.86603L13.9777 11.1785L15.3035 9.85271L9.99103 4.54021L8.66521 5.86603ZM13.9777 9.85271L8.66521 15.1652L9.99103 16.491L15.3035 11.1785L13.9777 9.85271Z" fill="white"/>
<path vector-effect="non-scaling-stroke" d="M3.07812 10.5156H14.6406Z" fill="white"/>
<path vector-effect="non-scaling-stroke" d="M3.07812 10.5156H14.6406" stroke="white" stroke-width="1.875" stroke-linecap="round" stroke-dasharray="12.5 12.5"/>
</svg>
