<svg preserveAspectRatio="none" width="20" height="21" viewBox="0 0 20 21" fill="none" xmlns="http://www.w3.org/2000/svg">
<g clip-path="url(#clip0_1_3375)">
<path vector-effect="non-scaling-stroke" d="M10 0.796875C4.475 0.796875 0 5.27187 0 10.7969C0 15.2219 2.8625 18.9594 6.8375 20.2844C7.3375 20.3719 7.525 20.0719 7.525 19.8094C7.525 19.5719 7.5125 18.7844 7.5125 17.9469C5 18.4094 4.35 17.3344 4.15 16.7719C4.0375 16.4844 3.55 15.5969 3.125 15.3594C2.775 15.1719 2.275 14.7094 3.1125 14.6969C3.9 14.6844 4.4625 15.4219 4.65 15.7219C5.55 17.2344 6.9875 16.8094 7.5625 16.5469C7.65 15.8969 7.9125 15.4594 8.2 15.2094C5.975 14.9594 3.65 14.0969 3.65 10.2719C3.65 9.18437 4.0375 8.28437 4.675 7.58437C4.575 7.33437 4.225 6.30937 4.775 4.93437C4.775 4.93437 5.6125 4.67188 7.525 5.95938C8.325 5.73438 9.175 5.62187 10.025 5.62187C10.875 5.62187 11.725 5.73438 12.525 5.95938C14.4375 4.65938 15.275 4.93437 15.275 4.93437C15.825 6.30937 15.475 7.33437 15.375 7.58437C16.0125 8.28437 16.4 9.17187 16.4 10.2719C16.4 14.1094 14.0625 14.9594 11.8375 15.2094C12.2 15.5219 12.5125 16.1219 12.5125 17.0594C12.5125 18.3969 12.5 19.4719 12.5 19.8094C12.5 20.0719 12.6875 20.3844 13.1875 20.2844C15.1727 19.6142 16.8977 18.3383 18.1198 16.6364C19.3419 14.9345 19.9995 12.8921 20 10.7969C20 5.27187 15.525 0.796875 10 0.796875Z" fill="#959DA5"/>
</g>
<defs>
<clipPath id="clip0_1_3375">
<rect vector-effect="non-scaling-stroke" width="20" height="20" fill="white" transform="translate(0 0.796875)"/>
</clipPath>
</defs>
</svg>
