<svg preserveAspectRatio="none" width="17" height="17" viewBox="0 0 17 17" fill="none" xmlns="http://www.w3.org/2000/svg">
<path vector-effect="non-scaling-stroke" d="M8.1875 15.0752L8.5325 15.7412C8.42589 15.7964 8.30757 15.8253 8.1875 15.8253C8.06743 15.8253 7.94911 15.7964 7.8425 15.7412L7.8345 15.7372L7.8165 15.7272C7.71178 15.6731 7.60842 15.6164 7.5065 15.5572C6.28769 14.8635 5.13782 14.0552 4.0725 13.1432C2.2325 11.5562 0.1875 9.1752 0.1875 6.3252C0.1875 3.6612 2.2735 1.8252 4.4375 1.8252C5.9845 1.8252 7.3405 2.6272 8.1875 3.8452C9.0345 2.6272 10.3905 1.8252 11.9375 1.8252C14.1015 1.8252 16.1875 3.6612 16.1875 6.3252C16.1875 9.1752 14.1425 11.5562 12.3025 13.1432C11.1469 14.1312 9.89219 14.9972 8.5585 15.7272L8.5405 15.7372L8.5345 15.7402H8.5325L8.1875 15.0752ZM4.4375 3.3252C3.1015 3.3252 1.6875 4.4892 1.6875 6.3252C1.6875 8.4752 3.2675 10.4692 5.0525 12.0072C6.02638 12.8402 7.07594 13.5804 8.1875 14.2182C9.29906 13.5804 10.3486 12.8402 11.3225 12.0072C13.1075 10.4692 14.6875 8.4752 14.6875 6.3252C14.6875 4.4892 13.2735 3.3252 11.9375 3.3252C10.5645 3.3252 9.3285 4.3112 8.9085 5.7812C8.86427 5.93837 8.7699 6.07679 8.63974 6.17537C8.50958 6.27396 8.35078 6.32732 8.1875 6.32732C8.02422 6.32732 7.86541 6.27396 7.73526 6.17537C7.6051 6.07679 7.51073 5.93837 7.4665 5.7812C7.0465 4.3112 5.8105 3.3252 4.4375 3.3252Z" fill="#C9D1D9"/>
</svg>
