<svg preserveAspectRatio="none" width="17" height="16" viewBox="0 0 17 16" fill="none" xmlns="http://www.w3.org/2000/svg">
<path vector-effect="non-scaling-stroke" d="M2.25 1C1.78587 1 1.34075 1.18437 1.01256 1.51256C0.684374 1.84075 0.5 2.28587 0.5 2.75L0.5 13.25C0.5 14.216 1.284 15 2.25 15H14.75C15.2141 15 15.6592 14.8156 15.9874 14.4874C16.3156 14.1592 16.5 13.7141 16.5 13.25V4.75C16.5 4.28587 16.3156 3.84075 15.9874 3.51256C15.6592 3.18437 15.2141 3 14.75 3H8C7.96119 3 7.92291 2.99096 7.8882 2.97361C7.85348 2.95625 7.82329 2.93105 7.8 2.9L6.9 1.7C6.57 1.26 6.05 1 5.5 1H2.25Z" fill="#8B949E"/>
</svg>
