<svg preserveAspectRatio="none" width="17" height="17" viewBox="0 0 17 17" fill="none" xmlns="http://www.w3.org/2000/svg">
<path vector-effect="non-scaling-stroke" fill-rule="evenodd" clip-rule="evenodd" d="M1.6076 3.33705L2.3956 7.87505H7.2656C7.46451 7.87505 7.65527 7.95406 7.79593 8.09472C7.93658 8.23537 8.0156 8.42613 8.0156 8.62505C8.0156 8.82396 7.93658 9.01472 7.79593 9.15538C7.65527 9.29603 7.46451 9.37505 7.2656 9.37505H2.3956L1.6076 13.913L13.9446 8.62505L1.6076 3.33705ZM1.0046 8.62505L0.0795964 3.30505C0.0382315 3.06709 0.0618988 2.82238 0.148099 2.59677C0.234298 2.37115 0.37983 2.17301 0.569323 2.02326C0.758816 1.8735 0.985235 1.77771 1.22466 1.74599C1.46409 1.71427 1.70765 1.7478 1.9296 1.84305L15.3316 7.58705C15.5345 7.67434 15.7073 7.81918 15.8288 8.00366C15.9503 8.18814 16.015 8.40417 16.015 8.62505C16.015 8.84592 15.9503 9.06195 15.8288 9.24643C15.7073 9.43091 15.5345 9.57575 15.3316 9.66305L1.9286 15.407C1.70656 15.5024 1.46289 15.5359 1.22336 15.5042C0.983821 15.4724 0.757315 15.3765 0.567785 15.2266C0.378255 15.0768 0.232744 14.8785 0.146635 14.6527C0.0605258 14.4269 0.0370178 14.1821 0.0785964 13.944L1.0046 8.62505Z" fill="white"/>
</svg>
