<svg preserveAspectRatio="none" width="17" height="16" viewBox="0 0 17 16" fill="none" xmlns="http://www.w3.org/2000/svg">
<path vector-effect="non-scaling-stroke" d="M4.92696 7.427L8.32296 10.823C8.34619 10.8463 8.37377 10.8648 8.40415 10.8774C8.43452 10.89 8.46708 10.8964 8.49996 10.8964C8.53285 10.8964 8.56541 10.89 8.59578 10.8774C8.62615 10.8648 8.65374 10.8463 8.67696 10.823L12.073 7.427C12.108 7.39204 12.1319 7.34745 12.1416 7.2989C12.1513 7.25034 12.1463 7.20001 12.1274 7.15427C12.1084 7.10853 12.0763 7.06945 12.0351 7.04199C11.9939 7.01453 11.9455 6.99991 11.896 7H5.10396C5.05445 6.99991 5.00603 7.01453 4.96484 7.04199C4.92364 7.06945 4.89153 7.10853 4.87257 7.15427C4.85361 7.20001 4.84866 7.25034 4.85834 7.2989C4.86803 7.34745 4.89191 7.39204 4.92696 7.427Z" fill="white"/>
</svg>
