<svg preserveAspectRatio="none" width="16" height="16" viewBox="0 0 16 16" fill="none" xmlns="http://www.w3.org/2000/svg">
<path vector-effect="non-scaling-stroke" d="M11.2803 3.2199L15.5303 7.4699C15.6708 7.61052 15.7497 7.80115 15.7497 7.9999C15.7497 8.19865 15.6708 8.38927 15.5303 8.5299L11.2803 12.7799C11.1886 12.8786 11.072 12.9508 10.9428 12.9888C10.8135 13.0268 10.6764 13.0293 10.5459 12.9959C10.4154 12.9625 10.2963 12.8946 10.2011 12.7992C10.106 12.7038 10.0384 12.5845 10.0053 12.4539C9.9719 12.3235 9.97423 12.1866 10.0121 12.0574C10.0499 11.9282 10.1218 11.8116 10.2203 11.7199L13.9403 7.9999L10.2203 4.2799C10.1216 4.18823 10.0494 4.07162 10.0114 3.94237C9.97339 3.81313 9.97094 3.67602 10.0043 3.54549C10.0377 3.41497 10.1056 3.29586 10.201 3.20072C10.2964 3.10558 10.4157 3.03793 10.5463 3.0049C10.6767 2.97148 10.8137 2.97381 10.9428 3.01165C11.072 3.04948 11.1886 3.12142 11.2803 3.2199ZM4.72032 3.2199C4.86258 3.08749 5.05063 3.01539 5.24495 3.01874C5.43926 3.0221 5.62471 3.10066 5.76232 3.2379C5.89956 3.3755 5.97812 3.56095 5.98147 3.75527C5.98483 3.94959 5.91273 4.13764 5.78032 4.2799L2.06032 7.9999L5.78032 11.7199C5.87904 11.8116 5.95121 11.9282 5.98923 12.0574C6.02724 12.1867 6.02969 12.3238 5.99632 12.4543C5.96294 12.5848 5.89498 12.7039 5.7996 12.7991C5.70421 12.8942 5.58493 12.9619 5.45432 12.9949C5.32394 13.0283 5.18697 13.026 5.05781 12.9882C4.92864 12.9503 4.81206 12.8784 4.72032 12.7799L0.470317 8.5299C0.329866 8.38927 0.250977 8.19865 0.250977 7.9999C0.250977 7.80115 0.329866 7.61052 0.470317 7.4699L4.72032 3.2199Z" fill="#8B949E"/>
</svg>
