<svg preserveAspectRatio="none" width="17" height="17" viewBox="0 0 17 17" fill="none" xmlns="http://www.w3.org/2000/svg">
<path vector-effect="non-scaling-stroke" d="M8.28097 16.5C8.76822 16.5002 9.23878 16.3225 9.60427 16.0002C9.96977 15.678 10.2051 15.2334 10.266 14.75C10.283 14.613 10.169 14.5 10.031 14.5H6.53097C6.39297 14.5 6.27897 14.613 6.29597 14.75C6.35687 15.2334 6.59217 15.678 6.95766 16.0002C7.32316 16.3225 7.79371 16.5002 8.28097 16.5ZM3.28097 5.5C3.28097 4.17392 3.80775 2.90215 4.74543 1.96447C5.68312 1.02678 6.95488 0.5 8.28097 0.5C9.60705 0.5 10.8788 1.02678 11.8165 1.96447C12.7542 2.90215 13.281 4.17392 13.281 5.5V8.447C13.281 8.497 13.296 8.545 13.323 8.586L15.026 11.141C15.1777 11.3697 15.2647 11.6352 15.2777 11.9093C15.2906 12.1835 15.229 12.456 15.0995 12.698C14.97 12.9399 14.7773 13.1423 14.542 13.2835C14.3066 13.4247 14.0374 13.4995 13.763 13.5H2.79897C2.52395 13.5007 2.25393 13.4265 2.01782 13.2855C1.78172 13.1444 1.58844 12.9418 1.45867 12.6993C1.3289 12.4568 1.26754 12.1836 1.28116 11.9089C1.29477 11.6343 1.38285 11.3685 1.53597 11.14L3.23897 8.586C3.26614 8.54472 3.28073 8.49642 3.28097 8.447V5.5ZM8.28097 2C7.35271 2 6.46247 2.36875 5.80609 3.02513C5.14972 3.6815 4.78097 4.57174 4.78097 5.5V8.447C4.78097 8.793 4.67897 9.13 4.48697 9.417L2.78397 11.973C2.78194 11.9759 2.78089 11.9794 2.78097 11.983L2.78197 11.989C2.78197 11.991 2.78397 11.993 2.78597 11.995L2.79197 11.999L2.79897 12H13.763L13.77 11.999L13.776 11.995L13.78 11.989L13.781 11.982C13.781 11.9784 13.78 11.9749 13.778 11.972L12.075 9.418C11.8832 9.13088 11.7808 8.7933 11.781 8.448V5.5C11.781 4.57174 11.4122 3.6815 10.7558 3.02513C10.0995 2.36875 9.20922 2 8.28097 2Z" fill="#F0F6FC"/>
</svg>
