<svg preserveAspectRatio="none" width="145" height="80" viewBox="0 0 145 80" fill="none" xmlns="http://www.w3.org/2000/svg">
<g clip-path="url(#clip0_1201_6842)">
<path vector-effect="non-scaling-stroke" d="M3.49653 47.3518C19.25 40.6451 36.6189 36.6183 54.507 35.3186C72.4461 34.0204 90.8788 35.4486 108.831 39.5349C118.879 41.8246 128.871 44.9061 138.347 48.9856C138.882 49.2156 139.885 49.8377 139.818 50.4494C139.743 51.0877 138.715 50.7594 138.306 50.5916C129.969 47.2441 121.479 44.3774 112.745 42.2203C104.011 40.0632 95.1439 38.5922 86.2602 37.7636C68.405 36.0857 50.4855 37.0809 33.5335 40.6889C23.9882 42.7107 14.7717 45.6103 6.0528 49.3166C5.08057 49.7272 2.45272 47.7985 3.49653 47.3518Z" fill="#EF790C"/>
<path vector-effect="non-scaling-stroke" d="M125.598 55.7912C131.449 54.9409 137.369 53.9969 143.321 52.9651C143.724 52.8926 144.031 52.6731 144.172 52.5037C145.376 50.9749 144.896 49.8071 144.001 48.8325C142.976 47.7262 141.493 46.7873 140.201 45.7956C137.468 43.7061 134.939 41.5061 131.892 39.5501C131.612 39.3662 130.81 39.1782 130.043 39.5605C129.276 39.9428 129.647 40.485 129.853 40.6766C131.974 42.6287 134.585 44.389 136.985 46.2276C138.154 47.1198 139.322 48.0073 140.479 48.903C141.436 49.6391 142.473 50.3904 141.441 51.7163L142.292 51.2549C136.343 52.2958 130.437 53.2455 124.574 54.1039C123.493 54.2637 123.587 55.0503 123.703 55.235C123.92 55.5941 124.507 55.9638 125.601 55.805L125.598 55.7912Z" fill="#EF790C"/>
</g>
<defs>
<clipPath id="clip0_1201_6842">
<rect vector-effect="non-scaling-stroke" width="145" height="80" fill="white"/>
</clipPath>
</defs>
</svg>
