<svg preserveAspectRatio="none" width="17" height="17" viewBox="0 0 17 17" fill="none" xmlns="http://www.w3.org/2000/svg">
<path vector-effect="non-scaling-stroke" d="M8.47461 15.0879L8.81961 15.7539C8.713 15.8091 8.59468 15.838 8.47461 15.838C8.35454 15.838 8.23622 15.8091 8.12961 15.7539L8.12161 15.7499L8.10361 15.7399C7.99889 15.6858 7.89553 15.6291 7.79361 15.5699C6.5748 14.8762 5.42493 14.0679 4.35961 13.1559C2.51961 11.5689 0.474609 9.18789 0.474609 6.33789C0.474609 3.67389 2.56061 1.83789 4.72461 1.83789C6.27161 1.83789 7.62761 2.63989 8.47461 3.85789C9.32161 2.63989 10.6776 1.83789 12.2246 1.83789C14.3886 1.83789 16.4746 3.67389 16.4746 6.33789C16.4746 9.18789 14.4296 11.5689 12.5896 13.1559C11.434 14.1439 10.1793 15.0098 8.84561 15.7399L8.82761 15.7499L8.82161 15.7529H8.81961L8.47461 15.0879ZM4.72461 3.33789C3.38861 3.33789 1.97461 4.50189 1.97461 6.33789C1.97461 8.48789 3.55461 10.4819 5.33961 12.0199C6.31349 12.8529 7.36305 13.5931 8.47461 14.2309C9.58617 13.5931 10.6357 12.8529 11.6096 12.0199C13.3946 10.4819 14.9746 8.48789 14.9746 6.33789C14.9746 4.50189 13.5606 3.33789 12.2246 3.33789C10.8516 3.33789 9.61561 4.32389 9.19561 5.79389C9.15138 5.95107 9.05701 6.08948 8.92685 6.18807C8.79669 6.28666 8.63789 6.34001 8.47461 6.34001C8.31133 6.34001 8.15252 6.28666 8.02237 6.18807C7.89221 6.08948 7.79784 5.95107 7.75361 5.79389C7.33361 4.32389 6.09761 3.33789 4.72461 3.33789Z" fill="#C9D1D9"/>
</svg>
