<svg preserveAspectRatio="none" width="23" height="17" viewBox="0 0 23 17" fill="none" xmlns="http://www.w3.org/2000/svg">
<g clip-path="url(#clip0_1_3366)">
<path vector-effect="non-scaling-stroke" d="M22.3056 3.30276C22.1814 2.82361 21.9335 2.38553 21.5866 2.03244C21.2397 1.67935 20.806 1.42366 20.3292 1.291C18.5645 0.796881 11.4939 0.796881 11.4939 0.796881C8.54559 0.76145 5.59814 0.918647 2.67035 1.26747C2.1933 1.40983 1.76041 1.67141 1.41253 2.02752C1.06466 2.38363 0.813271 2.82252 0.682111 3.30276C0.365801 5.11681 0.212249 6.9555 0.223287 8.79688C0.211492 10.6383 0.36505 12.477 0.682111 14.291C0.810572 14.77 1.06141 15.2073 1.41 15.56C1.75858 15.9127 2.19292 16.1687 2.67035 16.3028C4.45858 16.7969 11.4939 16.7969 11.4939 16.7969C14.4461 16.8324 17.3974 16.6752 20.3292 16.3263C20.806 16.1936 21.2397 15.9379 21.5866 15.5848C21.9335 15.2318 22.1814 14.7937 22.3056 14.3145C22.63 12.5014 22.7875 10.6623 22.7762 8.82041C22.8005 6.97022 22.6429 5.12212 22.3056 3.30276ZM9.24682 12.2204V5.37335L15.1292 8.79688L9.24682 12.2204Z" fill="#959DA5"/>
</g>
<defs>
<clipPath id="clip0_1_3366">
<rect vector-effect="non-scaling-stroke" width="22.5529" height="16" fill="white" transform="translate(0.223633 0.796875)"/>
</clipPath>
</defs>
</svg>
