<svg preserveAspectRatio="none" width="66" height="44" viewBox="0 0 66 44" fill="none" xmlns="http://www.w3.org/2000/svg">
<path vector-effect="non-scaling-stroke" d="M4.71923 26.0001V18.4942H1.99463V17.545H8.49853V18.4942H5.77393V26.0001H4.71923ZM12.4506 26.0001L9.33343 17.545H10.4408L12.9252 24.6348H13.019L15.5034 17.545H16.6108L13.4936 26.0001H12.4506ZM26.4316 25.1563C25.7109 25.7891 24.7207 26.1583 23.6953 26.1583C22.0137 26.1583 20.8359 25.1622 20.8359 23.7442C20.8359 22.7422 21.3808 21.9805 22.5117 21.3829C22.5879 21.3477 22.7461 21.2657 22.8398 21.2188C22.0605 20.3985 21.7793 19.8536 21.7793 19.2383C21.7793 18.1543 22.6992 17.3457 23.9355 17.3457C25.1835 17.3457 26.0917 18.1426 26.0917 19.25C26.0917 20.1172 25.5702 20.75 24.2636 21.4355L26.3788 23.7089C26.6425 23.1816 26.7772 22.4901 26.7772 21.4355V21.289H27.7616V21.4413C27.7616 22.7538 27.5272 23.7089 27.0643 24.4237L28.5351 26.0001H27.2109L26.4316 25.1563ZM21.8906 23.6739C21.8906 24.6231 22.6582 25.2677 23.789 25.2677C24.5566 25.2677 25.3476 24.963 25.8105 24.4767L23.4199 21.8634C23.3554 21.8868 23.2031 21.963 23.1211 22.004C22.3066 22.4259 21.8906 23.0118 21.8906 23.6739ZM25.1015 19.2853C25.1015 18.6291 24.6269 18.1837 23.9413 18.1837C23.2675 18.1837 22.787 18.6407 22.787 19.297C22.787 19.7658 23.0272 20.1759 23.6952 20.838C24.7265 20.3106 25.1015 19.8888 25.1015 19.2853ZM38.6191 26.0001V22.1505H33.9785V26.0001H32.9238V17.545H33.9785V21.2012H38.6191V17.545H39.6738V26.0001H38.6191ZM41.2646 22.8419C41.2646 20.8087 42.3779 19.5724 44.1767 19.5724C45.9755 19.5724 47.0888 20.8087 47.0888 22.8419C47.0888 24.8692 45.9755 26.1114 44.1767 26.1114C42.3779 26.1114 41.2646 24.8692 41.2646 22.8419ZM46.0458 22.8419C46.0458 21.3419 45.372 20.4806 44.1767 20.4806C42.9814 20.4806 42.3076 21.3419 42.3076 22.8419C42.3076 24.336 42.9814 25.2032 44.1767 25.2032C45.372 25.2032 46.0458 24.336 46.0458 22.8419ZM48.5512 19.6837H49.5121V20.6798H49.6059C49.893 19.9767 50.5258 19.5724 51.3696 19.5724C52.2251 19.5724 52.8227 20.0236 53.1157 20.6798H53.2095C53.5493 20.0118 54.27 19.5724 55.1431 19.5724C56.4322 19.5724 57.1529 20.3107 57.1529 21.6349V26.0001H56.1451V21.8692C56.1451 20.9376 55.7056 20.4805 54.815 20.4805C53.9361 20.4805 53.3502 21.1367 53.3502 21.9395V26.0001H52.3424V21.711C52.3424 20.961 51.8209 20.4805 51.024 20.4805C50.1978 20.4805 49.5592 21.1953 49.5592 22.086V26.0001H48.5514L48.5512 19.6837ZM64.0639 24.3653C63.7709 25.4434 62.7866 26.1114 61.4037 26.1114C59.6517 26.1114 58.556 24.8458 58.556 22.8477C58.556 20.8614 59.6693 19.5723 61.4037 19.5723C63.1088 19.5723 64.1459 20.7852 64.1459 22.7481V23.1348H59.6049V23.1817C59.6576 24.4297 60.3549 25.2208 61.4272 25.2208C62.2417 25.2208 62.7924 24.922 63.0561 24.3653H64.0639ZM59.6049 22.3204H63.0854C63.062 21.2013 62.394 20.463 61.392 20.463C60.3842 20.463 59.6811 21.2013 59.6049 22.3204Z" fill="black" fill-opacity="0.8"/>
</svg>
