<svg preserveAspectRatio="none" width="17" height="16" viewBox="0 0 17 16" fill="none" xmlns="http://www.w3.org/2000/svg">
<path vector-effect="non-scaling-stroke" d="M2.5 1.75C2.5 0.784 3.284 0 4.25 0H10.836C11.3 0 11.745 0.184 12.073 0.513L14.987 3.427C15.316 3.755 15.5 4.2 15.5 4.664V14.25C15.5 14.7141 15.3156 15.1592 14.9874 15.4874C14.6592 15.8156 14.2141 16 13.75 16H4.25C3.78587 16 3.34075 15.8156 3.01256 15.4874C2.68437 15.1592 2.5 14.7141 2.5 14.25V1.75ZM4.25 1.5C4.1837 1.5 4.12011 1.52634 4.07322 1.57322C4.02634 1.62011 4 1.6837 4 1.75V14.25C4 14.388 4.112 14.5 4.25 14.5H13.75C13.8163 14.5 13.8799 14.4737 13.9268 14.4268C13.9737 14.3799 14 14.3163 14 14.25V6H11.25C10.7859 6 10.3408 5.81563 10.0126 5.48744C9.68437 5.15925 9.5 4.71413 9.5 4.25V1.5H4.25ZM11 1.562V4.25C11 4.388 11.112 4.5 11.25 4.5H13.938L13.927 4.487L11.013 1.573L11 1.562Z" fill="#8B949E"/>
</svg>
