<svg preserveAspectRatio="none" width="17" height="17" viewBox="0 0 17 17" fill="none" xmlns="http://www.w3.org/2000/svg">
<path vector-effect="non-scaling-stroke" d="M7.37408 3.51654C7.08119 3.22365 6.60631 3.22365 6.31342 3.51654C6.02053 3.80943 6.02053 4.28431 6.31342 4.5772L7.37408 3.51654ZM11.0937 8.29687L11.624 8.8272C11.9169 8.53431 11.9169 8.05943 11.624 7.76654L11.0937 8.29687ZM6.31342 12.0166C6.02053 12.3095 6.02053 12.7843 6.31342 13.0772C6.60631 13.3701 7.08119 13.3701 7.37408 13.0772L6.31342 12.0166ZM6.31342 4.5772L10.5634 8.8272L11.624 7.76654L7.37408 3.51654L6.31342 4.5772ZM10.5634 7.76654L6.31342 12.0166L7.37408 13.0772L11.624 8.8272L10.5634 7.76654Z" fill="#58A6FF"/>
<path vector-effect="non-scaling-stroke" d="M1.84375 8.29688H11.0938Z" fill="#58A6FF"/>
<path vector-effect="non-scaling-stroke" d="M1.84375 8.29688H11.0938" stroke="#58A6FF" stroke-width="1.5" stroke-linecap="round" stroke-dasharray="10 10"/>
</svg>
