<svg preserveAspectRatio="none" width="84" height="31" viewBox="0 0 84 31" fill="none" xmlns="http://www.w3.org/2000/svg">
<path vector-effect="non-scaling-stroke" d="M16.4453 14.0835V24.7981C16.4453 24.8728 16.4267 25.0035 16.3333 25.0408C16.3333 25.0408 14 26.7021 10.1547 26.7021C5.50667 26.7021 0 25.2461 0 15.6515C0 6.05681 4.816 4.07814 9.52 4.09681C13.5893 4.09681 15.232 5.01148 15.4933 5.17948C15.568 5.27281 15.6053 5.34748 15.6053 5.44081L14.8213 8.76348C14.8213 8.93148 14.6533 9.13681 14.448 9.08081C13.776 8.87548 12.768 8.46481 10.3973 8.46481C7.65333 8.46481 4.704 9.24881 4.704 15.4275C4.704 21.6061 7.504 22.3341 9.52 22.3341C11.2373 22.3341 11.8533 22.1288 11.8533 22.1288V17.8355H9.10933C8.904 17.8355 8.75467 17.6861 8.75467 17.5181V14.0835C8.75467 13.9155 8.904 13.7661 9.10933 13.7661H16.0907C16.296 13.7661 16.4453 13.9155 16.4453 14.0835ZM83.3653 18.4328C83.3653 24.8355 81.2933 26.6648 77.672 26.6648C74.6107 26.6648 72.968 25.1155 72.968 25.1155C72.968 25.1155 72.8933 25.9741 72.8 26.0861C72.744 26.1981 72.6507 26.2355 72.5387 26.2355H69.776C69.5893 26.2355 69.4213 26.0861 69.4213 25.9181L69.4587 5.17948C69.4587 5.01148 69.608 4.86214 69.776 4.86214H73.752C73.92 4.86214 74.0693 5.01148 74.0693 5.17948V12.2168C74.0693 12.2168 75.6 11.2275 77.84 11.2275L77.8213 11.1901C80.0613 11.1901 83.3653 12.0301 83.3653 18.4328ZM51.6693 4.89948C51.8373 4.89948 51.9867 5.04881 51.9867 5.21681V25.9555C51.9867 26.1235 51.8373 26.2728 51.6693 26.2728H47.6933C47.5253 26.2728 47.376 26.1235 47.376 25.9555L47.4133 17.0888H41.2347V25.9555C41.2347 26.1235 41.0853 26.2728 40.9173 26.2728H36.9413C36.792 26.2728 36.624 26.1235 36.624 25.9555V5.21681C36.624 5.04881 36.7733 4.89948 36.9413 4.89948H40.9173C41.0853 4.89948 41.2347 5.04881 41.2347 5.21681V12.8515H47.4133V5.21681C47.4133 5.04881 47.5627 4.89948 47.7307 4.89948H51.6693ZM67.088 11.6941C67.2933 11.6941 67.4427 11.8435 67.4427 12.0115L67.4053 25.9555C67.4053 26.1235 67.2933 26.2728 67.088 26.2728H64.5867C64.456 26.2728 64.3253 26.1981 64.288 26.1048C64.232 25.9928 64.1387 25.2648 64.1387 25.2648C64.1387 25.2648 62.0293 26.7021 59.4347 26.7021C56.28 26.7021 53.984 25.6755 53.984 21.5688V12.0301C53.984 11.8621 54.1333 11.7128 54.3013 11.7128H58.296C58.464 11.7128 58.6133 11.8621 58.6133 12.0301V20.8968C58.6133 22.2968 59.024 22.9315 60.424 22.9315C61.824 22.9315 62.8507 22.2035 62.8507 22.2035V12.0488C62.8507 11.8435 62.9627 11.6941 63.168 11.6941H67.088ZM34.5968 22.84H34.6061C34.6823 22.8558 34.7505 22.898 34.7986 22.9591C34.8468 23.0202 34.8718 23.0964 34.8693 23.1741V25.9741C34.8693 26.1048 34.8133 26.2355 34.7013 26.2728C34.5147 26.3661 33.32 26.6835 32.3307 26.6835C30.1653 26.6835 26.992 26.2168 26.992 21.6621V15.5395H24.92C24.752 15.5395 24.6027 15.3901 24.6027 15.1848V12.6461C24.6027 12.4968 24.696 12.3661 24.8453 12.3288C24.976 12.3101 27.0107 11.8061 27.0107 11.8061V7.75548C27.0107 7.60614 27.104 7.51281 27.272 7.51281H31.304C31.472 7.51281 31.5653 7.60614 31.5653 7.75548V11.6941H34.5333C34.6827 11.6941 34.832 11.8435 34.832 12.0115V15.1848C34.832 15.3901 34.7013 15.5395 34.5333 15.5395H31.5653V21.384C31.5653 22.2613 32.0693 22.9333 33.5253 22.9333C33.9864 22.9333 34.4232 22.8419 34.5968 22.84ZM22.848 11.6755C23.016 11.6755 23.1653 11.8248 23.1653 11.9928V25.7501C23.1653 26.0861 23.072 26.2541 22.6987 26.2541H19.1147C18.7973 26.2541 18.5547 26.1235 18.5547 25.7501V12.0488C18.5547 11.8435 18.704 11.6755 18.872 11.6755H22.848ZM78.8293 18.7315C78.8293 15.3528 77.4667 14.9048 76.0293 15.0541C74.9093 15.1288 74.0133 15.6888 74.0133 15.6888V22.2595C74.0133 22.2595 74.928 22.8941 76.2907 22.9315C78.2133 22.9875 78.8293 22.2968 78.8293 18.7315ZM20.888 5.36614C22.288 5.36614 23.4267 6.50481 23.4267 7.94214C23.4267 9.37948 22.288 10.5181 20.888 10.5181C19.4507 10.5181 18.312 9.37948 18.312 7.94214C18.312 6.50481 19.4507 5.36614 20.888 5.36614ZM34.5893 22.8195V22.8213L34.608 22.84H34.6061L34.5968 22.8381V22.84C34.58 22.8381 34.5688 22.8195 34.552 22.8195H34.5893Z" fill="#24292F"/>
</svg>
