<svg preserveAspectRatio="none" width="17" height="17" viewBox="0 0 17 17" fill="none" xmlns="http://www.w3.org/2000/svg">
<path vector-effect="non-scaling-stroke" d="M0.34375 0.5H16.3438V16.5H0.34375V0.5ZM15.0331 12.684C14.9164 11.954 14.4411 11.3407 13.0311 10.7687C12.5404 10.5387 11.9951 10.3787 11.8331 10.0087C11.7724 9.78867 11.7631 9.66867 11.8024 9.53867C11.9024 9.108 12.4124 8.97867 12.8124 9.09867C13.0724 9.17867 13.3124 9.37867 13.4631 9.69867C14.1524 9.248 14.1524 9.248 14.6331 8.94867C14.4531 8.66867 14.3638 8.548 14.2424 8.42867C13.8224 7.95867 13.2631 7.71867 12.3531 7.73933L11.8831 7.79867C11.4324 7.90867 11.0031 8.14867 10.7431 8.46867C9.98308 9.32933 10.2024 10.8293 11.1224 11.4493C12.0324 12.1293 13.3631 12.2787 13.5331 12.9193C13.6931 13.6993 12.9531 13.9493 12.2224 13.8593C11.6818 13.7393 11.3824 13.4687 11.0524 12.9687L9.83242 13.6693C9.97242 13.9893 10.1324 14.1287 10.3724 14.4087C11.5324 15.5793 14.4324 15.5193 14.9531 13.7393C14.9724 13.6793 15.1131 13.2693 15.0024 12.6393L15.0331 12.684ZM9.04442 7.854H7.54575C7.54575 9.146 7.53975 10.43 7.53975 11.724C7.53975 12.5453 7.58175 13.2993 7.44775 13.5313C7.22775 13.9907 6.66108 13.932 6.40375 13.8513C6.13975 13.7207 6.00575 13.5407 5.85042 13.2813C5.80842 13.2113 5.77708 13.1507 5.76575 13.1507L4.54908 13.9007C4.75242 14.3207 5.04908 14.682 5.43175 14.912C6.00175 15.252 6.76775 15.362 7.56975 15.182C8.09175 15.0313 8.54175 14.7213 8.77708 14.2413C9.11708 13.6213 9.04508 12.8613 9.04175 12.0107C9.04975 10.6413 9.04175 9.27133 9.04175 7.89133L9.04442 7.854Z" fill="#8B949E"/>
</svg>
