<svg preserveAspectRatio="none" width="17" height="16" viewBox="0 0 17 16" fill="none" xmlns="http://www.w3.org/2000/svg">
<path vector-effect="non-scaling-stroke" d="M8.42188 0C10.5436 0 12.5784 0.842855 14.0787 2.34315C15.579 3.84344 16.4219 5.87827 16.4219 8C16.4219 10.1217 15.579 12.1566 14.0787 13.6569C12.5784 15.1571 10.5436 16 8.42188 16C6.30014 16 4.26531 15.1571 2.76502 13.6569C1.26473 12.1566 0.421875 10.1217 0.421875 8C0.421875 5.87827 1.26473 3.84344 2.76502 2.34315C4.26531 0.842855 6.30014 0 8.42188 0ZM1.92188 8C1.92188 9.72391 2.60669 11.3772 3.82568 12.5962C5.04467 13.8152 6.69797 14.5 8.42188 14.5C10.1458 14.5 11.7991 13.8152 13.0181 12.5962C14.2371 11.3772 14.9219 9.72391 14.9219 8C14.9219 6.27609 14.2371 4.62279 13.0181 3.40381C11.7991 2.18482 10.1458 1.5 8.42188 1.5C6.69797 1.5 5.04467 2.18482 3.82568 3.40381C2.60669 4.62279 1.92188 6.27609 1.92188 8ZM6.80088 5.227L11.0649 7.786C11.1017 7.80825 11.1322 7.83965 11.1534 7.87714C11.1745 7.91463 11.1856 7.95695 11.1856 8C11.1856 8.04305 11.1745 8.08537 11.1534 8.12286C11.1322 8.16035 11.1017 8.19174 11.0649 8.214L6.80088 10.773C6.76296 10.7958 6.71966 10.8082 6.67539 10.8088C6.63113 10.8095 6.5875 10.7983 6.54896 10.7765C6.51041 10.7548 6.47833 10.7232 6.45601 10.685C6.43368 10.6467 6.4219 10.6033 6.42188 10.559V5.442C6.42172 5.39765 6.43337 5.35406 6.45563 5.3157C6.47788 5.27733 6.50994 5.24558 6.54852 5.2237C6.58709 5.20181 6.6308 5.19059 6.67514 5.19117C6.71949 5.19175 6.76289 5.20412 6.80088 5.227Z" fill="#8B949E"/>
</svg>
