<svg preserveAspectRatio="none" width="17" height="17" viewBox="0 0 17 17" fill="none" xmlns="http://www.w3.org/2000/svg">
<path vector-effect="non-scaling-stroke" d="M8.04595 3.51654C7.75306 3.22365 7.27818 3.22365 6.98529 3.51654C6.6924 3.80943 6.6924 4.28431 6.98529 4.5772L8.04595 3.51654ZM11.7656 8.29687L12.2959 8.8272C12.5888 8.53431 12.5888 8.05943 12.2959 7.76654L11.7656 8.29687ZM6.98529 12.0166C6.6924 12.3095 6.6924 12.7843 6.98529 13.0772C7.27818 13.3701 7.75306 13.3701 8.04595 13.0772L6.98529 12.0166ZM6.98529 4.5772L11.2353 8.8272L12.2959 7.76654L8.04595 3.51654L6.98529 4.5772ZM11.2353 7.76654L6.98529 12.0166L8.04595 13.0772L12.2959 8.8272L11.2353 7.76654Z" fill="#0969DA"/>
<path vector-effect="non-scaling-stroke" d="M2.51562 8.29688H11.7656Z" fill="#0969DA"/>
<path vector-effect="non-scaling-stroke" d="M2.51562 8.29688H11.7656" stroke="#0969DA" stroke-width="1.5" stroke-linecap="round" stroke-dasharray="10 10"/>
</svg>
