<svg preserveAspectRatio="none" width="164" height="33" viewBox="0 0 164 33" fill="none" xmlns="http://www.w3.org/2000/svg">
<g clip-path="url(#clip0_1_6249)">
<path vector-effect="non-scaling-stroke" d="M97.235 9.96604V6.64258H85.3789V23.7421H97.235V20.274H90.179V16.4834H96.0473V13.164H90.179V9.96604H97.235Z" fill="#B7BFC7"/>
<path vector-effect="non-scaling-stroke" d="M118.141 20.3679H110.734V6.64258H105.875V23.7421H118.141V20.3679Z" fill="#B7BFC7"/>
<path vector-effect="non-scaling-stroke" d="M157.277 13.1592C153.998 12.4205 152.85 12.3349 152.85 11.0304C152.85 9.81994 154.475 9.44343 155.41 9.44343C156.921 9.44343 158.706 9.79594 160.526 10.7287L161.849 7.58211C159.984 6.56573 157.592 6.14258 155.291 6.14258C150.769 6.14258 147.735 7.97715 147.608 11.5537C147.479 14.8155 150.131 16.0355 152.568 16.5389C154.918 17.0244 157.301 17.44 157.349 18.8357C157.393 20.123 156.235 20.6744 154.051 20.6744C152.028 20.6744 150.147 20.0242 148.225 19.2191L147.102 22.6393C149.311 23.5788 151.554 24.0966 153.866 24.0966C157.078 24.0966 159.423 23.5953 161.148 21.9755C162.344 20.8631 162.735 19.5202 162.735 18.2384C162.738 15.5356 161.054 14.0131 157.277 13.1592Z" fill="#B7BFC7"/>
<path vector-effect="non-scaling-stroke" d="M78.4857 10.0182V6.64258H63.5732V10.0182H68.6113V23.7421H73.4416V10.0182H78.4857Z" fill="#B7BFC7"/>
<path vector-effect="non-scaling-stroke" d="M134.719 6.64258V17.5066C134.719 18.3578 134.719 18.5929 134.668 18.9242C134.511 19.9598 133.508 20.5606 131.908 20.5819C130.723 20.5627 129.855 20.2122 129.45 19.5929C129.247 19.2747 129.148 18.7027 129.148 17.7892V6.64258H124.108V18.427C124.108 20.0599 124.327 20.7972 125.065 21.7292C126.28 23.2497 128.652 24.0493 131.918 24.0493C131.954 24.0493 131.986 24.0493 132.025 24.0493C132.042 24.0493 132.072 24.0493 132.097 24.0493C136.469 24.0493 138.727 22.3444 139.379 20.7492C139.705 19.9756 139.729 19.6093 139.729 18.0484V6.64258H134.719Z" fill="#B7BFC7"/>
<path vector-effect="non-scaling-stroke" d="M65.8494 1.96021L37.5889 7.58668V9.55772L37.6787 9.53441C56.3481 4.99633 65.8488 2.26678 65.9256 2.24757C66.0312 2.22014 66.0683 2.13785 66.0539 2.06857C66.038 1.99588 65.9619 1.93552 65.8494 1.96021Z" fill="#B7BFC7"/>
<path vector-effect="non-scaling-stroke" d="M42.8719 1.42277C41.4982 1.50095 38.9545 3.53578 37.5582 4.74419C31.9982 9.55453 27.8641 13.976 24.8582 18.6066C18.5919 21.963 10.6013 25.4148 2.66915 28.1087L2.47781 28.1731L0.951172 32.2839L1.82285 31.9472C6.86911 30.0242 15.2917 26.4127 22.9269 22.3979C22.4969 23.5446 22.2802 24.5987 22.2802 25.5595C22.2802 26.2761 22.4002 26.9428 22.6396 27.5483C23.1196 28.7581 24.066 29.6744 25.378 30.1949C27.3319 30.9747 29.9977 30.9891 33.0393 30.0681C40.8096 27.7129 50.0263 20.4817 52.0331 19.0435L52.1099 18.9894C52.1887 18.9325 52.1943 18.8467 52.1613 18.7884C52.1174 18.7219 52.0249 18.704 51.9487 18.7507L51.8499 18.8104C49.6965 20.1031 39.2322 26.316 32.4303 28.1402C28.9655 29.0696 26.3252 28.562 25.3293 27.1692C24.9837 26.6932 24.817 26.091 24.817 25.3888C24.817 24.0178 25.4624 22.2724 26.7051 20.3322C27.849 19.6814 28.9176 19.0449 29.8804 18.44C36.5164 14.7105 44.1619 7.45935 44.4884 3.03307C44.4898 3.0029 44.4898 2.96792 44.4898 2.935C44.4898 2.553 44.3245 2.16003 44.0344 1.86992C43.723 1.55239 43.3129 1.39397 42.8719 1.42277ZM42.1319 3.53235C42.5674 3.25048 42.6929 3.42673 42.5646 3.74496C42.3576 4.25315 41.3994 7.31053 34.2855 13.151C32.4289 14.6715 31.1087 15.5253 28.4354 17.1081C32.813 10.9735 39.2041 5.43345 42.1319 3.53235Z" fill="#B7BFC7"/>
<path vector-effect="non-scaling-stroke" d="M37.496 7.60547L7.7629 13.9966L6.61621 17.089L37.5885 9.55731L38.5466 9.01621L38.5199 7.6089L37.496 7.60547Z" fill="#B7BFC7"/>
</g>
<defs>
<clipPath id="clip0_1_6249">
<rect vector-effect="non-scaling-stroke" width="162.812" height="31.9978" fill="white" transform="translate(0.328125 0.500977)"/>
</clipPath>
</defs>
</svg>
