<svg preserveAspectRatio="none" width="17" height="17" viewBox="0 0 17 17" fill="none" xmlns="http://www.w3.org/2000/svg">
<path vector-effect="non-scaling-stroke" d="M0.5 2.71875C0.5 2.51984 0.579018 2.32908 0.71967 2.18842C0.860322 2.04777 1.05109 1.96875 1.25 1.96875H5.503C6.73 1.96875 7.82 2.55875 8.503 3.46975C8.85212 3.00303 9.30542 2.62428 9.82677 2.36369C10.3481 2.10309 10.9231 1.96786 11.506 1.96875H15.751C15.9499 1.96875 16.1407 2.04777 16.2813 2.18842C16.422 2.32908 16.501 2.51984 16.501 2.71875V13.2188C16.501 13.4177 16.422 13.6084 16.2813 13.7491C16.1407 13.8897 15.9499 13.9688 15.751 13.9688H11.244C10.9485 13.9688 10.6559 14.0269 10.383 14.14C10.11 14.2531 9.86193 14.4188 9.653 14.6278L9.031 15.2488C8.89037 15.3892 8.69975 15.4681 8.501 15.4681C8.30225 15.4681 8.11163 15.3892 7.971 15.2488L7.349 14.6278C7.14007 14.4188 6.89203 14.2531 6.61904 14.14C6.34606 14.0269 6.05348 13.9688 5.758 13.9688H1.25C1.05109 13.9688 0.860322 13.8897 0.71967 13.7491C0.579018 13.6084 0.5 13.4177 0.5 13.2188V2.71875ZM7.751 13.0428L7.755 7.96975L7.753 5.71675C7.75247 5.12036 7.51518 4.54858 7.09328 4.12706C6.67138 3.70553 6.09939 3.46875 5.503 3.46875H2V12.4688H5.757C6.46242 12.4687 7.15355 12.6677 7.751 13.0428ZM9.255 5.71875L9.251 13.0408C9.84813 12.6668 10.5385 12.4686 11.243 12.4688H15V3.46875H11.505C10.9083 3.46875 10.336 3.70581 9.91401 4.12776C9.49205 4.54972 9.255 5.12202 9.255 5.71875Z" fill="#8B949E"/>
</svg>
