<svg preserveAspectRatio="none" width="16" height="16" viewBox="0 0 16 16" fill="none" xmlns="http://www.w3.org/2000/svg">
<path vector-effect="non-scaling-stroke" d="M7.88563 15.7948C12.1923 15.8062 15.7384 12.2738 15.7526 7.96717C15.7668 3.66789 12.2366 0.116563 7.93735 0.105085C3.63066 0.0935869 0.0845276 3.62603 0.0703552 7.92526C0.0561585 12.2319 3.58636 15.7833 7.88563 15.7948ZM7.08243 11.6715C6.74829 11.6707 6.48888 11.5214 6.25224 11.2312L4.51413 9.14746C4.34404 8.93909 4.27782 8.75329 4.27853 8.53796C4.28005 8.07762 4.65251 7.71473 5.10546 7.71597C5.37276 7.71669 5.58034 7.82116 5.78003 8.05935L7.06679 9.6592L9.97781 5.06326C10.1719 4.75191 10.4175 4.59663 10.7071 4.59741C11.1526 4.59859 11.5599 4.9264 11.5584 5.38679C11.5578 5.57238 11.4828 5.7727 11.3485 5.96537L7.88584 11.2282C7.69183 11.5098 7.40171 11.6724 7.08243 11.6715Z" fill="#F4569A"/>
</svg>
