<svg preserveAspectRatio="none" width="45" height="44" viewBox="0 0 45 44" fill="none" xmlns="http://www.w3.org/2000/svg">
<path vector-effect="non-scaling-stroke" d="M42.1832 18.0341V19.6691H43.5892V20.5131H42.1832V24.0871C42.1832 24.8311 42.4642 25.1471 43.1202 25.1471C43.3022 25.1471 43.4022 25.1411 43.5892 25.1241V25.9731C43.3902 26.0091 43.1972 26.0321 42.9972 26.0321C41.6972 26.0321 41.1752 25.5521 41.1752 24.3451V20.5131H40.1562V19.6691H41.1752V18.0341H42.1832ZM36.0522 19.6691H37.0132V20.6061H37.1062C37.2942 19.9911 38.0202 19.5571 38.8582 19.5571C39.0222 19.5571 39.2332 19.5691 39.3622 19.5871V20.5951C39.2802 20.5711 38.9172 20.5361 38.7182 20.5361C37.7572 20.5361 37.0592 21.1801 37.0592 22.0711V25.9851H36.0522V19.6691ZM33.5892 22.8271C33.5892 21.3271 32.9152 20.4661 31.7202 20.4661C30.5252 20.4661 29.8512 21.3271 29.8512 22.8271C29.8512 24.3211 30.5252 25.1881 31.7202 25.1881C32.9152 25.1881 33.5892 24.3211 33.5892 22.8271ZM28.8082 22.8271C28.8082 20.7941 29.9212 19.5571 31.7202 19.5571C33.5192 19.5571 34.6322 20.7941 34.6322 22.8271C34.6322 24.8541 33.5192 26.0971 31.7202 26.0971C29.9212 26.0971 28.8082 24.8541 28.8082 22.8271ZM26.7002 22.8271C26.7002 21.3501 26.0082 20.4661 24.8542 20.4661C23.7112 20.4661 22.9912 21.3741 22.9912 22.8271C22.9912 24.2741 23.7112 25.1881 24.8482 25.1881C26.0082 25.1881 26.7002 24.3041 26.7002 22.8271ZM27.7432 22.8271C27.7432 24.8021 26.6942 26.0971 25.0882 26.0971C24.1862 26.0971 23.4592 25.7041 23.1142 25.0361H23.0202V28.0951H22.0122V19.6691H22.9732V20.7231H23.0672C23.4712 19.9971 24.2272 19.5571 25.0882 19.5571C26.7002 19.5571 27.7432 20.8411 27.7432 22.8271ZM19.6952 22.8271C19.6952 21.3501 19.0042 20.4661 17.8502 20.4661C16.7072 20.4661 15.9862 21.3741 15.9862 22.8271C15.9862 24.2741 16.7072 25.1881 17.8442 25.1881C19.0042 25.1881 19.6952 24.3041 19.6952 22.8271ZM20.7382 22.8271C20.7382 24.8021 19.6892 26.0971 18.0842 26.0971C17.1822 26.0971 16.4552 25.7041 16.1092 25.0361H16.0162V28.0951H15.0082V19.6691H15.9692V20.7231H16.0622C16.4672 19.9971 17.2232 19.5571 18.0842 19.5571C19.6952 19.5571 20.7382 20.8411 20.7382 22.8271ZM13.0932 25.9851H12.1322V24.9951H12.0382C11.7222 25.6981 11.0482 26.0971 10.0812 26.0971C8.66318 26.0971 7.92518 25.2531 7.92518 23.7591V19.6691H8.93318V23.5131C8.93318 24.6491 9.35518 25.1771 10.3632 25.1771C11.4762 25.1771 12.0852 24.5141 12.0852 23.4071V19.6691H13.0932V25.9851ZM1.40318 23.7761C1.53218 24.6611 2.37518 25.2231 3.57718 25.2231C4.71318 25.2231 5.55118 24.6081 5.55118 23.7701C5.55118 23.0501 5.02418 22.5931 3.85818 22.3001L2.77418 22.0181C1.24518 21.6321 0.582182 20.9401 0.582182 19.7391C0.582182 18.3041 1.78418 17.3311 3.57118 17.3311C5.20518 17.3311 6.42418 18.3041 6.51218 19.6691H5.45218C5.30518 18.8021 4.59018 18.2861 3.53618 18.2861C2.41118 18.2861 1.66618 18.8481 1.66618 19.7041C1.66618 20.3661 2.12918 20.7471 3.29518 21.0461L4.18018 21.2801C5.93218 21.7201 6.63518 22.3991 6.63518 23.6411C6.63518 25.1941 5.41118 26.1841 3.47718 26.1841C1.68418 26.1841 0.448182 25.2351 0.336182 23.7761H1.40318Z" fill="black" fill-opacity="0.8"/>
</svg>
