<svg preserveAspectRatio="none" width="25" height="25" viewBox="0 0 25 25" fill="none" xmlns="http://www.w3.org/2000/svg">
<path vector-effect="non-scaling-stroke" d="M12.5 0.65625C19.13 0.65625 24.5 6.02625 24.5 12.6562C24.4994 15.1706 23.7103 17.6214 22.2438 19.6637C20.7773 21.706 18.7072 23.237 16.325 24.0413C15.725 24.1613 15.5 23.7863 15.5 23.4713C15.5 23.0663 15.515 21.7763 15.515 20.1713C15.515 19.0463 15.14 18.3262 14.705 17.9512C17.375 17.6512 20.18 16.6312 20.18 12.0262C20.18 10.7062 19.715 9.64125 18.95 8.80125C19.07 8.50125 19.49 7.27125 18.83 5.62125C18.83 5.62125 17.825 5.29125 15.53 6.85125C14.57 6.58125 13.55 6.44625 12.53 6.44625C11.51 6.44625 10.49 6.58125 9.53 6.85125C7.235 5.30625 6.23 5.62125 6.23 5.62125C5.57 7.27125 5.99 8.50125 6.11 8.80125C5.345 9.64125 4.88 10.7212 4.88 12.0262C4.88 16.6162 7.67 17.6512 10.34 17.9512C9.995 18.2512 9.68 18.7763 9.575 19.5563C8.885 19.8713 7.16 20.3812 6.08 18.5662C5.855 18.2062 5.18 17.3212 4.235 17.3362C3.23 17.3512 3.83 17.9062 4.25 18.1312C4.76 18.4162 5.345 19.4812 5.48 19.8262C5.72 20.5012 6.5 21.7913 9.515 21.2363C9.515 22.2413 9.53 23.1863 9.53 23.4713C9.53 23.7863 9.305 24.1463 8.705 24.0413C6.31496 23.2457 4.2361 21.7178 2.76334 19.6742C1.29057 17.6306 0.498679 15.1752 0.500002 12.6562C0.500002 6.02625 5.87 0.65625 12.5 0.65625Z" fill="#6E7681"/>
</svg>
