<svg preserveAspectRatio="none" width="23" height="19" viewBox="0 0 23 19" fill="none" xmlns="http://www.w3.org/2000/svg">
<path vector-effect="non-scaling-stroke" d="M22.5781 2.75618C21.7512 3.12514 20.8728 3.36538 19.9733 3.46857C20.9224 2.9034 21.6329 2.01109 21.9714 0.95903C21.0779 1.48682 20.1014 1.85909 19.0834 2.05999C18.4607 1.39623 17.653 0.935093 16.7652 0.736412C15.8773 0.537732 14.9503 0.610682 14.1043 0.945797C13.2584 1.28091 12.5327 1.86272 12.0213 2.61572C11.5099 3.36872 11.2365 4.25814 11.2365 5.16858C11.2355 5.51759 11.2762 5.86546 11.3579 6.20477C9.55297 6.11324 7.78733 5.64373 6.1751 4.82659C4.56287 4.00945 3.13992 2.86286 1.99823 1.46094C1.41743 2.46099 1.23968 3.64509 1.50124 4.77177C1.76279 5.89846 2.44395 6.88288 3.40582 7.52431C2.68564 7.50145 1.98127 7.30719 1.35107 6.95764V7.0143C1.35105 8.06287 1.71356 9.07916 2.37709 9.89071C3.04062 10.7023 3.96429 11.2591 4.99138 11.4667C4.60137 11.5743 4.19866 11.6287 3.79412 11.6286C3.50651 11.6261 3.21963 11.599 2.93663 11.5477C3.22681 12.45 3.79122 13.2392 4.55112 13.8052C5.31101 14.3712 6.22849 14.6857 7.17556 14.7048C5.56635 15.9657 3.58093 16.6498 1.53713 16.6477C1.17486 16.6465 0.812954 16.6249 0.453125 16.5829C2.52839 17.9171 4.94355 18.6253 7.41016 18.6229C15.7586 18.6229 20.3211 11.7015 20.3211 5.70287C20.3211 5.50858 20.313 5.3062 20.305 5.11191C21.1967 4.46823 21.9665 3.67048 22.5781 2.75618Z" fill="#959DA5"/>
</svg>
