<svg preserveAspectRatio="none" width="19" height="19" viewBox="0 0 19 19" fill="none" xmlns="http://www.w3.org/2000/svg">
<path vector-effect="non-scaling-stroke" d="M3.94043 2.62505C3.94025 3.02313 3.82128 3.4121 3.59875 3.74217C3.37622 4.07224 3.06025 4.3284 2.69129 4.47785C2.32233 4.6273 1.91716 4.66325 1.52765 4.58109C1.13814 4.49893 0.782014 4.3024 0.504848 4.01666C0.227681 3.73092 0.0420896 3.36897 -0.0281709 2.97714C-0.0984315 2.58531 -0.0501643 2.18143 0.110452 1.81719C0.271069 1.45295 0.536727 1.14493 0.873422 0.932551C1.21012 0.720174 1.60253 0.613104 2.00043 0.625046C2.5204 0.640652 3.01382 0.858235 3.37601 1.23163C3.73821 1.60502 3.94066 2.10485 3.94043 2.62505ZM4.00043 6.10505H0.000430688V18.625H4.00043V6.10505ZM10.3204 6.10505H6.34043V18.625H10.2804V12.055C10.2804 8.39505 15.0504 8.05505 15.0504 12.055V18.625H19.0004V10.695C19.0004 4.52505 11.9404 4.75505 10.2804 7.78505L10.3204 6.10505Z" fill="#959DA5"/>
</svg>
