<svg preserveAspectRatio="none" width="17" height="16" viewBox="0 0 17 16" fill="none" xmlns="http://www.w3.org/2000/svg">
<path vector-effect="non-scaling-stroke" d="M6.25 2.5H14.75C14.9489 2.5 15.1397 2.57902 15.2803 2.71967C15.421 2.86032 15.5 3.05109 15.5 3.25C15.5 3.44891 15.421 3.63968 15.2803 3.78033C15.1397 3.92098 14.9489 4 14.75 4H6.25C6.05109 4 5.86032 3.92098 5.71967 3.78033C5.57902 3.63968 5.5 3.44891 5.5 3.25C5.5 3.05109 5.57902 2.86032 5.71967 2.71967C5.86032 2.57902 6.05109 2.5 6.25 2.5ZM6.25 7.5H14.75C14.9489 7.5 15.1397 7.57902 15.2803 7.71967C15.421 7.86032 15.5 8.05109 15.5 8.25C15.5 8.44891 15.421 8.63968 15.2803 8.78033C15.1397 8.92098 14.9489 9 14.75 9H6.25C6.05109 9 5.86032 8.92098 5.71967 8.78033C5.57902 8.63968 5.5 8.44891 5.5 8.25C5.5 8.05109 5.57902 7.86032 5.71967 7.71967C5.86032 7.57902 6.05109 7.5 6.25 7.5ZM6.25 12.5H14.75C14.9489 12.5 15.1397 12.579 15.2803 12.7197C15.421 12.8603 15.5 13.0511 15.5 13.25C15.5 13.4489 15.421 13.6397 15.2803 13.7803C15.1397 13.921 14.9489 14 14.75 14H6.25C6.05109 14 5.86032 13.921 5.71967 13.7803C5.57902 13.6397 5.5 13.4489 5.5 13.25C5.5 13.0511 5.57902 12.8603 5.71967 12.7197C5.86032 12.579 6.05109 12.5 6.25 12.5ZM2.5 14C2.23478 14 1.98043 13.8946 1.79289 13.7071C1.60536 13.5196 1.5 13.2652 1.5 13C1.5 12.7348 1.60536 12.4804 1.79289 12.2929C1.98043 12.1054 2.23478 12 2.5 12C2.76522 12 3.01957 12.1054 3.20711 12.2929C3.39464 12.4804 3.5 12.7348 3.5 13C3.5 13.2652 3.39464 13.5196 3.20711 13.7071C3.01957 13.8946 2.76522 14 2.5 14ZM3.5 8C3.5 8.26522 3.39464 8.51957 3.20711 8.70711C3.01957 8.89464 2.76522 9 2.5 9C2.23478 9 1.98043 8.89464 1.79289 8.70711C1.60536 8.51957 1.5 8.26522 1.5 8C1.5 7.73478 1.60536 7.48043 1.79289 7.29289C1.98043 7.10536 2.23478 7 2.5 7C2.76522 7 3.01957 7.10536 3.20711 7.29289C3.39464 7.48043 3.5 7.73478 3.5 8ZM2.5 4C2.23478 4 1.98043 3.89464 1.79289 3.70711C1.60536 3.51957 1.5 3.26522 1.5 3C1.5 2.73478 1.60536 2.48043 1.79289 2.29289C1.98043 2.10536 2.23478 2 2.5 2C2.76522 2 3.01957 2.10536 3.20711 2.29289C3.39464 2.48043 3.5 2.73478 3.5 3C3.5 3.26522 3.39464 3.51957 3.20711 3.70711C3.01957 3.89464 2.76522 4 2.5 4Z" fill="#8B949E"/>
</svg>
