<svg preserveAspectRatio="none" width="39" height="44" viewBox="0 0 39 44" fill="none" xmlns="http://www.w3.org/2000/svg">
<path vector-effect="non-scaling-stroke" d="M33.338 22.3206H36.818C36.795 21.2016 36.127 20.4636 35.125 20.4636C34.117 20.4636 33.414 21.2016 33.338 22.3206ZM37.797 24.3656C37.504 25.4436 36.52 26.1116 35.137 26.1116C33.385 26.1116 32.289 24.8456 32.289 22.8476C32.289 20.8616 33.402 19.5726 35.137 19.5726C36.842 19.5726 37.879 20.7856 37.879 22.7486V23.1346H33.338V23.1816C33.391 24.4296 34.088 25.2206 35.16 25.2206C35.975 25.2206 36.526 24.9226 36.789 24.3656H37.797ZM25.515 19.6836H26.476V20.6796H26.57C26.886 19.9826 27.502 19.5726 28.468 19.5726C29.886 19.5726 30.677 20.4106 30.677 21.9106V26.0006H29.67V22.1566C29.67 21.0196 29.189 20.4806 28.181 20.4806C27.173 20.4806 26.523 21.1546 26.523 22.2616V26.0006H25.515V19.6836ZM23.016 22.8416C23.016 21.3416 22.342 20.4806 21.147 20.4806C19.951 20.4806 19.277 21.3416 19.277 22.8416C19.277 24.3366 19.951 25.2036 21.147 25.2036C22.342 25.2036 23.016 24.3366 23.016 22.8416ZM18.234 22.8416C18.234 20.8086 19.348 19.5726 21.147 19.5726C22.945 19.5726 24.059 20.8086 24.059 22.8416C24.059 24.8696 22.945 26.1116 21.147 26.1116C19.348 26.1116 18.234 24.8696 18.234 22.8416ZM11.598 17.1756H12.606V20.6796H12.699C13.016 19.9826 13.678 19.5726 14.645 19.5726C15.981 19.5726 16.824 20.4276 16.824 21.9106V26.0006H15.817V22.1566C15.817 21.0376 15.313 20.4806 14.358 20.4806C13.227 20.4806 12.606 21.1956 12.606 22.2616V26.0006H11.598V17.1756ZM5.58296 22.0456H7.44596C8.64796 22.0456 9.34496 21.4006 9.34496 20.2816C9.34496 19.1216 8.67096 18.4826 7.44596 18.4826H5.58296V22.0456ZM7.72196 17.5456C9.32096 17.5456 10.429 18.6706 10.429 20.2816C10.429 21.8636 9.29796 22.9826 7.70996 22.9826H5.58296V26.0006H4.52796V17.5456H7.72196ZM1.60796 25.9996H2.61596V19.6836H1.60796V25.9996ZM1.40796 17.7616C1.40796 17.3756 1.72496 17.0586 2.11096 17.0586C2.49796 17.0586 2.81496 17.3756 2.81496 17.7616C2.81496 18.1486 2.49796 18.4656 2.11096 18.4656C1.72496 18.4656 1.40796 18.1486 1.40796 17.7616Z" fill="black" fill-opacity="0.8"/>
</svg>
