<svg preserveAspectRatio="none" width="21" height="21" viewBox="0 0 21 21" fill="none" xmlns="http://www.w3.org/2000/svg">
<path vector-effect="non-scaling-stroke" d="M9.77228 4.52458C9.40617 4.15847 8.81257 4.15847 8.44646 4.52458C8.08035 4.8907 8.08035 5.4843 8.44646 5.85041L9.77228 4.52458ZM14.4219 10.5L15.0847 11.1629C15.4509 10.7968 15.4509 10.2032 15.0847 9.83708L14.4219 10.5ZM8.44646 15.1496C8.08035 15.5157 8.08035 16.1092 8.44646 16.4754C8.81257 16.8415 9.40617 16.8415 9.77228 16.4754L8.44646 15.1496ZM8.44646 5.85041L13.759 11.1629L15.0847 9.83708L9.77228 4.52458L8.44646 5.85041ZM13.759 9.83708L8.44646 15.1496L9.77228 16.4754L15.0847 11.1629L13.759 9.83708Z" fill="white"/>
<path vector-effect="non-scaling-stroke" d="M2.85938 10.5H14.4219Z" fill="white"/>
<path vector-effect="non-scaling-stroke" d="M2.85938 10.5H14.4219" stroke="white" stroke-width="1.875" stroke-linecap="round" stroke-dasharray="12.5 12.5"/>
</svg>
