<svg preserveAspectRatio="none" width="17" height="17" viewBox="0 0 17 17" fill="none" xmlns="http://www.w3.org/2000/svg">
<path vector-effect="non-scaling-stroke" d="M8.49956 2.96875C10.4806 2.96875 12.1706 3.96075 13.4326 5.04675C14.7026 6.13775 15.6196 7.39175 16.0696 8.06975C16.2471 8.33594 16.3419 8.64876 16.3419 8.96875C16.3419 9.28874 16.2471 9.60156 16.0696 9.86775C15.6196 10.5458 14.7026 11.7997 13.4326 12.8907C12.1696 13.9767 10.4806 14.9688 8.49956 14.9688C6.51856 14.9688 4.82856 13.9767 3.56656 12.8907C2.29656 11.7987 1.37956 10.5447 0.929562 9.86675C0.75199 9.60056 0.657227 9.28774 0.657227 8.96775C0.657227 8.64776 0.75199 8.33494 0.929562 8.06875C1.37956 7.39175 2.29656 6.13775 3.56656 5.04675C4.82956 3.96075 6.51856 2.96875 8.49956 2.96875ZM2.17856 8.90075C2.1648 8.92076 2.15744 8.94447 2.15744 8.96875C2.15744 8.99303 2.1648 9.01674 2.17856 9.03675C2.58956 9.65875 3.41956 10.7867 4.54456 11.7537C5.67556 12.7267 7.02656 13.4688 8.49956 13.4688C9.97256 13.4688 11.3246 12.7267 12.4546 11.7537C13.5786 10.7867 14.4086 9.65775 14.8206 9.03675C14.8343 9.01674 14.8417 8.99303 14.8417 8.96875C14.8417 8.94447 14.8343 8.92076 14.8206 8.90075C14.4086 8.27975 13.5786 7.15075 12.4546 6.18375C11.3236 5.21075 9.97256 4.46875 8.49956 4.46875C7.02656 4.46875 5.67456 5.21075 4.54456 6.18375C3.42056 7.15075 2.59056 8.27975 2.17856 8.90075ZM8.49956 10.9688C8.23322 10.9748 7.96837 10.9275 7.72054 10.8298C7.47271 10.732 7.24691 10.5858 7.05639 10.3995C6.86587 10.2133 6.71447 9.99093 6.61109 9.74541C6.5077 9.49988 6.45441 9.23617 6.45435 8.96976C6.45428 8.70335 6.50744 8.43962 6.6107 8.19404C6.71396 7.94846 6.86525 7.72598 7.05567 7.53968C7.2461 7.35337 7.47183 7.20698 7.71961 7.10911C7.96739 7.01124 8.23222 6.96386 8.49856 6.96975C9.02112 6.98131 9.5184 7.19697 9.88393 7.57059C10.2495 7.9442 10.4542 8.44607 10.4543 8.96876C10.4545 9.49145 10.25 9.99342 9.88463 10.3672C9.51928 10.741 9.02212 10.9569 8.49956 10.9688Z" fill="#8B949E"/>
</svg>
