<svg preserveAspectRatio="none" width="21" height="20" viewBox="0 0 21 20" fill="none" xmlns="http://www.w3.org/2000/svg">
<path vector-effect="non-scaling-stroke" d="M10.0692 4.02458C9.70305 3.65847 9.10945 3.65847 8.74333 4.02458C8.37722 4.3907 8.37722 4.9843 8.74333 5.35041L10.0692 4.02458ZM14.7187 10L15.3816 10.6629C15.7477 10.2968 15.7477 9.7032 15.3816 9.33708L14.7187 10ZM8.74333 14.6496C8.37722 15.0157 8.37722 15.6092 8.74333 15.9754C9.10945 16.3415 9.70305 16.3415 10.0692 15.9754L8.74333 14.6496ZM8.74333 5.35041L14.0559 10.6629L15.3816 9.33708L10.0692 4.02458L8.74333 5.35041ZM14.0559 9.33708L8.74333 14.6496L10.0692 15.9754L15.3816 10.6629L14.0559 9.33708Z" fill="white"/>
<path vector-effect="non-scaling-stroke" d="M3.15625 10H14.7188Z" fill="white"/>
<path vector-effect="non-scaling-stroke" d="M3.15625 10H14.7188" stroke="white" stroke-width="1.875" stroke-linecap="round" stroke-dasharray="12.5 12.5"/>
</svg>
