<svg preserveAspectRatio="none" width="17" height="17" viewBox="0 0 17 17" fill="none" xmlns="http://www.w3.org/2000/svg">
<path vector-effect="non-scaling-stroke" d="M8.97461 14.9717L9.31961 15.6377C9.213 15.6929 9.09468 15.7217 8.97461 15.7217C8.85454 15.7217 8.73622 15.6929 8.62961 15.6377L8.62161 15.6337L8.60361 15.6237C8.49889 15.5696 8.39553 15.5129 8.29361 15.4537C7.0748 14.76 5.92493 13.9517 4.85961 13.0397C3.01961 11.4527 0.974609 9.07168 0.974609 6.22168C0.974609 3.55768 3.06061 1.72168 5.22461 1.72168C6.77161 1.72168 8.12761 2.52368 8.97461 3.74168C9.82161 2.52368 11.1776 1.72168 12.7246 1.72168C14.8886 1.72168 16.9746 3.55768 16.9746 6.22168C16.9746 9.07168 14.9296 11.4527 13.0896 13.0397C11.934 14.0277 10.6793 14.8936 9.34561 15.6237L9.32761 15.6337L9.32161 15.6367H9.31961L8.97461 14.9717ZM5.22461 3.22168C3.88861 3.22168 2.47461 4.38568 2.47461 6.22168C2.47461 8.37168 4.05461 10.3657 5.83961 11.9037C6.81349 12.7367 7.86305 13.4769 8.97461 14.1147C10.0862 13.4769 11.1357 12.7367 12.1096 11.9037C13.8946 10.3657 15.4746 8.37168 15.4746 6.22168C15.4746 4.38568 14.0606 3.22168 12.7246 3.22168C11.3516 3.22168 10.1156 4.20768 9.69561 5.67768C9.65138 5.83485 9.55701 5.97327 9.42685 6.07186C9.29669 6.17045 9.13789 6.2238 8.97461 6.2238C8.81133 6.2238 8.65252 6.17045 8.52237 6.07186C8.39221 5.97327 8.29784 5.83485 8.25361 5.67768C7.83361 4.20768 6.59761 3.22168 5.22461 3.22168Z" fill="#C9D1D9"/>
</svg>
