<svg preserveAspectRatio="none" width="17" height="17" viewBox="0 0 17 17" fill="none" xmlns="http://www.w3.org/2000/svg">
<path vector-effect="non-scaling-stroke" d="M5.5 6.34056V7.21856C5.5 7.63256 5.836 7.96856 6.25 7.96856H10.75C10.9489 7.96856 11.1397 7.88954 11.2803 7.74889C11.421 7.60824 11.5 7.41747 11.5 7.21856V6.34056C10.9996 6.16364 10.5778 5.81551 10.3093 5.3577C10.0407 4.89989 9.94265 4.36188 10.0324 3.83876C10.1222 3.31564 10.394 2.84109 10.7998 2.49898C11.2056 2.15687 11.7192 1.96924 12.25 1.96924C12.7808 1.96924 13.2944 2.15687 13.7002 2.49898C14.1061 2.84109 14.3778 3.31564 14.4676 3.83876C14.5574 4.36188 14.4593 4.89989 14.1907 5.3577C13.9222 5.81551 13.5004 6.16364 13 6.34056V7.21856C13 7.8153 12.763 8.38759 12.341 8.80955C11.919 9.23151 11.3467 9.46856 10.75 9.46856H9.25V11.5966C9.75069 11.7735 10.1727 12.1217 10.4415 12.5797C10.7102 13.0378 10.8084 13.576 10.7186 14.0994C10.6289 14.6228 10.357 15.0976 9.95096 15.4399C9.54497 15.7822 9.03104 15.9699 8.5 15.9699C7.96897 15.9699 7.45504 15.7822 7.04905 15.4399C6.64306 15.0976 6.37115 14.6228 6.28139 14.0994C6.19164 13.576 6.28981 13.0378 6.55855 12.5797C6.8273 12.1217 7.24932 11.7735 7.75 11.5966V9.46856H6.25C5.65327 9.46856 5.08097 9.23151 4.65901 8.80955C4.23706 8.38759 4 7.8153 4 7.21856V6.34056C3.49959 6.16364 3.07784 5.81551 2.80928 5.3577C2.54072 4.89989 2.44265 4.36188 2.53241 3.83876C2.62216 3.31564 2.89396 2.84109 3.29976 2.49898C3.70556 2.15687 4.21924 1.96924 4.75 1.96924C5.28077 1.96924 5.79445 2.15687 6.20025 2.49898C6.60605 2.84109 6.87785 3.31564 6.9676 3.83876C7.05735 4.36188 6.95929 4.89989 6.69073 5.3577C6.42217 5.81551 6.00042 6.16364 5.5 6.34056ZM5.5 4.21856C5.5 4.01965 5.42099 3.82888 5.28033 3.68823C5.13968 3.54758 4.94892 3.46856 4.75 3.46856C4.55109 3.46856 4.36033 3.54758 4.21967 3.68823C4.07902 3.82888 4 4.01965 4 4.21856C4 4.41747 4.07902 4.60824 4.21967 4.74889C4.36033 4.88954 4.55109 4.96856 4.75 4.96856C4.94892 4.96856 5.13968 4.88954 5.28033 4.74889C5.42099 4.60824 5.5 4.41747 5.5 4.21856ZM12.25 4.96856C12.4489 4.96856 12.6397 4.88954 12.7803 4.74889C12.921 4.60824 13 4.41747 13 4.21856C13 4.01965 12.921 3.82888 12.7803 3.68823C12.6397 3.54758 12.4489 3.46856 12.25 3.46856C12.0511 3.46856 11.8603 3.54758 11.7197 3.68823C11.579 3.82888 11.5 4.01965 11.5 4.21856C11.5 4.41747 11.579 4.60824 11.7197 4.74889C11.8603 4.88954 12.0511 4.96856 12.25 4.96856ZM9.25 13.7186C9.25 13.5196 9.17099 13.3289 9.03033 13.1882C8.88968 13.0476 8.69892 12.9686 8.5 12.9686C8.30109 12.9686 8.11033 13.0476 7.96967 13.1882C7.82902 13.3289 7.75 13.5196 7.75 13.7186C7.75 13.9175 7.82902 14.1082 7.96967 14.2489C8.11033 14.3895 8.30109 14.4686 8.5 14.4686C8.69892 14.4686 8.88968 14.3895 9.03033 14.2489C9.17099 14.1082 9.25 13.9175 9.25 13.7186Z" fill="#8B949E"/>
</svg>
