<svg preserveAspectRatio="none" width="23" height="17" viewBox="0 0 23 17" fill="none" xmlns="http://www.w3.org/2000/svg">
<path vector-effect="non-scaling-stroke" d="M22.5292 3.13241C22.4051 2.65339 22.1571 2.21543 21.8103 1.86243C21.4635 1.50944 21.03 1.25381 20.5533 1.12119C18.789 0.627202 11.7203 0.627202 11.7203 0.627202C8.77285 0.59178 5.82619 0.748936 2.89918 1.09766C2.42227 1.23998 1.98949 1.50149 1.64171 1.85751C1.29392 2.21353 1.04261 2.6523 0.91148 3.13241C0.595255 4.94597 0.441744 6.78417 0.452779 8.62506C0.440988 10.466 0.594504 12.3042 0.91148 14.1177C1.03991 14.5965 1.29068 15.0337 1.63917 15.3864C1.98766 15.739 2.42188 15.9949 2.89918 16.1289C4.68694 16.6229 11.7203 16.6229 11.7203 16.6229C14.6718 16.6584 17.6223 16.5012 20.5533 16.1525C21.03 16.0198 21.4635 15.7642 21.8103 15.4112C22.1571 15.0582 22.4051 14.6202 22.5292 14.1412C22.8535 12.3286 23.011 10.49 22.9997 8.64858C23.024 6.79889 22.8664 4.95128 22.5292 3.13241ZM9.47389 12.0477V5.20245L15.3547 8.62506L9.47389 12.0477Z" fill="#959DA5"/>
</svg>
