<svg preserveAspectRatio="none" width="21" height="20" viewBox="0 0 21 20" fill="none" xmlns="http://www.w3.org/2000/svg">
<path vector-effect="non-scaling-stroke" d="M9.83478 4.02458C9.46867 3.65847 8.87507 3.65847 8.50896 4.02458C8.14285 4.3907 8.14285 4.9843 8.50896 5.35041L9.83478 4.02458ZM14.4844 10L15.1472 10.6629C15.5134 10.2968 15.5134 9.7032 15.1472 9.33708L14.4844 10ZM8.50896 14.6496C8.14285 15.0157 8.14285 15.6092 8.50896 15.9754C8.87507 16.3415 9.46867 16.3415 9.83478 15.9754L8.50896 14.6496ZM8.50896 5.35041L13.8215 10.6629L15.1472 9.33708L9.83478 4.02458L8.50896 5.35041ZM13.8215 9.33708L8.50896 14.6496L9.83478 15.9754L15.1472 10.6629L13.8215 9.33708Z" fill="white"/>
<path vector-effect="non-scaling-stroke" d="M2.92188 10H14.4844Z" fill="white"/>
<path vector-effect="non-scaling-stroke" d="M2.92188 10H14.4844" stroke="white" stroke-width="1.875" stroke-linecap="round" stroke-dasharray="12.5 12.5"/>
</svg>
