<svg preserveAspectRatio="none" width="22" height="19" viewBox="0 0 22 19" fill="none" xmlns="http://www.w3.org/2000/svg">
<g clip-path="url(#clip0_1_6881)">
<path vector-effect="non-scaling-stroke" d="M22 2.62792C21.1778 2.99453 20.3043 3.23325 19.4099 3.33578C20.3537 2.77419 21.0601 1.88755 21.3967 0.842175C20.5082 1.36662 19.5372 1.73652 18.525 1.93614C17.9059 1.2766 17.1027 0.81839 16.2199 0.620971C15.337 0.423552 14.4152 0.496039 13.5741 0.829026C12.7329 1.16201 12.0113 1.74013 11.5028 2.48834C10.9943 3.23656 10.7225 4.12034 10.7225 5.02499C10.7215 5.37178 10.762 5.71745 10.8431 6.05461C9.04843 5.96366 7.29277 5.49713 5.68965 4.68518C4.08653 3.87322 2.67162 2.73392 1.53638 1.3409C0.958857 2.3346 0.782115 3.51118 1.04219 4.63071C1.30227 5.75023 1.97958 6.7284 2.93601 7.36576C2.21991 7.34304 1.51952 7.15002 0.89287 6.80269V6.85899C0.892853 7.90091 1.25332 8.91074 1.9131 9.71713C2.57287 10.5235 3.49133 11.0768 4.51261 11.2831C4.12481 11.39 3.72438 11.4441 3.32212 11.444C3.03613 11.4415 2.75088 11.4146 2.46947 11.3636C2.75802 12.2602 3.31924 13.0444 4.07484 13.6068C4.83044 14.1691 5.74274 14.4816 6.68446 14.5007C5.08433 15.7535 3.11013 16.4333 1.07788 16.4312C0.717662 16.4301 0.357796 16.4086 0 16.3669C2.06354 17.6925 4.46505 18.3962 6.91773 18.3939C15.219 18.3939 19.7558 11.5164 19.7558 5.55589C19.7558 5.36283 19.7477 5.16174 19.7397 4.96868C20.6263 4.32909 21.3918 3.53641 22 2.62792Z" fill="#959DA5"/>
</g>
<defs>
<clipPath id="clip0_1_6881">
<rect vector-effect="non-scaling-stroke" width="22" height="17.8815" fill="white" transform="translate(0 0.512207)"/>
</clipPath>
</defs>
</svg>
