<svg preserveAspectRatio="none" width="20" height="21" viewBox="0 0 20 21" fill="none" xmlns="http://www.w3.org/2000/svg">
<path vector-effect="non-scaling-stroke" d="M1.875 4.35938C1.875 3.15187 2.855 2.17188 4.0625 2.17188H7.1875C8.395 2.17188 9.375 3.15187 9.375 4.35938V7.48438C9.375 8.06454 9.14453 8.62094 8.7343 9.03117C8.32406 9.44141 7.76766 9.67188 7.1875 9.67188H4.0625C3.48234 9.67188 2.92594 9.44141 2.5157 9.03117C2.10547 8.62094 1.875 8.06454 1.875 7.48438V4.35938ZM10.625 4.35938C10.625 3.15187 11.605 2.17188 12.8125 2.17188H15.9375C17.145 2.17188 18.125 3.15187 18.125 4.35938V7.48438C18.125 8.06454 17.8945 8.62094 17.4843 9.03117C17.0741 9.44141 16.5177 9.67188 15.9375 9.67188H12.8125C12.2323 9.67188 11.6759 9.44141 11.2657 9.03117C10.8555 8.62094 10.625 8.06454 10.625 7.48438V4.35938ZM1.875 13.1094C1.875 11.9019 2.855 10.9219 4.0625 10.9219H7.1875C8.395 10.9219 9.375 11.9019 9.375 13.1094V16.2344C9.375 16.8145 9.14453 17.3709 8.7343 17.7812C8.32406 18.1914 7.76766 18.4219 7.1875 18.4219H4.0625C3.48234 18.4219 2.92594 18.1914 2.5157 17.7812C2.10547 17.3709 1.875 16.8145 1.875 16.2344V13.1094ZM10.625 13.1094C10.625 11.9019 11.605 10.9219 12.8125 10.9219H15.9375C17.145 10.9219 18.125 11.9019 18.125 13.1094V16.2344C18.125 16.8145 17.8945 17.3709 17.4843 17.7812C17.0741 18.1914 16.5177 18.4219 15.9375 18.4219H12.8125C12.2323 18.4219 11.6759 18.1914 11.2657 17.7812C10.8555 17.3709 10.625 16.8145 10.625 16.2344V13.1094ZM4.0625 4.04688C3.97962 4.04688 3.90013 4.0798 3.84153 4.1384C3.78292 4.19701 3.75 4.27649 3.75 4.35938V7.48438C3.75 7.65687 3.89 7.79688 4.0625 7.79688H7.1875C7.27038 7.79688 7.34987 7.76395 7.40847 7.70535C7.46708 7.64674 7.5 7.56726 7.5 7.48438V4.35938C7.5 4.27649 7.46708 4.19701 7.40847 4.1384C7.34987 4.0798 7.27038 4.04688 7.1875 4.04688H4.0625ZM12.8125 4.04688C12.7296 4.04688 12.6501 4.0798 12.5915 4.1384C12.5329 4.19701 12.5 4.27649 12.5 4.35938V7.48438C12.5 7.65687 12.64 7.79688 12.8125 7.79688H15.9375C16.0204 7.79688 16.0999 7.76395 16.1585 7.70535C16.2171 7.64674 16.25 7.56726 16.25 7.48438V4.35938C16.25 4.27649 16.2171 4.19701 16.1585 4.1384C16.0999 4.0798 16.0204 4.04688 15.9375 4.04688H12.8125ZM4.0625 12.7969C3.97962 12.7969 3.90013 12.8298 3.84153 12.8884C3.78292 12.947 3.75 13.0265 3.75 13.1094V16.2344C3.75 16.4069 3.89 16.5469 4.0625 16.5469H7.1875C7.27038 16.5469 7.34987 16.514 7.40847 16.4553C7.46708 16.3967 7.5 16.3173 7.5 16.2344V13.1094C7.5 13.0265 7.46708 12.947 7.40847 12.8884C7.34987 12.8298 7.27038 12.7969 7.1875 12.7969H4.0625ZM12.8125 12.7969C12.7296 12.7969 12.6501 12.8298 12.5915 12.8884C12.5329 12.947 12.5 13.0265 12.5 13.1094V16.2344C12.5 16.4069 12.64 16.5469 12.8125 16.5469H15.9375C16.0204 16.5469 16.0999 16.514 16.1585 16.4553C16.2171 16.3967 16.25 16.3173 16.25 16.2344V13.1094C16.25 13.0265 16.2171 12.947 16.1585 12.8884C16.0999 12.8298 16.0204 12.7969 15.9375 12.7969H12.8125Z" fill="#0969DA"/>
</svg>
