<svg preserveAspectRatio="none" width="17" height="17" viewBox="0 0 17 17" fill="none" xmlns="http://www.w3.org/2000/svg">
<path vector-effect="non-scaling-stroke" d="M1.55111 7.32084C1.51977 7.32084 1.51244 7.30551 1.52777 7.28151L1.69177 7.07151C1.70711 7.04817 1.74577 7.03284 1.77711 7.03284H4.55844C4.58911 7.03284 4.59711 7.05617 4.58177 7.07951L4.44911 7.28151C4.43377 7.30551 4.39444 7.32817 4.37111 7.32817L1.55111 7.32084ZM0.375108 8.03751C0.343775 8.03751 0.335775 8.02217 0.351775 7.99884L0.515108 7.78817C0.530442 7.76484 0.569775 7.74951 0.601108 7.74951H4.15311C4.18444 7.74951 4.19977 7.77284 4.19177 7.79617L4.12977 7.98284C4.12177 8.01417 4.09111 8.02951 4.05977 8.02951L0.375108 8.03751ZM2.26044 8.75417C2.22911 8.75417 2.22111 8.73084 2.23711 8.70751L2.34577 8.51284C2.36111 8.48951 2.39244 8.46617 2.42377 8.46617H3.98177C4.01311 8.46617 4.02844 8.48951 4.02844 8.52084L4.01311 8.70751C4.01311 8.73884 3.98177 8.76217 3.95844 8.76217L2.26044 8.75417ZM10.3464 7.18084C9.85577 7.30551 9.52044 7.39884 9.03778 7.52351C8.92044 7.55417 8.91311 7.56217 8.81111 7.44551C8.69511 7.31284 8.60911 7.22751 8.44577 7.14951C7.95444 6.90817 7.47911 6.97817 7.03578 7.26617C6.50578 7.60884 6.23311 8.11551 6.24111 8.74617C6.24844 9.36951 6.67711 9.88351 7.29244 9.96951C7.82244 10.0395 8.26577 9.85284 8.61711 9.45617C8.68711 9.36951 8.74911 9.27617 8.82711 9.16684H7.32378C7.16044 9.16684 7.12111 9.06551 7.17578 8.93351C7.27711 8.69217 7.46377 8.28684 7.57311 8.08417C7.5898 8.04663 7.61714 8.0148 7.65174 7.99264C7.68635 7.97048 7.72669 7.95896 7.76777 7.95951H10.6031C10.5878 8.17017 10.5878 8.38017 10.5564 8.59084C10.4757 9.14546 10.256 9.67064 9.91778 10.1175C9.35711 10.8575 8.62444 11.3175 7.69778 11.4415C6.93444 11.5428 6.22511 11.3948 5.60244 10.9282C5.02577 10.4915 4.69844 9.91484 4.61311 9.19817C4.51177 8.34884 4.76111 7.58551 5.27511 6.91551C5.82844 6.19151 6.56044 5.73151 7.45644 5.56884C8.18844 5.43551 8.88978 5.52217 9.52044 5.94951C9.93378 6.22284 10.2291 6.59617 10.4244 7.04817C10.4711 7.11817 10.4398 7.15751 10.3464 7.18151M12.9251 11.4888C12.2158 11.4728 11.5691 11.2702 11.0238 10.8028C10.5701 10.4205 10.2711 9.88614 10.1824 9.29951C10.0424 8.41951 10.2838 7.64017 10.8138 6.94684C11.3824 6.19884 12.0678 5.80951 12.9951 5.64684C13.7898 5.50684 14.5378 5.58351 15.2151 6.04351C15.8304 6.46351 16.2124 7.03284 16.3138 7.78017C16.4458 8.83217 16.1424 9.68884 15.4178 10.4215C14.9038 10.9435 14.2724 11.2702 13.5478 11.4182C13.3378 11.4582 13.1278 11.4648 12.9251 11.4888ZM14.7784 8.34217C14.7711 8.24017 14.7711 8.16217 14.7558 8.08417C14.6158 7.31284 13.9064 6.87751 13.1664 7.04817C12.4418 7.21151 11.9744 7.67151 11.8031 8.40351C11.6631 9.01151 11.9591 9.62684 12.5198 9.87684C12.9484 10.0635 13.3764 10.0395 13.7898 9.83017C14.4051 9.51017 14.7398 9.01151 14.7791 8.34151L14.7784 8.34217Z" fill="#8B949E"/>
</svg>
