<svg preserveAspectRatio="none" width="20" height="21" viewBox="0 0 20 21" fill="none" xmlns="http://www.w3.org/2000/svg">
<g clip-path="url(#clip0_1_6899)">
<path vector-effect="non-scaling-stroke" d="M10 0.453125C4.475 0.453125 0 4.92812 0 10.4531C0 14.8781 2.8625 18.6156 6.8375 19.9406C7.3375 20.0281 7.525 19.7281 7.525 19.4656C7.525 19.2281 7.5125 18.4406 7.5125 17.6031C5 18.0656 4.35 16.9906 4.15 16.4281C4.0375 16.1406 3.55 15.2531 3.125 15.0156C2.775 14.8281 2.275 14.3656 3.1125 14.3531C3.9 14.3406 4.4625 15.0781 4.65 15.3781C5.55 16.8906 6.9875 16.4656 7.5625 16.2031C7.65 15.5531 7.9125 15.1156 8.2 14.8656C5.975 14.6156 3.65 13.7531 3.65 9.92812C3.65 8.84062 4.0375 7.94062 4.675 7.24062C4.575 6.99062 4.225 5.96562 4.775 4.59062C4.775 4.59062 5.6125 4.32813 7.525 5.61563C8.325 5.39063 9.175 5.27812 10.025 5.27812C10.875 5.27812 11.725 5.39063 12.525 5.61563C14.4375 4.31563 15.275 4.59062 15.275 4.59062C15.825 5.96562 15.475 6.99062 15.375 7.24062C16.0125 7.94062 16.4 8.82812 16.4 9.92812C16.4 13.7656 14.0625 14.6156 11.8375 14.8656C12.2 15.1781 12.5125 15.7781 12.5125 16.7156C12.5125 18.0531 12.5 19.1281 12.5 19.4656C12.5 19.7281 12.6875 20.0406 13.1875 19.9406C15.1727 19.2704 16.8977 17.9946 18.1198 16.2927C19.3419 14.5907 19.9995 12.5484 20 10.4531C20 4.92812 15.525 0.453125 10 0.453125Z" fill="#959DA5"/>
</g>
<defs>
<clipPath id="clip0_1_6899">
<rect vector-effect="non-scaling-stroke" width="20" height="20" fill="white" transform="translate(0 0.453125)"/>
</clipPath>
</defs>
</svg>
