<svg preserveAspectRatio="none" width="150" height="62" viewBox="0 0 150 62" fill="none" xmlns="http://www.w3.org/2000/svg">
<g clip-path="url(#clip0_1201_6839)">
<path vector-effect="non-scaling-stroke" d="M1.12016 23.5994C16.5971 33.5078 33.8531 40.5629 51.787 44.5574C69.7723 48.5571 88.4099 49.4935 106.716 47.3086C116.961 46.0827 127.195 43.9392 136.967 40.5769C137.52 40.3875 138.564 39.813 138.532 39.1009C138.493 38.3569 137.439 38.5905 137.017 38.7259C128.434 41.4065 119.724 43.5131 110.809 44.7704C101.893 46.0276 92.8827 46.478 83.8923 46.1879C65.8219 45.6192 47.8389 41.9702 30.9789 35.4545C21.4847 31.7969 12.3717 27.1767 3.8055 21.6993C2.85015 21.0915 0.094807 22.9402 1.12016 23.5994Z" fill="#EF790C"/>
<path vector-effect="non-scaling-stroke" d="M124.701 37.7352C131.582 37.5884 138.467 37.3948 145.355 37.3005L145.232 35.6177C138.289 41.4632 131.181 47.0953 124.048 52.7075C123.651 53.0199 122.986 53.8241 123.589 54.2493C124.193 54.6745 125.27 53.9631 125.716 53.6354C133.001 48.2225 140.053 42.4623 146.958 36.5828C147.601 36.0314 148.143 34.8552 146.836 34.9C139.947 35.1127 133.045 35.2205 126.156 35.3698C125.386 35.3866 124.414 36.0208 124.044 36.689C123.674 37.3573 123.978 37.7559 124.704 37.7435L124.701 37.7352Z" fill="#EF790C"/>
</g>
<defs>
<clipPath id="clip0_1201_6839">
<rect vector-effect="non-scaling-stroke" width="150" height="61" fill="white" transform="translate(0 0.791748)"/>
</clipPath>
</defs>
</svg>
