<svg preserveAspectRatio="none" width="25" height="25" viewBox="0 0 25 25" fill="none" xmlns="http://www.w3.org/2000/svg">
<path vector-effect="non-scaling-stroke" d="M1.82812 12.8594C1.82812 6.78438 6.75313 1.85938 12.8281 1.85938C18.9031 1.85938 23.8281 6.78438 23.8281 12.8594C23.8281 18.9344 18.9031 23.8594 12.8281 23.8594C6.75313 23.8594 1.82812 18.9344 1.82812 12.8594ZM18.1081 10.1394C18.2405 9.99711 18.3126 9.80906 18.3093 9.61475C18.3059 9.42043 18.2274 9.23498 18.0901 9.09737C17.9525 8.96013 17.7671 8.88158 17.5728 8.87822C17.3784 8.87486 17.1904 8.94697 17.0481 9.07938L11.0781 15.0494L8.60813 12.5794C8.46586 12.447 8.27781 12.3749 8.08349 12.3782C7.88918 12.3816 7.70373 12.4601 7.56612 12.5974C7.42888 12.735 7.35033 12.9204 7.34697 13.1147C7.34361 13.3091 7.41572 13.4971 7.54812 13.6394L10.5481 16.6394C10.6888 16.7798 10.8794 16.8587 11.0781 16.8587C11.2769 16.8587 11.4675 16.7798 11.6081 16.6394L18.1081 10.1394Z" fill="#3FB950"/>
</svg>
