<svg preserveAspectRatio="none" width="17" height="17" viewBox="0 0 17 17" fill="none" xmlns="http://www.w3.org/2000/svg">
<path vector-effect="non-scaling-stroke" d="M8.0147 3.71967C7.72181 3.42678 7.24693 3.42678 6.95404 3.71967C6.66115 4.01256 6.66115 4.48744 6.95404 4.78033L8.0147 3.71967ZM11.7344 8.5L12.2647 9.03033C12.5576 8.73744 12.5576 8.26256 12.2647 7.96967L11.7344 8.5ZM6.95404 12.2197C6.66115 12.5126 6.66115 12.9874 6.95404 13.2803C7.24693 13.5732 7.72181 13.5732 8.0147 13.2803L6.95404 12.2197ZM6.95404 4.78033L11.2041 9.03033L12.2647 7.96967L8.0147 3.71967L6.95404 4.78033ZM11.2041 7.96967L6.95404 12.2197L8.0147 13.2803L12.2647 9.03033L11.2041 7.96967Z" fill="white"/>
<path vector-effect="non-scaling-stroke" d="M2.48438 8.5H11.7344Z" fill="white"/>
<path vector-effect="non-scaling-stroke" d="M2.48438 8.5H11.7344" stroke="white" stroke-width="1.5" stroke-linecap="round" stroke-dasharray="10 10"/>
</svg>
