<svg preserveAspectRatio="none" width="25" height="25" viewBox="0 0 25 25" fill="none" xmlns="http://www.w3.org/2000/svg">
<path vector-effect="non-scaling-stroke" d="M12.5 0.5C19.13 0.5 24.5 5.87 24.5 12.5C24.4994 15.0143 23.7103 17.4651 22.2438 19.5074C20.7773 21.5498 18.7072 23.0808 16.325 23.885C15.725 24.005 15.5 23.63 15.5 23.315C15.5 22.91 15.515 21.62 15.515 20.015C15.515 18.89 15.14 18.17 14.705 17.795C17.375 17.495 20.18 16.475 20.18 11.87C20.18 10.55 19.715 9.485 18.95 8.645C19.07 8.345 19.49 7.115 18.83 5.465C18.83 5.465 17.825 5.135 15.53 6.695C14.57 6.425 13.55 6.29 12.53 6.29C11.51 6.29 10.49 6.425 9.53 6.695C7.235 5.15 6.23 5.465 6.23 5.465C5.57 7.115 5.99 8.345 6.11 8.645C5.345 9.485 4.88 10.565 4.88 11.87C4.88 16.46 7.67 17.495 10.34 17.795C9.995 18.095 9.68 18.62 9.575 19.4C8.885 19.715 7.16 20.225 6.08 18.41C5.855 18.05 5.18 17.165 4.235 17.18C3.23 17.195 3.83 17.75 4.25 17.975C4.76 18.26 5.345 19.325 5.48 19.67C5.72 20.345 6.5 21.635 9.515 21.08C9.515 22.085 9.53 23.03 9.53 23.315C9.53 23.63 9.305 23.99 8.705 23.885C6.31496 23.0895 4.2361 21.5615 2.76334 19.518C1.29057 17.4744 0.498679 15.019 0.500002 12.5C0.500002 5.87 5.87 0.5 12.5 0.5Z" fill="white"/>
</svg>
