<svg preserveAspectRatio="none" width="17" height="16" viewBox="0 0 17 16" fill="none" xmlns="http://www.w3.org/2000/svg">
<path vector-effect="non-scaling-stroke" d="M1.98625 8.00511C2.08409 7.99338 2.18328 8.00105 2.27816 8.02767C2.37304 8.0543 2.46174 8.09936 2.53919 8.16028C2.61664 8.2212 2.68133 8.29679 2.72956 8.38273C2.77778 8.46866 2.8086 8.56326 2.82025 8.66111C2.94769 9.7151 3.37746 10.7097 4.05769 11.5248C4.73792 12.3399 5.63953 12.9408 6.6537 13.2548C7.66787 13.5688 8.75124 13.5826 9.77307 13.2945C10.7949 13.0064 11.7115 12.4287 12.4122 11.6311L11.2083 10.4271C11.1732 10.3921 11.1493 10.3476 11.1396 10.299C11.1299 10.2504 11.1349 10.2001 11.1539 10.1544C11.1728 10.1086 11.2049 10.0696 11.2461 10.0421C11.2873 10.0146 11.3357 10 11.3853 10.0001H15.0312C15.0976 10.0001 15.1611 10.0264 15.208 10.0733C15.2549 10.1202 15.2812 10.1838 15.2812 10.2501V13.8961C15.2813 13.9456 15.2667 13.994 15.2393 14.0352C15.2118 14.0764 15.1727 14.1085 15.127 14.1275C15.0812 14.1465 15.0309 14.1514 14.9824 14.1417C14.9338 14.132 14.8892 14.1082 14.8542 14.0731L13.4742 12.6931C12.5735 13.6886 11.4055 14.4042 10.1095 14.7546C8.8135 15.105 7.44407 15.0754 6.1644 14.6694C4.88472 14.2633 3.74876 13.4979 2.89186 12.4644C2.03495 11.4309 1.49324 10.1728 1.33125 8.84011C1.31952 8.74226 1.32719 8.64307 1.35382 8.5482C1.38044 8.45332 1.4255 8.36462 1.48643 8.28717C1.54735 8.20971 1.62294 8.14503 1.70887 8.0968C1.7948 8.04857 1.8894 8.01776 1.98725 8.0061L1.98625 8.00511ZM8.28125 2.50011C7.49926 2.49928 6.72613 2.66561 6.01367 2.98795C5.30121 3.31029 4.66587 3.7812 4.15025 4.36911L5.35425 5.57311C5.3893 5.60807 5.41319 5.65266 5.42287 5.70121C5.43255 5.74976 5.4276 5.8001 5.40864 5.84584C5.38968 5.89157 5.35757 5.93065 5.31638 5.95812C5.27518 5.98558 5.22676 6.00019 5.17725 6.00011H1.53125C1.46495 6.00011 1.40136 5.97377 1.35447 5.92688C1.30759 5.88 1.28125 5.81641 1.28125 5.75011V2.10411C1.28116 2.0546 1.29578 2.00617 1.32324 1.96498C1.3507 1.92378 1.38978 1.89167 1.43552 1.87271C1.48126 1.85375 1.53159 1.8488 1.58015 1.85849C1.6287 1.86817 1.67329 1.89205 1.70825 1.92711L3.08825 3.30711C3.989 2.31157 5.15697 1.59599 6.45298 1.2456C7.749 0.895215 9.11843 0.924806 10.3981 1.33085C11.6778 1.73689 12.8137 2.50227 13.6706 3.53578C14.5275 4.56929 15.0693 5.82737 15.2312 7.16011C15.2549 7.35769 15.199 7.55656 15.076 7.71297C14.953 7.86937 14.7728 7.9705 14.5752 7.99411C14.3777 8.01771 14.1788 7.96186 14.0224 7.83883C13.866 7.71581 13.7649 7.53569 13.7413 7.33811C13.5795 6.00383 12.9347 4.77498 11.9288 3.88362C10.9228 2.99226 9.6253 2.50011 8.28125 2.50011Z" fill="#6E7681"/>
</svg>
