<svg preserveAspectRatio="none" width="20" height="21" viewBox="0 0 20 21" fill="none" xmlns="http://www.w3.org/2000/svg">
<path vector-effect="non-scaling-stroke" d="M9.61642 1.62938C9.73705 1.575 9.86786 1.54688 10.0002 1.54688C10.1325 1.54688 10.2633 1.575 10.3839 1.62938L19.4464 5.69188C19.6112 5.76597 19.751 5.88608 19.8491 6.03777C19.9472 6.18945 19.9994 6.36624 19.9994 6.54688C19.9994 6.72751 19.9472 6.90431 19.8491 7.05599C19.751 7.20767 19.6112 7.32778 19.4464 7.40188L16.2502 8.83563V12.3281C16.2502 13.6081 15.2377 14.5144 14.1752 15.0444C13.0589 15.6031 11.5814 15.9219 10.0002 15.9219C9.65267 15.9219 9.31267 15.9069 8.98017 15.8769C8.73456 15.8523 8.50856 15.7318 8.35123 15.5416C8.19389 15.3514 8.11793 15.1068 8.13982 14.8609C8.1617 14.615 8.27968 14.3877 8.46814 14.2283C8.65659 14.0689 8.90032 13.9902 9.14642 14.0094C9.42142 14.0344 9.70892 14.0469 10.0002 14.0469C11.3527 14.0469 12.5314 13.7706 13.3377 13.3681C14.2002 12.9369 14.3752 12.5156 14.3752 12.3281V9.67563L10.3839 11.4644C10.2633 11.5188 10.1325 11.5469 10.0002 11.5469C9.86786 11.5469 9.73705 11.5188 9.61642 11.4644L5.00017 9.39688V11.4756C5.37017 11.6069 5.71892 11.8194 6.01517 12.1156C6.56267 12.6631 6.87517 13.4394 6.87517 14.3606V18.1106C6.87517 18.3593 6.7764 18.5977 6.60059 18.7735C6.42477 18.9494 6.18631 19.0481 5.93767 19.0481H2.18767C1.93903 19.0481 1.70058 18.9494 1.52476 18.7735C1.34895 18.5977 1.25017 18.3593 1.25017 18.1106V14.3606C1.25017 13.4394 1.56267 12.6631 2.11017 12.1156C2.40642 11.8194 2.75517 11.6069 3.12517 11.4756V8.55438L0.553923 7.40188C0.389182 7.32778 0.249354 7.20767 0.151258 7.05599C0.0531628 6.90431 0.000976563 6.72751 0.000976562 6.54688C0.000976562 6.36624 0.0531628 6.18945 0.151258 6.03777C0.249354 5.88608 0.389182 5.76597 0.553923 5.69188L9.61642 1.62938ZM3.22892 6.54688L10.0002 9.58188L16.7702 6.54688L10.0002 3.51188L3.22892 6.54688ZM3.12517 14.3594V17.1719H5.00017V14.3594C5.00017 13.8744 4.84392 13.5956 4.68767 13.4406C4.60559 13.3589 4.50804 13.2944 4.40073 13.2508C4.29341 13.2072 4.17849 13.1855 4.06267 13.1869C3.82898 13.1855 3.60426 13.2767 3.43767 13.4406C3.28142 13.5956 3.12517 13.8744 3.12517 14.3594Z" fill="#0969DA"/>
</svg>
