<svg preserveAspectRatio="none" width="17" height="17" viewBox="0 0 17 17" fill="none" xmlns="http://www.w3.org/2000/svg">
<path vector-effect="non-scaling-stroke" d="M9.24991 1.71875V2.96875H10.2349C10.5389 2.96875 10.8379 3.04875 11.1019 3.19975L12.3919 3.93575C12.4299 3.95775 12.4719 3.96875 12.5159 3.96875H14.7499C14.9488 3.96875 15.1396 4.04777 15.2802 4.18842C15.4209 4.32907 15.4999 4.51984 15.4999 4.71875C15.4999 4.91766 15.4209 5.10843 15.2802 5.24908C15.1396 5.38973 14.9488 5.46875 14.7499 5.46875H14.3229L16.4339 10.1608C16.4963 10.2996 16.515 10.4541 16.4875 10.6037C16.46 10.7534 16.3876 10.8912 16.2799 10.9987L15.7499 10.4688L16.2789 10.9998L16.2779 11.0017L16.2759 11.0037L16.2699 11.0098L16.2639 11.0147L16.2539 11.0247L16.2089 11.0647C15.9989 11.2407 15.7679 11.3917 15.5229 11.5147C15.0559 11.7487 14.3799 11.9688 13.4999 11.9688C12.7994 11.977 12.1067 11.8216 11.4769 11.5147C11.2316 11.3918 11.0014 11.2408 10.7909 11.0647L10.7459 11.0247L10.7299 11.0098L10.7239 11.0037L10.7199 10.9998V10.9987C10.6122 10.8912 10.5399 10.7534 10.5124 10.6037C10.4848 10.4541 10.5035 10.2996 10.5659 10.1608L12.6779 5.46875H12.5159C12.2109 5.46875 11.9119 5.38975 11.6479 5.23775L10.3579 4.50175C10.3202 4.47993 10.2774 4.46854 10.2339 4.46875H9.24991V13.9688H11.7499C11.9488 13.9688 12.1396 14.0478 12.2802 14.1884C12.4209 14.3291 12.4999 14.5198 12.4999 14.7188C12.4999 14.9177 12.4209 15.1084 12.2802 15.2491C12.1396 15.3897 11.9488 15.4688 11.7499 15.4688H5.24991C5.05099 15.4688 4.86023 15.3897 4.71958 15.2491C4.57892 15.1084 4.49991 14.9177 4.49991 14.7188C4.49991 14.5198 4.57892 14.3291 4.71958 14.1884C4.86023 14.0478 5.05099 13.9688 5.24991 13.9688H7.74991V4.46875H6.76591C6.72238 4.46854 6.67957 4.47993 6.64191 4.50175L5.35291 5.23875C5.08791 5.38875 4.78891 5.46875 4.48391 5.46875H4.32191L6.43391 10.1608C6.49629 10.2996 6.51497 10.4541 6.48746 10.6037C6.45995 10.7534 6.38756 10.8912 6.27991 10.9987L5.74991 10.4688L6.27891 10.9998L6.27791 11.0017L6.27591 11.0037L6.26991 11.0098L6.25391 11.0247L6.20891 11.0647C5.99891 11.2407 5.76791 11.3917 5.52291 11.5147C5.05591 11.7487 4.37991 11.9688 3.49991 11.9688C2.79942 11.977 2.10669 11.8216 1.47691 11.5147C1.23159 11.3918 1.00138 11.2408 0.790907 11.0647L0.745907 11.0247L0.729907 11.0098L0.723907 11.0037L0.719907 10.9998V10.9987C0.612248 10.8912 0.539859 10.7534 0.512353 10.6037C0.484847 10.4541 0.503525 10.2996 0.565907 10.1608L2.67791 5.46875H2.24991C2.05099 5.46875 1.86023 5.38973 1.71958 5.24908C1.57892 5.10843 1.49991 4.91766 1.49991 4.71875C1.49991 4.51984 1.57892 4.32907 1.71958 4.18842C1.86023 4.04777 2.05099 3.96875 2.24991 3.96875H4.48391C4.52775 3.96895 4.57087 3.95756 4.60891 3.93575L5.89691 3.19875C6.16191 3.04875 6.46091 2.96875 6.76591 2.96875H7.74991V1.71875C7.74991 1.51984 7.82892 1.32907 7.96958 1.18842C8.11023 1.04777 8.30099 0.96875 8.49991 0.96875C8.69882 0.96875 8.88958 1.04777 9.03024 1.18842C9.17089 1.32907 9.24991 1.51984 9.24991 1.71875ZM12.1949 10.1958C12.4799 10.3308 12.9129 10.4688 13.4999 10.4688C14.0869 10.4688 14.5199 10.3308 14.8049 10.1958L13.4999 7.29575L12.1949 10.1958ZM2.19491 10.1958C2.47991 10.3308 2.91291 10.4688 3.49991 10.4688C4.08691 10.4688 4.51991 10.3308 4.80491 10.1958L3.49991 7.29575L2.19491 10.1958Z" fill="#8B949E"/>
</svg>
