<svg preserveAspectRatio="none" width="25" height="25" viewBox="0 0 25 25" fill="none" xmlns="http://www.w3.org/2000/svg">
<path vector-effect="non-scaling-stroke" d="M3.15614 5.07808C5.58814 2.64608 9.82814 2.63108 12.2631 5.06708C12.2871 5.09108 12.3091 5.11708 12.3301 5.14308C13.7211 4.06508 15.3231 3.25708 17.1071 3.25308C17.9285 3.25011 18.7424 3.40984 19.5017 3.72308C20.261 4.03632 20.9508 4.49685 21.5311 5.07808C22.0901 5.63808 22.5541 6.24308 22.8711 7.00008C23.1891 7.75608 23.3411 8.61708 23.3391 9.66308C23.3391 12.6351 21.2921 15.4711 19.0701 17.7371C16.9721 19.8771 14.5631 21.6611 13.0961 22.7461L12.7851 22.9761C12.6555 23.0724 12.4982 23.1245 12.3366 23.1245C12.1751 23.1245 12.0178 23.0724 11.8881 22.9761L11.5761 22.7461C10.1101 21.6611 7.70114 19.8771 5.60314 17.7371C3.38314 15.4741 1.33914 12.6421 1.33314 9.67408C1.30644 8.82405 1.45445 7.97757 1.76802 7.18703C2.08158 6.39649 2.55404 5.6787 3.15614 5.07808ZM11.1891 6.12008C9.34314 4.28608 6.06514 4.29708 4.22014 6.14208C3.75918 6.60155 3.39839 7.15154 3.16054 7.75736C2.92268 8.36319 2.81291 9.01172 2.83814 9.66208C2.83814 11.9941 4.48814 14.4521 6.67714 16.6841C8.62414 18.6701 10.8611 20.3441 12.3371 21.4361C13.0663 20.9003 13.786 20.3519 14.4961 19.7911L12.3561 17.8171C12.2835 17.7501 12.2248 17.6695 12.1833 17.5798C12.1419 17.4902 12.1185 17.3932 12.1145 17.2945C12.1105 17.1958 12.126 17.0973 12.1601 17.0045C12.1942 16.9118 12.2462 16.8267 12.3131 16.7541C12.3801 16.6815 12.4607 16.6227 12.5504 16.5813C12.6401 16.5398 12.737 16.5164 12.8357 16.5124C12.9344 16.5084 13.033 16.5239 13.1257 16.558C13.2184 16.5921 13.3035 16.6441 13.3761 16.7111L15.6711 18.8291C16.2871 18.3091 16.9131 17.7491 17.5211 17.1571L15.3611 15.1651C15.2218 15.0279 15.1414 14.8419 15.1367 14.6465C15.132 14.451 15.2036 14.2614 15.3362 14.1178C15.4688 13.9741 15.6521 13.8877 15.8473 13.8767C16.0425 13.8658 16.2343 13.9312 16.3821 14.0591L18.5701 16.0791C19.1189 15.4866 19.6293 14.8596 20.0981 14.2021L19.5131 13.6161L17.8621 11.9641C16.7841 10.8901 15.0251 10.9091 13.9271 12.0071C13.5481 12.3871 13.1671 12.7651 12.7951 13.1331C11.6551 14.2571 9.83514 14.2101 8.72514 13.0901C8.23614 12.5951 7.74514 12.1021 7.25014 11.6081C7.11667 11.4743 7.03844 11.2952 7.03103 11.1064C7.02362 10.9176 7.08756 10.7329 7.21014 10.5891C7.44414 10.3131 7.69314 10.0131 7.95514 9.69608C8.88314 8.57608 9.97814 7.25408 11.1891 6.12008ZM20.9141 12.8901C21.4931 11.8101 21.8341 10.7231 21.8341 9.66208C21.8361 8.76308 21.7061 8.11008 21.4841 7.58208C21.2641 7.05608 20.9331 6.60808 20.4671 6.14208C20.0271 5.70086 19.5039 5.35134 18.9278 5.11377C18.3518 4.8762 17.7343 4.7553 17.1111 4.75808C15.4511 4.76208 13.8611 5.70908 12.3411 7.10408C11.1611 8.18808 10.1081 9.45708 9.15314 10.6101L8.80214 11.0331C9.13314 11.3651 9.46514 11.6971 9.79514 12.0311C10.0489 12.2925 10.3961 12.4425 10.7604 12.4481C11.1247 12.4537 11.4764 12.3145 11.7381 12.0611C12.1081 11.6961 12.4861 11.3211 12.8631 10.9431C14.5251 9.28008 17.2361 9.21708 18.9231 10.8981C19.4831 11.4561 20.0431 12.0181 20.5811 12.5561L20.9141 12.8901Z" fill="white"/>
</svg>
