<svg preserveAspectRatio="none" width="21" height="21" viewBox="0 0 21 21" fill="none" xmlns="http://www.w3.org/2000/svg">
<path vector-effect="non-scaling-stroke" d="M9.88166 4.50896C9.51555 4.14285 8.92195 4.14285 8.55583 4.50896C8.18972 4.87507 8.18972 5.46867 8.55583 5.83478L9.88166 4.50896ZM14.5312 10.4844L15.1941 11.1473C15.5602 10.7812 15.5602 10.1876 15.1941 9.82146L14.5312 10.4844ZM8.55583 15.134C8.18972 15.5001 8.18972 16.0936 8.55583 16.4597C8.92195 16.8259 9.51555 16.8259 9.88166 16.4597L8.55583 15.134ZM8.55583 5.83478L13.8684 11.1473L15.1941 9.82146L9.88166 4.50896L8.55583 5.83478ZM13.8684 9.82146L8.55583 15.134L9.88166 16.4597L15.1941 11.1473L13.8684 9.82146Z" fill="white"/>
<path vector-effect="non-scaling-stroke" d="M2.96875 10.4844H14.5312Z" fill="white"/>
<path vector-effect="non-scaling-stroke" d="M2.96875 10.4844H14.5312" stroke="white" stroke-width="1.875" stroke-linecap="round" stroke-dasharray="12.5 12.5"/>
</svg>
