<svg preserveAspectRatio="none" width="170" height="45" viewBox="0 0 170 45" fill="none" xmlns="http://www.w3.org/2000/svg">
<g clip-path="url(#clip0_1_6239)">
<path vector-effect="non-scaling-stroke" d="M107.834 16.0028C106.869 16.2593 105.999 16.4142 104.918 16.5296V16.8582C106.134 16.8582 106.289 16.9942 106.289 17.9993V21.3781C105.574 20.2193 105.014 19.8724 103.972 19.8724C101.906 19.8724 100.46 21.8221 100.46 24.6038C100.46 27.3855 101.926 29.3369 104.03 29.3369C105.131 29.3369 105.884 28.8357 106.424 27.754C106.501 28.4872 106.502 28.5643 106.695 29.2986C107.486 29.0472 107.814 28.9695 108.954 28.8346L109.242 28.7952V28.4672C107.949 28.4289 107.834 28.3317 107.834 27.154V16.0028ZM55.7431 16.1433C55.1343 16.2141 54.5217 16.2467 53.9088 16.241C53.3677 16.241 53.0785 16.2222 52.3265 16.1639V16.645C53.6579 16.7228 53.9277 16.9159 53.9277 17.805V17.9216L53.5219 27.4049C53.4837 28.4483 53.2917 28.602 51.9403 28.6992V29.1632C52.9448 29.0854 53.3288 29.0666 53.8694 29.0666C54.4105 29.0666 54.7956 29.0854 55.7813 29.1632V28.6992C54.4294 28.602 54.1785 28.4283 54.1785 27.5786V27.4049L54.5648 17.3805L57.7305 25.9375L57.9625 26.6129L58.2339 27.3655L58.5036 28.1197L58.7167 28.7386H59.007L59.2179 28.1009L59.4687 27.3655L59.7384 26.6523L59.9704 26.0129L63.1567 17.3993L63.3304 27.4049V27.5015C63.3304 28.4095 63.0412 28.6215 61.7276 28.6992V29.1632C62.9441 29.0472 63.407 29.0089 64.1412 29.0089C64.8738 29.0089 65.3378 29.0472 66.5543 29.1632V28.6992C65.1641 28.602 64.9898 28.4483 64.9709 27.4049L64.7595 17.9216V17.7862C64.7595 16.9165 65.0487 16.7233 66.3618 16.645V16.1639C65.6281 16.2222 65.3189 16.241 64.8367 16.241C64.2572 16.241 63.8527 16.221 62.9835 16.1433L59.335 25.9181L55.7431 16.1433ZM130.843 16.2205V16.705C132.232 16.7816 132.426 16.9353 132.426 17.9787V27.346C132.426 28.3895 132.272 28.5237 130.843 28.6403V29.1043H135.728C137.156 29.1043 137.928 28.9306 138.739 28.4289C139.705 27.8106 140.341 26.6312 140.341 25.4141C140.341 24.3718 139.897 23.4261 139.144 22.8467C138.738 22.5381 138.313 22.3633 137.619 22.2278C139.009 21.7067 139.744 20.7216 139.744 19.3701C139.744 18.3644 139.318 17.4753 138.584 16.9159C137.928 16.433 137.175 16.2199 135.92 16.2199L130.843 16.2205ZM134.048 16.8205H135.688C137.311 16.8205 138.024 17.6113 138.024 19.4084C138.024 20.2964 137.813 20.9341 137.388 21.4364C136.964 21.9193 136.442 22.0741 135.36 22.0741H134.048V16.8205ZM89.6455 19.5821L89.1232 20.5667C88.5055 19.9679 87.9843 19.7553 87.1546 19.7553C84.8764 19.7553 83.3313 21.7267 83.3313 24.6038C83.3313 27.4238 84.857 29.318 87.0964 29.318C88.8346 29.318 89.934 28.1963 90.1849 26.1295H89.3929C89.1615 27.8295 88.4466 28.6803 87.2489 28.6803C85.7632 28.6803 85.0107 27.3089 85.0107 24.6038C85.0107 21.8415 85.8615 20.2781 87.3089 20.2781C88.4872 20.2781 89.2003 21.0884 89.5472 22.7684H89.9735V19.5821H89.6455ZM124.238 19.6404L123.91 20.4313C123.254 19.9879 122.695 19.8141 121.942 19.8141C120.242 19.8141 119.046 20.857 119.046 22.3833C119.046 23.5032 119.491 24.0438 120.899 24.7015L121.787 25.1055L122.52 25.4341C123.466 25.8592 123.834 26.3032 123.834 26.9598C123.834 27.9455 122.984 28.6992 121.845 28.6992C120.494 28.6992 119.682 27.8495 119.334 26.0918L118.911 26.1106V29.3369H119.258L119.72 28.4672C120.454 29.0466 121.149 29.2786 122.038 29.2786C123.853 29.2786 125.147 28.1209 125.147 26.4975C125.147 25.3581 124.624 24.7392 123.158 24.1021L122.347 23.7547C120.589 22.9821 120.301 22.7318 120.301 21.9587C120.301 21.0507 121.092 20.3553 122.115 20.3553C123.331 20.3553 123.968 21.0896 124.142 22.6341H124.587V19.6399L124.238 19.6404ZM152.777 19.6404C152.007 19.9113 151.349 20.065 150.228 20.2199V20.5478C150.325 20.5478 150.423 20.5667 150.481 20.5667C151.446 20.5667 151.561 20.6838 151.58 21.4753V27.7335C151.58 28.5637 151.389 28.7186 150.211 28.7763V29.1632C151.215 29.066 151.619 29.0477 152.294 29.0477C152.99 29.0477 153.377 29.066 154.381 29.1632V28.7763C153.377 28.738 153.126 28.5443 153.126 27.7729V23.0964C153.126 21.513 153.82 20.6838 155.134 20.6838C156.368 20.6838 156.87 21.3593 156.87 23.0398V27.7729C156.87 28.5443 156.619 28.738 155.577 28.7763V29.1632C156.58 29.066 156.966 29.0477 157.681 29.0477C158.375 29.0477 158.763 29.066 159.787 29.1632V28.7763C158.609 28.7192 158.414 28.5637 158.414 27.7335V23.0964C158.414 22.3633 158.318 21.8221 158.124 21.3593C157.739 20.4124 156.735 19.8141 155.577 19.8141C154.458 19.8141 153.665 20.2776 152.969 21.321C152.93 20.5867 152.874 20.085 152.777 19.6404ZM78.4759 19.6781C77.6833 19.9096 77.0274 20.0267 75.9268 20.1233V20.4707H76.1776C77.1811 20.4896 77.2788 20.5873 77.2976 21.4176V27.7335C77.2976 28.5637 77.0862 28.7186 75.9079 28.7763V29.1632C76.9702 29.066 77.3753 29.046 78.0708 29.046C78.7462 29.046 79.1519 29.066 80.2125 29.1632V28.7763C79.0353 28.7192 78.8422 28.5637 78.8422 27.7335V23.6964C78.8422 21.7833 79.4787 20.5684 80.4822 20.5684C80.8296 20.5684 81.0627 20.7598 81.0627 21.0313V21.2044L81.0233 21.3987C81.0044 21.4764 80.9856 21.553 80.9856 21.5907C80.9856 21.9781 81.333 22.2478 81.7776 22.2478C82.2599 22.2478 82.5884 21.8798 82.5884 21.3198C82.5884 20.3936 81.8736 19.7559 80.9084 19.7559C79.905 19.7559 79.0736 20.3936 78.6496 21.4947V21.2816C78.6102 20.7021 78.5719 20.3936 78.4759 19.6781ZM71.244 19.7559C68.9269 19.7559 67.48 21.629 67.48 24.6038C67.48 27.578 68.9269 29.318 71.4171 29.318C73.3091 29.318 74.5445 28.1386 74.796 26.1489H74.0245C73.7925 27.7912 72.9428 28.6803 71.572 28.6803C69.8154 28.6803 69.0435 27.3289 69.0246 24.3147H74.7771C74.7388 21.3404 73.5223 19.7559 71.244 19.7559ZM95.3254 19.7559C93.0083 19.7559 91.5603 21.629 91.5603 24.6038C91.5603 27.578 93.0083 29.318 95.4985 29.318C97.3905 29.318 98.6271 28.1386 98.8773 26.1489H98.1048C97.8734 27.7912 97.0242 28.6803 95.6534 28.6803C93.8968 28.6803 93.1237 27.3289 93.1043 24.3147H98.8585C98.8191 21.3404 97.6036 19.7559 95.3254 19.7559ZM113.739 19.7559C111.422 19.7559 109.974 21.629 109.974 24.6038C109.974 27.578 111.422 29.318 113.913 29.318C115.805 29.318 117.04 28.1386 117.291 26.1489H116.518C116.286 27.7912 115.438 28.6803 114.067 28.6803C112.311 28.6803 111.538 27.3289 111.518 24.3147H117.273C117.233 21.3404 116.017 19.7559 113.739 19.7559ZM145.674 19.7559C143.357 19.7559 141.909 21.629 141.909 24.6038C141.909 27.578 143.357 29.318 145.848 29.318C147.74 29.318 148.975 28.1386 149.226 26.1489H148.453C148.222 27.7912 147.374 28.6803 146.004 28.6803C144.246 28.6803 143.474 27.3289 143.455 24.3147H149.208C149.168 21.3404 147.953 19.7559 145.674 19.7559ZM161.194 19.9873L160.747 22.4987H161.135C161.83 20.7604 162.138 20.4896 163.394 20.4896H165.767L160.536 29.1049H167.176L167.68 26.3238H167.275C166.694 28.0815 166.155 28.6026 164.84 28.6026H162.583L167.834 19.9873H161.194ZM71.2251 20.2576C72.48 20.2576 73.1165 21.3393 73.2331 23.6192H69.0623C69.2555 21.3981 69.9892 20.2576 71.2251 20.2576ZM95.3048 20.2576C96.5597 20.2576 97.1968 21.3393 97.3128 23.6192H93.142C93.3351 21.3981 94.0688 20.2576 95.3048 20.2576ZM113.72 20.2576C114.975 20.2576 115.612 21.3393 115.728 23.6192H111.558C111.75 21.3981 112.485 20.2576 113.72 20.2576ZM145.655 20.2576C146.91 20.2576 147.547 21.3393 147.663 23.6192H143.493C143.685 21.3981 144.42 20.2576 145.655 20.2576ZM104.146 20.4119C105.574 20.4119 106.308 21.8815 106.308 24.7204C106.308 27.4055 105.594 28.7952 104.204 28.7952C102.814 28.7952 102.081 27.3472 102.081 24.5849C102.081 21.7838 102.756 20.4119 104.146 20.4119ZM134.048 22.6735H135.882C136.905 22.6735 137.484 22.8461 137.928 23.2907C138.372 23.7352 138.622 24.5649 138.622 25.4924C138.622 27.4238 137.657 28.5066 135.939 28.5066H135.245C134.221 28.5066 134.048 28.3506 134.048 27.5009V22.6735ZM126.304 23.4392V24.4381H130.619V23.4392H126.304ZM22.0532 8.81029C22.0532 8.53315 21.9692 8.52401 21.9469 8.8L21.0635 21.9747L21.9424 22.489L22.0526 8.81086L22.0532 8.81029ZM17.9298 25.0524L21.6384 22.997L20.7961 22.5284L17.8258 24.9604C17.6601 25.1026 17.7344 25.1615 17.9298 25.0524Z" fill="#B7BFC7"/>
<path vector-effect="non-scaling-stroke" d="M22.1164 1.7544C10.3565 1.74868 0.818359 11.1943 0.818359 22.8353C0.818359 34.4762 10.3497 43.9121 22.1164 43.9161C33.8831 43.9196 43.4229 34.4762 43.4229 22.8353C43.4229 11.1937 33.8916 1.7544 22.1164 1.7544ZM22.1164 43.1133C14.113 43.1133 7.83312 38.951 4.84231 33.2277L5.30459 33.058C6.08172 34.326 7.09713 35.4408 8.46112 36.9476C10.1422 38.7956 15.4587 42.3647 22.1124 42.3647C25.4707 42.3769 28.7763 41.5301 31.7151 39.9048C34.6545 38.279 37.1296 35.9288 38.9053 33.0774C39.1739 33.002 39.2596 32.8854 39.1704 32.6517C40.7698 29.8329 41.8561 26.2918 41.8561 22.8313C41.8561 20.6519 41.5361 18.8787 41.0293 17.2942C40.7156 16.3181 40.3337 15.3653 39.8864 14.4428C39.8358 14.3614 39.8097 14.2672 39.811 14.1714C39.8916 14.2325 39.9567 14.3119 40.0007 14.4028C40.3098 14.9674 41.0024 16.3502 41.3275 17.2502C41.7664 18.4513 42.5481 20.1142 42.5481 22.8313C42.5527 33.9225 33.4711 43.1196 22.1164 43.1133ZM5.06173 32.7374L19.9775 22.0113L18.7016 21.2833L5.41258 32.3346C3.92003 29.6289 2.88347 26.1546 2.88347 22.8507C2.88347 12.388 11.2091 3.91723 21.7507 3.85266L19.0313 20.7741L20.3021 21.513L22.0106 3.85551C22.0426 3.63266 22.1952 3.63266 22.1952 3.85551L22.2958 22.4758L25.3226 20.6981L22.4221 3.84866C32.7831 4.12579 41.367 12.4863 41.367 22.8175C41.367 26.1489 40.3613 29.6289 38.8373 32.3517L25.562 21.289L24.2838 22.0193L38.5521 32.3717C38.895 32.6157 38.7899 32.7266 38.4253 32.5231L22.4026 23.2787V26.7432L38.4619 32.882C35.0962 38.3733 29.0254 41.8864 22.0752 41.8864C15.1096 41.8864 9.13654 38.3751 5.77087 32.8751L21.8587 26.7324V23.2684L5.1983 32.8968C4.80288 33.1146 4.69831 32.9928 5.06173 32.7374ZM4.65145 32.9431C3.94689 31.482 3.20461 29.4232 2.89719 27.7946C2.88233 27.7089 2.88576 27.6209 2.90862 27.5375C2.96005 27.6141 2.9989 27.6986 3.02576 27.7872C3.50861 29.282 3.93032 30.6266 5.03202 32.646L4.65145 32.9431ZM42.5178 19.2587C42.467 19.1852 42.4279 19.1042 42.4018 19.0187C40.8447 14.2142 39.5184 12.3268 36.9625 9.52001C33.5945 5.82406 28.0974 2.96638 22.2466 2.9601C11.0639 2.95895 1.99206 12.0377 1.99206 23.225C1.99206 26.5506 2.71719 29.4237 3.30004 30.8666C3.98289 32.5397 5.16516 34.7934 5.22402 34.8951C5.26573 34.978 5.28687 35.07 5.28687 35.1631C5.21007 35.1016 5.14536 35.0265 5.09602 34.9414C4.75716 34.4488 3.36804 31.946 2.93776 30.8517C1.99206 28.4712 1.29778 25.8741 1.29778 23.1484C1.29778 11.6183 10.6245 2.2681 22.1569 2.2681C32.4591 2.2681 40.7641 9.42801 42.5178 19.0119C42.535 19.0936 42.535 19.1776 42.5178 19.2587Z" fill="#B7BFC7"/>
<path vector-effect="non-scaling-stroke" d="M34.4784 29.8504L23.4985 22.4888L22.5957 23.0048L34.4258 29.9344C34.6361 30.0555 34.6807 29.9801 34.4784 29.8504Z" fill="#B7BFC7"/>
</g>
<defs>
<clipPath id="clip0_1_6239">
<rect vector-effect="non-scaling-stroke" width="169.141" height="43.9994" fill="white" transform="translate(0.109375 0.500488)"/>
</clipPath>
</defs>
</svg>
