<svg preserveAspectRatio="none" width="17" height="17" viewBox="0 0 17 17" fill="none" xmlns="http://www.w3.org/2000/svg">
<path vector-effect="non-scaling-stroke" d="M8.6875 14.959L9.0325 15.625C8.92589 15.6802 8.80757 15.709 8.6875 15.709C8.56743 15.709 8.44911 15.6802 8.3425 15.625L8.3345 15.621L8.3165 15.611C8.21178 15.5569 8.10842 15.5002 8.0065 15.441C6.78769 14.7473 5.63782 13.939 4.5725 13.027C2.7325 11.44 0.6875 9.05898 0.6875 6.20898C0.6875 3.54498 2.7735 1.70898 4.9375 1.70898C6.4845 1.70898 7.8405 2.51098 8.6875 3.72898C9.5345 2.51098 10.8905 1.70898 12.4375 1.70898C14.6015 1.70898 16.6875 3.54498 16.6875 6.20898C16.6875 9.05898 14.6425 11.44 12.8025 13.027C11.6469 14.015 10.3922 14.8809 9.0585 15.611L9.0405 15.621L9.0345 15.624H9.0325L8.6875 14.959ZM4.9375 3.20898C3.6015 3.20898 2.1875 4.37298 2.1875 6.20898C2.1875 8.35898 3.7675 10.353 5.5525 11.891C6.52638 12.724 7.57594 13.4642 8.6875 14.102C9.79906 13.4642 10.8486 12.724 11.8225 11.891C13.6075 10.353 15.1875 8.35898 15.1875 6.20898C15.1875 4.37298 13.7735 3.20898 12.4375 3.20898C11.0645 3.20898 9.8285 4.19498 9.4085 5.66498C9.36427 5.82216 9.2699 5.96058 9.13974 6.05916C9.00958 6.15775 8.85078 6.2111 8.6875 6.2111C8.52422 6.2111 8.36541 6.15775 8.23526 6.05916C8.1051 5.96058 8.01073 5.82216 7.9665 5.66498C7.5465 4.19498 6.3105 3.20898 4.9375 3.20898Z" fill="#C9D1D9"/>
</svg>
