<svg preserveAspectRatio="none" width="17" height="17" viewBox="0 0 17 17" fill="none" xmlns="http://www.w3.org/2000/svg">
<g opacity="0.5">
<path vector-effect="non-scaling-stroke" d="M13.7483 5.72024C13.8179 5.78981 13.8732 5.87242 13.9109 5.96337C13.9486 6.05431 13.968 6.15179 13.968 6.25024C13.968 6.34869 13.9486 6.44618 13.9109 6.53712C13.8732 6.62806 13.8179 6.71068 13.7483 6.78024L9.49828 11.0302C9.42872 11.0999 9.3461 11.1552 9.25516 11.1929C9.16422 11.2306 9.06673 11.25 8.96828 11.25C8.86983 11.25 8.77235 11.2306 8.68141 11.1929C8.59046 11.1552 8.50785 11.0999 8.43828 11.0302L4.18828 6.78024C4.04772 6.63968 3.96875 6.44903 3.96875 6.25024C3.96875 6.15181 3.98814 6.05435 4.0258 5.96341C4.06347 5.87247 4.11868 5.78984 4.18828 5.72024C4.25788 5.65064 4.34051 5.59543 4.43145 5.55776C4.52239 5.5201 4.61985 5.50071 4.71828 5.50071C4.91707 5.50071 5.10772 5.57968 5.24828 5.72024L8.96828 9.43924L12.6883 5.72024C12.7578 5.65058 12.8405 5.59531 12.9314 5.5576C13.0223 5.5199 13.1198 5.50049 13.2183 5.50049C13.3167 5.50049 13.4142 5.5199 13.5052 5.5576C13.5961 5.59531 13.6787 5.65058 13.7483 5.72024Z" fill="white"/>
</g>
</svg>
