<svg preserveAspectRatio="none" width="19" height="19" viewBox="0 0 19 19" fill="none" xmlns="http://www.w3.org/2000/svg">
<g clip-path="url(#clip0_1_3363)">
<path vector-effect="non-scaling-stroke" d="M3.94043 2.7968C3.94025 3.19488 3.82128 3.58385 3.59875 3.91392C3.37622 4.24399 3.06025 4.50015 2.69129 4.6496C2.32233 4.79905 1.91716 4.835 1.52765 4.75284C1.13814 4.67068 0.782014 4.47415 0.504848 4.18841C0.227681 3.90268 0.0420896 3.54073 -0.0281709 3.1489C-0.0984315 2.75707 -0.0501643 2.35318 0.110452 1.98894C0.271069 1.6247 0.536727 1.31668 0.873422 1.1043C1.21012 0.891927 1.60253 0.784857 2.00043 0.796799C2.5204 0.812405 3.01382 1.02999 3.37601 1.40338C3.73821 1.77678 3.94066 2.2766 3.94043 2.7968ZM4.00043 6.2768H0.000430688V18.7968H4.00043V6.2768ZM10.3204 6.2768H6.34043V18.7968H10.2804V12.2268C10.2804 8.5668 15.0504 8.2268 15.0504 12.2268V18.7968H19.0004V10.8668C19.0004 4.6968 11.9404 4.9268 10.2804 7.9568L10.3204 6.2768Z" fill="#959DA5"/>
</g>
<defs>
<clipPath id="clip0_1_3363">
<rect vector-effect="non-scaling-stroke" width="19" height="18" fill="white" transform="translate(0 0.796875)"/>
</clipPath>
</defs>
</svg>
