<svg preserveAspectRatio="none" width="74" height="33" viewBox="0 0 74 33" fill="none" xmlns="http://www.w3.org/2000/svg">
<g clip-path="url(#clip0_1_6244)">
<path vector-effect="non-scaling-stroke" d="M31.705 11.6678C35.1337 3.26048 28.7189 0.975098 24.5528 0.975098H10.7277C11.1301 1.22783 11.4261 1.61806 11.5601 2.07262C11.6942 2.52717 11.6571 3.0148 11.4558 3.44406L3.40034 29.0699C3.2076 29.5682 2.9167 30.0231 2.54472 30.4077C2.17274 30.7923 1.72719 31.0989 1.23438 31.3094H12.4143C11.9711 31.1755 11.5987 30.873 11.3778 30.4675C11.157 30.0622 11.1055 29.5864 11.2346 29.1434L14.1563 19.8731C14.1563 19.8731 27.6221 21.7089 31.6683 11.6678H31.705ZM20.8385 3.3339C22.304 3.3339 26.3686 3.53583 23.7325 11.1722C20.9676 19.1941 14.9121 17.5419 14.9121 17.5419L19.3823 3.3339H20.8292H20.8385Z" fill="#B7BFC7"/>
<path vector-effect="non-scaling-stroke" d="M40.6544 31.328H48.1846C45.4221 30.3172 42.9083 28.7306 40.811 26.6746C42.4736 25.1003 43.4805 22.9608 43.6315 20.681H39.7326C39.9589 20.8254 40.1454 21.0235 40.2756 21.2574C40.406 21.4912 40.476 21.7537 40.4793 22.0211C40.4511 23.0452 40.0996 24.0343 39.4746 24.8482C38.0546 22.9549 37.1069 20.7529 36.7096 18.4232C38.6355 17.6443 40.4488 16.6134 42.1015 15.3577C42.6802 14.9234 43.1596 14.3714 43.5076 13.7384C43.8556 13.1055 44.0645 12.4059 44.1199 11.6864V11.5762C44.1222 11.1267 44.0336 10.6813 43.8593 10.2667C43.6852 9.85193 43.429 9.47636 43.106 9.16236C42.4646 8.58981 41.6944 8.17923 40.8604 7.96519C40.0262 7.75115 39.1526 7.7399 38.3133 7.93244C37.0446 8.1848 35.8634 8.76033 34.8847 9.60288C32.6173 11.7323 32.3316 15.2292 32.3316 16.817V17.6614L31.9721 17.8082C30.3131 18.4232 25.8798 19.5888 24.3038 23.2234C23.9763 24.0569 23.8105 24.9444 23.8154 25.8393C23.7958 26.9425 24.0933 28.0285 24.6725 28.969C25.7876 30.7129 27.6863 31.8144 30.7187 31.7226C34.0183 31.6676 37.2719 29.428 37.8433 28.969C38.6814 29.8259 39.6083 30.592 40.6083 31.2545L40.6544 31.328ZM40.6544 11.0531C40.2673 13.4945 37.0876 15.9634 36.3133 16.2939C36.0764 14.4526 36.4553 12.5849 37.3916 10.9797C38.1474 9.8048 39.1705 9.29087 39.9907 9.58454C40.6544 9.81397 40.7189 10.4106 40.6637 11.0531H40.6544ZM36.2673 27.3904C35.088 28.0667 33.7897 28.5122 32.4423 28.7029C30.9214 28.8497 28.3961 28.2624 28.4145 25.2335C28.4145 22.6453 31.2348 20.7546 32.7741 20.0937C33.4718 22.7232 34.6598 25.1984 36.2765 27.3904H36.2673Z" fill="#B7BFC7"/>
<path vector-effect="non-scaling-stroke" d="M63.5208 3.36165C67.9909 2.28779 71.6775 5.77555 72.0094 6.01419L73.2813 1.97575C71.5209 1.4434 58.6818 -2.87958 49.6125 7.42766C44.0364 13.7698 42.6724 26.7572 49.7416 30.2449C57.3086 33.9713 65.6682 29.6759 66.3318 29.373L69.742 18.405C69.9188 17.7531 70.2609 17.1574 70.7353 16.6753C71.2099 16.1931 71.801 15.8406 72.4518 15.6514H60.47C61.0112 15.7997 61.4717 16.1547 61.7514 16.6395C62.031 17.1242 62.1071 17.6994 61.9632 18.2397L58.5068 29.2077C58.0459 29.2904 48.3683 31.6951 53.7878 14.8622C54.9767 11.2459 58.2302 4.62827 63.5483 3.35249L63.5208 3.36165Z" fill="#B7BFC7"/>
</g>
<defs>
<clipPath id="clip0_1_6244">
<rect vector-effect="non-scaling-stroke" width="72.6406" height="31.9965" fill="white" transform="translate(0.96875 0.501953)"/>
</clipPath>
</defs>
</svg>
