<svg preserveAspectRatio="none" width="17" height="17" viewBox="0 0 17 17" fill="none" xmlns="http://www.w3.org/2000/svg">
<path vector-effect="non-scaling-stroke" d="M7.71783 3.51654C7.42494 3.22365 6.95006 3.22365 6.65717 3.51654C6.36428 3.80943 6.36428 4.28431 6.65717 4.5772L7.71783 3.51654ZM11.4375 8.29687L11.9678 8.8272C12.2607 8.53431 12.2607 8.05943 11.9678 7.76654L11.4375 8.29687ZM6.65717 12.0166C6.36428 12.3095 6.36428 12.7843 6.65717 13.0772C6.95006 13.3701 7.42494 13.3701 7.71783 13.0772L6.65717 12.0166ZM6.65717 4.5772L10.9072 8.8272L11.9678 7.76654L7.71783 3.51654L6.65717 4.5772ZM10.9072 7.76654L6.65717 12.0166L7.71783 13.0772L11.9678 8.8272L10.9072 7.76654Z" fill="#24292F"/>
<path vector-effect="non-scaling-stroke" d="M2.1875 8.29688H11.4375Z" fill="#24292F"/>
<path vector-effect="non-scaling-stroke" d="M2.1875 8.29688H11.4375" stroke="#24292F" stroke-width="1.5" stroke-linecap="round" stroke-dasharray="10 10"/>
</svg>
