<svg preserveAspectRatio="none" width="17" height="17" viewBox="0 0 17 17" fill="none" xmlns="http://www.w3.org/2000/svg">
<g opacity="0.5">
<path vector-effect="non-scaling-stroke" d="M12.9202 5.72024C12.9898 5.78981 13.0451 5.87242 13.0828 5.96337C13.1205 6.05431 13.1399 6.15179 13.1399 6.25024C13.1399 6.34869 13.1205 6.44618 13.0828 6.53712C13.0451 6.62806 12.9898 6.71068 12.9202 6.78024L8.67016 11.0302C8.60059 11.0999 8.51798 11.1552 8.42703 11.1929C8.33609 11.2306 8.23861 11.25 8.14016 11.25C8.04171 11.25 7.94422 11.2306 7.85328 11.1929C7.76234 11.1552 7.67972 11.0999 7.61016 11.0302L3.36016 6.78024C3.21959 6.63968 3.14062 6.44903 3.14062 6.25024C3.14062 6.15181 3.16001 6.05435 3.19768 5.96341C3.23535 5.87247 3.29056 5.78984 3.36016 5.72024C3.42976 5.65064 3.51239 5.59543 3.60332 5.55776C3.69426 5.5201 3.79173 5.50071 3.89016 5.50071C4.08895 5.50071 4.27959 5.57968 4.42016 5.72024L8.14016 9.43924L11.8602 5.72024C11.9297 5.65058 12.0123 5.59531 12.1033 5.5576C12.1942 5.5199 12.2917 5.50049 12.3902 5.50049C12.4886 5.50049 12.5861 5.5199 12.677 5.5576C12.768 5.59531 12.8506 5.65058 12.9202 5.72024Z" fill="white"/>
</g>
</svg>
