<svg preserveAspectRatio="none" width="20" height="21" viewBox="0 0 20 21" fill="none" xmlns="http://www.w3.org/2000/svg">
<path vector-effect="non-scaling-stroke" d="M14.1002 4.32199L19.4127 9.63449C19.5882 9.81027 19.6868 10.0486 19.6868 10.297C19.6868 10.5454 19.5882 10.7837 19.4127 10.9595L14.1002 16.272C13.9856 16.3954 13.8398 16.4856 13.6782 16.5331C13.5167 16.5806 13.3453 16.5837 13.1821 16.542C13.019 16.5003 12.8701 16.4153 12.7512 16.2961C12.6323 16.1769 12.5477 16.0278 12.5064 15.8645C12.4646 15.7015 12.4675 15.5303 12.5148 15.3689C12.5621 15.2074 12.6521 15.0617 12.7752 14.947L17.4252 10.297L12.7752 5.64699C12.6517 5.5324 12.5615 5.38665 12.514 5.22509C12.4665 5.06353 12.4634 4.89214 12.5052 4.72899C12.5469 4.56583 12.6318 4.41695 12.7511 4.29802C12.8703 4.1791 13.0194 4.09453 13.1827 4.05324C13.3456 4.01147 13.5168 4.01439 13.6783 4.06168C13.8397 4.10897 13.9855 4.19889 14.1002 4.32199ZM5.90015 4.32199C6.07798 4.15648 6.31304 4.06635 6.55594 4.07055C6.79884 4.07474 7.03065 4.17294 7.20265 4.34449C7.37421 4.5165 7.4724 4.74831 7.4766 4.9912C7.48079 5.2341 7.39066 5.46917 7.22515 5.64699L2.57515 10.297L7.22515 14.947C7.34856 15.0616 7.43877 15.2073 7.48629 15.3689C7.53381 15.5305 7.53687 15.7018 7.49515 15.865C7.45344 16.0282 7.36849 16.177 7.24925 16.296C7.13002 16.4149 6.98091 16.4995 6.81765 16.5407C6.65468 16.5825 6.48347 16.5796 6.32201 16.5323C6.16056 16.485 6.01483 16.3951 5.90015 16.272L0.587652 10.9595C0.412089 10.7837 0.313477 10.5454 0.313477 10.297C0.313477 10.0486 0.412089 9.81027 0.587652 9.63449L5.90015 4.32199Z" fill="#1A7F37"/>
</svg>
