<svg preserveAspectRatio="none" width="25" height="25" viewBox="0 0 25 25" fill="none" xmlns="http://www.w3.org/2000/svg">
<path vector-effect="non-scaling-stroke" d="M15.5484 5.71983C15.6891 5.57938 15.8797 5.50049 16.0784 5.50049C16.2772 5.50049 16.4678 5.57938 16.6084 5.71983L23.1084 12.2198C23.2489 12.3605 23.3278 12.5511 23.3278 12.7498C23.3278 12.9486 23.2489 13.1392 23.1084 13.2798L16.6084 19.7798C16.5168 19.8786 16.4002 19.9507 16.2709 19.9887C16.1417 20.0268 16.0046 20.0292 15.874 19.9958C15.7435 19.9625 15.6244 19.8945 15.5293 19.7991C15.4341 19.7037 15.3665 19.5844 15.3334 19.4538C15.3 19.3235 15.3024 19.1865 15.3402 19.0573C15.378 18.9282 15.45 18.8116 15.5484 18.7198L21.5184 12.7498L15.5484 6.77983C15.408 6.6392 15.3291 6.44858 15.3291 6.24983C15.3291 6.05108 15.408 5.86045 15.5484 5.71983ZM9.10844 5.71983C9.24889 5.86045 9.32778 6.05108 9.32778 6.24983C9.32778 6.44858 9.24889 6.6392 9.10844 6.77983L3.13844 12.7498L9.10844 18.7198C9.20717 18.8115 9.27934 18.9281 9.31735 19.0574C9.35537 19.1866 9.35782 19.3237 9.32444 19.4542C9.29107 19.5848 9.22311 19.7039 9.12772 19.799C9.03233 19.8941 8.91305 19.9618 8.78244 19.9948C8.65207 20.0282 8.51509 20.0259 8.38593 19.9881C8.25677 19.9502 8.14018 19.8783 8.04844 19.7798L1.54844 13.2798C1.40799 13.1392 1.3291 12.9486 1.3291 12.7498C1.3291 12.5511 1.40799 12.3605 1.54844 12.2198L8.04844 5.71983C8.18907 5.57938 8.37969 5.50049 8.57844 5.50049C8.77719 5.50049 8.96782 5.57938 9.10844 5.71983Z" fill="white"/>
</svg>
