<svg preserveAspectRatio="none" width="17" height="17" viewBox="0 0 17 17" fill="none" xmlns="http://www.w3.org/2000/svg">
<path vector-effect="non-scaling-stroke" d="M8.76172 15.1006L9.10672 15.7666C9.00011 15.8218 8.88179 15.8506 8.76172 15.8506C8.64165 15.8506 8.52333 15.8218 8.41672 15.7666L8.40872 15.7626L8.39072 15.7526C8.286 15.6985 8.18264 15.6418 8.08072 15.5826C6.86191 14.8889 5.71203 14.0806 4.64672 13.1686C2.80672 11.5816 0.761719 9.20059 0.761719 6.35059C0.761719 3.68659 2.84772 1.85059 5.01172 1.85059C6.55872 1.85059 7.91472 2.65259 8.76172 3.87059C9.60872 2.65259 10.9647 1.85059 12.5117 1.85059C14.6757 1.85059 16.7617 3.68659 16.7617 6.35059C16.7617 9.20059 14.7167 11.5816 12.8767 13.1686C11.7211 14.1566 10.4664 15.0225 9.13272 15.7526L9.11472 15.7626L9.10872 15.7656H9.10672L8.76172 15.1006ZM5.01172 3.35059C3.67572 3.35059 2.26172 4.51459 2.26172 6.35059C2.26172 8.50059 3.84172 10.4946 5.62672 12.0326C6.6006 12.8656 7.65016 13.6058 8.76172 14.2436C9.87328 13.6058 10.9228 12.8656 11.8967 12.0326C13.6817 10.4946 15.2617 8.50059 15.2617 6.35059C15.2617 4.51459 13.8477 3.35059 12.5117 3.35059C11.1387 3.35059 9.90272 4.33659 9.48272 5.80659C9.43849 5.96376 9.34412 6.10218 9.21396 6.20077C9.0838 6.29935 8.925 6.35271 8.76172 6.35271C8.59844 6.35271 8.43963 6.29935 8.30948 6.20077C8.17932 6.10218 8.08495 5.96376 8.04072 5.80659C7.62072 4.33659 6.38472 3.35059 5.01172 3.35059Z" fill="#C9D1D9"/>
</svg>
