<svg preserveAspectRatio="none" width="21" height="21" viewBox="0 0 21 21" fill="none" xmlns="http://www.w3.org/2000/svg">
<path vector-effect="non-scaling-stroke" d="M9.74103 4.88396C9.37492 4.51785 8.78132 4.51785 8.41521 4.88396C8.0491 5.25007 8.0491 5.84367 8.41521 6.20978L9.74103 4.88396ZM14.3906 10.8594L15.0535 11.5223C15.4196 11.1562 15.4196 10.5626 15.0535 10.1965L14.3906 10.8594ZM8.41521 15.509C8.0491 15.8751 8.0491 16.4686 8.41521 16.8347C8.78132 17.2009 9.37492 17.2009 9.74103 16.8347L8.41521 15.509ZM8.41521 6.20978L13.7277 11.5223L15.0535 10.1965L9.74103 4.88396L8.41521 6.20978ZM13.7277 10.1965L8.41521 15.509L9.74103 16.8347L15.0535 11.5223L13.7277 10.1965Z" fill="white"/>
<path vector-effect="non-scaling-stroke" d="M2.82812 10.8594H14.3906Z" fill="white"/>
<path vector-effect="non-scaling-stroke" d="M2.82812 10.8594H14.3906" stroke="white" stroke-width="1.875" stroke-linecap="round" stroke-dasharray="12.5 12.5"/>
</svg>
