<svg preserveAspectRatio="none" width="25" height="25" viewBox="0 0 25 25" fill="none" xmlns="http://www.w3.org/2000/svg">
<path vector-effect="non-scaling-stroke" d="M6.32812 9.85938V8.10938C6.32812 4.70438 8.83113 1.85938 12.3281 1.85938C15.8251 1.85938 18.3281 4.70438 18.3281 8.10938V9.85938H18.8281C19.4912 9.85938 20.1271 10.1228 20.5959 10.5916C21.0647 11.0604 21.3281 11.6963 21.3281 12.3594V20.3594C21.3281 21.0224 21.0647 21.6583 20.5959 22.1271C20.1271 22.596 19.4912 22.8594 18.8281 22.8594H5.82812C5.16508 22.8594 4.5292 22.596 4.06036 22.1271C3.59152 21.6583 3.32812 21.0224 3.32812 20.3594V12.3594C3.32812 11.6963 3.59152 11.0604 4.06036 10.5916C4.5292 10.1228 5.16508 9.85937 5.82812 9.85938H6.32812ZM4.82812 12.3594V20.3594C4.82812 20.6246 4.93348 20.8789 5.12102 21.0665C5.30855 21.254 5.56291 21.3594 5.82812 21.3594H18.8281C19.0933 21.3594 19.3477 21.254 19.5352 21.0665C19.7228 20.8789 19.8281 20.6246 19.8281 20.3594V12.3594C19.8281 12.0942 19.7228 11.8398 19.5352 11.6523C19.3477 11.4647 19.0933 11.3594 18.8281 11.3594H5.82812C5.56291 11.3594 5.30855 11.4647 5.12102 11.6523C4.93348 11.8398 4.82812 12.0942 4.82812 12.3594ZM7.82812 8.10938V9.85938H16.8281V8.10938C16.8281 5.43937 14.9061 3.35938 12.3281 3.35938C9.75012 3.35938 7.82812 5.43937 7.82812 8.10938Z" fill="white"/>
</svg>
