<svg preserveAspectRatio="none" width="16" height="16" viewBox="0 0 16 16" fill="none" xmlns="http://www.w3.org/2000/svg">
<path vector-effect="non-scaling-stroke" d="M7.99972 16C8.48697 16.0002 8.95753 15.8225 9.32302 15.5002C9.68852 15.178 9.92381 14.7334 9.98472 14.25C10.0017 14.113 9.88772 14 9.74972 14H6.24972C6.11172 14 5.99772 14.113 6.01472 14.25C6.07562 14.7334 6.31092 15.178 6.67641 15.5002C7.04191 15.8225 7.51246 16.0002 7.99972 16ZM2.99972 5C2.99972 3.67392 3.5265 2.40215 4.46418 1.46447C5.40187 0.526784 6.67363 0 7.99972 0C9.3258 0 10.5976 0.526784 11.5353 1.46447C12.4729 2.40215 12.9997 3.67392 12.9997 5V7.947C12.9997 7.997 13.0147 8.045 13.0417 8.086L14.7447 10.641C14.8965 10.8697 14.9835 11.1352 14.9964 11.4093C15.0094 11.6835 14.9478 11.956 14.8183 12.198C14.6887 12.4399 14.496 12.6423 14.2607 12.7835C14.0254 12.9247 13.7562 12.9995 13.4817 13H2.51772C2.2427 13.0007 1.97268 12.9265 1.73657 12.7855C1.50047 12.6444 1.30719 12.4418 1.17742 12.1993C1.04765 11.9568 0.98629 11.6836 0.999906 11.4089C1.01352 11.1343 1.1016 10.8685 1.25472 10.64L2.95772 8.086C2.98489 8.04472 2.99948 7.99642 2.99972 7.947V5ZM7.99972 1.5C7.07146 1.5 6.18122 1.86875 5.52484 2.52513C4.86847 3.1815 4.49972 4.07174 4.49972 5V7.947C4.49972 8.293 4.39772 8.63 4.20572 8.917L2.50272 11.473C2.50069 11.4759 2.49964 11.4794 2.49972 11.483L2.50072 11.489C2.50072 11.491 2.50272 11.493 2.50472 11.495L2.51072 11.499L2.51772 11.5H13.4817L13.4887 11.499L13.4947 11.495L13.4987 11.489L13.4997 11.482C13.4998 11.4784 13.4987 11.4749 13.4967 11.472L11.7937 8.918C11.6019 8.63088 11.4996 8.2933 11.4997 7.948V5C11.4997 4.07174 11.131 3.1815 10.4746 2.52513C9.81821 1.86875 8.92797 1.5 7.99972 1.5Z" fill="white"/>
</svg>
