<svg preserveAspectRatio="none" width="17" height="16" viewBox="0 0 17 16" fill="none" xmlns="http://www.w3.org/2000/svg">
<path vector-effect="non-scaling-stroke" d="M10.0625 3.24981C10.0627 2.83734 10.1762 2.43284 10.3906 2.08052C10.6051 1.7282 10.9123 1.44162 11.2787 1.25209C11.645 1.06256 12.0564 0.97738 12.4679 1.00586C12.8794 1.03434 13.2751 1.17538 13.6118 1.41357C13.9486 1.65176 14.2134 1.97793 14.3773 2.35644C14.5412 2.73494 14.5979 3.15122 14.5412 3.55977C14.4845 3.96833 14.3166 4.35343 14.0558 4.67301C13.795 4.99258 13.4514 5.23432 13.0625 5.37181V5.99981C13.0625 6.66285 12.7991 7.29874 12.3303 7.76758C11.8615 8.23642 11.2256 8.49981 10.5625 8.49981H6.56253C6.29731 8.49981 6.04296 8.60517 5.85542 8.7927C5.66789 8.98024 5.56253 9.23459 5.56253 9.49981V10.6278C6.06322 10.8047 6.48523 11.153 6.75398 11.611C7.02273 12.069 7.1209 12.6073 7.03114 13.1307C6.94138 13.6541 6.66948 14.1289 6.26349 14.4712C5.85749 14.8135 5.34356 15.0012 4.81253 15.0012C4.2815 15.0012 3.76756 14.8135 3.36157 14.4712C2.95558 14.1289 2.68367 13.6541 2.59392 13.1307C2.50416 12.6073 2.60233 12.069 2.87108 11.611C3.13982 11.153 3.56184 10.8047 4.06253 10.6278V5.37181C3.56212 5.19489 3.14036 4.84676 2.8718 4.38895C2.60325 3.93114 2.50518 3.39313 2.59493 2.87001C2.68468 2.34689 2.95648 1.87234 3.36228 1.53023C3.76808 1.18812 4.28176 1.00049 4.81253 1.00049C5.34329 1.00049 5.85697 1.18812 6.26277 1.53023C6.66857 1.87234 6.94037 2.34689 7.03012 2.87001C7.11988 3.39313 7.02181 3.93114 6.75325 4.38895C6.48469 4.84676 6.06294 5.19489 5.56253 5.37181V7.20781C5.87793 7.0702 6.21841 6.99938 6.56253 6.99981H10.5625C10.8277 6.99981 11.0821 6.89445 11.2696 6.70692C11.4572 6.51938 11.5625 6.26503 11.5625 5.99981V5.37181C11.1237 5.21667 10.7439 4.92929 10.4752 4.54925C10.2066 4.16921 10.0624 3.71521 10.0625 3.24981ZM4.06253 3.24981C4.06253 3.44872 4.14155 3.63949 4.2822 3.78014C4.42285 3.92079 4.61362 3.99981 4.81253 3.99981C5.01144 3.99981 5.20221 3.92079 5.34286 3.78014C5.48351 3.63949 5.56253 3.44872 5.56253 3.24981C5.56253 3.0509 5.48351 2.86013 5.34286 2.71948C5.20221 2.57883 5.01144 2.49981 4.81253 2.49981C4.61362 2.49981 4.42285 2.57883 4.2822 2.71948C4.14155 2.86013 4.06253 3.0509 4.06253 3.24981ZM12.3125 2.49981C12.1136 2.49981 11.9229 2.57883 11.7822 2.71948C11.6415 2.86013 11.5625 3.0509 11.5625 3.24981C11.5625 3.44872 11.6415 3.63949 11.7822 3.78014C11.9229 3.92079 12.1136 3.99981 12.3125 3.99981C12.5114 3.99981 12.7022 3.92079 12.8429 3.78014C12.9835 3.63949 13.0625 3.44872 13.0625 3.24981C13.0625 3.0509 12.9835 2.86013 12.8429 2.71948C12.7022 2.57883 12.5114 2.49981 12.3125 2.49981ZM4.81253 11.9998C4.61362 11.9998 4.42285 12.0788 4.2822 12.2195C4.14155 12.3601 4.06253 12.5509 4.06253 12.7498C4.06253 12.9487 4.14155 13.1395 4.2822 13.2801C4.42285 13.4208 4.61362 13.4998 4.81253 13.4998C5.01144 13.4998 5.20221 13.4208 5.34286 13.2801C5.48351 13.1395 5.56253 12.9487 5.56253 12.7498C5.56253 12.5509 5.48351 12.3601 5.34286 12.2195C5.20221 12.0788 5.01144 11.9998 4.81253 11.9998Z" fill="#C9D1D9"/>
</svg>
