<svg preserveAspectRatio="none" width="18" height="19" viewBox="0 0 18 19" fill="none" xmlns="http://www.w3.org/2000/svg">
<g clip-path="url(#clip0_1_3360)">
<path vector-effect="non-scaling-stroke" d="M17.007 0.796875H0.994029C0.733668 0.820548 0.49209 0.942476 0.318402 1.13788C0.144713 1.33328 0.0519488 1.58748 0.0589645 1.84882V17.7449C0.0519488 18.0063 0.144713 18.2605 0.318402 18.4559C0.49209 18.6513 0.733668 18.7732 0.994029 18.7969H9.5265V11.7839H7.18883V9.09558H9.5265V7.10856C9.45012 6.24389 9.7119 5.38327 10.2568 4.70758C10.8017 4.03189 11.5873 3.59373 12.4486 3.48519H13.033C13.7363 3.46583 14.44 3.50492 15.1369 3.60207V6.05662H13.6174C12.4486 6.05662 12.3317 6.64103 12.3317 7.34233V9.09558H15.02L14.6694 11.7839H12.3317V18.68H16.8901C17.1515 18.687 17.4057 18.5942 17.6011 18.4206C17.7965 18.2469 17.9184 18.0053 17.9421 17.7449V1.73194C17.9257 1.48935 17.8219 1.26093 17.65 1.089C17.478 0.917068 17.2496 0.813284 17.007 0.796875Z" fill="#959DA5"/>
</g>
<defs>
<clipPath id="clip0_1_3360">
<rect vector-effect="non-scaling-stroke" width="17.8831" height="18" fill="white" transform="translate(0.0585938 0.796875)"/>
</clipPath>
</defs>
</svg>
