<svg preserveAspectRatio="none" width="19" height="19" viewBox="0 0 19 19" fill="none" xmlns="http://www.w3.org/2000/svg">
<g clip-path="url(#clip0_1_6887)">
<path vector-effect="non-scaling-stroke" d="M3.94043 2.45305C3.94025 2.85113 3.82128 3.2401 3.59875 3.57017C3.37622 3.90024 3.06025 4.1564 2.69129 4.30585C2.32233 4.4553 1.91716 4.49125 1.52765 4.40909C1.13814 4.32693 0.782014 4.1304 0.504848 3.84466C0.227681 3.55893 0.0420896 3.19698 -0.0281709 2.80515C-0.0984315 2.41332 -0.0501643 2.00943 0.110452 1.64519C0.271069 1.28095 0.536727 0.972932 0.873422 0.760554C1.21012 0.548177 1.60253 0.441107 2.00043 0.453049C2.5204 0.468655 3.01382 0.686238 3.37601 1.05963C3.73821 1.43303 3.94066 1.93285 3.94043 2.45305ZM4.00043 5.93305H0.000430688V18.453H4.00043V5.93305ZM10.3204 5.93305H6.34043V18.453H10.2804V11.883C10.2804 8.22305 15.0504 7.88305 15.0504 11.883V18.453H19.0004V10.523C19.0004 4.35305 11.9404 4.58305 10.2804 7.61305L10.3204 5.93305Z" fill="#959DA5"/>
</g>
<defs>
<clipPath id="clip0_1_6887">
<rect vector-effect="non-scaling-stroke" width="19" height="18" fill="white" transform="translate(0 0.453125)"/>
</clipPath>
</defs>
</svg>
