<svg preserveAspectRatio="none" width="17" height="16" viewBox="0 0 17 16" fill="none" xmlns="http://www.w3.org/2000/svg">
<path vector-effect="non-scaling-stroke" d="M8.59331 2C10.5743 2 12.2643 2.992 13.5263 4.078C14.7963 5.169 15.7133 6.423 16.1633 7.101C16.3409 7.36719 16.4356 7.68001 16.4356 8C16.4356 8.31999 16.3409 8.63281 16.1633 8.899C15.7133 9.577 14.7963 10.831 13.5263 11.922C12.2633 13.008 10.5743 14 8.59331 14C6.61231 14 4.92231 13.008 3.66031 11.922C2.39031 10.83 1.47331 9.576 1.02331 8.898C0.84574 8.63181 0.750977 8.31899 0.750977 7.999C0.750977 7.67901 0.84574 7.36619 1.02331 7.1C1.47331 6.423 2.39031 5.169 3.66031 4.078C4.92331 2.992 6.61231 2 8.59331 2ZM2.27231 7.932C2.25855 7.95201 2.25119 7.97572 2.25119 8C2.25119 8.02428 2.25855 8.04799 2.27231 8.068C2.68331 8.69 3.51331 9.818 4.63831 10.785C5.76931 11.758 7.12031 12.5 8.59331 12.5C10.0663 12.5 11.4183 11.758 12.5483 10.785C13.6723 9.818 14.5023 8.689 14.9143 8.068C14.9281 8.04799 14.9354 8.02428 14.9354 8C14.9354 7.97572 14.9281 7.95201 14.9143 7.932C14.5023 7.311 13.6723 6.182 12.5483 5.215C11.4173 4.242 10.0663 3.5 8.59331 3.5C7.12031 3.5 5.76831 4.242 4.63831 5.215C3.51431 6.182 2.68431 7.311 2.27231 7.932ZM8.59331 10C8.32697 10.006 8.06212 9.95877 7.81429 9.86103C7.56646 9.76328 7.34066 9.61701 7.15014 9.4308C6.95962 9.24458 6.80822 9.02218 6.70484 8.77666C6.60145 8.53113 6.54816 8.26742 6.5481 8.00101C6.54803 7.7346 6.60119 7.47087 6.70445 7.22529C6.80771 6.97971 6.959 6.75723 7.14942 6.57093C7.33985 6.38462 7.56558 6.23823 7.81336 6.14036C8.06114 6.04249 8.32597 5.99511 8.59231 6.001C9.11487 6.01256 9.61215 6.22822 9.97768 6.60184C10.3432 6.97545 10.548 7.47732 10.5481 8.00001C10.5482 8.5227 10.3437 9.02467 9.97838 9.39847C9.61303 9.77227 9.11587 9.98818 8.59331 10Z" fill="#8B949E"/>
</svg>
