<svg preserveAspectRatio="none" width="18" height="19" viewBox="0 0 18 19" fill="none" xmlns="http://www.w3.org/2000/svg">
<g clip-path="url(#clip0_1_6896)">
<path vector-effect="non-scaling-stroke" d="M9.39384 0.468125C10.3763 0.453125 11.3513 0.460625 12.3263 0.453125C12.3863 1.60062 12.7988 2.77062 13.6388 3.58062C14.4788 4.41312 15.6638 4.79562 16.8188 4.92312V7.94562C15.7388 7.90812 14.6513 7.68312 13.6688 7.21812C13.2413 7.02312 12.8438 6.77562 12.4538 6.52062C12.4463 8.71062 12.4613 10.9006 12.4388 13.0831C12.3788 14.1331 12.0338 15.1756 11.4263 16.0381C10.4438 17.4781 8.74134 18.4156 6.99384 18.4456C5.92134 18.5056 4.84884 18.2131 3.93384 17.6731C2.41884 16.7806 1.35384 15.1456 1.19634 13.3906C1.18134 13.0156 1.17384 12.6406 1.18884 12.2731C1.32384 10.8481 2.02884 9.48312 3.12384 8.55312C4.36884 7.47312 6.10884 6.95562 7.73634 7.26312C7.75134 8.37312 7.70634 9.48312 7.70634 10.5931C6.96384 10.3531 6.09384 10.4206 5.44134 10.8706C4.96884 11.1781 4.60884 11.6506 4.42134 12.1831C4.26384 12.5656 4.30884 12.9856 4.31634 13.3906C4.49634 14.6206 5.68134 15.6556 6.94134 15.5431C7.78134 15.5356 8.58384 15.0481 9.01884 14.3356C9.16134 14.0881 9.31884 13.8331 9.32634 13.5406C9.40134 12.1981 9.37134 10.8631 9.37884 9.52062C9.38634 6.49812 9.37134 3.48312 9.39384 0.468125Z" fill="#959DA5"/>
</g>
<defs>
<clipPath id="clip0_1_6896">
<rect vector-effect="non-scaling-stroke" width="18" height="18" fill="white" transform="translate(0 0.453125)"/>
</clipPath>
</defs>
</svg>
