<svg preserveAspectRatio="none" width="25" height="44" viewBox="0 0 25 44" fill="none" xmlns="http://www.w3.org/2000/svg">
<path vector-effect="non-scaling-stroke" d="M15.6763 23.7006C15.6763 24.6026 14.9083 25.2826 13.8713 25.2826C13.1393 25.2826 12.5943 24.9076 12.5943 24.2626C12.5943 23.6306 13.0163 23.2966 13.9773 23.2316L15.6763 23.1206V23.7006ZM14.2813 19.6286C12.9343 19.6286 11.9383 20.2966 11.8033 21.3096H12.8223C12.9633 20.8116 13.4903 20.5246 14.2463 20.5246C15.1903 20.5246 15.6763 20.9526 15.6763 21.7316V22.3056L13.8543 22.4176C12.3833 22.5056 11.5513 23.1556 11.5513 24.2866C11.5513 25.4406 12.4593 26.1676 13.6843 26.1676C14.5283 26.1676 15.2193 25.7986 15.6293 25.1246H15.7233V26.0556H16.6843V21.7316C16.6843 20.4196 15.8223 19.6286 14.2813 19.6286ZM21.0503 25.2036C19.8953 25.2036 19.2043 24.3186 19.2043 22.8426C19.2043 21.3716 19.9013 20.4806 21.0503 20.4806C22.1923 20.4806 22.9073 21.3946 22.9073 22.8426C22.9073 24.3016 22.1983 25.2036 21.0503 25.2036ZM22.8843 17.1766V20.6796H22.7963C22.4383 19.9886 21.6943 19.5726 20.8153 19.5726C19.2103 19.5726 18.1613 20.8616 18.1613 22.8426C18.1613 24.8286 19.1983 26.1116 20.8153 26.1116C21.6883 26.1116 22.4383 25.6956 22.8373 24.9926H22.9303V26.0006H23.8913V17.1766H22.8843ZM7.4903 22.0456H5.6273V18.4826H7.4903C8.7153 18.4826 9.3893 19.1216 9.3893 20.2816C9.3893 21.4006 8.6923 22.0456 7.4903 22.0456ZM7.7663 17.5456H4.5723V26.0006H5.6273V22.9826H7.7543C9.3423 22.9826 10.4733 21.8636 10.4733 20.2816C10.4733 18.6706 9.3653 17.5456 7.7663 17.5456ZM1.7023 25.9996H2.7103V19.6836H1.7023V25.9996ZM1.5033 17.7626C1.5033 17.3756 1.8193 17.0586 2.2063 17.0586C2.5933 17.0586 2.9093 17.3756 2.9093 17.7626C2.9093 18.1486 2.5933 18.4656 2.2063 18.4656C1.8193 18.4656 1.5033 18.1486 1.5033 17.7626Z" fill="black" fill-opacity="0.8"/>
</svg>
