<svg preserveAspectRatio="none" width="16" height="44" viewBox="0 0 16 44" fill="none" xmlns="http://www.w3.org/2000/svg">
<path vector-effect="non-scaling-stroke" d="M15.2667 27.2022L11.3967 23.3322C12.0977 22.4032 12.5187 21.2512 12.5187 20.0002C12.5187 16.9402 10.0297 14.4502 6.9687 14.4502C3.9087 14.4502 1.4187 16.9402 1.4187 20.0002C1.4187 23.0612 3.9087 25.5502 6.9687 25.5502C8.2197 25.5502 9.3717 25.1292 10.3007 24.4282L14.1707 28.2982C14.3217 28.4492 14.5207 28.5262 14.7187 28.5262C14.9167 28.5262 15.1147 28.4502 15.2667 28.2982C15.5697 27.9952 15.5697 27.5052 15.2667 27.2022ZM2.5187 20.0002C2.5187 17.5462 4.5157 15.5502 6.9687 15.5502C9.4227 15.5502 11.4187 17.5472 11.4187 20.0002C11.4187 22.4532 9.4227 24.4502 6.9687 24.4502C4.5147 24.4502 2.5187 22.4542 2.5187 20.0002Z" fill="black" fill-opacity="0.8"/>
</svg>
