<svg preserveAspectRatio="none" width="17" height="16" viewBox="0 0 17 16" fill="none" xmlns="http://www.w3.org/2000/svg">
<path vector-effect="non-scaling-stroke" d="M8.6093 0.25C8.74931 0.24991 8.88655 0.289014 9.00549 0.362887C9.12443 0.43676 9.22032 0.542452 9.2823 0.668L11.1643 4.483L15.3743 5.095C15.5128 5.11511 15.6428 5.17355 15.7498 5.26372C15.8568 5.35388 15.9364 5.47218 15.9797 5.60523C16.023 5.73829 16.0282 5.8808 15.9947 6.01665C15.9612 6.1525 15.8904 6.27628 15.7903 6.374L12.7443 9.344L13.4633 13.536C13.4866 13.6738 13.471 13.8154 13.4182 13.9449C13.3654 14.0743 13.2775 14.1865 13.1644 14.2687C13.0514 14.3509 12.9176 14.3999 12.7782 14.4102C12.6387 14.4205 12.4992 14.3917 12.3753 14.327L8.6093 12.347L4.8433 14.327C4.71948 14.392 4.57996 14.4211 4.44049 14.411C4.30101 14.4009 4.16713 14.352 4.05398 14.2699C3.94082 14.1877 3.85289 14.0755 3.80011 13.946C3.74733 13.8165 3.73181 13.6749 3.7553 13.537L4.4753 9.343L1.4273 6.374C1.32686 6.27632 1.25579 6.15247 1.22215 6.01647C1.1885 5.88047 1.19362 5.73777 1.23692 5.60453C1.28022 5.47129 1.35998 5.35284 1.46715 5.26261C1.57432 5.17238 1.70463 5.11397 1.8433 5.094L6.0533 4.483L7.9363 0.668C7.99827 0.542452 8.09416 0.43676 8.2131 0.362887C8.33204 0.289014 8.46928 0.24991 8.6093 0.25ZM8.6093 2.695L7.2243 5.5C7.17051 5.6089 7.09108 5.70311 6.99284 5.77453C6.8946 5.84595 6.78048 5.89244 6.6603 5.91L3.5633 6.36L5.8033 8.544C5.89045 8.62886 5.95565 8.73365 5.99328 8.84933C6.03091 8.96501 6.03984 9.0881 6.0193 9.208L5.4913 12.292L8.2603 10.836C8.36793 10.7794 8.4877 10.7499 8.6093 10.7499C8.73089 10.7499 8.85067 10.7794 8.9583 10.836L11.7283 12.292L11.1983 9.208C11.1778 9.0881 11.1867 8.96501 11.2243 8.84933C11.2619 8.73365 11.3271 8.62886 11.4143 8.544L13.6543 6.361L10.5583 5.911C10.4381 5.89344 10.324 5.84695 10.2258 5.77553C10.1275 5.70411 10.0481 5.6099 9.9943 5.501L8.6093 2.695Z" fill="#8B949E"/>
</svg>
