<svg preserveAspectRatio="none" width="17" height="16" viewBox="0 0 17 16" fill="none" xmlns="http://www.w3.org/2000/svg">
<path vector-effect="non-scaling-stroke" d="M2.375 1H10.875C11.841 1 12.625 1.784 12.625 2.75V8.25C12.625 8.71413 12.4406 9.15925 12.1124 9.48744C11.7842 9.81563 11.3391 10 10.875 10H7.686L5.112 12.573C4.90805 12.7762 4.64852 12.9144 4.36612 12.9703C4.08372 13.0262 3.79109 12.9973 3.52511 12.8871C3.25914 12.777 3.03173 12.5905 2.87155 12.3513C2.71136 12.1121 2.62558 11.8309 2.625 11.543V10H2.375C1.91087 10 1.46575 9.81563 1.13756 9.48744C0.809374 9.15925 0.625 8.71413 0.625 8.25L0.625 2.75C0.625 1.784 1.409 1 2.375 1ZM2.125 2.75V8.25C2.125 8.388 2.237 8.5 2.375 8.5H3.375C3.57391 8.5 3.76468 8.57902 3.90533 8.71967C4.04598 8.86032 4.125 9.05109 4.125 9.25V11.44L6.845 8.72C6.91454 8.65029 6.99715 8.59498 7.0881 8.55723C7.17904 8.51948 7.27653 8.50003 7.375 8.5H10.875C10.9413 8.5 11.0049 8.47366 11.0518 8.42678C11.0987 8.37989 11.125 8.3163 11.125 8.25V2.75C11.125 2.6837 11.0987 2.62011 11.0518 2.57322C11.0049 2.52634 10.9413 2.5 10.875 2.5H2.375C2.3087 2.5 2.24511 2.52634 2.19822 2.57322C2.15134 2.62011 2.125 2.6837 2.125 2.75ZM15.125 4.75C15.125 4.6837 15.0987 4.62011 15.0518 4.57322C15.0049 4.52634 14.9413 4.5 14.875 4.5H14.375C14.1761 4.5 13.9853 4.42098 13.8447 4.28033C13.704 4.13968 13.625 3.94891 13.625 3.75C13.625 3.55109 13.704 3.36032 13.8447 3.21967C13.9853 3.07902 14.1761 3 14.375 3H14.875C15.841 3 16.625 3.784 16.625 4.75V10.25C16.625 10.7141 16.4406 11.1592 16.1124 11.4874C15.7842 11.8156 15.3391 12 14.875 12H14.625V13.543C14.6244 13.8309 14.5386 14.1121 14.3785 14.3513C14.2183 14.5905 13.9909 14.777 13.7249 14.8871C13.4589 14.9973 13.1663 15.0262 12.8839 14.9703C12.6015 14.9144 12.3419 14.7762 12.138 14.573L9.845 12.28C9.74628 12.1883 9.6741 12.0717 9.63609 11.9425C9.59808 11.8132 9.59563 11.6761 9.629 11.5456C9.66237 11.4151 9.73033 11.296 9.82572 11.2008C9.92111 11.1057 10.0404 11.038 10.171 11.005C10.3014 10.9716 10.4383 10.9739 10.5675 11.0117C10.6967 11.0496 10.8133 11.1215 10.905 11.22L13.125 13.44V11.25C13.125 11.0511 13.204 10.8603 13.3447 10.7197C13.4853 10.579 13.6761 10.5 13.875 10.5H14.875C14.9413 10.5 15.0049 10.4737 15.0518 10.4268C15.0987 10.3799 15.125 10.3163 15.125 10.25V4.75Z" fill="#8B949E"/>
</svg>
