<svg preserveAspectRatio="none" width="21" height="21" viewBox="0 0 21 21" fill="none" xmlns="http://www.w3.org/2000/svg">
<path vector-effect="non-scaling-stroke" d="M9.64728 4.97771C9.28117 4.6116 8.68757 4.6116 8.32146 4.97771C7.95535 5.34382 7.95535 5.93742 8.32146 6.30353L9.64728 4.97771ZM14.2969 10.9531L14.9597 11.616C15.3259 11.2499 15.3259 10.6563 14.9597 10.2902L14.2969 10.9531ZM8.32146 15.6027C7.95535 15.9689 7.95535 16.5624 8.32146 16.9285C8.68757 17.2946 9.28117 17.2946 9.64728 16.9285L8.32146 15.6027ZM8.32146 6.30353L13.634 11.616L14.9597 10.2902L9.64728 4.97771L8.32146 6.30353ZM13.634 10.2902L8.32146 15.6027L9.64728 16.9285L14.9597 11.616L13.634 10.2902Z" fill="white"/>
<path vector-effect="non-scaling-stroke" d="M2.73438 10.9531H14.2969Z" fill="white"/>
<path vector-effect="non-scaling-stroke" d="M2.73438 10.9531H14.2969" stroke="white" stroke-width="1.875" stroke-linecap="round" stroke-dasharray="12.5 12.5"/>
</svg>
