<svg preserveAspectRatio="none" width="17" height="17" viewBox="0 0 17 17" fill="none" xmlns="http://www.w3.org/2000/svg">
<g opacity="0.5">
<path vector-effect="non-scaling-stroke" d="M13.0295 5.72024C13.0992 5.78981 13.1545 5.87242 13.1922 5.96337C13.2299 6.05431 13.2493 6.15179 13.2493 6.25024C13.2493 6.34869 13.2299 6.44618 13.1922 6.53712C13.1545 6.62806 13.0992 6.71068 13.0295 6.78024L8.77953 11.0302C8.70997 11.0999 8.62735 11.1552 8.53641 11.1929C8.44547 11.2306 8.34798 11.25 8.24953 11.25C8.15108 11.25 8.0536 11.2306 7.96266 11.1929C7.87171 11.1552 7.7891 11.0999 7.71953 11.0302L3.46953 6.78024C3.32897 6.63968 3.25 6.44903 3.25 6.25024C3.25 6.15181 3.26939 6.05435 3.30705 5.96341C3.34472 5.87247 3.39993 5.78984 3.46953 5.72024C3.53913 5.65064 3.62176 5.59543 3.7127 5.55776C3.80364 5.5201 3.9011 5.50071 3.99953 5.50071C4.19832 5.50071 4.38897 5.57968 4.52953 5.72024L8.24953 9.43924L11.9695 5.72024C12.0391 5.65058 12.1217 5.59531 12.2127 5.5576C12.3036 5.5199 12.4011 5.50049 12.4995 5.50049C12.598 5.50049 12.6955 5.5199 12.7864 5.5576C12.8774 5.59531 12.96 5.65058 13.0295 5.72024Z" fill="white"/>
</g>
</svg>
