<svg preserveAspectRatio="none" width="17" height="17" viewBox="0 0 17 17" fill="none" xmlns="http://www.w3.org/2000/svg">
<path vector-effect="non-scaling-stroke" d="M8.49992 1.21875C8.63993 1.21866 8.77718 1.25776 8.89612 1.33164C9.01506 1.40551 9.11094 1.5112 9.17292 1.63675L11.0549 5.45175L15.2649 6.06375C15.4034 6.08386 15.5335 6.1423 15.6404 6.23247C15.7474 6.32263 15.8271 6.44093 15.8703 6.57398C15.9136 6.70704 15.9188 6.84955 15.8853 6.9854C15.8519 7.12125 15.7811 7.24503 15.6809 7.34275L12.6349 10.3127L13.3539 14.5048C13.3772 14.6426 13.3616 14.7842 13.3088 14.9136C13.256 15.0431 13.1681 15.1552 13.0551 15.2374C12.942 15.3196 12.8082 15.3686 12.6688 15.379C12.5294 15.3893 12.3898 15.3604 12.2659 15.2957L8.49992 13.3158L4.73392 15.2957C4.61011 15.3608 4.47059 15.3899 4.33111 15.3798C4.19163 15.3697 4.05776 15.3208 3.9446 15.2386C3.83144 15.1564 3.74351 15.0443 3.69073 14.9148C3.63796 14.7853 3.62243 14.6436 3.64592 14.5057L4.36592 10.3118L1.31792 7.34275C1.21749 7.24507 1.14642 7.12122 1.11277 6.98522C1.07912 6.84922 1.08424 6.70652 1.12754 6.57328C1.17085 6.44004 1.2506 6.32159 1.35778 6.23136C1.46495 6.14113 1.59525 6.08272 1.73392 6.06275L5.94392 5.45175L7.82692 1.63675C7.8889 1.5112 7.98479 1.40551 8.10372 1.33164C8.22266 1.25776 8.35991 1.21866 8.49992 1.21875ZM8.49992 3.66375L7.11492 6.46875C7.06114 6.57765 6.98171 6.67186 6.88346 6.74328C6.78522 6.8147 6.6711 6.86119 6.55092 6.87875L3.45392 7.32875L5.69392 9.51275C5.78107 9.59761 5.84628 9.7024 5.88391 9.81808C5.92154 9.93376 5.93046 10.0569 5.90992 10.1768L5.38192 13.2607L8.15092 11.8048C8.25855 11.7482 8.37832 11.7186 8.49992 11.7186C8.62152 11.7186 8.74129 11.7482 8.84892 11.8048L11.6189 13.2607L11.0889 10.1768C11.0684 10.0569 11.0773 9.93376 11.1149 9.81808C11.1526 9.7024 11.2178 9.59761 11.3049 9.51275L13.5449 7.32975L10.4489 6.87975C10.3287 6.86219 10.2146 6.8157 10.1164 6.74428C10.0181 6.67286 9.9387 6.57865 9.88492 6.46975L8.49992 3.66375Z" fill="#8B949E"/>
</svg>
