<svg preserveAspectRatio="none" width="20" height="21" viewBox="0 0 20 21" fill="none" xmlns="http://www.w3.org/2000/svg">
<path vector-effect="non-scaling-stroke" fill-rule="evenodd" clip-rule="evenodd" d="M10 0.625C4.475 0.625 0 5.1 0 10.625C0 15.05 2.8625 18.7875 6.8375 20.1125C7.3375 20.2 7.525 19.9 7.525 19.6375C7.525 19.4 7.5125 18.6125 7.5125 17.775C5 18.2375 4.35 17.1625 4.15 16.6C4.0375 16.3125 3.55 15.425 3.125 15.1875C2.775 15 2.275 14.5375 3.1125 14.525C3.9 14.5125 4.4625 15.25 4.65 15.55C5.55 17.0625 6.9875 16.6375 7.5625 16.375C7.65 15.725 7.9125 15.2875 8.2 15.0375C5.975 14.7875 3.65 13.925 3.65 10.1C3.65 9.0125 4.0375 8.1125 4.675 7.4125C4.575 7.1625 4.225 6.1375 4.775 4.7625C4.775 4.7625 5.6125 4.5 7.525 5.7875C8.325 5.5625 9.175 5.45 10.025 5.45C10.875 5.45 11.725 5.5625 12.525 5.7875C14.4375 4.4875 15.275 4.7625 15.275 4.7625C15.825 6.1375 15.475 7.1625 15.375 7.4125C16.0125 8.1125 16.4 9 16.4 10.1C16.4 13.9375 14.0625 14.7875 11.8375 15.0375C12.2 15.35 12.5125 15.95 12.5125 16.8875C12.5125 18.225 12.5 19.3 12.5 19.6375C12.5 19.9 12.6875 20.2125 13.1875 20.1125C15.1727 19.4423 16.8977 18.1665 18.1198 16.4645C19.3419 14.7626 19.9995 12.7203 20 10.625C20 5.1 15.525 0.625 10 0.625Z" fill="#959DA5"/>
</svg>
