<svg preserveAspectRatio="none" width="61" height="49" viewBox="0 0 61 49" fill="none" xmlns="http://www.w3.org/2000/svg">
<path vector-effect="non-scaling-stroke" d="M46.4767 18.1178H32.2267V23.3562C32.2267 27.07 29.1986 30.0914 25.4767 30.0914C21.7548 30.0914 18.7267 27.07 18.7267 23.3562V11.9813L12.6424 15.6295C10.833 16.7053 9.72673 18.6603 9.72673 20.7557V25.1804L2.22674 29.5021C0.792372 30.3253 0.295498 32.1588 1.12987 33.59L8.62986 46.5552C9.45486 47.9864 11.2924 48.4729 12.7267 47.6497L22.4205 42.0651H35.2267C38.5361 42.0651 41.2267 39.3804 41.2267 36.0783H42.7267C44.386 36.0783 45.7267 34.7406 45.7267 33.0848V27.098H46.4767C47.7235 27.098 48.7267 26.0971 48.7267 24.853V20.3628C48.7267 19.1187 47.7235 18.1178 46.4767 18.1178ZM60.3235 14.6192L52.8235 1.65399C51.9985 0.222759 50.161 -0.263671 48.7267 0.559518L39.0329 6.14411H29.4517C28.3267 6.14411 27.2298 6.46216 26.2736 7.05149L23.133 9.00656C22.2517 9.54912 21.7267 10.5126 21.7267 11.5416V23.3562C21.7267 25.4236 23.4048 27.098 25.4767 27.098C27.5486 27.098 29.2267 25.4236 29.2267 23.3562V15.1244H46.4767C49.3735 15.1244 51.7267 17.4723 51.7267 20.3628V23.0288L59.2266 18.7071C60.661 17.8746 61.1485 16.0504 60.3235 14.6192Z" fill="#EF790C"/>
</svg>
