<svg preserveAspectRatio="none" width="17" height="17" viewBox="0 0 17 17" fill="none" xmlns="http://www.w3.org/2000/svg">
<path vector-effect="non-scaling-stroke" d="M7.81158 3.51654C7.51869 3.22365 7.04381 3.22365 6.75092 3.51654C6.45803 3.80943 6.45803 4.28431 6.75092 4.5772L7.81158 3.51654ZM11.5312 8.29687L12.0615 8.8272C12.3544 8.53431 12.3544 8.05943 12.0615 7.76654L11.5312 8.29687ZM6.75092 12.0166C6.45803 12.3095 6.45803 12.7843 6.75092 13.0772C7.04381 13.3701 7.51869 13.3701 7.81158 13.0772L6.75092 12.0166ZM6.75092 4.5772L11.0009 8.8272L12.0615 7.76654L7.81158 3.51654L6.75092 4.5772ZM11.0009 7.76654L6.75092 12.0166L7.81158 13.0772L12.0615 8.8272L11.0009 7.76654Z" fill="#24292F"/>
<path vector-effect="non-scaling-stroke" d="M2.28125 8.29688H11.5312Z" fill="#24292F"/>
<path vector-effect="non-scaling-stroke" d="M2.28125 8.29688H11.5312" stroke="#24292F" stroke-width="1.5" stroke-linecap="round" stroke-dasharray="10 10"/>
</svg>
