<svg preserveAspectRatio="none" width="84" height="31" viewBox="0 0 84 31" fill="none" xmlns="http://www.w3.org/2000/svg">
<path vector-effect="non-scaling-stroke" fill-rule="evenodd" clip-rule="evenodd" d="M34.5893 23.1477H34.552C34.5688 23.1477 34.58 23.1664 34.5968 23.1683H34.608L34.5893 23.1496V23.1477ZM34.5968 23.1683C34.4232 23.1701 33.9864 23.2616 33.5253 23.2616C32.0693 23.2616 31.5653 22.5896 31.5653 21.7123V15.8677H34.5333C34.7013 15.8677 34.832 15.7184 34.832 15.5131V12.3397C34.832 12.1717 34.6827 12.0224 34.5333 12.0224H31.5653V8.08372C31.5653 7.93439 31.472 7.84106 31.304 7.84106H27.272C27.104 7.84106 27.0107 7.93439 27.0107 8.08372V12.1344C27.0107 12.1344 24.976 12.6384 24.8453 12.6571C24.696 12.6944 24.6027 12.8251 24.6027 12.9744V15.5131C24.6027 15.7184 24.752 15.8677 24.92 15.8677H26.992V21.9904C26.992 26.5451 30.1653 27.0117 32.3307 27.0117C33.32 27.0117 34.5147 26.6944 34.7013 26.6011C34.8133 26.5637 34.8693 26.4331 34.8693 26.3024V23.5024C34.8719 23.423 34.8458 23.3453 34.7957 23.2836C34.7457 23.2219 34.675 23.1803 34.5968 23.1664V23.1683ZM78.8293 19.0597C78.8293 15.6811 77.4667 15.2331 76.0293 15.3824C74.9093 15.4571 74.0133 16.0171 74.0133 16.0171V22.5877C74.0133 22.5877 74.928 23.2224 76.2907 23.2597C78.2133 23.3157 78.8293 22.6251 78.8293 19.0597ZM83.3653 18.7611C83.3653 25.1637 81.2933 26.9931 77.672 26.9931C74.6107 26.9931 72.968 25.4437 72.968 25.4437C72.968 25.4437 72.8933 26.3024 72.8 26.4144C72.744 26.5264 72.6507 26.5637 72.5387 26.5637H69.776C69.5893 26.5637 69.4213 26.4144 69.4213 26.2464L69.4587 5.50772C69.4587 5.33972 69.608 5.19039 69.776 5.19039H73.752C73.92 5.19039 74.0693 5.33972 74.0693 5.50772V12.5451C74.0693 12.5451 75.6 11.5557 77.84 11.5557L77.8213 11.5184C80.0613 11.5184 83.3653 12.3584 83.3653 18.7611ZM67.088 12.0224H63.168C62.9627 12.0224 62.8507 12.1717 62.8507 12.3771V22.5317C62.8507 22.5317 61.824 23.2597 60.424 23.2597C59.024 23.2597 58.6133 22.6251 58.6133 21.2251V12.3584C58.6133 12.1904 58.464 12.0411 58.296 12.0411H54.3013C54.1333 12.0411 53.984 12.1904 53.984 12.3584V21.8971C53.984 26.0037 56.28 27.0304 59.4347 27.0304C62.0293 27.0304 64.1387 25.5931 64.1387 25.5931C64.1387 25.5931 64.232 26.3211 64.288 26.4331C64.3253 26.5264 64.456 26.6011 64.5867 26.6011H67.088C67.2933 26.6011 67.4053 26.4517 67.4053 26.2837L67.4427 12.3397C67.4427 12.1717 67.2933 12.0224 67.088 12.0224ZM22.848 12.0037H18.872C18.704 12.0037 18.5547 12.1717 18.5547 12.3771V26.0784C18.5547 26.4517 18.7973 26.5824 19.1147 26.5824H22.6987C23.072 26.5824 23.1653 26.4144 23.1653 26.0784V12.3211C23.1653 12.1531 23.016 12.0037 22.848 12.0037ZM20.888 5.69439C19.4507 5.69439 18.312 6.83306 18.312 8.27039C18.312 9.70772 19.4507 10.8464 20.888 10.8464C22.288 10.8464 23.4267 9.70772 23.4267 8.27039C23.4267 6.83306 22.288 5.69439 20.888 5.69439ZM51.6693 5.22772H47.7307C47.5627 5.22772 47.4133 5.37706 47.4133 5.54506V13.1797H41.2347V5.54506C41.2347 5.37706 41.0853 5.22772 40.9173 5.22772H36.9413C36.7733 5.22772 36.624 5.37706 36.624 5.54506V26.2837C36.624 26.4517 36.792 26.6011 36.9413 26.6011H40.9173C41.0853 26.6011 41.2347 26.4517 41.2347 26.2837V17.4171H47.4133L47.376 26.2837C47.376 26.4517 47.5253 26.6011 47.6933 26.6011H51.6693C51.8373 26.6011 51.9867 26.4517 51.9867 26.2837V5.54506C51.9867 5.37706 51.8373 5.22772 51.6693 5.22772ZM16.4453 14.4117V25.1264C16.4453 25.2011 16.4267 25.3317 16.3333 25.3691C16.3333 25.3691 14 27.0304 10.1547 27.0304C5.50667 27.0304 0 25.5744 0 15.9797C0 6.38506 4.816 4.40639 9.52 4.42506C13.5893 4.42506 15.232 5.33972 15.4933 5.50772C15.568 5.60106 15.6053 5.67572 15.6053 5.76906L14.8213 9.09172C14.8213 9.25972 14.6533 9.46506 14.448 9.40906C13.776 9.20372 12.768 8.79306 10.3973 8.79306C7.65333 8.79306 4.704 9.57706 4.704 15.7557C4.704 21.9344 7.504 22.6624 9.52 22.6624C11.2373 22.6624 11.8533 22.4571 11.8533 22.4571V18.1637H9.10933C8.904 18.1637 8.75467 18.0144 8.75467 17.8464V14.4117C8.75467 14.2437 8.904 14.0944 9.10933 14.0944H16.0907C16.296 14.0944 16.4453 14.2437 16.4453 14.4117Z" fill="white"/>
</svg>
