<svg preserveAspectRatio="none" width="17" height="17" viewBox="0 0 17 17" fill="none" xmlns="http://www.w3.org/2000/svg">
<path vector-effect="non-scaling-stroke" d="M2.00188 8.50511C2.09972 8.49338 2.19891 8.50105 2.29379 8.52767C2.38866 8.5543 2.47736 8.59936 2.55481 8.66028C2.63227 8.7212 2.69695 8.79679 2.74518 8.88273C2.79341 8.96866 2.82423 9.06326 2.83588 9.16111C2.96332 10.2151 3.39309 11.2097 4.07332 12.0248C4.75354 12.8399 5.65515 13.4408 6.66932 13.7548C7.68349 14.0688 8.76687 14.0826 9.7887 13.7945C10.8105 13.5064 11.7271 12.9287 12.4279 12.1311L11.2239 10.9271C11.1888 10.8921 11.1649 10.8476 11.1553 10.799C11.1456 10.7504 11.1505 10.7001 11.1695 10.6544C11.1884 10.6086 11.2206 10.5696 11.2617 10.5421C11.3029 10.5146 11.3514 10.5 11.4009 10.5001H15.0469C15.1132 10.5001 15.1768 10.5264 15.2237 10.5733C15.2705 10.6202 15.2969 10.6838 15.2969 10.7501V14.3961C15.297 14.4456 15.2823 14.494 15.2549 14.5352C15.2274 14.5764 15.1883 14.6085 15.1426 14.6275C15.0969 14.6465 15.0465 14.6514 14.998 14.6417C14.9494 14.632 14.9048 14.6082 14.8699 14.5731L13.4899 13.1931C12.5891 14.1886 11.4212 14.9042 10.1251 15.2546C8.82912 15.605 7.4597 15.5754 6.18002 15.1694C4.90035 14.7633 3.76439 13.9979 2.90748 12.9644C2.05058 11.9309 1.50886 10.6728 1.34688 9.34011C1.33515 9.24226 1.34282 9.14307 1.36944 9.0482C1.39607 8.95332 1.44113 8.86462 1.50205 8.78717C1.56297 8.70971 1.63856 8.64503 1.7245 8.5968C1.81043 8.54857 1.90503 8.51776 2.00288 8.5061L2.00188 8.50511ZM8.29688 3.00011C7.51489 2.99928 6.74176 3.16561 6.02929 3.48795C5.31683 3.81029 4.6815 4.2812 4.16588 4.86911L5.36988 6.07311C5.40493 6.10807 5.42881 6.15266 5.43849 6.20121C5.44818 6.24976 5.44323 6.3001 5.42427 6.34584C5.40531 6.39157 5.3732 6.43065 5.332 6.45812C5.29081 6.48558 5.24239 6.50019 5.19288 6.50011H1.54688C1.48057 6.50011 1.41698 6.47377 1.3701 6.42688C1.32321 6.38 1.29688 6.31641 1.29688 6.25011V2.60411C1.29679 2.5546 1.3114 2.50617 1.33887 2.46498C1.36633 2.42378 1.40541 2.39167 1.45114 2.37271C1.49688 2.35375 1.54722 2.3488 1.59577 2.35849C1.64432 2.36817 1.68891 2.39205 1.72388 2.42711L3.10388 3.80711C4.00463 2.81157 5.17259 2.09599 6.46861 1.7456C7.76463 1.39521 9.13405 1.42481 10.4137 1.83085C11.6934 2.23689 12.8294 3.00227 13.6863 4.03578C14.5432 5.06929 15.0849 6.32737 15.2469 7.66011C15.2705 7.85769 15.2146 8.05656 15.0916 8.21297C14.9686 8.36937 14.7885 8.4705 14.5909 8.49411C14.3933 8.51771 14.1944 8.46186 14.038 8.33883C13.8816 8.21581 13.7805 8.03569 13.7569 7.83811C13.5951 6.50383 12.9504 5.27498 11.9444 4.38362C10.9384 3.49226 9.64092 3.00011 8.29688 3.00011Z" fill="white"/>
</svg>
