<svg preserveAspectRatio="none" width="17" height="16" viewBox="0 0 17 16" fill="none" xmlns="http://www.w3.org/2000/svg">
<path vector-effect="non-scaling-stroke" d="M10 3.24981C10.0002 2.83734 10.1137 2.43284 10.3281 2.08052C10.5426 1.7282 10.8498 1.44162 11.2162 1.25209C11.5825 1.06256 11.9939 0.97738 12.4054 1.00586C12.8169 1.03434 13.2126 1.17538 13.5493 1.41357C13.8861 1.65176 14.1509 1.97793 14.3148 2.35644C14.4787 2.73494 14.5354 3.15122 14.4787 3.55977C14.422 3.96833 14.2541 4.35343 13.9933 4.67301C13.7325 4.99258 13.3889 5.23432 13 5.37181V5.99981C13 6.66285 12.7366 7.29874 12.2678 7.76758C11.799 8.23642 11.1631 8.49981 10.5 8.49981H6.50003C6.23481 8.49981 5.98046 8.60517 5.79292 8.7927C5.60539 8.98024 5.50003 9.23459 5.50003 9.49981V10.6278C6.00072 10.8047 6.42273 11.153 6.69148 11.611C6.96023 12.069 7.0584 12.6073 6.96864 13.1307C6.87888 13.6541 6.60698 14.1289 6.20099 14.4712C5.79499 14.8135 5.28106 15.0012 4.75003 15.0012C4.219 15.0012 3.70506 14.8135 3.29907 14.4712C2.89308 14.1289 2.62117 13.6541 2.53142 13.1307C2.44166 12.6073 2.53983 12.069 2.80858 11.611C3.07732 11.153 3.49934 10.8047 4.00003 10.6278V5.37181C3.49962 5.19489 3.07786 4.84676 2.8093 4.38895C2.54075 3.93114 2.44268 3.39313 2.53243 2.87001C2.62218 2.34689 2.89398 1.87234 3.29978 1.53023C3.70558 1.18812 4.21926 1.00049 4.75003 1.00049C5.28079 1.00049 5.79447 1.18812 6.20027 1.53023C6.60607 1.87234 6.87787 2.34689 6.96762 2.87001C7.05738 3.39313 6.95931 3.93114 6.69075 4.38895C6.42219 4.84676 6.00044 5.19489 5.50003 5.37181V7.20781C5.81543 7.0702 6.15591 6.99938 6.50003 6.99981H10.5C10.7652 6.99981 11.0196 6.89445 11.2071 6.70692C11.3947 6.51938 11.5 6.26503 11.5 5.99981V5.37181C11.0612 5.21667 10.6814 4.92929 10.4127 4.54925C10.1441 4.16921 9.99989 3.71521 10 3.24981ZM4.00003 3.24981C4.00003 3.44872 4.07905 3.63949 4.2197 3.78014C4.36035 3.92079 4.55112 3.99981 4.75003 3.99981C4.94894 3.99981 5.13971 3.92079 5.28036 3.78014C5.42101 3.63949 5.50003 3.44872 5.50003 3.24981C5.50003 3.0509 5.42101 2.86013 5.28036 2.71948C5.13971 2.57883 4.94894 2.49981 4.75003 2.49981C4.55112 2.49981 4.36035 2.57883 4.2197 2.71948C4.07905 2.86013 4.00003 3.0509 4.00003 3.24981ZM12.25 2.49981C12.0511 2.49981 11.8604 2.57883 11.7197 2.71948C11.579 2.86013 11.5 3.0509 11.5 3.24981C11.5 3.44872 11.579 3.63949 11.7197 3.78014C11.8604 3.92079 12.0511 3.99981 12.25 3.99981C12.4489 3.99981 12.6397 3.92079 12.7804 3.78014C12.921 3.63949 13 3.44872 13 3.24981C13 3.0509 12.921 2.86013 12.7804 2.71948C12.6397 2.57883 12.4489 2.49981 12.25 2.49981ZM4.75003 11.9998C4.55112 11.9998 4.36035 12.0788 4.2197 12.2195C4.07905 12.3601 4.00003 12.5509 4.00003 12.7498C4.00003 12.9487 4.07905 13.1395 4.2197 13.2801C4.36035 13.4208 4.55112 13.4998 4.75003 13.4998C4.94894 13.4998 5.13971 13.4208 5.28036 13.2801C5.42101 13.1395 5.50003 12.9487 5.50003 12.7498C5.50003 12.5509 5.42101 12.3601 5.28036 12.2195C5.13971 12.0788 4.94894 11.9998 4.75003 11.9998Z" fill="#8B949E"/>
</svg>
