<svg preserveAspectRatio="none" width="68" height="44" viewBox="0 0 68 44" fill="none" xmlns="http://www.w3.org/2000/svg">
<path vector-effect="non-scaling-stroke" d="M5.81664 23.5713H2.45334L1.60374 25.9912H0.496338L3.61354 17.5361H4.65654L7.77374 25.9912H6.66624L5.81664 23.5713ZM2.76394 22.6748H5.50614L4.18194 18.9014H4.08814L2.76394 22.6748ZM12.8625 21.6084C12.6984 20.9814 12.1418 20.4717 11.2336 20.4717C10.0969 20.4717 9.38204 21.3799 9.38204 22.8096C9.38204 24.2686 10.1086 25.1944 11.2336 25.1944C12.0832 25.1944 12.675 24.8018 12.8625 24.087H13.882C13.7004 25.2472 12.757 26.1026 11.2394 26.1026C9.46994 26.1026 8.33904 24.8194 8.33904 22.8096C8.33904 20.8408 9.46404 19.5635 11.2335 19.5635C12.7687 19.5635 13.7062 20.4834 13.8819 21.6084H12.8625ZM19.4572 21.6084C19.2931 20.9814 18.7365 20.4717 17.8283 20.4717C16.6916 20.4717 15.9767 21.3799 15.9767 22.8096C15.9767 24.2686 16.7033 25.1944 17.8283 25.1944C18.6779 25.1944 19.2697 24.8018 19.4572 24.087H20.4767C20.2951 25.2472 19.3517 26.1026 17.8341 26.1026C16.0646 26.1026 14.9337 24.8194 14.9337 22.8096C14.9337 20.8408 16.0587 19.5635 17.8282 19.5635C19.3634 19.5635 20.3009 20.4834 20.4766 21.6084H19.4572ZM27.0368 24.3564C26.7438 25.4345 25.7595 26.1025 24.3766 26.1025C22.6246 26.1025 21.5289 24.8369 21.5289 22.8388C21.5289 20.8525 22.6422 19.5634 24.3766 19.5634C26.0817 19.5634 27.1188 20.7763 27.1188 22.7392V23.1259H22.5778V23.1728C22.6305 24.4208 23.3278 25.2119 24.4001 25.2119C25.2146 25.2119 25.7653 24.9131 26.029 24.3564H27.0368ZM22.5778 22.3115H26.0583C26.0349 21.1924 25.3669 20.4541 24.3649 20.4541C23.3571 20.4541 22.654 21.1924 22.5778 22.3115ZM30.7898 19.5635C32.114 19.5635 33.0339 20.2197 33.1687 21.2569H32.1726C32.0378 20.753 31.5456 20.419 30.7839 20.419C30.0339 20.419 29.448 20.7999 29.448 21.3624C29.448 21.796 29.7996 22.0655 30.5437 22.2472L31.5164 22.4816C32.7059 22.7687 33.2801 23.2843 33.2801 24.1925C33.2801 25.3234 32.1844 26.1027 30.7489 26.1027C29.3427 26.1027 28.3759 25.4289 28.2645 24.38H29.3016C29.4715 24.9132 29.9754 25.253 30.784 25.253C31.6336 25.253 32.243 24.8487 32.243 24.2686C32.243 23.835 31.9149 23.542 31.241 23.378L30.157 23.1143C28.9734 22.8272 28.4343 22.3174 28.4343 21.4034C28.4343 20.3545 29.448 19.5635 30.7898 19.5635ZM36.8337 19.5635C38.1579 19.5635 39.0778 20.2197 39.2126 21.2569H38.2165C38.0817 20.753 37.5895 20.419 36.8278 20.419C36.0778 20.419 35.4919 20.7999 35.4919 21.3624C35.4919 21.796 35.8435 22.0655 36.5876 22.2472L37.5603 22.4816C38.7498 22.7687 39.324 23.2843 39.324 24.1925C39.324 25.3234 38.2283 26.1027 36.7928 26.1027C35.3866 26.1027 34.4198 25.4289 34.3084 24.38H35.3455C35.5154 24.9132 36.0193 25.253 36.8279 25.253C37.6775 25.253 38.2869 24.8487 38.2869 24.2686C38.2869 23.835 37.9588 23.542 37.2849 23.378L36.2009 23.1143C35.0173 22.8272 34.4782 22.3174 34.4782 21.4034C34.4782 20.3545 35.4919 19.5635 36.8337 19.5635ZM40.4694 22.833C40.4694 20.7998 41.5827 19.5635 43.3815 19.5635C45.1803 19.5635 46.2936 20.7998 46.2936 22.833C46.2936 24.8603 45.1803 26.1025 43.3815 26.1025C41.5827 26.1025 40.4694 24.8603 40.4694 22.833ZM45.2507 22.833C45.2507 21.333 44.5769 20.4717 43.3816 20.4717C42.1863 20.4717 41.5125 21.333 41.5125 22.833C41.5125 24.3271 42.1863 25.1943 43.3816 25.1943C44.5769 25.1943 45.2507 24.3271 45.2507 22.833ZM47.7561 19.6748H48.717V20.6123H48.8108C48.9983 19.9971 49.7249 19.5635 50.5628 19.5635C50.7269 19.5635 50.9378 19.5752 51.0667 19.5928V20.6006C50.9847 20.5772 50.6214 20.542 50.4222 20.542C49.4613 20.542 48.764 21.1865 48.764 22.0772V25.9913H47.7562L47.7561 19.6748ZM52.0305 17.7529C52.0305 17.3662 52.3469 17.0498 52.7336 17.0498C53.1203 17.0498 53.4367 17.3662 53.4367 17.7529C53.4367 18.1396 53.1203 18.456 52.7336 18.456C52.3469 18.456 52.0305 18.1396 52.0305 17.7529ZM52.2297 19.6748H53.2375V25.9912H52.2297V19.6748ZM60.2307 24.3564C59.9377 25.4345 58.9534 26.1025 57.5705 26.1025C55.8185 26.1025 54.7228 24.8369 54.7228 22.8388C54.7228 20.8525 55.8361 19.5634 57.5705 19.5634C59.2756 19.5634 60.3127 20.7763 60.3127 22.7392V23.1259H55.7717V23.1728C55.8244 24.4208 56.5217 25.2119 57.594 25.2119C58.4085 25.2119 58.9592 24.9131 59.2229 24.3564H60.2307ZM55.7717 22.3115H59.2522C59.2288 21.1924 58.5608 20.4541 57.5588 20.4541C56.551 20.4541 55.8479 21.1924 55.7717 22.3115ZM63.9836 19.5635C65.3078 19.5635 66.2277 20.2197 66.3625 21.2569H65.3664C65.2316 20.753 64.7394 20.419 63.9777 20.419C63.2277 20.419 62.6418 20.7999 62.6418 21.3624C62.6418 21.796 62.9934 22.0655 63.7375 22.2472L64.7102 22.4816C65.8997 22.7687 66.4739 23.2843 66.4739 24.1925C66.4739 25.3234 65.3782 26.1027 63.9427 26.1027C62.5365 26.1027 61.5697 25.4289 61.4583 24.38H62.4954C62.6653 24.9132 63.1692 25.253 63.9778 25.253C64.8274 25.253 65.4368 24.8487 65.4368 24.2686C65.4368 23.835 65.1087 23.542 64.4348 23.378L63.3508 23.1143C62.1672 22.8272 61.6281 22.3174 61.6281 21.4034C61.6281 20.3545 62.6418 19.5635 63.9836 19.5635Z" fill="black" fill-opacity="0.8"/>
</svg>
