<svg preserveAspectRatio="none" width="17" height="16" viewBox="0 0 17 16" fill="none" xmlns="http://www.w3.org/2000/svg">
<path vector-effect="non-scaling-stroke" d="M5.03634 7.427L8.43234 10.823C8.45556 10.8463 8.48315 10.8648 8.51352 10.8774C8.54389 10.89 8.57645 10.8964 8.60934 10.8964C8.64222 10.8964 8.67478 10.89 8.70515 10.8774C8.73553 10.8648 8.76312 10.8463 8.78634 10.823L12.1823 7.427C12.2174 7.39204 12.2413 7.34745 12.251 7.2989C12.2606 7.25034 12.2557 7.20001 12.2367 7.15427C12.2178 7.10853 12.1857 7.06945 12.1445 7.04199C12.1033 7.01453 12.0548 6.99991 12.0053 7H5.21334C5.16383 6.99991 5.11541 7.01453 5.07421 7.04199C5.03302 7.06945 5.0009 7.10853 4.98195 7.15427C4.96299 7.20001 4.95804 7.25034 4.96772 7.2989C4.9774 7.34745 5.00128 7.39204 5.03634 7.427Z" fill="#8B949E"/>
</svg>
