<svg preserveAspectRatio="none" width="18" height="19" viewBox="0 0 18 19" fill="none" xmlns="http://www.w3.org/2000/svg">
<g clip-path="url(#clip0_1_3372)">
<path vector-effect="non-scaling-stroke" d="M9.39384 0.811875C10.3763 0.796875 11.3513 0.804375 12.3263 0.796875C12.3863 1.94437 12.7988 3.11437 13.6388 3.92437C14.4788 4.75687 15.6638 5.13937 16.8188 5.26687V8.28937C15.7388 8.25187 14.6513 8.02687 13.6688 7.56187C13.2413 7.36687 12.8438 7.11937 12.4538 6.86437C12.4463 9.05437 12.4613 11.2444 12.4388 13.4269C12.3788 14.4769 12.0338 15.5194 11.4263 16.3819C10.4438 17.8219 8.74134 18.7594 6.99384 18.7894C5.92134 18.8494 4.84884 18.5569 3.93384 18.0169C2.41884 17.1244 1.35384 15.4894 1.19634 13.7344C1.18134 13.3594 1.17384 12.9844 1.18884 12.6169C1.32384 11.1919 2.02884 9.82687 3.12384 8.89687C4.36884 7.81687 6.10884 7.29937 7.73634 7.60687C7.75134 8.71687 7.70634 9.82687 7.70634 10.9369C6.96384 10.6969 6.09384 10.7644 5.44134 11.2144C4.96884 11.5219 4.60884 11.9944 4.42134 12.5269C4.26384 12.9094 4.30884 13.3294 4.31634 13.7344C4.49634 14.9644 5.68134 15.9994 6.94134 15.8869C7.78134 15.8794 8.58384 15.3919 9.01884 14.6794C9.16134 14.4319 9.31884 14.1769 9.32634 13.8844C9.40134 12.5419 9.37134 11.2069 9.37884 9.86437C9.38634 6.84187 9.37134 3.82687 9.39384 0.811875Z" fill="#959DA5"/>
</g>
<defs>
<clipPath id="clip0_1_3372">
<rect vector-effect="non-scaling-stroke" width="18" height="18" fill="white" transform="translate(0 0.796875)"/>
</clipPath>
</defs>
</svg>
