<svg preserveAspectRatio="none" width="17" height="17" viewBox="0 0 17 17" fill="none" xmlns="http://www.w3.org/2000/svg">
<path vector-effect="non-scaling-stroke" d="M8.39941 14.9463L8.74441 15.6123C8.6378 15.6675 8.51948 15.6964 8.39941 15.6964C8.27934 15.6964 8.16103 15.6675 8.05441 15.6123L8.04641 15.6083L8.02841 15.5983C7.9237 15.5442 7.82033 15.4875 7.71841 15.4283C6.4996 14.7346 5.34973 13.9263 4.28441 13.0143C2.44441 11.4273 0.399414 9.04629 0.399414 6.19629C0.399414 3.53229 2.48541 1.69629 4.64941 1.69629C6.19641 1.69629 7.55241 2.49829 8.39941 3.71629C9.24641 2.49829 10.6024 1.69629 12.1494 1.69629C14.3134 1.69629 16.3994 3.53229 16.3994 6.19629C16.3994 9.04629 14.3544 11.4273 12.5144 13.0143C11.3588 14.0023 10.1041 14.8682 8.77041 15.5983L8.75241 15.6083L8.74641 15.6113H8.74441L8.39941 14.9463ZM4.64941 3.19629C3.31341 3.19629 1.89941 4.36029 1.89941 6.19629C1.89941 8.34629 3.47941 10.3403 5.26441 11.8783C6.23829 12.7113 7.28785 13.4515 8.39941 14.0893C9.51098 13.4515 10.5605 12.7113 11.5344 11.8783C13.3194 10.3403 14.8994 8.34629 14.8994 6.19629C14.8994 4.36029 13.4854 3.19629 12.1494 3.19629C10.7764 3.19629 9.54041 4.18229 9.12041 5.65229C9.07619 5.80946 8.98181 5.94788 8.85166 6.04647C8.7215 6.14505 8.56269 6.19841 8.39941 6.19841C8.23614 6.19841 8.07733 6.14505 7.94717 6.04647C7.81702 5.94788 7.72264 5.80946 7.67841 5.65229C7.25841 4.18229 6.02241 3.19629 4.64941 3.19629Z" fill="#C9D1D9"/>
</svg>
