<svg preserveAspectRatio="none" width="17" height="16" viewBox="0 0 17 16" fill="none" xmlns="http://www.w3.org/2000/svg">
<path vector-effect="non-scaling-stroke" d="M4.9375 4C4.9375 2.93913 5.35893 1.92172 6.10907 1.17157C6.85922 0.421427 7.87663 0 8.9375 0C9.99837 0 11.0158 0.421427 11.7659 1.17157C12.5161 1.92172 12.9375 2.93913 12.9375 4V6H13.1875C14.1535 6 14.9375 6.784 14.9375 7.75V13.25C14.9375 13.7141 14.7531 14.1592 14.4249 14.4874C14.0967 14.8156 13.6516 15 13.1875 15H4.6875C4.22337 15 3.77825 14.8156 3.45006 14.4874C3.12187 14.1592 2.9375 13.7141 2.9375 13.25V7.75C2.9375 6.784 3.7215 6 4.6875 6H4.9375V4ZM13.1875 7.5H4.6875C4.6212 7.5 4.55761 7.52634 4.51072 7.57322C4.46384 7.62011 4.4375 7.6837 4.4375 7.75V13.25C4.4375 13.388 4.5495 13.5 4.6875 13.5H13.1875C13.2538 13.5 13.3174 13.4737 13.3643 13.4268C13.4112 13.3799 13.4375 13.3163 13.4375 13.25V7.75C13.4375 7.6837 13.4112 7.62011 13.3643 7.57322C13.3174 7.52634 13.2538 7.5 13.1875 7.5ZM11.4375 6V4C11.4375 3.33696 11.1741 2.70107 10.7053 2.23223C10.2364 1.76339 9.60054 1.5 8.9375 1.5C8.27446 1.5 7.63857 1.76339 7.16973 2.23223C6.70089 2.70107 6.4375 3.33696 6.4375 4V6H11.4375Z" fill="#6E7681"/>
</svg>
