<svg preserveAspectRatio="none" width="84" height="31" viewBox="0 0 84 31" fill="none" xmlns="http://www.w3.org/2000/svg">
<path vector-effect="non-scaling-stroke" d="M16.4453 14.7397V25.4544C16.4453 25.5291 16.4267 25.6597 16.3333 25.6971C16.3333 25.6971 14 27.3584 10.1547 27.3584C5.50667 27.3584 0 25.9024 0 16.3077C0 6.71306 4.816 4.73439 9.52 4.75306C13.5893 4.75306 15.232 5.66773 15.4933 5.83573C15.568 5.92906 15.6053 6.00373 15.6053 6.09706L14.8213 9.41973C14.8213 9.58773 14.6533 9.79306 14.448 9.73706C13.776 9.53173 12.768 9.12106 10.3973 9.12106C7.65333 9.12106 4.704 9.90506 4.704 16.0837C4.704 22.2624 7.504 22.9904 9.52 22.9904C11.2373 22.9904 11.8533 22.7851 11.8533 22.7851V18.4917H9.10933C8.904 18.4917 8.75467 18.3424 8.75467 18.1744V14.7397C8.75467 14.5717 8.904 14.4224 9.10933 14.4224H16.0907C16.296 14.4224 16.4453 14.5717 16.4453 14.7397ZM83.3653 19.0891C83.3653 25.4917 81.2933 27.3211 77.672 27.3211C74.6107 27.3211 72.968 25.7717 72.968 25.7717C72.968 25.7717 72.8933 26.6304 72.8 26.7424C72.744 26.8544 72.6507 26.8917 72.5387 26.8917H69.776C69.5893 26.8917 69.4213 26.7424 69.4213 26.5744L69.4587 5.83573C69.4587 5.66773 69.608 5.51839 69.776 5.51839H73.752C73.92 5.51839 74.0693 5.66773 74.0693 5.83573V12.8731C74.0693 12.8731 75.6 11.8837 77.84 11.8837L77.8213 11.8464C80.0613 11.8464 83.3653 12.6864 83.3653 19.0891ZM51.6693 5.55573C51.8373 5.55573 51.9867 5.70506 51.9867 5.87306V26.6117C51.9867 26.7797 51.8373 26.9291 51.6693 26.9291H47.6933C47.5253 26.9291 47.376 26.7797 47.376 26.6117L47.4133 17.7451H41.2347V26.6117C41.2347 26.7797 41.0853 26.9291 40.9173 26.9291H36.9413C36.792 26.9291 36.624 26.7797 36.624 26.6117V5.87306C36.624 5.70506 36.7733 5.55573 36.9413 5.55573H40.9173C41.0853 5.55573 41.2347 5.70506 41.2347 5.87306V13.5077H47.4133V5.87306C47.4133 5.70506 47.5627 5.55573 47.7307 5.55573H51.6693ZM67.088 12.3504C67.2933 12.3504 67.4427 12.4997 67.4427 12.6677L67.4053 26.6117C67.4053 26.7797 67.2933 26.9291 67.088 26.9291H64.5867C64.456 26.9291 64.3253 26.8544 64.288 26.7611C64.232 26.6491 64.1387 25.9211 64.1387 25.9211C64.1387 25.9211 62.0293 27.3584 59.4347 27.3584C56.28 27.3584 53.984 26.3317 53.984 22.2251V12.6864C53.984 12.5184 54.1333 12.3691 54.3013 12.3691H58.296C58.464 12.3691 58.6133 12.5184 58.6133 12.6864V21.5531C58.6133 22.9531 59.024 23.5877 60.424 23.5877C61.824 23.5877 62.8507 22.8597 62.8507 22.8597V12.7051C62.8507 12.4997 62.9627 12.3504 63.168 12.3504H67.088ZM34.5968 23.4963H34.6061C34.6823 23.512 34.7505 23.5542 34.7986 23.6153C34.8468 23.6765 34.8718 23.7526 34.8693 23.8304V26.6304C34.8693 26.7611 34.8133 26.8917 34.7013 26.9291C34.5147 27.0224 33.32 27.3397 32.3307 27.3397C30.1653 27.3397 26.992 26.8731 26.992 22.3184V16.1957H24.92C24.752 16.1957 24.6027 16.0464 24.6027 15.8411V13.3024C24.6027 13.1531 24.696 13.0224 24.8453 12.9851C24.976 12.9664 27.0107 12.4624 27.0107 12.4624V8.41173C27.0107 8.26239 27.104 8.16906 27.272 8.16906H31.304C31.472 8.16906 31.5653 8.26239 31.5653 8.41173V12.3504H34.5333C34.6827 12.3504 34.832 12.4997 34.832 12.6677V15.8411C34.832 16.0464 34.7013 16.1957 34.5333 16.1957H31.5653V22.0403C31.5653 22.9176 32.0693 23.5896 33.5253 23.5896C33.9864 23.5896 34.4232 23.4981 34.5968 23.4963ZM22.848 12.3317C23.016 12.3317 23.1653 12.4811 23.1653 12.6491V26.4064C23.1653 26.7424 23.072 26.9104 22.6987 26.9104H19.1147C18.7973 26.9104 18.5547 26.7797 18.5547 26.4064V12.7051C18.5547 12.4997 18.704 12.3317 18.872 12.3317H22.848ZM78.8293 19.3877C78.8293 16.0091 77.4667 15.5611 76.0293 15.7104C74.9093 15.7851 74.0133 16.3451 74.0133 16.3451V22.9157C74.0133 22.9157 74.928 23.5504 76.2907 23.5877C78.2133 23.6437 78.8293 22.9531 78.8293 19.3877ZM20.888 6.02239C22.288 6.02239 23.4267 7.16106 23.4267 8.59839C23.4267 10.0357 22.288 11.1744 20.888 11.1744C19.4507 11.1744 18.312 10.0357 18.312 8.59839C18.312 7.16106 19.4507 6.02239 20.888 6.02239ZM34.5893 23.4757V23.4776L34.608 23.4963H34.6061L34.5968 23.4944V23.4963C34.58 23.4944 34.5688 23.4757 34.552 23.4757H34.5893Z" fill="white"/>
</svg>
