<svg preserveAspectRatio="none" width="17" height="16" viewBox="0 0 17 16" fill="none" xmlns="http://www.w3.org/2000/svg">
<path vector-effect="non-scaling-stroke" d="M0.6875 1.75C0.6875 0.784 1.4715 0 2.4375 0H14.9375C15.9035 0 16.6875 0.784 16.6875 1.75V14.25C16.6875 14.7141 16.5031 15.1592 16.1749 15.4874C15.8467 15.8156 15.4016 16 14.9375 16H2.4375C1.97337 16 1.52825 15.8156 1.20006 15.4874C0.871874 15.1592 0.6875 14.7141 0.6875 14.25V1.75ZM7.1875 6.5V14.5H14.9375C15.0038 14.5 15.0674 14.4737 15.1143 14.4268C15.1612 14.3799 15.1875 14.3163 15.1875 14.25V6.5H7.1875ZM15.1875 5V1.75C15.1875 1.6837 15.1612 1.62011 15.1143 1.57322C15.0674 1.52634 15.0038 1.5 14.9375 1.5H7.1875V5H15.1875ZM2.1875 6.5V14.25C2.1875 14.388 2.2995 14.5 2.4375 14.5H5.6875V6.5H2.1875ZM5.6875 5V1.5H2.4375C2.3712 1.5 2.30761 1.52634 2.26072 1.57322C2.21384 1.62011 2.1875 1.6837 2.1875 1.75V5H5.6875Z" fill="#8B949E"/>
</svg>
