<svg preserveAspectRatio="none" width="14" height="44" viewBox="0 0 14 44" fill="none" xmlns="http://www.w3.org/2000/svg">
<path vector-effect="non-scaling-stroke" d="M13.0729 17.6828C12.5521 18.0017 12.1206 18.4475 11.8189 18.9786C11.5173 19.5096 11.3553 20.1086 11.3481 20.7193C11.3502 21.4066 11.5538 22.0783 11.9339 22.651C12.3139 23.2238 12.8535 23.6725 13.486 23.9416C13.2367 24.7462 12.8676 25.5086 12.3912 26.2034C11.7096 27.1846 10.9969 28.1657 9.91254 28.1657C8.82814 28.1657 8.54924 27.5357 7.29954 27.5357C6.08084 27.5357 5.64704 28.1864 4.65554 28.1864C3.66404 28.1864 2.97214 27.2775 2.17684 26.1621C1.12631 24.5995 0.548948 22.767 0.514038 20.8845C0.514038 17.7861 2.52804 16.144 4.51094 16.144C5.56444 16.144 6.44234 16.8359 7.10334 16.8359C7.73334 16.8359 8.71454 16.1026 9.91254 16.1026C10.5285 16.0867 11.1389 16.2225 11.69 16.4981C12.2412 16.7736 12.7161 17.1805 13.0729 17.6828ZM9.34454 14.791C9.87264 14.1697 10.1716 13.3861 10.1914 12.571C10.1923 12.4635 10.1819 12.3563 10.1604 12.251C9.2533 12.3396 8.41444 12.772 7.81594 13.4594C7.28275 14.0559 6.97254 14.8186 6.93804 15.6179C6.93844 15.7151 6.94883 15.812 6.96904 15.9071C7.04055 15.9206 7.11316 15.9275 7.18594 15.9278C7.60401 15.8945 8.01095 15.7766 8.38204 15.5812C8.75312 15.3857 9.08058 15.1169 9.34454 14.791Z" fill="black" fill-opacity="0.8"/>
</svg>
