<svg preserveAspectRatio="none" width="16" height="16" viewBox="0 0 16 16" fill="none" xmlns="http://www.w3.org/2000/svg">
<path vector-effect="non-scaling-stroke" d="M4.42696 7.427L7.82296 10.823C7.84619 10.8463 7.87377 10.8648 7.90415 10.8774C7.93452 10.89 7.96708 10.8964 7.99996 10.8964C8.03285 10.8964 8.06541 10.89 8.09578 10.8774C8.12615 10.8648 8.15374 10.8463 8.17696 10.823L11.573 7.427C11.608 7.39204 11.6319 7.34745 11.6416 7.2989C11.6513 7.25034 11.6463 7.20001 11.6274 7.15427C11.6084 7.10853 11.5763 7.06945 11.5351 7.04199C11.4939 7.01453 11.4455 6.99991 11.396 7H4.60396C4.55445 6.99991 4.50603 7.01453 4.46484 7.04199C4.42364 7.06945 4.39153 7.10853 4.37257 7.15427C4.35361 7.20001 4.34866 7.25034 4.35834 7.2989C4.36803 7.34745 4.39191 7.39204 4.42696 7.427Z" fill="#8B949E"/>
</svg>
