<svg preserveAspectRatio="none" width="21" height="21" viewBox="0 0 21 21" fill="none" xmlns="http://www.w3.org/2000/svg">
<path vector-effect="non-scaling-stroke" d="M9.67853 4.50896C9.31242 4.14285 8.71882 4.14285 8.35271 4.50896C7.9866 4.87507 7.9866 5.46867 8.35271 5.83478L9.67853 4.50896ZM14.3281 10.4844L14.991 11.1473C15.3571 10.7812 15.3571 10.1876 14.991 9.82146L14.3281 10.4844ZM8.35271 15.134C7.9866 15.5001 7.9866 16.0936 8.35271 16.4597C8.71882 16.8259 9.31242 16.8259 9.67853 16.4597L8.35271 15.134ZM8.35271 5.83478L13.6652 11.1473L14.991 9.82146L9.67853 4.50896L8.35271 5.83478ZM13.6652 9.82146L8.35271 15.134L9.67853 16.4597L14.991 11.1473L13.6652 9.82146Z" fill="white"/>
<path vector-effect="non-scaling-stroke" d="M2.76562 10.4844H14.3281Z" fill="white"/>
<path vector-effect="non-scaling-stroke" d="M2.76562 10.4844H14.3281" stroke="white" stroke-width="1.875" stroke-linecap="round" stroke-dasharray="12.5 12.5"/>
</svg>
