<svg preserveAspectRatio="none" width="17" height="16" viewBox="0 0 17 16" fill="none" xmlns="http://www.w3.org/2000/svg">
<path vector-effect="non-scaling-stroke" d="M11.8428 3.2199L16.0928 7.4699C16.2333 7.61052 16.3122 7.80115 16.3122 7.9999C16.3122 8.19865 16.2333 8.38927 16.0928 8.5299L11.8428 12.7799C11.7511 12.8786 11.6345 12.9508 11.5053 12.9888C11.376 13.0268 11.2389 13.0293 11.1084 12.9959C10.9779 12.9625 10.8588 12.8946 10.7636 12.7992C10.6685 12.7038 10.6009 12.5845 10.5678 12.4539C10.5344 12.3235 10.5367 12.1866 10.5746 12.0574C10.6124 11.9282 10.6843 11.8116 10.7828 11.7199L14.5028 7.9999L10.7828 4.2799C10.6841 4.18823 10.6119 4.07162 10.5739 3.94237C10.5359 3.81313 10.5334 3.67602 10.5668 3.54549C10.6002 3.41497 10.6681 3.29586 10.7635 3.20072C10.8589 3.10558 10.9782 3.03793 11.1088 3.0049C11.2392 2.97148 11.3762 2.97381 11.5053 3.01165C11.6345 3.04948 11.7511 3.12142 11.8428 3.2199ZM5.28282 3.2199C5.42508 3.08749 5.61313 3.01539 5.80745 3.01874C6.00176 3.0221 6.18721 3.10066 6.32482 3.2379C6.46206 3.3755 6.54062 3.56095 6.54397 3.75527C6.54733 3.94959 6.47523 4.13764 6.34282 4.2799L2.62282 7.9999L6.34282 11.7199C6.44154 11.8116 6.51371 11.9282 6.55173 12.0574C6.58974 12.1867 6.59219 12.3238 6.55882 12.4543C6.52544 12.5848 6.45748 12.7039 6.3621 12.7991C6.26671 12.8942 6.14743 12.9619 6.01682 12.9949C5.88644 13.0283 5.74947 13.026 5.62031 12.9882C5.49114 12.9503 5.37456 12.8784 5.28282 12.7799L1.03282 8.5299C0.892366 8.38927 0.813477 8.19865 0.813477 7.9999C0.813477 7.80115 0.892366 7.61052 1.03282 7.4699L5.28282 3.2199Z" fill="white"/>
</svg>
