<svg preserveAspectRatio="none" width="17" height="16" viewBox="0 0 17 16" fill="none" xmlns="http://www.w3.org/2000/svg">
<path vector-effect="non-scaling-stroke" d="M6.10938 9.25293C6.10938 8.83874 6.44506 8.50293 6.85938 8.50293C7.27352 8.50293 7.60938 8.83872 7.60938 9.25293V10.749C7.60938 11.1632 7.27369 11.499 6.85938 11.499C6.44506 11.499 6.10938 11.1632 6.10938 10.749V9.25293Z" fill="white"/>
<path vector-effect="non-scaling-stroke" d="M11.1094 9.25293C11.1094 8.83874 10.7737 8.50293 10.3594 8.50293C9.94488 8.50293 9.60938 8.83892 9.60938 9.25293V10.749C9.60938 11.1632 9.94506 11.499 10.3594 11.499C10.7737 11.499 11.1094 11.1632 11.1094 10.749V9.25293Z" fill="white"/>
<path vector-effect="non-scaling-stroke" fill-rule="evenodd" clip-rule="evenodd" d="M5.6538 0.529794C6.66308 0.43934 7.97607 0.507089 8.60938 1.41981C9.24268 0.507089 10.5557 0.43934 11.565 0.529794C12.7212 0.645761 13.6948 1.04322 14.2422 1.62708C15.1919 2.6648 15.2361 4.84144 14.7779 6.0398C14.824 6.24464 14.8679 6.45216 14.8994 6.67176C15.746 6.89482 16.6094 8.09408 16.6094 8.95167V10.5717C16.6094 11.0215 16.3994 11.4314 16.0293 11.7114C13.9138 13.2835 11.2766 14.5012 8.60938 14.5012C5.94214 14.5012 3.30494 13.2835 1.18945 11.7114C0.819336 11.4314 0.609375 11.0215 0.609375 10.5717V8.95167C0.609375 8.09408 1.4728 6.89482 2.31933 6.67176C2.35097 6.45216 2.39487 6.24461 2.44091 6.0398C1.98267 4.84144 2.02685 2.6648 2.97656 1.62708C3.52392 1.04322 4.49755 0.645761 5.6538 0.529794ZM8.60938 13.0014C10.5493 13.0014 12.4595 12.1426 13.6094 11.5028V7.15907C11.7539 7.87782 9.61866 7.50721 8.61084 5.84229H8.60791C7.60009 7.50721 5.46484 7.87782 3.60938 7.15907V11.5028C4.75927 12.1426 6.66944 13.0014 8.60938 13.0014ZM5.60938 5.99879C7.24999 5.99879 7.60938 4.70582 7.60938 3.51832C7.60938 2.41517 7.42188 2.00392 6.14062 2.00392C3.92334 2.00392 3.65626 2.75282 3.65626 4.50282C3.65626 5.60597 3.96876 5.99879 5.60938 5.99879ZM11.6094 5.99879C9.96876 5.99879 9.60938 4.70582 9.60938 3.51832C9.60938 2.41517 9.79687 2.00392 11.0782 2.00392C13.2954 2.00392 13.5625 2.75282 13.5625 4.50282C13.5625 5.60597 13.25 5.99879 11.6094 5.99879Z" fill="white"/>
</svg>
