<svg preserveAspectRatio="none" width="20" height="21" viewBox="0 0 20 21" fill="none" xmlns="http://www.w3.org/2000/svg">
<path vector-effect="non-scaling-stroke" d="M0 2.48438C0 2.23574 0.098772 1.99728 0.274587 1.82147C0.450403 1.64565 0.68886 1.54688 0.9375 1.54688H6.25375C7.7875 1.54688 9.15 2.28438 10.0038 3.42313C10.4402 2.83972 11.0068 2.36629 11.6585 2.04055C12.3102 1.71481 13.0289 1.54576 13.7575 1.54688H19.0638C19.3124 1.54688 19.5508 1.64565 19.7267 1.82147C19.9025 1.99728 20.0012 2.23574 20.0012 2.48438V15.6094C20.0012 15.858 19.9025 16.0965 19.7267 16.2723C19.5508 16.4481 19.3124 16.5469 19.0638 16.5469H13.43C13.0607 16.5469 12.6949 16.6196 12.3537 16.761C12.0125 16.9023 11.7024 17.1095 11.4412 17.3706L10.6638 18.1469C10.488 18.3224 10.2497 18.4211 10.0013 18.4211C9.75281 18.4211 9.51453 18.3224 9.33875 18.1469L8.56125 17.3706C8.30008 17.1095 7.99003 16.9023 7.6488 16.761C7.30757 16.6196 6.94184 16.5469 6.5725 16.5469H0.9375C0.68886 16.5469 0.450403 16.4481 0.274587 16.2723C0.098772 16.0965 0 15.858 0 15.6094L0 2.48438ZM9.06375 15.3894L9.06875 9.04813L9.06625 6.23188C9.06559 5.48639 8.76898 4.77166 8.2416 4.24476C7.71423 3.71785 6.99924 3.42188 6.25375 3.42188H1.875V14.6719H6.57125C7.45303 14.6719 8.31694 14.9205 9.06375 15.3894ZM10.9438 6.23438L10.9388 15.3869C11.6852 14.9195 12.5481 14.6717 13.4288 14.6719H18.125V3.42188H13.7563C13.0103 3.42188 12.295 3.7182 11.7675 4.24564C11.2401 4.77309 10.9438 5.48846 10.9438 6.23438Z" fill="#8250DF"/>
</svg>
