<svg preserveAspectRatio="none" width="21" height="21" viewBox="0 0 21 21" fill="none" xmlns="http://www.w3.org/2000/svg">
<path vector-effect="non-scaling-stroke" d="M9.52228 4.88396C9.15617 4.51785 8.56257 4.51785 8.19646 4.88396C7.83035 5.25007 7.83035 5.84367 8.19646 6.20978L9.52228 4.88396ZM14.1719 10.8594L14.8347 11.5223C15.2009 11.1562 15.2009 10.5626 14.8347 10.1965L14.1719 10.8594ZM8.19646 15.509C7.83035 15.8751 7.83035 16.4686 8.19646 16.8347C8.56257 17.2009 9.15617 17.2009 9.52228 16.8347L8.19646 15.509ZM8.19646 6.20978L13.509 11.5223L14.8347 10.1965L9.52228 4.88396L8.19646 6.20978ZM13.509 10.1965L8.19646 15.509L9.52228 16.8347L14.8347 11.5223L13.509 10.1965Z" fill="white"/>
<path vector-effect="non-scaling-stroke" d="M2.60938 10.8594H14.1719Z" fill="white"/>
<path vector-effect="non-scaling-stroke" d="M2.60938 10.8594H14.1719" stroke="white" stroke-width="1.875" stroke-linecap="round" stroke-dasharray="12.5 12.5"/>
</svg>
