<svg preserveAspectRatio="none" width="15" height="44" viewBox="0 0 15 44" fill="none" xmlns="http://www.w3.org/2000/svg">
<path vector-effect="non-scaling-stroke" d="M12.2285 16.0283H11.208C11.0986 15.2173 10.7023 14.4723 10.0908 13.9284C9.47936 13.3845 8.69327 13.0776 7.87503 13.0635C7.05679 13.0776 6.2707 13.3845 5.65924 13.9284C5.04778 14.4723 4.65143 15.2173 4.54203 16.0283H3.52203C2.96082 16.0286 2.42269 16.2517 2.02578 16.6485C1.62887 17.0452 1.40561 17.5833 1.40503 18.1445V25.86C1.40553 26.4211 1.62863 26.9591 2.02538 27.356C2.42212 27.7528 2.96009 27.976 3.52123 27.9767H12.2282C12.7895 27.9762 13.3276 27.753 13.7245 27.3562C14.1213 26.9593 14.3445 26.4212 14.345 25.86V18.1445C14.3444 17.5834 14.1213 17.0454 13.7245 16.6486C13.3277 16.2519 12.7897 16.0288 12.2285 16.0283ZM7.87503 14.1631C8.40244 14.1745 8.91015 14.3656 9.31421 14.7048C9.71828 15.0439 9.99451 15.5108 10.0972 16.0283H5.65283C5.75555 15.5108 6.03178 15.0439 6.43585 14.7048C6.83991 14.3656 7.34762 14.1745 7.87503 14.1631ZM13.245 25.86C13.2447 26.1296 13.1376 26.388 12.947 26.5787C12.7564 26.7693 12.498 26.8767 12.2284 26.8771H3.52153C3.25197 26.8766 2.99359 26.7693 2.80304 26.5786C2.61249 26.388 2.50532 26.1295 2.50503 25.86V18.1445C2.50535 17.875 2.61255 17.6166 2.80314 17.426C2.99372 17.2354 3.25211 17.1282 3.52163 17.1279H12.2286C12.4981 17.1282 12.7565 17.2355 12.947 17.4261C13.1375 17.6166 13.2447 17.875 13.245 18.1445V25.86Z" fill="black" fill-opacity="0.8"/>
</svg>
