<svg preserveAspectRatio="none" width="17" height="17" viewBox="0 0 17 17" fill="none" xmlns="http://www.w3.org/2000/svg">
<path vector-effect="non-scaling-stroke" d="M7.85845 3.71967C7.56556 3.42678 7.09068 3.42678 6.79779 3.71967C6.5049 4.01256 6.5049 4.48744 6.79779 4.78033L7.85845 3.71967ZM11.5781 8.5L12.1084 9.03033C12.4013 8.73744 12.4013 8.26256 12.1084 7.96967L11.5781 8.5ZM6.79779 12.2197C6.5049 12.5126 6.5049 12.9874 6.79779 13.2803C7.09068 13.5732 7.56556 13.5732 7.85845 13.2803L6.79779 12.2197ZM6.79779 4.78033L11.0478 9.03033L12.1084 7.96967L7.85845 3.71967L6.79779 4.78033ZM11.0478 7.96967L6.79779 12.2197L7.85845 13.2803L12.1084 9.03033L11.0478 7.96967Z" fill="white"/>
<path vector-effect="non-scaling-stroke" d="M2.32812 8.5H11.5781Z" fill="white"/>
<path vector-effect="non-scaling-stroke" d="M2.32812 8.5H11.5781" stroke="white" stroke-width="1.5" stroke-linecap="round" stroke-dasharray="10 10"/>
</svg>
