<svg preserveAspectRatio="none" width="21" height="21" viewBox="0 0 21 21" fill="none" xmlns="http://www.w3.org/2000/svg">
<path vector-effect="non-scaling-stroke" d="M9.53791 4.52458C9.1718 4.15847 8.5782 4.15847 8.21208 4.52458C7.84597 4.8907 7.84597 5.4843 8.21208 5.85041L9.53791 4.52458ZM14.1875 10.5L14.8504 11.1629C15.2165 10.7968 15.2165 10.2032 14.8504 9.83708L14.1875 10.5ZM8.21208 15.1496C7.84597 15.5157 7.84597 16.1092 8.21208 16.4754C8.5782 16.8415 9.1718 16.8415 9.53791 16.4754L8.21208 15.1496ZM8.21208 5.85041L13.5246 11.1629L14.8504 9.83708L9.53791 4.52458L8.21208 5.85041ZM13.5246 9.83708L8.21208 15.1496L9.53791 16.4754L14.8504 11.1629L13.5246 9.83708Z" fill="white"/>
<path vector-effect="non-scaling-stroke" d="M2.625 10.5H14.1875Z" fill="white"/>
<path vector-effect="non-scaling-stroke" d="M2.625 10.5H14.1875" stroke="white" stroke-width="1.875" stroke-linecap="round" stroke-dasharray="12.5 12.5"/>
</svg>
