<svg preserveAspectRatio="none" width="17" height="16" viewBox="0 0 17 16" fill="none" xmlns="http://www.w3.org/2000/svg">
<path vector-effect="non-scaling-stroke" d="M1.60938 1.75V13.5H15.3594C15.5583 13.5 15.7491 13.579 15.8897 13.7197C16.0304 13.8603 16.1094 14.0511 16.1094 14.25C16.1094 14.4489 16.0304 14.6397 15.8897 14.7803C15.7491 14.921 15.5583 15 15.3594 15H0.859375C0.660463 15 0.469697 14.921 0.329045 14.7803C0.188393 14.6397 0.109375 14.4489 0.109375 14.25L0.109375 1.75C0.109375 1.55109 0.188393 1.36032 0.329045 1.21967C0.469697 1.07902 0.660463 1 0.859375 1C1.05829 1 1.24905 1.07902 1.38971 1.21967C1.53036 1.36032 1.60937 1.55109 1.60938 1.75ZM15.8894 4.28L10.6394 9.53C10.4987 9.67045 10.3081 9.74934 10.1094 9.74934C9.91062 9.74934 9.72 9.67045 9.57938 9.53L7.10938 7.06L4.38938 9.78C4.24711 9.91241 4.05906 9.98451 3.86474 9.98116C3.67043 9.9778 3.48498 9.89924 3.34737 9.762C3.21013 9.6244 3.13158 9.43895 3.12822 9.24463C3.12486 9.05031 3.19697 8.86226 3.32938 8.72L6.57937 5.47C6.72 5.32955 6.91062 5.25066 7.10938 5.25066C7.30813 5.25066 7.49875 5.32955 7.63938 5.47L10.1094 7.94L14.8294 3.22C14.9716 3.08759 15.1597 3.01549 15.354 3.01884C15.5483 3.0222 15.7338 3.10076 15.8714 3.238C16.0086 3.3756 16.0872 3.56105 16.0905 3.75537C16.0939 3.94969 16.0218 4.13774 15.8894 4.28Z" fill="#8B949E"/>
</svg>
