<svg preserveAspectRatio="none" width="22" height="19" viewBox="0 0 22 19" fill="none" xmlns="http://www.w3.org/2000/svg">
<g clip-path="url(#clip0_1_3357)">
<path vector-effect="non-scaling-stroke" d="M22 2.97167C21.1778 3.33828 20.3043 3.577 19.4099 3.67953C20.3537 3.11794 21.0601 2.2313 21.3967 1.18592C20.5082 1.71037 19.5372 2.08027 18.525 2.27989C17.9059 1.62035 17.1027 1.16214 16.2199 0.964721C15.337 0.767302 14.4152 0.839789 13.5741 1.17278C12.7329 1.50576 12.0113 2.08388 11.5028 2.83209C10.9943 3.58031 10.7225 4.46409 10.7225 5.36874C10.7215 5.71553 10.762 6.0612 10.8431 6.39836C9.04843 6.30741 7.29277 5.84088 5.68965 5.02893C4.08653 4.21697 2.67162 3.07767 1.53638 1.68465C0.958857 2.67835 0.782115 3.85493 1.04219 4.97446C1.30227 6.09398 1.97958 7.07215 2.93601 7.70951C2.21991 7.68679 1.51952 7.49377 0.89287 7.14644V7.20274C0.892853 8.24466 1.25332 9.25449 1.9131 10.0609C2.57287 10.8673 3.49133 11.4206 4.51261 11.6269C4.12481 11.7337 3.72438 11.7879 3.32212 11.7878C3.03613 11.7853 2.75088 11.7584 2.46947 11.7073C2.75802 12.6039 3.31924 13.3881 4.07484 13.9505C4.83044 14.5129 5.74274 14.8254 6.68446 14.8444C5.08433 16.0973 3.11013 16.7771 1.07788 16.775C0.717662 16.7738 0.357796 16.7523 0 16.7106C2.06354 18.0363 4.46505 18.74 6.91773 18.7377C15.219 18.7377 19.7558 11.8601 19.7558 5.89964C19.7558 5.70658 19.7477 5.50549 19.7397 5.31243C20.6263 4.67284 21.3918 3.88016 22 2.97167Z" fill="#959DA5"/>
</g>
<defs>
<clipPath id="clip0_1_3357">
<rect vector-effect="non-scaling-stroke" width="22" height="17.8815" fill="white" transform="translate(0 0.855957)"/>
</clipPath>
</defs>
</svg>
