<svg preserveAspectRatio="none" width="56" height="53" viewBox="0 0 56 53" fill="none" xmlns="http://www.w3.org/2000/svg">
<path vector-effect="non-scaling-stroke" d="M0 27.2717V28.6061V52.1822H13.4378V48.8619L13.4847 48.8776C16.9904 50.0435 21.99 51.0677 26.9434 52.8391L27.3135 52.9694L27.694 52.8808C29.2519 52.5186 33.43 51.2194 38.4317 49.6126C43.4334 48.0058 49.1491 46.1148 53.3916 44.6503C55.4256 43.9468 56.5107 41.6714 55.7632 39.6515V39.6462V39.6409C54.9779 37.5745 52.7098 36.6633 50.7697 37.2588L37.6863 41.2567C37.6746 39.895 36.9936 38.5533 35.888 37.6862L35.8202 37.6341L35.7473 37.5923C30.1593 34.2633 29.6758 33.8503 21.8195 29.6746L21.4598 29.4817L21.0533 29.5234C18.3592 29.8117 13.7978 30.5637 13.4378 30.6233V27.2716L0 27.2717ZM20.9282 32.234C28.1136 36.0608 28.9322 36.6397 34.2461 39.8078C35.0845 40.4775 35.3056 41.2968 34.7934 42.0335C34.5156 42.4337 34.2426 42.591 33.8395 42.659C33.4404 42.7264 32.8802 42.6553 32.2497 42.3775C29.846 41.2673 28.5435 40.5528 25.8957 39.0676L24.7333 38.4161L23.4302 40.7408L24.5925 41.3976C27.2491 42.8876 28.6628 43.66 31.1342 44.8014L31.1396 44.8067H31.15C32.1604 45.2573 33.2334 45.4633 34.2827 45.2862C34.87 45.1871 35.4317 44.9406 35.935 44.5878L51.5517 39.8079C52.1721 39.6175 52.9996 39.9275 53.2561 40.5794C53.4985 41.2461 53.2027 41.8918 52.5212 42.1275C48.3075 43.582 42.6033 45.4728 37.6187 47.0741C32.7751 48.6301 28.6948 49.8696 27.3865 50.1912C22.3876 48.452 17.4318 47.3779 14.324 46.3444L13.4379 46.0473V33.334L13.6568 33.2975C13.6568 33.2975 18.2298 32.5507 20.9282 32.234Z" fill="#EF790C"/>
<path vector-effect="non-scaling-stroke" d="M38.9944 0C39.5237 0 40.0824 0.234774 40.7301 0.870486C41.3779 1.5062 42.05 2.52942 42.6223 3.85724C43.248 5.3092 43.7426 7.13286 44.0766 9.16356H33.9122C34.2462 7.13286 34.7408 5.3092 35.3665 3.85724C35.9387 2.52942 36.6109 1.5062 37.2586 0.870486C37.9064 0.234773 38.465 0 38.9944 0ZM33.8914 0.927823C33.5416 1.50605 33.2098 2.11889 32.9166 2.79911C32.1379 4.60603 31.5751 6.78442 31.2174 9.16356H25.4523C26.9739 5.3594 30.0421 2.36063 33.8914 0.927823ZM44.0974 0.927823C47.9458 2.36067 51.016 5.35925 52.5364 9.16356H46.7714C46.4137 6.78442 45.8509 4.60603 45.0722 2.79911C44.779 2.11889 44.4472 1.50605 44.0974 0.927823ZM24.6653 11.8324H24.8425H30.9098C30.8446 12.7344 30.7952 13.6459 30.7952 14.5898C30.7952 15.5336 30.8446 16.4451 30.9098 17.3472H24.8425H24.6653C24.495 16.4537 24.3994 15.5337 24.3994 14.5898C24.3994 13.6459 24.495 12.7257 24.6653 11.8324ZM33.5838 11.8324H44.405C44.4762 12.7294 44.5248 13.6436 44.5248 14.5898C44.5248 15.5359 44.4762 16.4502 44.405 17.3472H33.5838C33.5125 16.4502 33.4639 15.5359 33.4639 14.5898C33.4639 13.6436 33.5125 12.7294 33.5838 11.8324ZM47.079 11.8324H53.1463H53.3183C53.4884 12.7257 53.5841 13.6459 53.5841 14.5898C53.5841 15.5337 53.4884 16.4537 53.3183 17.3472H53.1463H47.079C47.1441 16.4451 47.1936 15.5336 47.1936 14.5898C47.1936 13.6459 47.1442 12.7344 47.079 11.8324ZM25.4523 20.016H31.2174C31.5751 22.3951 32.1379 24.5735 32.9166 26.3804C33.2098 27.0606 33.5416 27.6735 33.8914 28.2517C30.0424 26.8178 26.9738 23.8209 25.4523 20.016ZM33.9122 20.016H44.0766C43.7426 22.0467 43.248 23.8703 42.6223 25.3223C42.05 26.6501 41.3779 27.6785 40.7301 28.3143C40.0824 28.95 39.5237 29.1847 38.9944 29.1847C38.465 29.1847 37.9064 28.95 37.2586 28.3143C36.6109 27.6785 35.9387 26.6501 35.3665 25.3223C34.7408 23.8703 34.2462 22.0467 33.9122 20.016ZM46.7714 20.016H52.5364C51.0161 23.8211 47.9455 26.8178 44.0974 28.2517C44.4472 27.6735 44.779 27.0606 45.0722 26.3804C45.8509 24.5735 46.4137 22.3951 46.7714 20.016Z" fill="#EF790C"/>
</svg>
