<svg preserveAspectRatio="none" width="165" height="166" viewBox="0 0 165 166" fill="none" xmlns="http://www.w3.org/2000/svg">
<g opacity="0.5">
<path vector-effect="non-scaling-stroke" d="M17.7301 131.034L17.5926 131.171C15.7372 127.117 14.5689 122.513 14.0879 117.427C14.5689 122.444 15.8746 126.98 17.7301 131.034Z" fill="white"/>
<path vector-effect="non-scaling-stroke" d="M61.8486 71.7282C70.8815 71.7282 78.2041 64.4056 78.2041 55.3728C78.2041 46.3399 70.8815 39.0173 61.8486 39.0173C52.8158 39.0173 45.4932 46.3399 45.4932 55.3728C45.4932 64.4056 52.8158 71.7282 61.8486 71.7282Z" fill="white"/>
<path vector-effect="non-scaling-stroke" d="M111.259 14.1404H53.6707C28.6565 14.1404 13.7441 29.0528 13.7441 54.0671V111.655C13.7441 119.145 15.0498 125.674 17.5925 131.171C23.5025 144.228 36.147 151.581 53.6707 151.581H111.259C136.273 151.581 151.185 136.669 151.185 111.655V95.9178V54.0671C151.185 29.0528 136.273 14.1404 111.259 14.1404ZM139.984 86.297C134.624 81.6927 125.965 81.6927 120.605 86.297L92.0168 110.83C86.6566 115.434 77.9978 115.434 72.6376 110.83L70.3011 108.906C65.422 104.645 57.6565 104.233 52.1589 107.944L26.4574 125.193C24.9456 121.344 24.0522 116.878 24.0522 111.655V54.0671C24.0522 34.6879 34.2916 24.4485 53.6707 24.4485H111.259C130.638 24.4485 140.877 34.6879 140.877 54.0671V87.0529L139.984 86.297Z" fill="white"/>
</g>
</svg>
