<svg preserveAspectRatio="none" width="165" height="180" viewBox="0 0 165 180" fill="none" xmlns="http://www.w3.org/2000/svg">
<g opacity="0.5">
<path vector-effect="non-scaling-stroke" d="M17.7301 142.539L17.5926 142.689C15.7372 138.282 14.5689 133.278 14.0879 127.751C14.5689 133.204 15.8746 138.133 17.7301 142.539Z" fill="white"/>
<path vector-effect="non-scaling-stroke" d="M61.8486 78.0854C70.8815 78.0854 78.2041 70.1272 78.2041 60.3102C78.2041 50.4933 70.8815 42.535 61.8486 42.535C52.8158 42.535 45.4932 50.4933 45.4932 60.3102C45.4932 70.1272 52.8158 78.0854 61.8486 78.0854Z" fill="white"/>
<path vector-effect="non-scaling-stroke" d="M111.259 15.4989H53.6707C28.6565 15.4989 13.7441 31.7057 13.7441 58.8913V121.478C13.7441 129.619 15.0498 136.714 17.5925 142.689C23.5025 156.879 36.147 164.87 53.6707 164.87H111.259C136.273 164.87 151.185 148.663 151.185 121.478V104.375V58.8913C151.185 31.7057 136.273 15.4989 111.259 15.4989ZM139.984 93.9188C134.624 88.9149 125.965 88.9149 120.605 93.9188L92.0168 120.582C86.6566 125.586 77.9978 125.586 72.6376 120.582L70.3011 118.49C65.422 113.86 57.6565 113.412 52.1589 117.445L26.4574 136.191C24.9456 132.008 24.0522 127.154 24.0522 121.478V58.8913C24.0522 37.8299 34.2916 26.7017 53.6707 26.7017H111.259C130.638 26.7017 140.877 37.8299 140.877 58.8913V94.7404L139.984 93.9188Z" fill="white"/>
</g>
</svg>
