<svg preserveAspectRatio="none" width="24" height="24" viewBox="0 0 24 24" fill="none" xmlns="http://www.w3.org/2000/svg">
<path vector-effect="non-scaling-stroke" fill-rule="evenodd" clip-rule="evenodd" d="M14.6362 10.3691C14.3526 8.33045 13.5346 6.23564 12.138 4.00117C12.0921 4.00039 12.0461 4 12 4C11.9539 4 11.9079 4.00039 11.862 4.00117C10.4654 6.23564 9.64738 8.33045 9.36375 10.3691C8.72134 10.3066 8.06343 10.2216 7.37985 10.1137C7.6381 8.2363 8.27915 6.36819 9.28106 4.4739C6.96518 5.3107 5.1461 7.18604 4.38614 9.53757C3.76289 9.39941 3.11389 9.2461 2.43382 9.07748C3.56421 5.37277 6.78766 2.58107 10.7262 2.08036C11.1433 2.02733 11.5685 2 12 2C12.4315 2 12.8567 2.02733 13.2738 2.08036C17.2123 2.58107 20.4358 5.37277 21.5662 9.07748C20.8861 9.2461 20.2371 9.39941 19.6139 9.53757C18.8539 7.18604 17.0348 5.3107 14.7189 4.4739C15.7208 6.36819 16.3619 8.2363 16.6202 10.1137C15.9366 10.2216 15.2787 10.3066 14.6362 10.3691ZM12 12.5C15.0428 12.5 18.0595 12.0036 21.9547 11.0417C21.9847 11.3571 22 11.6767 22 12C22 12.3525 21.9818 12.7007 21.9462 13.0438C21.4678 17.6561 17.8544 21.3373 13.2738 21.9196C12.8567 21.9727 12.4315 22 12 22C11.5685 22 11.1433 21.9727 10.7262 21.9196C9.2737 21.735 7.91845 21.2387 6.72958 20.5C5.42062 19.6867 4.31334 18.5794 3.5 17.2704C2.72241 16.019 2.21348 14.5833 2.05382 13.0438C2.01824 12.7007 2 12.3525 2 12C2 11.6767 2.01534 11.3571 2.04533 11.0417C5.94046 12.0036 8.95723 12.5 12 12.5ZM14.7189 19.5261C17.3326 18.5817 19.3136 16.3145 19.8533 13.5328C18.7001 13.7849 17.6198 13.9886 16.5825 14.1428C16.3027 15.9339 15.6752 17.7181 14.7189 19.5261ZM12.138 19.9988C13.362 18.0405 14.1416 16.1895 14.5065 14.3895C13.6607 14.4629 12.8313 14.5 12 14.5C11.1687 14.5 10.3393 14.4629 9.49348 14.3895C9.85841 16.1895 10.638 18.0405 11.862 19.9988C11.9079 19.9996 11.9539 20 12 20C12.0461 20 12.0921 19.9996 12.138 19.9988ZM9.28145 19.5268C8.32496 17.7186 7.69729 15.9342 7.41752 14.1428C6.38012 13.9885 5.29965 13.7848 4.14631 13.5327C4.33396 14.5014 4.69621 15.4061 5.19877 16.2149C5.84996 17.2629 6.73713 18.15 7.78513 18.8012C8.25377 19.0924 8.75462 19.3365 9.28145 19.5268Z" fill="black"/>
</svg>
