<svg preserveAspectRatio="none" width="154" height="25" viewBox="0 0 154 25" fill="none" xmlns="http://www.w3.org/2000/svg">
<path vector-effect="non-scaling-stroke" fill-rule="evenodd" clip-rule="evenodd" d="M12.6404 0.933594C6.12627 0.933594 0.860352 6.23865 0.860352 12.8012C0.860352 18.0471 4.23443 22.4877 8.91524 24.0596C9.50035 24.1775 9.71489 23.8043 9.71489 23.4899C9.71489 23.2148 9.69537 22.2717 9.69537 21.2891C6.41881 21.9966 5.7362 19.8745 5.7362 19.8745C5.2096 18.4991 4.42948 18.1455 4.42948 18.1455C3.35679 17.4184 4.50748 17.4184 4.50748 17.4184C5.69719 17.4971 6.32129 18.6366 6.32129 18.6366C7.37448 20.4444 9.07127 19.9336 9.7539 19.6192C9.8514 18.8529 10.1635 18.3223 10.495 18.0275C7.88156 17.7526 5.1316 16.7308 5.1316 12.1724C5.1316 10.8756 5.59967 9.81461 6.34081 8.98939C6.22379 8.69467 5.81421 7.47647 6.45782 5.84566C6.45782 5.84566 7.45249 5.5313 9.69537 7.06387C10.6316 6.80843 11.6457 6.67089 12.6404 6.67089C13.6351 6.67089 14.6492 6.80843 15.5854 7.06387C17.8282 5.5313 18.8231 5.84566 18.8231 5.84566C19.4665 7.47647 19.057 8.69467 18.94 8.98939C19.7007 9.81461 20.1492 10.8756 20.1492 12.1724C20.1492 16.7308 17.3992 17.7328 14.7663 18.0275C15.1953 18.401 15.5659 19.1082 15.5659 20.2281C15.5659 21.8198 15.5464 23.0968 15.5464 23.4899C15.5464 23.8043 15.7609 24.1775 16.346 24.0596C21.0268 22.4877 24.401 18.0471 24.401 12.8012C24.4203 6.23865 19.135 0.933594 12.6404 0.933594Z" fill="white"/>
<path vector-effect="non-scaling-stroke" d="M5.32646 17.9688C5.30694 18.0277 5.20942 18.0473 5.13141 18.008C5.05341 17.9688 4.9949 17.8901 5.03389 17.8312C5.05341 17.7724 5.15091 17.7525 5.22894 17.792C5.30694 17.8312 5.34595 17.9097 5.32646 17.9688Z" fill="white"/>
<path vector-effect="non-scaling-stroke" d="M5.79437 18.4989C5.73586 18.558 5.61885 18.5186 5.56034 18.4401C5.48231 18.3614 5.46282 18.2437 5.52133 18.1846C5.57983 18.1257 5.67736 18.165 5.75536 18.2437C5.83339 18.3418 5.85288 18.4597 5.79437 18.4989Z" fill="white"/>
<path vector-effect="non-scaling-stroke" d="M6.26323 19.187C6.1852 19.2458 6.06818 19.187 6.00967 19.0886C5.93167 18.9903 5.93167 18.853 6.00967 18.8135C6.0877 18.7547 6.20472 18.8135 6.26323 18.9118C6.34123 19.0102 6.34123 19.1279 6.26323 19.187Z" fill="white"/>
<path vector-effect="non-scaling-stroke" d="M6.90619 19.8547C6.84769 19.9335 6.71117 19.9136 6.59416 19.8155C6.49664 19.7172 6.45762 19.5796 6.53565 19.5208C6.59416 19.4421 6.73067 19.4617 6.84769 19.56C6.94521 19.6387 6.9647 19.7763 6.90619 19.8547Z" fill="white"/>
<path vector-effect="non-scaling-stroke" d="M7.78449 20.2282C7.765 20.3266 7.62846 20.3658 7.49195 20.3266C7.35542 20.2873 7.27741 20.1694 7.29691 20.0909C7.31643 19.9926 7.45294 19.9533 7.58947 19.9926C7.72599 20.0318 7.80401 20.1301 7.78449 20.2282Z" fill="white"/>
<path vector-effect="non-scaling-stroke" d="M8.7395 20.3067C8.7395 20.405 8.62248 20.4835 8.48595 20.4835C8.34944 20.4835 8.23242 20.405 8.23242 20.3067C8.23242 20.2084 8.34944 20.1299 8.48595 20.1299C8.62248 20.1299 8.7395 20.2084 8.7395 20.3067Z" fill="white"/>
<path vector-effect="non-scaling-stroke" d="M9.63655 20.1496C9.65607 20.248 9.55855 20.346 9.42201 20.3657C9.2855 20.3855 9.16849 20.3264 9.14897 20.2283C9.12947 20.13 9.22699 20.0317 9.36351 20.0121C9.50004 19.9924 9.61706 20.0513 9.63655 20.1496Z" fill="white"/>
<path vector-effect="non-scaling-stroke" d="M39.6347 10.0807H41.7107C41.6479 7.79569 39.6278 6.1377 36.7296 6.1377C33.8665 6.1377 31.6721 7.7748 31.6721 10.2339C31.6721 12.2193 33.0934 13.3827 35.3851 14.0027L37.071 14.4625C38.5967 14.8665 39.774 15.3681 39.774 16.636C39.774 18.0292 38.4434 18.9488 36.6112 18.9488C34.9533 18.9488 33.574 18.2104 33.4487 16.6569H31.2891C31.4283 19.2413 33.4278 20.8367 36.6252 20.8367C39.976 20.8367 41.9056 19.0741 41.9056 16.6569C41.9056 14.0863 39.6139 13.0901 37.8025 12.6443L36.4094 12.282C35.2946 11.9964 33.8109 11.4739 33.8177 10.1085C33.8177 8.89636 34.9254 7.99772 36.6811 7.99772C38.3181 7.99772 39.4814 8.76402 39.6347 10.0807Z" fill="white"/>
<path vector-effect="non-scaling-stroke" d="M48.6217 20.8159C51.6381 20.8159 53.6096 18.6075 53.6096 15.2985C53.6096 11.9686 51.6381 9.76025 48.6217 9.76025C45.6053 9.76025 43.6338 11.9686 43.6338 15.2985C43.6338 18.6075 45.6053 20.8159 48.6217 20.8159ZM48.6288 19.0673C46.6573 19.0673 45.7377 17.3466 45.7377 15.2915C45.7377 13.2434 46.6573 11.5018 48.6288 11.5018C50.5864 11.5018 51.5059 13.2434 51.5059 15.2915C51.5059 17.3466 50.5864 19.0673 48.6288 19.0673Z" fill="white"/>
<path vector-effect="non-scaling-stroke" d="M60.2465 20.8159C62.7754 20.8159 64.4124 19.2973 64.6424 17.2142H62.6152C62.3504 18.3706 61.4517 19.0533 60.2604 19.0533C58.4981 19.0533 57.3625 17.5835 57.3625 15.2497C57.3625 12.9578 58.5189 11.5158 60.2604 11.5158C61.5841 11.5158 62.3921 12.3517 62.6152 13.3549H64.6424C64.4193 11.1953 62.6569 9.76025 60.2256 9.76025C57.2092 9.76025 55.2588 12.0313 55.2588 15.2985C55.2588 18.5239 57.1396 20.8159 60.2465 20.8159Z" fill="white"/>
<path vector-effect="non-scaling-stroke" d="M66.6728 20.6H68.7559V9.89972H66.6728V20.6ZM67.7248 8.24871C68.4423 8.24871 69.0413 7.69141 69.0413 7.00871C69.0413 6.32601 68.4423 5.76172 67.7248 5.76172C67.0004 5.76172 66.4082 6.32601 66.4082 7.00871C66.4082 7.69141 67.0004 8.24871 67.7248 8.24871Z" fill="white"/>
<path vector-effect="non-scaling-stroke" d="M74.4758 20.8367C76.2453 20.8367 77.2416 19.938 77.6386 19.1369H77.7222V20.5999H79.7563V13.4942C79.7563 10.3803 77.3041 9.76025 75.6043 9.76025C73.6678 9.76025 71.8844 10.5405 71.1877 12.491L73.1453 12.9369C73.4518 12.1776 74.2321 11.4461 75.6322 11.4461C76.9767 11.4461 77.6663 12.1497 77.6663 13.3618V13.4106C77.6663 14.1699 76.8863 14.156 74.9635 14.3789C72.9363 14.6158 70.8604 15.1452 70.8604 17.5764C70.8604 19.6803 72.4417 20.8367 74.4758 20.8367ZM74.9287 19.1649C73.7514 19.1649 72.9015 18.6354 72.9015 17.6043C72.9015 16.4897 73.8907 16.0926 75.0959 15.9324C75.7715 15.8419 77.3737 15.6607 77.6734 15.3612V16.7405C77.6734 18.0084 76.6634 19.1649 74.9287 19.1649Z" fill="white"/>
<path vector-effect="non-scaling-stroke" d="M84.4178 6.33301H82.335V20.6H84.4178V6.33301Z" fill="white"/>
<path vector-effect="non-scaling-stroke" d="M94.339 6.33301H92.1865V20.6H94.339V6.33301Z" fill="white"/>
<path vector-effect="non-scaling-stroke" d="M97.1104 20.5999H99.1935V14.0027C99.1935 12.5607 100.203 11.5576 101.388 11.5576C102.544 11.5576 103.345 12.3239 103.345 13.4872V20.5999H105.421V13.7798C105.421 12.491 106.209 11.5576 107.567 11.5576C108.668 11.5576 109.573 12.1706 109.573 13.6196V20.5999H111.656V13.4245C111.656 10.9794 110.291 9.76025 108.354 9.76025C106.814 9.76025 105.658 10.4987 105.143 11.6411H105.031C104.564 10.4708 103.582 9.76025 102.154 9.76025C100.74 9.76025 99.6881 10.4638 99.2422 11.6411H99.1098V9.89956H97.1104V20.5999Z" fill="white"/>
<path vector-effect="non-scaling-stroke" d="M114.252 24.6125H116.335V18.9348H116.46C116.836 19.6175 117.603 20.8088 119.553 20.8088C122.145 20.8088 124.025 18.7328 124.025 15.2706C124.025 11.8014 122.117 9.76025 119.532 9.76025C117.547 9.76025 116.829 10.9724 116.46 11.6342H116.286V9.89956H114.252V24.6125ZM116.293 15.2497C116.293 13.0135 117.268 11.5297 119.086 11.5297C120.974 11.5297 121.922 13.125 121.922 15.2497C121.922 17.3953 120.947 19.0324 119.086 19.0324C117.296 19.0324 116.293 17.4998 116.293 15.2497Z" fill="white"/>
<path vector-effect="non-scaling-stroke" d="M129.277 20.8367C131.046 20.8367 132.042 19.938 132.439 19.1369H132.523V20.5999H134.557V13.4942C134.557 10.3803 132.105 9.76025 130.405 9.76025C128.469 9.76025 126.685 10.5405 125.989 12.491L127.946 12.9369C128.253 12.1776 129.033 11.4461 130.433 11.4461C131.778 11.4461 132.467 12.1497 132.467 13.3618V13.4106C132.467 14.1699 131.687 14.156 129.764 14.3789C127.737 14.6158 125.661 15.1452 125.661 17.5764C125.661 19.6803 127.243 20.8367 129.277 20.8367ZM129.729 19.1649C128.552 19.1649 127.702 18.6354 127.702 17.6043C127.702 16.4897 128.692 16.0926 129.897 15.9324C130.572 15.8419 132.175 15.6607 132.474 15.3612V16.7405C132.474 18.0084 131.464 19.1649 129.729 19.1649Z" fill="white"/>
<path vector-effect="non-scaling-stroke" d="M141.643 20.8159C144.172 20.8159 145.809 19.2973 146.039 17.2142H144.012C143.747 18.3706 142.848 19.0533 141.657 19.0533C139.895 19.0533 138.759 17.5835 138.759 15.2497C138.759 12.9578 139.916 11.5158 141.657 11.5158C142.981 11.5158 143.789 12.3517 144.012 13.3549H146.039C145.816 11.1953 144.054 9.76025 141.622 9.76025C138.606 9.76025 136.655 12.0313 136.655 15.2985C136.655 18.5239 138.536 20.8159 141.643 20.8159Z" fill="white"/>
<path vector-effect="non-scaling-stroke" d="M153.064 9.89954H150.87V7.33594H148.787V9.89954H147.22V11.5715H148.787V17.89C148.78 19.8335 150.264 20.7739 151.908 20.7391C152.57 20.7322 153.016 20.6067 153.26 20.5162L152.883 18.7955C152.744 18.8235 152.486 18.886 152.152 18.886C151.476 18.886 150.87 18.6631 150.87 17.4581V11.5715H153.064V9.89954Z" fill="white"/>
</svg>
