<svg preserveAspectRatio="none" width="76" height="17" viewBox="0 0 76 17" fill="none" xmlns="http://www.w3.org/2000/svg">
<path vector-effect="non-scaling-stroke" d="M8.33069 10.1396H3.59729L2.46057 13.4961H0.455688L4.93909 1.0781H7.02209L11.5055 13.4961H9.46642L8.33069 10.1396ZM4.08752 8.59082H7.83952L5.98991 3.14355H5.93815L4.08752 8.59082Z" fill="white"/>
<path vector-effect="non-scaling-stroke" d="M21.1881 8.96973C21.1881 11.7832 19.6823 13.5908 17.4098 13.5908C16.8341 13.6209 16.2616 13.4883 15.7578 13.2082C15.254 12.9281 14.8393 12.5117 14.5612 12.0068H14.5182V16.4912H12.6598V4.44238H14.4586V5.94824H14.4928C14.7838 5.44577 15.2055 5.03158 15.7131 4.74974C16.2207 4.46789 16.7953 4.32893 17.3756 4.34765C19.6734 4.34766 21.1881 6.16406 21.1881 8.96973ZM19.278 8.96973C19.278 7.13673 18.3307 5.93164 16.8854 5.93164C15.4654 5.93164 14.5104 7.16211 14.5104 8.96973C14.5104 10.7939 15.4654 12.0156 16.8854 12.0156C18.3307 12.0156 19.278 10.8193 19.278 8.96973Z" fill="white"/>
<path vector-effect="non-scaling-stroke" d="M31.153 8.96973C31.153 11.7832 29.6471 13.5908 27.3746 13.5908C26.799 13.6209 26.2265 13.4883 25.7227 13.2082C25.2189 12.9281 24.8042 12.5117 24.526 12.0068H24.483V16.4912H22.6246V4.44238H24.4234V5.94824H24.4576C24.7486 5.44577 25.1703 5.03159 25.6779 4.74974C26.1856 4.4679 26.7601 4.32894 27.3404 4.34766C29.6383 4.34766 31.153 6.16406 31.153 8.96973ZM29.2428 8.96973C29.2428 7.13673 28.2955 5.93164 26.8502 5.93164C25.4303 5.93164 24.4752 7.16211 24.4752 8.96973C24.4752 10.7939 25.4303 12.0156 26.8502 12.0156C28.2955 12.0156 29.2428 10.8193 29.2428 8.96973H29.2428Z" fill="white"/>
<path vector-effect="non-scaling-stroke" d="M37.7389 10.0361C37.8766 11.2676 39.0729 12.0761 40.7076 12.0761C42.2741 12.0761 43.401 11.2675 43.401 10.1572C43.401 9.19331 42.7213 8.61618 41.1119 8.22066L39.5026 7.83296C37.2223 7.28218 36.1637 6.21577 36.1637 4.4853C36.1637 2.34272 38.0309 0.871038 40.6823 0.871038C43.3063 0.871038 45.1051 2.34272 45.1656 4.4853H43.2896C43.1774 3.24604 42.1529 2.498 40.6559 2.498C39.1588 2.498 38.1344 3.25484 38.1344 4.3564C38.1344 5.23433 38.7887 5.75093 40.3893 6.1464L41.7574 6.48234C44.3053 7.08488 45.3639 8.10834 45.3639 9.92472C45.3639 12.248 43.5133 13.703 40.5699 13.703C37.816 13.703 35.9566 12.2821 35.8365 10.036L37.7389 10.0361Z" fill="white"/>
<path vector-effect="non-scaling-stroke" d="M49.3746 2.2998V4.44238H51.0963V5.91406H49.3746V10.9053C49.3746 11.6807 49.7194 12.042 50.4762 12.042C50.6806 12.0384 50.8846 12.0241 51.0875 11.999V13.4619C50.7472 13.5255 50.4014 13.5543 50.0553 13.5478C48.2223 13.5478 47.5074 12.8593 47.5074 11.1035V5.91406H46.191V4.44238H47.5074V2.2998H49.3746Z" fill="white"/>
<path vector-effect="non-scaling-stroke" d="M52.0934 8.96973C52.0934 6.1211 53.7711 4.33106 56.3874 4.33106C59.0124 4.33106 60.6823 6.12106 60.6823 8.96973C60.6823 11.8262 59.0211 13.6084 56.3874 13.6084C53.7545 13.6084 52.0934 11.8262 52.0934 8.96973ZM58.7887 8.96973C58.7887 7.01563 57.8932 5.86231 56.3874 5.86231C54.8815 5.86231 53.987 7.02442 53.987 8.96973C53.987 10.9316 54.8815 12.0762 56.3874 12.0762C57.8932 12.0762 58.7887 10.9316 58.7887 8.96973H58.7887Z" fill="white"/>
<path vector-effect="non-scaling-stroke" d="M62.2145 4.44238H63.9869V5.98338H64.0299C64.1499 5.50209 64.4318 5.07676 64.8284 4.77888C65.225 4.48099 65.712 4.32871 66.2077 4.34764C66.4218 4.34689 66.6354 4.37015 66.8444 4.41698V6.15526C66.574 6.07264 66.292 6.03471 66.0094 6.04296C65.7394 6.032 65.4703 6.07961 65.2204 6.18249C64.9706 6.28538 64.746 6.44111 64.562 6.639C64.378 6.83689 64.239 7.07225 64.1546 7.32892C64.0702 7.58559 64.0423 7.85749 64.0729 8.12596V13.4961H62.2145L62.2145 4.44238Z" fill="white"/>
<path vector-effect="non-scaling-stroke" d="M75.4127 10.8369C75.1627 12.4805 73.5621 13.6084 71.5143 13.6084C68.8805 13.6084 67.2457 11.8437 67.2457 9.01269C67.2457 6.17285 68.8893 4.33105 71.4362 4.33105C73.941 4.33105 75.5162 6.05175 75.5162 8.79687V9.43359H69.1217V9.54589C69.0922 9.87909 69.1339 10.2148 69.2441 10.5306C69.3543 10.8464 69.5304 11.1352 69.7607 11.3778C69.9911 11.6203 70.2704 11.8111 70.5802 11.9374C70.8899 12.0637 71.223 12.1226 71.5573 12.1103C71.9964 12.1515 72.4371 12.0498 72.8138 11.8203C73.1906 11.5909 73.4831 11.246 73.6481 10.8369L75.4127 10.8369ZM69.1305 8.13476H73.6569C73.6735 7.83516 73.6281 7.53535 73.5234 7.25414C73.4188 6.97293 73.2571 6.7164 73.0486 6.50063C72.84 6.28486 72.5892 6.11453 72.3117 6.00031C72.0342 5.88609 71.7361 5.83046 71.4362 5.83691C71.1335 5.8351 70.8335 5.89325 70.5535 6.00799C70.2734 6.12273 70.0189 6.2918 69.8045 6.50543C69.5902 6.71907 69.4203 6.97304 69.3046 7.25269C69.1889 7.53234 69.1297 7.83213 69.1305 8.13477V8.13476Z" fill="white"/>
</svg>
