<svg preserveAspectRatio="none" width="44" height="13" viewBox="0 0 44 13" fill="none" xmlns="http://www.w3.org/2000/svg">
<path vector-effect="non-scaling-stroke" d="M6.06115 0.910278C9.60713 0.910278 12.1125 3.51028 12.1125 6.83028C12.1125 8.23028 11.6175 9.49028 10.8295 10.5003L11.6175 11.2303C11.9509 11.5103 11.9812 11.8503 11.6882 12.1903L11.3852 12.5203C11.0922 12.8303 10.7588 12.8603 10.4759 12.5903L9.63744 11.7603C8.64739 12.4903 7.42499 12.9003 6.06115 12.9003C2.51518 12.9003 0.00976563 10.2203 0.00976563 6.84028C0.00976562 3.51028 2.53538 0.910278 6.06115 0.910278ZM6.06115 10.9603C6.78853 10.9603 7.54622 10.7503 8.10186 10.3403L7.29366 9.57028C6.98048 9.29028 6.95017 8.95028 7.24315 8.62028L7.53612 8.31028C7.82909 7.98028 8.16247 7.95028 8.44534 8.23028L9.27374 9.06028C9.68794 8.42028 9.9203 7.64028 9.9203 6.82028C9.9203 4.53028 8.25339 2.82028 6.06115 2.82028C3.84871 2.82028 2.202 4.53028 2.202 6.82028C2.202 9.17028 3.84871 10.9603 6.06115 10.9603Z" fill="#F27321"/>
<path vector-effect="non-scaling-stroke" d="M13.6885 5.06024C13.6885 4.62024 13.9309 4.37024 14.3856 4.37024H15.0927C15.5574 4.37024 15.7898 4.61024 15.7898 5.06024V9.30024C15.7898 10.3102 16.0525 11.0002 17.093 11.0002C18.6084 11.0002 19.4469 9.68024 19.4469 8.19024V5.06024C19.4469 4.62024 19.6793 4.37024 20.144 4.37024H20.8511C21.2957 4.37024 21.5482 4.61024 21.5482 5.06024V12.0102C21.5482 12.4702 21.3058 12.7002 20.8511 12.7002H20.2046C19.7601 12.7002 19.5277 12.4702 19.5277 12.0102V11.5202C19.5277 11.3202 19.558 11.1402 19.558 11.1402H19.5277C19.1337 11.9902 18.0427 12.8902 16.6081 12.8902C14.8099 12.8902 13.6885 11.9902 13.6885 9.72024V5.06024Z" fill="#F27321"/>
<path vector-effect="non-scaling-stroke" d="M23.5991 2.28022V1.79022C23.5991 1.35022 23.8315 1.10022 24.276 1.10022H25.0034C25.4479 1.10022 25.7004 1.34022 25.7004 1.79022V2.28022C25.7004 2.72022 25.458 2.95022 25.0034 2.95022H24.276C23.8315 2.95022 23.5991 2.72022 23.5991 2.28022ZM23.5991 5.06022C23.5991 4.62022 23.8315 4.37022 24.276 4.37022H25.0034C25.4479 4.37022 25.6802 4.61022 25.6802 5.06022V12.0102C25.6802 12.4702 25.4479 12.7002 25.0034 12.7002H24.276C23.8315 12.7002 23.5991 12.4702 23.5991 12.0102V5.06022Z" fill="#F27321"/>
<path vector-effect="non-scaling-stroke" d="M31.8025 4.17029C33.1562 4.17029 34.0654 4.66029 34.5605 5.00029C34.904 5.23029 34.9242 5.57029 34.6918 5.93029L34.4796 6.26029C34.2372 6.64029 33.9543 6.64029 33.5603 6.44029C33.2168 6.21029 32.6511 5.93029 31.9237 5.93029C30.378 5.93029 29.3678 7.09029 29.3678 8.51029C29.3678 9.91029 30.378 11.1203 31.9944 11.1203C32.8228 11.1203 33.4795 10.7603 33.8735 10.4803C34.2877 10.2503 34.6009 10.3003 34.813 10.6903L34.9747 11.0003C35.1767 11.3603 35.1262 11.6903 34.7928 11.9103C34.2776 12.2903 33.2572 12.8703 31.8126 12.8703C29.0243 12.8703 27.2463 10.9303 27.2463 8.51029C27.2261 6.17029 29.0142 4.17029 31.8025 4.17029Z" fill="#F27321"/>
<path vector-effect="non-scaling-stroke" d="M36.5 1.79022C36.5 1.35022 36.7425 1.10022 37.1971 1.10022H37.9042C38.369 1.10022 38.6013 1.34022 38.6013 1.79022V7.31022H39.6419L41.3896 4.83022C41.5917 4.50022 41.8341 4.37022 42.218 4.37022H43.006C43.5717 4.37022 43.7435 4.75022 43.4303 5.19022L41.3391 8.10022V8.13022L43.8142 11.8802C44.0971 12.3502 43.9152 12.7002 43.3495 12.7002H42.4605C42.0766 12.7002 41.8341 12.5502 41.6523 12.2302L39.6924 9.06022H38.6013V12.0102C38.6013 12.4702 38.369 12.7002 37.9042 12.7002H37.1971C36.7526 12.7002 36.5 12.4702 36.5 12.0102V1.79022Z" fill="#F27321"/>
</svg>
