<svg preserveAspectRatio="none" width="132" height="33" viewBox="0 0 132 33" fill="none" xmlns="http://www.w3.org/2000/svg">
<path vector-effect="non-scaling-stroke" fill-rule="evenodd" clip-rule="evenodd" d="M0.28125 12.1012C0.28125 5.80123 4.8698 0.000976562 13.5662 0.000976562C20.5364 0.000976562 25.9553 4.95408 25.9772 11.5798C25.9772 18.488 21.6071 24.0277 15.5327 24.0277C13.5007 24.0277 11.5778 22.9632 10.9224 21.7249C10.9224 21.7249 9.91718 25.5484 9.67684 26.4825C8.9995 29.0676 6.59597 32.6521 6.39932 32.9128C6.37746 32.9562 6.31192 32.9997 6.24637 32.9997C6.13711 32.9997 6.02786 32.9128 6.02786 32.8041C5.96231 32.4348 5.26311 28.1335 5.87491 25.4832C6.24637 23.9191 8.23474 15.5336 8.23474 15.5336C7.81959 14.5995 7.60108 13.5785 7.62293 12.5574C7.62293 9.77675 9.23985 7.69123 11.272 7.69123C12.9762 7.69123 13.8065 8.97295 13.8065 10.5154C13.8065 11.5773 13.3883 12.9635 12.9452 14.4322C12.6721 15.3372 12.3896 16.2735 12.1896 17.1846C11.7089 19.1615 13.1948 20.7908 15.1613 20.7908C18.7229 20.7908 21.476 17.0542 21.476 11.645C21.476 6.86571 18.0237 3.52025 13.0855 3.52025C7.36073 3.52025 3.99579 7.77813 3.99579 12.1881C3.99579 13.9043 4.6513 15.7509 5.48161 16.7502C5.61271 16.9239 5.67826 17.1411 5.61271 17.3367C5.53328 17.6639 5.40081 18.1844 5.28264 18.6487C5.17326 19.0785 5.07611 19.4602 5.0446 19.596C4.9572 19.9653 4.76055 20.0304 4.36725 19.8567C1.85447 18.6836 0.28125 15.034 0.28125 12.1012ZM68.8056 15.7067C70.204 15.7067 70.6848 16.5539 70.6848 17.5533C70.6848 19.2476 69.3738 20.2687 67.298 20.2687C66.4896 20.247 65.6811 20.1166 64.9163 19.8994C65.1785 18.3353 66.1836 15.7067 68.8056 15.7067ZM98.631 15.7067C99.8987 15.7067 100.51 16.5539 100.51 17.5533C100.51 19.2476 99.1993 20.2687 97.1232 20.2687C96.3147 20.247 95.5062 20.1166 94.7418 19.8994C95.0039 18.3353 96.1405 15.7067 98.631 15.7067ZM126.905 15.837H130.074C130.511 15.837 130.773 15.6633 130.861 15.2505C130.916 15.0371 130.983 14.7662 131.05 14.4955C131.168 14.0218 131.285 13.548 131.341 13.3822C131.428 13.0129 131.232 12.7522 130.817 12.7522H127.67C127.708 12.5974 127.767 12.3814 127.838 12.1205C128.173 10.8802 128.784 8.62198 128.784 7.06059C128.784 3.28058 125.551 0.0654249 120.962 0.0654249C115.784 0.0654249 112.419 3.51954 112.419 8.36394C112.441 9.81946 112.855 11.2315 113.621 12.4698C113.337 12.4481 113.052 12.4481 112.768 12.4481C108.835 12.4481 106.366 14.577 106.366 17.6619C106.366 20.5511 108.661 21.6807 110.824 22.4411C111.118 22.5441 111.409 22.6385 111.689 22.7298C113.247 23.2355 114.516 23.648 114.516 24.9176C114.516 25.917 113.555 26.5035 111.633 26.5035C109.381 26.5035 108.136 25.439 107.808 25.048C108.158 24.7439 108.355 24.2876 108.333 23.8097C108.333 22.8756 107.677 22.137 106.454 22.137C105.427 22.137 104.552 22.9625 104.334 24.0704C102.673 25.4173 100.882 26.2863 98.3258 26.2863C95.7904 26.2863 94.5016 24.9828 94.5016 22.2021C95.0919 22.3759 96.6429 22.5932 97.6484 22.5932C101.909 22.5932 104.815 20.6597 104.815 16.7929C104.815 14.7074 102.98 12.535 99.3524 12.535H99.3304C94.5667 12.535 91.8795 15.5329 90.7214 18.8566C90.5576 18.8132 90.3937 18.7752 90.2298 18.7372C90.0659 18.6991 89.9021 18.6611 89.7382 18.6176C90.0441 17.8139 90.197 16.945 90.197 16.0977C90.197 14.4684 89.1701 12.535 86.4607 12.535C84.5597 12.535 82.7679 13.7733 81.5225 15.6198C81.6617 15.0661 81.7829 14.6023 81.8736 14.2552C81.9821 13.8398 82.0469 13.5915 82.0469 13.556C82.1343 13.2302 82.0032 12.8826 81.5007 12.8826H78.7039C78.3105 12.8826 78.0265 13.0129 77.9172 13.4691C77.8517 13.7733 76.8902 17.5315 75.9507 21.1594C75.3607 23.4404 72.3236 26.2645 68.4997 26.2645C65.987 26.2645 64.6759 24.8742 64.6759 22.0935C65.3315 22.3542 66.7955 22.5714 67.8224 22.5714C72.258 22.5714 75.0111 20.638 75.0111 16.7712C75.0111 14.6857 73.1758 12.5133 69.5486 12.5133H69.5267C64.1515 12.5133 60.874 16.6626 60.3059 21.3766C60.0656 23.3318 58.405 26.0256 56.6133 26.0256C55.7392 26.0256 55.2367 25.4825 55.2367 24.5483C55.2367 23.9136 55.5909 22.5609 56.052 20.8005C56.1748 20.3317 56.3052 19.8336 56.4385 19.3128C56.5795 18.7799 56.757 18.0657 56.9592 17.2524C57.0702 16.8062 57.1886 16.3295 57.3125 15.837H60.2404C60.6774 15.837 60.9177 15.6633 61.027 15.2505C61.1581 14.6639 61.4202 13.6429 61.5077 13.3822C61.595 13.0129 61.3984 12.7522 60.9833 12.7522H58.099C58.099 12.7522 59.4101 7.5167 59.4538 7.36463C59.5849 6.82162 59.126 6.51748 58.6671 6.6261C58.6671 6.6261 56.4385 7.0605 56.0233 7.14739C55.6081 7.23429 55.2804 7.47325 55.1274 8.05981L53.9475 12.7739H51.6532C51.2162 12.7739 50.954 12.9477 50.8666 13.3605C50.8111 13.5735 50.744 13.8439 50.6769 14.1143L50.6766 14.1152C50.5591 14.5891 50.4415 15.0629 50.3859 15.2288C50.2985 15.5981 50.4952 15.8588 50.9103 15.8588H53.1609C53.139 15.9239 52.3524 18.9435 51.6969 21.659C51.391 22.9625 50.364 26.0256 48.7035 26.0256C47.6983 26.0256 47.2832 25.5259 47.2832 24.4397C47.2832 23.618 47.6788 22.1986 48.0864 20.7364C48.5193 19.1834 48.9656 17.582 48.9656 16.5974C48.9656 14.0339 47.5891 12.535 44.7486 12.535C42.9568 12.535 41.0996 13.6864 40.3129 14.6857C40.3129 14.6857 40.5533 13.8602 40.6407 13.5343C40.7281 13.2736 40.5752 12.9912 40.3129 12.9043C40.2474 12.8826 40.16 12.8826 40.0945 12.8826H37.3413C36.7513 12.8826 36.5984 13.2084 36.511 13.5343C36.4874 13.6047 36.1896 14.7781 35.7693 16.4347C35.4114 17.8448 34.9647 19.605 34.5226 21.3332C33.8672 23.9183 32.272 26.069 30.5678 26.069C29.6937 26.069 29.3004 25.5259 29.3004 24.5918C29.3004 23.8874 29.7031 22.2825 30.2143 20.2446L30.2147 20.243C30.2868 19.9556 30.3611 19.6596 30.4367 19.3563C30.8394 17.7774 31.2119 16.3492 31.4838 15.3063C31.7281 14.3695 31.8915 13.7434 31.9224 13.5995C32.0099 13.2302 31.8569 12.926 31.3762 12.926H28.5794C28.0768 12.926 27.8802 13.1867 27.7927 13.556C27.7927 13.556 27.0062 16.5105 26.1758 19.8125C26.1206 20.0282 26.0651 20.2442 26.0096 20.4596L26.0087 20.4633C25.4504 22.6333 24.9085 24.7397 24.9085 25.7866C24.9085 27.8287 25.8262 29.371 28.3609 29.371C30.3055 29.371 31.8569 28.3935 33.0368 27.1335C32.9985 27.2811 32.9633 27.4173 32.9316 27.5404C32.8184 27.9784 32.748 28.251 32.7309 28.2849C32.6216 28.6758 32.7527 29.0235 33.2116 29.0235H36.074C36.5765 29.0235 36.7513 28.8279 36.8606 28.3935C36.9699 27.959 39.0893 19.6387 39.0893 19.6387C39.6574 17.4012 41.0558 15.9022 43.0224 15.9022C43.9619 15.9022 44.7486 16.5105 44.6611 17.7053C44.618 18.2206 44.3459 19.269 44.0328 20.476C43.5538 22.3219 42.9787 24.5388 42.9787 25.7866C42.9787 27.3507 43.5686 29.371 46.5184 29.371C48.5287 29.371 50.0363 28.4152 51.107 27.1552C51.5003 28.4804 52.5491 29.371 54.4719 29.371C57.6621 29.371 59.5849 27.4811 60.721 25.5911C61.6607 27.7852 63.8675 29.371 67.0795 29.371C69.9637 29.3927 72.7387 28.2197 74.7052 26.1125C74.5494 26.7115 74.4183 27.2221 74.3213 27.6C74.2142 28.017 74.1486 28.2724 74.1371 28.3066C74.0279 28.6976 74.2027 29.0235 74.6834 29.0235H77.5021C77.8735 29.0452 78.2013 28.7844 78.2668 28.4152C78.2856 28.3313 78.3728 27.995 78.5112 27.4617C78.6951 26.7526 78.9696 25.6949 79.2938 24.418C80.4081 20.1601 82.178 15.7284 84.8437 15.7284C85.7833 15.7284 86.1766 16.2498 86.1766 17.0753C86.1766 17.3795 86.1111 17.7053 85.9581 17.9876C84.6689 17.727 83.6201 18.357 83.6201 19.7256C83.6201 20.6163 84.5816 21.4418 85.8489 21.4418C86.8322 21.4418 87.6405 21.2028 88.2742 20.7683C88.5041 20.8191 88.7439 20.8699 88.9897 20.922C89.3747 21.0035 89.7753 21.0883 90.1752 21.1811C90.0878 21.7894 90.0222 22.4194 90.0222 23.0494C90.0222 26.4818 92.6005 29.3927 97.0141 29.3927C100.467 29.3927 102.695 28.2414 104.772 26.5252C105.754 28.1328 108.246 29.4144 111.501 29.4144C115.958 29.4144 118.515 27.1118 118.515 24.0487C118.515 21.2897 116.22 20.2687 113.883 19.4214C113.649 19.3371 113.421 19.2575 113.199 19.1805C111.596 18.6222 110.365 18.1935 110.365 17.0102C110.365 15.9022 111.239 15.4026 112.724 15.4026C113.424 15.4026 114.145 15.5112 114.822 15.7284C115.216 16.6843 116.002 17.7487 117.357 17.7487C118.515 17.7487 119.018 16.8364 119.018 16.0108C119.018 15.0515 118.365 14.438 117.588 13.7082C116.448 12.6365 115.041 11.3139 115.041 8.27705C115.041 5.10542 116.855 2.49851 120.591 2.49851C123.191 2.49851 124.895 4.12783 124.895 6.77808C124.895 8.9505 123.562 12.8391 123.562 12.8391H121.312C120.875 12.8391 120.613 13.0129 120.525 13.4257C120.47 13.6387 120.403 13.9091 120.336 14.1795L120.335 14.1806C120.218 14.6542 120.1 15.1281 120.044 15.2939C119.957 15.6633 120.154 15.9239 120.569 15.9239H122.776C122.776 15.9239 120.504 24.2876 120.504 25.8083C120.504 27.8504 121.661 29.3927 124.196 29.3927C127.78 29.3927 130.03 27.0901 130.992 23.7228C131.057 23.549 130.992 23.3535 130.817 23.2666C130.773 23.2449 130.708 23.2449 130.664 23.2449H129.287C129.047 23.2449 128.828 23.4187 128.784 23.6576C128.478 24.8525 127.714 26.1125 126.206 26.1125C125.332 26.1125 124.829 25.5694 124.829 24.6352C124.829 23.9248 125.239 22.3829 125.802 20.2644C125.876 19.9859 125.953 19.6975 126.032 19.3997C126.359 18.0963 126.905 15.837 126.905 15.837ZM33.4717 8.49484C33.3625 9.97208 32.1389 11.1452 30.7186 11.1452C29.2983 11.1452 28.2277 9.95036 28.315 8.49484C28.4243 7.0176 29.6479 5.84449 31.0682 5.84449C32.4885 5.84449 33.5592 7.03932 33.4717 8.49484Z" fill="#B7BFC7"/>
</svg>
