<svg preserveAspectRatio="none" width="22" height="19" viewBox="0 0 22 19" fill="none" xmlns="http://www.w3.org/2000/svg">
<path vector-effect="non-scaling-stroke" d="M8.34644 10.8198C8.60901 10.8198 8.86082 10.9241 9.04648 11.1098C9.23214 11.2954 9.33644 11.5473 9.33644 11.8098V13.7898C9.33644 14.0524 9.23214 14.3042 9.04648 14.4899C8.86082 14.6755 8.60901 14.7798 8.34644 14.7798C8.08388 14.7798 7.83207 14.6755 7.64641 14.4899C7.46075 14.3042 7.35645 14.0524 7.35645 13.7898V11.8098C7.35645 11.5473 7.46075 11.2954 7.64641 11.1098C7.83207 10.9241 8.08388 10.8198 8.34644 10.8198ZM13.9564 11.8098C13.9564 11.5473 13.8521 11.2954 13.6665 11.1098C13.4808 10.9241 13.229 10.8198 12.9664 10.8198C12.7039 10.8198 12.4521 10.9241 12.2664 11.1098C12.0807 11.2954 11.9764 11.5473 11.9764 11.8098V13.7898C11.9764 14.0524 12.0807 14.3042 12.2664 14.4899C12.4521 14.6755 12.7039 14.7798 12.9664 14.7798C13.229 14.7798 13.4808 14.6755 13.6665 14.4899C13.8521 14.3042 13.9564 14.0524 13.9564 13.7898V11.8098Z" fill="#24292F"/>
<path vector-effect="non-scaling-stroke" fill-rule="evenodd" clip-rule="evenodd" d="M10.473 1.2763C10.539 1.3456 10.5995 1.4182 10.6567 1.493C10.7139 1.4182 10.7755 1.3456 10.8404 1.2763C11.7402 0.311596 13.1339 0.0882956 14.7256 0.266496C16.3503 0.446896 17.5581 0.962796 18.3226 1.9297C19.0684 2.8746 19.2367 4.0604 19.2367 5.2099C19.2367 5.9656 19.1663 6.7246 18.9012 7.3945L19.1223 8.50109L19.2103 8.5451C19.8131 8.84656 20.3201 9.3099 20.6745 9.88322C21.0288 10.4565 21.2166 11.1172 21.2167 11.7912V13.4599C21.2167 13.7767 21.1034 14.0385 21.011 14.2079C20.912 14.3894 20.7877 14.5533 20.67 14.6919C20.4246 14.9687 20.1571 15.2251 19.8703 15.4586C19.5997 15.6841 19.3324 15.8832 19.1355 16.0262C18.8198 16.2539 18.4964 16.464 18.1576 16.6587C17.7528 16.8919 17.1698 17.1999 16.4471 17.5057C15.0061 18.1173 12.9744 18.7399 10.6567 18.7399C8.33898 18.7399 6.30618 18.1173 4.86628 17.5068C4.27971 17.2589 3.70852 16.976 3.15578 16.6598C2.81871 16.4657 2.49193 16.2542 2.17678 16.0262C1.98098 15.8832 1.71368 15.6841 1.44308 15.4575C1.17798 15.2375 0.88208 14.9691 0.64448 14.6919C0.514406 14.5428 0.40013 14.3806 0.30348 14.2079C0.173158 13.9797 0.10206 13.7226 0.0966797 13.4599V11.7912C0.0967843 11.1172 0.284536 10.4565 0.638903 9.88322C0.99327 9.3099 1.50026 8.84656 2.10308 8.5451L2.19108 8.50109L2.41218 7.3945C2.14598 6.7235 2.07668 5.9645 2.07668 5.2099C2.07668 4.0604 2.24498 2.8746 2.99078 1.9297C3.75528 0.962796 4.96308 0.446896 6.58778 0.266496C8.17948 0.0893956 9.57318 0.310496 10.473 1.2763ZM4.08748 9.11599L4.05668 9.2678V14.8921L4.14358 14.9427C4.49118 15.1429 5.00158 15.4124 5.63958 15.6841C6.92218 16.2275 8.68438 16.7599 10.6567 16.7599C12.629 16.7599 14.3912 16.2275 15.6738 15.6841C16.2176 15.4539 16.7463 15.1893 17.2567 14.8921V9.2689L17.2259 9.1171C16.5791 9.3932 15.8069 9.5021 14.9467 9.5021C13.4331 9.5021 12.2286 9.0687 11.3695 8.1931C11.0863 7.90173 10.8462 7.57131 10.6567 7.2119C10.4671 7.57131 10.2271 7.90173 9.94388 8.1931C9.08588 9.0687 7.88028 9.5021 6.36668 9.5021C5.50538 9.5021 4.73428 9.3932 4.08748 9.1171V9.11599ZM9.02538 2.626C8.77018 2.3543 8.18388 2.0804 6.80558 2.2344C5.46028 2.384 4.85308 2.7679 4.54508 3.1584C4.21838 3.5709 4.05668 4.199 4.05668 5.2099C4.05668 6.2549 4.22718 6.7554 4.46368 7.0194C4.67818 7.2581 5.14898 7.5199 6.36668 7.5199C7.49308 7.5199 8.13438 7.2086 8.52928 6.806C8.94508 6.3814 9.22448 5.7159 9.34328 4.7578C9.49838 3.5225 9.29488 2.9142 9.02538 2.626ZM12.288 2.626C12.5432 2.3543 13.1295 2.0804 14.5078 2.2344C15.8531 2.384 16.4603 2.7679 16.7683 3.1584C17.095 3.5709 17.2567 4.199 17.2567 5.2099C17.2567 6.2549 17.0862 6.7554 16.8497 7.0194C16.6352 7.2581 16.1644 7.5199 14.9467 7.5199C13.8203 7.5199 13.179 7.2086 12.7841 6.806C12.3683 6.3814 12.0889 5.7159 11.969 4.7578C11.815 3.5225 12.0185 2.9142 12.288 2.626Z" fill="#24292F"/>
</svg>
