<svg preserveAspectRatio="none" width="22" height="20" viewBox="0 0 22 20" fill="none" xmlns="http://www.w3.org/2000/svg">
<path vector-effect="non-scaling-stroke" d="M8.34644 11.3203C8.60901 11.3203 8.86082 11.4246 9.04648 11.6103C9.23214 11.7959 9.33644 12.0477 9.33644 12.3103V14.2903C9.33644 14.5529 9.23214 14.8047 9.04648 14.9903C8.86082 15.176 8.60901 15.2803 8.34644 15.2803C8.08388 15.2803 7.83207 15.176 7.64641 14.9903C7.46075 14.8047 7.35645 14.5529 7.35645 14.2903V12.3103C7.35645 12.0477 7.46075 11.7959 7.64641 11.6103C7.83207 11.4246 8.08388 11.3203 8.34644 11.3203ZM13.9564 12.3103C13.9564 12.0477 13.8521 11.7959 13.6665 11.6103C13.4808 11.4246 13.229 11.3203 12.9664 11.3203C12.7039 11.3203 12.4521 11.4246 12.2664 11.6103C12.0807 11.7959 11.9764 12.0477 11.9764 12.3103V14.2903C11.9764 14.5529 12.0807 14.8047 12.2664 14.9903C12.4521 15.176 12.7039 15.2803 12.9664 15.2803C13.229 15.2803 13.4808 15.176 13.6665 14.9903C13.8521 14.8047 13.9564 14.5529 13.9564 14.2903V12.3103Z" fill="#24292F"/>
<path vector-effect="non-scaling-stroke" fill-rule="evenodd" clip-rule="evenodd" d="M10.473 1.77678C10.539 1.84608 10.5995 1.91868 10.6567 1.99348C10.7139 1.91868 10.7755 1.84608 10.8404 1.77678C11.7402 0.812084 13.1339 0.588784 14.7256 0.766984C16.3503 0.947384 17.5581 1.46328 18.3226 2.43018C19.0684 3.37508 19.2367 4.56088 19.2367 5.71038C19.2367 6.46608 19.1663 7.22508 18.9012 7.89498L19.1223 9.00158L19.2103 9.04558C19.8131 9.34704 20.3201 9.81038 20.6745 10.3837C21.0288 10.957 21.2166 11.6177 21.2167 12.2917V13.9604C21.2167 14.2772 21.1034 14.539 21.011 14.7084C20.912 14.8899 20.7877 15.0538 20.67 15.1924C20.4246 15.4692 20.1571 15.7256 19.8703 15.9591C19.5997 16.1846 19.3324 16.3837 19.1355 16.5267C18.8198 16.7544 18.4964 16.9645 18.1576 17.1592C17.7528 17.3924 17.1698 17.7004 16.4471 18.0062C15.0061 18.6178 12.9744 19.2404 10.6567 19.2404C8.33898 19.2404 6.30618 18.6178 4.86628 18.0073C4.27971 17.7594 3.70852 17.4765 3.15578 17.1603C2.81871 16.9662 2.49193 16.7547 2.17678 16.5267C1.98098 16.3837 1.71368 16.1846 1.44308 15.958C1.17798 15.738 0.88208 15.4696 0.64448 15.1924C0.514406 15.0433 0.40013 14.8811 0.30348 14.7084C0.173158 14.4802 0.10206 14.2231 0.0966797 13.9604V12.2917C0.0967843 11.6177 0.284536 10.957 0.638903 10.3837C0.99327 9.81038 1.50026 9.34704 2.10308 9.04558L2.19108 9.00158L2.41218 7.89498C2.14598 7.22398 2.07668 6.46498 2.07668 5.71038C2.07668 4.56088 2.24498 3.37508 2.99078 2.43018C3.75528 1.46328 4.96308 0.947384 6.58778 0.766984C8.17948 0.589884 9.57318 0.810984 10.473 1.77678ZM4.08748 9.61648L4.05668 9.76828V15.3926L4.14358 15.4432C4.49118 15.6434 5.00158 15.9129 5.63958 16.1846C6.92218 16.728 8.68438 17.2604 10.6567 17.2604C12.629 17.2604 14.3912 16.728 15.6738 16.1846C16.2176 15.9544 16.7463 15.6898 17.2567 15.3926V9.76938L17.2259 9.61758C16.5791 9.89368 15.8069 10.0026 14.9467 10.0026C13.4331 10.0026 12.2286 9.56918 11.3695 8.69358C11.0863 8.40222 10.8462 8.0718 10.6567 7.71238C10.4671 8.0718 10.2271 8.40222 9.94388 8.69358C9.08588 9.56918 7.88028 10.0026 6.36668 10.0026C5.50538 10.0026 4.73428 9.89368 4.08748 9.61758V9.61648ZM9.02538 3.12648C8.77018 2.85478 8.18388 2.58088 6.80558 2.73488C5.46028 2.88448 4.85308 3.26838 4.54508 3.65888C4.21838 4.07138 4.05668 4.69948 4.05668 5.71038C4.05668 6.75538 4.22718 7.25588 4.46368 7.51988C4.67818 7.75858 5.14898 8.02038 6.36668 8.02038C7.49308 8.02038 8.13438 7.70908 8.52928 7.30648C8.94508 6.88188 9.22448 6.21638 9.34328 5.25828C9.49838 4.02298 9.29488 3.41468 9.02538 3.12648ZM12.288 3.12648C12.5432 2.85478 13.1295 2.58088 14.5078 2.73488C15.8531 2.88448 16.4603 3.26838 16.7683 3.65888C17.095 4.07138 17.2567 4.69948 17.2567 5.71038C17.2567 6.75538 17.0862 7.25588 16.8497 7.51988C16.6352 7.75858 16.1644 8.02038 14.9467 8.02038C13.8203 8.02038 13.179 7.70908 12.7841 7.30648C12.3683 6.88188 12.0889 6.21638 11.969 5.25828C11.815 4.02298 12.0185 3.41468 12.288 3.12648Z" fill="#24292F"/>
</svg>
