<svg preserveAspectRatio="none" width="107" height="44" viewBox="0 0 107 44" fill="none" xmlns="http://www.w3.org/2000/svg">
<path vector-effect="non-scaling-stroke" d="M106.535 33.3316H100.967L101.887 29.6593H90.7095L89.7935 33.3316H84.3958V32.5775C84.4791 32.1628 84.5511 31.7292 84.6532 31.2654C85.6374 27.3066 88.2453 23.3931 92.761 23.3931C94.5476 23.3931 96.3228 24.0718 96.0806 26.5338H102.723C102.985 25.3838 103.424 23.4271 102.171 21.6324C100.755 19.6793 97.9013 18.8951 94.2032 18.8951C91.5536 18.8951 87.7193 19.3136 84.3958 21.4778V1.49508H106.535V33.3316ZM93.4689 38.7119C92.2421 38.946 90.997 39.0721 89.748 39.0889C86.5573 39.0889 84.3353 37.6109 84.29 34.1649H94.6007L93.4689 38.7119ZM80.7128 20.5314V25.0935C79.335 26.9894 78.3342 29.1305 77.7643 31.4012C77.5972 32.0346 77.4795 32.6801 77.4123 33.3316H74.1608L76.9392 20.1884H67.5823L59.1944 33.3316H58.5737V1.50262H80.7016L80.7128 20.5314ZM68.3545 33.3316H65.0274L70.0653 25.4366L68.3545 33.3316ZM54.9209 20.1581H49.3834L45.5983 33.3316H39.7085C42.7027 32.2307 44.5232 30.123 45.0872 27.0012C45.549 24.5732 45.3296 22.9746 44.3303 21.7794C42.8388 19.9997 39.8486 20.1506 37.1914 20.1506H32.8007V1.50262H54.9134L54.9209 20.1581ZM51.382 33.3316L53.7134 25.0935L53.7931 33.3316H51.382ZM35.2762 30.1985C35.0604 30.1985 34.8447 30.2286 34.5985 30.2286C34.273 30.2286 34.0232 30.2286 33.7849 30.2286H32.3692L33.0239 27.8157L33.3305 26.6205L34.0876 23.8153H35.0453H36.143C38.0128 23.8153 39.1975 23.9209 39.6291 24.5204C39.9583 24.969 39.9167 25.7495 39.527 26.9295C38.8608 28.9693 38.0128 30.0024 35.2912 30.2097M29.1215 21.327L28.777 22.458L25.6089 32.9621L25.484 33.3391H15.0672L14.2535 31.6086L25.484 20.1884H18.2694L9.48798 29.6141L12.3306 20.1884H7.00871V1.50262H29.1215V21.327ZM83.5557 0.654297V22.0734C82.8337 22.645 82.1683 23.2837 81.5683 23.9812V0.654297H57.7486V20.1581H55.7764V0.654297H31.9528V20.1884H29.9806V0.654297H6.15707V22.9369L0.078125 43.108H5.42653L8.1102 34.1686H8.86722L13.3148 43.108H19.776L15.4723 34.1686H25.2342L22.5278 43.108H28.3683L31.0405 34.1911H32.3237V34.1686H45.3257L42.748 43.0817H48.6378L51.1358 34.1686H53.7855L53.8575 43.0817H58.8008L64.4785 34.1686H68.1916L66.2765 43.0817H72.0753L73.9678 34.1686H77.3216C77.189 36.9322 77.8969 39.4471 79.7363 41.1286C81.9847 43.1873 85.4367 43.5793 87.9919 43.5793C91.619 43.5358 95.2303 43.0945 98.7606 42.2635L100.77 34.1686H107.391V0.654297H83.5557Z" fill="#B7BFC7"/>
</svg>
