<svg preserveAspectRatio="none" width="24" height="20" viewBox="0 0 24 20" fill="none" xmlns="http://www.w3.org/2000/svg">
<path vector-effect="non-scaling-stroke" fill-rule="evenodd" clip-rule="evenodd" d="M19.4803 0.232422C21.9718 0.232422 23.999 2.2395 23.999 4.70537L24.0001 7.60101C24.0001 7.82203 23.9119 8.03636 23.7545 8.19264C23.5982 8.35003 23.385 8.43822 23.1629 8.43822C22.2844 8.43822 21.5699 9.13924 21.5699 10.001C21.5699 10.8628 22.2844 11.5638 23.1629 11.5638C23.625 11.5638 24.0001 11.9389 24.0001 12.401V15.2944C24.0001 17.7603 21.9729 19.7674 19.4814 19.7674H4.51871C2.02717 19.7674 0 17.7603 0 15.2944V12.401C0 11.9389 0.375071 11.5638 0.837212 11.5638C1.71573 11.5638 2.43015 10.8628 2.43015 10.001C2.43015 9.1638 1.74475 8.53199 0.837212 8.53199C0.615072 8.53199 0.401862 8.4438 0.245582 8.2864C0.0881863 8.13012 0 7.9158 0 7.69477L0.00111628 4.70537C0.00111628 2.2395 2.02829 0.232422 4.51983 0.232422H19.4803ZM19.4803 1.90685H14.9013L14.9019 4.05145C14.9019 4.51359 14.5269 4.88866 14.0647 4.88866C13.6026 4.88866 13.2275 4.51359 13.2275 4.05145L13.2268 1.90685H4.51983C2.95145 1.90685 1.67554 3.16266 1.67554 4.70537L1.67442 6.95803C3.08875 7.30519 4.10457 8.51747 4.10457 10.001C4.10457 11.4991 3.07089 12.7627 1.67442 13.13V15.2944C1.67442 16.8371 2.95034 18.0929 4.51871 18.0929H13.2268L13.2275 16.4314C13.2275 15.9681 13.6026 15.5941 14.0647 15.5941C14.5269 15.5941 14.9019 15.9681 14.9019 16.4314L14.9013 18.0929H19.4814C21.0497 18.0929 22.3257 16.8371 22.3257 15.2944V13.13C20.9292 12.7627 19.8955 11.4991 19.8955 10.001C19.8955 8.50185 20.9281 7.23933 22.3257 6.87207L22.3245 4.70537C22.3245 3.16266 21.0486 1.90685 19.4803 1.90685ZM14.0647 6.377C14.5269 6.377 14.9019 6.75207 14.9019 7.21421V12.5958C14.9019 13.058 14.5269 13.433 14.0647 13.433C13.6026 13.433 13.2275 13.058 13.2275 12.5958V7.21421C13.2275 6.75207 13.6026 6.377 14.0647 6.377Z" fill="#00A4FF"/>
</svg>
