<svg preserveAspectRatio="none" width="21" height="12" viewBox="0 0 21 12" fill="none" xmlns="http://www.w3.org/2000/svg">
<path vector-effect="non-scaling-stroke" d="M0.514465 12V0H4.49159C5.32016 0 6.09444 0.157142 6.81444 0.471427C7.54015 0.779997 8.17729 1.21142 8.72586 1.76571C9.28014 2.31428 9.71157 2.95142 10.0201 3.67713C10.3344 4.39713 10.4916 5.17141 10.4916 5.99998C10.4916 6.82854 10.3344 7.60568 10.0201 8.3314C9.71157 9.05139 9.28014 9.68853 8.72586 10.2428C8.17729 10.7914 7.54015 11.2228 6.81444 11.5371C6.09444 11.8457 5.32016 12 4.49159 12H0.514465Z" fill="white"/>
<path vector-effect="non-scaling-stroke" d="M14.9762 12C13.9288 12 12.9724 11.7305 12.1071 11.1916C11.2495 10.6528 10.5625 9.92789 10.0464 9.01708C9.53788 8.10626 9.28361 7.10057 9.28361 6C9.28361 5.17267 9.43162 4.39848 9.72763 3.67742C10.0236 2.94877 10.4297 2.3112 10.9458 1.76471C11.4696 1.21063 12.0768 0.777988 12.7675 0.466793C13.4582 0.155598 14.1944 0 14.9762 0C15.8643 0 16.6764 0.189754 17.4126 0.56926C18.1565 0.941177 18.7865 1.45351 19.3026 2.10626C19.8187 2.75901 20.1944 3.50285 20.4297 4.33776C20.665 5.17268 20.7181 6.04554 20.5891 6.95636H12.2665C12.3728 7.3814 12.5474 7.76471 12.7902 8.10626C13.0331 8.44023 13.3405 8.70968 13.7124 8.91461C14.0844 9.11195 14.5056 9.21442 14.9762 9.22201C15.462 9.2296 15.9022 9.11575 16.2969 8.88046C16.6992 8.63757 17.0331 8.3112 17.2988 7.90133L20.1337 8.56167C19.6707 9.57116 18.98 10.3985 18.0616 11.0436C17.1432 11.6812 16.1147 12 14.9762 12ZM12.1754 4.87286H17.777C17.6935 4.41746 17.5151 4.00759 17.2419 3.64326C16.9762 3.27135 16.646 2.97533 16.2513 2.75522C15.8567 2.5351 15.4316 2.42505 14.9762 2.42505C14.5208 2.42505 14.0995 2.5351 13.7124 2.75522C13.3254 2.96774 12.9952 3.25996 12.7219 3.63188C12.4563 3.9962 12.2741 4.40987 12.1754 4.87286Z" fill="white"/>
</svg>
