<svg preserveAspectRatio="none" width="193" height="25" viewBox="0 0 193 25" fill="none" xmlns="http://www.w3.org/2000/svg">
<path vector-effect="non-scaling-stroke" d="M3.21907 11.8262C4.95996 11.8262 6.06231 10.9585 6.06231 9.58878V3.59132H4.75804V4.54634H4.66528C4.33781 3.8969 3.6284 3.49307 2.81523 3.49307C1.29275 3.49307 0.348633 4.68278 0.348633 6.51093C0.348633 8.30081 1.28725 9.46864 2.79344 9.46864C3.6229 9.46864 4.27234 9.11938 4.6161 8.47544H4.70886V9.61058C4.70886 10.3691 4.16868 10.8166 3.24095 10.8166C2.49876 10.8166 2.01855 10.5492 1.93119 10.129H0.572344C0.681499 11.155 1.68559 11.8262 3.21907 11.8262ZM3.21907 8.39367C2.27505 8.39367 1.74017 7.66237 1.74017 6.50544C1.74017 5.35401 2.27505 4.62271 3.21907 4.62271C4.15769 4.62271 4.73075 5.35401 4.73075 6.51093C4.73075 7.66237 4.16318 8.39367 3.21907 8.39367ZM9.36927 9.65426C10.1497 9.65426 10.8046 9.3159 11.1374 8.73743H11.2302V9.556H12.5345V5.47946C12.5345 4.21887 11.6722 3.47677 10.1388 3.47677C8.71993 3.47677 7.73213 4.1425 7.62298 5.18478H8.89996C9.02551 4.77554 9.45114 4.55183 10.0733 4.55183C10.8046 4.55183 11.1974 4.8847 11.1974 5.47946V5.99245L9.65855 6.08521C8.20694 6.16708 7.39387 6.79472 7.39387 7.86429C7.39387 8.95574 8.21784 9.65426 9.36927 9.65426ZM9.7677 8.61189C9.16735 8.61189 8.73632 8.3118 8.73632 7.79881C8.73632 7.30221 9.09098 7.02383 9.84957 6.97475L11.1974 6.88199V7.36769C11.1974 8.0771 10.5863 8.61189 9.7677 8.61189ZM14.5972 2.12882V3.62951H13.6532V4.68278H14.5972V7.97344C14.5972 9.12488 15.143 9.58329 16.5128 9.58329C16.7747 9.58329 17.0258 9.5615 17.2222 9.52322V8.48643C17.0584 8.50273 16.9548 8.51372 16.7638 8.51372C16.1962 8.51372 15.9452 8.24633 15.9452 7.65147V4.68278H17.2222V3.62951H15.9452V2.12882H14.5972ZM18.3627 5.29393C18.3627 6.18897 18.903 6.71285 20.0489 6.97475L21.1077 7.22035C21.6752 7.3513 21.9317 7.56961 21.9317 7.90797C21.9317 8.36089 21.457 8.67196 20.7747 8.67196C20.0981 8.67196 19.6779 8.39907 19.5469 7.95705H18.2099C18.3136 9.03211 19.2522 9.67605 20.742 9.67605C22.2318 9.67605 23.2851 8.91756 23.2851 7.77693C23.2851 6.89838 22.7557 6.41268 21.6152 6.15078L20.5619 5.91608C19.9617 5.77423 19.6779 5.56133 19.6779 5.22306C19.6779 4.78094 20.1418 4.48086 20.7584 4.48086C21.3914 4.48086 21.7898 4.75375 21.8881 5.17388H23.1596C23.0613 4.09882 22.1718 3.47677 20.7529 3.47677C19.345 3.47677 18.3627 4.22437 18.3627 5.29393ZM27.9728 9.65426C29.4789 9.65426 30.423 8.47004 30.423 6.57641C30.423 4.67188 29.4844 3.49307 27.9728 3.49307C27.1542 3.49307 26.4666 3.8915 26.1555 4.54084H26.0628V1.28296H24.7094V9.556H26.0136V8.61189H26.1065C26.4447 9.26681 27.1378 9.65426 27.9728 9.65426ZM27.5471 4.62271C28.4694 4.62271 29.0315 5.35941 29.0315 6.57641C29.0315 7.79332 28.4748 8.53002 27.5471 8.53002C26.6194 8.53002 26.0409 7.78242 26.0409 6.57641C26.0409 5.3704 26.6249 4.62271 27.5471 4.62271ZM32.1966 11.717C33.5336 11.717 34.1721 11.2313 34.6796 9.76341L36.8352 3.59132H35.4054L34.0138 8.27352H33.9211L32.5241 3.59132H31.0397L33.1734 9.57779L33.1025 9.85618C32.9279 10.4182 32.6059 10.6366 32.0329 10.6366C31.9401 10.6366 31.7382 10.6311 31.6618 10.6202V11.6952C31.7491 11.7116 32.1147 11.717 32.1966 11.717ZM41.4847 7.00204V5.76324H37.8994V7.00204H41.4847ZM46.5271 9.65426C48.0333 9.65426 48.9774 8.47004 48.9774 6.57641C48.9774 4.67188 48.0388 3.49307 46.5271 3.49307C45.7085 3.49307 45.0209 3.8915 44.7099 4.54084H44.6171V1.28296H43.2637V9.556H44.568V8.61189H44.6607C44.9991 9.26681 45.6921 9.65426 46.5271 9.65426ZM46.1014 4.62271C47.0237 4.62271 47.5857 5.35941 47.5857 6.57641C47.5857 7.79332 47.0292 8.53002 46.1014 8.53002C45.1737 8.53002 44.5953 7.78242 44.5953 6.57641C44.5953 5.3704 45.1792 4.62271 46.1014 4.62271ZM55.5314 3.59132H54.1781V7.06751C54.1781 7.96795 53.6978 8.51372 52.8192 8.51372C52.0115 8.51372 51.635 8.06621 51.635 7.13848V3.59132H50.2816V7.46595C50.2816 8.86298 51.0456 9.67605 52.3499 9.67605C53.2612 9.67605 53.8452 9.28861 54.1344 8.60648H54.2271V9.556H55.5314V3.59132ZM57.878 2.59263C58.3255 2.59263 58.6911 2.23797 58.6911 1.79046C58.6911 1.34844 58.3255 0.988281 57.878 0.988281C57.4359 0.988281 57.0703 1.34844 57.0703 1.79046C57.0703 2.23797 57.4359 2.59263 57.878 2.59263ZM57.2067 9.556H58.5547V3.59132H57.2067V9.556ZM60.2901 9.556H61.6434V1.28296H60.2901V9.556ZM65.518 9.65426C66.3475 9.65426 67.0351 9.26681 67.3734 8.61189H67.4663V9.556H68.7759V1.28296H67.4226V4.54084H67.3298C67.0132 3.88601 66.3366 3.49307 65.518 3.49307C64.0119 3.49307 63.0622 4.68278 63.0622 6.57092C63.0622 8.46455 64.0064 9.65426 65.518 9.65426ZM65.9382 4.62271C66.8659 4.62271 67.439 5.3704 67.439 6.57641C67.439 7.78792 66.8714 8.53002 65.9382 8.53002C65.0105 8.53002 64.4484 7.79881 64.4484 6.57641C64.4484 5.35941 65.0159 4.62271 65.9382 4.62271ZM74.1293 7.00204V5.76324H70.544V7.00204H74.1293ZM78.0149 9.65426C78.8444 9.65426 79.532 9.26681 79.8703 8.61189H79.9632V9.556H81.2727V1.28296H79.9194V4.54084H79.8266C79.5102 3.88601 78.8334 3.49307 78.0149 3.49307C76.5087 3.49307 75.5592 4.68278 75.5592 6.57092C75.5592 8.46455 76.5033 9.65426 78.0149 9.65426ZM78.4351 4.62271C79.3628 4.62271 79.9362 5.3704 79.9362 6.57641C79.9362 7.78792 79.3682 8.53002 78.4351 8.53002C77.5074 8.53002 76.9453 7.79881 76.9453 6.57641C76.9453 5.35941 77.5129 4.62271 78.4351 4.62271ZM86.872 7.92427C86.6754 8.37178 86.2116 8.62278 85.5401 8.62278C84.6507 8.62278 84.0779 7.98983 84.0453 6.98025V6.90928H88.214V6.47815C88.214 4.60631 87.1942 3.47677 85.4908 3.47677C83.7612 3.47677 82.6865 4.68278 82.6865 6.5982C82.6865 8.50823 83.7445 9.67605 85.5019 9.67605C86.9101 9.67605 87.9086 8.99933 88.1544 7.92427H86.872ZM85.4861 4.52994C86.2992 4.52994 86.8338 5.10301 86.8608 6.00884H84.0509C84.1105 5.1139 84.6777 4.52994 85.4861 4.52994ZM92.8252 3.49307C92.0075 3.49307 91.3136 3.9024 90.9699 4.57903H90.8777V3.59132H89.5729V11.537H90.9262V8.65007H91.0193C91.3248 9.28311 91.9851 9.65426 92.8419 9.65426C94.3479 9.65426 95.2868 8.47004 95.2868 6.57641C95.2868 4.66639 94.3377 3.49307 92.8252 3.49307ZM92.3996 8.53002C91.4775 8.53002 90.9047 7.78242 90.8991 6.57641C90.9047 5.3704 91.4831 4.62271 92.4051 4.62271C93.3328 4.62271 93.8953 5.35401 93.8953 6.57641C93.8953 7.79881 93.3384 8.53002 92.3996 8.53002ZM96.7005 9.556H98.0538V1.28296H96.7005V9.556ZM102.343 9.67605C104.127 9.67605 105.213 8.50823 105.213 6.57092C105.213 4.64459 104.122 3.47677 102.343 3.47677C100.569 3.47677 99.4723 4.65 99.4723 6.57092C99.4723 8.50823 100.553 9.67605 102.343 9.67605ZM102.343 8.5683C101.399 8.5683 100.858 7.837 100.858 6.57641C100.858 5.31582 101.399 4.58452 102.343 4.58452C103.281 4.58452 103.822 5.31582 103.822 6.57641C103.822 7.837 103.287 8.5683 102.343 8.5683ZM106.992 11.717C108.329 11.717 108.968 11.2313 109.475 9.76341L111.631 3.59132H110.201L108.81 8.27352H108.717L107.32 3.59132H105.835L107.969 9.57779L107.898 9.85618C107.724 10.4182 107.402 10.6366 106.829 10.6366C106.736 10.6366 106.534 10.6311 106.457 10.6202V11.6952C106.545 11.7116 106.911 11.717 106.992 11.717ZM116.28 7.00204V5.76324H112.695V7.00204H116.28ZM119.647 9.65426C120.428 9.65426 121.082 9.3159 121.416 8.73743H121.508V9.556H122.813V5.47946C122.813 4.21887 121.951 3.47677 120.417 3.47677C118.998 3.47677 118.01 4.1425 117.901 5.18478H119.178C119.304 4.77554 119.729 4.55183 120.351 4.55183C121.082 4.55183 121.476 4.8847 121.476 5.47946V5.99245L119.937 6.08521C118.485 6.16708 117.672 6.79472 117.672 7.86429C117.672 8.95574 118.496 9.65426 119.647 9.65426ZM120.046 8.61189C119.446 8.61189 119.015 8.3118 119.015 7.79881C119.015 7.30221 119.369 7.02383 120.128 6.97475L121.476 6.88199V7.36769C121.476 8.0771 120.865 8.61189 120.046 8.61189ZM126.605 9.65426C127.435 9.65426 128.123 9.26681 128.461 8.61189H128.554V9.556H129.863V1.28296H128.51V4.54084H128.417C128.1 3.88601 127.424 3.49307 126.605 3.49307C125.099 3.49307 124.149 4.68278 124.149 6.57092C124.149 8.46455 125.094 9.65426 126.605 9.65426ZM127.025 4.62271C127.953 4.62271 128.527 5.3704 128.527 6.57641C128.527 7.78792 127.959 8.53002 127.025 8.53002C126.098 8.53002 125.536 7.79881 125.536 6.57641C125.536 5.35941 126.103 4.62271 127.025 4.62271ZM136.778 3.59132H135.348L133.978 8.22994H133.885L132.505 3.59132H131.053L133.176 9.556H134.665L136.778 3.59132ZM139.358 9.65426C140.139 9.65426 140.794 9.3159 141.127 8.73743H141.219V9.556H142.524V5.47946C142.524 4.21887 141.662 3.47677 140.129 3.47677C138.709 3.47677 137.722 4.1425 137.612 5.18478H138.889C139.015 4.77554 139.44 4.55183 140.063 4.55183C140.794 4.55183 141.187 4.8847 141.187 5.47946V5.99245L139.648 6.08521C138.196 6.16708 137.383 6.79472 137.383 7.86429C137.383 8.95574 138.207 9.65426 139.358 9.65426ZM139.757 8.61189C139.157 8.61189 138.726 8.3118 138.726 7.79881C138.726 7.30221 139.081 7.02383 139.839 6.97475L141.187 6.88199V7.36769C141.187 8.0771 140.576 8.61189 139.757 8.61189ZM144.156 9.556H145.509V6.07981C145.509 5.18478 146.017 4.62271 146.824 4.62271C147.648 4.62271 148.03 5.08661 148.03 6.01434V9.556H149.384V5.69777C149.384 4.27894 148.658 3.47677 147.326 3.47677C146.437 3.47677 145.836 3.88051 145.553 4.54634H145.46V3.59132H144.156V9.556ZM156.145 5.58321C156.003 4.34991 155.075 3.47677 153.542 3.47677C151.746 3.47677 150.693 4.6282 150.693 6.56002C150.693 8.51372 151.752 9.67605 153.548 9.67605C155.059 9.67605 155.998 8.83569 156.145 7.6023H154.857C154.716 8.22994 154.246 8.5628 153.542 8.5628C152.62 8.5628 152.063 7.8261 152.063 6.56002C152.063 5.31582 152.614 4.58452 153.542 4.58452C154.284 4.58452 154.731 5.00475 154.857 5.58321H156.145ZM161.329 7.92427C161.133 8.37178 160.669 8.62278 159.998 8.62278C159.108 8.62278 158.535 7.98983 158.502 6.98025V6.90928H162.672V6.47815C162.672 4.60631 161.651 3.47677 159.949 3.47677C158.218 3.47677 157.144 4.68278 157.144 6.5982C157.144 8.50823 158.203 9.67605 159.96 9.67605C161.367 9.67605 162.366 8.99933 162.612 7.92427H161.329ZM159.943 4.52994C160.756 4.52994 161.291 5.10301 161.318 6.00884H158.508C158.568 5.1139 159.136 4.52994 159.943 4.52994ZM166.192 9.65426C167.022 9.65426 167.709 9.26681 168.047 8.61189H168.14V9.556H169.45V1.28296H168.096V4.54084H168.003C167.687 3.88601 167.01 3.49307 166.192 3.49307C164.686 3.49307 163.736 4.68278 163.736 6.57092C163.736 8.46455 164.68 9.65426 166.192 9.65426ZM166.612 4.62271C167.539 4.62271 168.112 5.3704 168.112 6.57641C168.112 7.78792 167.545 8.53002 166.612 8.53002C165.684 8.53002 165.122 7.79881 165.122 6.57641C165.122 5.35941 165.69 4.62271 166.612 4.62271ZM172.167 9.66516C172.686 9.66516 173.04 9.29951 173.04 8.8138C173.04 8.3336 172.686 7.96795 172.167 7.96795C171.654 7.96795 171.294 8.3336 171.294 8.8138C171.294 9.29951 171.654 9.66516 172.167 9.66516ZM174.705 11.717C176.042 11.717 176.681 11.2313 177.188 9.76341L179.343 3.59132H177.914L176.522 8.27352H176.429L175.032 3.59132H173.548L175.681 9.57779L175.611 9.85618C175.436 10.4182 175.114 10.6366 174.541 10.6366C174.448 10.6366 174.246 10.6311 174.17 10.6202V11.6952C174.257 11.7116 174.623 11.717 174.705 11.717ZM180.511 9.556H181.865V5.92698C181.865 5.18478 182.361 4.62271 183.032 4.62271C183.698 4.62271 184.113 5.02654 184.113 5.68687V9.556H185.428V5.82872C185.428 5.14659 185.892 4.62271 186.596 4.62271C187.321 4.62271 187.687 5.01015 187.687 5.78513V9.556H189.035V5.45226C189.035 4.21347 188.315 3.47677 187.12 3.47677C186.29 3.47677 185.603 3.9024 185.308 4.55183H185.216C184.964 3.8915 184.391 3.47677 183.567 3.47677C182.776 3.47677 182.164 3.88051 181.908 4.55183H181.815V3.59132H180.511V9.556ZM190.695 9.556H192.048V1.28296H190.695V9.556Z" fill="#D1D5DA"/>
<path vector-effect="non-scaling-stroke" d="M2.4731 22.8569C3.8692 22.8569 4.73322 21.8929 4.73322 20.3194C4.73322 18.7414 3.8692 17.7818 2.4731 17.7818C1.07691 17.7818 0.212891 18.7414 0.212891 20.3194C0.212891 21.8929 1.07691 22.8569 2.4731 22.8569ZM2.4731 22.1521C1.54538 22.1521 1.02233 21.4791 1.02233 20.3194C1.02233 19.1552 1.54538 18.4867 2.4731 18.4867C3.40082 18.4867 3.92378 19.1552 3.92378 20.3194C3.92378 21.4791 3.40082 22.1521 2.4731 22.1521ZM5.96112 22.7706H6.74327V19.8691C6.74327 19.0097 7.24807 18.4867 8.03031 18.4867C8.81246 18.4867 9.18538 18.9051 9.18538 19.7874V22.7706H9.96753V19.5963C9.96753 18.4322 9.35367 17.7818 8.25309 17.7818C7.50279 17.7818 7.02529 18.1001 6.77969 18.6413H6.70695V17.8682H5.96112V22.7706ZM12.0458 19.2962C12.3732 19.2962 12.637 19.0279 12.637 18.705C12.637 18.3776 12.3732 18.1138 12.0458 18.1138C11.7229 18.1138 11.4546 18.3776 11.4546 18.705C11.4546 19.0279 11.7229 19.2962 12.0458 19.2962ZM12.0458 22.816C12.3732 22.816 12.637 22.5477 12.637 22.2248C12.637 21.8974 12.3732 21.6337 12.0458 21.6337C11.7229 21.6337 11.4546 21.8974 11.4546 22.2248C11.4546 22.5477 11.7229 22.816 12.0458 22.816ZM19.181 17.7818C18.5125 17.7818 17.926 18.1229 17.6121 18.6868H17.5394V17.8682H16.7935V24.4077H17.5758V22.0339H17.6485C17.9168 22.5523 18.4808 22.8569 19.181 22.8569C20.4271 22.8569 21.2411 21.8519 21.2411 20.3194C21.2411 18.7778 20.4317 17.7818 19.181 17.7818ZM18.9946 22.1521C18.1124 22.1521 17.553 21.4427 17.553 20.3194C17.553 19.1916 18.1124 18.4867 18.9992 18.4867C19.895 18.4867 20.4317 19.1734 20.4317 20.3194C20.4317 21.4654 19.895 22.1521 18.9946 22.1521ZM26.4345 17.8682H25.6524V20.7696C25.6524 21.6291 25.1793 22.143 24.3153 22.143C23.5332 22.143 23.2057 21.7337 23.2057 20.8514V17.8682H22.4236V21.0425C22.4236 22.2021 22.9965 22.8569 24.097 22.8569C24.8474 22.8569 25.3704 22.5477 25.616 22.002H25.6887V22.7706H26.4345V17.8682ZM27.7943 19.2097C27.7943 19.9193 28.2127 20.3149 29.1313 20.5377L29.9726 20.7423C30.4956 20.8697 30.7502 21.097 30.7502 21.4335C30.7502 21.8838 30.2773 22.1975 29.6179 22.1975C28.9903 22.1975 28.5992 21.9338 28.4673 21.52H27.6624C27.7488 22.334 28.4992 22.8569 29.5906 22.8569C30.7048 22.8569 31.5551 22.2521 31.5551 21.3745C31.5551 20.6695 31.1095 20.2693 30.1863 20.0466L29.4314 19.8647C28.8539 19.7237 28.581 19.5145 28.581 19.178C28.581 18.7414 29.0358 18.4458 29.6179 18.4458C30.209 18.4458 30.5911 18.7049 30.6957 19.0961H31.4688C31.3642 18.2911 30.6502 17.7818 29.6225 17.7818C28.581 17.7818 27.7943 18.3957 27.7943 19.2097ZM32.8285 22.7706H33.6107V19.8691C33.6107 19.0415 34.0928 18.4867 34.9704 18.4867C35.7117 18.4867 36.1028 18.9187 36.1028 19.7874V22.7706H36.885V19.5963C36.885 18.4458 36.2302 17.7818 35.1933 17.7818C34.4429 17.7818 33.9291 18.1001 33.6835 18.6413H33.6107V15.9219H32.8285V22.7706Z" fill="#D1D5DA"/>
</svg>
