<svg preserveAspectRatio="none" width="102" height="69" viewBox="0 0 102 69" fill="none" xmlns="http://www.w3.org/2000/svg">
<path vector-effect="non-scaling-stroke" d="M54.0842 36.6664C54.4372 34.7964 56.2402 33.5624 58.1112 33.9074C59.9812 34.2534 61.2112 36.0494 60.8582 37.9184L56.1972 62.5714C55.8442 64.4404 54.0412 65.6754 52.1712 65.3294C50.3002 64.9844 49.0702 63.1884 49.4232 61.3194L54.0842 36.6664Z" fill="#A259FF"/>
<path vector-effect="non-scaling-stroke" d="M114.911 20.6321C116.473 20.9031 117.524 22.3901 117.26 23.9531L117.068 25.0851C116.803 26.6481 115.322 27.6951 113.76 27.4241L-0.0879984 7.65111C-1.6498 7.37911 -2.7011 5.89211 -2.4362 4.33011L-2.2443 3.19811C-1.9794 1.63511 -0.4985 0.588113 1.0633 0.859113L114.911 20.6321Z" fill="#A259FF"/>
<path vector-effect="non-scaling-stroke" d="M73.2439 40.1286C73.5969 38.2596 75.3999 37.0246 77.2699 37.3706C79.1409 37.7166 80.3709 39.5126 80.0169 41.3816L75.3569 66.0346C75.0039 67.9036 73.2009 69.1386 71.3299 68.7926C69.4599 68.4476 68.2299 66.6516 68.5829 64.7826L73.2439 40.1286Z" fill="#A259FF"/>
<path vector-effect="non-scaling-stroke" d="M34.927 33.2035C35.28 31.3345 37.083 30.0995 38.953 30.4445C40.824 30.7905 42.054 32.5865 41.7 34.4555L37.04 59.1085C36.687 60.9775 34.884 62.2125 33.013 61.8675C31.143 61.5215 29.9129 59.7255 30.266 57.8565L34.927 33.2035Z" fill="#A259FF"/>
<path vector-effect="non-scaling-stroke" d="M15.5481 29.7875C15.9015 27.9185 17.7043 26.6835 19.5748 27.0285C21.4453 27.3745 22.6753 29.1705 22.3219 31.0395L17.6615 55.6925C17.3082 57.5615 15.5054 58.7965 13.6348 58.4515C11.7643 58.1055 10.5343 56.3095 10.8877 54.4405L15.5481 29.7875Z" fill="#A259FF"/>
</svg>
