<svg preserveAspectRatio="none" width="21" height="12" viewBox="0 0 21 12" fill="none" xmlns="http://www.w3.org/2000/svg">
<path vector-effect="non-scaling-stroke" d="M0.514648 12V0H4.49178C5.32034 0 6.09463 0.157142 6.81462 0.471427C7.54033 0.779997 8.17747 1.21142 8.72604 1.76571C9.28033 2.31428 9.71175 2.95142 10.0203 3.67713C10.3346 4.39713 10.4918 5.17141 10.4918 5.99998C10.4918 6.82854 10.3346 7.60568 10.0203 8.3314C9.71175 9.05139 9.28033 9.68853 8.72604 10.2428C8.17747 10.7914 7.54033 11.2228 6.81462 11.5371C6.09463 11.8457 5.32034 12 4.49178 12H0.514648Z" fill="white"/>
<path vector-effect="non-scaling-stroke" d="M14.9763 12C13.9289 12 12.9725 11.7305 12.1072 11.1916C11.2495 10.6528 10.5626 9.92789 10.0465 9.01708C9.53796 8.10626 9.28369 7.10057 9.28369 6C9.28369 5.17267 9.4317 4.39848 9.72771 3.67742C10.0237 2.94877 10.4298 2.3112 10.9459 1.76471C11.4696 1.21063 12.0769 0.777988 12.7676 0.466793C13.4583 0.155598 14.1945 0 14.9763 0C15.8643 0 16.6765 0.189754 17.4127 0.56926C18.1566 0.941177 18.7865 1.45351 19.3027 2.10626C19.8188 2.75901 20.1945 3.50285 20.4298 4.33776C20.6651 5.17268 20.7182 6.04554 20.5892 6.95636H12.2666C12.3729 7.3814 12.5474 7.76471 12.7903 8.10626C13.0332 8.44023 13.3406 8.70968 13.7125 8.91461C14.0845 9.11195 14.5057 9.21442 14.9763 9.22201C15.4621 9.2296 15.9023 9.11575 16.297 8.88046C16.6993 8.63757 17.0332 8.3112 17.2989 7.90133L20.1338 8.56167C19.6708 9.57116 18.9801 10.3985 18.0617 11.0436C17.1433 11.6812 16.1148 12 14.9763 12ZM12.1755 4.87286H17.777C17.6936 4.41746 17.5152 4.00759 17.2419 3.64326C16.9763 3.27135 16.6461 2.97533 16.2514 2.75522C15.8567 2.5351 15.4317 2.42505 14.9763 2.42505C14.5209 2.42505 14.0996 2.5351 13.7125 2.75522C13.3254 2.96774 12.9953 3.25996 12.722 3.63188C12.4564 3.9962 12.2742 4.40987 12.1755 4.87286Z" fill="white"/>
</svg>
