<svg preserveAspectRatio="none" width="47" height="47" viewBox="0 0 47 47" fill="none" xmlns="http://www.w3.org/2000/svg">
<g opacity="0.7">
<path vector-effect="non-scaling-stroke" fill-rule="evenodd" clip-rule="evenodd" d="M0.862918 16.676L0.842773 16.6353C3.684 7.25589 12.3355 0.401608 22.6092 0.260742L19.2532 3.13698C18.5268 3.75966 18.0584 4.63079 17.9398 5.58025L17.1924 11.5594C17.176 11.6901 17.1671 11.8217 17.158 11.9531L17.1524 12.036C17.1159 12.5512 16.9507 13.72 16.2011 13.72C15.7204 13.72 15.48 13.2393 15.2396 12.7585C14.9992 12.2777 14.7588 11.797 14.278 11.797C13.8214 11.797 13.1479 12.0138 12.5666 12.2416C11.7914 12.5452 11.1923 13.1611 10.8201 13.9058L10.4325 14.6816C9.57256 16.8313 11.347 19.111 13.642 18.8049L16.1627 18.4689C19.1339 18.0727 21.5016 21.1314 20.7942 24.0442C20.2488 26.2902 19.8618 28.802 20.0473 31.0277C20.2236 33.1446 20.4001 35.6498 20.5528 37.9735C20.758 41.0986 17.2697 43.1119 15.1495 40.8068C14.7937 40.4198 14.4931 40.04 14.278 39.6816C13.893 39.04 13.5766 38.3984 13.2647 37.7659C12.4079 36.0288 11.5851 34.3606 9.47035 32.9508C8.85372 32.5397 8.23703 32.2166 7.64857 31.9624C5.58017 31.0692 3.7011 29.2013 3.7011 26.9483C3.7011 25.8664 4.1309 24.8288 4.89595 24.0637L6.06439 22.8952C6.92664 22.033 7.0605 20.6821 6.38424 19.6673C5.90977 18.9554 5.11086 18.5277 4.25531 18.5277H3.84439C2.57928 18.5277 1.42371 17.81 0.862918 16.676ZM27.7232 1.05981C27.7911 0.968752 27.859 0.882386 27.9266 0.800483C30.8284 1.44075 33.5252 2.62721 35.9035 4.24653C35.3028 4.52303 34.5777 4.91938 33.8528 5.46687C33.3768 5.82629 32.7067 6.316 31.9831 6.83859C30.021 8.25571 27.265 7.10229 26.8696 4.71446C26.8628 4.67301 26.8551 4.6318 26.8474 4.59058C26.8391 4.54632 26.8308 4.50205 26.8236 4.4575C26.7529 4.02184 26.6199 2.54083 27.7232 1.05981ZM38.1154 6.70867C38.329 6.63149 38.546 6.57758 38.764 6.5457C43.2247 10.7535 46.0089 16.7194 46.0089 23.3354C46.0089 26.8687 45.2149 30.2165 43.7954 33.2101C42.8556 33.5997 41.7057 33.4548 40.8862 32.6353C40.4675 32.2167 40.2003 31.6703 40.1268 31.0827L39.3126 24.5689C39.29 24.3881 39.2496 24.2099 39.192 24.037C38.7087 22.5874 37.0954 21.6773 35.5688 21.6107C34.9843 21.5852 34.2999 21.5253 33.5094 21.4123C30.7382 21.0165 29.9229 18.6639 29.7214 17.8461C29.6755 17.6602 29.6354 17.4768 29.6047 17.2878C29.4281 16.1974 29.248 12.0742 35.4325 7.95084C36.1323 7.48422 37.1779 7.04758 38.1154 6.70867ZM32.7341 37.7585H32.0168C31.117 37.7585 30.2456 38.0741 29.5544 38.6501L25.3237 42.1761C25.0135 42.4345 24.6646 42.6426 24.2897 42.7925L20.7126 44.2234C20.291 44.392 19.9651 44.7377 19.8214 45.1685C19.7014 45.5286 19.7209 45.8907 19.8429 46.2074C20.8534 46.3426 21.8846 46.4123 22.932 46.4123C27.2488 46.4123 31.2887 45.2271 34.7441 43.1643C33.4675 42.106 32.6543 40.5082 32.6543 38.7204C32.6543 38.3927 32.6816 38.0714 32.7341 37.7585Z" fill="url(#paint0_linear_1_3118)"/>
</g>
<defs>
<linearGradient vector-effect="non-scaling-stroke" id="paint0_linear_1_3118" x1="-16.3842" y1="-15.6065" x2="27.3658" y2="33.432" gradientUnits="userSpaceOnUse">
<stop stop-color="#FAFF06" stop-opacity="0.8"/>
<stop offset="1" stop-color="#0D6622"/>
</linearGradient>
</defs>
</svg>
