<svg preserveAspectRatio="none" width="41" height="41" viewBox="0 0 41 41" fill="none" xmlns="http://www.w3.org/2000/svg">
<path vector-effect="non-scaling-stroke" d="M0 20.3125C0 9.09375 9.09375 0 20.3125 0C31.5312 0 40.625 9.09375 40.625 20.3125C40.625 31.5312 31.5312 40.625 20.3125 40.625C9.09375 40.625 0 31.5312 0 20.3125ZM27.8333 16.5333C28.1736 16.0799 28.2416 15.4778 28.011 14.9599C27.7805 14.442 27.2875 14.0897 26.7228 14.0392C26.1582 13.9887 25.6105 14.2479 25.2917 14.7167L18.55 24.1542L15.1667 20.7708C14.551 20.1972 13.5916 20.2141 12.9966 20.8091C12.4016 21.4041 12.3847 22.3635 12.9583 22.9792L17.6458 27.6667C17.9705 27.9911 18.4213 28.1563 18.8787 28.1186C19.336 28.0809 19.7537 27.844 20.0208 27.4708L27.8333 16.5333Z" fill="black"/>
</svg>
