<svg preserveAspectRatio="none" width="14" height="14" viewBox="0 0 14 14" fill="none" xmlns="http://www.w3.org/2000/svg">
<g opacity="0.4">
<path vector-effect="non-scaling-stroke" d="M1.52304 2.30292C2.07534 2.30292 2.44354 1.93472 2.44354 1.38242C2.44354 0.830115 1.98329 0.461914 1.52304 0.461914C1.06279 0.461914 0.602539 0.830115 0.602539 1.38242C0.602539 1.93472 0.97074 2.30292 1.52304 2.30292Z" fill="#040D21"/>
<path vector-effect="non-scaling-stroke" d="M12.5689 2.30292C13.1212 2.30292 13.4894 1.93472 13.4894 1.38242C13.4894 0.830115 13.1212 0.461914 12.5689 0.461914C12.0166 0.461914 11.6484 0.830115 11.6484 1.38242C11.6484 1.93472 12.0166 2.30292 12.5689 2.30292Z" fill="#040D21"/>
<path vector-effect="non-scaling-stroke" d="M1.52304 13.3488C2.07534 13.3488 2.44354 12.9806 2.44354 12.4283C2.44354 11.876 2.07534 11.5078 1.52304 11.5078C0.97074 11.5078 0.602539 11.876 0.602539 12.4283C0.602539 12.9806 0.97074 13.3488 1.52304 13.3488Z" fill="#040D21"/>
<path vector-effect="non-scaling-stroke" d="M12.5689 13.3488C13.1212 13.3488 13.4894 12.9806 13.4894 12.4283C13.4894 11.876 13.1212 11.5078 12.5689 11.5078C12.0166 11.5078 11.6484 11.876 11.6484 12.4283C11.6484 12.9806 12.0166 13.3488 12.5689 13.3488Z" fill="#040D21"/>
</g>
</svg>
