<svg preserveAspectRatio="none" width="17" height="17" viewBox="0 0 17 17" fill="none" xmlns="http://www.w3.org/2000/svg">
<path vector-effect="non-scaling-stroke" fill-rule="evenodd" clip-rule="evenodd" d="M8.21521 16.3557C12.5469 16.3557 16.0583 12.8442 16.0583 8.51257C16.0583 4.1809 12.5469 0.669434 8.21521 0.669434C3.88354 0.669434 0.37207 4.1809 0.37207 8.51257C0.37207 12.8442 3.88354 16.3557 8.21521 16.3557ZM9.48276 11.1666C9.8656 11.5494 10.4864 11.5494 10.8692 11.1666C11.2521 10.7837 11.2521 10.163 10.8692 9.78012L9.1956 8.10649V5.57139C9.1956 5.02992 8.75668 4.591 8.21521 4.591C7.67374 4.591 7.23482 5.02992 7.23482 5.57139V8.51257C7.23482 8.77257 7.33815 9.02198 7.52197 9.20581L9.48276 11.1666Z" fill="#0EA2B5"/>
<path vector-effect="non-scaling-stroke" fill-rule="evenodd" clip-rule="evenodd" d="M15.4881 5.54029C13.8461 1.52362 9.25899 -0.401377 5.24243 1.24058C1.22586 2.88254 -0.699242 7.4696 0.942719 11.4862C2.58468 15.5028 7.17184 17.4278 11.1884 15.7859C11.2378 15.7657 11.2869 15.745 11.3358 15.7239C7.80341 17.0719 3.82253 15.359 2.38419 11.8405C0.924682 8.27019 2.63576 4.19274 6.20605 2.73323C9.77635 1.27372 13.8539 2.9849 15.3133 6.55519C16.0859 8.44499 15.9701 10.4769 15.1605 12.1873C16.2098 10.2014 16.4045 7.78196 15.4881 5.54029Z" fill="url(#paint0_linear_1_2822)" fill-opacity="0.5"/>
<defs>
<linearGradient vector-effect="non-scaling-stroke" id="paint0_linear_1_2822" x1="11.1071" y1="7.58568" x2="7.94262" y2="2.1295" gradientUnits="userSpaceOnUse">
<stop stop-color="#368466" stop-opacity="0"/>
<stop offset="1" stop-color="#30C5EB"/>
</linearGradient>
</defs>
</svg>
