<svg preserveAspectRatio="none" width="48" height="49" viewBox="0 0 48 49" fill="none" xmlns="http://www.w3.org/2000/svg">
<path vector-effect="non-scaling-stroke" fill-rule="evenodd" clip-rule="evenodd" d="M48 24.2969C48 25.0968 47.9609 25.8876 47.8844 26.6674C47.7038 27.1748 47.322 27.5982 46.8123 27.8248L41.3124 30.2691C41.0641 30.3795 40.8727 30.5867 40.7739 30.8398C40.6832 31.0723 40.5877 31.3025 40.4877 31.5301C40.3783 31.7792 40.367 32.0613 40.4646 32.3151L42.6254 37.933C42.8251 38.4522 42.7964 39.0198 42.5671 39.5054C41.5609 40.7323 40.4355 41.8577 39.2086 42.8639C38.723 43.0932 38.1554 43.1219 37.6362 42.9222L32.0184 40.7615C31.7645 40.6638 31.4824 40.6751 31.2334 40.7845C31.0057 40.8846 30.7755 40.98 30.5429 41.0708C30.2898 41.1696 30.0826 41.361 29.9722 41.6093L27.5279 47.1092C27.3013 47.6189 26.8779 48.0007 26.3705 48.1813C25.5907 48.2578 24.7999 48.2969 24 48.2969C23.2001 48.2969 22.4093 48.2578 21.6295 48.1813C21.1221 48.0007 20.6987 47.6189 20.4721 47.1092L18.0278 41.6093C17.9174 41.361 17.7102 41.1696 17.4571 41.0708C17.2246 40.98 16.9944 40.8846 16.7667 40.7845C16.5177 40.6752 16.2356 40.6639 15.9817 40.7615L10.364 42.9222C9.8447 43.1219 9.2768 43.0932 8.79118 42.8637C8.19174 42.3721 7.61653 41.852 7.06761 41.3056L6.99132 41.2293C6.4449 40.6804 5.92488 40.1052 5.43331 39.5058C5.20381 39.0202 5.17505 38.4523 5.37478 37.933L7.53544 32.3153C7.63308 32.0615 7.62181 31.7794 7.51241 31.5303C7.41235 31.3026 7.31687 31.0724 7.22609 30.8398C7.12728 30.5867 6.93588 30.3795 6.68756 30.2691L1.18772 27.8248C0.678 27.5982 0.29617 27.1748 0.11559 26.6674C0.03913 25.8876 0 25.0968 0 24.2969C0 23.497 0.03913 22.7062 0.11559 21.9264C0.29617 21.419 0.678 20.9956 1.18772 20.769L6.68755 18.3247C6.93587 18.2143 7.12728 18.0071 7.22609 17.754C7.31687 17.5214 7.41235 17.2912 7.51241 17.0635C7.62181 16.8144 7.63308 16.5323 7.53544 16.2785L5.37478 10.6608C5.17505 10.1415 5.2038 9.57358 5.4333 9.08794C5.92485 8.48858 6.44486 7.91343 6.99125 7.36458L7.06771 7.28813C7.6166 6.7417 8.19178 6.22165 8.79119 5.73006C9.2768 5.50058 9.8447 5.47185 10.364 5.67158L15.9817 7.83226C16.2356 7.92989 16.5177 7.91863 16.7667 7.80923C16.9944 7.70919 17.2246 7.61374 17.4571 7.52297C17.7102 7.42416 17.9174 7.23275 18.0278 6.98444L20.4721 1.4846C20.6987 0.974875 21.1221 0.593045 21.6295 0.412465C22.4093 0.336005 23.2001 0.296875 24 0.296875C24.7999 0.296875 25.5907 0.336005 26.3705 0.412465C26.8779 0.593045 27.3013 0.974875 27.5279 1.4846L29.9722 6.98444C30.0826 7.23275 30.2898 7.42416 30.5429 7.52297C30.7755 7.61375 31.0057 7.7092 31.2334 7.80925C31.4824 7.91865 31.7645 7.92992 32.0184 7.83228L37.6362 5.67158C38.1554 5.4719 38.723 5.50058 39.2086 5.72989C40.4355 6.73608 41.5609 7.86149 42.5671 9.08842C42.7964 9.57398 42.8251 10.1416 42.6254 10.6608L40.4646 16.2787C40.367 16.5325 40.3783 16.8146 40.4877 17.0637C40.5877 17.2913 40.6832 17.5215 40.7739 17.754C40.8727 18.0071 41.0641 18.2143 41.3124 18.3247L46.8123 20.769C47.322 20.9956 47.7038 21.419 47.8844 21.9264C47.9609 22.7062 48 23.497 48 24.2969ZM24 30.2969C28.4183 30.2969 30 28.7152 30 24.2969C30 19.8786 28.4183 18.2969 24 18.2969C19.5817 18.2969 18.0278 19.8786 18.0278 24.2969C18.0278 28.7152 19.5817 30.2969 24 30.2969Z" fill="url(#paint0_linear_1_2220)"/>
<defs>
<linearGradient vector-effect="non-scaling-stroke" id="paint0_linear_1_2220" x1="-8.75443e-07" y1="-5.70312" x2="36.5" y2="48.2969" gradientUnits="userSpaceOnUse">
<stop stop-color="#E678AE" stop-opacity="0"/>
<stop offset="0.670746" stop-color="#DB469F"/>
</linearGradient>
</defs>
</svg>
