<svg preserveAspectRatio="none" width="24" height="49" viewBox="0 0 24 49" fill="none" xmlns="http://www.w3.org/2000/svg">
<path vector-effect="non-scaling-stroke" d="M0 48.2969C0.7999 48.2969 1.5907 48.2578 2.3705 48.1813C2.8779 48.0007 3.3013 47.6189 3.5279 47.1092L5.9722 41.6093C6.0826 41.361 6.2898 41.1696 6.5429 41.0708C6.7755 40.98 7.0057 40.8846 7.2334 40.7845C7.4824 40.6751 7.7645 40.6638 8.0184 40.7615L13.6362 42.9222C14.1554 43.1219 14.723 43.0932 15.2086 42.8639C16.4355 41.8577 17.5609 40.7323 18.5671 39.5054C18.7964 39.0198 18.8251 38.4522 18.6254 37.933L16.4646 32.3151C16.367 32.0613 16.3783 31.7792 16.4877 31.5301C16.5877 31.3025 16.6832 31.0723 16.7739 30.8398C16.8727 30.5867 17.0641 30.3795 17.3124 30.2691L22.8123 27.8248C23.322 27.5982 23.7038 27.1748 23.8844 26.6674C23.9609 25.8876 24 25.0968 24 24.2969C24 23.497 23.9609 22.7062 23.8844 21.9264C23.7038 21.419 23.322 20.9956 22.8123 20.769L17.3124 18.3247C17.0641 18.2143 16.8727 18.0071 16.7739 17.754C16.6832 17.5215 16.5877 17.2913 16.4877 17.0637C16.3783 16.8146 16.367 16.5325 16.4646 16.2787L18.6254 10.6608C18.8251 10.1416 18.7964 9.57398 18.5671 9.08842C17.5609 7.86149 16.4355 6.73608 15.2086 5.72989C14.723 5.50058 14.1554 5.4719 13.6362 5.67158L8.0184 7.83228C7.7645 7.92992 7.4824 7.91865 7.2334 7.80925C7.0057 7.7092 6.7755 7.61375 6.5429 7.52297C6.2898 7.42416 6.0826 7.23275 5.9722 6.98444L3.5279 1.4846C3.3013 0.974875 2.8779 0.593045 2.3705 0.412465C1.5907 0.336005 0.7999 0.296875 0 0.296875V17.2969C4.4183 17.2969 7 19.8786 7 24.2969C7 28.7152 4.4183 31.2969 0 31.2969V48.2969Z" fill="url(#paint0_linear_1_2224)"/>
<defs>
<linearGradient vector-effect="non-scaling-stroke" id="paint0_linear_1_2224" x1="24" y1="36.2969" x2="1.27032e-06" y2="11.2969" gradientUnits="userSpaceOnUse">
<stop stop-color="#D2A0FD"/>
<stop offset="1" stop-color="#C2A0FD" stop-opacity="0"/>
</linearGradient>
</defs>
</svg>
