<svg preserveAspectRatio="none" width="24" height="21" viewBox="0 0 24 21" fill="none" xmlns="http://www.w3.org/2000/svg">
<g filter="url(#filter0_dd_1_6188)">
<path vector-effect="non-scaling-stroke" d="M15.3653 15.9482C19.1398 13.769 21.0955 10.09 19.7335 7.73091C18.3715 5.37184 14.2075 5.22604 10.433 7.40525C6.65848 9.58447 4.70276 13.2635 6.06477 15.6226C7.42678 17.9816 11.5908 18.1274 15.3653 15.9482Z" fill="white"/>
<path vector-effect="non-scaling-stroke" d="M18.8788 8.22419C19.3286 9.00288 19.303 10.13 18.6046 11.4441C17.9141 12.7435 16.6248 14.082 14.8718 15.0939C13.1189 16.1059 11.3157 16.5529 9.84486 16.5014C8.35728 16.4493 7.36885 15.9081 6.91903 15.1294C6.4692 14.3506 6.49487 13.2235 7.19328 11.9096C7.88478 10.61 9.17309 9.27156 10.926 8.2596C12.6789 7.24764 14.4822 6.80063 15.953 6.85212C17.4405 6.9042 18.43 7.4455 18.8788 8.22419Z" stroke="#9A74D0" stroke-width="1.97291"/>
</g>
<defs>
<filter id="filter0_dd_1_6188" x="0.698584" y="0.929541" width="22.4278" height="19.5215" filterUnits="userSpaceOnUse" color-interpolation-filters="sRGB">
<feFlood flood-opacity="0" result="BackgroundImageFix"/>
<feColorMatrix in="SourceAlpha" type="matrix" values="0 0 0 0 0 0 0 0 0 0 0 0 0 0 0 0 0 0 127 0" result="hardAlpha"/>
<feOffset dx="-0.986455" dy="-0.986455"/>
<feGaussianBlur stdDeviation="1.97291"/>
<feComposite in2="hardAlpha" operator="out"/>
<feColorMatrix type="matrix" values="0 0 0 0 0 0 0 0 0 0 0 0 0 0 0 0 0 0 0.15 0"/>
<feBlend mode="normal" in2="BackgroundImageFix" result="effect1_dropShadow_1_6188"/>
<feColorMatrix in="SourceAlpha" type="matrix" values="0 0 0 0 0 0 0 0 0 0 0 0 0 0 0 0 0 0 127 0" result="hardAlpha"/>
<feOffset dx="-0.986455" dy="-0.986455"/>
<feGaussianBlur stdDeviation="0.986455"/>
<feComposite in2="hardAlpha" operator="out"/>
<feColorMatrix type="matrix" values="0 0 0 0 0 0 0 0 0 0 0 0 0 0 0 0 0 0 0.15 0"/>
<feBlend mode="normal" in2="effect1_dropShadow_1_6188" result="effect2_dropShadow_1_6188"/>
<feBlend mode="normal" in="SourceGraphic" in2="effect2_dropShadow_1_6188" result="shape"/>
</filter>
</defs>
</svg>
