<svg preserveAspectRatio="none" width="17" height="16" viewBox="0 0 17 16" fill="none" xmlns="http://www.w3.org/2000/svg">
<path vector-effect="non-scaling-stroke" fill-rule="evenodd" clip-rule="evenodd" d="M8.31633 15.4124C12.5646 15.4124 16.0086 11.9685 16.0086 7.72014C16.0086 3.47177 12.5646 0.027832 8.31633 0.027832C4.06797 0.027832 0.624023 3.47177 0.624023 7.72014C0.624023 11.9685 4.06797 15.4124 8.31633 15.4124ZM8.7972 11.2785C15.6175 7.03322 10.2836 2.94091 8.31633 5.77341C6.34912 2.94091 1.01508 7.03322 7.83537 11.2785C8.12643 11.4597 8.50624 11.4597 8.7972 11.2785Z" fill="#EA4AAA"/>
<path vector-effect="non-scaling-stroke" fill-rule="evenodd" clip-rule="evenodd" d="M15.5565 4.80473C13.9461 0.865304 9.44717 -1.02268 5.50784 0.587707C1.56851 2.19809 -0.319565 6.69694 1.29082 10.6363C2.9012 14.5757 7.40015 16.4637 11.3395 14.8533C11.3879 14.8335 11.4361 14.8132 11.484 14.7925C8.01957 16.1145 4.11524 14.4346 2.70457 10.9838C1.27313 7.48213 2.9513 3.48309 6.45294 2.05165C9.95457 0.620206 13.9537 2.29848 15.3851 5.80011C16.1427 7.65357 16.0292 9.64636 15.2351 11.324C16.2643 9.37617 16.4552 7.00328 15.5565 4.80473Z" fill="url(#paint0_linear_1_3121)" fill-opacity="0.5"/>
<defs>
<linearGradient vector-effect="non-scaling-stroke" id="paint0_linear_1_3121" x1="11.2598" y1="6.81078" x2="8.15611" y2="1.45953" gradientUnits="userSpaceOnUse">
<stop stop-color="#EA4AAA"/>
<stop offset="1" stop-color="#F37AC3"/>
</linearGradient>
</defs>
</svg>
