<svg preserveAspectRatio="none" width="70" height="16" viewBox="0 0 70 16" fill="none" xmlns="http://www.w3.org/2000/svg">
<path vector-effect="non-scaling-stroke" d="M0.241699 0.80023C0.241699 0.36023 0.474058 0.110229 0.918567 0.110229H4.41403C6.52545 0.110229 8.04082 1.19023 8.04082 3.10023C8.04082 4.18023 7.51549 5.11023 6.62647 5.58023V5.61023C7.89939 5.99023 8.50553 7.16023 8.50553 8.34023C8.50553 10.6602 6.64668 11.7002 4.46454 11.7002H0.918567C0.474058 11.7002 0.241699 11.4702 0.241699 11.0102V0.80023ZM4.42413 4.85023C5.34345 4.85023 5.85868 4.20023 5.85868 3.36023C5.85868 2.53023 5.36366 1.92023 4.37361 1.92023H2.34302V4.84023H4.42413V4.85023ZM4.62618 9.89023C5.71724 9.89023 6.3234 9.19023 6.3234 8.21023C6.3234 7.25023 5.69704 6.55023 4.62618 6.55023H2.35312V9.90023H4.62618V9.89023Z" fill="#F27321"/>
<path vector-effect="non-scaling-stroke" d="M10.1523 4.07018C10.1523 3.63018 10.3847 3.38018 10.8292 3.38018H11.4758C11.9203 3.38018 12.1728 3.62018 12.1728 4.07018V4.85018C12.1728 5.16018 12.1223 5.42018 12.1223 5.42018H12.1526C12.486 4.42018 13.4053 3.31018 14.5974 3.31018C15.0622 3.31018 15.2238 3.54018 15.2238 4.00018V4.64018C15.2238 5.08018 14.9611 5.33018 14.5166 5.33018C12.981 5.33018 12.2436 6.83018 12.2436 8.35018V11.0202C12.2436 11.4802 12.0112 11.7102 11.5667 11.7102H10.8393C10.3948 11.7102 10.1624 11.4802 10.1624 11.0202V4.07018H10.1523Z" fill="#F27321"/>
<path vector-effect="non-scaling-stroke" d="M16.335 1.29023V0.80023C16.335 0.36023 16.5673 0.110229 17.0118 0.110229H17.7392C18.1837 0.110229 18.4363 0.35023 18.4363 0.80023V1.29023C18.4363 1.73023 18.1938 1.96023 17.7392 1.96023H17.0118C16.5673 1.96023 16.335 1.73023 16.335 1.29023ZM16.335 4.07023C16.335 3.63023 16.5673 3.38023 17.0118 3.38023H17.7392C18.1837 3.38023 18.4161 3.62023 18.4161 4.07023V11.0202C18.4161 11.4802 18.1837 11.7102 17.7392 11.7102H17.0118C16.5673 11.7102 16.335 11.4802 16.335 11.0202V4.07023Z" fill="#F27321"/>
<path vector-effect="non-scaling-stroke" d="M24.5279 3.19019C25.8817 3.19019 26.7909 3.68018 27.2859 4.02018C27.6294 4.25018 27.6496 4.59018 27.4173 4.95018L27.2051 5.28019C26.9525 5.66019 26.6798 5.66018 26.2858 5.46018C25.9423 5.23018 25.3766 4.95018 24.6492 4.95018C23.1035 4.95018 22.0932 6.11019 22.0932 7.53019C22.0932 8.93019 23.1035 10.1402 24.7199 10.1402C25.5483 10.1402 26.205 9.78018 26.599 9.50018C27.0132 9.27018 27.3263 9.32018 27.5385 9.71018L27.7001 10.0202C27.9022 10.3802 27.8517 10.7102 27.5183 10.9302C27.0031 11.3102 25.9827 11.8902 24.538 11.8902C21.7498 11.8902 19.9717 9.95019 19.9717 7.53019C19.9616 5.18019 21.7397 3.19019 24.5279 3.19019Z" fill="#F27321"/>
<path vector-effect="non-scaling-stroke" d="M33.2164 3.19019C35.7724 3.19019 37.8535 5.00018 37.8535 7.55018C37.8535 10.1102 35.7724 11.9102 33.2164 11.9102C30.6605 11.9102 28.5996 10.1102 28.5996 7.55018C28.5996 5.00018 30.6605 3.19019 33.2164 3.19019ZM33.2164 10.1402C34.5803 10.1402 35.7219 9.10019 35.7219 7.54019C35.7219 6.01019 34.5803 4.94019 33.2164 4.94019C31.8526 4.94019 30.7312 6.00019 30.7312 7.54019C30.7312 9.09019 31.8526 10.1402 33.2164 10.1402Z" fill="#F27321"/>
<path vector-effect="non-scaling-stroke" d="M39.3687 0.80023C39.3687 0.36023 39.601 0.110229 40.0455 0.110229H40.7729C41.2174 0.110229 41.4498 0.35023 41.4498 0.80023V8.94023C41.4498 9.76023 41.7932 9.90023 42.1064 9.94023C42.3994 9.97023 42.6216 10.1502 42.6216 10.5302V11.0902C42.6216 11.5102 42.4196 11.7902 41.9246 11.7902C40.8032 11.7902 39.3687 11.5002 39.3687 9.11023V0.80023Z" fill="#F27321"/>
<path vector-effect="non-scaling-stroke" d="M48.259 6.56029H48.6024V6.36029C48.6024 5.27029 47.8953 4.89029 47.0366 4.89029C46.3294 4.89029 45.6828 5.15029 45.2888 5.36029C44.8746 5.54029 44.5614 5.47029 44.3695 5.08029L44.2079 4.77029C44.0058 4.39029 44.0765 4.07029 44.4705 3.86029C45.0161 3.58029 45.9758 3.17029 47.2285 3.17029C49.4005 3.17029 50.7038 4.38029 50.7038 6.48029V11.0203C50.7038 11.4803 50.4714 11.7103 50.0067 11.7103H49.4511C49.0065 11.7103 48.7742 11.4803 48.7742 11.0203V10.6903C48.7742 10.4603 48.8045 10.3303 48.8045 10.3303H48.7742C48.7742 10.3303 47.9862 11.9003 46.1374 11.9003C44.6019 11.9003 43.3491 10.9203 43.3491 9.40029C43.339 6.97029 46.3698 6.56029 48.259 6.56029ZM46.683 10.3203C47.8549 10.3203 48.6125 9.14029 48.6125 8.13029V7.82029H48.2691C47.2184 7.82029 45.4202 7.98029 45.4202 9.22029C45.4202 9.78029 45.8445 10.3203 46.683 10.3203Z" fill="#F27321"/>
<path vector-effect="non-scaling-stroke" d="M54.209 13.0602C54.603 13.2102 55.1283 13.3702 55.9062 13.3702C57.1892 13.3702 58.2803 12.8302 58.2803 11.3502V10.7302C58.2803 10.5302 58.3106 10.3102 58.3106 10.3102H58.2803C57.8156 11.0902 57.0882 11.5502 55.9668 11.5502C53.5119 11.5502 52.1582 9.62018 52.1582 7.32018C52.1582 5.05018 53.4412 3.19019 55.9466 3.19019C57.9065 3.19019 58.4318 4.46018 58.4318 4.46018H58.4622C58.4622 4.46018 58.442 4.38018 58.442 4.25018V3.94019C58.442 3.63019 58.6743 3.39019 59.1188 3.39019H59.6745C60.119 3.39019 60.3513 3.63018 60.3513 4.08018V11.2102C60.3513 14.0702 58.0783 15.1402 55.9971 15.1402C55.0576 15.1402 54.1181 14.9402 53.5423 14.7002C53.1179 14.5202 52.9967 14.2402 53.1786 13.8202L53.3099 13.4402C53.5119 13.0302 53.7645 12.9102 54.209 13.0602ZM58.3308 7.36018C58.3308 5.45018 57.3711 4.94019 56.2901 4.94019C54.9869 4.94019 54.2797 5.85018 54.2797 7.23018C54.2797 8.73019 55.0374 9.79019 56.3911 9.79019C57.3711 9.80019 58.3308 9.22018 58.3308 7.36018Z" fill="#F27321"/>
<path vector-effect="non-scaling-stroke" d="M66.211 3.19019C68.6053 3.19019 69.9389 4.87018 69.9389 7.16018C69.9389 7.52018 69.6257 7.86018 69.2115 7.86018H64.0794C64.2108 9.36018 65.3321 10.1502 66.605 10.1502C67.3829 10.1502 68.0194 9.86018 68.4235 9.61018C68.8377 9.41018 69.1307 9.46019 69.3428 9.84019L69.5449 10.1702C69.7469 10.5502 69.6762 10.8702 69.3125 11.0802C68.767 11.4202 67.7769 11.9102 66.4636 11.9102C63.6753 11.9102 61.9478 9.92018 61.9478 7.55018C61.9377 4.98018 63.6854 3.19019 66.211 3.19019ZM67.8578 6.60018C67.8274 5.44018 67.1203 4.76018 66.1605 4.76018C65.0897 4.76018 64.332 5.49018 64.1299 6.60018H67.8578Z" fill="#F27321"/>
</svg>
