<svg preserveAspectRatio="none" width="16" height="16" viewBox="0 0 16 16" fill="none" xmlns="http://www.w3.org/2000/svg">
<path vector-effect="non-scaling-stroke" d="M6.97119 4.16334C7.27442 4.0585 7.27442 3.87211 6.97119 3.75563L5.32676 3.12658C5.03519 3.02174 4.69697 2.68393 4.58035 2.38105L3.95056 0.738555C3.8456 0.435684 3.659 0.435684 3.54237 0.738555L2.91258 2.38105C2.80762 2.67228 2.4694 3.0101 2.16617 3.12658L0.521734 3.75563C0.218504 3.86047 0.218504 4.04685 0.521734 4.16334L2.16617 4.79238C2.45774 4.89722 2.79596 5.23504 2.91258 5.53791L3.54237 7.18038C3.64733 7.48325 3.83394 7.48325 3.95056 7.18038L4.58035 5.53791C4.68531 5.24669 5.02353 4.90887 5.32676 4.79238L6.97119 4.16334Z" fill="#F4569A"/>
<path vector-effect="non-scaling-stroke" d="M14.9835 9.91768C15.9165 9.68471 15.9165 9.30029 14.9835 9.06731L12.9192 8.55476C11.9862 8.32178 11.0298 7.36657 10.7966 6.43467L10.2834 4.37281C10.0502 3.4409 9.6653 3.4409 9.43204 4.37281L8.91889 6.43467C8.68563 7.36657 7.72929 8.32178 6.79628 8.55476L4.73199 9.06731C3.79897 9.30029 3.79897 9.68471 4.73199 9.91768L6.79628 10.4302C7.72929 10.6632 8.68563 11.6184 8.91889 12.5503L9.43204 14.6122C9.6653 15.5441 10.0502 15.5441 10.2834 14.6122L10.7966 12.5503C11.0298 11.6184 11.9862 10.6632 12.9192 10.4302L14.9835 9.91768Z" fill="#F4569A"/>
</svg>
