<svg preserveAspectRatio="none" width="106" height="106" viewBox="0 0 106 106" fill="none" xmlns="http://www.w3.org/2000/svg">
<rect vector-effect="non-scaling-stroke" opacity="0.15" width="106" height="106" rx="8" fill="#EF790C"/>
<path vector-effect="non-scaling-stroke" d="M34.6651 58.6655L62.1406 58.6685C62.4007 59.0976 62.719 59.4959 63.0928 59.8507L64.8896 61.5563C64.6756 62.388 64.3268 63.2219 63.8379 64.063C63.3436 64.9129 62.7725 65.6558 62.1216 66.2972L60.1355 65.635C57.7993 64.8559 55.2626 65.7486 53.8659 67.8004L52.0618 70.4509C50.4898 72.7608 50.7696 75.9164 52.7362 77.8907L53.305 78.4608C51.951 78.6019 50.527 78.6719 49.0338 78.6719C41.8088 78.6719 36.2107 77.0301 32.3028 73.6705C30.2309 71.8892 29.0391 69.2927 29.0391 66.5602V64.2915C29.0391 61.1845 31.5579 58.6655 34.6651 58.6655ZM64.0627 54.2775L65.3212 51.3097C65.9115 49.918 67.3253 49.1608 68.7118 49.4496L69.0081 49.5276L70.5841 50.0312C72.1467 50.5306 73.3434 51.8693 73.7299 53.5501C74.6484 57.5451 73.5464 62.4087 70.4243 68.1412C67.3065 73.8655 63.8897 77.3074 60.173 78.4666C58.73 78.9167 57.18 78.5896 56.0138 77.6107L55.7057 77.3276L54.5087 76.1259C53.4716 75.0847 53.2578 73.4372 53.9534 72.1485L54.1299 71.8579L55.934 69.2074C56.6439 68.1645 57.8581 67.6712 59.028 67.9204L59.3456 68.007L62.676 69.1177C64.0052 68.1117 65.1131 66.8458 66.0006 65.3197C66.7609 64.0117 67.2585 62.686 67.4928 61.3425L67.5881 60.6691L64.8151 58.0372C63.9017 57.1703 63.5699 55.82 63.9432 54.6051L64.0627 54.2775ZM49.0338 28.6719C55.9385 28.6719 61.536 34.2693 61.536 41.1741C61.536 48.0789 55.9385 53.6764 49.0338 53.6764C42.129 53.6764 36.5316 48.0789 36.5316 41.1741C36.5316 34.2693 42.129 28.6719 49.0338 28.6719Z" fill="#EF790C"/>
</svg>
