<svg preserveAspectRatio="none" width="174" height="67" viewBox="0 0 174 67" fill="none" xmlns="http://www.w3.org/2000/svg">
<g opacity="0.3">
<path vector-effect="non-scaling-stroke" d="M290.835 0.00341797H11.8076C5.64348 0.00341797 0.646484 5.00041 0.646484 11.1645V55.8089C0.646484 61.973 5.64348 66.97 11.8076 66.97H290.835C296.999 66.97 301.996 61.973 301.996 55.8089V11.1645C301.996 5.00041 296.999 0.00341797 290.835 0.00341797Z" fill="white" fill-opacity="0.19"/>
<path vector-effect="non-scaling-stroke" d="M290.835 1.11963H11.8077C6.25999 1.11963 1.7627 5.61692 1.7627 11.1646V55.809C1.7627 61.3567 6.25999 65.854 11.8077 65.854H290.835C296.383 65.854 300.88 61.3567 300.88 55.809V11.1646C300.88 5.61692 296.383 1.11963 290.835 1.11963Z" stroke="white" stroke-opacity="0.1" stroke-width="2.23222"/>
</g>
</svg>
