<svg preserveAspectRatio="none" width="107" height="106" viewBox="0 0 107 106" fill="none" xmlns="http://www.w3.org/2000/svg">
<rect vector-effect="non-scaling-stroke" opacity="0.15" x="0.482422" width="106" height="106" rx="8" fill="#EF790C"/>
<path vector-effect="non-scaling-stroke" d="M60.4018 50.1761C63.1644 50.1761 65.7611 51.2493 67.7123 53.2005L69.6254 55.1136C73.5326 53.3812 76.5834 49.9085 77.596 45.6751C78.1551 43.3392 78.1175 41.0775 77.617 38.9955C77.3618 37.933 76.0125 37.5785 75.2401 38.3506L68.5116 45.0791H61.1288V37.7836L67.8573 31.0551C68.6299 30.2824 68.2748 28.933 67.2124 28.6781C65.1303 28.1776 62.8686 28.14 60.5327 28.6991C55.1323 29.9911 50.9243 34.5799 50.064 40.0663C49.9233 40.8793 49.894 41.6703 49.9037 42.4515L57.9877 50.5433C58.7807 50.2738 59.5912 50.1761 60.4018 50.1761ZM65.4994 55.4984C63.2377 53.2366 59.8773 52.806 57.1606 54.1409L46.6616 43.7211V37.6654L34.2495 28.2914L27.9995 34.4535L37.3745 46.8656L43.4331 46.8663L53.8529 57.2765C52.518 59.9932 52.9495 63.3536 55.2113 65.6153L66.6371 77.0508C68.0648 78.4668 70.3685 78.4668 71.7845 77.0506L76.9359 71.8993C78.3519 70.4833 78.3519 68.1806 76.9357 66.7519L65.4994 55.4984ZM50.2553 58.2718L44.4741 52.5003L29.9331 67.0413C27.3579 69.6165 27.3579 73.7874 29.9331 76.3626C31.2183 77.6467 32.9028 78.2913 34.5913 78.2913C36.2798 78.2913 37.9643 77.6475 39.2514 76.3596L50.8823 64.7288C50.0209 62.6956 49.7377 60.4593 50.2553 58.2718ZM34.2495 74.385C32.9556 74.385 31.9058 73.3352 31.9058 72.0413C31.9058 70.7464 32.9556 69.6975 34.2495 69.6975C35.5434 69.6975 36.5932 70.7425 36.5932 72.0413C36.5932 73.3401 35.5434 74.385 34.2495 74.385Z" fill="#EF790C"/>
</svg>
