<svg preserveAspectRatio="none" width="153" height="153" viewBox="0 0 153 153" fill="none" xmlns="http://www.w3.org/2000/svg">
<g opacity="0.6">
<path vector-effect="non-scaling-stroke" d="M120.482 0.541748H32.409C14.8805 0.541748 0.670898 14.7514 0.670898 32.2799V120.353C0.670898 137.882 14.8805 152.091 32.409 152.091H120.482C138.011 152.091 152.22 137.882 152.22 120.353V32.2799C152.22 14.7514 138.011 0.541748 120.482 0.541748Z" fill="white" fill-opacity="0.2"/>
<path vector-effect="non-scaling-stroke" d="M120.482 0.938477H32.4088C15.0994 0.938477 1.06738 14.9705 1.06738 32.2799V120.353C1.06738 137.663 15.0994 151.695 32.4088 151.695H120.482C137.791 151.695 151.823 137.663 151.823 120.353V32.2799C151.823 14.9705 137.791 0.938477 120.482 0.938477Z" stroke="white" stroke-opacity="0.6" stroke-width="0.793453"/>
</g>
</svg>
