<svg preserveAspectRatio="none" width="186" height="372" viewBox="0 0 186 372" fill="none" xmlns="http://www.w3.org/2000/svg">
<path vector-effect="non-scaling-stroke" opacity="0.6" d="M119.939 0.829346H31.8656C14.7753 0.829346 0.920898 14.6837 0.920898 31.774V119.847C0.920898 136.938 14.7753 150.792 31.8656 150.792H119.939C137.029 150.792 150.884 136.938 150.884 119.847V31.774C150.884 14.6837 137.029 0.829346 119.939 0.829346Z" fill="white" fill-opacity="0.8" stroke="white" stroke-width="1.58691"/>
<path vector-effect="non-scaling-stroke" opacity="0.6" d="M165.959 219.823H77.8856C60.3571 219.823 46.1475 234.032 46.1475 251.561V339.634C46.1475 357.162 60.3571 371.372 77.8856 371.372H165.959C183.487 371.372 197.697 357.162 197.697 339.634V251.561C197.697 234.032 183.487 219.823 165.959 219.823Z" fill="white" fill-opacity="0.8"/>
</svg>
