<svg preserveAspectRatio="none" width="90" height="37" viewBox="0 0 90 37" fill="none" xmlns="http://www.w3.org/2000/svg">
<path vector-effect="non-scaling-stroke" fill-rule="evenodd" clip-rule="evenodd" d="M48.7876 0.168457V5.13679L42.5889 6.45844V1.46561L48.7876 0.168457ZM61.6796 7.90193C59.2593 7.90193 57.7035 9.02774 56.8391 9.81094L56.5181 8.29348H51.0849V36.8308L57.2589 35.5336L57.2836 28.6074C58.1727 29.2437 59.4816 30.1493 61.6549 30.1493C66.0755 30.1493 70.101 26.6249 70.101 18.8665C70.0763 11.7689 66.0014 7.90193 61.6796 7.90193ZM60.1978 24.7649C58.7407 24.7649 57.8763 24.2509 57.2836 23.6146L57.2589 14.5345C57.9011 13.8247 58.7902 13.3353 60.1978 13.3353C62.4451 13.3353 64.001 15.8316 64.001 19.0378C64.001 22.3174 62.4699 24.7649 60.1978 24.7649ZM89.5627 19.1113C89.5627 12.8458 86.5003 7.90193 80.6473 7.90193C74.7696 7.90193 71.2134 12.8458 71.2134 19.0623C71.2134 26.4292 75.4118 30.1492 81.4376 30.1492C84.3765 30.1492 86.5991 29.4885 88.2785 28.5584V23.6635C86.5991 24.4957 84.6729 25.0096 82.228 25.0096C79.8323 25.0096 77.7085 24.1775 77.4368 21.2895H89.5133C89.5133 21.1554 89.5221 20.8517 89.5322 20.5012L89.5324 20.4957V20.4944L89.5325 20.4935C89.5463 20.0142 89.5627 19.4493 89.5627 19.1113ZM77.3628 16.7861C77.3628 14.0205 79.0668 12.8702 80.6227 12.8702C82.1291 12.8702 83.7344 14.0205 83.7344 16.7861H77.3628ZM48.7876 8.31722H42.5889V29.7324H48.7876V8.31722ZM35.5533 8.3196L35.9484 10.1307C37.4055 7.48746 40.2949 8.02594 41.0853 8.3196V13.9487C40.3197 13.6795 37.85 13.3368 36.3929 15.2214V29.7348H30.2189V8.3196H35.5533ZM23.5987 3.00765L17.5729 4.28032L17.5481 23.8844C17.5481 27.5066 20.2894 30.1743 23.9445 30.1743C25.9695 30.1743 27.4513 29.8072 28.2663 29.3666V24.3983C27.476 24.7166 23.574 25.8424 23.574 22.2201V13.5317H28.2663V8.31859H23.574L23.5987 3.00765ZM9.00357 13.2129C7.69467 13.2129 6.90439 13.58 6.90439 14.5345C6.90439 15.5766 8.26447 16.0351 9.95185 16.6038C12.7025 17.531 16.323 18.7514 16.3383 23.2719C16.3383 27.6529 12.8067 30.1738 7.66997 30.1738C5.5461 30.1738 3.22466 29.7577 0.927908 28.7787V22.9538C3.00239 24.0796 5.62019 24.9117 7.66997 24.9117C9.05296 24.9117 10.0408 24.5446 10.0408 23.4187C10.0408 22.2644 8.56646 21.7367 6.78651 21.0997C4.07577 20.1296 0.65625 18.9058 0.65625 14.8282C0.65625 10.4962 3.99024 7.90193 9.00357 7.90193C11.0534 7.90193 13.0784 8.22006 15.1282 9.02774V14.7792C13.2513 13.7758 10.8805 13.2129 9.00357 13.2129Z" fill="#B7BFC7"/>
</svg>
