<svg preserveAspectRatio="none" width="24" height="20" viewBox="0 0 24 20" fill="none" xmlns="http://www.w3.org/2000/svg">
<path vector-effect="non-scaling-stroke" fill-rule="evenodd" clip-rule="evenodd" d="M19.4803 0.232529C21.9718 0.232529 23.999 2.23961 23.999 4.70547L24.0001 7.60111C24.0001 7.82214 23.9119 8.03646 23.7545 8.19274C23.5982 8.35014 23.385 8.43832 23.1629 8.43832C22.2844 8.43832 21.5699 9.13935 21.5699 10.0011C21.5699 10.8629 22.2844 11.5639 23.1629 11.5639C23.625 11.5639 24.0001 11.939 24.0001 12.4011V15.2945C24.0001 17.7604 21.9729 19.7675 19.4814 19.7675H4.51871C2.02717 19.7675 0 17.7604 0 15.2945V12.4011C0 11.939 0.375071 11.5639 0.837212 11.5639C1.71573 11.5639 2.43015 10.8629 2.43015 10.0011C2.43015 9.16391 1.74475 8.53209 0.837212 8.53209C0.615072 8.53209 0.401862 8.44391 0.245582 8.28651C0.0881863 8.13023 0 7.9159 0 7.69488L0.00111628 4.70547C0.00111628 2.23961 2.02829 0.232529 4.51983 0.232529H19.4803ZM19.4803 1.90695H14.9013L14.9019 4.05156C14.9019 4.5137 14.5269 4.88877 14.0647 4.88877C13.6026 4.88877 13.2275 4.5137 13.2275 4.05156L13.2268 1.90695H4.51983C2.95145 1.90695 1.67554 3.16277 1.67554 4.70547L1.67442 6.95813C3.08875 7.3053 4.10457 8.51758 4.10457 10.0011C4.10457 11.4992 3.07089 12.7628 1.67442 13.1301V15.2945C1.67442 16.8372 2.95034 18.0931 4.51871 18.0931H13.2268L13.2275 16.4315C13.2275 15.9682 13.6026 15.5943 14.0647 15.5943C14.5269 15.5943 14.9019 15.9682 14.9019 16.4315L14.9013 18.0931H19.4814C21.0497 18.0931 22.3257 16.8372 22.3257 15.2945V13.1301C20.9292 12.7628 19.8955 11.4992 19.8955 10.0011C19.8955 8.50195 20.9281 7.23944 22.3257 6.87218L22.3245 4.70547C22.3245 3.16277 21.0486 1.90695 19.4803 1.90695ZM14.0647 6.37711C14.5269 6.37711 14.9019 6.75218 14.9019 7.21432V12.5959C14.9019 13.0581 14.5269 13.4331 14.0647 13.4331C13.6026 13.4331 13.2275 13.0581 13.2275 12.5959V7.21432C13.2275 6.75218 13.6026 6.37711 14.0647 6.37711Z" fill="#00A4FF"/>
</svg>
