<svg preserveAspectRatio="none" width="16" height="15" viewBox="0 0 16 15" fill="none" xmlns="http://www.w3.org/2000/svg">
<path vector-effect="non-scaling-stroke" d="M6.97119 3.66334C7.27442 3.5585 7.27442 3.37212 6.97119 3.25563L5.32676 2.62659C5.03519 2.52175 4.69697 2.18393 4.58035 1.88106L3.95056 0.238557C3.8456 -0.0643137 3.659 -0.0643137 3.54237 0.238557L2.91258 1.88106C2.80762 2.17228 2.4694 2.5101 2.16617 2.62659L0.521734 3.25563C0.218504 3.36047 0.218504 3.54685 0.521734 3.66334L2.16617 4.29238C2.45774 4.39722 2.79596 4.73504 2.91258 5.03791L3.54237 6.68038C3.64733 6.98325 3.83394 6.98325 3.95056 6.68038L4.58035 5.03791C4.68531 4.74669 5.02353 4.40887 5.32676 4.29238L6.97119 3.66334Z" fill="#F4569A"/>
<path vector-effect="non-scaling-stroke" d="M14.9835 9.41769C15.9165 9.18471 15.9165 8.80029 14.9835 8.56731L12.9192 8.05476C11.9862 7.82178 11.0298 6.86657 10.7966 5.93467L10.2834 3.87281C10.0502 2.9409 9.6653 2.9409 9.43204 3.87281L8.91889 5.93467C8.68563 6.86657 7.72929 7.82178 6.79628 8.05476L4.73199 8.56731C3.79897 8.80029 3.79897 9.18471 4.73199 9.41769L6.79628 9.93024C7.72929 10.1632 8.68563 11.1184 8.91889 12.0503L9.43204 14.1122C9.6653 15.0441 10.0502 15.0441 10.2834 14.1122L10.7966 12.0503C11.0298 11.1184 11.9862 10.1632 12.9192 9.93024L14.9835 9.41769Z" fill="#F4569A"/>
</svg>
