<svg preserveAspectRatio="none" width="52" height="55" viewBox="0 0 52 55" fill="none" xmlns="http://www.w3.org/2000/svg">
<path vector-effect="non-scaling-stroke" d="M41.3014 6.67379C41.6764 6.67379 42.0467 6.52848 42.3233 6.23317L43.7624 4.70973C44.2967 4.14723 44.2733 3.25661 43.7061 2.72223C43.1436 2.18786 42.253 2.21129 41.7186 2.77848L40.2795 4.30192C39.7452 4.86442 39.7686 5.75504 40.3358 6.28942C40.6077 6.54723 40.9545 6.67379 41.3014 6.67379Z" fill="#EF790C"/>
<path vector-effect="non-scaling-stroke" d="M40.4485 18.5519C41.2594 20.7738 41.8688 23.0144 42.2672 25.2129C42.3891 25.8926 42.9797 26.3707 43.65 26.3707C43.7344 26.3707 43.8188 26.3613 43.9031 26.3472C44.6672 26.2113 45.1734 25.4801 45.0375 24.716C44.6906 22.7988 44.1891 20.8582 43.5516 18.9222L49.9219 16.6019C50.6531 16.3347 51.0281 15.5285 50.761 14.7972C50.4938 14.066 49.6875 13.691 48.9563 13.9582C48.9563 13.9582 41.3203 16.7379 41.2922 16.7472C40.5609 17.0144 40.186 17.8207 40.4485 18.5519Z" fill="#EF790C"/>
<path vector-effect="non-scaling-stroke" d="M34.3451 15.4816C32.6436 14.6894 30.7358 14.605 28.9686 15.2472C28.8936 15.2754 28.8233 15.3082 28.7529 15.3457C28.6779 15.3597 28.6029 15.3785 28.5279 15.4066C27.8248 15.6644 26.6108 16.4425 26.3811 18.791C26.2451 20.1691 26.4936 21.8144 27.0748 23.4175C28.2748 26.7082 30.3889 28.7894 32.3811 28.7894C32.7045 28.7894 33.0279 28.7332 33.3373 28.6207L33.7779 28.4613C35.5451 27.8191 36.9514 26.53 37.7436 24.8238C38.5358 23.1175 38.6201 21.2144 37.9779 19.4472C37.3404 17.6847 36.0467 16.2738 34.3451 15.4816Z" fill="#EF790C"/>
<path vector-effect="non-scaling-stroke" d="M50.3812 31.7332L41.2499 28.5738C40.514 28.3207 39.7171 28.7097 39.4593 29.441C39.2062 30.1769 39.5953 30.9738 40.3265 31.2316L42.7499 32.0707C42.5109 36.3035 41.1328 39.2519 38.9859 40.0347C37.0078 40.7519 34.3218 39.6457 31.6078 36.9925C28.5937 34.0488 25.9124 29.6144 24.0562 24.5144C22.1999 19.4144 21.4031 14.2957 21.8203 10.105C22.1906 6.33161 23.5406 3.75349 25.514 3.03161C28.9828 1.77067 34.2796 6.08786 38.1093 13.2925C38.4749 13.9769 39.3281 14.2394 40.0124 13.8738C40.6968 13.5082 40.9593 12.6597 40.5937 11.9707C35.9531 3.23786 29.5078 -1.41683 24.5531 0.383175C22.3406 1.18942 20.7046 3.15349 19.7765 6.0363L1.82807 25.9722C0.0468152 27.9457 -0.46881 30.6175 0.440565 33.1113C1.34994 35.6097 3.464 37.3207 6.09369 37.691L7.56088 37.8972V50.8113C7.56088 52.8785 9.24369 54.5613 11.3109 54.5613H20.6859C22.7531 54.5613 24.4359 52.8785 24.4359 50.8113V43.9629C24.4359 43.1847 23.8078 42.5566 23.0296 42.5566C22.2515 42.5566 21.6234 43.1847 21.6234 43.9629V50.8113C21.6234 51.3269 21.2015 51.7488 20.6859 51.7488H11.3109C10.7953 51.7488 10.3734 51.3269 10.3734 50.8113V38.291L32.6531 41.4129C34.3874 42.505 36.0984 43.0676 37.7062 43.0676C38.4796 43.0676 39.2296 42.9363 39.9515 42.6785C43.0734 41.5441 45.0468 38.0613 45.5015 33.0222L49.4624 34.3957C49.6171 34.4472 49.7718 34.4754 49.9218 34.4754C50.5031 34.4754 51.0515 34.1097 51.2484 33.5285C51.5062 32.7879 51.1171 31.9863 50.3812 31.7332ZM10.3734 35.4504L7.56088 35.0566V30.655C7.56088 29.8769 8.189 29.2488 8.96713 29.2488C9.74525 29.2488 10.3734 29.8769 10.3734 30.655V35.4504Z" fill="#EF790C"/>
</svg>
