<svg preserveAspectRatio="none" width="272" height="94" viewBox="0 0 272 94" fill="none" xmlns="http://www.w3.org/2000/svg">
<g filter="url(#filter0_d_6_355)">
<path vector-effect="non-scaling-stroke" d="M10.3543 14.6115C10.3543 12.1522 11.3331 9.79354 13.0752 8.05452C14.8174 6.3155 17.1802 5.3385 19.644 5.3385H251.888C254.352 5.3385 256.715 6.3155 258.457 8.05452C260.199 9.79354 261.178 12.1522 261.178 14.6115V69.477C261.178 71.9364 260.199 74.295 258.457 76.034C256.715 77.773 254.352 78.75 251.888 78.75H19.644C17.1802 78.75 14.8174 77.773 13.0752 76.034C11.3331 74.295 10.3543 71.9364 10.3543 69.477V14.6115Z" fill="white"/>
</g>
<defs>
<filter id="filter0_d_6_355" x="0.35434" y="0.338501" width="270.823" height="93.4115" filterUnits="userSpaceOnUse" color-interpolation-filters="sRGB">
<feFlood flood-opacity="0" result="BackgroundImageFix"/>
<feColorMatrix in="SourceAlpha" type="matrix" values="0 0 0 0 0 0 0 0 0 0 0 0 0 0 0 0 0 0 127 0" result="hardAlpha"/>
<feOffset dy="5"/>
<feGaussianBlur stdDeviation="5"/>
<feColorMatrix type="matrix" values="0 0 0 0 0 0 0 0 0 0.25098 0 0 0 0 0.501961 0 0 0 0.04 0"/>
<feBlend mode="normal" in2="BackgroundImageFix" result="effect1_dropShadow_6_355"/>
<feBlend mode="normal" in="SourceGraphic" in2="effect1_dropShadow_6_355" result="shape"/>
</filter>
</defs>
</svg>
