<svg preserveAspectRatio="none" width="19" height="20" viewBox="0 0 19 20" fill="none" xmlns="http://www.w3.org/2000/svg">
<path vector-effect="non-scaling-stroke" d="M9.5003 18.3334C14.1027 18.3334 17.8337 14.6025 17.8337 10.0001C17.8337 5.39771 14.1027 1.66675 9.5003 1.66675C4.89795 1.66675 1.16699 5.39771 1.16699 10.0001C1.16699 14.6025 4.89795 18.3334 9.5003 18.3334Z" stroke="white" stroke-width="1.5" stroke-linecap="round" stroke-linejoin="round"/>
<path vector-effect="non-scaling-stroke" d="M7.0752 7.49999C7.27112 6.94304 7.65781 6.47341 8.16681 6.17426C8.67582 5.87512 9.27428 5.76577 9.8562 5.86558C10.4381 5.96539 10.9659 6.26792 11.3461 6.71959C11.7263 7.17126 11.9344 7.74292 11.9335 8.33332C11.9335 9.99999 9.43353 10.8333 9.43353 10.8333" stroke="white" stroke-width="1.5" stroke-linecap="round" stroke-linejoin="round"/>
<path vector-effect="non-scaling-stroke" d="M9.5 14.1666H9.5079" stroke="white" stroke-width="1.5" stroke-linecap="round" stroke-linejoin="round"/>
</svg>
