<svg preserveAspectRatio="none" width="24" height="24" viewBox="0 0 24 24" fill="none" xmlns="http://www.w3.org/2000/svg">
<path vector-effect="non-scaling-stroke" fill-rule="evenodd" clip-rule="evenodd" d="M17.25 1.50376C16.9545 1.50376 16.6619 1.56196 16.389 1.67503C16.116 1.7881 15.8679 1.95384 15.659 2.16277C15.4501 2.3717 15.2843 2.61974 15.1713 2.89272C15.0582 3.1657 15 3.45829 15 3.75376C15 4.04923 15.0582 4.34181 15.1713 4.6148C15.2843 4.88778 15.4501 5.13582 15.659 5.34475C15.8679 5.55368 16.116 5.71942 16.389 5.83249C16.6619 5.94556 16.9545 6.00376 17.25 6.00376C17.8467 6.00376 18.419 5.76671 18.841 5.34475C19.2629 4.92279 19.5 4.3505 19.5 3.75376C19.5 3.15702 19.2629 2.58473 18.841 2.16277C18.419 1.74081 17.8467 1.50376 17.25 1.50376ZM13.575 3.00376C13.7471 2.15604 14.207 1.3939 14.8768 0.846476C15.5466 0.299049 16.385 0 17.25 0C18.115 0 18.9534 0.299049 19.6232 0.846476C20.293 1.3939 20.7529 2.15604 20.925 3.00376H24V4.50376H20.925C20.7529 5.35148 20.293 6.11362 19.6232 6.66104C18.9534 7.20847 18.115 7.50752 17.25 7.50752C16.385 7.50752 15.5466 7.20847 14.8768 6.66104C14.207 6.11362 13.7471 5.35148 13.575 4.50376H0V3.00376H13.575ZM6.75 9.00376C6.15326 9.00376 5.58097 9.24081 5.15901 9.66277C4.73705 10.0847 4.5 10.657 4.5 11.2538C4.5 11.8505 4.73705 12.4228 5.15901 12.8447C5.58097 13.2667 6.15326 13.5038 6.75 13.5038C7.34674 13.5038 7.91903 13.2667 8.34099 12.8447C8.76295 12.4228 9 11.8505 9 11.2538C9 10.657 8.76295 10.0847 8.34099 9.66277C7.91903 9.24081 7.34674 9.00376 6.75 9.00376ZM3.075 10.5038C3.24714 9.65604 3.70705 8.8939 4.37681 8.34648C5.04657 7.79905 5.88498 7.5 6.75 7.5C7.61502 7.5 8.45343 7.79905 9.12319 8.34648C9.79295 8.8939 10.2529 9.65604 10.425 10.5038H24V12.0038H10.425C10.2529 12.8515 9.79295 13.6136 9.12319 14.161C8.45343 14.7085 7.61502 15.0075 6.75 15.0075C5.88498 15.0075 5.04657 14.7085 4.37681 14.161C3.70705 13.6136 3.24714 12.8515 3.075 12.0038H0V10.5038H3.075ZM17.25 16.5038C16.6533 16.5038 16.081 16.7408 15.659 17.1628C15.2371 17.5847 15 18.157 15 18.7538C15 19.3505 15.2371 19.9228 15.659 20.3447C16.081 20.7667 16.6533 21.0038 17.25 21.0038C17.8467 21.0038 18.419 20.7667 18.841 20.3447C19.2629 19.9228 19.5 19.3505 19.5 18.7538C19.5 18.157 19.2629 17.5847 18.841 17.1628C18.419 16.7408 17.8467 16.5038 17.25 16.5038ZM13.575 18.0038C13.7471 17.156 14.207 16.3939 14.8768 15.8465C15.5466 15.299 16.385 15 17.25 15C18.115 15 18.9534 15.299 19.6232 15.8465C20.293 16.3939 20.7529 17.156 20.925 18.0038H24V19.5038H20.925C20.7529 20.3515 20.293 21.1136 19.6232 21.661C18.9534 22.2085 18.115 22.5075 17.25 22.5075C16.385 22.5075 15.5466 22.2085 14.8768 21.661C14.207 21.1136 13.7471 20.3515 13.575 19.5038H0V18.0038H13.575Z" fill="white"/>
</svg>
