<svg preserveAspectRatio="none" width="28" height="28" viewBox="0 0 28 28" fill="none" xmlns="http://www.w3.org/2000/svg">
<path vector-effect="non-scaling-stroke" fill-rule="evenodd" clip-rule="evenodd" d="M8.39999 12.1334C7.37333 12.1334 6.53333 12.9734 6.53333 14C6.53333 15.0267 7.37333 15.8667 8.39999 15.8667C9.42666 15.8667 10.2667 15.0267 10.2667 14C10.2667 12.9734 9.42666 12.1334 8.39999 12.1334ZM19.6 12.1334C18.5733 12.1334 17.7333 12.9734 17.7333 14C17.7333 15.0267 18.5733 15.8667 19.6 15.8667C20.6267 15.8667 21.4667 15.0267 21.4667 14C21.4667 12.9734 20.6267 12.1334 19.6 12.1334ZM14 12.1334C12.9733 12.1334 12.1333 12.9734 12.1333 14C12.1333 15.0267 12.9733 15.8667 14 15.8667C15.0267 15.8667 15.8667 15.0267 15.8667 14C15.8667 12.9734 15.0267 12.1334 14 12.1334Z" fill="#C3CAD9"/>
</svg>
