<svg preserveAspectRatio="none" width="30" height="30" viewBox="0 0 30 30" fill="none" xmlns="http://www.w3.org/2000/svg">
<path vector-effect="non-scaling-stroke" fill-rule="evenodd" clip-rule="evenodd" d="M16 12H6C5.45 12 5 12.45 5 13C5 13.55 5.45 14 6 14H16C16.55 14 17 13.55 17 13C17 12.45 16.55 12 16 12ZM16 8H6C5.45 8 5 8.45 5 9C5 9.55 5.45 10 6 10H16C16.55 10 17 9.55 17 9C17 8.45 16.55 8 16 8ZM6 18H12C12.55 18 13 17.55 13 17C13 16.45 12.55 16 12 16H6C5.45 16 5 16.45 5 17C5 17.55 5.45 18 6 18ZM25.21 14.21L25.3 14.3C25.69 14.69 25.69 15.32 25.3 15.71L19.72 21.3C19.33 21.69 18.7 21.69 18.31 21.3L15.22 18.21C15.0327 18.0232 14.9275 17.7695 14.9275 17.505C14.9275 17.2405 15.0327 16.9868 15.22 16.8L15.31 16.71C15.7 16.32 16.33 16.32 16.72 16.71L19.02 19.01L23.8 14.22C24.18 13.82 24.82 13.82 25.21 14.21V14.21Z" fill="#3361FF"/>
</svg>
