<svg preserveAspectRatio="none" width="31" height="30" viewBox="0 0 31 30" fill="none" xmlns="http://www.w3.org/2000/svg">
<path vector-effect="non-scaling-stroke" fill-rule="evenodd" clip-rule="evenodd" d="M9.33325 13C8.23325 13 7.33325 13.9 7.33325 15C7.33325 16.1 8.23325 17 9.33325 17C10.4333 17 11.3333 16.1 11.3333 15C11.3333 13.9 10.4333 13 9.33325 13ZM21.3333 13C20.2333 13 19.3333 13.9 19.3333 15C19.3333 16.1 20.2333 17 21.3333 17C22.4333 17 23.3333 16.1 23.3333 15C23.3333 13.9 22.4333 13 21.3333 13ZM15.3333 13C14.2333 13 13.3333 13.9 13.3333 15C13.3333 16.1 14.2333 17 15.3333 17C16.4333 17 17.3333 16.1 17.3333 15C17.3333 13.9 16.4333 13 15.3333 13Z" fill="#C3CAD9"/>
</svg>
