<svg preserveAspectRatio="none" width="24" height="24" viewBox="0 0 24 24" fill="none" xmlns="http://www.w3.org/2000/svg">
<path vector-effect="non-scaling-stroke" fill-rule="evenodd" clip-rule="evenodd" d="M15.672 10.4H14.4V6.40001C14.4 5.96001 14.04 5.60001 13.6 5.60001H10.4C9.96002 5.60001 9.60002 5.96001 9.60002 6.40001V10.4H8.32802C7.61602 10.4 7.25602 11.264 7.76002 11.768L11.432 15.44C11.744 15.752 12.248 15.752 12.56 15.44L16.232 11.768C16.736 11.264 16.384 10.4 15.672 10.4ZM6.40002 18.4C6.40002 18.84 6.76002 19.2 7.20002 19.2H16.8C17.24 19.2 17.6 18.84 17.6 18.4C17.6 17.96 17.24 17.6 16.8 17.6H7.20002C6.76002 17.6 6.40002 17.96 6.40002 18.4Z" fill="#C3CAD9"/>
</svg>
