<svg preserveAspectRatio="none" width="30" height="30" viewBox="0 0 30 30" fill="none" xmlns="http://www.w3.org/2000/svg">
<path vector-effect="non-scaling-stroke" fill-rule="evenodd" clip-rule="evenodd" d="M15 5C9.48 5 5 9.48 5 15C5 20.52 9.48 25 15 25C20.52 25 25 20.52 25 15C25 9.48 20.52 5 15 5ZM19 16H16V19C16 19.55 15.55 20 15 20C14.45 20 14 19.55 14 19V16H11C10.45 16 10 15.55 10 15C10 14.45 10.45 14 11 14H14V11C14 10.45 14.45 10 15 10C15.55 10 16 10.45 16 11V14H19C19.55 14 20 14.45 20 15C20 15.55 19.55 16 19 16Z" fill="#C3CAD9"/>
</svg>
