<svg preserveAspectRatio="none" width="30" height="30" viewBox="0 0 30 30" fill="none" xmlns="http://www.w3.org/2000/svg">
<path vector-effect="non-scaling-stroke" fill-rule="evenodd" clip-rule="evenodd" d="M15.0888 5.89628C13.0788 3.88628 10.0688 3.47628 7.64878 4.65628L11.2788 8.28628C11.6688 8.67628 11.6688 9.30628 11.2788 9.69628L9.68878 11.2863C9.29878 11.6863 8.66878 11.6863 8.27878 11.2863L4.64878 7.65628C3.47878 10.0863 3.88878 13.0763 5.89878 15.0863C7.75878 16.9463 10.4788 17.4363 12.7888 16.5663L20.7488 24.5263C21.7788 25.5563 23.4388 25.5563 24.4588 24.5263C25.4888 23.4963 25.4888 21.8363 24.4588 20.8163L16.5388 12.8863C17.4588 10.5463 16.9788 7.78628 15.0888 5.89628Z" fill="#C3CAD9"/>
</svg>
