<svg preserveAspectRatio="none" width="32" height="32" viewBox="0 0 32 32" fill="none" xmlns="http://www.w3.org/2000/svg">
<mask id="mask0_103_12265" style="mask-type:alpha" maskUnits="userSpaceOnUse" x="0" y="0" width="32" height="32">
<circle vector-effect="non-scaling-stroke" cx="16" cy="16" r="16" fill="#F3F4F6"/>
</mask>
<g mask="url(#mask0_103_12265)">
<path vector-effect="non-scaling-stroke" d="M32 27.992V32.0013H0V28.0066C1.86127 25.5192 4.27721 23.5004 7.05572 22.1107C9.83423 20.721 12.8987 19.9987 16.0053 20.0013C22.544 20.0013 28.352 23.14 32 27.992ZM21.336 12C21.336 13.4144 20.7741 14.771 19.7739 15.7712C18.7737 16.7714 17.4172 17.3333 16.0027 17.3333C14.5882 17.3333 13.2316 16.7714 12.2314 15.7712C11.2312 14.771 10.6693 13.4144 10.6693 12C10.6693 10.5855 11.2312 9.22892 12.2314 8.22872C13.2316 7.22853 14.5882 6.66663 16.0027 6.66663C17.4172 6.66663 18.7737 7.22853 19.7739 8.22872C20.7741 9.22892 21.336 10.5855 21.336 12Z" fill="#D1D5DB"/>
</g>
</svg>
