<svg preserveAspectRatio="none" width="30" height="30" viewBox="0 0 30 30" fill="none" xmlns="http://www.w3.org/2000/svg">
<path vector-effect="non-scaling-stroke" fill-rule="evenodd" clip-rule="evenodd" d="M22 7H21V6C21 5.45 20.55 5 20 5C19.45 5 19 5.45 19 6V7H11V6C11 5.45 10.55 5 10 5C9.45 5 9 5.45 9 6V7H8C6.89 7 6.01 7.9 6.01 9L6 23C6 24.1 6.89 25 8 25H22C23.1 25 24 24.1 24 23V9C24 7.9 23.1 7 22 7ZM22 22C22 22.55 21.55 23 21 23H9C8.45 23 8 22.55 8 22V12H22V22ZM10 14H12V16H10V14ZM14 14H16V16H14V14ZM18 14H20V16H18V14Z" fill="#C3CAD9"/>
</svg>
