<svg preserveAspectRatio="none" width="30" height="30" viewBox="0 0 30 30" fill="none" xmlns="http://www.w3.org/2000/svg">
<path vector-effect="non-scaling-stroke" fill-rule="evenodd" clip-rule="evenodd" d="M18 14.5825V9.41249C18 8.88249 17.79 8.37249 17.41 8.00249L15.7 6.29249C15.5132 6.10523 15.2595 6 14.995 6C14.7305 6 14.4768 6.10523 14.29 6.29249L12.59 7.99249C12.21 8.37249 12 8.88249 12 9.41249V10.5825H8C6.9 10.5825 6 11.4825 6 12.5825V22.5825C6 23.6825 6.9 24.5825 8 24.5825H22C23.1 24.5825 24 23.6825 24 22.5825V16.5825C24 15.4825 23.1 14.5825 22 14.5825H18ZM10 22.5825H8V20.5825H10V22.5825ZM10 18.5825H8V16.5825H10V18.5825ZM10 14.5825H8V12.5825H10V14.5825ZM16 22.5825H14V20.5825H16V22.5825ZM16 18.5825H14V16.5825H16V18.5825ZM16 14.5825H14V12.5825H16V14.5825ZM16 10.5825H14V8.58249H16V10.5825ZM22 22.5825H20V20.5825H22V22.5825ZM22 18.5825H20V16.5825H22V18.5825Z" fill="#C3CAD9"/>
</svg>
