<svg preserveAspectRatio="none" width="30" height="30" viewBox="0 0 30 30" fill="none" xmlns="http://www.w3.org/2000/svg">
<path vector-effect="non-scaling-stroke" fill-rule="evenodd" clip-rule="evenodd" d="M15 13.9C14.39 13.9 13.9 14.39 13.9 15C13.9 15.61 14.39 16.1 15 16.1C15.61 16.1 16.1 15.61 16.1 15C16.1 14.39 15.61 13.9 15 13.9ZM15 5C9.48 5 5 9.48 5 15C5 20.52 9.48 25 15 25C20.52 25 25 20.52 25 15C25 9.48 20.52 5 15 5ZM17.19 17.19L9 21L12.81 12.81L21 9L17.19 17.19Z" fill="#3361FF"/>
</svg>
