<svg preserveAspectRatio="none" width="32" height="32" viewBox="0 0 32 32" fill="none" xmlns="http://www.w3.org/2000/svg">
<mask id="mask0_2985_13092" style="mask-type:alpha" maskUnits="userSpaceOnUse" x="0" y="0" width="32" height="32">
<circle vector-effect="non-scaling-stroke" cx="16" cy="16" r="16" fill="#F3F4F6"/>
</mask>
<g mask="url(#mask0_2985_13092)">
<path vector-effect="non-scaling-stroke" d="M32 27.9923V32.0017H0V28.007C1.86127 25.5196 4.27721 23.5008 7.05572 22.1111C9.83423 20.7213 12.8987 19.9991 16.0053 20.0017C22.544 20.0017 28.352 23.1403 32 27.9923ZM21.336 12.0003C21.336 13.4148 20.7741 14.7714 19.7739 15.7716C18.7737 16.7718 17.4172 17.3337 16.0027 17.3337C14.5882 17.3337 13.2316 16.7718 12.2314 15.7716C11.2312 14.7714 10.6693 13.4148 10.6693 12.0003C10.6693 10.5858 11.2312 9.22928 12.2314 8.22909C13.2316 7.2289 14.5882 6.66699 16.0027 6.66699C17.4172 6.66699 18.7737 7.2289 19.7739 8.22909C20.7741 9.22928 21.336 10.5858 21.336 12.0003Z" fill="#D1D5DB"/>
</g>
</svg>
