<svg preserveAspectRatio="none" width="110" height="80" viewBox="0 0 110 80" fill="none" xmlns="http://www.w3.org/2000/svg">
<path vector-effect="non-scaling-stroke" opacity="0.2" d="M83.1496 0C87.9615 0 92.0997 0.863311 95.5643 2.58993C99.0289 4.31655 101.724 6.81056 103.648 10.072C105.766 12.7578 107.305 16.307 108.268 20.7194C109.423 25.1319 110 29.5444 110 33.9568C110 43.5492 107.498 52.47 102.493 60.7194C97.6815 68.777 90.0787 75.2038 79.685 80L77.0866 74.8202C82.4759 72.518 87.2878 68.9688 91.5223 64.1727C95.7568 59.3765 98.259 54.4844 99.0289 49.4964C99.9913 45.2758 99.9913 41.247 99.0289 37.4101C94.7944 42.0144 89.2126 44.3166 82.2835 44.3166C75.5468 44.3166 70.0612 42.3981 65.8268 38.5612C61.5923 34.5324 59.4751 29.0648 59.4751 22.1583C59.4751 15.4437 61.6885 10.072 66.1155 6.04318C70.7349 2.01439 76.413 0 83.1496 0ZM23.6745 0C28.4864 0 32.6247 0.863311 36.0892 2.58993C39.5538 4.31655 42.2485 6.81056 44.1732 10.072C46.2905 12.7578 47.8303 16.307 48.7927 20.7194C49.9475 25.1319 50.5249 29.5444 50.5249 33.9568C50.5249 43.5492 48.0228 52.47 43.0184 60.7194C38.2065 68.777 30.6037 75.2038 20.21 80L17.6115 74.8202C23.0009 72.518 27.8128 68.9688 32.0472 64.1727C36.2817 59.3765 38.7839 54.4844 39.5538 49.4964C40.5162 45.2758 40.5162 41.247 39.5538 37.4101C35.3193 42.0144 29.7375 44.3166 22.8084 44.3166C16.0717 44.3166 10.5862 42.3981 6.35171 38.5612C2.11723 34.5324 0 29.0648 0 22.1583C0 15.4437 2.21347 10.072 6.64042 6.04318C11.2598 2.01439 16.9379 0 23.6745 0Z" fill="#FF9E00"/>
</svg>
