<svg preserveAspectRatio="none" width="15" height="13" viewBox="0 0 15 13" fill="none" xmlns="http://www.w3.org/2000/svg">
<path vector-effect="non-scaling-stroke" fill-rule="evenodd" clip-rule="evenodd" d="M12.8975 5.80206H10.9442L9.27749 7.46873H6.27749L4.27749 5.80206H2.27749V9.80206H7.61082V11.1354H1.94415C1.67894 11.1354 1.42458 11.03 1.23705 10.8425C1.04951 10.655 0.944153 10.4006 0.944153 10.1354V5.80206L1.29949 4.46873H4.76015L5.13082 4.77806L6.76015 6.1354H8.72549L10.0015 4.8594L10.3922 4.46873H13.9222L14.2775 5.80206V8.1354H12.9442V5.80206H12.8975ZM2.01349 1.79206L1.65549 3.1354H3.03549L3.30215 2.1354H11.9195L12.1862 3.1354H13.5662L13.2082 1.79206C13.1325 1.5081 12.9651 1.25709 12.7321 1.07806C12.499 0.899023 12.2134 0.801998 11.9195 0.802063H3.30215C3.00828 0.801998 2.72261 0.899023 2.48957 1.07806C2.25653 1.25709 2.08916 1.5081 2.01349 1.79206ZM11.7488 11.6641L10.8868 10.8021H14.2775V9.46873H10.8868L11.7488 8.60673L10.8062 7.66406L8.33482 10.1354L10.8062 12.6067L11.7488 11.6641Z" fill="white" fill-opacity="0.54"/>
</svg>
