<svg preserveAspectRatio="none" width="16" height="17" viewBox="0 0 16 17" fill="none" xmlns="http://www.w3.org/2000/svg">
<path vector-effect="non-scaling-stroke" fill-rule="evenodd" clip-rule="evenodd" d="M11.3333 8.63541H13.3333V12.6354H2.66665V8.63541H4.66665L6.66665 10.3021H9.66665L11.3333 8.63541ZM14.6666 12.9687V8.63541L14.3113 7.30207H10.7813L10.3906 7.69274L9.11465 8.96874H7.14931L5.51998 7.61141L5.14931 7.30207H1.68865L1.33331 8.63541V12.9687C1.33331 13.234 1.43867 13.4883 1.62621 13.6758C1.81374 13.8634 2.0681 13.9687 2.33331 13.9687H13.6666C13.9319 13.9687 14.1862 13.8634 14.3738 13.6758C14.5613 13.4883 14.6666 13.234 14.6666 12.9687ZM2.04465 5.96874L2.40265 4.62541C2.47832 4.34144 2.64569 4.09043 2.87873 3.9114C3.11177 3.73237 3.39744 3.63534 3.69131 3.63541H12.3086C12.6025 3.63534 12.8882 3.73237 13.1212 3.9114C13.3543 4.09043 13.5216 4.34144 13.5973 4.62541L13.9553 5.96874H12.5753L12.3086 4.96874H3.69131L3.42465 5.96874H2.04465Z" fill="white"/>
</svg>
