<svg preserveAspectRatio="none" width="16" height="17" viewBox="0 0 16 17" fill="none" xmlns="http://www.w3.org/2000/svg">
<path vector-effect="non-scaling-stroke" fill-rule="evenodd" clip-rule="evenodd" d="M11.3334 8.63539H13.3334V12.6354H2.66671V8.63539H4.66671L6.66671 10.3021H9.66671L11.3334 8.63539ZM14.6667 12.9687V8.63539L14.3114 7.30206H10.7814L10.3907 7.69272L9.11471 8.96872H7.14937L5.52004 7.61139L5.14937 7.30206H1.68871L1.33337 8.63539V12.9687C1.33337 13.2339 1.43873 13.4883 1.62627 13.6758C1.8138 13.8634 2.06816 13.9687 2.33337 13.9687H13.6667C13.9319 13.9687 14.1863 13.8634 14.3738 13.6758C14.5614 13.4883 14.6667 13.2339 14.6667 12.9687ZM2.04471 5.96872L2.40271 4.62539C2.47838 4.34143 2.64575 4.09042 2.87879 3.91138C3.11184 3.73235 3.3975 3.63533 3.69137 3.63539H12.3087C12.6026 3.63533 12.8882 3.73235 13.1213 3.91138C13.3543 4.09042 13.5217 4.34143 13.5974 4.62539L13.9554 5.96872H12.5754L12.3087 4.96872H3.69137L3.42471 5.96872H2.04471Z" fill="white"/>
</svg>
