<svg preserveAspectRatio="none" width="16" height="16" viewBox="0 0 16 16" fill="none" xmlns="http://www.w3.org/2000/svg">
<path vector-effect="non-scaling-stroke" fill-rule="evenodd" clip-rule="evenodd" d="M11.3334 7.83333H13.3334V11.8333H2.66671V7.83333H4.66671L6.66671 9.5H9.66671L11.3334 7.83333ZM14.6667 12.1667V7.83333L14.3114 6.5H10.7814L10.3907 6.89066L9.11471 8.16666H7.14937L5.52004 6.80933L5.14937 6.5H1.68871L1.33337 7.83333V12.1667C1.33337 12.4319 1.43873 12.6862 1.62627 12.8738C1.8138 13.0613 2.06816 13.1667 2.33337 13.1667H13.6667C13.9319 13.1667 14.1863 13.0613 14.3738 12.8738C14.5614 12.6862 14.6667 12.4319 14.6667 12.1667ZM2.04471 5.16666L2.40271 3.82333C2.47838 3.53936 2.64575 3.28835 2.87879 3.10932C3.11184 2.93029 3.3975 2.83326 3.69137 2.83333H12.3087C12.6026 2.83326 12.8882 2.93029 13.1213 3.10932C13.3543 3.28835 13.5217 3.53936 13.5974 3.82333L13.9554 5.16666H12.5754L12.3087 4.16666H3.69137L3.42471 5.16666H2.04471Z" fill="white"/>
</svg>
