<svg preserveAspectRatio="none" width="14" height="13" viewBox="0 0 14 13" fill="none" xmlns="http://www.w3.org/2000/svg">
<path vector-effect="non-scaling-stroke" fill-rule="evenodd" clip-rule="evenodd" d="M7.05961 3.5677C7.05961 3.92132 6.91914 4.26046 6.66909 4.51051C6.41904 4.76056 6.0799 4.90103 5.72628 4.90103C5.37266 4.90103 5.03352 4.76056 4.78347 4.51051C4.53342 4.26046 4.39294 3.92132 4.39294 3.5677C4.39294 3.21408 4.53342 2.87494 4.78347 2.62489C5.03352 2.37484 5.37266 2.23436 5.72628 2.23436C6.0799 2.23436 6.41904 2.37484 6.66909 2.62489C6.91914 2.87494 7.05961 3.21408 7.05961 3.5677ZM8.39294 3.5677C8.39294 4.27494 8.11199 4.95322 7.6119 5.45332C7.1118 5.95341 6.43352 6.23436 5.72628 6.23436C5.01903 6.23436 4.34076 5.95341 3.84066 5.45332C3.34056 4.95322 3.05961 4.27494 3.05961 3.5677C3.05961 2.86045 3.34056 2.18218 3.84066 1.68208C4.34076 1.18198 5.01903 0.901031 5.72628 0.901031C6.43352 0.901031 7.1118 1.18198 7.6119 1.68208C8.11199 2.18218 8.39294 2.86045 8.39294 3.5677ZM11.0596 6.23436V4.90103H12.3929V6.23436H13.7263V7.5677H12.3929V8.90103H11.0596V7.5677H9.72628V6.23436H11.0596ZM5.72628 8.90103C4.66541 8.90103 3.648 9.32246 2.89785 10.0726C2.14771 10.8228 1.72628 11.8402 1.72628 12.901H0.392944C0.392944 11.4865 0.954848 10.13 1.95504 9.1298C2.95524 8.1296 4.31179 7.5677 5.72628 7.5677C7.14077 7.5677 8.49732 8.1296 9.49751 9.1298C10.4977 10.13 11.0596 11.4865 11.0596 12.901H9.72628C9.72628 11.8402 9.30485 10.8228 8.5547 10.0726C7.80456 9.32246 6.78714 8.90103 5.72628 8.90103Z" fill="white" fill-opacity="0.54"/>
</svg>
