<svg preserveAspectRatio="none" width="46" height="54" viewBox="0 0 46 54" fill="none" xmlns="http://www.w3.org/2000/svg">
<g clip-path="url(#clip0_162_3644)">
<path vector-effect="non-scaling-stroke" d="M15.0312 13H6.03125C4.5731 13.0017 3.17516 13.5818 2.14409 14.6128C1.11302 15.6439 0.532997 17.0418 0.53125 18.5L0.53125 44.5C0.533076 45.9581 1.11312 47.356 2.14418 48.3871C3.17523 49.4181 4.57312 49.9982 6.03125 50H15.0312C16.4894 49.9982 17.8873 49.4181 18.9183 48.3871C19.9494 47.356 20.5294 45.9581 20.5312 44.5V18.5C20.5295 17.0418 19.9495 15.6439 18.9184 14.6128C17.8873 13.5818 16.4894 13.0017 15.0312 13ZM18.5312 44.5C18.5301 45.4279 18.161 46.3175 17.5049 46.9736C16.8488 47.6298 15.9592 47.9989 15.0312 48H6.03125C5.10333 47.9989 4.21374 47.6298 3.5576 46.9736C2.90147 46.3175 2.53236 45.4279 2.53125 44.5V18.5C2.53236 17.5721 2.90147 16.6825 3.5576 16.0264C4.21374 15.3702 5.10333 15.0011 6.03125 15H15.0312C15.9592 15.0011 16.8488 15.3702 17.5049 16.0264C18.161 16.6825 18.5301 17.5721 18.5312 18.5V44.5ZM44.5312 36.5H45.5312V42.5H44.5312V36.5ZM32.5312 13H38.5312V14H32.5312V13ZM44.5312 28.5H45.5312V34.5H44.5312V28.5ZM32.5312 49H38.5312V50H32.5312V49ZM26.5312 34.5H25.5312V28.5H26.5312V34.5ZM26.5312 26.5H25.5312V20.5H26.5312V26.5ZM26.5312 42.5H25.5312V36.5H26.5312V42.5ZM40.5312 14.05V13.0253C41.8968 13.1512 43.1662 13.7822 44.091 14.7948C45.0157 15.8074 45.5293 17.1287 45.5312 18.5H44.5312C44.5292 17.396 44.1199 16.3315 43.3819 15.5104C42.6438 14.6893 41.6288 14.1693 40.5312 14.05ZM44.5312 44.5H45.5312C45.5293 45.8713 45.0157 47.1926 44.091 48.2052C43.1662 49.2178 41.8968 49.8488 40.5312 49.9747V48.95C41.6288 48.8307 42.6438 48.3107 43.3819 47.4896C44.1199 46.6685 44.5292 45.604 44.5312 44.5ZM30.5312 13.0253V14.05C29.4337 14.1693 28.4187 14.6893 27.6806 15.5104C26.9426 16.3315 26.5333 17.396 26.5312 18.5H25.5312C25.5332 17.1287 26.0468 15.8074 26.9715 14.7948C27.8963 13.7822 29.1657 13.1512 30.5312 13.0253ZM30.5312 48.95V49.9751C29.1656 49.8492 27.8962 49.2181 26.9714 48.2054C26.0466 47.1928 25.5331 45.8714 25.5312 44.5H26.5312C26.5333 45.604 26.9426 46.6685 27.6806 47.4896C28.4187 48.3107 29.4337 48.8307 30.5312 48.95ZM44.5312 20.5H45.5312V26.5H44.5312V20.5Z" fill="#1D1D1F"/>
</g>
<defs>
<clipPath id="clip0_162_3644">
<rect vector-effect="non-scaling-stroke" width="45" height="54" fill="white" transform="translate(0.53125)"/>
</clipPath>
</defs>
</svg>
