<svg preserveAspectRatio="none" width="20" height="54" viewBox="0 0 20 54" fill="none" xmlns="http://www.w3.org/2000/svg">
<g clip-path="url(#clip0_162_3631)">
<path vector-effect="non-scaling-stroke" d="M16.2969 10H3.29688C2.50196 10.0024 1.74027 10.3192 1.17818 10.8813C0.616082 11.4434 0.299249 12.2051 0.296875 13L0.296875 47C0.299249 47.7949 0.616082 48.5566 1.17818 49.1187C1.74027 49.6808 2.50196 49.9976 3.29688 50H16.2969C17.0918 49.9976 17.8535 49.6808 18.4156 49.1187C18.9777 48.5566 19.2945 47.7949 19.2969 47V13C19.2945 12.2051 18.9777 11.4434 18.4156 10.8813C17.8535 10.3192 17.0918 10.0024 16.2969 10ZM7.54688 12.25H12.0469C12.1132 12.25 12.1768 12.2763 12.2237 12.3232C12.2705 12.3701 12.2969 12.4337 12.2969 12.5C12.2969 12.5663 12.2705 12.6299 12.2237 12.6768C12.1768 12.7237 12.1132 12.75 12.0469 12.75H7.54688C7.48057 12.75 7.41698 12.7237 7.3701 12.6768C7.32321 12.6299 7.29688 12.5663 7.29688 12.5C7.29688 12.4337 7.32321 12.3701 7.3701 12.3232C7.41698 12.2763 7.48057 12.25 7.54688 12.25ZM5.79688 12.125C5.87104 12.125 5.94355 12.147 6.00521 12.1882C6.06688 12.2294 6.11495 12.288 6.14333 12.3565C6.17171 12.425 6.17914 12.5004 6.16467 12.5732C6.1502 12.6459 6.11448 12.7127 6.06204 12.7652C6.0096 12.8176 5.94278 12.8533 5.87003 12.8678C5.79729 12.8823 5.72189 12.8748 5.65337 12.8465C5.58485 12.8181 5.52628 12.77 5.48507 12.7083C5.44387 12.6467 5.42188 12.5742 5.42188 12.5C5.42188 12.4005 5.46138 12.3052 5.53171 12.2348C5.60204 12.1645 5.69742 12.125 5.79688 12.125ZM9.79688 49.25C9.45076 49.25 9.11241 49.1474 8.82463 48.9551C8.53684 48.7628 8.31254 48.4895 8.18009 48.1697C8.04763 47.8499 8.01298 47.4981 8.0805 47.1586C8.14802 46.8191 8.3147 46.5073 8.55944 46.2626C8.80418 46.0178 9.116 45.8512 9.45547 45.7836C9.79493 45.7161 10.1468 45.7508 10.4666 45.8832C10.7863 46.0157 11.0597 46.24 11.2519 46.5278C11.4442 46.8155 11.5469 47.1539 11.5469 47.5C11.5469 47.9641 11.3625 48.4092 11.0343 48.7374C10.7061 49.0656 10.261 49.25 9.79688 49.25ZM18.2969 45H1.29688V15H18.2969V45Z" fill="#1D1D1F"/>
<path vector-effect="non-scaling-stroke" d="M9.79688 48.625C10.4182 48.625 10.9219 48.1213 10.9219 47.5C10.9219 46.8787 10.4182 46.375 9.79688 46.375C9.17555 46.375 8.67188 46.8787 8.67188 47.5C8.67188 48.1213 9.17555 48.625 9.79688 48.625Z" fill="#1D1D1F"/>
</g>
<defs>
<clipPath id="clip0_162_3631">
<rect vector-effect="non-scaling-stroke" width="19" height="54" fill="white" transform="translate(0.296875)"/>
</clipPath>
</defs>
</svg>
