<svg preserveAspectRatio="none" width="37" height="54" viewBox="0 0 37 54" fill="none" xmlns="http://www.w3.org/2000/svg">
<g clip-path="url(#clip0_162_3625)">
<path vector-effect="non-scaling-stroke" d="M14.9542 49.5004C14.8202 49.3433 14.6984 49.1761 14.59 49.0004H5.09606C5.01656 49.0004 4.72046 49.0004 4.63606 49.0004C4.19166 49.0177 3.74684 48.9799 3.31176 48.8877C2.97652 48.8073 2.67135 48.6325 2.43236 48.384C2.19453 48.1291 2.03295 47.8126 1.96596 47.4704C1.88849 47.0207 1.85799 46.5642 1.87496 46.1082V15.2917C1.87496 15.1951 1.87496 14.9791 1.87496 14.8798C1.85435 14.4002 1.89145 13.9199 1.98546 13.4491C2.0689 13.0883 2.26197 12.762 2.53816 12.5152C2.6808 12.3892 2.84289 12.2871 3.01816 12.2129C3.19189 12.1407 3.37381 12.09 3.55986 12.062C3.79543 12.0267 4.03316 12.0077 4.27136 12.005C4.42936 12.0012 4.61326 12.0006 4.78936 12.0006H6.07226C6.12162 11.9984 6.17108 12.0009 6.21996 12.0082C6.26859 12.0144 6.31388 12.0363 6.3489 12.0706C6.38393 12.1049 6.40677 12.1497 6.41396 12.1982C6.42506 12.2507 6.42396 12.5618 6.42556 12.6082C6.42562 12.7194 6.43415 12.8304 6.45106 12.9402C6.46969 13.0487 6.50691 13.1532 6.56106 13.249C6.648 13.4008 6.77341 13.527 6.92466 13.6149C7.04255 13.6818 7.1727 13.7243 7.30736 13.7398C7.44308 13.7533 7.57955 13.7576 7.71586 13.7528H13.1405C13.3915 13.7793 13.6451 13.7381 13.875 13.6335V11.0004H5.09656H4.81116C4.62026 11.0004 4.41916 11.0011 4.24706 11.0053C3.96336 11.0094 3.68028 11.0328 3.39976 11.0753C3.13398 11.1163 2.87419 11.1896 2.62616 11.2935C2.35186 11.4097 2.09818 11.5694 1.87496 11.7666C1.4495 12.1465 1.14998 12.647 1.01636 13.2015C0.899306 13.7573 0.851809 14.3255 0.874956 14.893V15.2917V46.1082C0.856704 46.6365 0.89509 47.1653 0.989456 47.6854C1.09553 48.2057 1.34427 48.6862 1.70786 49.0732C2.07543 49.4559 2.54371 49.7269 3.05866 49.8548C3.57478 49.9693 4.10329 50.0182 4.63166 50.0004C4.72436 50.0004 5.00046 50.0009 5.09656 50.0004H15.455C15.3168 49.8878 15.1862 49.7661 15.064 49.6363C15.0243 49.5934 14.9921 49.5447 14.9542 49.5004ZM7.57336 13.0367C7.49868 13.0421 7.42397 13.0267 7.35753 12.9923C7.29108 12.9578 7.2355 12.9055 7.19696 12.8413C7.16422 12.7811 7.14707 12.7136 7.14707 12.6451C7.14707 12.5765 7.16422 12.5091 7.19696 12.4488C7.23552 12.3847 7.29111 12.3326 7.35754 12.2982C7.42397 12.2637 7.49864 12.2484 7.57326 12.2539C7.67077 12.263 7.76137 12.3082 7.82732 12.3806C7.89328 12.453 7.92984 12.5474 7.92984 12.6453C7.92984 12.7433 7.89328 12.8377 7.82732 12.9101C7.76137 12.9825 7.67087 13.0276 7.57336 13.0367ZM8.81136 11.3767H11.8984C11.9313 11.3768 11.963 11.3899 11.9863 11.4132C12.0097 11.4365 12.023 11.468 12.0233 11.501V11.5204C12.0232 11.5537 12.01 11.5855 11.9865 11.609C11.963 11.6325 11.9312 11.6457 11.898 11.6457H8.81136C8.77814 11.6457 8.7463 11.6325 8.72282 11.609C8.69934 11.5855 8.68616 11.5536 8.68616 11.5204V11.5015C8.68645 11.4685 8.69976 11.436 8.72321 11.4127C8.74666 11.3895 8.77834 11.3767 8.81136 11.3767ZM36.875 10.392C36.8953 9.7959 36.8529 9.19929 36.7485 8.61203C36.6324 8.02747 36.3579 7.48605 35.955 7.04693C35.5514 6.6167 35.0334 6.31073 34.4619 6.16503C33.8918 6.03604 33.3075 5.98096 32.7234 6.00113C32.6128 6.00066 32.5016 6.00043 32.3897 6.00043H19.541H19.2263C19.015 6.00043 18.7925 6.00123 18.6021 6.00603C18.2884 6.01042 17.9755 6.03665 17.6655 6.08453C17.3714 6.13085 17.0842 6.21352 16.8105 6.33063C16.5066 6.46239 16.2262 6.64282 15.9805 6.86483C15.5084 7.29667 15.1777 7.8609 15.0316 8.48373C14.902 9.11111 14.8494 9.75193 14.875 10.392V12.0006V45.6091C14.8546 46.2051 14.897 46.8015 15.0014 47.3885C15.1175 47.9733 15.3922 48.515 15.7954 48.9542C15.8112 48.971 15.8293 48.9842 15.8454 49.0003C16.0293 49.1905 16.2375 49.3556 16.4646 49.4914C16.7221 49.6437 16.9994 49.7597 17.2887 49.8361C17.3818 49.8609 17.4776 49.8634 17.5716 49.8812C18.0521 49.9653 18.5393 50.0052 19.0272 50.0004C19.1964 50.001 19.3702 50.001 19.541 50.0004H32.5789C33.1746 50.0229 33.7709 49.9766 34.3561 49.8623C34.9438 49.7323 35.4815 49.4353 35.9046 49.0071C36.3263 48.5686 36.6159 48.0202 36.7404 47.4247C36.8519 46.8263 36.897 46.2174 36.875 45.6091V10.8419C36.875 10.6914 36.875 10.5397 36.875 10.392ZM24.2162 6.51203C24.2162 6.47755 24.2299 6.44448 24.2542 6.4201C24.2786 6.39573 24.3117 6.38203 24.3462 6.38203H27.4048C27.4392 6.38203 27.4723 6.39573 27.4967 6.4201C27.5211 6.44448 27.5348 6.47755 27.5348 6.51203V6.53203C27.5348 6.56651 27.5211 6.59957 27.4967 6.62395C27.4723 6.64833 27.4392 6.66203 27.4048 6.66203H24.3457C24.3112 6.66203 24.2781 6.64833 24.2537 6.62395C24.2294 6.59957 24.2157 6.56651 24.2157 6.53203L24.2162 6.51203ZM22.6448 7.34503C22.6851 7.27798 22.7432 7.22344 22.8127 7.18746C22.8822 7.15149 22.9603 7.13548 23.0384 7.14123C23.1404 7.15067 23.2352 7.19788 23.3043 7.27361C23.3733 7.34933 23.4116 7.44811 23.4116 7.55058C23.4116 7.65305 23.3733 7.75183 23.3043 7.82755C23.2352 7.90327 23.1404 7.95048 23.0384 7.95993C22.9603 7.96559 22.8822 7.9495 22.8127 7.91343C22.7432 7.87736 22.6851 7.82274 22.6448 7.75563C22.6105 7.69255 22.5925 7.62189 22.5926 7.5501C22.5926 7.47831 22.6104 7.40807 22.6448 7.34503ZM35.875 10.7669V24.4757V45.6285C35.8949 46.1562 35.858 46.6844 35.765 47.2041C35.6818 47.6192 35.4823 48.002 35.1896 48.3078C34.8991 48.601 34.5294 48.803 34.1259 48.8891C33.616 48.9839 33.0971 49.0212 32.5789 49.0004H19.5397C19.3983 49.0004 19.1742 49.0004 19.0314 49.0004C18.7865 48.9993 18.5675 48.9931 18.3543 48.9814C18.0818 48.9721 17.8111 48.9349 17.5463 48.8703C17.532 48.8666 17.5211 48.8582 17.507 48.8542C17.133 48.7542 16.7939 48.553 16.527 48.2726C16.2466 47.9654 16.057 47.5864 15.9791 47.1778C15.8908 46.6599 15.8559 46.1342 15.875 45.6091V12.0004C15.875 11.4863 15.875 10.8904 15.875 10.3768C15.8516 9.82376 15.8941 9.26988 16.0015 8.72683C16.1002 8.29662 16.3265 7.90624 16.6509 7.60683C16.8164 7.45755 17.0051 7.33623 17.2097 7.24763C17.4082 7.16333 17.6165 7.10408 17.8297 7.07123C18.0937 7.03073 18.3603 7.00891 18.6275 7.00593C18.8102 7.00133 19.0238 7.00063 19.2265 7.00063H19.3921H19.5412H21.4919C21.5469 6.99814 21.6021 7.00099 21.6567 7.00913C21.7109 7.01599 21.7614 7.04039 21.8005 7.07863C21.8397 7.11687 21.8652 7.16684 21.8733 7.22093C21.8826 7.27535 21.8869 7.33052 21.8862 7.38573C21.8862 7.5096 21.8957 7.63329 21.9146 7.75573C21.9355 7.87684 21.9772 7.99343 22.0379 8.10033C22.1348 8.26973 22.2748 8.41057 22.4436 8.50863C22.5751 8.58326 22.7204 8.63067 22.8707 8.64803C23.0221 8.66304 23.1744 8.66792 23.3266 8.66263H28.4238C28.5759 8.66792 28.7283 8.66304 28.8798 8.64803C29.03 8.63065 29.1753 8.58324 29.3069 8.50863C29.4756 8.41057 29.6154 8.26977 29.7124 8.10043C29.773 7.99352 29.8147 7.87694 29.8356 7.75583C29.8544 7.6334 29.8639 7.50971 29.8641 7.38583C29.8632 7.33061 29.8675 7.27544 29.877 7.22103C29.885 7.16695 29.9105 7.11699 29.9496 7.07876C29.9887 7.04052 30.0392 7.01611 30.0935 7.00923C30.148 7.00099 30.2032 6.99805 30.2584 7.00043H32.3897H32.7185C33.217 6.98086 33.7161 7.02454 34.2037 7.13043C34.5936 7.22849 34.9475 7.43589 35.2237 7.72823C35.5039 8.03548 35.6935 8.41442 35.7714 8.82293C35.8597 9.34132 35.8945 9.86741 35.8754 10.3929C35.875 10.4604 35.875 10.7044 35.875 10.7669Z" fill="#1D1D1F"/>
</g>
<defs>
<clipPath id="clip0_162_3625">
<rect vector-effect="non-scaling-stroke" width="36" height="54" fill="white" transform="translate(0.875)"/>
</clipPath>
</defs>
</svg>
