<svg preserveAspectRatio="none" width="41" height="54" viewBox="0 0 41 54" fill="none" xmlns="http://www.w3.org/2000/svg">
<g clip-path="url(#clip0_162_3611)">
<path vector-effect="non-scaling-stroke" d="M17.4695 50.0003H6.8442H6.4742C6.3758 50.0003 6.27803 50 6.1809 49.9993C5.66953 50.0084 5.15841 49.9701 4.6541 49.885C4.309 49.8202 3.97468 49.7074 3.6609 49.5498C3.0382 49.2339 2.53223 48.728 2.2163 48.1053C2.05867 47.7916 1.9459 47.4573 1.8813 47.1122C1.79068 46.5592 1.75211 45.999 1.7661 45.4388V45.1455C1.7661 45.0714 1.7661 44.9967 1.7661 44.9216V12.079C1.7661 12.0038 1.7661 11.9292 1.7661 11.8551C1.7661 11.7566 1.7661 11.6588 1.7661 11.5618C1.75211 11.0016 1.79068 10.4414 1.8813 9.88841C1.94591 9.54332 2.05868 9.20902 2.2163 8.89531C2.53219 8.27275 3.03804 7.7669 3.6606 7.45101C3.97438 7.29341 4.3087 7.18058 4.6538 7.11581C5.00816 7.05129 5.36717 7.01567 5.7273 7.00931C5.9895 7.00121 6.3191 7.00031 6.6179 7.00031H6.8442H15.7168C15.7114 7.18951 15.7036 7.37771 15.7029 7.56931V7.72151V7.86431V8.00031H6.8442H6.7356H6.6179C6.3296 8.00031 6.0112 8.00091 5.7579 8.00881C5.45189 8.01332 5.14677 8.04292 4.8456 8.09731C4.59167 8.14419 4.34561 8.22663 4.1147 8.34221C3.68019 8.56211 3.32723 8.91497 3.1072 9.34941C2.99184 9.58005 2.90957 9.8258 2.8628 10.0794C2.78496 10.5705 2.75259 11.0678 2.7661 11.5649V11.8549V12.0788V44.9216V45.1421V45.438C2.75266 45.934 2.78503 46.4302 2.8628 46.9203C2.90947 47.1743 2.99182 47.4205 3.1074 47.6514C3.32719 48.0859 3.68005 48.4387 4.1145 48.6585C4.34543 48.774 4.59148 48.8564 4.8454 48.9033C5.28903 48.9757 5.73829 49.0077 6.1877 48.9991L6.4748 49.0003H6.8442H16.5356C16.7813 49.3893 17.0983 49.7285 17.4695 50.0003ZM14.352 8.58661C14.5943 8.58661 14.8267 8.68287 14.9981 8.85422C15.1694 9.02558 15.2657 9.25798 15.2657 9.50031C15.2657 9.74264 15.1694 9.97504 14.9981 10.1464C14.8267 10.3177 14.5943 10.414 14.352 10.414H10.1794C9.93707 10.414 9.70467 10.3177 9.53332 10.1464C9.36196 9.97504 9.2657 9.74264 9.2657 9.50031C9.2657 9.25798 9.36196 9.02558 9.53332 8.85422C9.70467 8.68287 9.93707 8.58661 10.1794 8.58661H14.352ZM14.4043 9.05031C14.3153 9.05031 14.2283 9.0767 14.1543 9.12615C14.0803 9.17559 14.0226 9.24587 13.9886 9.3281C13.9545 9.41033 13.9456 9.50081 13.9629 9.5881C13.9803 9.67539 14.0232 9.75557 14.0861 9.81851C14.149 9.88144 14.2292 9.9243 14.3165 9.94166C14.4038 9.95903 14.4943 9.95011 14.5765 9.91605C14.6587 9.88199 14.729 9.82432 14.7785 9.75032C14.8279 9.67631 14.8543 9.58931 14.8543 9.50031C14.8543 9.38096 14.8069 9.2665 14.7225 9.18211C14.6381 9.09772 14.5236 9.05031 14.4043 9.05031ZM31.2656 5.50031C31.2656 5.74261 31.1693 5.97498 30.998 6.14633C30.8267 6.31767 30.5943 6.41396 30.352 6.41401H26.1794C25.9371 6.41401 25.7047 6.31774 25.5333 6.14639C25.362 5.97504 25.2657 5.74264 25.2657 5.50031C25.2657 5.25798 25.362 5.02558 25.5333 4.85422C25.7047 4.68287 25.9371 4.58661 26.1794 4.58661H30.352C30.5943 4.58663 30.8267 4.68291 30.998 4.85426C31.1693 5.02561 31.2656 5.258 31.2656 5.50031ZM30.854 5.50031C30.854 5.41131 30.8276 5.3243 30.7782 5.2503C30.7287 5.1763 30.6584 5.11862 30.5762 5.08456C30.494 5.0505 30.4035 5.04159 30.3162 5.05895C30.2289 5.07632 30.1487 5.11918 30.0858 5.18211C30.0229 5.24504 29.98 5.32523 29.9626 5.41252C29.9453 5.49981 29.9542 5.59029 29.9883 5.67252C30.0223 5.75474 30.08 5.82502 30.154 5.87447C30.228 5.92392 30.315 5.95031 30.404 5.95031C30.5233 5.95031 30.6378 5.9029 30.7222 5.81851C30.8066 5.73412 30.854 5.61966 30.854 5.50031ZM39.7656 7.86691V45.1337C39.7656 45.2325 39.7656 45.3304 39.7651 45.4277C39.7792 45.9892 39.7407 46.5509 39.6499 47.1052C39.5849 47.4511 39.4717 47.7861 39.3137 48.1006C38.9972 48.7249 38.4899 49.2321 37.8656 49.5485C37.5512 49.7065 37.2162 49.8197 36.8703 49.8845C36.515 49.9492 36.1551 49.9849 35.7941 49.9913C35.5319 49.9994 35.2023 50.0003 34.9035 50.0003H34.6742H21.8567H21.4856C21.3869 50.0003 21.2889 50 21.1916 49.9993C20.7681 49.9997 20.3451 49.9721 19.9253 49.9169C19.8376 49.9046 19.7475 49.9015 19.6611 49.8847C19.3152 49.8199 18.9802 49.7067 18.6658 49.5487C18.3845 49.4038 18.1254 49.2191 17.8967 49.0003C17.874 48.979 17.8479 48.962 17.8259 48.9403C17.5802 48.6943 17.3749 48.411 17.2175 48.101C17.0595 47.7865 16.9463 47.4515 16.8813 47.1056C16.7903 46.5512 16.7516 45.9894 16.7656 45.4277C16.7656 45.3304 16.7656 45.2325 16.7656 45.1337V7.86691C16.7656 7.76801 16.7656 7.67011 16.7656 7.57281C16.7663 7.38101 16.7729 7.19091 16.7783 7.00041C16.7825 6.62987 16.8167 6.26029 16.8808 5.89531C16.946 5.54955 17.0594 5.21462 17.2175 4.90031C17.5338 4.27578 18.0411 3.76845 18.6656 3.45211C18.98 3.29407 19.315 3.18096 19.6609 3.11611C20.0161 3.0514 20.3761 3.01569 20.7371 3.00931C20.9993 3.00121 21.3289 3.00031 21.6277 3.00031H21.857H34.6745H34.8613H35.0456C35.1442 3.00031 35.2421 3.00031 35.3398 3.00131C35.8522 2.99221 36.3644 3.03057 36.8698 3.11591C37.2157 3.18077 37.5507 3.29387 37.8651 3.45191C38.4898 3.76822 38.9973 4.27563 39.3137 4.90031C39.4717 5.21475 39.5849 5.54977 39.6499 5.89561C39.7408 6.44983 39.7795 7.01135 39.7656 7.57281V7.86691ZM38.7656 7.86691V7.71811V7.57531C38.7791 7.07732 38.7468 6.57915 38.6689 6.08711C38.6218 5.83243 38.5391 5.58565 38.4233 5.35401C38.2027 4.91789 37.8484 4.56369 37.4123 4.34311C37.1807 4.22727 36.934 4.14463 36.6794 4.09761C36.2347 4.02502 35.7842 3.99285 35.3337 4.00151L35.0449 4.00031H34.8613H34.7688H21.8567H21.7467H21.6278C21.3392 4.00031 21.0211 4.00101 20.7678 4.00881C20.4607 4.01327 20.1545 4.04297 19.8523 4.09761C19.5976 4.14466 19.3508 4.22734 19.1191 4.34321C18.6832 4.5635 18.3291 4.91739 18.1086 5.35321C17.9926 5.58508 17.9099 5.83214 17.8628 6.08711C17.8107 6.38881 17.7824 6.69416 17.7783 7.00031C17.7724 7.18731 17.7668 7.37351 17.7661 7.57611V7.72401V7.86921V45.1337V45.2765V45.4252C17.7525 45.9232 17.7849 46.4213 17.8628 46.9133C17.9099 47.1681 17.9925 47.4149 18.1084 47.6466C18.3289 48.0826 18.6829 48.4367 19.1189 48.6573C19.3506 48.7732 19.5975 48.8559 19.8523 48.903C19.8716 48.9068 19.893 48.9066 19.9123 48.9101C20.3376 48.9752 20.7675 49.0049 21.1977 48.9991L21.4858 49.0001H21.8564H34.7849H34.9038C35.1924 49.0001 35.5105 48.9994 35.7638 48.9916C36.0709 48.987 36.3771 48.9573 36.6793 48.9028C36.934 48.8558 37.1808 48.7731 37.4125 48.6572C37.8482 48.4365 38.202 48.0824 38.4225 47.6466C38.5385 47.4148 38.6213 47.1677 38.6683 46.9128C38.7464 46.4207 38.779 45.9224 38.7656 45.4243V45.2825V45.1312V7.86691Z" fill="#1D1D1F"/>
</g>
<defs>
<clipPath id="clip0_162_3611">
<rect vector-effect="non-scaling-stroke" width="40" height="54" fill="white" transform="translate(0.765625)"/>
</clipPath>
</defs>
</svg>
