<svg preserveAspectRatio="none" width="39" height="54" viewBox="0 0 39 54" fill="none" xmlns="http://www.w3.org/2000/svg">
<g clip-path="url(#clip0_162_3618)">
<path vector-effect="non-scaling-stroke" d="M14.7179 49H5.86002H5.53212C5.09329 49.0109 4.65437 48.9818 4.22082 48.913C3.99506 48.8713 3.77626 48.7981 3.57082 48.6955C3.18697 48.5012 2.87517 48.1894 2.68082 47.8055C2.57821 47.6001 2.505 47.3813 2.46332 47.1555C2.42241 46.9349 2.39774 46.7116 2.38952 46.4874C2.37712 46.2339 2.37612 45.9596 2.37562 45.6984V11.2191C2.37562 10.9581 2.37712 10.6837 2.38952 10.4291C2.3978 10.2057 2.42237 9.98306 2.46302 9.76314C2.50482 9.53715 2.57814 9.31815 2.68082 9.11254C2.87504 8.72859 3.18687 8.41676 3.57082 8.22254C3.77639 8.11977 3.99541 8.04649 4.22142 8.00484C4.49401 7.95567 4.77017 7.92891 5.04712 7.92484C5.27902 7.91764 5.57052 7.91714 5.83492 7.91714H6.24192H7.25502C7.29446 7.91708 7.33352 7.92479 7.36998 7.93984C7.40644 7.95488 7.43957 7.97697 7.46748 8.00484C7.49539 8.0327 7.51753 8.06579 7.53264 8.10222C7.54775 8.13865 7.55552 8.17771 7.55552 8.21714V8.60714C7.55597 8.87264 7.66186 9.12709 7.8499 9.31453C8.03793 9.50197 8.29272 9.60704 8.55822 9.60664H13.8763V7.83534V7.43644C13.8763 7.26464 13.8827 7.17474 13.8863 7.00014H6.04192L5.83432 7.00004C5.55972 7.00004 5.25652 7.00074 5.01552 7.00824C4.68677 6.98706 4.35685 6.99221 4.02892 7.02364C3.71181 7.08311 3.40461 7.18679 3.11632 7.33164C2.5441 7.6217 2.07923 8.0866 1.78922 8.65884C1.64439 8.94712 1.54068 9.25428 1.48112 9.57134C1.43133 9.8388 1.40095 10.1095 1.39022 10.3813C1.37712 10.6498 1.37562 10.9407 1.37512 11.2173V11.5843V45.3331V45.7003C1.37512 45.9767 1.37712 46.2676 1.39022 46.5362C1.40096 46.8081 1.43133 47.0788 1.48112 47.3462C1.54067 47.6633 1.64438 47.9705 1.78922 48.2588C2.0794 48.831 2.54422 49.2958 3.11632 49.586C3.40465 49.7308 3.71183 49.8345 4.02892 49.894C4.52419 49.976 5.02604 50.0115 5.52792 50C5.63786 50 5.74856 50 5.86002 50H15.66C15.2869 49.7277 14.9676 49.3887 14.7179 49ZM9.75382 7.41944C9.75388 7.38422 9.7679 7.35046 9.79281 7.32556C9.81773 7.30067 9.8515 7.28667 9.88672 7.28664H12.9711C13.0064 7.28667 13.0402 7.30066 13.0651 7.32555C13.09 7.35044 13.1041 7.3842 13.1042 7.41944V7.44004C13.1041 7.4753 13.0901 7.50909 13.0651 7.534C13.0402 7.55891 13.0064 7.57292 12.9711 7.57294H9.88672C9.85148 7.57292 9.81769 7.55891 9.79278 7.53399C9.76786 7.50907 9.75385 7.47528 9.75382 7.44004V7.41944ZM8.21792 8.30004C8.26234 8.22652 8.32625 8.16673 8.40258 8.12731C8.4789 8.0879 8.56466 8.07039 8.65032 8.07674C8.76282 8.08611 8.86769 8.13741 8.94413 8.22048C9.02058 8.30354 9.063 8.41231 9.063 8.52519C9.063 8.63808 9.02058 8.74685 8.94413 8.82991C8.86769 8.91298 8.76282 8.96428 8.65032 8.97364C8.56798 8.98156 8.48506 8.96663 8.41065 8.93049C8.33625 8.89436 8.27324 8.83841 8.22856 8.7688C8.18387 8.69919 8.15924 8.61861 8.15736 8.53592C8.15549 8.45322 8.17644 8.37161 8.21792 8.30004ZM37.375 7.68804C37.3745 7.38624 37.3728 7.06874 37.3586 6.77574C37.347 6.4791 37.3139 6.18369 37.2595 5.89184C37.1947 5.54633 37.0817 5.21163 36.9238 4.89754C36.6079 4.27392 36.1013 3.76733 35.4777 3.45144C35.1636 3.29359 34.8289 3.18059 34.4834 3.11574C33.9384 3.026 33.3861 2.98743 32.8339 3.00054C32.6887 3.00054 32.5422 3.00054 32.3939 3.00054H20.4602H20.2336C19.9346 3.00054 19.6042 3.00144 19.3418 3.00954C18.9812 3.01598 18.6217 3.05166 18.2668 3.11624C17.9213 3.18105 17.5866 3.29405 17.2725 3.45194C16.6489 3.76783 16.1423 4.27442 15.8264 4.89804C15.6685 5.21213 15.5555 5.54683 15.4907 5.89234C15.4362 6.18417 15.4031 6.47959 15.3916 6.77624C15.3855 6.90204 15.387 7.03624 15.3845 7.16794C15.3816 7.34284 15.3755 7.51634 15.3752 7.68854V8.08574V44.9157C15.3752 45.0499 15.3752 45.1823 15.3752 45.3129C15.3757 45.6147 15.3774 45.9322 15.3916 46.2251C15.4031 46.5219 15.4362 46.8173 15.4907 47.1092C15.5556 47.4547 15.6686 47.7894 15.8264 48.1034C15.9836 48.4132 16.1887 48.6961 16.4341 48.9418C16.4617 48.9693 16.4941 48.9908 16.5227 49.0173C16.7466 49.2289 16.9991 49.4082 17.2727 49.5497C17.5868 49.7075 17.9215 49.8205 18.267 49.8852C18.5857 49.9426 18.9082 49.9757 19.2319 49.9842C19.4589 49.9935 19.687 49.9994 19.9165 50.0003C20.0236 50.0008 20.1316 50.0008 20.2404 50.0003H32.2904H32.5182C32.817 50.0003 33.1466 49.9994 33.4088 49.9913C33.7695 49.985 34.129 49.9493 34.4838 49.8846C34.8293 49.8198 35.164 49.7069 35.4781 49.5491C36.1016 49.233 36.6082 48.7264 36.9242 48.1028C37.0821 47.7888 37.1951 47.4541 37.2599 47.1086C37.3143 46.8167 37.3475 46.5213 37.359 46.2245C37.3732 45.9316 37.3749 45.6145 37.3754 45.3123C37.3754 45.1815 37.3754 45.0491 37.3754 44.9151V8.08524C37.375 7.95104 37.375 7.81894 37.375 7.68804ZM24.6462 3.59284C24.6462 3.55763 24.6602 3.52387 24.6851 3.49897C24.71 3.47407 24.7438 3.46007 24.779 3.46004H27.8635C27.8987 3.4601 27.9325 3.4741 27.9574 3.499C27.9823 3.52389 27.9963 3.55764 27.9963 3.59284V3.61364C27.9963 3.64887 27.9823 3.68264 27.9574 3.70755C27.9325 3.73247 27.8987 3.74649 27.8635 3.74654H24.779C24.7438 3.74652 24.71 3.7325 24.6851 3.70758C24.6602 3.68266 24.6462 3.64887 24.6462 3.61364V3.59284ZM23.1601 4.43054C23.2014 4.36222 23.2595 4.30566 23.329 4.26628C23.3984 4.22689 23.4768 4.20602 23.5566 4.20564L23.5927 4.20724C23.7052 4.21661 23.8101 4.26791 23.8865 4.35097C23.963 4.43404 24.0054 4.54281 24.0054 4.65569C24.0054 4.76858 23.963 4.87735 23.8865 4.96041C23.8101 5.04348 23.7052 5.09478 23.5927 5.10414L23.557 5.10574C23.4774 5.10701 23.3989 5.08712 23.3295 5.04812C23.2601 5.00912 23.2022 4.95241 23.1619 4.88376C23.1216 4.81511 23.1002 4.73698 23.0999 4.65736C23.0996 4.57774 23.1203 4.49947 23.1601 4.43054ZM36.375 44.9148V45.3104C36.375 45.5967 36.3718 45.8979 36.3584 46.1764C36.3492 46.4248 36.322 46.6721 36.2769 46.9164C36.2299 47.1708 36.1471 47.4173 36.0312 47.6486C35.8113 48.0836 35.4581 48.4368 35.0232 48.6567C34.792 48.7724 34.5456 48.855 34.2913 48.9018C33.9896 48.9564 33.6838 48.9861 33.3772 48.9905C33.1243 48.9983 32.8059 49.0005 32.5172 49.0005H20.2402L19.9199 49C19.679 48.9991 19.4437 48.9933 19.2141 48.9827C18.9607 48.9739 18.7082 48.9469 18.4587 48.9017C18.2045 48.8548 17.9581 48.7723 17.7268 48.6567C17.2919 48.4365 16.9386 48.0832 16.7185 47.6481C16.6027 47.4168 16.5201 47.1703 16.4731 46.9158C16.4279 46.6715 16.4006 46.4242 16.3916 46.1758C16.3782 45.8979 16.375 45.5967 16.375 45.31V44.8714V8.08524V7.69004C16.375 7.51744 16.3823 7.34304 16.3855 7.16784C16.3879 7.05244 16.3862 6.93454 16.3916 6.82394C16.4006 6.5756 16.4279 6.32825 16.4734 6.08394C16.5203 5.82949 16.6029 5.58294 16.7188 5.35164C16.9386 4.91666 17.2918 4.56343 17.7268 4.34364C17.9581 4.22798 18.2045 4.14544 18.4587 4.09844C18.7605 4.04404 19.0662 4.01441 19.3728 4.00984C19.6262 4.00204 19.9448 4.00134 20.2336 4.00134H20.3511H21.2019L22.1462 4.00194C22.1857 4.00184 22.2248 4.00952 22.2613 4.02455C22.2978 4.03958 22.3309 4.06166 22.3589 4.08953C22.3868 4.1174 22.409 4.1505 22.4241 4.18695C22.4392 4.2234 22.447 4.26248 22.447 4.30194V4.69194C22.4471 4.82343 22.4732 4.95361 22.5236 5.07504C22.5741 5.19647 22.6479 5.30677 22.741 5.39964C22.8341 5.4925 22.9446 5.56612 23.0661 5.61627C23.1877 5.66643 23.3179 5.69214 23.4494 5.69194H29.2494C29.5128 5.69231 29.7657 5.5889 29.9533 5.40412C30.141 5.21934 30.2482 4.96807 30.2519 4.70474L30.2568 4.29894C30.258 4.21997 30.2902 4.14462 30.3464 4.08919C30.4027 4.03376 30.4785 4.00271 30.5575 4.00274H31.5742V4.00124H32.3933H32.8298C33.3189 3.98908 33.8081 4.02141 34.2913 4.09784C34.5456 4.14478 34.792 4.22733 35.0232 4.34304C35.4583 4.56309 35.8116 4.91646 36.0315 5.35154C36.1473 5.58265 36.2298 5.82895 36.2766 6.08314C36.322 6.32748 36.3493 6.57481 36.3584 6.82314C36.3718 7.10114 36.3748 7.40244 36.375 7.68904V8.12764V44.9148Z" fill="#1D1D1F"/>
</g>
<defs>
<clipPath id="clip0_162_3618">
<rect vector-effect="non-scaling-stroke" width="38" height="54" fill="white" transform="translate(0.375)"/>
</clipPath>
</defs>
</svg>
