<svg preserveAspectRatio="none" width="23" height="54" viewBox="0 0 23 54" fill="none" xmlns="http://www.w3.org/2000/svg">
<g clip-path="url(#clip0_162_3638)">
<path vector-effect="non-scaling-stroke" d="M19.9062 6H3.90625C3.1106 6 2.34754 6.31607 1.78493 6.87868C1.22232 7.44129 0.90625 8.20435 0.90625 9L0.90625 47C0.90625 47.7956 1.22232 48.5587 1.78493 49.1213C2.34754 49.6839 3.1106 50 3.90625 50H19.9062C20.7019 50 21.465 49.6839 22.0276 49.1213C22.5902 48.5587 22.9062 47.7956 22.9062 47V9C22.9062 8.20435 22.5902 7.44129 22.0276 6.87868C21.465 6.31607 20.7019 6 19.9062 6ZM21.9062 47C21.9056 47.5302 21.6947 48.0386 21.3198 48.4135C20.9449 48.7885 20.4365 48.9994 19.9062 49H3.90625C3.376 48.9994 2.86765 48.7885 2.49271 48.4135C2.11777 48.0386 1.90686 47.5302 1.90625 47V9C1.90686 8.46975 2.11777 7.9614 2.49271 7.58646C2.86765 7.21152 3.376 7.00061 3.90625 7H6.53125C6.65627 6.99565 6.77791 7.04105 6.8695 7.12625C6.96109 7.21145 7.01516 7.3295 7.01985 7.4545V8.0709C7.02826 8.32302 7.13544 8.56174 7.31827 8.73555C7.5011 8.90936 7.74492 9.00434 7.99715 9H15.8153C16.0676 9.00434 16.3114 8.90936 16.4942 8.73555C16.6771 8.56174 16.7842 8.32302 16.7927 8.0709V7.4545C16.7973 7.3295 16.8514 7.21145 16.943 7.12625C17.0346 7.04105 17.1562 6.99565 17.2812 7H19.9062C20.4365 7.00061 20.9449 7.21152 21.3198 7.58646C21.6947 7.9614 21.9056 8.46975 21.9062 9V47ZM14.6593 7.5057C14.6585 7.57005 14.6387 7.63274 14.6024 7.68588C14.5661 7.73902 14.5149 7.78024 14.4553 7.80435C14.3956 7.82845 14.3301 7.83437 14.2671 7.82136C14.2041 7.80835 14.1463 7.77699 14.1011 7.73122C14.0558 7.68545 14.0251 7.62732 14.0129 7.56415C14.0006 7.50098 14.0073 7.43559 14.0321 7.37621C14.0569 7.31682 14.0987 7.2661 14.1522 7.23042C14.2058 7.19474 14.2687 7.1757 14.333 7.1757C14.3761 7.17595 14.4188 7.18468 14.4585 7.2014C14.4982 7.21812 14.5342 7.2425 14.5645 7.27314C14.5948 7.30378 14.6187 7.34009 14.635 7.38C14.6513 7.4199 14.6595 7.46261 14.6593 7.5057ZM13.5126 7.5057C13.5127 7.53834 13.5065 7.5707 13.4942 7.60093C13.4819 7.63117 13.4637 7.65868 13.4408 7.68189C13.4178 7.70511 13.3905 7.72358 13.3605 7.73624C13.3304 7.7489 13.2981 7.75552 13.2654 7.7557H11.2885C11.2221 7.7557 11.1586 7.72936 11.1117 7.68248C11.0648 7.63559 11.0385 7.572 11.0385 7.5057C11.0385 7.4394 11.0648 7.37581 11.1117 7.32892C11.1586 7.28204 11.2221 7.2557 11.2885 7.2557H13.2654C13.3314 7.2561 13.3944 7.28266 13.4408 7.32954C13.4871 7.37642 13.5129 7.43978 13.5126 7.5057Z" fill="#1D1D1F"/>
</g>
<defs>
<clipPath id="clip0_162_3638">
<rect vector-effect="non-scaling-stroke" width="22" height="54" fill="white" transform="translate(0.90625)"/>
</clipPath>
</defs>
</svg>
