<svg preserveAspectRatio="none" width="111" height="29" viewBox="0 0 111 29" fill="none" xmlns="http://www.w3.org/2000/svg">
<g clip-path="url(#clip0_4_165)">
<path vector-effect="non-scaling-stroke" d="M10.637 4.38855H27.8333L28.0782 3.29612C28.436 1.60097 27.1552 0 25.4224 0H8.7158C6.54978 0 4.68512 1.50679 4.21424 3.61631L0.56026 20.4924C0.202396 22.1876 1.48317 23.7886 3.21599 23.7886H4.23308L7.96241 6.53573C8.24493 5.29262 9.35619 4.38855 10.637 4.38855Z" fill="#00CDFA"/>
<path vector-effect="non-scaling-stroke" d="M28.8504 4.38855H27.8333L24.104 21.6414C23.8403 22.8845 22.729 23.7886 21.4482 23.7886H4.25189L4.00704 24.881C3.64917 26.5761 4.92995 28.1771 6.66277 28.1771H23.3694C25.5354 28.1771 27.4001 26.6703 27.8709 24.5608L31.5249 7.70351C31.8828 5.98952 30.5832 4.38855 28.8504 4.38855Z" fill="url(#paint0_linear_4_165)"/>
<path vector-effect="non-scaling-stroke" d="M24.104 21.6414L27.8333 4.38855H10.637C9.35623 4.38855 8.24497 5.27379 7.98128 6.53574L4.25195 23.7886H21.4483C22.7291 23.7886 23.8215 22.8845 24.104 21.6414Z" fill="#3A00FF"/>
<path vector-effect="non-scaling-stroke" d="M9.84745 17.2058L8.60303 10.7362H10.5545L11.1555 14.7735L13.1282 10.7362H14.4433L15.214 14.7735L17.0241 10.7362H18.9756L15.815 17.2058H14.1817L13.4039 13.4159L11.502 17.2058H9.84745Z" fill="white"/>
<path vector-effect="non-scaling-stroke" d="M18.2896 16.1593L19.3077 14.9785C19.7673 15.5442 20.3471 15.8341 21.0612 15.8341C21.5208 15.8341 21.9238 15.6432 21.9875 15.325C22.0087 15.1341 21.8814 14.9715 21.5844 14.8301C21.5137 14.7947 21.3582 14.7381 21.1107 14.6533C20.6228 14.4624 20.4107 14.3917 19.9865 14.123C19.3926 13.7553 19.1097 13.2463 19.2087 12.3695C19.3996 11.1746 20.4956 10.5099 21.8814 10.5099C22.8289 10.5099 23.6066 10.821 24.2359 11.4362L23.2319 12.6099C22.8147 12.221 22.3339 12.0301 21.7895 12.0301C21.3511 12.0301 21.0895 12.1574 21.0329 12.4331C20.9834 12.6594 21.1036 12.8503 21.3865 12.9776C21.4784 13.0271 21.6693 13.1048 21.9521 13.2109C22.2349 13.317 22.4753 13.4089 22.6733 13.522C23.3097 13.7907 24.0591 14.42 23.8329 15.3816C23.7268 16.0108 23.4086 16.5058 22.8713 16.8593C22.341 17.2129 21.6976 17.3896 20.9764 17.3896C19.8168 17.3825 18.9188 16.9795 18.2896 16.1593Z" fill="white"/>
<path vector-effect="non-scaling-stroke" d="M41.6581 20.5678H39.8311L36.2524 9.75653H38.6256L40.8105 17.0268L43.2591 9.75653H44.634L47.1391 17.0268L49.2862 9.75653H51.6595L48.0996 20.5678H46.2726L43.9748 13.4859L41.6581 20.5678Z" fill="white"/>
<path vector-effect="non-scaling-stroke" d="M53.6939 20.5678H51.6221V12.6006H53.6186V13.6742C54.0895 12.8078 54.824 12.3934 55.8034 12.3934C56.1236 12.3934 56.4438 12.4499 56.764 12.5629L56.5945 14.5406C56.2366 14.4276 55.9353 14.3711 55.6528 14.3711C55.05 14.3711 54.5792 14.5783 54.2213 14.9738C53.8823 15.3694 53.6939 15.9721 53.6939 16.782V20.5678Z" fill="white"/>
<path vector-effect="non-scaling-stroke" d="M59.5512 10.4346C59.5512 10.7924 59.4382 11.0938 59.1934 11.3387C58.9485 11.5835 58.6471 11.6965 58.2893 11.6965C57.9314 11.6965 57.6301 11.5835 57.3852 11.3387C57.1404 11.0938 57.0273 10.7924 57.0273 10.4346C57.0273 10.0767 57.1404 9.77535 57.3852 9.54933C57.6301 9.30448 57.9314 9.19147 58.2893 9.19147C58.6471 9.19147 58.9485 9.30448 59.1934 9.54933C59.4382 9.77535 59.5512 10.0767 59.5512 10.4346ZM59.3064 12.6006V20.5678H57.2345V12.6006H59.3064Z" fill="white"/>
<path vector-effect="non-scaling-stroke" d="M65.7103 18.4771L66.3319 20.0969C65.6727 20.5301 64.8816 20.7562 63.9775 20.7562C63.0546 20.7562 62.3766 20.4925 61.9057 19.9651C61.4348 19.4377 61.2088 18.6466 61.2088 17.6107V14.3146H59.9092V12.5818H61.2276V9.75653H63.2806V12.5818H65.9175V14.3146H63.2806V17.4789C63.2806 18.4206 63.6573 18.8915 64.4107 18.8915C64.7874 18.8915 65.2395 18.7596 65.7103 18.4771Z" fill="white"/>
<path vector-effect="non-scaling-stroke" d="M74.337 16.4053C74.337 16.6501 74.3181 16.9515 74.2616 17.3094H68.2721C68.5735 18.4395 69.3457 19.0045 70.5888 19.0045C71.5117 19.0045 72.3781 18.7408 73.1692 18.1946L73.9791 19.6449C72.962 20.3795 71.8131 20.7373 70.4946 20.7373C69.1009 20.7373 68.0273 20.3418 67.2739 19.5319C66.5393 18.7408 66.1626 17.7426 66.1626 16.5748C66.1626 15.3505 66.5393 14.3523 67.3115 13.58C68.0838 12.789 69.082 12.3934 70.3063 12.3934C71.4741 12.3934 72.4158 12.7513 73.1692 13.467C73.9603 14.2016 74.337 15.181 74.337 16.4053ZM70.344 14.1074C69.8354 14.1074 69.3834 14.2581 69.0255 14.5595C68.6677 14.8608 68.4228 15.2563 68.291 15.7837H72.3405C72.2463 15.2752 72.0203 14.8608 71.6624 14.5595C71.3045 14.2581 70.8713 14.1074 70.344 14.1074Z" fill="white"/>
<path vector-effect="non-scaling-stroke" d="M77.8025 20.775C76.4087 20.775 75.3163 20.2664 74.5063 19.2305L75.5988 17.9309C75.8813 18.2699 76.2203 18.5336 76.6159 18.7408C77.0114 18.948 77.4069 19.0422 77.8025 19.0422C78.1227 19.0422 78.3675 18.9668 78.5935 18.8162C78.8007 18.6655 78.9137 18.4771 78.9137 18.2511C78.9137 17.9686 78.7254 17.7426 78.3487 17.573C78.2357 17.5165 77.9155 17.4035 77.4069 17.2152C76.9549 17.0457 76.6159 16.9138 76.3898 16.782C75.4669 16.3488 75.0149 15.6519 75.0149 14.7101C75.0149 14.0132 75.2786 13.4482 75.8248 12.9773C76.3522 12.5253 77.0867 12.2993 77.9908 12.2993C79.1209 12.2993 80.0627 12.676 80.7784 13.4482L79.7613 14.7855C79.1962 14.2581 78.5935 13.9944 77.9343 13.9944C77.6706 13.9944 77.4446 14.0509 77.2751 14.1828C77.1056 14.3146 77.0114 14.4653 77.0114 14.6536C77.0114 14.9927 77.2374 15.2375 77.7083 15.3882C78.7442 15.7837 79.3846 16.0286 79.6295 16.1604C80.5335 16.6313 80.9667 17.3094 80.9667 18.1758C80.9667 18.9292 80.6654 19.5319 80.0815 20.0216C79.5164 20.5301 78.7631 20.775 77.8025 20.775Z" fill="white"/>
<path vector-effect="non-scaling-stroke" d="M81.3433 16.5748C81.3433 15.3882 81.7388 14.4088 82.5487 13.5988C83.3586 12.7889 84.3757 12.3746 85.6188 12.3746C86.8619 12.3746 87.879 12.7889 88.6889 13.5988C89.48 14.3899 89.8943 15.3882 89.8943 16.5748C89.8943 17.7614 89.4988 18.7596 88.6889 19.5507C87.879 20.3606 86.8619 20.7561 85.6188 20.7561C84.3757 20.7561 83.3586 20.3606 82.5487 19.5507C81.7388 18.7596 81.3433 17.7614 81.3433 16.5748ZM84.0367 18.1946C84.451 18.6278 84.9784 18.8538 85.6188 18.8538C86.2404 18.8538 86.7489 18.6278 87.1821 18.1946C87.6153 17.7425 87.8225 17.1963 87.8225 16.5748C87.8225 15.9532 87.6153 15.407 87.1821 14.9738C86.7489 14.5406 86.2404 14.3146 85.6188 14.3146C84.9784 14.3146 84.451 14.5406 84.0367 14.9738C83.6223 15.407 83.4151 15.9344 83.4151 16.5748C83.4151 17.2152 83.6223 17.7614 84.0367 18.1946Z" fill="white"/>
<path vector-effect="non-scaling-stroke" d="M92.814 20.5678H90.7422V12.6006H92.7575V13.7119C92.9647 13.3163 93.3037 12.9962 93.7558 12.7513C94.2078 12.5064 94.6975 12.3934 95.2626 12.3934C96.129 12.3934 96.8636 12.676 97.4663 13.2598C98.069 13.8437 98.3704 14.6536 98.3704 15.7084V20.5866H96.2985V16.2734C96.2985 15.6519 96.1478 15.1622 95.8465 14.8231C95.5451 14.4841 95.1307 14.2958 94.6222 14.2958C94.076 14.2958 93.6428 14.4841 93.3038 14.8608C92.9647 15.2375 92.7952 15.7272 92.7952 16.3111V20.5678H92.814Z" fill="white"/>
<path vector-effect="non-scaling-stroke" d="M101.911 10.4346C101.911 10.7924 101.798 11.0938 101.553 11.3387C101.308 11.5835 101.007 11.6965 100.649 11.6965C100.291 11.6965 99.9899 11.5835 99.7451 11.3387C99.5002 11.0938 99.3872 10.7924 99.3872 10.4346C99.3872 10.0767 99.5002 9.77535 99.7451 9.54933C99.9899 9.30448 100.291 9.19147 100.649 9.19147C101.007 9.19147 101.308 9.30448 101.553 9.54933C101.798 9.77535 101.911 10.0767 101.911 10.4346ZM101.666 12.6006V20.5678H99.5944V12.6006H101.666Z" fill="white"/>
<path vector-effect="non-scaling-stroke" d="M106.733 20.7561C105.509 20.7561 104.492 20.3606 103.682 19.5884C102.891 18.8161 102.495 17.8179 102.495 16.5936C102.495 15.3693 102.891 14.3711 103.701 13.5988C104.51 12.8078 105.546 12.4122 106.789 12.4122C107.599 12.4122 108.353 12.6006 109.012 12.9961C109.671 13.3917 110.18 13.9379 110.5 14.6348L108.843 15.5388C108.353 14.7289 107.675 14.3334 106.808 14.3334C106.149 14.3334 105.603 14.5594 105.189 14.9926C104.755 15.4258 104.548 15.9532 104.548 16.5936C104.548 17.2528 104.755 17.799 105.17 18.2322C105.603 18.6654 106.13 18.8726 106.771 18.8726C107.185 18.8726 107.581 18.7596 107.976 18.5336C108.353 18.3076 108.635 18.0251 108.805 17.6672L110.481 18.6466C110.142 19.287 109.634 19.7955 108.974 20.1911C108.296 20.5489 107.543 20.7561 106.733 20.7561Z" fill="white"/>
</g>
<defs>
<linearGradient vector-effect="non-scaling-stroke" id="paint0_linear_4_165" x1="3.94641" y1="16.2855" x2="31.5776" y2="16.2855" gradientUnits="userSpaceOnUse">
<stop stop-color="#FFB3FF"/>
<stop offset="0.5335" stop-color="#FF76DF"/>
<stop offset="1" stop-color="#C239C6"/>
</linearGradient>
<clipPath id="clip0_4_165">
<rect vector-effect="non-scaling-stroke" width="110" height="29" fill="white" transform="translate(0.5)"/>
</clipPath>
</defs>
</svg>
