<svg preserveAspectRatio="none" width="13" height="12" viewBox="0 0 13 12" fill="none" xmlns="http://www.w3.org/2000/svg">
<path vector-effect="non-scaling-stroke" fill-rule="evenodd" clip-rule="evenodd" d="M3.25 2H9.25V10H3.25V2ZM2.25 2C2.25 1.44772 2.69772 1 3.25 1H9.25C9.80228 1 10.25 1.44772 10.25 2V10C10.25 10.5523 9.80228 11 9.25 11H3.25C2.69772 11 2.25 10.5523 2.25 10V2ZM6.25 9C6.52614 9 6.75 8.77614 6.75 8.5C6.75 8.22386 6.52614 8 6.25 8C5.97386 8 5.75 8.22386 5.75 8.5C5.75 8.77614 5.97386 9 6.25 9Z" fill="#AF5883"/>
</svg>
