<svg preserveAspectRatio="none" width="20" height="20" viewBox="0 0 20 20" fill="none" xmlns="http://www.w3.org/2000/svg">
<path vector-effect="non-scaling-stroke" d="M11.2508 17.4999H8.75079M7.50075 14.9999C3.16481 7.48432 8.12575 2.73432 9.61013 1.54682C9.71972 1.45529 9.85797 1.40515 10.0008 1.40515C10.1435 1.40515 10.2818 1.45529 10.3914 1.54682C11.8601 2.74213 16.7508 7.48432 12.5008 14.9999M7.50075 14.9999H12.5008M7.50075 14.9999L5.15704 16.8749C5.07422 16.941 4.97594 16.9851 4.87143 17.0028C4.76692 17.0205 4.65961 17.0114 4.55961 16.9762C4.45961 16.9411 4.37019 16.881 4.29977 16.8018C4.22934 16.7226 4.18023 16.6268 4.15704 16.5233L3.1961 12.1718C3.17293 12.0797 3.17219 11.9834 3.19395 11.8909C3.2157 11.7985 3.2593 11.7126 3.3211 11.6405L5.77422 8.703M12.5008 14.9999L14.8445 16.8749C14.9274 16.941 15.0256 16.9851 15.1302 17.0028C15.2347 17.0205 15.342 17.0114 15.442 16.9762C15.542 16.9411 15.6314 16.881 15.7018 16.8018C15.7722 16.7226 15.8214 16.6268 15.8445 16.5233L16.8055 12.1718C16.8286 12.0797 16.8294 11.9834 16.8076 11.8909C16.7859 11.7985 16.7423 11.7126 16.6805 11.6405L14.1805 8.6405" stroke="white" stroke-width="1.66667" stroke-linecap="round" stroke-linejoin="round"/>
<path vector-effect="non-scaling-stroke" d="M10 8.4375C10.5178 8.4375 10.9375 8.01777 10.9375 7.5C10.9375 6.98223 10.5178 6.5625 10 6.5625C9.48223 6.5625 9.0625 6.98223 9.0625 7.5C9.0625 8.01777 9.48223 8.4375 10 8.4375Z" fill="white"/>
</svg>
