<svg preserveAspectRatio="none" width="150" height="16" viewBox="0 0 150 16" fill="none" xmlns="http://www.w3.org/2000/svg">
<path vector-effect="non-scaling-stroke" d="M5.61 10.9102H5.907V0.449219H8.085V11.9992H3.828L2.475 1.53822H2.178V11.9992H0V0.449219H4.257L5.61 10.9102Z" fill="white"/>
<path vector-effect="non-scaling-stroke" d="M10.5485 0.449219H17.9405V2.52822H12.7265V5.16822H17.8415V7.24722H12.7265V11.9992H10.5485V0.449219Z" fill="white"/>
<path vector-effect="non-scaling-stroke" d="M20.0906 0.449219H28.4066V2.52822H25.3376V11.9992H23.1596V2.52822H20.0906V0.449219Z" fill="white"/>
<path vector-effect="non-scaling-stroke" d="M39.7686 0.449219H43.5966L44.2566 9.12822V10.8112H44.6526V9.12822L45.3126 0.449219H49.1406V11.9992H47.1606V4.27722L47.3586 1.63722H46.9626L46.1046 11.9992H42.8376L41.9466 1.63722H41.5506L41.7486 4.27722V11.9992H39.7686V0.449219Z" fill="white"/>
<path vector-effect="non-scaling-stroke" d="M56.0921 10.8112C55.8721 11.3282 55.5641 11.6967 55.1681 11.9167C54.7721 12.1257 54.3101 12.2302 53.7821 12.2302C53.2871 12.2302 52.8196 12.1367 52.3796 11.9497C51.9506 11.7627 51.5711 11.4877 51.2411 11.1247C50.9111 10.7617 50.6471 10.3217 50.4491 9.80472C50.2621 9.28772 50.1686 8.69922 50.1686 8.03922V7.77522C50.1686 7.12622 50.2621 6.54322 50.4491 6.02622C50.6361 5.50922 50.8891 5.06922 51.2081 4.70622C51.5271 4.34322 51.8956 4.06822 52.3136 3.88122C52.7426 3.68322 53.1991 3.58422 53.6831 3.58422C54.2661 3.58422 54.7336 3.68322 55.0856 3.88122C55.4486 4.07922 55.7346 4.38722 55.9436 4.80522H56.2406V3.81522H58.3196V9.52422C58.3196 9.85422 58.4681 10.0192 58.7651 10.0192H59.0786V11.9992H57.6596C57.2856 11.9992 56.9776 11.8892 56.7356 11.6692C56.5046 11.4492 56.3891 11.1632 56.3891 10.8112H56.0921ZM54.2441 10.2502C54.8491 10.2502 55.3331 10.0522 55.6961 9.65622C56.0591 9.24922 56.2406 8.69922 56.2406 8.00622V7.80822C56.2406 7.11522 56.0591 6.57072 55.6961 6.17472C55.3331 5.76772 54.8491 5.56422 54.2441 5.56422C53.6391 5.56422 53.1551 5.76772 52.7921 6.17472C52.4291 6.57072 52.2476 7.11522 52.2476 7.80822V8.00622C52.2476 8.69922 52.4291 9.24922 52.7921 9.65622C53.1551 10.0522 53.6391 10.2502 54.2441 10.2502Z" fill="white"/>
<path vector-effect="non-scaling-stroke" d="M60.5027 3.81522H63.9677V5.00322H64.2647C64.4187 4.55222 64.6772 4.20572 65.0402 3.96372C65.4142 3.71072 65.8597 3.58422 66.3767 3.58422C67.1907 3.58422 67.8452 3.84272 68.3402 4.35972C68.8352 4.86572 69.0827 5.64122 69.0827 6.68622V7.04922L66.9377 7.24722V7.01622C66.9377 6.56522 66.8222 6.20772 66.5912 5.94372C66.3602 5.66872 66.0137 5.53122 65.5517 5.53122C65.0897 5.53122 64.7267 5.69072 64.4627 6.00972C64.1987 6.32872 64.0667 6.78522 64.0667 7.37922V10.0192H65.9477V11.9992H60.3047V10.0192H61.9877V5.79522H60.5027V3.81522Z" fill="white"/>
<path vector-effect="non-scaling-stroke" d="M73.7407 6.81822H74.1367L76.3147 3.81522H78.5917V3.91422L75.9517 7.65972V7.95672L78.8557 11.9002V11.9992H76.4797L74.1367 8.79822H73.7407V11.9992H71.6617V0.449219H73.7407V6.81822Z" fill="white"/>
<path vector-effect="non-scaling-stroke" d="M82.9362 8.58372C82.9472 8.82572 83.0022 9.05122 83.1012 9.26022C83.2112 9.45822 83.3542 9.63422 83.5302 9.78822C83.7172 9.93122 83.9262 10.0467 84.1572 10.1347C84.3992 10.2117 84.6522 10.2502 84.9162 10.2502C85.4332 10.2502 85.8292 10.1622 86.1042 9.98622C86.3792 9.79922 86.5772 9.57922 86.6982 9.32622L88.4802 10.3162C88.3812 10.5252 88.2437 10.7452 88.0677 10.9762C87.8917 11.1962 87.6607 11.3997 87.3747 11.5867C87.0997 11.7737 86.7587 11.9277 86.3517 12.0487C85.9557 12.1697 85.4882 12.2302 84.9492 12.2302C84.3332 12.2302 83.7722 12.1312 83.2662 11.9332C82.7602 11.7352 82.3202 11.4492 81.9462 11.0752C81.5832 10.7012 81.2972 10.2447 81.0882 9.70572C80.8902 9.16672 80.7912 8.55622 80.7912 7.87422V7.77522C80.7912 7.14822 80.8957 6.57622 81.1047 6.05922C81.3247 5.54222 81.6217 5.10222 81.9957 4.73922C82.3697 4.37622 82.8042 4.09572 83.2992 3.89772C83.8052 3.68872 84.3442 3.58422 84.9162 3.58422C85.6202 3.58422 86.2252 3.71072 86.7312 3.96372C87.2372 4.20572 87.6552 4.51922 87.9852 4.90422C88.3152 5.27822 88.5572 5.69622 88.7112 6.15822C88.8652 6.60922 88.9422 7.04922 88.9422 7.47822V8.58372H82.9362ZM84.8997 5.46522C84.3717 5.46522 83.9427 5.60272 83.6127 5.87772C83.2827 6.14172 83.0682 6.44972 82.9692 6.80172H86.8302C86.7642 6.41672 86.5552 6.09772 86.2032 5.84472C85.8622 5.59172 85.4277 5.46522 84.8997 5.46522Z" fill="white"/>
<path vector-effect="non-scaling-stroke" d="M90.9767 3.81522H93.4023V0.449219H95.4813V3.81522H98.4348V5.79522H95.4813V9.52422C95.4813 9.85422 95.6297 10.0192 95.9267 10.0192H98.1378V11.9992H94.6728C94.2988 11.9992 93.9908 11.8782 93.7488 11.6362C93.5178 11.3942 93.4023 11.0862 93.4023 10.7122V5.79522H90.9767V3.81522Z" fill="white"/>
<path vector-effect="non-scaling-stroke" d="M102.961 15.2992H100.882V3.81522H102.961V5.00322H103.258C103.478 4.55222 103.797 4.20572 104.215 3.96372C104.633 3.71072 105.166 3.58422 105.815 3.58422C106.299 3.58422 106.756 3.67772 107.185 3.86472C107.625 4.05172 108.004 4.32672 108.323 4.68972C108.653 5.04172 108.912 5.47622 109.099 5.99322C109.297 6.51022 109.396 7.09872 109.396 7.75872V8.05572C109.396 8.72672 109.302 9.32072 109.115 9.83772C108.928 10.3547 108.675 10.7947 108.356 11.1577C108.037 11.5097 107.658 11.7792 107.218 11.9662C106.789 12.1422 106.321 12.2302 105.815 12.2302C105.441 12.2302 105.117 12.1917 104.842 12.1147C104.567 12.0377 104.325 11.9332 104.116 11.8012C103.918 11.6692 103.747 11.5207 103.604 11.3557C103.472 11.1797 103.357 10.9982 103.258 10.8112H102.961V15.2992ZM105.139 10.2502C105.788 10.2502 106.31 10.0522 106.706 9.65622C107.113 9.24922 107.317 8.69922 107.317 8.00622V7.80822C107.317 7.11522 107.113 6.57072 106.706 6.17472C106.31 5.76772 105.788 5.56422 105.139 5.56422C104.49 5.56422 103.962 5.77322 103.555 6.19122C103.159 6.59822 102.961 7.13722 102.961 7.80822V8.00622C102.961 8.67722 103.159 9.22172 103.555 9.63972C103.962 10.0467 104.49 10.2502 105.139 10.2502Z" fill="white"/>
<path vector-effect="non-scaling-stroke" d="M111.364 10.0192H114.235V2.42922H111.463V0.449219H116.314V10.0192H118.987V11.9992H111.364V10.0192Z" fill="white"/>
<path vector-effect="non-scaling-stroke" d="M126.813 10.8112C126.593 11.3282 126.285 11.6967 125.889 11.9167C125.493 12.1257 125.031 12.2302 124.503 12.2302C124.008 12.2302 123.541 12.1367 123.101 11.9497C122.672 11.7627 122.292 11.4877 121.962 11.1247C121.632 10.7617 121.368 10.3217 121.17 9.80472C120.983 9.28772 120.89 8.69922 120.89 8.03922V7.77522C120.89 7.12622 120.983 6.54322 121.17 6.02622C121.357 5.50922 121.61 5.06922 121.929 4.70622C122.248 4.34322 122.617 4.06822 123.035 3.88122C123.464 3.68322 123.92 3.58422 124.404 3.58422C124.987 3.58422 125.455 3.68322 125.807 3.88122C126.17 4.07922 126.456 4.38722 126.665 4.80522H126.962V3.81522H129.041V9.52422C129.041 9.85422 129.189 10.0192 129.486 10.0192H129.8V11.9992H128.381C128.007 11.9992 127.699 11.8892 127.457 11.6692C127.226 11.4492 127.11 11.1632 127.11 10.8112H126.813ZM124.965 10.2502C125.57 10.2502 126.054 10.0522 126.417 9.65622C126.78 9.24922 126.962 8.69922 126.962 8.00622V7.80822C126.962 7.11522 126.78 6.57072 126.417 6.17472C126.054 5.76772 125.57 5.56422 124.965 5.56422C124.36 5.56422 123.876 5.76772 123.513 6.17472C123.15 6.57072 122.969 7.11522 122.969 7.80822V8.00622C122.969 8.69922 123.15 9.24922 123.513 9.65622C123.876 10.0522 124.36 10.2502 124.965 10.2502Z" fill="white"/>
<path vector-effect="non-scaling-stroke" d="M139.606 8.99622C139.419 9.96422 138.973 10.7452 138.269 11.3392C137.576 11.9332 136.647 12.2302 135.481 12.2302C134.876 12.2302 134.309 12.1367 133.781 11.9497C133.264 11.7627 132.813 11.4932 132.428 11.1412C132.043 10.7892 131.741 10.3547 131.521 9.83772C131.301 9.32072 131.191 8.73222 131.191 8.07222V7.87422C131.191 7.21422 131.301 6.62022 131.521 6.09222C131.741 5.56422 132.043 5.11322 132.428 4.73922C132.824 4.36522 133.281 4.07922 133.798 3.88122C134.326 3.68322 134.887 3.58422 135.481 3.58422C136.625 3.58422 137.549 3.88122 138.253 4.47522C138.968 5.06922 139.419 5.85022 139.606 6.81822L137.56 7.34622C137.494 6.86222 137.285 6.44422 136.933 6.09222C136.581 5.74022 136.086 5.56422 135.448 5.56422C135.151 5.56422 134.87 5.61922 134.606 5.72922C134.342 5.83922 134.111 5.99872 133.913 6.20772C133.715 6.40572 133.556 6.65322 133.435 6.95022C133.325 7.23622 133.27 7.56072 133.27 7.92372V8.02272C133.27 8.38572 133.325 8.71022 133.435 8.99622C133.556 9.27122 133.715 9.50222 133.913 9.68922C134.111 9.87622 134.342 10.0192 134.606 10.1182C134.87 10.2062 135.151 10.2502 135.448 10.2502C136.086 10.2502 136.57 10.0907 136.9 9.77172C137.241 9.45272 137.461 9.02372 137.56 8.48472L139.606 8.99622Z" fill="white"/>
<path vector-effect="non-scaling-stroke" d="M143.554 8.58372C143.565 8.82572 143.62 9.05122 143.719 9.26022C143.829 9.45822 143.972 9.63422 144.148 9.78822C144.335 9.93122 144.544 10.0467 144.775 10.1347C145.017 10.2117 145.27 10.2502 145.534 10.2502C146.051 10.2502 146.447 10.1622 146.722 9.98622C146.997 9.79922 147.195 9.57922 147.316 9.32622L149.098 10.3162C148.999 10.5252 148.862 10.7452 148.686 10.9762C148.51 11.1962 148.279 11.3997 147.993 11.5867C147.718 11.7737 147.377 11.9277 146.97 12.0487C146.574 12.1697 146.106 12.2302 145.567 12.2302C144.951 12.2302 144.39 12.1312 143.884 11.9332C143.378 11.7352 142.938 11.4492 142.564 11.0752C142.201 10.7012 141.915 10.2447 141.706 9.70572C141.508 9.16672 141.409 8.55622 141.409 7.87422V7.77522C141.409 7.14822 141.514 6.57622 141.723 6.05922C141.943 5.54222 142.24 5.10222 142.614 4.73922C142.988 4.37622 143.422 4.09572 143.917 3.89772C144.423 3.68872 144.962 3.58422 145.534 3.58422C146.238 3.58422 146.843 3.71072 147.349 3.96372C147.855 4.20572 148.273 4.51922 148.603 4.90422C148.933 5.27822 149.175 5.69622 149.329 6.15822C149.483 6.60922 149.56 7.04922 149.56 7.47822V8.58372H143.554ZM145.518 5.46522C144.99 5.46522 144.561 5.60272 144.231 5.87772C143.901 6.14172 143.686 6.44972 143.587 6.80172H147.448C147.382 6.41672 147.173 6.09772 146.821 5.84472C146.48 5.59172 146.046 5.46522 145.518 5.46522Z" fill="white"/>
</svg>
