<svg preserveAspectRatio="none" width="1716" height="390" viewBox="0 0 1716 390" fill="none" xmlns="http://www.w3.org/2000/svg">
<circle vector-effect="non-scaling-stroke" cx="1679.94" cy="14.846" r="12.4495" stroke="white" stroke-opacity="0.5" stroke-width="3"/>
<circle vector-effect="non-scaling-stroke" cx="14.5884" cy="326.027" r="12.4495" stroke="white" stroke-opacity="0.5" stroke-width="3"/>
<path vector-effect="non-scaling-stroke" d="M1110.82 348.42C1112.55 345.42 1116.88 345.42 1118.62 348.42L1130.06 368.244C1131.79 371.244 1129.63 374.994 1126.17 374.994H1103.27C1099.81 374.994 1097.64 371.244 1099.38 368.244L1110.82 348.42Z" stroke="white" stroke-opacity="0.5" stroke-width="3"/>
<path vector-effect="non-scaling-stroke" d="M379.761 159.734C382.211 157.285 386.394 158.406 387.29 161.752L393.215 183.863C394.111 187.209 391.05 190.271 387.704 189.375L365.592 183.45C362.246 182.553 361.125 178.371 363.575 175.921L379.761 159.734Z" stroke="white" stroke-opacity="0.5" stroke-width="3"/>
<path vector-effect="non-scaling-stroke" d="M1688.84 322.065C1689.28 320.683 1691.24 320.683 1691.69 322.065L1693.82 328.635C1694.43 330.489 1696.15 331.744 1698.1 331.744H1705.01C1706.46 331.744 1707.07 333.604 1705.89 334.458L1700.3 338.518C1698.73 339.664 1698.07 341.695 1698.67 343.55L1700.8 350.12C1701.25 351.502 1699.67 352.651 1698.5 351.797L1692.91 347.736C1691.33 346.59 1689.19 346.59 1687.62 347.736L1682.03 351.797C1680.85 352.651 1679.27 351.501 1679.72 350.12L1681.85 343.55C1682.46 341.695 1681.8 339.664 1680.22 338.518L1674.63 334.458C1673.46 333.604 1674.06 331.744 1675.51 331.744H1682.42C1684.37 331.744 1686.1 330.489 1686.7 328.635L1688.84 322.065Z" stroke="white" stroke-opacity="0.5" stroke-width="3"/>
<path vector-effect="non-scaling-stroke" d="M388.188 343.856C388.637 342.474 390.593 342.474 391.042 343.856L393.417 351.167C394.02 353.021 395.747 354.277 397.697 354.277H405.385C406.838 354.277 407.442 356.136 406.266 356.99L400.047 361.509C398.47 362.655 397.81 364.686 398.412 366.54L400.788 373.851C401.237 375.233 399.655 376.383 398.479 375.529L392.26 371.01C390.683 369.864 388.547 369.864 386.97 371.01L380.75 375.529C379.575 376.383 377.993 375.233 378.442 373.851L380.818 366.54C381.42 364.686 380.76 362.655 379.183 361.509L372.964 356.99C371.788 356.136 372.392 354.277 373.845 354.277H381.533C383.483 354.277 385.21 353.021 385.813 351.167L388.188 343.856Z" stroke="white" stroke-opacity="0.5" stroke-width="3"/>
<rect vector-effect="non-scaling-stroke" x="1385.28" y="241.684" width="25.972" height="25.972" rx="5.5" stroke="white" stroke-opacity="0.5" stroke-width="3"/>
<rect vector-effect="non-scaling-stroke" x="171.218" y="23.5058" width="25.972" height="25.972" rx="5.5" transform="rotate(-30 171.218 23.5058)" stroke="white" stroke-opacity="0.5" stroke-width="3"/>
</svg>
