<svg preserveAspectRatio="none" width="34" height="25" viewBox="0 0 34 25" fill="none" xmlns="http://www.w3.org/2000/svg">
<path vector-effect="non-scaling-stroke" d="M33.1105 5.52053C33.1105 2.591 30.9557 0.234362 28.2931 0.234362C24.6865 0.0651005 21.0084 0 17.2521 0C17.0567 0 16.8614 0 16.6661 0C16.4708 0 16.2755 0 16.0802 0C12.3304 0 8.64576 0.0651005 5.03919 0.234362C2.38309 0.234362 0.228258 2.60402 0.228258 5.53355C0.065507 7.85113 -0.00610365 10.1687 0.000406409 12.4863C-0.00610365 14.8039 0.065507 17.1214 0.221748 19.4455C0.221748 22.3751 2.37658 24.7512 5.03268 24.7512C8.82153 24.927 12.708 25.0051 16.6596 24.9986C20.6177 25.0116 24.4912 24.9335 28.2866 24.7512C30.9492 24.7512 33.104 22.3751 33.104 19.4455C33.2603 17.1214 33.3319 14.8039 33.3254 12.4798C33.3384 10.1622 33.2668 7.84462 33.1105 5.52053ZM13.4762 18.8726V6.08039L22.9158 12.4733L13.4762 18.8726Z" fill="#606060"/>
</svg>
