<svg preserveAspectRatio="none" width="34" height="26" viewBox="0 0 34 26" fill="none" xmlns="http://www.w3.org/2000/svg">
<path vector-effect="non-scaling-stroke" d="M33.1105 6.48146C33.1105 3.55194 30.9557 1.1953 28.2931 1.1953C24.6865 1.02604 21.0084 0.960938 17.2521 0.960938C17.0567 0.960938 16.8614 0.960938 16.6661 0.960938C16.4708 0.960938 16.2755 0.960938 16.0802 0.960938C12.3304 0.960938 8.64576 1.02604 5.03919 1.1953C2.38309 1.1953 0.228258 3.56496 0.228258 6.49448C0.065507 8.81206 -0.00610365 11.1296 0.000406409 13.4472C-0.00610365 15.7648 0.065507 18.0824 0.221748 20.4065C0.221748 23.336 2.37658 25.7122 5.03268 25.7122C8.82153 25.8879 12.708 25.9661 16.6596 25.9595C20.6177 25.9726 24.4912 25.8944 28.2866 25.7122C30.9492 25.7122 33.104 23.336 33.104 20.4065C33.2603 18.0824 33.3319 15.7648 33.3254 13.4407C33.3384 11.1231 33.2668 8.80555 33.1105 6.48146ZM13.4762 19.8336V7.04133L22.9158 13.4342L13.4762 19.8336Z" fill="#EF790C"/>
</svg>
