<svg preserveAspectRatio="none" width="24" height="24" viewBox="0 0 24 24" fill="none" xmlns="http://www.w3.org/2000/svg">
<path vector-effect="non-scaling-stroke" fill-rule="evenodd" clip-rule="evenodd" d="M4 4H9V9H4V4ZM2 4C2 2.89543 2.89543 2 4 2H9H11V4V9V11H9H4H2V9V4ZM4 15H9V20H4L4 15ZM2 13H4H9H11V15V20V22H9H4C2.89543 22 2 21.1046 2 20V15V13ZM20 4H15V9H20V4ZM15 2H13V4V9V11H15H20H22V9V4C22 2.89543 21.1046 2 20 2H15ZM7.5 5.5H5.5V7.5H7.5V5.5ZM5.5 16.5H7.5V18.5H5.5V16.5ZM18.5 5.5H16.5V7.5H18.5V5.5ZM16.5 16.5H18.5V18.5H16.5V16.5ZM15 15H18V13H15H13V15V16.5H15V15ZM20 20V18.5H22V20C22 21.1046 21.1046 22 20 22H17V20H20ZM22 15V16.5H20V15V13H22V15ZM13 18.5H15V20V22H13V20V18.5Z" fill="black"/>
</svg>
