<svg preserveAspectRatio="none" width="32" height="32" viewBox="0 0 32 32" fill="none" xmlns="http://www.w3.org/2000/svg">
<path vector-effect="non-scaling-stroke" fill-rule="evenodd" clip-rule="evenodd" d="M9.87284 19.9183C10.0489 20.4418 9.76722 21.0089 9.24374 21.1849C7.54867 21.755 6.64783 23.1779 6.16596 24.6249C5.97462 25.1995 5.85902 25.7527 5.78956 26.21C6.24694 26.1406 6.80009 26.025 7.37468 25.8336C8.82168 25.3518 10.2446 24.4509 10.8147 22.7558C10.9907 22.2324 11.5578 21.9507 12.0812 22.1267C12.6047 22.3028 12.8864 22.8699 12.7103 23.3933C11.8554 25.9358 9.74082 27.1537 8.00657 27.7312C7.13049 28.0229 6.31032 28.1669 5.71168 28.2388C5.41091 28.2748 5.16226 28.2931 4.98561 28.3024C4.89719 28.3071 4.82652 28.3095 4.77608 28.3107C4.75085 28.3114 4.73066 28.3117 4.7158 28.3119L4.69754 28.3121L4.69148 28.3121L4.68923 28.3121L4.6883 28.3121C4.68789 28.3121 4.6875 28.3121 4.6875 27.3121C3.6875 27.3121 3.6875 27.3117 3.6875 27.3113L3.6875 27.3104L3.68751 27.3081L3.68753 27.302L3.6877 27.2838C3.68788 27.2689 3.68822 27.2487 3.68884 27.2235C3.69009 27.1731 3.69251 27.1024 3.69716 27.014C3.70645 26.8373 3.72475 26.5887 3.76083 26.2879C3.83264 25.6893 3.97667 24.8691 4.26841 23.993C4.84592 22.2588 6.06383 20.1442 8.60626 19.2892C9.12974 19.1132 9.6968 19.3949 9.87284 19.9183ZM4.6875 27.3121H3.6875C3.6875 27.8644 4.13522 28.3121 4.6875 28.3121V27.3121Z" fill="white"/>
<path vector-effect="non-scaling-stroke" fill-rule="evenodd" clip-rule="evenodd" d="M26.4738 5.5264C25.3131 5.359 22.456 5.29593 19.532 8.21995L11.7516 16.0003L15.9999 20.2486L23.7803 12.4682C26.7043 9.54422 26.6412 6.68712 26.4738 5.5264ZM26.7638 3.54753C25.1675 3.31641 21.6091 3.31441 18.1178 6.80574L9.6303 15.2932C9.44276 15.4808 9.3374 15.7351 9.3374 16.0003C9.3374 16.2656 9.44276 16.5199 9.6303 16.7075L15.2928 22.37C15.6833 22.7605 16.3165 22.7605 16.707 22.37L25.1945 13.8825C28.6858 10.3911 28.6838 6.83274 28.4527 5.23641C28.3942 4.80918 28.1975 4.41275 27.8925 4.10775C27.5875 3.80274 27.1911 3.60602 26.7638 3.54753Z" fill="white"/>
<path vector-effect="non-scaling-stroke" fill-rule="evenodd" clip-rule="evenodd" d="M23.075 13.5879C23.6272 13.5879 24.075 14.0356 24.075 14.5879V22.6629L24.0748 22.6771C24.0674 23.2024 23.8535 23.7035 23.4797 24.0723L19.4441 28.1204C19.188 28.3763 18.8671 28.5578 18.5158 28.6457C18.1646 28.7335 17.796 28.7243 17.4496 28.6191C17.1031 28.5138 16.7917 28.3165 16.5486 28.0482C16.3057 27.7801 16.14 27.4511 16.0693 27.0962C16.0693 27.0959 16.0694 27.0965 16.0693 27.0962L15.0195 21.8595C14.9109 21.3179 15.2619 20.791 15.8034 20.6824C16.3449 20.5738 16.8719 20.9248 16.9804 21.4663L18.0307 26.7054L22.0749 22.6487V14.5879C22.0749 14.0356 22.5227 13.5879 23.075 13.5879Z" fill="white"/>
<path vector-effect="non-scaling-stroke" fill-rule="evenodd" clip-rule="evenodd" d="M9.32317 7.92491L9.33741 7.9248H17.4124C17.9647 7.9248 18.4124 8.37252 18.4124 8.9248C18.4124 9.47709 17.9647 9.9248 17.4124 9.9248H9.35155L9.34347 9.93305L9.34342 9.933L5.29492 13.969L5.29647 13.9693L10.534 15.0193C11.0755 15.1279 11.4265 15.6549 11.3179 16.1964C11.2093 16.7379 10.6824 17.0889 10.1408 16.9803L4.90489 15.9306C4.90459 15.9305 4.90429 15.9305 4.90399 15.9304C4.5492 15.8597 4.22022 15.6941 3.9521 15.4512C3.68376 15.2081 3.48645 14.8967 3.38123 14.5502C3.27601 14.2037 3.26682 13.8352 3.35464 13.4839C3.44246 13.1326 3.624 12.8118 3.87989 12.5556L3.88139 12.5541L3.8814 12.5541L7.92796 8.52003C8.29678 8.14622 8.79791 7.93239 9.32317 7.92491Z" fill="white"/>
</svg>
