<svg preserveAspectRatio="none" width="70" height="75" viewBox="0 0 70 75" fill="none" xmlns="http://www.w3.org/2000/svg">
<g clip-path="url(#clip0_1201_6963)">
<path vector-effect="non-scaling-stroke" d="M29.2115 6.96643C25.2328 17.1985 21.3308 27.5 17.3904 37.7668C17.0881 38.5464 17.8616 38.8362 18.2323 38.7921C21.0891 38.445 23.6119 36.0715 26.048 34.2244C28.4841 32.3774 31.0019 30.3573 33.4421 28.3182C38.3225 24.2401 42.9994 19.7788 47.6861 15.2858L45.9428 14.3823C42.2327 21.5228 38.7162 28.9071 35.1102 36.1734C31.5042 43.4398 27.897 50.6963 24.2922 57.9725C22.2592 62.0776 20.2261 66.1826 18.218 70.3242C17.9002 70.9751 18.0514 71.5473 18.6421 71.6826C19.2327 71.8179 20.0978 71.3388 20.4468 70.6632C27.7616 56.2464 34.8798 41.6166 42.0839 27.0749C44.1169 22.9699 46.2097 18.9065 48.1795 14.7302C48.4464 14.1673 48.4343 13.6151 47.8835 13.4135C47.2753 13.1902 46.6106 13.6298 46.1547 14.0994C41.9023 18.5088 37.4067 22.4903 32.8785 26.3154C30.6333 28.2151 28.3609 30.0584 26.0599 31.8353C24.9099 32.7287 23.7576 33.6023 22.5974 34.467C21.4372 35.3317 20.3115 36.3122 18.9845 36.476L19.8264 37.5013C23.7387 27.2286 27.6839 17.0014 31.559 6.70382C31.8435 5.94701 31.1084 5.69183 30.7421 5.71517C30.1516 5.75113 29.4984 6.22942 29.2115 6.96643Z" fill="#EF790C"/>
</g>
<defs>
<clipPath id="clip0_1201_6963">
<rect vector-effect="non-scaling-stroke" width="61" height="66" fill="white" transform="translate(0 8.82446) rotate(-8.31777)"/>
</clipPath>
</defs>
</svg>
