<svg preserveAspectRatio="none" width="68" height="67" viewBox="0 0 68 67" fill="none" xmlns="http://www.w3.org/2000/svg">
<path vector-effect="non-scaling-stroke" d="M4.37957 48.2386C5.95039 53.3733 8.68454 56.5857 11.6151 57.8694C15.0492 59.3681 18.7017 58.1431 22.0606 55.693C25.1479 53.4385 28.2856 50.1869 30.7391 45.6322C32.7784 41.8529 34.7924 36.0601 34.3011 30.3845C34.0752 27.7716 33.1811 25.7255 31.7913 25.6408C30.1845 25.5366 28.5989 27.7064 27.7942 30.5018C26.138 36.2621 27.004 43.2864 29.1981 47.4828C31.4875 51.8681 34.8357 53.5362 38.0345 53.2234C41.5523 52.8781 44.9999 50.3889 48.0513 46.6226C51.1027 42.8563 53.7205 37.9953 56.1746 32.8346C58.6287 27.6739 60.9429 22.4088 62.0021 15.8276C62.2531 14.2702 62.4108 12.6803 62.4718 11.0708C62.5163 9.93705 61.1245 10.5039 61.0894 11.4162C60.8431 17.7107 59.0636 23.2364 57.0345 28.0518C54.9708 32.9454 52.6671 37.5979 50.1702 41.6118C47.6867 45.6126 44.8975 48.9359 41.8431 50.5909C38.8907 52.1939 35.7004 52.2004 32.9817 49.7178C30.4243 47.385 28.425 42.8368 28.3136 36.9202C28.2609 34.1443 28.6673 30.9645 29.6836 28.8467C30.0762 28.0322 30.6365 27.1395 31.2161 27.1851C31.7958 27.2308 32.2356 27.9866 32.5257 28.8728C33.1535 30.8081 33.0852 33.4992 32.7607 35.7147C32.3717 38.3863 31.6518 40.8168 30.7389 42.9541C28.8501 47.3915 26.236 50.4867 23.6355 52.8585C20.6155 55.6083 17.339 57.4328 14.0827 56.892C11.3854 56.4424 8.72738 54.2269 6.87712 50.3889C6.40757 49.418 5.99609 48.3429 5.64195 47.1895C5.41271 46.4467 4.0867 47.3329 4.36641 48.2451H4.37939L4.37957 48.2386Z" fill="#EF790C"/>
</svg>
