<svg preserveAspectRatio="none" width="12" height="12" viewBox="0 0 12 12" fill="none" xmlns="http://www.w3.org/2000/svg">
<path vector-effect="non-scaling-stroke" d="M10.35 11.6L6.36667 7.61666C6.03333 7.86111 5.66782 8.05277 5.27013 8.19166C4.87244 8.33055 4.44926 8.39999 4.00058 8.39999C2.88908 8.39999 1.94444 8.01111 1.16667 7.23333C0.388889 6.45555 0 5.51111 0 4.39999C0 3.28888 0.388889 2.34444 1.16667 1.56666C1.94444 0.788883 2.88889 0.399994 4 0.399994C5.11111 0.399994 6.05556 0.788883 6.83333 1.56666C7.61111 2.34444 8 3.28908 8 4.40058C8 4.84925 7.93056 5.27244 7.79167 5.67013C7.65278 6.06782 7.46111 6.43333 7.21667 6.76666L11.2 10.75L10.35 11.6ZM4 7.19999C4.77778 7.19999 5.43889 6.92777 5.98333 6.38333C6.52778 5.83888 6.8 5.17777 6.8 4.39999C6.8 3.62222 6.52778 2.96111 5.98333 2.41666C5.43889 1.87222 4.77778 1.59999 4 1.59999C3.22222 1.59999 2.56111 1.87222 2.01667 2.41666C1.47222 2.96111 1.2 3.62222 1.2 4.39999C1.2 5.17777 1.47222 5.83888 2.01667 6.38333C2.56111 6.92777 3.22222 7.19999 4 7.19999Z" fill="#6F6F6F"/>
</svg>
