<svg preserveAspectRatio="none" width="15" height="14" viewBox="0 0 15 14" fill="none" xmlns="http://www.w3.org/2000/svg">
<path vector-effect="non-scaling-stroke" fill-rule="evenodd" clip-rule="evenodd" d="M6.62499 10.6641C7.17499 10.6641 7.70299 10.5687 8.19366 10.3941L9.21232 11.4127C7.88225 12.0489 6.3645 12.1731 4.94871 11.7615C3.53292 11.35 2.31822 10.4316 1.53641 9.18156C0.754607 7.93152 0.460433 6.43738 0.71003 4.98428C0.959626 3.53117 1.73552 2.22084 2.88964 1.30333C4.04376 0.385819 5.4953 -0.0746243 6.96726 0.0098664C8.43923 0.0943571 9.82855 0.717865 10.8701 1.76141C11.9117 2.80495 12.5325 4.19546 12.6142 5.66758C12.6959 7.1397 12.2327 8.59036 11.313 9.74273L14.4297 12.8594L13.487 13.8021L9.48699 9.80207L9.42032 9.7354C10.3081 9.07186 10.9308 8.11399 11.1768 7.03327C11.4228 5.95255 11.2762 4.81955 10.7631 3.83709C10.25 2.85464 9.40397 2.08687 8.37648 1.67125C7.34898 1.25563 6.20711 1.21929 5.15526 1.56874C4.10342 1.91818 3.21029 2.63059 2.63577 3.57843C2.06125 4.52628 1.84284 5.64766 2.01965 6.74184C2.19646 7.83601 2.75694 8.83154 3.60075 9.55019C4.44457 10.2688 5.51662 10.6637 6.62499 10.6641Z" fill="white" fill-opacity="0.54"/>
</svg>
