<svg preserveAspectRatio="none" width="15" height="14" viewBox="0 0 15 14" fill="none" xmlns="http://www.w3.org/2000/svg">
<path vector-effect="non-scaling-stroke" fill-rule="evenodd" clip-rule="evenodd" d="M5.00899 2.13038C6.08388 1.59302 7.30874 1.43442 8.48504 1.68029C9.66134 1.92617 10.7201 2.5621 11.4898 3.48501C12.2594 4.40792 12.6949 5.56371 12.7254 6.76504C12.756 7.96637 12.38 9.14283 11.6583 10.1037L12.7243 10.9037C13.6261 9.70261 14.0958 8.2322 14.0575 6.73075C14.0191 5.2293 13.4749 3.7848 12.5129 2.63132C11.551 1.47784 10.2278 0.682981 8.75762 0.375543C7.28748 0.0681047 5.7566 0.266104 4.41306 0.937456C3.06951 1.60881 1.99203 2.71417 1.35522 4.07443C0.71841 5.43468 0.55958 6.97012 0.904473 8.43192C1.24936 9.89373 2.07777 11.1962 3.25544 12.1284C4.43312 13.0605 5.89105 13.5677 7.39299 13.5677H14.0597V12.2344H7.39299C6.19151 12.2343 5.02525 11.8285 4.08319 11.0828C3.14113 10.3371 2.47846 9.29517 2.20255 8.1258C1.92664 6.95643 2.05366 5.72815 2.56303 4.63999C3.07239 3.55182 3.93427 2.66753 5.00899 2.13038ZM10.7263 4.90105H4.05966V6.23438H10.7263V4.90105ZM4.05966 7.56772H9.39299V8.90105H4.05966V7.56772Z" fill="white" fill-opacity="0.54"/>
</svg>
