<svg preserveAspectRatio="none" width="14" height="14" viewBox="0 0 14 14" fill="none" xmlns="http://www.w3.org/2000/svg">
<path vector-effect="non-scaling-stroke" fill-rule="evenodd" clip-rule="evenodd" d="M6.27096 1.68504C6.29096 1.64504 6.31096 1.60638 6.32896 1.56771H7.86363L7.92163 1.68504C8.06029 1.95971 8.24763 2.28304 8.48829 2.58438C8.72163 2.87704 9.06163 3.21971 9.52563 3.43904C10.203 3.76038 10.9843 3.73371 11.435 3.69237L12.151 4.83771L12.1396 4.85504C11.8763 5.26771 11.4296 6.05037 11.4296 6.90104C11.4296 7.75171 11.8763 8.53438 12.1396 8.94704L12.151 8.96438L11.435 10.1097C10.985 10.0684 10.203 10.0417 9.52563 10.363C9.06163 10.583 8.72163 10.925 8.48829 11.2177C8.24176 11.5316 8.03195 11.8727 7.86296 12.2344H6.32829C6.15951 11.8728 5.94993 11.5317 5.70363 11.2177C5.47029 10.925 5.13029 10.5824 4.66629 10.3624C3.98896 10.0424 3.20696 10.0684 2.75696 10.1097L2.04096 8.96438L2.05229 8.94704C2.31629 8.53438 2.76296 7.75171 2.76296 6.90104C2.76296 6.05037 2.31629 5.26771 2.05296 4.85504L2.04163 4.83771L2.75763 3.69237C3.20763 3.73371 3.98963 3.76038 4.66696 3.43904C5.13096 3.21904 5.47096 2.87704 5.70429 2.58438C5.94496 2.28304 6.13229 1.95971 6.27096 1.68504ZM10.0963 2.23438C9.24763 1.83238 8.76296 0.234375 8.76296 0.234375H5.42963C5.42963 0.234375 4.94496 1.83238 4.09629 2.23438C3.39029 2.56904 2.09629 2.23438 2.09629 2.23438L0.429626 4.90104C0.429626 4.90104 1.42963 6.02771 1.42963 6.90104C1.42963 7.77437 0.429626 8.90104 0.429626 8.90104L2.09629 11.5677C2.09629 11.5677 3.39029 11.233 4.09629 11.5677C4.94496 11.9697 5.42963 13.5677 5.42963 13.5677H8.76296C8.76296 13.5677 9.24763 11.9697 10.0963 11.5677C10.8023 11.233 12.0963 11.5677 12.0963 11.5677L13.763 8.90104C13.763 8.90104 12.763 7.77437 12.763 6.90104C12.763 6.02771 13.763 4.90104 13.763 4.90104L12.0963 2.23438C12.0963 2.23438 10.8023 2.56904 10.0963 2.23438ZM8.42963 6.90104C8.42963 7.25466 8.28915 7.5938 8.0391 7.84385C7.78905 8.0939 7.44992 8.23438 7.09629 8.23438C6.74267 8.23438 6.40353 8.0939 6.15348 7.84385C5.90344 7.5938 5.76296 7.25466 5.76296 6.90104C5.76296 6.54742 5.90344 6.20828 6.15348 5.95823C6.40353 5.70818 6.74267 5.56771 7.09629 5.56771C7.44992 5.56771 7.78905 5.70818 8.0391 5.95823C8.28915 6.20828 8.42963 6.54742 8.42963 6.90104ZM9.76296 6.90104C9.76296 7.60829 9.48201 8.28656 8.98191 8.78666C8.48181 9.28676 7.80354 9.56771 7.09629 9.56771C6.38905 9.56771 5.71077 9.28676 5.21068 8.78666C4.71058 8.28656 4.42963 7.60829 4.42963 6.90104C4.42963 6.1938 4.71058 5.51552 5.21068 5.01542C5.71077 4.51533 6.38905 4.23438 7.09629 4.23438C7.80354 4.23438 8.48181 4.51533 8.98191 5.01542C9.48201 5.51552 9.76296 6.1938 9.76296 6.90104Z" fill="white" fill-opacity="0.54"/>
</svg>
