<svg preserveAspectRatio="none" width="30" height="30" viewBox="0 0 30 30" fill="none" xmlns="http://www.w3.org/2000/svg">
<path vector-effect="non-scaling-stroke" fill-rule="evenodd" clip-rule="evenodd" d="M14.9971 5C9.48427 5 5 9.48427 5 14.9971C5 17.1834 5.70528 19.211 6.90418 20.8568L5.65817 24.5711L9.50185 23.343C11.0828 24.3891 12.9693 24.9944 15.0029 24.9944C20.5157 24.9944 25 20.5099 25 14.9973C25 9.48444 20.5157 5.00017 15.0029 5.00017H14.9971V5ZM12.2054 10.0781C12.0115 9.61382 11.8645 9.59623 11.5707 9.58429C11.4592 9.57711 11.3475 9.57323 11.2357 9.57268C10.8535 9.57268 10.4539 9.68431 10.2129 9.93112C9.91918 10.2308 9.19035 10.9302 9.19035 12.3643C9.19035 13.7984 10.2365 15.1854 10.3775 15.3794C10.5244 15.5732 12.417 18.5588 15.3555 19.7756C17.6535 20.7277 18.3354 20.6395 18.8584 20.5278C19.6224 20.3633 20.5804 19.7988 20.8214 19.1173C21.0624 18.4354 21.0624 17.8535 20.9918 17.7301C20.9213 17.6067 20.7272 17.5364 20.4335 17.3893C20.1397 17.2423 18.7114 16.537 18.441 16.443C18.1765 16.3431 17.9239 16.3785 17.7242 16.6606C17.442 17.0544 17.1658 17.4541 16.9424 17.695C16.7661 17.8831 16.478 17.9066 16.2371 17.8066C15.9139 17.6716 15.0089 17.3539 13.8921 16.3607C13.0281 15.5909 12.4404 14.633 12.27 14.3451C12.0995 14.0513 12.2525 13.8806 12.3875 13.7221C12.5344 13.5398 12.6754 13.4106 12.8224 13.24C12.9693 13.0697 13.0516 12.9815 13.1457 12.7816C13.2457 12.5877 13.175 12.3878 13.1045 12.2408C13.034 12.0939 12.4464 10.6598 12.2054 10.0781Z" fill="#29CC39"/>
</svg>
