<svg preserveAspectRatio="none" width="14" height="15" viewBox="0 0 14 15" fill="none" xmlns="http://www.w3.org/2000/svg">
<path vector-effect="non-scaling-stroke" fill-rule="evenodd" clip-rule="evenodd" d="M4.31553 0.802063H9.57286L13.6109 4.6094V10.3281L9.57286 14.1354H4.31486L0.277527 10.3281V4.60873L4.31553 0.802063ZM4.84553 2.1354L1.61086 5.18473V9.75273L4.84553 12.8021H9.04286L12.2775 9.75273V5.18473L9.04286 2.1354H4.84553ZM7.58753 4.20206H6.29686V8.91806H7.58753V4.20206ZM6.97019 9.46606C6.54086 9.46606 6.22219 9.7954 6.22219 10.2141C6.22219 10.6341 6.54219 10.9527 6.97019 10.9527C7.38086 10.9527 7.69953 10.6327 7.69953 10.2141C7.69953 9.79673 7.38219 9.46606 6.97019 9.46606Z" fill="white" fill-opacity="0.54"/>
</svg>
