<svg preserveAspectRatio="none" width="49" height="37" viewBox="0 0 49 37" fill="none" xmlns="http://www.w3.org/2000/svg">
<mask id="path-1-inside-1_598_10919" fill="white">
<path vector-effect="non-scaling-stroke" fill-rule="evenodd" clip-rule="evenodd" d="M5.4668 0.00012207C2.70537 0.00012207 0.466797 2.2387 0.466797 5.00012V31.3754C0.466797 34.1368 2.70537 36.3754 5.4668 36.3754H43.4668C46.2282 36.3754 48.4668 34.1368 48.4668 31.3754V11.8129C48.4668 8.49916 45.7805 5.81287 42.4668 5.81287H25.6128C24.1314 5.81287 22.7024 5.26484 21.6009 4.2743L18.5587 1.53869C17.4572 0.548148 16.0282 0.00012207 14.5468 0.00012207H5.4668Z"/>
</mask>
<path vector-effect="non-scaling-stroke" fill-rule="evenodd" clip-rule="evenodd" d="M5.4668 0.00012207C2.70537 0.00012207 0.466797 2.2387 0.466797 5.00012V31.3754C0.466797 34.1368 2.70537 36.3754 5.4668 36.3754H43.4668C46.2282 36.3754 48.4668 34.1368 48.4668 31.3754V11.8129C48.4668 8.49916 45.7805 5.81287 42.4668 5.81287H25.6128C24.1314 5.81287 22.7024 5.26484 21.6009 4.2743L18.5587 1.53869C17.4572 0.548148 16.0282 0.00012207 14.5468 0.00012207H5.4668Z" fill="black" fill-opacity="0.1"/>
<path vector-effect="non-scaling-stroke" d="M18.5587 1.53869L17.8901 2.28226L18.5587 1.53869ZM21.6009 4.2743L22.2695 3.53073L21.6009 4.2743ZM1.4668 5.00012C1.4668 2.79098 3.25766 1.00012 5.4668 1.00012V-0.999878C2.15309 -0.999878 -0.533203 1.68642 -0.533203 5.00012H1.4668ZM1.4668 31.3754V5.00012H-0.533203V31.3754H1.4668ZM5.4668 35.3754C3.25766 35.3754 1.4668 33.5845 1.4668 31.3754H-0.533203C-0.533203 34.6891 2.15309 37.3754 5.4668 37.3754V35.3754ZM43.4668 35.3754H5.4668V37.3754H43.4668V35.3754ZM47.4668 31.3754C47.4668 33.5845 45.6759 35.3754 43.4668 35.3754V37.3754C46.7805 37.3754 49.4668 34.6891 49.4668 31.3754H47.4668ZM47.4668 11.8129V31.3754H49.4668V11.8129H47.4668ZM42.4668 4.81287H25.6128V6.81287H42.4668V4.81287ZM22.2695 3.53073L19.2274 0.795113L17.8901 2.28226L20.9322 5.01788L22.2695 3.53073ZM5.4668 1.00012H14.5468V-0.999878H5.4668V1.00012ZM19.2274 0.795113C17.9423 -0.360514 16.2751 -0.999878 14.5468 -0.999878V1.00012C15.7813 1.00012 16.9721 1.45681 17.8901 2.28226L19.2274 0.795113ZM25.6128 4.81287C24.3783 4.81287 23.1874 4.35618 22.2695 3.53073L20.9322 5.01788C22.2173 6.1735 23.8845 6.81287 25.6128 6.81287V4.81287ZM49.4668 11.8129C49.4668 7.94687 46.3328 4.81287 42.4668 4.81287V6.81287C45.2282 6.81287 47.4668 9.05144 47.4668 11.8129H49.4668Z" fill="black" fill-opacity="0.04" mask="url(#path-1-inside-1_598_10919)"/>
</svg>
