<svg preserveAspectRatio="none" width="128" height="97" viewBox="0 0 128 97" fill="none" xmlns="http://www.w3.org/2000/svg">
<mask id="path-1-inside-1_598_10891" fill="white">
<path vector-effect="non-scaling-stroke" fill-rule="evenodd" clip-rule="evenodd" d="M46.5736 1.77884C44.6827 0.615778 42.5063 0 40.2864 0H12C5.37258 0 0 5.37258 0 12V85C0 91.6274 5.37258 97 12 97H116C122.627 97 128 91.6274 128 85V22C128 15.3726 122.627 10 116 10H63.3341C61.1142 10 58.9379 9.38422 57.047 8.22116L46.5736 1.77884Z"/>
</mask>
<path vector-effect="non-scaling-stroke" fill-rule="evenodd" clip-rule="evenodd" d="M46.5736 1.77884C44.6827 0.615778 42.5063 0 40.2864 0H12C5.37258 0 0 5.37258 0 12V85C0 91.6274 5.37258 97 12 97H116C122.627 97 128 91.6274 128 85V22C128 15.3726 122.627 10 116 10H63.3341C61.1142 10 58.9379 9.38422 57.047 8.22116L46.5736 1.77884Z" fill="black" fill-opacity="0.04"/>
<path vector-effect="non-scaling-stroke" d="M46.5736 1.77884L46.0496 2.63061L46.5736 1.77884ZM12 1H40.2864V-1H12V1ZM1 85V12H-1V85H1ZM116 96H12V98H116V96ZM127 22V85H129V22H127ZM116 9H63.3341V11H116V9ZM57.5709 7.3694L47.0975 0.92708L46.0496 2.63061L56.5231 9.07292L57.5709 7.3694ZM63.3341 9C61.2992 9 59.3042 8.43554 57.5709 7.3694L56.5231 9.07292C58.5715 10.3329 60.9293 11 63.3341 11V9ZM129 22C129 14.8203 123.18 9 116 9V11C122.075 11 127 15.9249 127 22H129ZM116 98C123.18 98 129 92.1797 129 85H127C127 91.0751 122.075 96 116 96V98ZM-1 85C-1 92.1797 4.8203 98 12 98V96C5.92487 96 1 91.0751 1 85H-1ZM40.2864 1C42.3213 1 44.3164 1.56446 46.0496 2.63061L47.0975 0.92708C45.0491 -0.332907 42.6913 -1 40.2864 -1V1ZM12 -1C4.8203 -1 -1 4.8203 -1 12H1C1 5.92487 5.92487 1 12 1V-1Z" fill="black" fill-opacity="0.04" mask="url(#path-1-inside-1_598_10891)"/>
</svg>
