<svg preserveAspectRatio="none" width="50" height="51" viewBox="0 0 50 51" fill="none" xmlns="http://www.w3.org/2000/svg">
<rect vector-effect="non-scaling-stroke" y="0.5" width="50" height="50" rx="25" fill="black"/>
<path vector-effect="non-scaling-stroke" d="M19.995 25.5C19.995 28.261 22.241 30.507 25.002 30.507C27.763 30.507 30.009 28.261 30.009 25.5C30.009 22.739 27.763 20.493 25.002 20.493C22.241 20.493 19.995 22.739 19.995 25.5ZM24 32.5H26V35.5H24V32.5ZM24 15.5H26V18.5H24V15.5ZM15 24.5H18V26.5H15V24.5ZM32 24.5H35V26.5H32V24.5ZM18.637 33.278L17.223 31.864L19.344 29.743L20.758 31.157L18.637 33.278ZM29.242 19.844L31.364 17.722L32.778 19.136L30.656 21.258L29.242 19.844ZM19.344 21.259L17.223 19.137L18.638 17.723L20.758 19.845L19.344 21.259ZM32.778 31.864L31.364 33.278L29.242 31.156L30.656 29.742L32.778 31.864Z" fill="#F8D000"/>
</svg>
