<svg preserveAspectRatio="none" width="25" height="12" viewBox="0 0 25 12" fill="none" xmlns="http://www.w3.org/2000/svg">
<path vector-effect="non-scaling-stroke" d="M12.5 18V12.75M12.5 12.75C13.006 12.7504 13.51 12.6869 14 12.561M12.5 12.75C11.9941 12.7504 11.4901 12.6869 11 12.561M14.75 20.039C13.2633 20.3213 11.7367 20.3213 10.25 20.039M14 22.422C13.0027 22.5264 11.9973 22.5264 11 22.422M14.75 18V17.808C14.75 16.825 15.408 15.985 16.258 15.492C17.686 14.665 18.8014 13.3902 19.4314 11.865C20.0614 10.3399 20.1708 8.64948 19.7427 7.05582C19.3145 5.46217 18.3728 4.05419 17.0633 3.05006C15.7538 2.04594 14.1497 1.50171 12.4995 1.50171C10.8493 1.50171 9.24524 2.04594 7.93575 3.05006C6.62626 4.05419 5.68448 5.46217 5.25634 7.05582C4.82821 8.64948 4.93761 10.3399 5.5676 11.865C6.1976 13.3902 7.31301 14.665 8.74101 15.492C9.59101 15.985 10.25 16.825 10.25 17.808V18" stroke="#00CDFA" stroke-width="1.5" stroke-linecap="round" stroke-linejoin="round"/>
</svg>
