<svg preserveAspectRatio="none" width="11" height="10" viewBox="0 0 11 10" fill="none" xmlns="http://www.w3.org/2000/svg">
<g clip-path="url(#clip0_4_103)">
<path vector-effect="non-scaling-stroke" d="M4.80439 0.343455C4.95868 0.0785486 5.34138 0.0785489 5.49567 0.343455L6.75855 2.51167C6.81507 2.60871 6.90978 2.67752 7.01953 2.70129L9.47188 3.23233C9.7715 3.29722 9.88976 3.66119 9.6855 3.88979L8.01365 5.76087C7.93883 5.84461 7.90265 5.95595 7.91396 6.06768L8.16672 8.5641C8.1976 8.8691 7.88799 9.09405 7.60746 8.97042L5.31133 7.9586C5.20856 7.91331 5.0915 7.91331 4.98873 7.9586L2.6926 8.97042C2.41207 9.09405 2.10246 8.8691 2.13334 8.56409L2.3861 6.06768C2.39741 5.95595 2.36123 5.84461 2.28641 5.76087L0.61456 3.88979C0.410299 3.66119 0.52856 3.29722 0.828181 3.23233L3.28053 2.70129C3.39028 2.67752 3.48499 2.60871 3.54151 2.51167L4.80439 0.343455Z" fill="white"/>
</g>
<defs>
<clipPath id="clip0_4_103">
<rect vector-effect="non-scaling-stroke" width="10" height="10" fill="white" transform="translate(0.150024)"/>
</clipPath>
</defs>
</svg>
