<svg preserveAspectRatio="none" width="21" height="20" viewBox="0 0 21 20" fill="none" xmlns="http://www.w3.org/2000/svg">
<g clip-path="url(#clip0_4_246)">
<path vector-effect="non-scaling-stroke" d="M0.5 5.23077C0.5 2.34189 2.84189 0 5.73077 0H12.9396C13.3477 0 13.739 0.162087 14.0275 0.450605L20.0494 6.47247C20.3379 6.76099 20.5 7.15229 20.5 7.56036V14.7692C20.5 17.6581 18.1581 20 15.2692 20H5.73077C2.84189 20 0.5 17.6581 0.5 14.7692V5.23077Z" fill="url(#paint0_linear_4_246)"/>
<path vector-effect="non-scaling-stroke" d="M1.26923 5.6923C1.26923 2.97336 3.47337 0.769226 6.19231 0.769226H12.5634C13.2432 0.769226 13.7942 1.32026 13.7942 2V3.32118C13.7942 5.19045 15.3096 6.70579 17.1788 6.70579H18.5C19.1797 6.70579 19.7308 7.25683 19.7308 7.93655V14.3077C19.7308 17.0266 17.5267 19.2308 14.8077 19.2308H6.19231C3.47337 19.2308 1.26923 17.0266 1.26923 14.3077V5.6923Z" fill="url(#paint1_linear_4_246)"/>
<path vector-effect="non-scaling-stroke" d="M5.9774 6.92303H8.49092C8.93077 6.92303 9.30777 6.98587 9.63242 7.11154C9.94663 7.23718 10.1875 7.41526 10.3551 7.64568C10.5121 7.86561 10.6273 8.11697 10.6797 8.38926C10.7426 8.66154 10.7531 8.94433 10.7111 9.25847C10.6169 9.96019 10.3341 10.5048 9.84192 10.8923C9.36013 11.2798 8.67942 11.4788 7.82063 11.4788H6.81522L6.48009 13.7304H4.96152L5.9774 6.92303ZM9.1507 9.17468C9.18213 8.92333 9.1297 8.7139 8.99356 8.55683C8.85742 8.39968 8.64799 8.3159 8.38613 8.3159H7.27603L7.01421 10.0963H7.83113C8.63749 10.0963 9.06692 9.79261 9.1507 9.17468Z" fill="white"/>
<path vector-effect="non-scaling-stroke" d="M12.9531 13.731C12.4271 13.731 11.9516 13.6198 11.547 13.3871C11.1322 13.1544 10.8186 12.8307 10.5961 12.3856L11.6684 11.465C11.81 11.7281 12.0123 11.9405 12.2551 12.1024C12.508 12.2643 12.771 12.3451 13.0644 12.3451C13.297 12.3451 13.4994 12.2845 13.6612 12.1732C13.8231 12.0619 13.9242 11.9203 13.9546 11.7382C13.9748 11.5055 13.8331 11.3032 13.5196 11.1211L12.943 10.8278C12.6496 10.676 12.4169 10.5445 12.245 10.4333C11.6178 10.0185 11.3548 9.45197 11.4661 8.7439C11.547 8.19761 11.81 7.75254 12.2652 7.41868C12.7204 7.08488 13.2869 6.92303 13.9546 6.92303C14.7739 6.92303 15.4719 7.2164 16.0384 7.80311L15.1179 8.85518C14.7031 8.4809 14.2783 8.29876 13.8331 8.29876C13.6005 8.29876 13.4184 8.3494 13.2667 8.45054C13.1251 8.55168 13.0441 8.68319 13.0239 8.84504C13.0036 8.97654 13.034 9.09797 13.1149 9.18897C13.1959 9.28004 13.3577 9.39133 13.6005 9.51268C14.2884 9.86676 14.7133 10.0994 14.8751 10.2107C15.4719 10.6355 15.7147 11.1818 15.6034 11.8596C15.5124 12.4564 15.2191 12.9218 14.7234 13.2556C14.2176 13.5692 13.6309 13.731 12.9531 13.731Z" fill="white"/>
</g>
<defs>
<linearGradient vector-effect="non-scaling-stroke" id="paint0_linear_4_246" x1="2.73585" y1="1.58691" x2="18.6931" y2="18.8739" gradientUnits="userSpaceOnUse">
<stop stop-color="#FFDFFF"/>
<stop offset="0.239583" stop-color="#FF76DF"/>
<stop offset="0.5077" stop-color="#6F1FFF"/>
<stop offset="0.753976" stop-color="#1B6BFF"/>
<stop offset="1" stop-color="#00D0FF"/>
</linearGradient>
<linearGradient vector-effect="non-scaling-stroke" id="paint1_linear_4_246" x1="17.4245" y1="3.09413" x2="2.52113" y2="17.3351" gradientUnits="userSpaceOnUse">
<stop stop-color="#5105CD"/>
<stop offset="1" stop-color="#5105CD" stop-opacity="0"/>
</linearGradient>
<clipPath id="clip0_4_246">
<rect vector-effect="non-scaling-stroke" width="20" height="20" fill="white" transform="translate(0.5)"/>
</clipPath>
</defs>
</svg>
