<svg preserveAspectRatio="none" width="21" height="20" viewBox="0 0 21 20" fill="none" xmlns="http://www.w3.org/2000/svg">
<path vector-effect="non-scaling-stroke" d="M4.875 17.5H4.125C4.125 17.7766 4.27724 18.0307 4.52111 18.1613C4.76497 18.2918 5.06088 18.2775 5.29103 18.124L4.875 17.5ZM16.125 17.5L15.709 18.124C15.9391 18.2775 16.235 18.2918 16.4789 18.1613C16.7228 18.0307 16.875 17.7766 16.875 17.5H16.125ZM4.125 4V17.5H5.625V4H4.125ZM16.875 17.5V4H15.375V17.5H16.875ZM14.625 1.75H6.375V3.25H14.625V1.75ZM5.29103 18.124L10.084 14.9287L9.25192 13.6807L4.45897 16.876L5.29103 18.124ZM10.916 14.9287L15.709 18.124L16.541 16.876L11.7481 13.6807L10.916 14.9287ZM10.084 14.9287C10.3359 14.7608 10.6641 14.7608 10.916 14.9287L11.7481 13.6807C10.9923 13.1768 10.0077 13.1768 9.25192 13.6807L10.084 14.9287ZM16.875 4C16.875 2.75736 15.8676 1.75 14.625 1.75V3.25C15.0392 3.25 15.375 3.58579 15.375 4H16.875ZM5.625 4C5.625 3.58579 5.96079 3.25 6.375 3.25V1.75C5.13236 1.75 4.125 2.75736 4.125 4H5.625Z" fill="#6B7280"/>
</svg>
