<svg preserveAspectRatio="none" width="25" height="24" viewBox="0 0 25 24" fill="none" xmlns="http://www.w3.org/2000/svg">
<path vector-effect="non-scaling-stroke" d="M10.84 15.84C10.152 15.78 9.454 15.75 8.75 15.75H8C6.80653 15.75 5.66193 15.2759 4.81802 14.432C3.97411 13.5881 3.5 12.4435 3.5 11.25C3.5 10.0565 3.97411 8.91193 4.81802 8.06802C5.66193 7.22411 6.80653 6.75 8 6.75H8.75C9.454 6.75 10.152 6.72 10.84 6.66M10.84 15.84C11.093 16.802 11.424 17.732 11.825 18.623C12.072 19.173 11.885 19.833 11.362 20.134L10.705 20.514C10.154 20.832 9.445 20.631 9.178 20.053C8.54429 18.682 8.06146 17.2463 7.738 15.771M10.84 15.84C10.447 14.3417 10.2487 12.799 10.25 11.25C10.25 9.664 10.455 8.126 10.84 6.66M10.84 15.84C13.9215 16.1041 16.9222 16.9651 19.675 18.375M10.84 6.66C13.9215 6.39592 16.9223 5.53493 19.675 4.125M19.675 18.375C19.557 18.755 19.43 19.129 19.295 19.5M19.675 18.375C20.219 16.6216 20.5592 14.8113 20.689 12.98M19.675 4.125C19.5577 3.74689 19.431 3.37177 19.295 3M19.675 4.125C20.219 5.87844 20.5592 7.6887 20.689 9.52M20.689 9.52C21.184 9.933 21.5 10.555 21.5 11.25C21.5 11.945 21.184 12.567 20.689 12.98M20.689 9.52C20.7711 10.6719 20.7711 11.8281 20.689 12.98" stroke="#705CF6" stroke-width="1.5" stroke-linecap="round" stroke-linejoin="round"/>
</svg>
