<svg preserveAspectRatio="none" width="11" height="10" viewBox="0 0 11 10" fill="none" xmlns="http://www.w3.org/2000/svg">
<g clip-path="url(#clip0_4_69)">
<path vector-effect="non-scaling-stroke" d="M5.49436 0.343455C5.64865 0.0785486 6.03135 0.0785489 6.18564 0.343455L7.44852 2.51167C7.50504 2.60871 7.59975 2.67752 7.7095 2.70129L10.1618 3.23233C10.4615 3.29722 10.5797 3.66119 10.3755 3.88979L8.70362 5.76087C8.6288 5.84461 8.59262 5.95595 8.60393 6.06768L8.85669 8.5641C8.88757 8.8691 8.57796 9.09405 8.29743 8.97042L6.0013 7.9586C5.89853 7.91331 5.78147 7.91331 5.6787 7.9586L3.38257 8.97042C3.10204 9.09405 2.79243 8.8691 2.82331 8.56409L3.07607 6.06768C3.08738 5.95595 3.0512 5.84461 2.97638 5.76087L1.30453 3.88979C1.10027 3.66119 1.21853 3.29722 1.51815 3.23233L3.9705 2.70129C4.08025 2.67752 4.17496 2.60871 4.23148 2.51167L5.49436 0.343455Z" fill="white"/>
</g>
<defs>
<clipPath id="clip0_4_69">
<rect vector-effect="non-scaling-stroke" width="10" height="10" fill="white" transform="translate(0.839996)"/>
</clipPath>
</defs>
</svg>
