<svg preserveAspectRatio="none" width="21" height="20" viewBox="0 0 21 20" fill="none" xmlns="http://www.w3.org/2000/svg">
<path vector-effect="non-scaling-stroke" d="M8.3261 11.3044H13.5435M10.9348 8.69566V13.9131M15.2826 18.2609H6.58697C6.12572 18.2609 5.68337 18.0776 5.35722 17.7515C5.03107 17.4253 4.84784 16.983 4.84784 16.5217V4.34783C4.84784 3.88659 5.03107 3.44423 5.35722 3.11808C5.68337 2.79193 6.12572 2.6087 6.58697 2.6087H11.4444C11.675 2.60875 11.8961 2.7004 12.0591 2.86349L16.767 7.57131C16.9301 7.73435 17.0217 7.95549 17.0218 8.18609V16.5217C17.0218 16.983 16.8385 17.4253 16.5124 17.7515C16.1862 18.0776 15.7439 18.2609 15.2826 18.2609Z" stroke="#6B7280" stroke-width="1.73913" stroke-linecap="round" stroke-linejoin="round"/>
</svg>
