<svg preserveAspectRatio="none" width="11" height="10" viewBox="0 0 11 10" fill="none" xmlns="http://www.w3.org/2000/svg">
<g clip-path="url(#clip0_4_86)">
<path vector-effect="non-scaling-stroke" d="M5.15436 0.343455C5.30865 0.0785486 5.69135 0.0785489 5.84564 0.343455L7.10852 2.51167C7.16504 2.60871 7.25975 2.67752 7.3695 2.70129L9.82185 3.23233C10.1215 3.29722 10.2397 3.66119 10.0355 3.88979L8.36362 5.76087C8.2888 5.84461 8.25262 5.95595 8.26393 6.06768L8.51669 8.5641C8.54757 8.8691 8.23796 9.09405 7.95743 8.97042L5.6613 7.9586C5.55853 7.91331 5.44147 7.91331 5.3387 7.9586L3.04257 8.97042C2.76204 9.09405 2.45243 8.8691 2.48331 8.56409L2.73607 6.06768C2.74738 5.95595 2.7112 5.84461 2.63638 5.76087L0.964536 3.88979C0.760275 3.66119 0.878536 3.29722 1.17816 3.23233L3.6305 2.70129C3.74025 2.67752 3.83496 2.60871 3.89148 2.51167L5.15436 0.343455Z" fill="white"/>
</g>
<defs>
<clipPath id="clip0_4_86">
<rect vector-effect="non-scaling-stroke" width="10" height="10" fill="white" transform="translate(0.5)"/>
</clipPath>
</defs>
</svg>
