<svg preserveAspectRatio="none" width="56" height="59" viewBox="0 0 56 59" fill="none" xmlns="http://www.w3.org/2000/svg">
<g filter="url(#filter0_d_7_1222)">
<path vector-effect="non-scaling-stroke" fill-rule="evenodd" clip-rule="evenodd" d="M16.6246 38.3106C15.8791 37.3682 14.9735 35.4414 13.3617 33.1026C12.4482 31.7796 10.1829 29.2884 9.50824 28.0232C8.92287 26.9049 8.98587 26.4036 9.12499 25.4769C9.37174 23.8284 11.0622 22.5448 12.8656 22.7181C14.228 22.8467 15.383 23.7471 16.4225 24.5976C17.0499 25.1094 17.8216 26.1043 18.2862 26.6661C18.7141 27.1806 18.8191 27.3932 19.2759 28.0022C19.8796 28.8081 20.0686 29.2071 19.8376 28.3198C19.6512 27.0178 19.3467 24.7944 18.9057 22.8283C18.5697 21.3373 18.4884 21.1037 18.1681 19.9592C17.8295 18.7412 17.6562 17.8881 17.3386 16.5966C17.1181 15.6831 16.7217 13.8167 16.6141 12.7667C16.4645 11.3308 16.3857 8.9893 17.3071 7.91305C18.029 7.07043 19.6854 6.8158 20.7117 7.33555C22.0557 8.01543 22.8196 9.96843 23.1687 10.7481C23.7961 12.1498 24.1846 13.7694 24.5232 15.8957C24.9537 18.6021 25.7465 22.3584 25.7727 23.1486C25.8357 22.1799 25.5942 20.1403 25.7622 19.2111C25.9145 18.3684 26.6232 17.3893 27.5105 17.1242C28.2612 16.9011 29.1406 16.8197 29.915 16.9798C30.7366 17.1478 31.6029 17.7358 31.9257 18.2897C32.876 19.9277 32.8944 23.2746 32.9337 23.0961C33.1595 22.1091 33.1201 19.8699 33.6792 18.9381C34.0467 18.3238 34.9839 17.7699 35.4826 17.6807C36.2544 17.5442 37.202 17.5022 38.0131 17.6597C38.6667 17.7883 39.5514 18.5653 39.7902 18.9381C40.3625 19.8411 40.688 22.3952 40.7851 23.2903C40.8245 23.6604 40.9794 22.2613 41.5542 21.3583C42.62 19.6809 46.3921 19.3554 46.5365 23.0357C46.6021 24.7524 46.589 24.6737 46.589 25.8287C46.589 27.1858 46.5575 28.0022 46.484 28.9839C46.4026 30.0339 46.1769 32.4069 45.8487 33.5567C45.623 34.3468 44.8749 36.1239 44.1372 37.1897C44.1372 37.1897 41.318 40.4709 41.0109 41.9488C40.7011 43.424 40.8035 43.4346 40.7431 44.4819C40.6827 45.5267 41.0607 46.9022 41.0607 46.9022C41.0607 46.9022 38.9555 47.1752 37.8215 46.9941C36.7951 46.8287 35.5246 44.7864 35.1965 44.1617C34.745 43.3007 33.7816 43.4661 33.4062 44.1013C32.8156 45.1067 31.5451 46.9101 30.6474 47.0229C28.8939 47.2434 25.2556 47.1043 22.4075 47.0754C22.4075 47.0754 22.8931 44.4216 21.8116 43.5107C21.011 42.8308 19.6329 41.4527 18.8086 40.7282L16.6246 38.3106Z" fill="white"/>
<path vector-effect="non-scaling-stroke" fill-rule="evenodd" clip-rule="evenodd" d="M16.6246 38.3106C15.8791 37.3682 14.9735 35.4414 13.3617 33.1026C12.4482 31.7796 10.1829 29.2884 9.50824 28.0232C8.92287 26.9049 8.98587 26.4036 9.12499 25.4769C9.37174 23.8284 11.0622 22.5448 12.8656 22.7181C14.228 22.8467 15.383 23.7471 16.4225 24.5976C17.0499 25.1094 17.8216 26.1043 18.2862 26.6661C18.7141 27.1806 18.8191 27.3932 19.2759 28.0022C19.8796 28.8081 20.0686 29.2071 19.8376 28.3198C19.6512 27.0178 19.3467 24.7944 18.9057 22.8283C18.5697 21.3373 18.4884 21.1037 18.1681 19.9592C17.8295 18.7412 17.6562 17.8881 17.3386 16.5966C17.1181 15.6831 16.7217 13.8167 16.6141 12.7667C16.4645 11.3308 16.3857 8.9893 17.3071 7.91305C18.029 7.07043 19.6854 6.8158 20.7117 7.33555C22.0557 8.01543 22.8196 9.96843 23.1687 10.7481C23.7961 12.1498 24.1846 13.7694 24.5232 15.8957C24.9537 18.6021 25.7465 22.3584 25.7727 23.1486C25.8357 22.1799 25.5942 20.1403 25.7622 19.2111C25.9145 18.3684 26.6232 17.3893 27.5105 17.1242C28.2612 16.9011 29.1406 16.8197 29.915 16.9798C30.7366 17.1478 31.6029 17.7358 31.9257 18.2897C32.876 19.9277 32.8944 23.2746 32.9337 23.0961C33.1595 22.1091 33.1201 19.8699 33.6792 18.9381C34.0467 18.3238 34.9839 17.7699 35.4826 17.6807C36.2544 17.5442 37.202 17.5022 38.0131 17.6597C38.6667 17.7883 39.5514 18.5653 39.7902 18.9381C40.3625 19.8411 40.688 22.3952 40.7851 23.2903C40.8245 23.6604 40.9794 22.2613 41.5542 21.3583C42.62 19.6809 46.3921 19.3554 46.5365 23.0357C46.6021 24.7524 46.589 24.6737 46.589 25.8287C46.589 27.1858 46.5575 28.0022 46.484 28.9839C46.4026 30.0339 46.1769 32.4069 45.8487 33.5567C45.623 34.3468 44.8749 36.1239 44.1372 37.1897C44.1372 37.1897 41.318 40.4709 41.0109 41.9488C40.7011 43.4241 40.8035 43.4346 40.7431 44.4819C40.6827 45.5267 41.0607 46.9022 41.0607 46.9022C41.0607 46.9022 38.9555 47.1752 37.8215 46.9941C36.7951 46.8287 35.5246 44.7864 35.1965 44.1617C34.745 43.3007 33.7816 43.4661 33.4062 44.1013C32.8156 45.1067 31.5451 46.9101 30.6474 47.0229C28.8939 47.2434 25.2556 47.1043 22.4075 47.0754C22.4075 47.0754 22.8931 44.4216 21.8116 43.5107C21.011 42.8308 19.6329 41.4527 18.8086 40.7282L16.6246 38.3106Z" stroke="black" stroke-width="1.96875" stroke-linecap="round" stroke-linejoin="round"/>
<path vector-effect="non-scaling-stroke" d="M38.2412 39.2406V30.1608" stroke="black" stroke-width="1.96875" stroke-linecap="round"/>
<path vector-effect="non-scaling-stroke" d="M32.9502 39.2723L32.9082 30.1556" stroke="black" stroke-width="1.96875" stroke-linecap="round"/>
<path vector-effect="non-scaling-stroke" d="M27.7104 30.2377L27.7656 39.2309" stroke="black" stroke-width="1.96875" stroke-linecap="round"/>
</g>
<defs>
<filter id="filter0_d_7_1222" x="0.125" y="0.75" width="57.75" height="57.8796" filterUnits="userSpaceOnUse" color-interpolation-filters="sRGB">
<feFlood flood-opacity="0" result="BackgroundImageFix"/>
<feColorMatrix in="SourceAlpha" type="matrix" values="0 0 0 0 0 0 0 0 0 0 0 0 0 0 0 0 0 0 127 0" result="hardAlpha"/>
<feOffset dy="2.625"/>
<feGaussianBlur stdDeviation="3.9375"/>
<feColorMatrix type="matrix" values="0 0 0 0 0 0 0 0 0 0 0 0 0 0 0 0 0 0 0.35 0"/>
<feBlend mode="normal" in2="BackgroundImageFix" result="effect1_dropShadow_7_1222"/>
<feBlend mode="normal" in="SourceGraphic" in2="effect1_dropShadow_7_1222" result="shape"/>
</filter>
</defs>
</svg>
