<svg preserveAspectRatio="none" width="25" height="25" viewBox="0 0 25 25" fill="none" xmlns="http://www.w3.org/2000/svg">
<g filter="url(#filter0_i_1901_270633)">
<path vector-effect="non-scaling-stroke" fill-rule="evenodd" clip-rule="evenodd" d="M10.75 20.5V16.5H14.75V20.5H12.75H10.75ZM8.75 20.5V16.5H4.75V20.5H8.75ZM14.75 14.5H10.75V10.5H14.75V14.5ZM8.75 14.5V10.5H4.75V14.5H8.75ZM14.75 8.5H10.75V6.5H8.75V8.5H4.75V6.5H2.75V20.5V22.5H4.75H8.75H9.75H10.75H12.75H14.75H15.75H16.75H20.75H22.75V20.5V6.5H20.75V8.5H16.75V6.5H14.75V8.5ZM16.75 4.5H20.75H22.75V2.5H20.75H16.75H15.75H14.75H10.75H9.75H8.75H4.75H2.75V4.5H4.75H8.75H10.75H14.75H16.75ZM20.75 20.5H16.75V16.5H20.75V20.5ZM20.75 14.5H16.75V10.5H20.75V14.5Z" fill="black" fill-opacity="0.34"/>
</g>
<defs>
<filter id="filter0_i_1901_270633" x="0.75" y="0.5" width="24" height="24" filterUnits="userSpaceOnUse" color-interpolation-filters="sRGB">
<feFlood flood-opacity="0" result="BackgroundImageFix"/>
<feBlend mode="normal" in="SourceGraphic" in2="BackgroundImageFix" result="shape"/>
<feColorMatrix in="SourceAlpha" type="matrix" values="0 0 0 0 0 0 0 0 0 0 0 0 0 0 0 0 0 0 127 0" result="hardAlpha"/>
<feOffset dx="0.9675" dy="0.9675"/>
<feComposite in2="hardAlpha" operator="arithmetic" k2="-1" k3="1"/>
<feColorMatrix type="matrix" values="0 0 0 0 0 0 0 0 0 0 0 0 0 0 0 0 0 0 0.1 0"/>
<feBlend mode="normal" in2="shape" result="effect1_innerShadow_1901_270633"/>
</filter>
</defs>
</svg>
