<svg preserveAspectRatio="none" width="12" height="10" viewBox="0 0 12 10" fill="none" xmlns="http://www.w3.org/2000/svg">
<path vector-effect="non-scaling-stroke" opacity="0.4" d="M7.02095 3.65949V2.48125C6.78965 2.48125 6.59784 2.29492 6.59784 2.07023V0.6673C6.59784 0.480425 6.44552 0.333008 6.25371 0.333008H2.37798C1.15941 0.333008 0.166504 1.29698 0.166504 2.48125V3.90007C0.166504 4.01022 0.211636 4.11435 0.290617 4.19107C0.369599 4.26725 0.476788 4.31109 0.589618 4.31109C1.01837 4.31109 1.34558 4.60702 1.34558 4.99611C1.34558 5.4022 1.01273 5.72553 0.59526 5.73046C0.363957 5.73046 0.166504 5.88939 0.166504 6.11955V7.52303C0.166504 8.70676 1.15941 9.66579 2.37234 9.66579H6.25371C6.44552 9.66579 6.59784 9.51728 6.59784 9.3315V8.14723C6.59784 7.91761 6.78965 7.73621 7.02095 7.73621V6.6736C6.78965 6.6736 6.59784 6.48673 6.59784 6.26259V4.07051C6.59784 3.84582 6.78965 3.65949 7.02095 3.65949Z" fill="#0F212B"/>
<path vector-effect="non-scaling-stroke" d="M10.6541 4.99666C10.6541 5.4022 10.9926 5.72553 11.4045 5.73101C11.6358 5.73101 11.8332 5.88993 11.8332 6.11462V7.52303C11.8332 8.70731 10.8459 9.66634 9.62738 9.66634H7.78824C7.60207 9.66634 7.44411 9.51783 7.44411 9.3315V8.14778C7.44411 7.91761 7.25794 7.73676 7.021 7.73676V6.67415C7.25794 6.67415 7.44411 6.48728 7.44411 6.26313V4.07105C7.44411 3.84582 7.25794 3.66004 7.021 3.66004V2.48125C7.25794 2.48125 7.44411 2.29492 7.44411 2.07023V0.667848C7.44411 0.480973 7.60207 0.333008 7.78824 0.333008H9.62738C10.8459 0.333008 11.8332 1.29204 11.8332 2.47577V3.85678C11.8332 3.96638 11.7881 4.07105 11.7091 4.14723C11.6301 4.22395 11.5229 4.26779 11.4101 4.26779C10.9926 4.26779 10.6541 4.59715 10.6541 4.99666Z" fill="#0F212B"/>
</svg>
