<svg preserveAspectRatio="none" width="12" height="10" viewBox="0 0 12 10" fill="none" xmlns="http://www.w3.org/2000/svg">
<path vector-effect="non-scaling-stroke" opacity="0.4" d="M7.02114 3.65995V2.4817C6.78983 2.4817 6.59802 2.29538 6.59802 2.07069V0.667758C6.59802 0.480883 6.4457 0.333466 6.25389 0.333466H2.37816C1.15959 0.333466 0.166687 1.29743 0.166687 2.4817V3.90053C0.166687 4.01068 0.211819 4.11481 0.2908 4.19153C0.369782 4.2677 0.476971 4.31154 0.589801 4.31154C1.01856 4.31154 1.34576 4.60748 1.34576 4.99657C1.34576 5.40265 1.01292 5.72599 0.595443 5.73092C0.36414 5.73092 0.166687 5.88984 0.166687 6.12001V7.52349C0.166687 8.70721 1.15959 9.66625 2.37252 9.66625H6.25389C6.4457 9.66625 6.59802 9.51774 6.59802 9.33196V8.14769C6.59802 7.91807 6.78983 7.73667 7.02114 7.73667V6.67406C6.78983 6.67406 6.59802 6.48719 6.59802 6.26304V4.07096C6.59802 3.84628 6.78983 3.65995 7.02114 3.65995Z" fill="#0F212B"/>
<path vector-effect="non-scaling-stroke" d="M10.6543 4.997C10.6543 5.40253 10.9927 5.72586 11.4046 5.73134C11.6359 5.73134 11.8333 5.89027 11.8333 6.11496V7.52337C11.8333 8.70764 10.8461 9.66668 9.6275 9.66668H7.78837C7.6022 9.66668 7.44423 9.51816 7.44423 9.33184V8.14811C7.44423 7.91794 7.25806 7.7371 7.02112 7.7371V6.67449C7.25806 6.67449 7.44423 6.48761 7.44423 6.26347V4.07139C7.44423 3.84615 7.25806 3.66037 7.02112 3.66037V2.48158C7.25806 2.48158 7.44423 2.29526 7.44423 2.07057V0.668184C7.44423 0.481309 7.6022 0.333344 7.78837 0.333344H9.6275C10.8461 0.333344 11.8333 1.29238 11.8333 2.4761V3.85711C11.8333 3.96672 11.7882 4.07139 11.7092 4.14756C11.6302 4.22429 11.5231 4.26813 11.4102 4.26813C10.9927 4.26813 10.6543 4.59749 10.6543 4.997Z" fill="#0F212B"/>
</svg>
