<svg preserveAspectRatio="none" width="12" height="10" viewBox="0 0 12 10" fill="none" xmlns="http://www.w3.org/2000/svg">
<path vector-effect="non-scaling-stroke" opacity="0.4" d="M7.0212 3.65949V2.48125C6.78989 2.48125 6.59808 2.29492 6.59808 2.07023V0.6673C6.59808 0.480425 6.44576 0.333008 6.25395 0.333008H2.37822C1.15966 0.333008 0.166748 1.29698 0.166748 2.48125V3.90007C0.166748 4.01022 0.21188 4.11435 0.290862 4.19107C0.369843 4.26725 0.477032 4.31109 0.589862 4.31109C1.01862 4.31109 1.34583 4.60702 1.34583 4.99611C1.34583 5.4022 1.01298 5.72553 0.595504 5.73046C0.364201 5.73046 0.166748 5.88939 0.166748 6.11955V7.52303C0.166748 8.70676 1.15966 9.66579 2.37258 9.66579H6.25395C6.44576 9.66579 6.59808 9.51728 6.59808 9.3315V8.14723C6.59808 7.91761 6.78989 7.73621 7.0212 7.73621V6.6736C6.78989 6.6736 6.59808 6.48673 6.59808 6.26259V4.07051C6.59808 3.84582 6.78989 3.65949 7.0212 3.65949Z" fill="#0F212B"/>
<path vector-effect="non-scaling-stroke" d="M10.6544 4.99666C10.6544 5.4022 10.9929 5.72553 11.4047 5.73101C11.636 5.73101 11.8335 5.88993 11.8335 6.11462V7.52303C11.8335 8.70731 10.8462 9.66634 9.62762 9.66634H7.78849C7.60232 9.66634 7.44435 9.51783 7.44435 9.3315V8.14778C7.44435 7.91761 7.25818 7.73676 7.02124 7.73676V6.67415C7.25818 6.67415 7.44435 6.48728 7.44435 6.26313V4.07105C7.44435 3.84582 7.25818 3.66004 7.02124 3.66004V2.48125C7.25818 2.48125 7.44435 2.29492 7.44435 2.07023V0.667848C7.44435 0.480973 7.60232 0.333008 7.78849 0.333008H9.62762C10.8462 0.333008 11.8335 1.29204 11.8335 2.47577V3.85678C11.8335 3.96638 11.7883 4.07105 11.7093 4.14723C11.6304 4.22395 11.5232 4.26779 11.4103 4.26779C10.9929 4.26779 10.6544 4.59715 10.6544 4.99666Z" fill="#0F212B"/>
</svg>
