<svg preserveAspectRatio="none" width="12" height="10" viewBox="0 0 12 10" fill="none" xmlns="http://www.w3.org/2000/svg">
<path vector-effect="non-scaling-stroke" opacity="0.4" d="M7.02112 3.65993V2.48169C6.78981 2.48169 6.598 2.29536 6.598 2.07067V0.667743C6.598 0.480868 6.44568 0.333451 6.25387 0.333451H2.37814C1.15957 0.333451 0.166667 1.29742 0.166667 2.48169V3.90051C0.166667 4.01067 0.211799 4.11479 0.29078 4.19151C0.369762 4.26769 0.476951 4.31153 0.589781 4.31153C1.01854 4.31153 1.34575 4.60746 1.34575 4.99656C1.34575 5.40264 1.0129 5.72597 0.595423 5.7309C0.36412 5.7309 0.166667 5.88983 0.166667 6.12V7.52348C0.166667 8.7072 1.15957 9.66624 2.3725 9.66624H6.25387C6.44568 9.66624 6.598 9.51772 6.598 9.33194V8.14767C6.598 7.91805 6.78981 7.73666 7.02112 7.73666V6.67405C6.78981 6.67405 6.598 6.48717 6.598 6.26303V4.07095C6.598 3.84626 6.78981 3.65993 7.02112 3.65993Z" fill="#0F212B"/>
<path vector-effect="non-scaling-stroke" d="M10.6543 4.99699C10.6543 5.40252 10.9927 5.72585 11.4046 5.73133C11.6359 5.73133 11.8333 5.89026 11.8333 6.11495V7.52336C11.8333 8.70763 10.8461 9.66667 9.6275 9.66667H7.78836C7.60219 9.66667 7.44423 9.51815 7.44423 9.33183V8.1481C7.44423 7.91793 7.25806 7.73709 7.02112 7.73709V6.67448C7.25806 6.67448 7.44423 6.4876 7.44423 6.26346V4.07138C7.44423 3.84614 7.25806 3.66036 7.02112 3.66036V2.48157C7.25806 2.48157 7.44423 2.29525 7.44423 2.07056V0.668174C7.44423 0.481299 7.60219 0.333333 7.78836 0.333333H9.6275C10.8461 0.333333 11.8333 1.29237 11.8333 2.47609V3.8571C11.8333 3.96671 11.7882 4.07138 11.7092 4.14755C11.6302 4.22428 11.5231 4.26812 11.4102 4.26812C10.9927 4.26812 10.6543 4.59748 10.6543 4.99699Z" fill="#0F212B"/>
</svg>
