<svg preserveAspectRatio="none" width="12" height="10" viewBox="0 0 12 10" fill="none" xmlns="http://www.w3.org/2000/svg">
<path vector-effect="non-scaling-stroke" opacity="0.4" d="M7.02112 3.65993V2.48169C6.78982 2.48169 6.59801 2.29536 6.59801 2.07067V0.667743C6.59801 0.480868 6.44569 0.33345 6.25387 0.33345H2.37815C1.15958 0.33345 0.166672 1.29742 0.166672 2.48169V3.90051C0.166672 4.01067 0.211804 4.11479 0.290785 4.19151C0.369767 4.26769 0.476955 4.31153 0.589786 4.31153C1.01854 4.31153 1.34575 4.60746 1.34575 4.99655C1.34575 5.40264 1.0129 5.72597 0.595427 5.7309C0.364125 5.7309 0.166672 5.88983 0.166672 6.12V7.52348C0.166672 8.7072 1.15958 9.66623 2.37251 9.66623H6.25387C6.44569 9.66623 6.59801 9.51772 6.59801 9.33194V8.14767C6.59801 7.91805 6.78982 7.73666 7.02112 7.73666V6.67404C6.78982 6.67404 6.59801 6.48717 6.59801 6.26303V4.07095C6.59801 3.84626 6.78982 3.65993 7.02112 3.65993Z" fill="#0F212B"/>
<path vector-effect="non-scaling-stroke" d="M10.6543 4.99698C10.6543 5.40252 10.9927 5.72585 11.4046 5.73133C11.6359 5.73133 11.8333 5.89025 11.8333 6.11494V7.52335C11.8333 8.70763 10.8461 9.66666 9.6275 9.66666H7.78837C7.6022 9.66666 7.44423 9.51815 7.44423 9.33182V8.1481C7.44423 7.91793 7.25806 7.73708 7.02112 7.73708V6.67447C7.25806 6.67447 7.44423 6.4876 7.44423 6.26346V4.07137C7.44423 3.84614 7.25806 3.66036 7.02112 3.66036V2.48157C7.25806 2.48157 7.44423 2.29524 7.44423 2.07055V0.668169C7.44423 0.481294 7.6022 0.333328 7.78837 0.333328H9.6275C10.8461 0.333328 11.8333 1.29236 11.8333 2.47609V3.8571C11.8333 3.9667 11.7882 4.07137 11.7092 4.14755C11.6302 4.22427 11.5231 4.26811 11.4102 4.26811C10.9927 4.26811 10.6543 4.59747 10.6543 4.99698Z" fill="#0F212B"/>
</svg>
