<svg preserveAspectRatio="none" width="12" height="10" viewBox="0 0 12 10" fill="none" xmlns="http://www.w3.org/2000/svg">
<path vector-effect="non-scaling-stroke" opacity="0.4" d="M7.0211 3.65998V2.48174C6.7898 2.48174 6.59799 2.29541 6.59799 2.07072V0.667788C6.59799 0.480914 6.44567 0.333496 6.25386 0.333496H2.37813C1.15956 0.333496 0.166656 1.29746 0.166656 2.48174V3.90056C0.166656 4.01071 0.211789 4.11484 0.29077 4.19156C0.369751 4.26773 0.47694 4.31158 0.589771 4.31158C1.01853 4.31158 1.34573 4.60751 1.34573 4.9966C1.34573 5.40268 1.01288 5.72602 0.595412 5.73095C0.36411 5.73095 0.166656 5.88987 0.166656 6.12004V7.52352C0.166656 8.70725 1.15956 9.66628 2.37249 9.66628H6.25386C6.44567 9.66628 6.59799 9.51777 6.59799 9.33199V8.14772C6.59799 7.9181 6.7898 7.7367 7.0211 7.7367V6.67409C6.7898 6.67409 6.59799 6.48722 6.59799 6.26308V4.07099C6.59799 3.84631 6.7898 3.65998 7.0211 3.65998Z" fill="#0F212B"/>
<path vector-effect="non-scaling-stroke" d="M10.6543 4.99703C10.6543 5.40256 10.9927 5.72589 11.4046 5.73137C11.6359 5.73137 11.8333 5.8903 11.8333 6.11499V7.5234C11.8333 8.70767 10.8461 9.66671 9.6275 9.66671H7.78837C7.6022 9.66671 7.44423 9.51819 7.44423 9.33187V8.14814C7.44423 7.91797 7.25806 7.73713 7.02112 7.73713V6.67452C7.25806 6.67452 7.44423 6.48764 7.44423 6.2635V4.07142C7.44423 3.84618 7.25806 3.6604 7.02112 3.6604V2.48161C7.25806 2.48161 7.44423 2.29529 7.44423 2.0706V0.668214C7.44423 0.481339 7.6022 0.333374 7.78837 0.333374H9.6275C10.8461 0.333374 11.8333 1.29241 11.8333 2.47613V3.85714C11.8333 3.96675 11.7882 4.07142 11.7092 4.1476C11.6302 4.22432 11.5231 4.26816 11.4102 4.26816C10.9927 4.26816 10.6543 4.59752 10.6543 4.99703Z" fill="#0F212B"/>
</svg>
