<svg preserveAspectRatio="none" width="12" height="10" viewBox="0 0 12 10" fill="none" xmlns="http://www.w3.org/2000/svg">
<path vector-effect="non-scaling-stroke" opacity="0.4" d="M7.02111 3.65998V2.48174C6.78981 2.48174 6.598 2.29541 6.598 2.07072V0.667788C6.598 0.480914 6.44568 0.333496 6.25387 0.333496H2.37814C1.15957 0.333496 0.166664 1.29746 0.166664 2.48174V3.90056C0.166664 4.01071 0.211796 4.11484 0.290778 4.19156C0.369759 4.26773 0.476948 4.31158 0.589778 4.31158C1.01853 4.31158 1.34574 4.60751 1.34574 4.9966C1.34574 5.40268 1.01289 5.72602 0.59542 5.73095C0.364117 5.73095 0.166664 5.88987 0.166664 6.12004V7.52352C0.166664 8.70725 1.15957 9.66628 2.3725 9.66628H6.25387C6.44568 9.66628 6.598 9.51777 6.598 9.33199V8.14772C6.598 7.9181 6.78981 7.7367 7.02111 7.7367V6.67409C6.78981 6.67409 6.598 6.48722 6.598 6.26308V4.07099C6.598 3.84631 6.78981 3.65998 7.02111 3.65998Z" fill="#0F212B"/>
<path vector-effect="non-scaling-stroke" d="M10.6543 4.99703C10.6543 5.40256 10.9927 5.72589 11.4046 5.73137C11.6359 5.73137 11.8333 5.8903 11.8333 6.11499V7.5234C11.8333 8.70767 10.8461 9.66671 9.62749 9.66671H7.78836C7.60219 9.66671 7.44422 9.51819 7.44422 9.33187V8.14814C7.44422 7.91797 7.25805 7.73713 7.02111 7.73713V6.67452C7.25805 6.67452 7.44422 6.48764 7.44422 6.2635V4.07142C7.44422 3.84618 7.25805 3.6604 7.02111 3.6604V2.48161C7.25805 2.48161 7.44422 2.29529 7.44422 2.0706V0.668214C7.44422 0.481339 7.60219 0.333374 7.78836 0.333374H9.62749C10.8461 0.333374 11.8333 1.29241 11.8333 2.47613V3.85714C11.8333 3.96675 11.7882 4.07142 11.7092 4.1476C11.6302 4.22432 11.523 4.26816 11.4102 4.26816C10.9927 4.26816 10.6543 4.59752 10.6543 4.99703Z" fill="#0F212B"/>
</svg>
