<svg preserveAspectRatio="none" width="12" height="10" viewBox="0 0 12 10" fill="none" xmlns="http://www.w3.org/2000/svg">
<path vector-effect="non-scaling-stroke" opacity="0.4" d="M6.85445 3.3266V2.14836C6.62315 2.14836 6.43133 1.96203 6.43133 1.73735V0.334414C6.43133 0.14754 6.27901 0.00012207 6.0872 0.00012207H2.21148C0.992908 0.00012207 0 0.96409 0 2.14836V3.56719C0 3.67734 0.0451322 3.78146 0.124113 3.85818C0.203095 3.93436 0.310284 3.9782 0.423114 3.9782C0.85187 3.9782 1.17908 4.27413 1.17908 4.66323C1.17908 5.06931 0.846228 5.39264 0.428756 5.39757C0.197453 5.39757 0 5.5565 0 5.78667V7.19015C0 8.37387 0.992908 9.33291 2.20583 9.33291H6.0872C6.27901 9.33291 6.43133 9.18439 6.43133 8.99861V7.81434C6.43133 7.58472 6.62315 7.40333 6.85445 7.40333V6.34072C6.62315 6.34072 6.43133 6.15384 6.43133 5.9297V3.73762C6.43133 3.51293 6.62315 3.3266 6.85445 3.3266Z" fill="#0F212B"/>
<path vector-effect="non-scaling-stroke" d="M10.4876 4.66365C10.4876 5.06919 10.8261 5.39252 11.2379 5.398C11.4692 5.398 11.6667 5.55693 11.6667 5.78161V7.19003C11.6667 8.3743 10.6794 9.33333 9.46084 9.33333H7.62171C7.43554 9.33333 7.27758 9.18482 7.27758 8.99849V7.81477C7.27758 7.5846 7.09141 7.40375 6.85446 7.40375V6.34114C7.09141 6.34114 7.27758 6.15427 7.27758 5.93013V3.73805C7.27758 3.51281 7.09141 3.32703 6.85446 3.32703V2.14824C7.09141 2.14824 7.27758 1.96191 7.27758 1.73722V0.33484C7.27758 0.147965 7.43554 0 7.62171 0H9.46084C10.6794 0 11.6667 0.959035 11.6667 2.14276V3.52377C11.6667 3.63337 11.6215 3.73805 11.5426 3.81422C11.4636 3.89094 11.3564 3.93479 11.2436 3.93479C10.8261 3.93479 10.4876 4.26415 10.4876 4.66365Z" fill="#0F212B"/>
</svg>
