<svg preserveAspectRatio="none" width="12" height="12" viewBox="0 0 12 12" fill="none" xmlns="http://www.w3.org/2000/svg">
<path vector-effect="non-scaling-stroke" opacity="0.4" d="M11.8332 5.99994C11.8332 9.22228 9.22159 11.8333 5.99984 11.8333C2.77809 11.8333 0.166504 9.22228 0.166504 5.99994C0.166504 2.77878 2.77809 0.166611 5.99984 0.166611C9.22159 0.166611 11.8332 2.77878 11.8332 5.99994Z" fill="#0F212B"/>
<path vector-effect="non-scaling-stroke" d="M8.08451 8.22508C8.00809 8.22508 7.93109 8.20524 7.86051 8.16383L5.57034 6.79766C5.43851 6.71833 5.35742 6.57541 5.35742 6.42141V3.47733C5.35742 3.23583 5.55342 3.03983 5.79492 3.03983C6.03642 3.03983 6.23242 3.23583 6.23242 3.47733V6.17291L8.30909 7.41133C8.51617 7.53558 8.58442 7.80391 8.46076 8.01158C8.37851 8.14866 8.23326 8.22508 8.08451 8.22508Z" fill="#0F212B"/>
</svg>
