<svg preserveAspectRatio="none" width="12" height="12" viewBox="0 0 12 12" fill="none" xmlns="http://www.w3.org/2000/svg">
<path vector-effect="non-scaling-stroke" opacity="0.4" d="M11.8332 6.00033C11.8332 9.22266 9.22159 11.8337 5.99984 11.8337C2.77809 11.8337 0.166504 9.22266 0.166504 6.00033C0.166504 2.77916 2.77809 0.166992 5.99984 0.166992C9.22159 0.166992 11.8332 2.77916 11.8332 6.00033Z" fill="#0F212B"/>
<path vector-effect="non-scaling-stroke" d="M8.08451 8.22529C8.00809 8.22529 7.93109 8.20546 7.86051 8.16404L5.57034 6.79787C5.43851 6.71854 5.35742 6.57562 5.35742 6.42162V3.47754C5.35742 3.23604 5.55342 3.04004 5.79492 3.04004C6.03642 3.04004 6.23242 3.23604 6.23242 3.47754V6.17312L8.30909 7.41154C8.51617 7.53579 8.58442 7.80412 8.46076 8.01179C8.37851 8.14887 8.23326 8.22529 8.08451 8.22529Z" fill="#0F212B"/>
</svg>
