<svg preserveAspectRatio="none" width="12" height="12" viewBox="0 0 12 12" fill="none" xmlns="http://www.w3.org/2000/svg">
<path vector-effect="non-scaling-stroke" opacity="0.4" d="M11.8332 5.99994C11.8332 9.22228 9.22165 11.8333 5.9999 11.8333C2.77815 11.8333 0.166565 9.22228 0.166565 5.99994C0.166565 2.77878 2.77815 0.166611 5.9999 0.166611C9.22165 0.166611 11.8332 2.77878 11.8332 5.99994Z" fill="#0F212B"/>
<path vector-effect="non-scaling-stroke" d="M8.08457 8.22508C8.00815 8.22508 7.93115 8.20524 7.86057 8.16383L5.5704 6.79766C5.43857 6.71833 5.35748 6.57541 5.35748 6.42141V3.47733C5.35748 3.23583 5.55348 3.03983 5.79498 3.03983C6.03648 3.03983 6.23248 3.23583 6.23248 3.47733V6.17291L8.30915 7.41133C8.51623 7.53558 8.58448 7.80391 8.46082 8.01158C8.37857 8.14866 8.23332 8.22508 8.08457 8.22508Z" fill="#0F212B"/>
</svg>
