<svg preserveAspectRatio="none" width="12" height="12" viewBox="0 0 12 12" fill="none" xmlns="http://www.w3.org/2000/svg">
<path vector-effect="non-scaling-stroke" opacity="0.4" d="M11.8332 5.99994C11.8332 9.22228 9.22163 11.8333 5.99988 11.8333C2.77813 11.8333 0.16655 9.22228 0.16655 5.99994C0.16655 2.77878 2.77813 0.166611 5.99988 0.166611C9.22163 0.166611 11.8332 2.77878 11.8332 5.99994Z" fill="#0F212B"/>
<path vector-effect="non-scaling-stroke" d="M8.08454 8.22508C8.00813 8.22508 7.93113 8.20524 7.86054 8.16383L5.57038 6.79766C5.43854 6.71833 5.35746 6.57541 5.35746 6.42141V3.47733C5.35746 3.23583 5.55346 3.03983 5.79496 3.03983C6.03646 3.03983 6.23246 3.23583 6.23246 3.47733V6.17291L8.30913 7.41133C8.51621 7.53558 8.58446 7.80391 8.46079 8.01158C8.37854 8.14866 8.23329 8.22508 8.08454 8.22508Z" fill="#0F212B"/>
</svg>
