<svg preserveAspectRatio="none" width="12" height="12" viewBox="0 0 12 12" fill="none" xmlns="http://www.w3.org/2000/svg">
<path vector-effect="non-scaling-stroke" opacity="0.4" d="M11.8332 5.99996C11.8332 9.22229 9.22165 11.8333 5.9999 11.8333C2.77815 11.8333 0.166565 9.22229 0.166565 5.99996C0.166565 2.77879 2.77815 0.166626 5.9999 0.166626C9.22165 0.166626 11.8332 2.77879 11.8332 5.99996Z" fill="#0F212B"/>
<path vector-effect="non-scaling-stroke" d="M8.08457 8.22505C8.00815 8.22505 7.93115 8.20521 7.86057 8.1638L5.5704 6.79763C5.43857 6.7183 5.35748 6.57538 5.35748 6.42138V3.47729C5.35748 3.23579 5.55348 3.03979 5.79498 3.03979C6.03648 3.03979 6.23248 3.23579 6.23248 3.47729V6.17288L8.30915 7.4113C8.51623 7.53555 8.58448 7.80388 8.46082 8.01155C8.37857 8.14863 8.23332 8.22505 8.08457 8.22505Z" fill="#0F212B"/>
</svg>
