<svg preserveAspectRatio="none" width="12" height="12" viewBox="0 0 12 12" fill="none" xmlns="http://www.w3.org/2000/svg">
<path vector-effect="non-scaling-stroke" opacity="0.4" d="M11.8332 5.99994C11.8332 9.22227 9.22165 11.8333 5.9999 11.8333C2.77815 11.8333 0.166565 9.22227 0.166565 5.99994C0.166565 2.77878 2.77815 0.166608 5.9999 0.166608C9.22165 0.166608 11.8332 2.77878 11.8332 5.99994Z" fill="#0F212B"/>
<path vector-effect="non-scaling-stroke" d="M8.08457 8.22507C8.00815 8.22507 7.93115 8.20523 7.86057 8.16382L5.5704 6.79765C5.43857 6.71832 5.35748 6.5754 5.35748 6.4214V3.47732C5.35748 3.23582 5.55348 3.03982 5.79498 3.03982C6.03648 3.03982 6.23248 3.23582 6.23248 3.47732V6.1729L8.30915 7.41132C8.51623 7.53557 8.58448 7.8039 8.46082 8.01157C8.37857 8.14865 8.23332 8.22507 8.08457 8.22507Z" fill="#0F212B"/>
</svg>
