<svg preserveAspectRatio="none" width="12" height="12" viewBox="0 0 12 12" fill="none" xmlns="http://www.w3.org/2000/svg">
<path vector-effect="non-scaling-stroke" opacity="0.4" d="M11.8332 5.99994C11.8332 9.22227 9.22163 11.8333 5.99988 11.8333C2.77813 11.8333 0.16655 9.22227 0.16655 5.99994C0.16655 2.77878 2.77813 0.166608 5.99988 0.166608C9.22163 0.166608 11.8332 2.77878 11.8332 5.99994Z" fill="#0F212B"/>
<path vector-effect="non-scaling-stroke" d="M8.08454 8.22507C8.00812 8.22507 7.93112 8.20523 7.86054 8.16382L5.57037 6.79765C5.43854 6.71832 5.35746 6.5754 5.35746 6.4214V3.47732C5.35746 3.23582 5.55346 3.03982 5.79496 3.03982C6.03646 3.03982 6.23246 3.23582 6.23246 3.47732V6.1729L8.30912 7.41132C8.51621 7.53557 8.58446 7.8039 8.46079 8.01157C8.37854 8.14865 8.23329 8.22507 8.08454 8.22507Z" fill="#0F212B"/>
</svg>
