<svg preserveAspectRatio="none" width="13" height="12" viewBox="0 0 13 12" fill="none" xmlns="http://www.w3.org/2000/svg">
<path vector-effect="non-scaling-stroke" opacity="0.4" d="M12.4999 5.99993C12.4999 9.22226 9.8883 11.8333 6.66655 11.8333C3.4448 11.8333 0.833221 9.22226 0.833221 5.99993C0.833221 2.77876 3.4448 0.166595 6.66655 0.166595C9.8883 0.166595 12.4999 2.77876 12.4999 5.99993Z" fill="#0F212B"/>
<path vector-effect="non-scaling-stroke" d="M8.75122 8.22505C8.67481 8.22505 8.59781 8.20521 8.52722 8.1638L6.23706 6.79763C6.10522 6.7183 6.02414 6.57538 6.02414 6.42138V3.47729C6.02414 3.23579 6.22014 3.03979 6.46164 3.03979C6.70314 3.03979 6.89914 3.23579 6.89914 3.47729V6.17288L8.97581 7.4113C9.18289 7.53555 9.25114 7.80388 9.12747 8.01155C9.04522 8.14863 8.89997 8.22505 8.75122 8.22505Z" fill="#0F212B"/>
</svg>
