<svg preserveAspectRatio="none" width="12" height="12" viewBox="0 0 12 12" fill="none" xmlns="http://www.w3.org/2000/svg">
<path vector-effect="non-scaling-stroke" opacity="0.4" d="M11.8332 5.99996C11.8332 9.22229 9.22163 11.8333 5.99988 11.8333C2.77813 11.8333 0.16655 9.22229 0.16655 5.99996C0.16655 2.77879 2.77813 0.166626 5.99988 0.166626C9.22163 0.166626 11.8332 2.77879 11.8332 5.99996Z" fill="#0F212B"/>
<path vector-effect="non-scaling-stroke" d="M8.08454 8.22505C8.00813 8.22505 7.93113 8.20521 7.86054 8.1638L5.57038 6.79763C5.43854 6.7183 5.35746 6.57538 5.35746 6.42138V3.47729C5.35746 3.23579 5.55346 3.03979 5.79496 3.03979C6.03646 3.03979 6.23246 3.23579 6.23246 3.47729V6.17288L8.30913 7.4113C8.51621 7.53555 8.58446 7.80388 8.46079 8.01155C8.37854 8.14863 8.23329 8.22505 8.08454 8.22505Z" fill="#0F212B"/>
</svg>
