<svg preserveAspectRatio="none" width="12" height="14" viewBox="0 0 12 14" fill="none" xmlns="http://www.w3.org/2000/svg">
<path vector-effect="non-scaling-stroke" fill-rule="evenodd" clip-rule="evenodd" d="M4.39294 2.23438C4.39294 2.05756 4.46318 1.88799 4.58821 1.76297C4.71323 1.63795 4.8828 1.56771 5.05961 1.56771H6.39294C6.56976 1.56771 6.73932 1.63795 6.86435 1.76297C6.98937 1.88799 7.05961 2.05756 7.05961 2.23438V2.90104H4.39294V2.23438ZM3.05961 2.90104V2.23438C3.05961 1.70394 3.27032 1.19523 3.6454 0.820162C4.02047 0.445089 4.52918 0.234375 5.05961 0.234375H6.39294C6.92338 0.234375 7.43209 0.445089 7.80716 0.820162C8.18223 1.19523 8.39294 1.70394 8.39294 2.23438V2.90104H11.0596V4.23438H0.392944V2.90104H3.05961ZM1.05961 5.56771H2.39294V12.2344H9.05961V5.56771H10.3929V13.5677H1.05961V5.56771Z" fill="white" fill-opacity="0.54"/>
</svg>
