<svg preserveAspectRatio="none" width="108" height="55" viewBox="0 0 108 55" fill="none" xmlns="http://www.w3.org/2000/svg">
<path vector-effect="non-scaling-stroke" d="M79.2896 23.7148C76.6813 22.4422 74.6896 21.457 72.7687 20.5333C72.0813 20.1844 71.3988 19.902 70.7721 19.4818C69.8724 18.9486 68.639 18.3737 69.2017 17.063C69.7694 15.8187 71.0586 16.2558 72.0041 16.5185C73.0103 16.7099 74.0365 17.1669 74.992 17.5623C79.4205 19.2989 83.8541 21.1019 88.2219 22.9098C89.3846 23.4232 90.608 23.8653 91.6542 24.5877C93.878 26.0227 93.8663 27.6258 91.6548 28.9937C88.6842 30.8192 85.6379 32.5169 82.5916 34.2146C81.3265 34.9773 79.9956 35.7449 78.6498 36.3134C77.8807 36.6382 76.9552 36.641 76.1054 36.7717C75.7027 34.9327 76.7247 34.4553 77.6103 33.9215C79.8168 32.4872 82.0941 31.1143 84.3006 29.6801C85.0547 29.1561 85.8745 28.6271 86.5837 27.5057C85.3902 27.4619 84.2574 27.3468 83.0689 27.3694C74.1575 27.572 65.3118 27.7697 56.4004 27.9723C43.4631 28.2773 30.5916 28.5773 17.6494 28.8159C16.5924 28.8286 15.5104 28.5094 14.2362 28.2714C15.285 26.3901 16.6957 26.6846 17.8185 26.6669C24.1406 26.3252 30.5385 26.1113 36.8656 25.8359C50.5112 25.2774 64.1567 24.7189 77.8023 24.1604C78.126 24.0693 78.3183 23.9881 79.2896 23.7148Z" fill="white"/>
</svg>
