<svg preserveAspectRatio="none" width="10" height="7" viewBox="0 0 10 7" fill="none" xmlns="http://www.w3.org/2000/svg">
<path vector-effect="non-scaling-stroke" d="M2.71 6.97467C4.02995 6.97467 4.95321 6.22838 4.95321 5.16279C4.95321 4.35182 4.43987 3.72198 3.65886 3.57532V3.50623C4.30205 3.32944 4.69874 2.79881 4.69874 2.11719C4.69874 1.14649 3.87534 0.456299 2.71 0.456299C1.54555 0.456299 0.721213 1.14649 0.721213 2.11719C0.721213 2.79448 1.12674 3.33368 1.76109 3.50623V3.57532C0.98008 3.72198 0.466797 4.35182 0.466797 5.16279C0.466797 6.22838 1.39006 6.97467 2.71 6.97467ZM2.71 3.24745C1.9767 3.24745 1.48543 2.82469 1.48543 2.19052C1.48543 1.54768 1.97228 1.12069 2.71 1.12069C3.44773 1.12069 3.93538 1.54768 3.93538 2.19052C3.93538 2.82469 3.44331 3.24745 2.71 3.24745ZM2.71 6.31037C1.84771 6.31037 1.25221 5.81852 1.25221 5.10677C1.25221 4.39494 1.84771 3.90318 2.71 3.90318C3.57318 3.90318 4.16866 4.39494 4.16866 5.10677C4.16866 5.81852 3.57318 6.31037 2.71 6.31037ZM6.12294 3.45021C6.12294 4.12317 6.51963 4.49849 7.39076 4.70991L8.18857 4.90401C8.6851 5.02479 8.92626 5.24045 8.92626 5.55974C8.92626 5.98683 8.47836 6.28448 7.85284 6.28448C7.25736 6.28448 6.88627 6.03427 6.76081 5.64165H5.99751C6.07968 6.41391 6.79085 6.91 7.82631 6.91C8.88386 6.91 9.69053 6.33625 9.69053 5.50364C9.69053 4.83501 9.26731 4.45537 8.39176 4.24395L7.67527 4.0714C7.1275 3.93764 6.86861 3.73921 6.86861 3.42C6.86861 3.00581 7.30065 2.72548 7.85284 2.72548C8.41298 2.72548 8.77608 2.97136 8.87503 3.34234H9.60835C9.5094 2.57873 8.83173 2.09563 7.85635 2.09563C6.86859 2.09563 6.12294 2.67795 6.12294 3.45021Z" fill="#D1D5DA"/>
</svg>
