<svg preserveAspectRatio="none" width="29" height="10" viewBox="0 0 29 10" fill="none" xmlns="http://www.w3.org/2000/svg">
<path vector-effect="non-scaling-stroke" d="M3.98539 9.71205C5.84515 9.71205 6.98045 8.76989 6.98045 7.23587C6.98045 6.10039 6.17117 5.25488 4.99965 5.14613V5.03745C5.87519 4.89857 6.55195 4.08919 6.55195 3.17124C6.55195 1.83044 5.55536 0.996946 3.90057 0.996946H0.258789V9.71205H3.98539ZM1.8164 2.21096H3.51978C4.46247 2.21096 5.01201 2.66393 5.01201 3.443C5.01201 4.24018 4.42625 4.66903 3.32099 4.66903H1.8164V2.21096ZM1.8164 8.49812V5.77429H3.56837C4.75845 5.77429 5.38662 6.23928 5.38662 7.12711C5.38662 8.02094 4.77612 8.49812 3.62845 8.49812H1.8164ZM14.2702 3.11081H12.7727V6.95801C12.7727 7.95451 12.2408 8.55847 11.269 8.55847C10.3749 8.55847 9.95784 8.06326 9.95784 7.03655V3.11081H8.46031V7.39887C8.46031 8.945 9.30583 9.84493 10.7495 9.84493C11.7575 9.84493 12.4043 9.41608 12.7241 8.66113H12.8266V9.71205H14.2702V3.11081ZM16.8677 2.00555C17.3625 2.00555 17.7671 1.61301 17.7671 1.11781C17.7671 0.628614 17.3625 0.22998 16.8677 0.22998C16.3782 0.22998 15.9736 0.628614 15.9736 1.11781C15.9736 1.61301 16.3782 2.00555 16.8677 2.00555ZM16.1247 9.71205H17.616V3.11081H16.1247V9.71205ZM19.5367 9.71205H21.0343V0.556079H19.5367V9.71205ZM25.3228 9.82072C26.2407 9.82072 27.0014 9.39196 27.376 8.66723H27.4785V9.71205H28.9284V0.556079H27.4308V4.16173H27.3274C26.9776 3.43699 26.2284 3.00214 25.3228 3.00214C23.6556 3.00214 22.6051 4.31873 22.6051 6.40838C22.6051 8.50413 23.6494 9.82072 25.3228 9.82072ZM25.7875 4.25229C26.8141 4.25229 27.4485 5.07969 27.4485 6.41448C27.4485 7.75528 26.8203 8.57658 25.7875 8.57658C24.7609 8.57658 24.1389 7.76729 24.1389 6.41448C24.1389 5.06767 24.7671 4.25229 25.7875 4.25229Z" fill="#2F363D"/>
</svg>
