<svg preserveAspectRatio="none" width="30" height="9" viewBox="0 0 30 9" fill="none" xmlns="http://www.w3.org/2000/svg">
<path vector-effect="non-scaling-stroke" fill-rule="evenodd" clip-rule="evenodd" d="M23.3052 2.1506C25.0208 2.15194 26.6717 2.80873 27.915 3.99069C28.0079 4.08068 28.1572 4.07933 28.2501 3.98666L29.1448 3.08676C29.1681 3.06348 29.1864 3.03583 29.1989 3.00542C29.2113 2.975 29.2176 2.94243 29.2174 2.90958C29.2171 2.87673 29.2103 2.84425 29.1974 2.81403C29.1845 2.78381 29.1657 2.75645 29.1422 2.73352C27.5716 1.23125 25.4804 0.392578 23.3052 0.392578C21.1299 0.392578 19.0388 1.23125 17.4682 2.73352C17.445 2.75633 17.4265 2.78349 17.4138 2.81346C17.4011 2.84342 17.3944 2.87559 17.3942 2.90813C17.3942 2.97528 17.4198 3.03841 17.4655 3.08542L18.3617 3.98666C18.4531 4.08068 18.6039 4.08068 18.6967 3.98935C19.9399 2.80954 21.5898 2.15039 23.3052 2.1506ZM23.3052 5.08534C24.2484 5.08534 25.1566 5.43455 25.8563 6.06583C25.9505 6.15581 26.0999 6.15447 26.1914 6.0618L27.0848 5.16056C27.1081 5.13716 27.1265 5.1094 27.1389 5.07887C27.1514 5.04835 27.1577 5.01566 27.1574 4.9827C27.1572 4.94974 27.1504 4.91716 27.1375 4.88683C27.1246 4.85649 27.1057 4.82901 27.0821 4.80597C26.0565 3.85396 24.7078 3.32478 23.3072 3.32478C21.9066 3.32478 20.558 3.85396 19.5323 4.80597C19.4844 4.85218 19.4568 4.91545 19.4556 4.98192C19.4556 5.04908 19.4812 5.11355 19.5282 5.16056L20.4217 6.0618C20.4663 6.10584 20.5263 6.13087 20.5891 6.13162C20.6518 6.13237 20.7124 6.10878 20.7581 6.06583C21.4559 5.43499 22.3637 5.08554 23.3052 5.08534ZM25.0961 7.05974C25.0968 7.09269 25.0907 7.12543 25.0782 7.15593C25.0657 7.18642 25.0471 7.21403 25.0235 7.23703L23.4774 8.79507C23.4549 8.8176 23.4282 8.83549 23.3987 8.84769C23.3693 8.85989 23.3378 8.86617 23.3059 8.86617C23.274 8.86617 23.2424 8.85989 23.213 8.84769C23.1836 8.83549 23.1568 8.8176 23.1343 8.79507L21.5883 7.23703C21.5645 7.21388 21.5457 7.18605 21.5332 7.15531C21.5207 7.12456 21.5147 7.09157 21.5156 7.0584C21.5162 7.02543 21.5236 6.99293 21.5372 6.9629C21.5509 6.93287 21.5705 6.90595 21.595 6.88379C22.0733 6.48001 22.6795 6.25845 23.3059 6.25845C23.9323 6.25845 24.5384 6.48001 25.0167 6.88379C25.0412 6.90595 25.0608 6.93287 25.0745 6.9629C25.0881 6.99293 25.0955 7.02677 25.0961 7.05974ZM12.7279 0.651665H11.9542C11.749 0.651665 11.5522 0.733032 11.4071 0.877866C11.262 1.0227 11.1805 1.21914 11.1805 1.42397V8.12216C11.1805 8.54927 11.5263 8.89446 11.9542 8.89446H12.7279C12.9332 8.89446 13.1301 8.81313 13.2754 8.66834C13.4207 8.52354 13.5025 8.32711 13.5029 8.12216V1.42397C13.5025 1.21902 13.4207 1.02258 13.2754 0.877787C13.1301 0.732991 12.9332 0.651665 12.7279 0.651665ZM8.34138 2.45415H9.1164C9.54294 2.45415 9.89009 2.80068 9.89009 3.22779V8.12216C9.89009 8.32699 9.80858 8.52342 9.66348 8.66826C9.51839 8.81309 9.3216 8.89446 9.1164 8.89446H8.34138C8.13619 8.89446 7.93938 8.81309 7.79428 8.66826C7.64919 8.52342 7.56768 8.32699 7.56768 8.12216V3.22779C7.56768 2.80068 7.9135 2.45415 8.34138 2.45415ZM5.50361 4.25797H4.72857C4.52349 4.25833 4.3269 4.33981 4.18188 4.48457C4.03687 4.62932 3.95525 4.82555 3.95489 5.03027V8.12216C3.95489 8.54927 4.30204 8.89446 4.72857 8.89446H5.50361C5.70881 8.89446 5.9056 8.81309 6.05069 8.66826C6.19579 8.52342 6.2773 8.32699 6.2773 8.12216V5.03027C6.27694 4.82555 6.19532 4.62932 6.0503 4.48457C5.90529 4.33981 5.7087 4.25833 5.50361 4.25797ZM1.89083 5.80257H1.11579C0.910468 5.80293 0.713681 5.88459 0.568625 6.02964C0.423569 6.17469 0.342102 6.37127 0.342102 6.57622V8.12082C0.342102 8.54927 0.689249 8.89446 1.11579 8.89446H1.89083C2.09602 8.89446 2.29281 8.81309 2.43791 8.66826C2.583 8.52342 2.66451 8.32699 2.66451 8.12216V6.57622C2.66416 6.3715 2.58253 6.17527 2.43752 6.03051C2.2925 5.88575 2.09591 5.80293 1.89083 5.80257Z" fill="#1E1F20"/>
</svg>
