<svg preserveAspectRatio="none" width="21" height="9" viewBox="0 0 21 9" fill="none" xmlns="http://www.w3.org/2000/svg">
<path vector-effect="non-scaling-stroke" d="M4.199 8.09017V1.4588H6.60565V0.620117H0.859375V1.4588H3.26692V8.09017H4.199ZM10.592 6.64582C10.3588 7.13767 9.87198 7.40166 9.15281 7.40166C8.2057 7.40166 7.58899 6.70281 7.54305 5.6002V5.55877H11.555V5.21712C11.555 3.48289 10.6388 2.4113 9.13248 2.4113C7.59961 2.4113 6.61628 3.55013 6.61628 5.30511C6.61628 7.07035 7.58459 8.1885 9.13248 8.1885C10.3535 8.1885 11.2237 7.59841 11.4826 6.64582H10.592ZM9.12188 3.19814C10.0071 3.19814 10.5973 3.85043 10.6176 4.83916H7.54305C7.6102 3.85043 8.23131 3.19814 9.12188 3.19814ZM12.8229 4.03676C12.8229 4.84437 13.2991 5.29469 14.3451 5.54843L15.3028 5.78132C15.8983 5.9263 16.1881 6.18517 16.1881 6.56825C16.1881 7.08068 15.6492 7.43788 14.8991 7.43788C14.1843 7.43788 13.7391 7.13767 13.5889 6.66659H12.6727C12.7716 7.5932 13.6251 8.1885 14.8682 8.1885C16.136 8.1885 17.1043 7.49999 17.1043 6.50093C17.1043 5.69854 16.5972 5.243 15.5458 4.98926L14.687 4.78226C14.0288 4.62173 13.7187 4.38362 13.7187 4.00054C13.7187 3.50357 14.2365 3.16704 14.8991 3.16704C15.5723 3.16704 16.007 3.46213 16.1262 3.90733H17.0062C16.8869 2.99105 16.0741 2.4113 14.9044 2.4113C13.7187 2.4113 12.8229 3.11015 12.8229 4.03676ZM18.8227 1.06529V2.50963H17.9224V3.25513H18.8227V6.6407C18.8227 7.70708 19.2839 8.1316 20.4333 8.1316C20.6091 8.1316 20.7796 8.11084 20.9555 8.07983V7.32921C20.7902 7.34476 20.7019 7.34988 20.542 7.34988C19.9615 7.34988 19.7133 7.07035 19.7133 6.41293V3.25513H20.9555V2.50963H19.7133V1.06529H18.8227Z" fill="#6A737D"/>
</svg>
