<svg preserveAspectRatio="none" width="36" height="15" viewBox="0 0 36 15" fill="none" xmlns="http://www.w3.org/2000/svg">
<path vector-effect="non-scaling-stroke" d="M0.867493 0.534703C1.438 0.48635 2.0139 0.448732 2.59652 0.423212C3.1778 0.386948 3.76581 0.368164 4.36054 0.368164C4.98084 0.368164 5.6065 0.429949 6.23756 0.553517C6.88208 0.677085 7.45799 0.912124 7.96526 1.25865C8.48599 1.59175 8.90714 2.06186 9.22872 2.66761C9.55031 3.27336 9.71176 4.05909 9.71176 5.02346C9.71176 5.98783 9.55031 6.77356 9.22872 7.37931C8.93325 7.94193 8.50632 8.42523 7.98409 8.78827C7.46899 9.13788 6.88729 9.3779 6.27524 9.4934C5.66973 9.61553 5.05363 9.67762 4.43589 9.67876H3.97032L3.58012 9.64113V13.9257C3.35274 13.9616 3.1237 13.9863 2.89388 13.9996C2.46048 14.023 2.02614 14.023 1.59274 13.9996C1.34997 13.9863 1.10796 13.9616 0.867493 13.9257V0.534703ZM3.58012 7.39677C3.72948 7.42229 3.86538 7.43436 3.98917 7.43436H4.47221C4.78169 7.43436 5.08578 7.39678 5.38315 7.32291C5.68051 7.23695 5.94021 7.09993 6.16357 6.91457C6.39904 6.72922 6.58473 6.48881 6.72063 6.19198C6.85653 5.88306 6.92514 5.50562 6.92514 5.06105C6.92514 4.60304 6.85653 4.22025 6.72063 3.90999C6.60287 3.61334 6.41112 3.35165 6.16357 3.14977C5.94068 2.95246 5.67271 2.81275 5.38315 2.74283C5.08734 2.656 4.78055 2.6121 4.47221 2.61252C4.33631 2.61252 4.2058 2.6179 4.08201 2.63134C3.91422 2.63517 3.74672 2.64729 3.58012 2.66761V7.39677ZM16.3117 9.52964C16.1516 9.50388 15.9904 9.48552 15.8286 9.47459C15.675 9.45086 15.5199 9.43828 15.3644 9.43696C14.7576 9.43696 14.2745 9.54847 13.9153 9.77143C13.5681 9.98096 13.3945 10.3275 13.3945 10.8096C13.3945 11.1307 13.4631 11.3791 13.599 11.5511C13.7268 11.7173 13.8924 11.8508 14.0821 11.9406C14.2812 12.0158 14.4858 12.0641 14.6957 12.0897C14.919 12.1017 15.1101 12.1085 15.2716 12.1085C15.4579 12.108 15.6439 12.0954 15.8286 12.0709C16.0143 12.0333 16.1758 12.0024 16.3117 11.9782V9.52964ZM16.3117 7.61971C16.3117 7.32288 16.2632 7.08246 16.1637 6.89711C16.0713 6.71842 15.9293 6.57013 15.7546 6.47001C15.5565 6.35011 15.3349 6.27406 15.1047 6.24703C14.8275 6.20851 14.5477 6.19013 14.2678 6.19198C13.599 6.19198 12.8873 6.32227 12.1324 6.5815C11.9725 6.29207 11.8417 5.98746 11.7422 5.67219C11.6487 5.34064 11.6047 4.99712 11.6117 4.65275C12.1566 4.4674 12.7016 4.33038 13.2465 4.24442C13.7501 4.16147 14.2594 4.11793 14.7697 4.11416C16.0587 4.11416 17.0612 4.42309 17.7797 5.04227C18.5103 5.66011 18.8763 6.64864 18.8763 8.00923V13.5738C18.443 13.7095 17.9156 13.8384 17.2966 13.962C16.6777 14.0869 15.978 14.1487 15.1976 14.1487C14.5652 14.1487 13.9839 14.0923 13.451 13.9808C12.9672 13.8846 12.5066 13.6958 12.0947 13.4247C11.7252 13.1679 11.4251 12.8237 11.2215 12.4228C11.0237 12.0158 10.9241 11.5148 10.9241 10.9211C10.9241 10.3275 11.0479 9.83318 11.2955 9.43696C11.5552 9.02999 11.8835 8.70766 12.2804 8.47261C12.6895 8.22547 13.1416 8.05223 13.6367 7.95418C14.1246 7.84328 14.6233 7.78697 15.1236 7.78629C15.4828 7.78629 15.8784 7.80508 16.3117 7.84269V7.61971ZM23.0838 9.75262C22.3895 9.55518 21.8446 9.26374 21.449 8.88094C21.0641 8.48472 20.8731 7.89776 20.8731 7.11874C20.8731 6.17989 21.2068 5.44385 21.8755 4.91197C22.5577 4.38009 23.4807 4.11416 24.6446 4.11416C25.1277 4.11416 25.604 4.15846 26.0749 4.24442C26.5459 4.33038 27.0222 4.46068 27.5053 4.63394C27.4777 4.97337 27.4155 5.30911 27.3196 5.63592C27.2334 5.94976 27.1152 6.25399 26.967 6.54387C26.6474 6.41336 26.3181 6.30785 25.9821 6.22825C25.6128 6.12868 25.2317 6.07897 24.8492 6.08049C24.428 6.08049 24.0997 6.149 23.8642 6.28465C23.6287 6.40822 23.5117 6.61237 23.5117 6.89711C23.5117 7.16842 23.5911 7.3605 23.7526 7.47198C23.9261 7.58212 24.167 7.68824 24.4778 7.78629L25.5367 8.1019C25.8825 8.2013 26.1934 8.32487 26.4652 8.47261C26.7504 8.60961 26.9913 8.78152 27.1904 8.99239C27.3882 9.20192 27.543 9.46251 27.6546 9.77143C27.7663 10.0804 27.8215 10.4577 27.8215 10.9023C27.8215 11.3603 27.7219 11.7861 27.5241 12.1823C27.3298 12.5883 27.0437 12.9437 26.6885 13.2206C26.2921 13.5246 25.8453 13.7569 25.3685 13.9069C24.8492 14.0681 24.2598 14.1487 23.6045 14.1487C23.3072 14.1487 23.034 14.1352 22.7864 14.1111C22.5426 14.0995 22.3001 14.0685 22.0612 14.0184C21.8359 13.9801 21.6127 13.9304 21.3925 13.8693C21.1475 13.8005 20.9059 13.7203 20.6685 13.6289C20.6939 13.2906 20.7498 12.9552 20.8354 12.6269C20.935 12.2817 21.0588 11.9473 21.2068 11.6263C21.6158 11.7861 21.9993 11.9097 22.3586 11.997C22.7313 12.0708 23.1147 12.1085 23.5117 12.1085C23.6839 12.1085 23.8696 12.0951 24.0687 12.0709C24.2786 12.0333 24.4711 11.9782 24.6446 11.9043C24.8182 11.817 24.9608 11.7123 25.0712 11.5887C25.1981 11.4459 25.2651 11.2597 25.2582 11.0689C25.2582 10.7721 25.164 10.5625 24.9783 10.4389C24.754 10.2778 24.5024 10.1586 24.2356 10.087L23.0838 9.75262ZM30.0322 6.3397H28.8239L28.7311 5.96904L32.2053 1.53668H32.6332V4.3371H34.8816C34.9466 4.65437 34.9777 4.97766 34.9744 5.30149C34.9788 5.64981 34.9476 5.99765 34.8816 6.3397H32.6332V10.1045C32.6332 10.4886 32.6641 10.7976 32.726 11.0326C32.7879 11.2677 32.874 11.453 32.9857 11.5887C33.1095 11.7243 33.2588 11.817 33.4324 11.8667C33.6046 11.9164 33.8091 11.9406 34.0446 11.9406C34.2303 11.9406 34.4106 11.9285 34.5842 11.9043C34.7699 11.8667 34.93 11.8358 35.0672 11.8116C35.1534 12.0467 35.2153 12.2938 35.2529 12.553C35.2893 12.8002 35.3081 13.0231 35.3081 13.2206C35.3081 13.3562 35.3027 13.4744 35.2893 13.5738C35.2893 13.6598 35.2839 13.7457 35.2718 13.833C34.6934 13.9699 34.1008 14.0384 33.5064 14.0372C32.3788 14.0372 31.5177 13.7766 30.9229 13.2582C30.3296 12.7263 30.0322 11.8667 30.0322 10.6794V6.3397Z" fill="#9393AA"/>
</svg>
