<svg preserveAspectRatio="none" width="124" height="32" viewBox="0 0 124 32" fill="none" xmlns="http://www.w3.org/2000/svg">
<path vector-effect="non-scaling-stroke" d="M3.68449 7.57446L0.50766 1.2322C0.905005 1.17974 1.3065 1.16579 1.70654 1.19055C1.85455 1.19996 1.98507 1.2134 2.09675 1.2322L4.43665 6.19774L6.75099 1.2322C6.99489 1.1939 7.24145 1.17503 7.48835 1.17578C7.74502 1.17627 8.00133 1.19513 8.25531 1.2322L5.12018 7.57446V11.2331C4.75611 11.289 4.3868 11.303 4.01953 11.2748C3.9072 11.2667 3.79538 11.2528 3.68449 11.2331V7.57446ZM11.2922 11.3997C10.7901 11.4106 10.2913 11.3158 9.82825 11.1217C9.42571 10.938 9.06907 10.6673 8.78411 10.3292C8.49726 9.98156 8.28396 9.57948 8.15709 9.14726C8.02346 8.66716 7.95778 8.17077 7.96198 7.67251C7.96198 7.14332 8.02657 6.65172 8.15709 6.19774C8.29568 5.74376 8.50423 5.34888 8.78411 5.01578C9.06263 4.68134 9.41113 4.41676 9.82825 4.22201C10.2889 4.01874 10.7887 3.91922 11.2922 3.93053C11.8493 3.93053 12.3364 4.02725 12.7548 4.22201C13.1733 4.41676 13.5218 4.68134 13.8003 5.01578C14.0788 5.34888 14.2834 5.74376 14.4125 6.19774C14.5525 6.65172 14.6224 7.14332 14.6224 7.67251C14.6224 8.20036 14.5525 8.69193 14.4125 9.14726C14.2941 9.57989 14.0855 9.98268 13.8003 10.3292C13.5151 10.6676 13.158 10.9383 12.7548 11.1217C12.2922 11.3157 11.7939 11.4105 11.2922 11.3997ZM11.2922 10.301C11.9327 10.301 12.4063 10.0686 12.7131 9.60527C13.0199 9.14189 13.1733 8.49719 13.1733 7.67251C13.1733 6.84648 13.0199 6.20715 12.7131 5.75317C12.4063 5.28845 11.9327 5.05742 11.2922 5.05742C10.6504 5.05742 10.1768 5.28845 9.86997 5.75317C9.5726 6.20715 9.42459 6.84648 9.42459 7.67251C9.42459 8.49719 9.5726 9.14189 9.86997 9.60527C10.1768 10.0686 10.6504 10.301 11.2922 10.301ZM16.3528 4.09709C16.6938 4.0456 17.0394 4.03163 17.3835 4.05545C17.514 4.06485 17.6297 4.07829 17.732 4.09709V8.00561C17.732 8.45153 17.7737 8.82222 17.8571 9.11905C17.9406 9.40648 18.0657 9.63348 18.2339 9.80003C18.4029 9.96883 18.6144 10.089 18.8461 10.1479C19.0883 10.2124 19.3668 10.2459 19.683 10.2459C20.1567 10.2459 20.5603 10.1949 20.8954 10.0928V4.09709C20.9976 4.07829 21.108 4.06485 21.2291 4.05545C21.4566 4.03941 21.685 4.03941 21.9126 4.05545C22.0418 4.06485 22.1588 4.07829 22.2611 4.09709V11.0102C21.8753 11.1168 21.4847 11.2051 21.0905 11.2748C20.6307 11.3593 20.164 11.4011 19.6965 11.3997C19.2417 11.3997 18.8098 11.358 18.4007 11.2748C18.0143 11.2062 17.6506 11.0439 17.3418 10.802C17.015 10.5329 16.7648 10.1827 16.6165 9.78658C16.4403 9.35007 16.3528 8.77521 16.3528 8.06201V4.09709ZM27.7307 1.03744C27.833 1.01864 27.9433 1.0052 28.0644 0.995795C28.195 0.986393 28.3107 0.981018 28.4129 0.981018C28.6463 0.983303 28.8792 1.00216 29.1099 1.03744V5.18234C29.1934 5.05206 29.2956 4.91371 29.4167 4.76462C29.7078 4.43455 30.083 4.18946 30.5026 4.05545C30.7448 3.97217 31.0098 3.93053 31.2978 3.93053C32.1145 3.93053 32.7187 4.16692 33.1089 4.6397C33.5085 5.10308 33.7077 5.7948 33.7077 6.71215V11.2331C33.2554 11.3064 32.7942 11.3064 32.3419 11.2331V7.08825C32.3419 6.43012 32.2316 5.94792 32.0082 5.64168C31.7943 5.32605 31.4646 5.16892 31.0193 5.16892C30.7676 5.16892 30.5268 5.21458 30.294 5.30725C30.0579 5.39347 29.847 5.53702 29.6804 5.72495C29.4889 5.93723 29.3465 6.18899 29.2633 6.46235C29.1533 6.82255 29.1015 7.19797 29.1099 7.57446V11.2331C28.7684 11.2836 28.4224 11.2976 28.0779 11.2748C27.9615 11.2671 27.8456 11.2533 27.7307 11.2331V1.03744ZM39.5769 7.88069C39.2207 7.83447 38.8623 7.80668 38.5032 7.79742C37.9273 7.79742 37.4859 7.90352 37.1792 8.11708C36.8818 8.33063 36.7338 8.65568 36.7338 9.09085C36.7338 9.36888 36.7849 9.58647 36.8872 9.74496C36.9809 9.89415 37.1098 10.0182 37.2626 10.1063C37.4214 10.1895 37.5936 10.2406 37.7793 10.2594C37.965 10.2782 38.1412 10.2876 38.3081 10.2876C38.522 10.2876 38.74 10.2782 38.9634 10.2594C39.1961 10.2312 39.3993 10.1949 39.5769 10.1479V7.88069ZM39.5769 6.53219C39.5769 5.98419 39.437 5.60408 39.1585 5.39052C38.8799 5.17831 38.4749 5.07085 37.9461 5.07085C37.6205 5.07085 37.3137 5.09907 37.0258 5.15414C36.7472 5.20115 36.4741 5.2656 36.2037 5.34888C36.0199 5.01238 35.9289 4.63327 35.9399 4.25021C36.2548 4.14813 36.6033 4.07023 36.9841 4.01382C37.3649 3.95875 37.7322 3.93053 38.0847 3.93053C39.0145 3.93053 39.7209 4.14411 40.2039 4.56988C40.687 4.98759 40.9279 5.6605 40.9279 6.58726V11.0518C40.6022 11.127 40.208 11.2009 39.7438 11.2748C39.2748 11.3585 38.7993 11.4003 38.3229 11.3997C37.8667 11.3997 37.4537 11.358 37.0823 11.2748C36.7474 11.2035 36.43 11.0665 36.1485 10.8718C35.8984 10.6866 35.6974 10.4432 35.5632 10.1627C35.4155 9.83502 35.3441 9.4782 35.3546 9.11905C35.3546 8.72014 35.4327 8.37226 35.5914 8.07543C35.7583 7.7692 35.9816 7.51939 36.2602 7.32463C36.5387 7.12048 36.8589 6.97139 37.2209 6.87871C37.5934 6.77649 37.9782 6.72542 38.3646 6.72693C38.662 6.72693 38.9028 6.735 39.0885 6.7538C39.2836 6.7632 39.4464 6.77798 39.5769 6.79544V6.53219ZM41.9855 4.09709C42.2434 4.05942 42.5038 4.04101 42.7645 4.04202C42.8856 4.04202 43.0162 4.04604 43.1547 4.05545C43.3041 4.06485 43.4292 4.07829 43.5315 4.09709L45.4825 9.98134L47.447 4.09709C47.5493 4.07829 47.665 4.06485 47.7955 4.05545C48.1678 4.02948 48.5417 4.04345 48.911 4.09709L46.123 11.2331C45.7821 11.2851 45.4364 11.2991 45.0923 11.2748C44.9801 11.2655 44.8683 11.2517 44.7573 11.2331L41.9855 4.09709ZM51.0248 8.00561C51.0437 8.78462 51.2428 9.35544 51.6236 9.71674C52.0138 10.078 52.5857 10.2594 53.3378 10.2594C53.9812 10.2626 54.6194 10.1446 55.2189 9.9115C55.2929 10.0512 55.3535 10.2218 55.4006 10.4259C55.4463 10.6207 55.4746 10.8154 55.484 11.0102C55.1571 11.1459 54.8158 11.2441 54.4667 11.303C54.1034 11.3674 53.6998 11.3997 53.2544 11.3997C52.6032 11.3997 52.0461 11.3124 51.5819 11.1351C51.1449 10.9677 50.7499 10.7069 50.4247 10.3709C50.1257 10.0324 49.9028 9.63394 49.7708 9.20232C49.6268 8.71951 49.556 8.21788 49.5609 7.71413C49.5609 7.18494 49.6268 6.69336 49.756 6.23939C49.8959 5.77601 50.1045 5.37709 50.383 5.04265C50.6649 4.69748 51.0227 4.42175 51.4285 4.23678C51.8564 4.03263 52.3569 3.93053 52.9342 3.93053C53.4253 3.93053 53.8586 4.01381 54.2299 4.18036C54.6013 4.34825 54.9121 4.57928 55.1637 4.87611C55.414 5.16354 55.6037 5.5114 55.7343 5.91971C55.8648 6.31862 55.9294 6.75381 55.9294 7.22659C55.9294 7.35687 55.9253 7.49654 55.9159 7.64429C55.9065 7.78397 55.8971 7.90353 55.8876 8.00561H51.0248ZM54.5636 6.97676C54.5636 6.71754 54.5273 6.47175 54.4519 6.23939C54.3939 6.01218 54.2899 5.7992 54.1465 5.61348C54.0116 5.43369 53.834 5.29015 53.6298 5.19576C53.4014 5.0796 53.1474 5.02235 52.8911 5.02922C52.3246 5.02922 51.8887 5.20114 51.5819 5.54364C51.2845 5.88748 51.1029 6.36429 51.0383 6.97676H54.5636ZM61.8376 4.98758C61.7159 4.84351 61.6128 4.68467 61.5309 4.51481C61.4475 4.33316 61.3729 4.14759 61.3075 3.95875L65.0145 2.19118H65.223V10.0512H67.2158C67.2696 10.4433 67.2696 10.841 67.2158 11.2331H61.7677C61.7294 11.0362 61.7109 10.836 61.7125 10.6354C61.7125 10.4313 61.73 10.2365 61.7677 10.0512H63.8573V4.07022L61.8376 4.98758ZM72.6908 4.09709C72.8835 4.05857 73.0797 4.04011 73.2761 4.04202C73.4725 4.04242 73.6685 4.06086 73.8615 4.09709C73.878 4.15621 73.8875 4.21707 73.8897 4.27841C73.9085 4.37108 73.922 4.47316 73.9314 4.58464C73.9503 4.69612 73.9637 4.80223 73.9731 4.90431C73.9869 4.96853 73.9963 5.0336 74.0014 5.09907C74.0942 4.94998 74.2059 4.80627 74.3351 4.66793C74.4717 4.52344 74.6264 4.39705 74.7953 4.29185C74.9876 4.1779 75.1938 4.08897 75.4088 4.02725C75.6403 3.96278 75.8959 3.93053 76.1744 3.93053C76.5929 3.93053 76.9791 4.00037 77.3316 4.13872C77.6936 4.2784 78.0003 4.49599 78.2506 4.79282C78.5116 5.08025 78.7108 5.45097 78.8507 5.90629C78.9987 6.35086 79.0728 6.87871 79.0728 7.49117C79.0728 8.71476 78.739 9.67512 78.0703 10.3709C77.411 11.0572 76.4718 11.3997 75.2554 11.3997C75.0509 11.3997 74.8423 11.3862 74.6284 11.358C74.4401 11.3355 74.2538 11.2982 74.0713 11.2466V14.5158C73.6142 14.5906 73.148 14.5906 72.6908 14.5158V4.09709ZM74.0713 10.0646C74.2476 10.1291 74.4279 10.1761 74.615 10.2043C74.8006 10.2312 75.0415 10.2459 75.3388 10.2459C75.6739 10.2459 75.9793 10.1949 76.2592 10.0928C76.5377 9.98135 76.7746 9.8148 76.9697 9.59184C77.1742 9.36888 77.3316 9.09085 77.4433 8.75776C77.5644 8.41391 77.6236 8.01097 77.6236 7.54759C77.6236 6.80484 77.485 6.21654 77.2065 5.78002C76.9374 5.34485 76.4907 5.12727 75.869 5.12727C75.6362 5.12727 75.4129 5.16891 75.1989 5.25218C74.9863 5.33546 74.7952 5.46036 74.6284 5.62691C74.4507 5.81011 74.3132 6.02833 74.2248 6.26759C74.1157 6.5562 74.0636 6.86315 74.0713 7.17152V10.0646ZM81.9562 8.00561C81.9737 8.78462 82.1742 9.35544 82.555 9.71674C82.9452 10.078 83.5157 10.2594 84.2693 10.2594C84.9126 10.2626 85.5508 10.1446 86.1503 9.9115C86.2243 10.0512 86.2849 10.2218 86.3306 10.4259C86.3777 10.6207 86.406 10.8154 86.4154 11.0102C86.0885 11.1459 85.7472 11.2441 85.3982 11.303C85.0349 11.3674 84.6312 11.3997 84.1858 11.3997C83.5346 11.3997 82.9775 11.3124 82.5133 11.1351C82.0763 10.9677 81.6813 10.7069 81.3561 10.3709C81.0567 10.0327 80.8336 9.63417 80.7022 9.20232C80.5582 8.71951 80.4874 8.21788 80.4923 7.71413C80.4923 7.18494 80.5582 6.69336 80.6874 6.23939C80.8273 5.77601 81.0359 5.37709 81.3144 5.04265C81.5963 4.69748 81.9541 4.42175 82.3599 4.23678C82.7878 4.03263 83.2883 3.93053 83.8642 3.93053C84.3567 3.93053 84.7886 4.01381 85.1613 4.18036C85.5327 4.34825 85.8435 4.57928 86.0938 4.87611C86.3454 5.16354 86.5351 5.5114 86.6657 5.91971C86.7962 6.31862 86.8608 6.75381 86.8608 7.22659C86.8608 7.35687 86.8567 7.49654 86.8473 7.64429C86.8379 7.78397 86.8285 7.90353 86.8191 8.00561H81.9562ZM85.495 6.97676C85.495 6.71754 85.4574 6.47175 85.3834 6.23939C85.3254 6.01189 85.2209 5.7988 85.0766 5.61348C84.9424 5.43347 84.7653 5.28985 84.5612 5.19576C84.3328 5.0796 84.0788 5.02235 83.8225 5.02922C83.2561 5.02922 82.8201 5.20114 82.5133 5.54364C82.2159 5.88748 82.0343 6.36429 81.9697 6.97676H85.495ZM88.6678 4.09709C88.9572 4.04475 89.2521 4.03074 89.5451 4.05545C89.638 4.06485 89.7362 4.07829 89.8385 4.09709C89.9077 4.47865 89.9495 4.86467 89.9636 5.25218C90.0564 5.09369 90.1722 4.93654 90.3121 4.7794C90.4618 4.62032 90.6303 4.48005 90.814 4.36168C91.01 4.22655 91.2261 4.1232 91.4545 4.05545C91.6967 3.97217 91.9604 3.93053 92.2483 3.93053C93.0664 3.93053 93.6706 4.16692 94.0608 4.6397C94.451 5.10308 94.6461 5.7948 94.6461 6.71215V11.2331C94.3001 11.2846 93.9496 11.2985 93.6006 11.2748C93.4883 11.2667 93.3765 11.2528 93.2656 11.2331V7.08825C93.2656 6.43012 93.1633 5.94792 92.9588 5.64168C92.7556 5.32605 92.43 5.16892 91.9846 5.16892C91.7317 5.16714 91.4809 5.21411 91.2459 5.30725C91.0107 5.40163 90.8007 5.54921 90.6323 5.7384C90.4392 5.96265 90.2924 6.22283 90.2004 6.50397C90.0904 6.86417 90.0386 7.2396 90.047 7.61609V11.2331C89.5903 11.3074 89.1246 11.3074 88.6678 11.2331V4.09709ZM101.308 1.03744C101.534 1.00241 101.763 0.983549 101.991 0.981018C102.22 0.981827 102.448 1.0007 102.674 1.03744V11.0384C102.285 11.148 101.889 11.2315 101.49 11.2882C101.006 11.3667 100.516 11.404 100.026 11.3997C99.525 11.3997 99.046 11.3392 98.5912 11.2197C98.1603 11.0981 97.7609 10.8845 97.4206 10.5938C97.0732 10.2887 96.801 9.90768 96.6254 9.48035C96.4303 9.02637 96.3334 8.46496 96.3334 7.79742C96.3334 7.22256 96.4168 6.69872 96.5837 6.22594C96.7613 5.75316 97.0075 5.34888 97.3224 5.01578C97.6386 4.67194 98.0153 4.4087 98.4513 4.22201C98.9204 4.03224 99.4226 3.93772 99.9287 3.94398C100.17 3.94398 100.412 3.96277 100.653 4.00038C100.904 4.03664 101.122 4.08365 101.308 4.13872V1.03744ZM101.308 5.30725C101.115 5.2314 100.914 5.17558 100.709 5.14069C100.479 5.10224 100.246 5.08381 100.012 5.08563C99.6707 5.07672 99.3319 5.14803 99.0232 5.29381C98.7446 5.43215 98.5118 5.62289 98.3262 5.86331C98.1406 6.12458 98.0039 6.41714 97.9225 6.72693C97.8348 7.07692 97.7923 7.43668 97.796 7.79742C97.8054 8.67852 98.0153 9.30843 98.423 9.68854C98.8321 10.0686 99.3891 10.2594 100.096 10.2594C100.338 10.2594 100.56 10.25 100.764 10.2312C100.969 10.2043 101.15 10.1667 101.308 10.1197V5.30725ZM105.307 5.18234H104.401C104.381 5.10024 104.366 5.01673 104.358 4.93251C104.341 4.74261 104.341 4.55158 104.358 4.36168C104.368 4.2596 104.382 4.17096 104.401 4.09709H106.658V11.2331C106.21 11.3048 105.754 11.3048 105.307 11.2331V5.18234ZM105 2.52563C104.981 2.40591 104.967 2.28535 104.958 2.16433V1.46858C104.968 1.3383 104.981 1.22279 105 1.12071C105.369 1.06846 105.742 1.05449 106.114 1.07906C106.254 1.08847 106.379 1.10191 106.491 1.12071C106.51 1.22279 106.519 1.3383 106.519 1.46858C106.536 1.7002 106.536 1.93272 106.519 2.16433C106.519 2.29327 106.51 2.41415 106.491 2.52563C106.127 2.58139 105.758 2.59535 105.39 2.56726C105.26 2.55903 105.129 2.54515 105 2.52563ZM108.902 4.09709C109.192 4.04463 109.487 4.03063 109.781 4.05545C109.874 4.06485 109.971 4.07829 110.073 4.09709C110.101 4.23678 110.129 4.42616 110.158 4.66793C110.184 4.89894 110.199 5.09369 110.199 5.25218C110.292 5.09369 110.408 4.93654 110.548 4.7794C110.696 4.62091 110.863 4.48256 111.048 4.36168C111.234 4.23139 111.448 4.12932 111.69 4.05545C111.931 3.97217 112.196 3.93053 112.484 3.93053C113.302 3.93053 113.905 4.16692 114.295 4.6397C114.685 5.10308 114.88 5.7948 114.88 6.71215V11.2331C114.535 11.2847 114.185 11.2987 113.836 11.2748C113.724 11.2667 113.612 11.2528 113.501 11.2331V7.08825C113.501 6.43012 113.399 5.94792 113.194 5.64168C112.99 5.32605 112.666 5.16892 112.219 5.16892C111.959 5.16892 111.713 5.21458 111.48 5.30725C111.246 5.40198 111.036 5.54953 110.868 5.7384C110.675 5.96265 110.528 6.22283 110.436 6.50397C110.326 6.86417 110.274 7.2396 110.283 7.61609V11.2331C109.825 11.307 109.359 11.307 108.902 11.2331V4.09709ZM120.791 10.3144C121.618 10.3332 122.216 10.5092 122.589 10.8436C122.96 11.1781 123.146 11.6361 123.146 12.2204C123.146 12.6005 123.048 12.9389 122.853 13.2358C122.646 13.553 122.37 13.8193 122.045 14.0148C121.701 14.2377 121.292 14.4043 120.818 14.5158C120.354 14.6366 119.848 14.6971 119.299 14.6971C118.343 14.6971 117.613 14.548 117.113 14.2512C116.611 13.9543 116.359 13.4869 116.359 12.8462C116.359 12.4661 116.461 12.1236 116.666 11.8174C116.87 11.5206 117.136 11.2842 117.46 11.1082C117.276 10.9895 117.116 10.8384 116.986 10.6623C116.861 10.4577 116.798 10.221 116.806 9.98134C116.806 9.6375 116.88 9.34068 117.028 9.09085C117.187 8.84103 117.395 8.61806 117.655 8.42331C117.349 8.21009 117.097 7.92925 116.918 7.60266C116.728 7.24753 116.631 6.85006 116.638 6.44757C116.638 6.09567 116.704 5.7666 116.833 5.46037C116.963 5.15413 117.149 4.89089 117.391 4.66793C117.641 4.43556 117.948 4.25558 118.31 4.12529C118.672 3.99501 119.087 3.93053 119.551 3.93053C119.969 3.93053 120.345 3.99099 120.68 4.11187C121.023 4.23141 121.316 4.38453 121.557 4.56988C121.743 4.42214 121.994 4.30124 122.309 4.20856C122.625 4.10648 122.974 4.05545 123.355 4.05545C123.392 4.2314 123.411 4.42615 123.411 4.6397C123.411 4.85896 123.392 5.0778 123.355 5.29381H122.101C122.203 5.45096 122.282 5.62289 122.337 5.80824C122.394 5.99359 122.421 6.20715 122.421 6.44757C122.421 6.82768 122.351 7.17152 122.212 7.47775C122.073 7.78253 121.869 8.05307 121.614 8.27019C121.346 8.49284 121.038 8.66283 120.707 8.77118C120.332 8.88569 119.942 8.94188 119.551 8.93774C119.17 8.93774 118.826 8.8961 118.52 8.81283C118.37 8.90377 118.237 9.02172 118.13 9.1607C118.013 9.29613 117.949 9.46846 117.948 9.64691C117.948 9.8148 118.009 9.96255 118.13 10.0928C118.25 10.2124 118.52 10.2782 118.937 10.2876L120.791 10.3144ZM118.91 11.4145C118.492 11.4051 118.176 11.5165 117.962 11.7476C117.758 11.9773 117.649 12.275 117.655 12.5816C117.655 12.7858 117.698 12.9537 117.781 13.0826C117.867 13.215 117.988 13.321 118.13 13.3889C118.287 13.4721 118.469 13.5285 118.672 13.5554C118.886 13.593 119.119 13.6118 119.369 13.6118C120.113 13.6118 120.693 13.4869 121.112 13.2358C121.529 12.9953 121.739 12.6891 121.739 12.3184C121.739 12.0404 121.65 11.8268 121.474 11.6777C121.297 11.53 120.972 11.4507 120.498 11.4413L118.91 11.4145ZM119.551 7.93709C120.053 7.93709 120.424 7.79742 120.665 7.51939C120.907 7.24137 121.028 6.88409 121.028 6.44757C121.028 6.00299 120.907 5.64168 120.665 5.36365C120.424 5.07622 120.053 4.93251 119.551 4.93251C119.049 4.93251 118.678 5.07622 118.435 5.36365C118.204 5.64168 118.087 6.00299 118.087 6.44757C118.087 6.88409 118.204 7.24137 118.435 7.51939C118.678 7.79742 119.049 7.93709 119.551 7.93709ZM2.40218 25.0069C2.42102 25.786 2.62151 26.3554 3.0023 26.7181C3.39251 27.0794 3.96302 27.2607 4.71653 27.2607C5.37584 27.2607 6.00286 27.1439 6.59759 26.9129C6.6716 27.0512 6.73215 27.2231 6.7779 27.4273C6.82499 27.622 6.85191 27.8168 6.86133 28.0115C6.5345 28.1471 6.19319 28.2449 5.84409 28.303C5.44373 28.3718 5.03799 28.4046 4.63175 28.401C3.98185 28.401 3.4248 28.3124 2.96059 28.1364C2.52308 27.9694 2.12794 27.708 1.80342 27.3709C1.5035 27.0328 1.28001 26.6343 1.14814 26.2023C1.00515 25.7193 0.934863 25.2178 0.939579 24.7141C0.939579 24.1863 1.00416 23.6947 1.13468 23.2407C1.27462 22.776 1.48318 22.3784 1.76171 22.044C2.04024 21.7015 2.38873 21.4315 2.8072 21.2368C3.23374 21.0326 3.73562 20.9306 4.31151 20.9306C4.80398 20.9306 5.2359 21.0152 5.60727 21.1817C5.97999 21.3483 6.29081 21.5806 6.54108 21.8774C6.7927 22.1649 6.98242 22.5127 7.11294 22.9197C7.24211 23.3186 7.30804 23.7551 7.30804 24.2279C7.30354 24.488 7.28963 24.7479 7.26633 25.0069H2.40218ZM5.94231 23.9768C5.94359 23.7271 5.90592 23.4788 5.83063 23.2407C5.77293 23.0131 5.66847 22.8 5.52385 22.6148C5.39014 22.4344 5.21285 22.2907 5.0085 22.1971C4.78028 22.0803 4.52617 22.023 4.2698 22.0306C3.70333 22.0306 3.26737 22.2012 2.96059 22.545C2.66322 22.8875 2.48157 23.3656 2.41699 23.9768H5.94231ZM10.0247 24.5342L8.33874 21.0984C8.70284 21.0428 9.07211 21.0289 9.43939 21.0568C9.56856 21.0662 9.70312 21.0796 9.84305 21.0984L11.3205 24.5476L9.53627 28.2332C9.30565 28.2691 9.07268 28.2879 8.83927 28.2896C8.7101 28.2896 8.58497 28.2842 8.46387 28.2761C8.33785 28.2659 8.2122 28.2516 8.08712 28.2332L10.0247 24.5342ZM11.4321 24.5476L12.923 21.0984C13.1814 21.0608 13.4423 21.042 13.7034 21.042C13.9537 21.042 14.1865 21.0608 14.4004 21.0984L12.7414 24.4925L14.6789 28.2332C14.5484 28.252 14.4233 28.2667 14.3022 28.2761C14.1768 28.2848 14.0511 28.2893 13.9254 28.2896C13.6752 28.2896 13.4424 28.2708 13.2298 28.2332L11.4321 24.5476ZM16.0272 21.0984C16.2198 21.0595 16.416 21.0406 16.6125 21.042C16.8089 21.0428 17.0049 21.0617 17.1978 21.0984C17.2144 21.1571 17.2239 21.2175 17.2261 21.2784C17.2436 21.3711 17.2584 21.4732 17.2678 21.5847C17.2866 21.6961 17.3001 21.8022 17.3095 21.9043C17.3283 22.0064 17.3364 22.0722 17.3364 22.0991C17.4306 21.9513 17.5409 21.8076 17.6714 21.6679C17.802 21.5296 17.9554 21.4047 18.1316 21.2932C18.3234 21.1789 18.5292 21.09 18.7438 21.0286C18.9766 20.9641 19.2323 20.9306 19.5108 20.9306C19.9293 20.9306 20.3141 21.0004 20.668 21.1401C21.0299 21.2784 21.3367 21.4973 21.587 21.7942C21.8467 22.0816 22.0472 22.4523 22.1858 22.9063C22.3351 23.3509 22.4091 23.8801 22.4091 24.4925C22.4091 25.7161 22.0754 26.6765 21.4053 27.3709C20.746 28.0572 19.8082 28.401 18.5918 28.401C18.3821 28.4003 18.1727 28.3864 17.9648 28.3594C17.7761 28.336 17.5895 28.2988 17.4064 28.2479V31.5171C17.1759 31.5541 16.9428 31.5725 16.7094 31.5722C16.4808 31.575 16.2524 31.5566 16.0272 31.5171V21.0984ZM17.4064 27.066C17.5826 27.1304 17.7643 27.1761 17.95 27.2043C18.1357 27.2325 18.3779 27.2459 18.6752 27.2459C19.0089 27.2459 19.3157 27.1949 19.5942 27.0928C19.8728 26.9814 20.1096 26.8148 20.3047 26.5918C20.5092 26.3702 20.668 26.0922 20.7783 25.7578C20.8994 25.4153 20.96 25.011 20.96 24.5476C20.96 23.8062 20.8214 23.2166 20.5415 22.7814C20.2724 22.3449 19.827 22.1273 19.204 22.1273C18.9726 22.1273 18.7492 22.1689 18.5353 22.2522C18.3213 22.3355 18.1316 22.4617 17.9648 22.6283C17.7867 22.8109 17.6487 23.0287 17.5598 23.2676C17.4508 23.5562 17.3987 23.8632 17.4064 24.1715V27.066ZM25.2913 25.0069C25.3101 25.786 25.5092 26.3554 25.8914 26.7181C26.2816 27.0794 26.8521 27.2607 27.6043 27.2607C28.2649 27.2607 28.8919 27.1439 29.4853 26.9129C29.5607 27.0512 29.6212 27.2231 29.667 27.4273C29.7141 27.622 29.741 27.8168 29.7504 28.0115C29.4235 28.1467 29.0822 28.2445 28.7332 28.303C28.3328 28.3718 27.9271 28.4046 27.5208 28.401C26.8709 28.401 26.3139 28.3124 25.8483 28.1364C25.4114 27.9691 25.0168 27.7077 24.6925 27.3709C24.3926 27.0328 24.1691 26.6343 24.0372 26.2023C23.8942 25.7193 23.8239 25.2178 23.8287 24.7141C23.8287 24.1863 23.8932 23.6947 24.0238 23.2407C24.1624 22.776 24.3723 22.3784 24.6508 22.044C24.9293 21.7015 25.2778 21.4315 25.6963 21.2368C26.1228 21.0326 26.6247 20.9306 27.2006 20.9306C27.6931 20.9306 28.125 21.0152 28.4964 21.1817C28.8677 21.3483 29.1799 21.5806 29.4302 21.8774C29.6804 22.1649 29.8715 22.5127 30.002 22.9197C30.1312 23.3186 30.1971 23.7551 30.1971 24.2279C30.1971 24.3582 30.1917 24.4966 30.1823 24.6456L30.1554 25.0069H25.2913ZM28.8314 23.9768C28.8327 23.7271 28.795 23.4788 28.7197 23.2407C28.662 23.0131 28.5576 22.8 28.4129 22.6148C28.2789 22.4347 28.1017 22.2911 27.8976 22.1971C27.6694 22.0803 27.4153 22.023 27.1589 22.0306C26.5924 22.0306 26.1551 22.2012 25.8483 22.545C25.5523 22.8875 25.3707 23.3656 25.3061 23.9768H28.8314ZM32.0029 21.0984C32.201 21.0632 32.4017 21.0443 32.603 21.042C32.7943 21.0458 32.9851 21.0646 33.1735 21.0984C33.2017 21.2368 33.23 21.4275 33.2569 21.6679C33.2852 21.9003 33.3 22.095 33.3 22.2522C33.3928 22.095 33.5085 21.9379 33.6471 21.7794C33.7965 21.6223 33.9633 21.4826 34.149 21.363C34.3347 21.2327 34.5486 21.1307 34.7908 21.0568C35.0317 20.9735 35.2967 20.9306 35.5847 20.9306C36.4028 20.9306 37.0056 21.1683 37.3958 21.6411C37.786 22.1044 37.9811 22.7948 37.9811 23.7135V28.2332C37.8658 28.2538 37.7495 28.2682 37.6326 28.2761C37.5034 28.2842 37.3864 28.2896 37.2841 28.2896C37.1819 28.2896 37.0661 28.2842 36.937 28.2761C36.8246 28.2676 36.7128 28.2533 36.6019 28.2332V24.0883C36.6019 23.4301 36.4997 22.9479 36.2951 22.6417C36.0906 22.3274 35.7663 22.1689 35.3196 22.1689C35.0599 22.1689 34.8137 22.2159 34.5809 22.3086C34.3463 22.4033 34.1368 22.5509 33.9687 22.7398C33.7748 22.963 33.6279 23.2229 33.5368 23.504C33.4266 23.8646 33.3748 24.2405 33.3834 24.6174V28.2332C33.2681 28.2538 33.1517 28.2681 33.0349 28.2761C32.9138 28.2842 32.8021 28.2896 32.6998 28.2896C32.5976 28.2896 32.4819 28.2842 32.3514 28.2761C32.2345 28.2681 32.1182 28.2538 32.0029 28.2332V21.0984ZM39.9335 26.9397C40.1851 27.0418 40.4583 27.1251 40.7556 27.1909C41.0624 27.2459 41.3652 27.2742 41.6625 27.2742C41.8751 27.2742 42.0796 27.2513 42.2747 27.2043C42.4699 27.1586 42.6367 27.0888 42.7766 26.9961C42.9163 26.9119 43.0354 26.7977 43.1251 26.6617C43.217 26.5262 43.2653 26.3659 43.2637 26.2023C43.2687 26.0526 43.2356 25.904 43.1676 25.7703C43.0997 25.6367 42.9989 25.5224 42.8749 25.4381C42.7514 25.3483 42.6148 25.2781 42.4699 25.2299C42.3111 25.1602 42.1485 25.0996 41.9828 25.0486L41.4943 24.8673C40.8996 24.6457 40.4677 24.3945 40.1986 24.1165C39.9295 23.8384 39.7949 23.4623 39.7949 22.9896C39.7949 22.3596 40.0183 21.8586 40.4637 21.4879C40.9184 21.1172 41.5831 20.9306 42.4564 20.9306C42.8184 20.9306 43.1709 20.9682 43.5153 21.042C43.8679 21.1078 44.1747 21.1857 44.4344 21.2784C44.4158 21.4673 44.3789 21.654 44.324 21.8358C44.2769 22.0212 44.2164 22.1917 44.1424 22.3502C43.9006 22.2657 43.6539 22.1957 43.4037 22.1407C43.1079 22.0649 42.8035 22.0279 42.4981 22.0306C42.1536 22.0306 41.8482 22.0897 41.5778 22.2105C41.3181 22.3314 41.1875 22.545 41.1875 22.8512C41.1839 22.9919 41.2178 23.1309 41.2858 23.2542C41.3533 23.3684 41.4435 23.4675 41.5509 23.5456C41.6625 23.6208 41.7877 23.6853 41.9262 23.7404C42.0756 23.7968 42.233 23.8519 42.3999 23.9083L43.0135 24.1165C43.2368 24.1903 43.4454 24.279 43.6405 24.3811C43.845 24.4831 44.0172 24.6121 44.1558 24.7706C44.3052 24.9183 44.4209 25.1037 44.5043 25.3266C44.5972 25.5402 44.6443 25.7994 44.6443 26.1056C44.6443 26.4481 44.5743 26.7638 44.4344 27.0512C44.2915 27.3341 44.0868 27.5815 43.8356 27.7751C43.56 27.9828 43.2485 28.138 42.9166 28.2332C42.5533 28.3446 42.1536 28.401 41.7177 28.401C41.2723 28.401 40.8821 28.3688 40.5471 28.303C40.212 28.2479 39.9012 28.1687 39.6133 28.0666C39.6329 27.8782 39.6703 27.692 39.725 27.5105C39.7895 27.3158 39.8595 27.1251 39.9335 26.9397ZM47.4322 25.0069C47.4511 25.786 47.6502 26.3554 48.031 26.7181C48.4212 27.0794 48.9931 27.2607 49.7452 27.2607C50.4045 27.2607 51.0316 27.1439 51.6263 26.9129C51.7003 27.0512 51.7609 27.2231 51.808 27.4273C51.8537 27.622 51.882 27.8168 51.8914 28.0115C51.5644 28.1467 51.2232 28.2445 50.8741 28.303C50.5122 28.3688 50.1072 28.401 49.6618 28.401C49.0106 28.401 48.4535 28.3124 47.9893 28.1364C47.5519 27.9691 47.1569 27.7078 46.8321 27.3709C46.5326 27.0327 46.3096 26.6342 46.1782 26.2023C46.0341 25.7195 45.9633 25.2179 45.9683 24.7141C45.9683 24.1863 46.0342 23.6947 46.1634 23.2407C46.3033 22.776 46.5119 22.3784 46.7904 22.044C47.0703 21.7015 47.4174 21.4315 47.8359 21.2368C48.2638 21.0326 48.7657 20.9306 49.3416 20.9306C49.834 20.9306 50.2659 21.0152 50.6373 21.1817C51.0087 21.3483 51.3195 21.5806 51.5711 21.8774C51.8214 22.1649 52.0125 22.5127 52.1416 22.9197C52.2722 23.3186 52.3367 23.7551 52.3367 24.2279C52.3367 24.3582 52.3327 24.4966 52.3233 24.6456C52.3139 24.784 52.3045 24.9049 52.295 25.0069H47.4322ZM50.971 23.9768C50.973 23.7271 50.9353 23.4786 50.8593 23.2407C50.8015 23.0134 50.6976 22.8004 50.5539 22.6148C50.4193 22.4347 50.2417 22.2911 50.0372 22.1971C49.8095 22.0802 49.5558 22.0229 49.2999 22.0306C48.732 22.0306 48.2961 22.2012 47.9893 22.545C47.6919 22.8875 47.5103 23.3656 47.4457 23.9768H50.971ZM57.4512 21.0984C57.6444 21.0639 57.8402 21.045 58.0365 21.042C58.1374 21.042 58.2397 21.0474 58.3419 21.0568C58.4442 21.0662 58.537 21.0796 58.6205 21.0984C58.6916 21.4703 58.7339 21.847 58.7469 22.2253C58.9465 21.9049 59.2065 21.6262 59.5125 21.4047C59.8382 21.1723 60.2512 21.0568 60.7531 21.0568C60.8271 21.0568 60.9011 21.0608 60.9765 21.0702C61.0599 21.0702 61.1299 21.0743 61.1851 21.0837C61.2039 21.1683 61.2174 21.2556 61.2268 21.3483C61.2362 21.4409 61.2402 21.539 61.2402 21.6411C61.2402 21.7512 61.2321 21.8681 61.2133 21.9889C61.2039 22.1049 61.19 22.2205 61.1716 22.3355C61.094 22.3175 61.0145 22.3084 60.9348 22.3086H60.7531C60.507 22.3075 60.2623 22.3451 60.0279 22.4201C59.7976 22.4894 59.5875 22.6134 59.4157 22.7814C59.2209 22.9881 59.0735 23.2347 58.9837 23.504C58.8815 23.8102 58.8303 24.2051 58.8303 24.6873V28.2332C58.7151 28.2538 58.5987 28.2682 58.4818 28.2761C58.3607 28.2842 58.2491 28.2896 58.1468 28.2896C57.9137 28.2916 57.6809 28.2728 57.4512 28.2332V21.0984ZM63.4617 25.0069C63.4806 25.786 63.681 26.3554 64.0618 26.7181C64.452 27.0794 65.0226 27.2607 65.7761 27.2607C66.4354 27.2607 67.0624 27.1439 67.6571 26.9129C67.7311 27.0512 67.7917 27.2231 67.8374 27.4273C67.8845 27.622 67.9128 27.8168 67.9209 28.0115C67.594 28.1471 67.2527 28.2449 66.9036 28.303C66.5033 28.3718 66.0975 28.4046 65.6913 28.401C65.0414 28.401 64.4843 28.3124 64.0201 28.1364C63.5826 27.9694 63.1875 27.708 62.863 27.3709C62.563 27.0328 62.3396 26.6343 62.2077 26.2023C62.0647 25.7193 61.9944 25.2178 61.9991 24.7141C61.9991 24.1863 62.0637 23.6947 62.1942 23.2407C62.3342 22.776 62.5427 22.3784 62.8212 22.044C63.0998 21.7015 63.4483 21.4315 63.8667 21.2368C64.2933 21.0326 64.7952 20.9306 65.3711 20.9306C65.8635 20.9306 66.2954 21.0152 66.6668 21.1817C67.0395 21.3483 67.3504 21.5806 67.6006 21.8774C67.8522 22.1649 68.042 22.5127 68.1725 22.9197C68.3017 23.3186 68.3676 23.7551 68.3676 24.2279C68.3631 24.488 68.3492 24.7479 68.3259 25.0069H63.4617ZM67.0018 23.9768C67.0031 23.7271 66.9655 23.4788 66.8902 23.2407C66.8325 23.0131 66.728 22.8 66.5834 22.6148C66.4497 22.4344 66.2724 22.2907 66.068 22.1971C65.8398 22.0803 65.5857 22.023 65.3293 22.0306C64.7629 22.0306 64.3269 22.2012 64.0201 22.545C63.7228 22.8875 63.5411 23.3656 63.4765 23.9768H67.0018ZM74.7441 28.2332C74.3018 28.3392 73.8481 28.3906 73.3932 28.3863C72.9101 28.3863 72.45 28.3312 72.014 28.2197C71.5898 28.1056 71.1952 27.9018 70.8568 27.622C70.5174 27.3242 70.2505 26.9531 70.0764 26.5368C69.8813 26.0828 69.7844 25.5214 69.7844 24.8538C69.7844 24.279 69.8719 23.7498 70.0482 23.2676C70.2215 22.8066 70.487 22.3858 70.8286 22.0306C71.1636 21.6773 71.5673 21.4087 72.0409 21.2233C72.524 21.0286 73.0635 20.9306 73.6583 20.9306C74.1777 20.9306 74.6244 20.9587 74.9957 21.0152C75.3671 21.0702 75.7385 21.1495 76.1099 21.2516V31.5171C75.9944 31.5366 75.8781 31.5505 75.7614 31.5587C75.6416 31.5668 75.5299 31.5722 75.4277 31.5722C75.1986 31.5751 74.9697 31.5567 74.7441 31.5171V28.2332ZM74.7441 22.1971C74.634 22.1721 74.5226 22.1533 74.4104 22.1407C74.3277 22.1231 74.2434 22.1141 74.1588 22.1138L73.922 22.0991C73.8345 22.0892 73.7464 22.0847 73.6583 22.0856C73.2492 22.0856 72.8913 22.1555 72.5845 22.2938C72.2873 22.4266 72.0252 22.6266 71.8189 22.8781C71.6158 23.1446 71.4643 23.4466 71.3722 23.7686C71.2662 24.1393 71.2146 24.5234 71.2188 24.9089C71.2188 25.3266 71.2753 25.6839 71.387 25.9807C71.4973 26.2776 71.6507 26.5233 71.8458 26.7181C72.0503 26.9034 72.2871 27.0378 72.5576 27.121C72.8267 27.2043 73.1241 27.2459 73.4484 27.2459C73.6906 27.2459 73.918 27.2271 74.1319 27.1909C74.3539 27.1533 74.5584 27.1116 74.7441 27.066V22.1971ZM78.2412 21.0984C78.4674 21.0634 78.6958 21.0446 78.9247 21.042C79.1581 21.0443 79.391 21.0632 79.6217 21.0984V25.0069C79.6217 25.4515 79.6634 25.8222 79.7469 26.1191C79.8303 26.4065 79.9554 26.6348 80.1236 26.8014C80.2905 26.9679 80.495 27.0834 80.7358 27.1492C80.978 27.2137 81.2566 27.2459 81.5728 27.2459C82.0464 27.2459 82.4501 27.1949 82.7851 27.0928V21.0984C82.886 21.0796 82.9977 21.0662 83.1188 21.0568C83.4628 21.03 83.8088 21.0439 84.1495 21.0984V28.0115C83.764 28.1177 83.3738 28.206 82.9802 28.2761C82.5204 28.3606 82.0538 28.4024 81.5862 28.401C81.1314 28.401 80.6995 28.3594 80.2905 28.2761C79.9039 28.2071 79.5402 28.0443 79.2315 27.802C78.9041 27.5335 78.6538 27.1831 78.5063 26.7866C78.33 26.3514 78.2412 25.7766 78.2412 25.062V21.0984ZM87.3586 25.0069C87.3761 25.786 87.5766 26.3554 87.9574 26.7181C88.3476 27.0794 88.9195 27.2607 89.6716 27.2607C90.3309 27.2607 90.958 27.1439 91.5527 26.9129C91.6267 27.0512 91.6872 27.2231 91.733 27.4273C91.7801 27.622 91.8083 27.8168 91.8178 28.0115C91.4908 28.1467 91.1496 28.2445 90.8005 28.303C90.4372 28.3688 90.0336 28.401 89.5882 28.401C88.937 28.401 88.3799 28.3124 87.9157 28.1364C87.4783 27.9691 87.0832 27.7078 86.7585 27.3709C86.4585 27.0331 86.2354 26.6344 86.1046 26.2023C85.9605 25.7195 85.8897 25.2179 85.8947 24.7141C85.8947 24.1863 85.9606 23.6947 86.0898 23.2407C86.2297 22.776 86.4383 22.3784 86.7168 22.044C86.9953 21.7015 87.3438 21.4315 87.7623 21.2368C88.1902 21.0326 88.6907 20.9306 89.2666 20.9306C89.7591 20.9306 90.191 21.0152 90.5637 21.1817C90.9351 21.3483 91.2459 21.5806 91.4962 21.8774C91.7478 22.1649 91.9375 22.5127 92.068 22.9197C92.1985 23.3186 92.2631 23.7551 92.2631 24.2279C92.2631 24.3582 92.2591 24.4966 92.2497 24.6456C92.2403 24.784 92.2309 24.9049 92.2214 25.0069H87.3586ZM90.8974 23.9768C90.8987 23.7271 90.861 23.4788 90.7857 23.2407C90.728 23.0131 90.6235 22.8 90.4789 22.6148C90.3452 22.4344 90.1679 22.2907 89.9636 22.1971C89.7354 22.0803 89.4813 22.023 89.2249 22.0306C88.6584 22.0306 88.2225 22.2012 87.9157 22.545C87.6183 22.8875 87.4367 23.3656 87.3721 23.9768H90.8974ZM93.9451 26.9397C94.1953 27.0418 94.4698 27.1251 94.7672 27.1909C95.0726 27.2459 95.3754 27.2742 95.6727 27.2742C95.8867 27.2742 96.0899 27.2513 96.285 27.2043C96.4634 27.1656 96.6334 27.095 96.7869 26.9961C96.9268 26.9123 97.046 26.798 97.1354 26.6617C97.2275 26.5262 97.2763 26.3661 97.2753 26.2023C97.2816 26.0423 97.2429 25.8836 97.1636 25.7443C97.097 25.6212 97.0014 25.5161 96.8851 25.4381C96.7616 25.3483 96.625 25.2781 96.4801 25.2299C96.3213 25.1602 96.1587 25.0996 95.993 25.0486L95.5059 24.8673C94.9112 24.6457 94.4792 24.3945 94.2088 24.1165C93.9397 23.8384 93.8051 23.4623 93.8051 22.9896C93.8051 22.3596 94.0285 21.8586 94.4739 21.4879C94.9287 21.1172 95.5934 20.9306 96.4666 20.9306C96.8286 20.9306 97.1824 20.9682 97.5256 21.042C97.8794 21.1078 98.1849 21.1857 98.4459 21.2784C98.4262 21.4673 98.3889 21.6539 98.3342 21.8358C98.2872 22.0212 98.2266 22.1917 98.1526 22.3502C97.9108 22.2657 97.6641 22.1957 97.4139 22.1407C97.1181 22.0649 96.8137 22.0279 96.5083 22.0306C96.1652 22.0306 95.8584 22.0897 95.5893 22.2105C95.3283 22.3314 95.1991 22.545 95.1991 22.8512C95.195 22.9917 95.2285 23.1308 95.296 23.2542C95.3639 23.3681 95.454 23.4672 95.5611 23.5456C95.6728 23.6208 95.7979 23.6853 95.9378 23.7404C96.0858 23.7968 96.2433 23.8519 96.4115 23.9083L97.0237 24.1165C97.247 24.1903 97.4556 24.279 97.6507 24.3811C97.8552 24.4831 98.0275 24.6121 98.1674 24.7706C98.3154 24.9183 98.4311 25.1037 98.5145 25.3266C98.6074 25.5402 98.6545 25.7994 98.6545 26.1056C98.6545 26.4481 98.5845 26.7638 98.4459 27.0512C98.3025 27.3342 98.0975 27.5816 97.8458 27.7751C97.5702 27.9828 97.2587 28.138 96.9268 28.2332C96.5378 28.3487 96.1337 28.4053 95.7279 28.401C95.2825 28.401 94.8923 28.3688 94.5573 28.303C94.2236 28.2479 93.9114 28.1687 93.6235 28.0666C93.6432 27.8782 93.6806 27.692 93.7352 27.5105C93.8011 27.3158 93.8697 27.1251 93.9451 26.9397ZM100.675 22.1971H99.5896L99.5331 22.0024L101.931 19.3322H102.041V21.0984H103.854C103.89 21.2556 103.909 21.4315 103.909 21.6263C103.909 21.8179 103.891 22.0091 103.854 22.1971H102.041V25.4515C102.041 25.841 102.056 26.1513 102.083 26.3837C102.121 26.616 102.176 26.796 102.251 26.9263C102.335 27.0472 102.441 27.1304 102.571 27.1761C102.71 27.2137 102.882 27.2325 103.087 27.2325C103.244 27.2325 103.393 27.2231 103.532 27.2043C103.672 27.1761 103.797 27.1492 103.909 27.121C103.973 27.3064 104.011 27.4971 104.021 27.6919C104.039 27.8866 104.049 28.0572 104.049 28.2063C103.856 28.2531 103.661 28.2854 103.463 28.303C103.246 28.3318 103.027 28.3457 102.808 28.3446C102.139 28.3446 101.615 28.1821 101.234 27.8584C100.863 27.5334 100.675 26.9961 100.675 26.2453V22.1971Z" fill="white"/>
</svg>
