<svg preserveAspectRatio="none" width="703" height="426" viewBox="0 0 703 426" fill="none" xmlns="http://www.w3.org/2000/svg">
<path vector-effect="non-scaling-stroke" d="M1.50391 424.469C6.45697 418.523 11.41 412.576 16.3631 406.617C24.2591 397.118 32.1551 386.945 40.0511 378.054C48.021 369.081 55.9909 366.577 63.9608 353.062C68.5578 345.266 73.1549 334.148 77.7519 324.498C81.6764 316.261 85.6009 307.539 89.5254 299.506C94.4008 289.526 99.2763 279.075 104.152 270.943C110.604 260.181 117.055 253.059 123.507 245.95C136.987 231.096 150.467 225.537 163.947 217.387C181.627 206.698 199.306 199.306 216.985 192.394C255.71 177.254 294.435 175.296 333.16 167.401C383.473 157.144 433.786 148.234 484.1 138.838C529.25 130.406 574.401 130.507 619.551 113.845C626.589 111.248 633.627 95.4316 640.664 85.2823C646.174 77.3365 651.684 68.3005 657.193 60.2896C664.086 50.2677 670.979 40.665 677.872 31.7265C684.742 22.8168 691.613 18.9222 698.483 6.73375C699.488 4.95167 700.493 3.04591 701.497 1.14014" stroke="#DD4528" stroke-width="2.99997"/>
</svg>
