<svg preserveAspectRatio="none" width="13" height="14" viewBox="0 0 13 14" fill="none" xmlns="http://www.w3.org/2000/svg">
<path vector-effect="non-scaling-stroke" fill-rule="evenodd" clip-rule="evenodd" d="M6.75774 13.0999C10.1733 13.0999 12.9422 10.3311 12.9422 6.91545C12.9422 3.49984 10.1733 0.730957 6.75774 0.730957C3.34213 0.730957 0.573242 3.49984 0.573242 6.91545C0.573242 10.3311 3.34213 13.0999 6.75774 13.0999ZM9.68037 5.58605C9.90654 5.35961 9.90654 4.99252 9.68037 4.76608C9.45331 4.53964 9.08665 4.53964 8.86047 4.76608L5.7912 7.83491L4.65501 6.69873C4.42883 6.47229 4.06129 6.47229 3.83511 6.69873C3.60893 6.92518 3.60893 7.29226 3.83511 7.5187L5.38123 9.06483C5.60741 9.29127 5.97495 9.29127 6.20113 9.06483L9.68037 5.58605Z" fill="#28A745"/>
</svg>
