<svg preserveAspectRatio="none" width="15" height="15" viewBox="0 0 15 15" fill="none" xmlns="http://www.w3.org/2000/svg">
<path vector-effect="non-scaling-stroke" d="M6.39105 1.1887C6.64725 0.127203 8.15715 0.127203 8.41335 1.1887L9.27575 4.7613C9.36735 5.1406 9.66355 5.4368 10.0428 5.5284L13.6154 6.3908C14.6769 6.647 14.6769 8.1569 13.6154 8.4131L10.0428 9.2755C9.66355 9.3671 9.36735 9.6632 9.27575 10.0426L8.41335 13.6152C8.15715 14.6767 6.64725 14.6767 6.39105 13.6152L5.52865 10.0426C5.43705 9.6632 5.14095 9.3671 4.76155 9.2755L1.18895 8.4131C0.127447 8.1569 0.127447 6.647 1.18895 6.3908L4.76155 5.5284C5.14095 5.4368 5.43705 5.1406 5.52865 4.7613L6.39105 1.1887Z" fill="white"/>
</svg>
