<svg preserveAspectRatio="none" width="109" height="12" viewBox="0 0 109 12" fill="none" xmlns="http://www.w3.org/2000/svg">
<path vector-effect="non-scaling-stroke" d="M4.08394 8.45528C3.52015 8.45528 3.03306 8.35723 2.61998 8.16248C2.21716 7.96779 1.86487 7.68279 1.59063 7.32974C1.31222 6.94501 1.10699 6.51252 0.985142 6.05377C0.850015 5.52682 0.783975 4.98458 0.788688 4.44066C0.788688 3.8564 0.854625 3.31915 0.983797 2.82891C1.12104 2.33867 1.32422 1.91558 1.59063 1.56233C1.86513 1.20238 2.20958 0.920321 2.61998 0.718851C3.03171 0.517381 3.52015 0.416649 4.08394 0.416649C4.64772 0.416649 5.13481 0.517381 5.54654 0.718851C5.95828 0.920321 6.2987 1.20238 6.56512 1.56233C6.84095 1.91692 7.04279 2.33867 7.17331 2.82891C7.30248 3.31915 7.36841 3.8564 7.36841 4.44066C7.36841 5.02492 7.30248 5.56218 7.17331 6.05242C7.05675 6.51358 6.85006 6.94721 6.56512 7.32839C6.2987 7.68298 5.95963 7.95967 5.54654 8.16114C5.13481 8.35724 4.64772 8.45528 4.08394 8.45528ZM4.08394 7.50165C4.44454 7.50165 4.75671 7.4345 5.0164 7.29616C5.28502 7.14984 5.51191 6.93768 5.67572 6.67966C5.86084 6.3842 5.99289 6.05876 6.06593 5.71798C6.15339 5.34191 6.19644 4.91613 6.19644 4.44066C6.19644 3.97191 6.15339 3.55016 6.06727 3.17543C5.99711 2.83336 5.86486 2.50699 5.67706 2.21241C5.51461 1.95554 5.28658 1.74645 5.0164 1.60665C4.72931 1.45591 4.4082 1.38145 4.08394 1.39042C3.72198 1.39042 3.40847 1.4616 3.14205 1.60531C2.87581 1.74776 2.65136 1.95701 2.4908 2.21241C2.303 2.50699 2.17077 2.83336 2.1006 3.17543C2.01314 3.55016 1.97009 3.97191 1.97009 4.44066C1.97009 4.91613 2.01314 5.34191 2.1006 5.71664C2.18672 6.09272 2.31588 6.41372 2.4908 6.67966C2.66438 6.94829 2.88101 7.15244 3.1407 7.2975C3.40847 7.4345 3.72199 7.503 4.08259 7.503L4.08394 7.50165ZM8.82563 2.77384C9.09105 2.73474 9.35988 2.72394 9.62758 2.7416C9.7285 2.74966 9.81865 2.76041 9.89804 2.77518V5.81469C9.89804 6.16121 9.93168 6.44864 9.99626 6.67966C10.0608 6.90396 10.1577 7.07992 10.2882 7.2102C10.4205 7.34105 10.5854 7.43425 10.7659 7.48017C10.9543 7.5312 11.1696 7.55672 11.4158 7.55672C11.7845 7.55672 12.0993 7.51643 12.3577 7.43719V2.77518C12.4384 2.76041 12.5245 2.74832 12.6187 2.7416C12.7957 2.72954 12.9733 2.72954 13.1502 2.7416C13.2511 2.74966 13.3413 2.76041 13.4207 2.77518V8.15173C13.1209 8.2345 12.8174 8.30307 12.5111 8.35723C12.1534 8.4229 11.7903 8.45527 11.4266 8.45393C11.0727 8.45393 10.7363 8.4217 10.4188 8.35723C10.1182 8.3039 9.83536 8.1775 9.59529 7.98921C9.34105 7.78004 9.14657 7.50762 9.0315 7.19945C8.89426 6.86098 8.82563 6.41372 8.82563 5.85766V2.77384ZM15.3206 3.62941H14.4742L14.4312 3.47764L16.2961 1.40116H16.3822V2.77518H17.791C17.8206 2.89606 17.8341 3.03441 17.8341 3.18618C17.8358 3.33504 17.8214 3.48366 17.791 3.62941H16.3822V6.16121C16.3822 6.46341 16.393 6.70518 16.4145 6.8865C16.433 7.03361 16.4772 7.17635 16.545 7.30825C16.6096 7.40227 16.693 7.46673 16.794 7.503C16.9016 7.5312 17.0362 7.54598 17.1949 7.54598C17.3174 7.54598 17.4331 7.53793 17.5421 7.5245C17.6497 7.50301 17.7479 7.48017 17.8341 7.45868C17.8852 7.60374 17.9135 7.75148 17.9215 7.90191C17.935 8.05369 17.9431 8.18799 17.9431 8.3035C17.7936 8.34013 17.6416 8.36527 17.4883 8.37872C17.3188 8.40101 17.1479 8.41178 16.977 8.41096C16.4576 8.41096 16.0485 8.28471 15.7525 8.0322C15.4646 7.77969 15.3192 7.36063 15.3192 6.77772L15.3206 3.62941ZM18.9011 7.319C19.0962 7.39824 19.3088 7.46271 19.5402 7.51375C19.7784 7.55673 20.0139 7.57821 20.2453 7.57821C20.4108 7.57821 20.5696 7.55942 20.7216 7.5245C20.8603 7.49377 20.9924 7.43874 21.1118 7.36197C21.2205 7.29653 21.3129 7.20746 21.3823 7.10141C21.4538 6.9965 21.4918 6.87239 21.4913 6.74548C21.496 6.62058 21.4657 6.49685 21.4038 6.38821C21.352 6.2926 21.2776 6.211 21.1872 6.15047C21.0916 6.08063 20.9859 6.02582 20.8737 5.98795C20.7498 5.93427 20.6231 5.8872 20.4942 5.84692L20.1148 5.70589C19.6519 5.53397 19.3169 5.33922 19.107 5.12298C18.8971 4.90539 18.7921 4.61259 18.7921 4.24591C18.7921 3.75567 18.9657 3.36616 19.3128 3.07738C19.6667 2.78861 20.1834 2.6449 20.8629 2.6449C21.1441 2.6449 21.4186 2.67311 21.6864 2.73086C21.9609 2.7819 22.199 2.84368 22.4022 2.91486C22.3868 3.06189 22.3575 3.20715 22.3147 3.3487C22.2807 3.48591 22.2333 3.6195 22.1735 3.74761C21.9855 3.68195 21.7936 3.62812 21.5989 3.58643C21.3691 3.52684 21.1326 3.49749 20.8952 3.49913C20.6274 3.49913 20.3893 3.54613 20.1794 3.64015C19.9775 3.73417 19.8766 3.89938 19.8766 4.13712C19.8766 4.26068 19.9022 4.36545 19.952 4.45141C20.0031 4.53737 20.0717 4.61258 20.1578 4.67974C20.2453 4.73615 20.3422 4.78719 20.4512 4.83017C20.5669 4.87315 20.6893 4.91613 20.8198 4.96045L21.2962 5.12163C21.4697 5.18073 21.6325 5.24789 21.7832 5.32847C21.9434 5.40772 22.0766 5.50845 22.1842 5.63068C22.3047 5.75385 22.3973 5.90131 22.456 6.06316C22.5273 6.22971 22.5637 6.43119 22.5637 6.66892C22.5637 6.9362 22.5098 7.18199 22.4022 7.40495C22.2932 7.62119 22.1385 7.80789 21.9353 7.96772C21.7208 8.12912 21.4787 8.25019 21.2208 8.32499C20.9382 8.41095 20.6274 8.45393 20.2883 8.45393C19.9412 8.45393 19.6384 8.42976 19.3774 8.37872C19.1307 8.33875 18.888 8.27717 18.6522 8.19471C18.6666 8.04807 18.6954 7.90321 18.7383 7.76222C18.7894 7.61045 18.8432 7.46271 18.9011 7.319ZM24.1366 3.62941H23.2916L23.2472 3.47764L25.1121 1.40116H25.1982V2.77518H26.607C26.6366 2.89606 26.6514 3.03441 26.6514 3.18618C26.6502 3.33496 26.6353 3.48333 26.607 3.62941H25.1982V6.16121C25.1982 6.46341 25.209 6.70518 25.2305 6.8865C25.2493 7.03355 25.2935 7.17624 25.3611 7.30825C25.4256 7.40227 25.5091 7.46673 25.61 7.503C25.719 7.5312 25.8522 7.54598 26.011 7.54598C26.1347 7.54598 26.2505 7.53793 26.3581 7.5245C26.4564 7.50478 26.5542 7.48283 26.6514 7.45868C26.7012 7.60374 26.7308 7.75148 26.7375 7.90191C26.7523 8.05369 26.7591 8.18799 26.7591 8.3035C26.6151 8.33842 26.4631 8.36394 26.3043 8.37872C26.1352 8.40095 25.9648 8.41173 25.7943 8.41096C25.2749 8.41096 24.8659 8.28471 24.5699 8.0322C24.2806 7.77969 24.1366 7.36063 24.1366 6.77772V3.62941ZM30.7527 5.71664C30.6153 5.69929 30.4776 5.68495 30.3396 5.67365C30.1991 5.66048 30.0581 5.65331 29.9171 5.65217C29.469 5.65217 29.1259 5.73544 28.8877 5.90064C28.6563 6.06719 28.5406 6.3197 28.5406 6.65817C28.5406 6.87441 28.5809 7.04499 28.6603 7.16721C28.7333 7.28351 28.8335 7.38032 28.9523 7.44928C29.0771 7.51417 29.2132 7.55431 29.3533 7.56747C29.4986 7.5809 29.6359 7.58896 29.7664 7.58896C30.0985 7.59923 30.4305 7.56306 30.7527 7.48151V5.71664ZM30.7527 4.66899C30.7527 4.24187 30.6437 3.94639 30.427 3.78119C30.2104 3.61464 29.8955 3.53136 29.4838 3.53136C29.2308 3.53136 28.9927 3.5542 28.7693 3.59718C28.5526 3.63269 28.3386 3.68295 28.1288 3.74761C27.9858 3.48604 27.9147 3.19128 27.923 2.89337C28.1692 2.81413 28.4397 2.75234 28.7357 2.70936C29.0331 2.66638 29.3183 2.6449 29.5928 2.6449C30.3154 2.6449 30.8643 2.81011 31.2397 3.14186C31.6152 3.4669 31.8035 3.98937 31.8035 4.71064V8.18397C31.5506 8.24172 31.2438 8.29948 30.8818 8.35723C30.5172 8.42223 30.1475 8.45459 29.7771 8.45393C29.4233 8.45393 29.1017 8.4217 28.8124 8.35723C28.5517 8.30166 28.3047 8.19482 28.0858 8.04294C27.8911 7.89955 27.7349 7.7104 27.631 7.49226C27.5155 7.23727 27.4598 6.95936 27.4682 6.67966C27.4682 6.37074 27.5301 6.09943 27.6525 5.86841C27.783 5.63068 27.9553 5.43592 28.1732 5.28414C28.3899 5.12566 28.6388 5.01015 28.92 4.93897C29.2026 4.85838 29.4986 4.81943 29.8094 4.81943C30.0409 4.81943 30.2279 4.82614 30.3732 4.84092C30.5239 4.84763 30.6504 4.85972 30.7527 4.87315V4.66899ZM33.4141 2.77384C33.6392 2.73388 33.8685 2.72304 34.0963 2.7416C34.169 2.74966 34.2443 2.76041 34.3237 2.77518C34.3466 2.88263 34.3681 3.03038 34.3897 3.21842C34.4112 3.3984 34.422 3.55017 34.422 3.67239C34.4946 3.55017 34.5848 3.42794 34.6924 3.30437C34.9375 3.04596 35.2431 2.85255 35.5818 2.7416C35.7808 2.67501 35.9896 2.64232 36.1994 2.6449C36.8345 2.6449 37.3041 2.8289 37.6082 3.19558C37.9123 3.55822 38.063 4.09548 38.063 4.80734V8.32499C37.794 8.36411 37.5216 8.37492 37.2503 8.35723C37.1632 8.35098 37.0766 8.34022 36.9906 8.32499V5.10149C36.9906 4.58841 36.9112 4.21367 36.7524 3.97594C36.5937 3.73014 36.3407 3.60793 35.9936 3.60793C35.7917 3.60793 35.5993 3.64418 35.419 3.71537C35.2364 3.78917 35.0734 3.90409 34.9427 4.05115C34.8054 4.20293 34.6924 4.40037 34.6063 4.64616C34.5205 4.92674 34.48 5.21919 34.4866 5.51248V8.32499C34.1313 8.38075 33.7694 8.38075 33.4141 8.32499V2.77384ZM43.246 0.39515C43.4215 0.368198 43.5987 0.353837 43.7762 0.352173C43.9542 0.352672 44.1319 0.367039 44.3077 0.39515V8.17188C44.0332 8.25247 43.7264 8.31694 43.386 8.36798C43.0096 8.42842 42.6288 8.45717 42.2477 8.45393C41.8588 8.45393 41.4861 8.40693 41.1322 8.31425C40.7969 8.21921 40.4861 8.05289 40.2213 7.8267C39.9517 7.58942 39.7404 7.29347 39.6037 6.96172C39.4516 6.60847 39.3763 6.17196 39.3763 5.65217C39.3763 5.2049 39.4409 4.79794 39.5714 4.42992C39.6972 4.08094 39.8926 3.76108 40.1459 3.48972C40.3908 3.2211 40.6841 3.01694 41.0232 2.87189C41.3704 2.72817 41.7538 2.65565 42.1723 2.65565C42.3607 2.65565 42.5477 2.66908 42.7361 2.69862C42.9312 2.72817 43.1007 2.76444 43.246 2.80608V0.39515ZM43.246 3.71537C43.0953 3.65633 42.9388 3.61312 42.7791 3.58643C42.6 3.55659 42.4185 3.54221 42.2369 3.54345C41.9409 3.54345 41.6852 3.59718 41.4686 3.70463C41.2506 3.81208 41.0703 3.95983 40.9263 4.14787C40.7817 4.35096 40.675 4.57847 40.6115 4.81943C40.5445 5.09189 40.512 5.37164 40.5146 5.65217C40.5213 6.33716 40.6841 6.82741 41.0017 7.12424C41.3192 7.41973 41.7538 7.56747 42.3028 7.56747C42.4899 7.56747 42.6634 7.56076 42.8222 7.54598C42.9655 7.52749 43.1071 7.4983 43.246 7.45868V3.71537ZM46.3556 3.61867H45.6505C45.6347 3.55469 45.6239 3.48958 45.6182 3.42392C45.6061 3.27642 45.6061 3.12818 45.6182 2.98068C45.6234 2.91142 45.6342 2.84269 45.6505 2.77518H47.4065V8.32499C47.1448 8.3657 46.8794 8.37651 46.6153 8.35723C46.5282 8.35098 46.4416 8.34022 46.3556 8.32499V3.61867ZM46.1174 1.55159C46.1021 1.45856 46.0909 1.36489 46.0838 1.27087V0.72959C46.0904 0.639084 46.1016 0.54898 46.1174 0.459626C46.4045 0.419664 46.6948 0.408861 46.984 0.427388C47.0916 0.434103 47.1898 0.444851 47.276 0.459626C47.2908 0.53887 47.2988 0.628855 47.2988 0.72959C47.3056 0.830325 47.3096 0.920319 47.3096 1.00091C47.3096 1.08015 47.3056 1.17014 47.2988 1.27087C47.2988 1.37161 47.2908 1.46562 47.276 1.55293C46.892 1.61077 46.5014 1.60943 46.1174 1.55159ZM49.153 2.77384C49.3781 2.73388 49.6074 2.72304 49.8352 2.7416C49.9079 2.74966 49.9832 2.76041 50.0626 2.77518C50.1165 3.07157 50.1493 3.37139 50.1608 3.67239C50.2389 3.54134 50.3295 3.4181 50.4313 3.30437C50.547 3.18215 50.6775 3.07336 50.8215 2.98068C50.9655 2.8786 51.1323 2.79936 51.3207 2.7416C51.5196 2.67501 51.7284 2.64232 51.9383 2.6449C52.5734 2.6449 53.043 2.8289 53.3471 3.19558C53.6498 3.55822 53.8019 4.09548 53.8019 4.80734V8.32499C53.5328 8.36385 53.2604 8.37466 52.9892 8.35723C52.9021 8.35098 52.8154 8.34022 52.7295 8.32499V5.10149C52.7295 4.58841 52.6501 4.21367 52.49 3.97594C52.3312 3.73014 52.0782 3.60793 51.7324 3.60793C51.5292 3.60793 51.3382 3.64418 51.1579 3.71537C50.9747 3.78877 50.8111 3.90373 50.6802 4.05115C50.5429 4.20293 50.4313 4.40037 50.3452 4.64616C50.2593 4.92674 50.2189 5.21919 50.2254 5.51248V8.32499C49.8701 8.3802 49.5083 8.3802 49.153 8.32499V2.77384ZM58.3982 7.61045C59.0414 7.62388 59.5083 7.76222 59.7963 8.02145C60.0856 8.28201 60.2309 8.63929 60.2309 9.09327C60.2309 9.38876 60.1542 9.65201 60.0021 9.88303C59.8416 10.1297 59.6267 10.3364 59.3738 10.4874C59.0807 10.6713 58.7579 10.8031 58.4198 10.8769C58.0592 10.971 57.6649 11.018 57.2384 11.018C56.4943 11.018 55.9278 10.9025 55.5376 10.6728C55.1474 10.4418 54.9523 10.0778 54.9523 9.57948C54.9523 9.28399 55.0317 9.01671 55.1905 8.77898C55.3492 8.54872 55.561 8.35986 55.8081 8.22829C55.6655 8.13556 55.5407 8.01823 55.4394 7.88177C55.3421 7.72224 55.2935 7.53788 55.2994 7.35122C55.2994 7.08394 55.3573 6.85427 55.473 6.65817C55.5955 6.46342 55.7583 6.29015 55.9601 6.13972C55.7217 5.97382 55.525 5.75498 55.3856 5.50039C55.2391 5.22419 55.1646 4.91566 55.1689 4.60318C55.1689 4.32918 55.2201 4.07265 55.321 3.83491C55.419 3.60013 55.5668 3.38934 55.7543 3.21707C55.9494 3.03844 56.1875 2.8974 56.4701 2.79667C56.7513 2.69459 57.0729 2.6449 57.4335 2.6449C57.9942 2.63615 58.5423 2.81068 58.9943 3.14186C59.1396 3.02769 59.3348 2.93368 59.5796 2.86115C59.8259 2.7819 60.0963 2.7416 60.3923 2.7416C60.4219 2.8786 60.4367 3.03038 60.4367 3.19693C60.4354 3.36707 60.4205 3.53683 60.3923 3.70463H59.4168C59.4976 3.8282 59.5581 3.95982 59.6012 4.10488C59.6456 4.24994 59.6671 4.41514 59.6671 4.60184C59.6671 4.89867 59.6119 5.16596 59.5043 5.40369C59.3953 5.64142 59.2406 5.84692 59.0387 6.02019C58.8436 6.18673 58.6081 6.31568 58.3337 6.40969C58.0421 6.49895 57.7385 6.54289 57.4335 6.53998C57.1375 6.53998 56.871 6.50775 56.6315 6.44193C56.5152 6.51306 56.4127 6.60451 56.3288 6.7119C56.2383 6.81747 56.1882 6.95169 56.1875 7.09066C56.1875 7.22094 56.2346 7.33645 56.3288 7.43719C56.423 7.53121 56.6315 7.58225 56.9572 7.58896L58.3982 7.61045ZM56.9356 8.46468C56.61 8.45797 56.3651 8.54527 56.1983 8.72525C56.0401 8.90397 55.9551 9.13556 55.9601 9.37398C55.9543 9.51041 55.9879 9.64562 56.057 9.76349C56.1244 9.86582 56.2183 9.94797 56.3288 10.0012C56.4512 10.0657 56.5925 10.1087 56.7513 10.1315C56.9181 10.1597 57.0984 10.1745 57.2936 10.1745C57.8708 10.1745 58.3229 10.0778 58.6485 9.88303C58.9728 9.69499 59.1356 9.45726 59.1356 9.16849C59.1356 8.95224 59.067 8.78569 58.9297 8.67152C58.7925 8.55467 58.5395 8.49423 58.1708 8.48617L56.9356 8.46468ZM57.4335 5.76096C57.8237 5.76096 58.113 5.65351 58.3014 5.43593C58.4946 5.20237 58.5947 4.90586 58.5826 4.60318C58.5826 4.25665 58.4884 3.97594 58.3014 3.7597C58.113 3.5354 57.8237 3.42392 57.4335 3.42392C57.0433 3.42392 56.7553 3.5354 56.567 3.7597C56.3867 3.9746 56.2965 4.25665 56.2965 4.60318C56.2965 4.94165 56.3867 5.21968 56.567 5.43593C56.7553 5.65217 57.0433 5.76096 57.4335 5.76096ZM64.7829 5.81469C64.7977 6.42044 64.9524 6.86367 65.2484 7.14438C65.5525 7.42644 65.9965 7.56747 66.5819 7.56747C67.0945 7.56747 67.5829 7.47748 68.0445 7.2975C68.1023 7.40495 68.1494 7.53927 68.1857 7.69641C68.2221 7.84819 68.2436 7.99996 68.2503 8.15173C67.9962 8.25727 67.7307 8.33343 67.4591 8.37872C67.148 8.43147 66.8328 8.45664 66.5173 8.45393C66.0113 8.45393 65.5781 8.38678 65.2161 8.24843C64.8764 8.11828 64.5696 7.91515 64.3173 7.65343C64.0843 7.39064 63.9104 7.08103 63.8073 6.74548C63.6954 6.36985 63.6405 5.97958 63.6445 5.5877C63.6445 5.1767 63.6956 4.79525 63.7966 4.44066C63.9042 4.07936 64.067 3.76909 64.2837 3.50987C64.5003 3.24393 64.7721 3.03441 65.0977 2.88263C65.4301 2.72415 65.8189 2.6449 66.267 2.6449C66.6505 2.6449 66.9869 2.70936 67.2762 2.83965C67.5641 2.96993 67.8063 3.14857 68.0014 3.38093C68.1965 3.60389 68.3445 3.87386 68.4454 4.19218C68.5477 4.5011 68.5975 4.84091 68.5975 5.20893C68.5975 5.30966 68.5948 5.41846 68.5867 5.53397C68.58 5.64142 68.5719 5.73544 68.5652 5.81469H64.7829ZM67.5358 5.01418C67.5358 4.81271 67.5062 4.62064 67.4484 4.44066C67.4037 4.26383 67.3226 4.09824 67.2102 3.95445C67.106 3.81425 66.9681 3.70248 66.8093 3.62941C66.6318 3.5383 66.4342 3.49348 66.2347 3.49913C65.7947 3.49913 65.4543 3.63344 65.2161 3.89938C64.9847 4.16666 64.8448 4.53737 64.7936 5.01418H67.5358ZM70.71 5.44667L69.3994 2.77384C69.6826 2.73144 69.9696 2.72062 70.2552 2.7416C70.3561 2.74966 70.4611 2.76041 70.5701 2.77518L71.7191 5.45742L70.3319 8.32499C69.9582 8.38191 69.578 8.38191 69.2043 8.32499L70.71 5.44667ZM71.8053 5.45742L72.9651 2.77518C73.1661 2.74632 73.3689 2.73151 73.572 2.73086C73.7671 2.73086 73.9474 2.74563 74.1142 2.77518L72.8238 5.41443L74.3309 8.32499C74.1369 8.35207 73.9414 8.36644 73.7455 8.36798C73.5639 8.36916 73.3825 8.35477 73.2033 8.32499L71.8053 5.45742ZM75.379 2.77384C75.6797 2.71417 75.9893 2.71417 76.29 2.77384C76.2967 2.78861 76.3048 2.83562 76.3115 2.91486C76.3263 2.98739 76.3371 3.06664 76.3438 3.15394C76.3586 3.2399 76.3694 3.32318 76.3761 3.40243C76.387 3.45248 76.3946 3.50317 76.399 3.5542C76.4703 3.43869 76.5577 3.32587 76.6586 3.21842C76.8858 2.97948 77.1744 2.80754 77.4929 2.72146C77.6732 2.67042 77.8723 2.6449 78.089 2.6449C78.4146 2.6449 78.7146 2.69863 78.9891 2.80608C79.2703 2.91487 79.5085 3.08544 79.7036 3.31646C79.9068 3.53942 80.0615 3.82685 80.1705 4.18144C80.2862 4.52796 80.3428 4.93896 80.3428 5.41443C80.3428 6.36671 80.0831 7.11349 79.5637 7.65343C79.0497 8.18799 78.3204 8.45393 77.3731 8.45393C77.0626 8.45265 76.7535 8.41295 76.4528 8.33574V10.8783C76.0972 10.9357 75.7346 10.9357 75.379 10.8783V2.77384ZM76.4528 7.4157C76.59 7.46674 76.7313 7.503 76.8753 7.52314C77.0192 7.54598 77.2076 7.55672 77.4391 7.55672C77.6988 7.55672 77.9369 7.51643 78.1536 7.43719C78.3702 7.35123 78.5545 7.22229 78.7066 7.04768C78.8653 6.87442 78.9891 6.65817 79.0753 6.39895C79.1751 6.09573 79.2228 5.77786 79.2165 5.45876C79.2165 4.88121 79.1075 4.4232 78.8909 4.08339C78.681 3.74492 78.3352 3.57569 77.8508 3.57569C77.6705 3.57569 77.4969 3.60792 77.3301 3.67239C77.1634 3.73828 77.0122 3.83798 76.8861 3.9652C76.7555 4.09414 76.6506 4.26068 76.5712 4.46215C76.4918 4.6569 76.4528 4.89195 76.4528 5.16595V7.4157ZM82.5858 5.81469C82.5992 6.42044 82.7553 6.86367 83.0513 7.14438C83.3541 7.42644 83.7995 7.56747 84.3848 7.56747C84.8974 7.56747 85.3845 7.47748 85.8474 7.2975C85.9052 7.40495 85.9523 7.53927 85.9887 7.69641C86.025 7.84819 86.0465 7.99996 86.0532 8.15173C85.7991 8.25727 85.5336 8.33343 85.2621 8.37872C84.9505 8.43152 84.6349 8.45669 84.3189 8.45393C83.8129 8.45393 83.3797 8.38678 83.0191 8.24843C82.6788 8.11862 82.3714 7.91545 82.1189 7.65343C81.8858 7.3909 81.7123 7.08118 81.6103 6.74548C81.4983 6.36985 81.4434 5.97958 81.4475 5.5877C81.4475 5.1767 81.4972 4.79525 81.5995 4.44066C81.7071 4.07936 81.8699 3.76909 82.0866 3.50987C82.3032 3.24393 82.5737 3.03441 82.8993 2.88263C83.2316 2.72415 83.6218 2.6449 84.0699 2.6449C84.4534 2.6449 84.7884 2.70936 85.0777 2.83965C85.3579 2.96274 85.6064 3.14783 85.8043 3.38093C85.9994 3.60389 86.1474 3.87386 86.2484 4.19218C86.3493 4.5011 86.4004 4.84091 86.4004 5.20893C86.4004 5.30966 86.3964 5.41846 86.3896 5.53397L86.3681 5.81469H82.5858ZM85.3374 5.01418C85.3374 4.81271 85.3092 4.62064 85.2513 4.44066C85.2055 4.26425 85.1245 4.09889 85.0131 3.95445C84.9086 3.81457 84.7708 3.70287 84.6122 3.62941C84.4347 3.53841 84.2371 3.4936 84.0376 3.49913C83.5963 3.49913 83.2572 3.63344 83.0191 3.89938C82.7876 4.16666 82.6463 4.53737 82.5965 5.01418H85.3374ZM87.8051 2.77384C88.0307 2.7341 88.2604 2.72327 88.4887 2.7416C88.56 2.74966 88.6367 2.76041 88.7161 2.77518C88.7376 2.88263 88.7591 3.03038 88.7807 3.21842C88.8022 3.3984 88.813 3.55017 88.813 3.67239C88.8856 3.55017 88.9758 3.42794 89.0848 3.30437C89.2005 3.18215 89.3296 3.07336 89.475 2.98068C89.6189 2.8786 89.7858 2.79936 89.9728 2.7416C90.1612 2.67713 90.3671 2.6449 90.5904 2.6449C91.2269 2.6449 91.6965 2.8289 91.9992 3.19558C92.3033 3.55822 92.4554 4.09548 92.4554 4.80734V8.32499C92.1863 8.36411 91.9139 8.37492 91.6427 8.35723C91.5551 8.35098 91.468 8.34022 91.3816 8.32499V5.10149C91.3816 4.58841 91.3022 4.21367 91.1434 3.97594C90.9847 3.73014 90.7317 3.60793 90.3846 3.60793C90.1827 3.60793 89.9917 3.64418 89.81 3.71537C89.6274 3.78917 89.4644 3.90409 89.3337 4.05115C89.1964 4.20293 89.0848 4.40037 88.9973 4.64616C88.912 4.92682 88.872 5.21927 88.8789 5.51248V8.32499C88.5232 8.38089 88.1609 8.38089 87.8051 8.32499V2.77384ZM93.9731 7.319C94.1682 7.39824 94.3822 7.46271 94.6136 7.51375C94.8518 7.55673 95.0859 7.57821 95.3173 7.57821C95.4842 7.57821 95.643 7.55942 95.795 7.5245C95.9336 7.4935 96.0657 7.43849 96.1852 7.36197C96.2939 7.29653 96.3863 7.20746 96.4557 7.10141C96.5272 6.9965 96.5652 6.87239 96.5647 6.74548C96.5694 6.62058 96.5391 6.49685 96.4772 6.38821C96.4254 6.2926 96.351 6.211 96.2606 6.15047C96.1647 6.08037 96.0584 6.02554 95.9457 5.98795C95.8219 5.93405 95.6952 5.88698 95.5663 5.84692L95.1882 5.70589C94.7253 5.53397 94.3889 5.33922 94.179 5.12298C93.9704 4.90539 93.8655 4.61259 93.8655 4.24591C93.8655 3.75567 94.0391 3.36616 94.3862 3.07738C94.7401 2.78861 95.2568 2.6449 95.9349 2.6449C96.2175 2.6449 96.492 2.67311 96.7598 2.73086C97.0342 2.7819 97.2724 2.84368 97.4742 2.91486C97.4593 3.06185 97.4304 3.20711 97.3881 3.3487C97.3541 3.48591 97.3067 3.6195 97.2468 3.74761C97.0589 3.68195 96.867 3.62812 96.6723 3.58643C96.4425 3.52693 96.206 3.49758 95.9686 3.49913C95.7008 3.49913 95.4627 3.54613 95.2527 3.64015C95.0509 3.73417 94.9487 3.89938 94.9487 4.13712C94.9487 4.26068 94.9742 4.36545 95.0253 4.45141C95.0751 4.53737 95.1438 4.61258 95.2312 4.67974C95.3173 4.73615 95.4156 4.78719 95.5232 4.83017C95.6389 4.87315 95.7614 4.91613 95.8919 4.96045L96.3696 5.12163C96.5418 5.18073 96.7046 5.24789 96.8566 5.32847C97.0154 5.40772 97.1486 5.50845 97.2576 5.63068C97.3781 5.75356 97.4704 5.90113 97.5281 6.06316C97.6007 6.22971 97.6371 6.43119 97.6371 6.66892C97.6371 6.9362 97.5832 7.18199 97.4742 7.40495C97.3666 7.62119 97.2105 7.80789 97.0087 7.96772C96.7939 8.12937 96.5513 8.25045 96.2928 8.32499C96.0116 8.41095 95.7008 8.45393 95.3604 8.45393C95.0146 8.45393 94.7105 8.42976 94.4508 8.37872C94.2037 8.33858 93.9606 8.27701 93.7242 8.19471C93.739 8.05099 93.7673 7.90594 93.8117 7.76222C93.8615 7.61045 93.9153 7.46271 93.9731 7.319ZM99.8061 5.81469C99.8195 6.42044 99.9756 6.86367 100.272 7.14438C100.574 7.42644 101.02 7.56747 101.605 7.56747C102.118 7.56747 102.605 7.47748 103.068 7.2975C103.126 7.40495 103.173 7.53927 103.209 7.69641C103.245 7.84819 103.267 7.99996 103.274 8.15173C103.019 8.25727 102.754 8.33343 102.482 8.37872C102.171 8.43152 101.855 8.45669 101.539 8.45393C101.033 8.45393 100.6 8.38678 100.239 8.24843C99.8991 8.11862 99.5917 7.91545 99.3392 7.65343C99.1061 7.3909 98.9326 7.08118 98.8306 6.74548C98.7186 6.36985 98.6637 5.97958 98.6677 5.5877C98.6677 5.1767 98.7175 4.79525 98.8198 4.44066C98.9274 4.07936 99.0902 3.76909 99.3069 3.50987C99.5235 3.24393 99.794 3.03441 100.12 2.88263C100.452 2.72415 100.842 2.6449 101.29 2.6449C101.674 2.6449 102.009 2.70936 102.298 2.83965C102.578 2.96274 102.827 3.14783 103.025 3.38093C103.22 3.60389 103.368 3.87386 103.469 4.19218C103.57 4.5011 103.621 4.84091 103.621 5.20893C103.621 5.30966 103.617 5.41846 103.61 5.53397L103.588 5.81469H99.8061ZM102.558 5.01418C102.558 4.81271 102.529 4.62064 102.472 4.44066C102.426 4.26425 102.345 4.09889 102.233 3.95445C102.129 3.81457 101.991 3.70287 101.832 3.62941C101.655 3.53841 101.457 3.4936 101.258 3.49913C100.817 3.49913 100.477 3.63344 100.239 3.89938C100.008 4.16666 99.8666 4.53737 99.8168 5.01418H102.558ZM104.929 7.319C105.124 7.39824 105.336 7.46271 105.568 7.51375C105.806 7.55673 106.041 7.57821 106.273 7.57821C106.438 7.57821 106.597 7.55942 106.749 7.5245C106.888 7.49377 107.02 7.43874 107.139 7.36197C107.248 7.29653 107.34 7.20746 107.41 7.10141C107.481 6.9965 107.519 6.87239 107.519 6.74548C107.523 6.62058 107.493 6.49685 107.431 6.38821C107.379 6.2926 107.305 6.211 107.215 6.15047C107.119 6.08063 107.013 6.02582 106.901 5.98795C106.777 5.93427 106.651 5.8872 106.522 5.84692L106.142 5.70589C105.679 5.53397 105.344 5.33922 105.134 5.12298C104.925 4.90539 104.82 4.61259 104.82 4.24591C104.82 3.75567 104.993 3.36616 105.34 3.07738C105.694 2.78861 106.211 2.6449 106.89 2.6449C107.172 2.6449 107.446 2.67311 107.714 2.73086C107.988 2.7819 108.227 2.84368 108.428 2.91486C108.414 3.06195 108.385 3.20728 108.342 3.3487C108.308 3.48591 108.261 3.6195 108.201 3.74761C108.013 3.68195 107.821 3.62812 107.626 3.58643C107.397 3.52684 107.16 3.49749 106.923 3.49913C106.655 3.49913 106.417 3.54613 106.207 3.64015C106.005 3.73417 105.904 3.89938 105.904 4.13712C105.904 4.26068 105.928 4.36545 105.979 4.45141C106.031 4.53737 106.099 4.61258 106.185 4.67974C106.273 4.73615 106.37 4.78719 106.479 4.83017C106.594 4.87315 106.717 4.91613 106.846 4.96045L107.324 5.12163C107.497 5.18073 107.66 5.24789 107.811 5.32847C107.97 5.40772 108.104 5.50845 108.212 5.63068C108.332 5.75385 108.425 5.90131 108.484 6.06316C108.555 6.22971 108.591 6.43119 108.591 6.66892C108.591 6.9362 108.537 7.18199 108.428 7.40495C108.321 7.62119 108.165 7.80789 107.963 7.96772C107.748 8.12937 107.505 8.25045 107.247 8.32499C106.945 8.41424 106.631 8.45771 106.316 8.45393C106.01 8.45774 105.705 8.43256 105.405 8.37872C105.158 8.33858 104.915 8.27701 104.678 8.19471C104.693 8.05099 104.723 7.90594 104.766 7.76222C104.817 7.61045 104.871 7.46271 104.929 7.319Z" fill="#BBBFC4"/>
</svg>
