<svg preserveAspectRatio="none" width="5" height="7" viewBox="0 0 5 7" fill="none" xmlns="http://www.w3.org/2000/svg">
<path vector-effect="non-scaling-stroke" d="M2.10391 5.98736C2.00391 5.94636 1.95991 5.83136 2.00891 5.73836C2.05191 5.64336 2.16491 5.59436 2.26191 5.64136C2.62191 5.79436 3.00791 5.79437 3.34791 5.66337C3.68891 5.53237 3.97091 5.27637 4.13291 4.91337C4.29491 4.54937 4.28991 4.16536 4.15891 3.82536C4.02691 3.47936 3.76691 3.18836 3.40991 3.02936C3.05491 2.87536 2.66491 2.87737 2.32391 3.00737C1.97791 3.14037 1.69191 3.39837 1.52991 3.76137C1.48691 3.85737 1.37191 3.90137 1.28091 3.85737C1.25291 3.85237 1.22991 3.83437 1.21891 3.81737L1.21491 3.80836C1.21491 3.80836 1.20091 3.79837 1.19691 3.78937C1.18291 3.77837 1.17391 3.75536 1.16691 3.73737C1.16291 3.72836 1.16191 3.71236 1.15691 3.69836L0.622911 1.60537C0.601911 1.55037 0.611908 1.49336 0.642908 1.45036C0.659908 1.41136 0.695907 1.38236 0.741907 1.36436L3.05391 0.477363C3.15291 0.433363 3.26091 0.481368 3.29891 0.578368C3.33891 0.684368 3.28891 0.788362 3.19291 0.825362L1.02791 1.65636L1.42191 3.20637C1.61691 2.95637 1.87691 2.76737 2.17691 2.65237C2.60991 2.48637 3.09191 2.47536 3.55191 2.68436C4.01391 2.88236 4.33291 3.24537 4.50291 3.68737C4.66491 4.11137 4.68291 4.61237 4.47191 5.06837C4.26891 5.51537 3.89691 5.85436 3.46891 6.01836C3.03591 6.18436 2.54091 6.18936 2.08891 5.98836L2.10391 5.98736Z" fill="#F8F8F8"/>
</svg>
