<svg preserveAspectRatio="none" width="6" height="7" viewBox="0 0 6 7" fill="none" xmlns="http://www.w3.org/2000/svg">
<path vector-effect="non-scaling-stroke" d="M2.42293 6.31014L3.92792 3.32314C4.10592 2.95914 4.12192 2.56114 3.98592 2.20714C3.86892 1.90314 3.63792 1.64314 3.32292 1.48414C2.96792 1.30314 2.56292 1.29514 2.21992 1.43214C1.90692 1.55214 1.64493 1.77914 1.47893 2.09114L1.32492 2.40414C1.28192 2.50014 1.16492 2.53914 1.08392 2.49114C0.987923 2.44914 0.947926 2.33214 0.995926 2.25014L1.14893 1.93314C1.35593 1.53614 1.69693 1.24114 2.08693 1.08614C2.51993 0.920138 3.02093 0.918137 3.48293 1.15814C3.89293 1.36014 4.17992 1.69414 4.32692 2.07614C4.49492 2.51314 4.48892 3.02314 4.25992 3.48614L2.97092 6.04714L5.31993 5.14514C5.40993 5.10514 5.51892 5.15314 5.55592 5.25014C5.59092 5.34214 5.54293 5.45014 5.45093 5.48614L2.68692 6.55714L2.65892 6.56814C2.60792 6.58714 2.55193 6.59314 2.51093 6.56714C2.41593 6.51314 2.37492 6.40714 2.41792 6.31214L2.42293 6.31014Z" fill="#F8F8F8"/>
</svg>
