<svg preserveAspectRatio="none" width="91" height="13" viewBox="0 0 91 13" fill="none" xmlns="http://www.w3.org/2000/svg">
<path vector-effect="non-scaling-stroke" d="M0.794922 1.12323V9.83834H4.0621C6.67108 9.83834 8.16333 8.23744 8.16333 5.44117C8.16333 2.70567 6.65341 1.12323 4.0621 1.12323H0.794922ZM2.35253 2.43382H3.85713C5.56582 2.43382 6.57477 3.54518 6.57477 5.4659C6.57477 7.42816 5.59056 8.52811 3.85713 8.52811H2.35253V2.43382ZM14.0996 8.03247C13.8822 8.52811 13.3689 8.80553 12.6259 8.80553C11.6416 8.80553 11.0073 8.10492 10.9711 6.98729V6.90954H15.5856V6.43245C15.5856 4.36046 14.4565 3.11032 12.572 3.11032C10.6574 3.11032 9.46739 4.44502 9.46739 6.56497C9.46739 8.67919 10.6389 9.97087 12.5843 9.97087C14.1419 9.97087 15.2472 9.22254 15.5193 8.03247H14.0996ZM12.5658 4.27592C13.4661 4.27592 14.058 4.91018 14.0881 5.91295H10.9773C11.0435 4.92255 11.6717 4.27592 12.5658 4.27592ZM20.6887 3.12842C19.7831 3.12842 19.0162 3.5814 18.6354 4.33025H18.533V3.2371H17.0893V12.0303H18.5868V8.83557H18.6902C19.0277 9.53618 19.7593 9.94701 20.7073 9.94701C22.3744 9.94701 23.4125 8.63678 23.4125 6.54112C23.4125 4.4269 22.3621 3.12842 20.6887 3.12842ZM20.2178 8.70304C19.1973 8.70304 18.563 7.8752 18.5568 6.54112C18.563 5.20615 19.2035 4.37858 20.224 4.37858C21.2506 4.37858 21.8726 5.1876 21.8726 6.54112C21.8726 7.89376 21.2568 8.70304 20.2178 8.70304ZM24.9772 9.83834H26.4748V0.682373H24.9772V9.83834ZM31.2218 9.97087C33.1973 9.97087 34.3989 8.67919 34.3989 6.53494C34.3989 4.40279 33.1911 3.11032 31.2218 3.11032C29.2595 3.11032 28.0456 4.4088 28.0456 6.53494C28.0456 8.67919 29.241 9.97087 31.2218 9.97087ZM31.2218 8.74545C30.1775 8.74545 29.5794 7.93616 29.5794 6.54112C29.5794 5.14519 30.1775 4.33635 31.2218 4.33635C32.2608 4.33635 32.8589 5.14519 32.8589 6.54112C32.8589 7.93616 32.267 8.74545 31.2218 8.74545ZM36.3673 12.23C37.8471 12.23 38.5539 11.6928 39.1159 10.0681L41.5013 3.2371H39.919L38.379 8.41944H38.2765L36.7304 3.2371H35.0871L37.4487 9.8622L37.37 10.1705C37.1766 10.7925 36.8205 11.0346 36.1862 11.0346C36.0837 11.0346 35.8601 11.0284 35.7762 11.016V12.2061C35.8725 12.2238 36.2771 12.23 36.3673 12.23ZM46.2483 1.12323V9.83834H49.5155C52.1245 9.83834 53.6168 8.23744 53.6168 5.44117C53.6168 2.70567 52.1068 1.12323 49.5155 1.12323H46.2483ZM47.8068 2.43382H49.3106C51.0192 2.43382 52.0282 3.54518 52.0282 5.4659C52.0282 7.42816 51.044 8.52811 49.3106 8.52811H47.8068V2.43382ZM59.1306 9.83834C60.9913 9.83834 62.1266 8.89653 62.1266 7.36189C62.1266 6.22659 61.3173 5.38109 60.1458 5.27242V5.16374C61.0213 5.02504 61.6972 4.21549 61.6972 3.29753C61.6972 1.95673 60.7006 1.12323 59.0458 1.12323H55.404V9.83834H59.1306ZM56.9626 2.33726H58.6659C59.6077 2.33726 60.1573 2.79022 60.1573 3.56929C60.1573 4.36647 59.5715 4.79533 58.4662 4.79533H56.9626V2.33726ZM56.9626 8.62441V5.90058H58.7136C59.9037 5.90058 60.5319 6.3653 60.5319 7.25322C60.5319 8.14732 59.9222 8.62441 58.7746 8.62441H56.9626ZM72.7136 3.2371H71.216V7.08448C71.216 8.08106 70.6842 8.68449 69.7123 8.68449C68.8182 8.68449 68.4012 8.18973 68.4012 7.1631V3.2371H66.9037V7.52534C66.9037 9.07147 67.7492 9.97087 69.1928 9.97087C70.2009 9.97087 70.8476 9.54237 71.1675 8.78786H71.2699V9.83834H72.7136V3.2371ZM74.3984 5.12134C74.3984 6.11174 74.9965 6.69131 76.2652 6.98199L77.4368 7.25322C78.065 7.39811 78.3485 7.64019 78.3485 8.0148C78.3485 8.51574 77.8228 8.86031 77.0683 8.86031C76.3191 8.86031 75.8544 8.55815 75.7095 8.06869H74.2297C74.3445 9.25877 75.3835 9.97087 77.0321 9.97087C78.6807 9.97087 79.8461 9.13155 79.8461 7.86902C79.8461 6.89717 79.2603 6.35912 77.9987 6.06933L76.8325 5.80959C76.1681 5.65321 75.8544 5.41731 75.8544 5.0427C75.8544 4.55413 76.3677 4.22158 77.0498 4.22158C77.7504 4.22158 78.1913 4.52356 78.3 4.98881H79.7073C79.5987 3.79883 78.6145 3.11032 77.0445 3.11032C75.486 3.11032 74.3984 3.93772 74.3984 5.12134ZM85.3971 7.01203V5.64084H81.4284V7.01203H85.3971ZM89.4011 9.83834H90.9596V1.12323H89.4073L87.1305 2.72379V4.19136L89.2986 2.65735H89.4011V9.83834Z" fill="#2F363D"/>
</svg>
