<svg preserveAspectRatio="none" width="63" height="13" viewBox="0 0 63 13" fill="none" xmlns="http://www.w3.org/2000/svg">
<path vector-effect="non-scaling-stroke" d="M0.616577 10.1783L2.65239 7.52164C2.96725 7.10392 3.25115 6.7386 3.50142 6.42297C3.75304 6.10733 3.96161 5.81986 4.12845 5.56064C4.30607 5.29201 4.43524 5.04624 4.51866 4.82328C4.61151 4.59092 4.65859 4.3599 4.65859 4.12754C4.65859 3.73803 4.51866 3.43716 4.24013 3.2236C3.97102 3.01005 3.59024 2.90393 3.09777 2.90393C2.89324 2.90393 2.71294 2.91333 2.55417 2.93213C2.26272 2.97115 1.97714 3.04559 1.70378 3.15376C1.5746 3.20077 1.43467 3.25584 1.28666 3.32165C1.16556 3.06108 1.05792 2.79782 0.966422 2.52785C0.883219 2.26126 0.831726 1.98582 0.813022 1.70721C1.03504 1.62394 1.23956 1.55005 1.42525 1.48558C1.62035 1.41037 1.81545 1.3553 2.01056 1.31769C2.20566 1.27203 2.40616 1.2398 2.61068 1.221C2.82328 1.19279 3.06547 1.17935 3.33458 1.17935C3.82705 1.17935 4.28184 1.23441 4.7003 1.34589C5.11877 1.44797 5.47669 1.61053 5.77271 1.83215C6.0795 2.05511 6.31631 2.33849 6.4845 2.68099C6.65135 3.01543 6.73477 3.40897 6.73477 3.86295C6.73477 4.19739 6.68903 4.51705 6.59484 4.82328C6.49697 5.14196 6.36666 5.44979 6.20597 5.74197C6.02282 6.06276 5.82249 6.37347 5.60586 6.67275C5.38385 6.98839 5.13223 7.33223 4.8537 7.70293L4.115 8.69016H7.08327C7.13844 8.96818 7.16669 9.24217 7.16669 9.5108C7.16669 9.81703 7.13844 10.1085 7.08327 10.3879H0.714799L0.616577 10.1783ZM9.58599 8.38393C9.74342 8.34766 9.90219 8.32348 10.0596 8.31408C10.3744 8.27834 10.6921 8.27834 11.0069 8.31408C11.1845 8.32348 11.3513 8.34766 11.5088 8.38393L10.4915 11.9446C10.336 11.9816 10.1775 12.005 10.0179 12.0144C9.71632 12.0321 9.41394 12.0321 9.11235 12.0144C8.96219 12.0036 8.81322 11.9802 8.66698 11.9446L9.58599 8.38393ZM16.4415 10.5544C15.8199 10.5544 15.2803 10.4389 14.8255 10.2065C14.3753 9.97872 13.9877 9.6444 13.6966 9.23277C13.3943 8.78293 13.173 8.28386 13.0427 7.75802C12.8981 7.14269 12.8277 6.51232 12.8328 5.88031C12.8328 5.20337 12.9068 4.5775 13.0561 4.00264C13.2042 3.42778 13.4275 2.93216 13.7249 2.51445C14.016 2.10282 14.4036 1.7685 14.8538 1.54067C15.318 1.30025 15.8657 1.17935 16.4981 1.17935C17.1197 1.17935 17.6593 1.30025 18.1141 1.54067C18.5643 1.7685 18.9519 2.10282 19.243 2.51445C19.5403 2.93216 19.7583 3.42778 19.8983 4.00264C20.0368 4.5775 20.1068 5.20337 20.1068 5.88031C20.1068 6.55725 20.0328 7.18316 19.8835 7.75802C19.7523 8.28612 19.5256 8.78588 19.2147 9.23277C18.9209 9.64704 18.5283 9.98171 18.0723 10.2065C17.6081 10.4389 17.0645 10.5544 16.4415 10.5544ZM16.4698 8.88489C16.9434 8.88489 17.3108 8.64448 17.5705 8.1623C17.8396 7.67071 17.9755 6.90915 17.9755 5.88031C17.9755 4.85147 17.8396 4.09531 17.5705 3.61312C17.3108 3.12154 16.9434 2.87573 16.4698 2.87573C15.9867 2.87573 15.606 3.12154 15.3274 3.61312C15.0583 4.09531 14.9238 4.85147 14.9238 5.88031C14.9238 6.90915 15.0624 7.67071 15.3409 8.1623C15.6194 8.64448 15.9962 8.88489 16.4698 8.88489ZM24.7974 10.5544C24.1757 10.5544 23.6362 10.4389 23.1814 10.2065C22.7309 9.97913 22.3432 9.64474 22.0525 9.23277C21.7502 8.78272 21.5285 8.28374 21.3972 7.75802C21.2538 7.14252 21.1838 6.51223 21.1886 5.88031C21.1886 5.20337 21.2626 4.5775 21.412 4.00264C21.56 3.42778 21.7834 2.93216 22.0807 2.51445C22.3781 2.09674 22.7535 1.77303 23.2083 1.54067C23.6739 1.30025 24.2215 1.17935 24.8539 1.17935C25.4755 1.17935 26.0151 1.30025 26.4699 1.54067C26.9201 1.7685 27.3077 2.10282 27.5988 2.51445C27.8962 2.93216 28.1142 3.42778 28.2528 4.00264C28.3927 4.5775 28.4627 5.20337 28.4627 5.88031C28.4627 6.55725 28.3886 7.18316 28.2393 7.75802C28.1081 8.28612 27.8815 8.78588 27.5706 9.23277C27.2767 9.64704 26.8841 9.98171 26.4282 10.2065C25.964 10.4389 25.4204 10.5544 24.7974 10.5544ZM24.8256 8.88489C25.2993 8.88489 25.6666 8.64448 25.9263 8.1623C26.1954 7.67071 26.33 6.90915 26.33 5.88031C26.33 4.85147 26.1954 4.09531 25.9263 3.61312C25.6666 3.12154 25.2993 2.87573 24.8256 2.87573C24.3426 2.87573 23.9618 3.12154 23.6833 3.61312C23.4128 4.09531 23.2783 4.85147 23.2783 5.88031C23.2783 6.90915 23.4182 7.67071 23.6967 8.1623C23.9753 8.64448 24.352 8.88489 24.8256 8.88489ZM33.1532 10.5544C32.5302 10.5544 31.992 10.4389 31.5359 10.2065C31.0858 9.97908 30.6986 9.64468 30.4083 9.23277C30.1055 8.78301 29.8838 8.28394 29.753 7.75802C29.6085 7.14269 29.538 6.51232 29.5431 5.88031C29.5431 5.20337 29.6185 4.5775 29.7665 4.00264C29.9158 3.42778 30.1379 2.93216 30.4352 2.51445C30.7263 2.10282 31.1139 1.7685 31.5641 1.54067C32.0284 1.30025 32.5773 1.17935 33.2084 1.17935C33.8314 1.17935 34.3696 1.30025 34.8244 1.54067C35.2805 1.77303 35.6559 2.09674 35.9533 2.51445C36.2507 2.93216 36.4687 3.42778 36.6086 4.00264C36.7485 4.5775 36.8171 5.20337 36.8171 5.88031C36.8171 6.55725 36.7431 7.18316 36.5951 7.75802C36.4634 8.28592 36.2368 8.78558 35.9264 9.23277C35.6324 9.6474 35.2392 9.98213 34.7827 10.2065C34.3185 10.4389 33.7749 10.5544 33.1532 10.5544ZM33.1801 8.88489C33.6551 8.88489 34.0211 8.64448 34.2821 8.1623C34.5512 7.67071 34.6858 6.90915 34.6858 5.88031C34.6858 4.85147 34.5512 4.09531 34.2821 3.61312C34.0211 3.12154 33.6551 2.87573 33.1801 2.87573C32.6971 2.87573 32.3163 3.12154 32.0378 3.61312C31.7687 4.09531 31.6341 4.85147 31.6341 5.88031C31.6341 6.90915 31.7727 7.67071 32.0526 8.1623C32.3311 8.64448 32.7065 8.88489 33.1801 8.88489ZM43.6781 5.35245L46.3961 0.385559C46.6087 0.349294 46.8038 0.326468 46.9814 0.317066C47.1481 0.307987 47.315 0.303079 47.482 0.30231C47.6407 0.30231 47.817 0.311707 48.0121 0.330511C48.2072 0.349314 48.4117 0.368098 48.6257 0.385559L45.8794 5.2128L48.8625 10.3879C48.6534 10.4051 48.4444 10.4234 48.2355 10.4429C48.0593 10.4607 47.8824 10.4701 47.7053 10.4711C47.5573 10.4711 47.3891 10.4658 47.2034 10.4564C47.0028 10.4442 46.8029 10.4213 46.6046 10.3879L43.6781 5.35245ZM41.3516 0.372156C41.5279 0.34395 41.7001 0.326468 41.867 0.317066C42.2009 0.298778 42.5355 0.298778 42.8694 0.317066C43.0376 0.326468 43.2085 0.34395 43.3861 0.372156V10.4013C43.2149 10.4284 43.0425 10.4468 42.8694 10.4564C42.5355 10.4752 42.2009 10.4752 41.867 10.4564C41.6944 10.4468 41.5224 10.4284 41.3516 10.4013V0.372156ZM51.3719 7.25701C50.8525 7.10927 50.4435 6.89169 50.1461 6.60426C49.8582 6.30743 49.7142 5.86687 49.7142 5.28261C49.7142 4.57746 49.9645 4.02548 50.4664 3.62657C50.9777 3.229 51.6693 3.02886 52.5426 3.02886C52.9045 3.02886 53.2624 3.0611 53.6163 3.12691C53.9688 3.19138 54.3267 3.2881 54.6887 3.41838C54.6699 3.66015 54.6241 3.90996 54.5488 4.16918C54.4748 4.42975 54.3873 4.65673 54.285 4.85149C54.0454 4.75336 53.7984 4.67433 53.5463 4.6151C53.2693 4.53931 52.9832 4.50179 52.6959 4.50361C52.3797 4.50361 52.1335 4.55467 51.9572 4.65675C51.781 4.74942 51.6922 4.90251 51.6922 5.11607C51.6922 5.31888 51.7527 5.46262 51.8738 5.54723C52.0043 5.63051 52.1846 5.7084 52.4174 5.78362L53.2113 6.02C53.471 6.09387 53.7038 6.18655 53.9083 6.29803C54.1222 6.40011 54.3025 6.52906 54.4519 6.68755C54.5999 6.8447 54.7169 7.03945 54.8004 7.27181C54.8838 7.50283 54.9255 7.78624 54.9255 8.11934C54.9255 8.46318 54.8515 8.78284 54.7021 9.07967C54.5566 9.38444 54.3419 9.65115 54.0751 9.85867C53.806 10.0722 53.4764 10.2441 53.0861 10.3731C52.6959 10.494 52.2546 10.5544 51.7621 10.5544C51.5388 10.5544 51.3356 10.545 51.1486 10.5262C50.9662 10.5174 50.7849 10.4941 50.6063 10.4564C50.437 10.429 50.2694 10.3918 50.1044 10.3449C49.9204 10.2936 49.739 10.2336 49.5608 10.1649C49.5797 9.91374 49.6214 9.66393 49.686 9.4141C49.76 9.15354 49.8528 8.90372 49.9645 8.66195C50.2713 8.78284 50.5592 8.87551 50.8283 8.93998C51.1069 8.9964 51.3948 9.02459 51.6922 9.02459C51.8227 9.02459 51.9626 9.01519 52.1106 8.99638C52.2681 8.96818 52.412 8.92656 52.5426 8.87149C52.6632 8.81335 52.7718 8.73313 52.8628 8.63507C52.9576 8.52789 53.0077 8.38852 53.0027 8.24559C53.0027 8.02263 52.9328 7.86545 52.7942 7.77278C52.6255 7.65181 52.4363 7.5622 52.2358 7.50819L51.3719 7.25701ZM56.3599 0.21902C56.5186 0.190814 56.6801 0.173374 56.8483 0.163972C57.1732 0.145701 57.4989 0.145701 57.8238 0.163972C57.9907 0.173374 58.1575 0.190814 58.3244 0.21902V4.04425C58.3903 3.96097 58.4737 3.86295 58.576 3.75281C58.6877 3.63193 58.8222 3.52046 58.9796 3.41838C59.1384 3.3069 59.3281 3.21423 59.5515 3.14035C59.7749 3.06648 60.0292 3.02886 60.3171 3.02886C61.1164 3.02886 61.7205 3.2518 62.1296 3.69637C62.5467 4.14229 62.7566 4.8421 62.7566 5.79706V10.4013C62.5904 10.4288 62.4229 10.4473 62.2547 10.4564C61.9298 10.4746 61.6041 10.4746 61.2792 10.4564C61.111 10.4473 60.9434 10.4289 60.7773 10.4013V6.32623C60.7773 5.82524 60.6979 5.43979 60.5405 5.17116C60.383 4.90253 60.1139 4.7682 59.7318 4.7682C59.5744 4.7682 59.4116 4.79106 59.2447 4.83673C59.0696 4.88842 58.911 4.98467 58.7845 5.11607C58.6359 5.27635 58.5223 5.46571 58.4508 5.67213C58.3576 5.97838 58.3149 6.29776 58.3244 6.61771V10.4013C58.1587 10.4289 57.9915 10.4473 57.8238 10.4564C57.4989 10.4745 57.1732 10.4745 56.8483 10.4564C56.6846 10.4468 56.5216 10.4284 56.3599 10.4013V0.21902Z" fill="#1E1F20"/>
</svg>
