<svg preserveAspectRatio="none" width="207" height="42" viewBox="0 0 207 42" fill="none" xmlns="http://www.w3.org/2000/svg">
<path vector-effect="non-scaling-stroke" d="M1.37735 5.39133C1.37735 3.43959 2.95961 1.85733 4.91135 1.85733V0.090332C1.9837 0.090332 -0.389648 2.46368 -0.389648 5.39133H1.37735ZM1.37735 37.1973V5.39133H-0.389648V37.1973H1.37735ZM4.91135 40.7313C2.95961 40.7313 1.37735 39.1491 1.37735 37.1973H-0.389648C-0.389648 40.125 1.9837 42.4983 4.91135 42.4983V40.7313ZM194.864 40.7313H4.91135V42.4983H194.864V40.7313ZM198.398 37.1973C198.398 39.1491 196.815 40.7313 194.864 40.7313V42.4983C197.792 42.4983 200.165 40.125 200.165 37.1973H198.398ZM198.398 28.3027V37.1973H200.165V28.3027H198.398ZM205.466 21.2943C205.466 24.222 203.093 26.5953 200.165 26.5953V28.3623C204.068 28.3623 207.233 25.1979 207.233 21.2943H205.466ZM200.165 15.9933C203.093 15.9933 205.466 18.3667 205.466 21.2943H207.233C207.233 17.3908 204.068 14.2263 200.165 14.2263V15.9933ZM198.398 5.39133V14.286H200.165V5.39133H198.398ZM194.864 1.85733C196.815 1.85733 198.398 3.43959 198.398 5.39133H200.165C200.165 2.46368 197.792 0.090332 194.864 0.090332V1.85733ZM4.91135 1.85733H194.864V0.090332H4.91135V1.85733ZM200.165 14.2263C200.159 14.2263 200.154 14.2254 200.149 14.2233C200.144 14.2211 200.141 14.2189 200.142 14.2193C200.142 14.2199 200.148 14.2254 200.154 14.2384C200.16 14.2527 200.165 14.27 200.165 14.286H198.398C198.398 15.3199 199.291 15.9933 200.165 15.9933V14.2263ZM200.165 28.3027C200.165 28.3187 200.16 28.336 200.154 28.3502C200.148 28.3632 200.142 28.3688 200.142 28.3694C200.141 28.3697 200.144 28.3675 200.149 28.3653C200.154 28.3633 200.159 28.3623 200.165 28.3623V26.5953C199.291 26.5953 198.398 27.2687 198.398 28.3027H200.165Z" fill="#E1E4E8"/>
</svg>
