<svg preserveAspectRatio="none" width="23" height="5" viewBox="0 0 23 5" fill="none" xmlns="http://www.w3.org/2000/svg">
<path vector-effect="non-scaling-stroke" fill-rule="evenodd" clip-rule="evenodd" d="M1.76457 0.943848C1.2231 0.943848 0.78418 1.38277 0.78418 1.92424V3.88502C0.78418 4.42649 1.2231 4.86542 1.76457 4.86542H3.72536C4.26683 4.86542 4.70575 4.42649 4.70575 3.88502V1.92424C4.70575 1.38277 4.26683 0.943848 3.72536 0.943848H1.76457ZM8.62732 1.92424C8.08585 1.92424 7.64693 2.36316 7.64693 2.90463C7.64693 3.4461 8.08585 3.88502 8.62732 3.88502H21.3724C21.9139 3.88502 22.3528 3.4461 22.3528 2.90463C22.3528 2.36316 21.9139 1.92424 21.3724 1.92424H8.62732Z" fill="white"/>
</svg>
