<svg preserveAspectRatio="none" width="216" height="84" viewBox="0 0 216 84" fill="none" xmlns="http://www.w3.org/2000/svg">
<path vector-effect="non-scaling-stroke" d="M9.20385 4.60471C9.20385 2.65293 10.7862 1.07071 12.7378 1.07071V-0.696289C9.80993 -0.696289 7.43685 1.67705 7.43685 4.60471H9.20385ZM9.20385 20.5077V4.60471H7.43685V20.5077H9.20385ZM9.20385 22.2747V20.5077H7.43685V22.2747H9.20385ZM9.20385 29.5741V22.2747H7.43685V29.5741H9.20385ZM1.25235 37.2942C1.25235 34.3665 3.62543 31.9932 6.55335 31.9932V30.2262C2.65005 30.2262 -0.514648 33.3906 -0.514648 37.2942H1.25235ZM6.55335 42.5952C3.62543 42.5952 1.25235 40.2218 1.25235 37.2942H-0.514648C-0.514648 41.1978 2.65005 44.3622 6.55335 44.3622V42.5952ZM9.20385 78.8187V45.0143H7.43685V78.8187H9.20385ZM12.7378 82.3527C10.7862 82.3527 9.20385 80.7704 9.20385 78.8187H7.43685C7.43685 81.7463 9.80993 84.1197 12.7378 84.1197V82.3527ZM203.574 82.3527H12.7378V84.1197H203.574V82.3527ZM207.108 78.8187C207.108 80.7704 205.525 82.3527 203.574 82.3527V84.1197C206.502 84.1197 208.875 81.7463 208.875 78.8187H207.108ZM207.108 44.3025V78.8187H208.875V44.3025H207.108ZM214.176 37.2942C214.176 40.2218 211.803 42.5952 208.875 42.5952V44.3622C212.778 44.3622 215.943 41.1978 215.943 37.2942H214.176ZM208.875 31.9932C211.803 31.9932 214.176 34.3665 214.176 37.2942H215.943C215.943 33.3906 212.778 30.2262 208.875 30.2262V31.9932ZM207.108 20.5077V30.2858H208.875V20.5077H207.108ZM203.574 16.9737C205.525 16.9737 207.108 18.556 207.108 20.5077H208.875C208.875 17.58 206.502 15.2067 203.574 15.2067V16.9737ZM72.8158 16.9737H203.574V15.2067H72.8158V16.9737ZM67.5148 4.60471V11.6727H69.2818V4.60471H67.5148ZM63.9808 1.07071C65.9325 1.07071 67.5148 2.65293 67.5148 4.60471H69.2818C69.2818 1.67705 66.9087 -0.696289 63.9808 -0.696289V1.07071ZM12.7378 1.07071H63.9808V-0.696289H12.7378V1.07071ZM72.8158 15.2067C70.8642 15.2067 69.2818 13.6245 69.2818 11.6727H67.5148C67.5148 14.6003 69.8879 16.9737 72.8158 16.9737V15.2067ZM208.875 30.2262C208.869 30.2262 208.864 30.2252 208.859 30.2232C208.854 30.221 208.851 30.2188 208.852 30.2192C208.852 30.2197 208.858 30.2253 208.864 30.2383C208.87 30.2526 208.875 30.2698 208.875 30.2858H207.108C207.108 31.3198 208.001 31.9932 208.875 31.9932V30.2262ZM208.875 44.3025C208.875 44.3185 208.87 44.3359 208.864 44.3501C208.858 44.3631 208.852 44.3686 208.852 44.3692C208.851 44.3696 208.854 44.3674 208.859 44.3652C208.864 44.3632 208.869 44.3622 208.875 44.3622V42.5952C208.001 42.5952 207.108 43.2686 207.108 44.3025H208.875ZM6.55335 44.3622C6.79719 44.3622 7.04017 44.4527 7.2098 44.593C7.37325 44.7278 7.43685 44.8756 7.43685 45.0143H9.20385C9.20385 43.4809 7.76816 42.5952 6.55335 42.5952V44.3622ZM7.43685 29.5741C7.43685 29.7128 7.37325 29.8607 7.2098 29.9955C7.04017 30.1357 6.79719 30.2262 6.55335 30.2262V31.9932C7.76816 31.9932 9.20385 31.1075 9.20385 29.5741H7.43685Z" fill="#E1E4E8"/>
</svg>
