<svg preserveAspectRatio="none" width="5" height="6" viewBox="0 0 5 6" fill="none" xmlns="http://www.w3.org/2000/svg">
<path vector-effect="non-scaling-stroke" d="M3.68507 4.86135L1.00007 5.90235L0.977072 5.91135C0.940072 5.92535 0.895077 5.93235 0.857077 5.91535C0.757077 5.89035 0.704071 5.77835 0.742071 5.68435L2.23108 1.00235L2.23607 0.989348C2.27107 0.886348 2.36408 0.84035 2.46708 0.87435C2.50308 0.88735 2.53008 0.914347 2.55408 0.936347C2.55908 0.950347 2.57207 0.955349 2.57407 0.960349L2.58307 0.983352L3.89808 4.38335L4.23008 4.25535C4.33108 4.21735 4.44007 4.26535 4.47507 4.35735C4.51007 4.44935 4.46207 4.55735 4.36507 4.59435L4.03407 4.72235L4.36107 5.57435C4.39607 5.66635 4.34807 5.77435 4.25107 5.81135C4.15907 5.84735 4.05107 5.79835 4.01507 5.70635L3.68808 4.85435L3.68507 4.86135ZM3.55507 4.52035L2.43007 1.61835L1.21007 5.43135L3.55807 4.52935L3.55507 4.52035Z" fill="#F8F8F8"/>
</svg>
