<svg preserveAspectRatio="none" width="32" height="34" viewBox="0 0 32 34" fill="none" xmlns="http://www.w3.org/2000/svg">
<path vector-effect="non-scaling-stroke" d="M1 13.2969H0.5V13.7969H1V13.2969ZM7.9041 14.3547L7.5432 14.7009L7.6653 14.8281L7.8401 14.8506L7.9041 14.3547ZM10.6076 27.2969L10.3495 26.8686L8.809 27.7969H10.6076V27.2969ZM1.5 5.29688C1.5 3.36388 3.067 1.79688 5 1.79688V0.796875C2.5147 0.796875 0.5 2.81159 0.5 5.29688H1.5ZM1.5 13.2969V5.29688H0.5V13.2969H1.5ZM5.3902 12.7969H1V13.7969H5.3902V12.7969ZM8.2649 14.0086C7.5606 13.2745 6.5642 12.7969 5.3902 12.7969V13.7969C6.2798 13.7969 7.0191 14.1545 7.5432 14.7009L8.2649 14.0086ZM7.8401 14.8506C11.0329 15.2623 13.5 17.9919 13.5 21.2969H14.5C14.5 17.4826 11.6531 14.334 7.968 13.8588L7.8401 14.8506ZM13.5 21.2969C13.5 23.6608 12.2385 25.7304 10.3495 26.8686L10.8656 27.7252C13.0424 26.4136 14.5 24.0257 14.5 21.2969H13.5ZM15.8214 26.7969H10.6076V27.7969H15.8214V26.7969ZM18.241 27.6117C17.5451 27.0831 16.6953 26.7969 15.8214 26.7969V27.7969C16.4768 27.7969 17.1142 28.0115 17.6361 28.408L18.241 27.6117ZM24.8982 32.6689L18.241 27.6117L17.6361 28.408L24.2933 33.4652L24.8982 32.6689ZM25.5 32.3702C25.5 32.6803 25.1451 32.8564 24.8982 32.6689L24.2933 33.4652C25.1987 34.1529 26.5 33.5072 26.5 32.3702H25.5ZM25.5 28.1719V32.3702H26.5V28.1719H25.5ZM26.875 26.7969C26.1156 26.7969 25.5 27.4125 25.5 28.1719H26.5C26.5 27.9648 26.6679 27.7969 26.875 27.7969V26.7969ZM27 26.7969H26.875V27.7969H27V26.7969ZM30.5 23.2969C30.5 25.2299 28.933 26.7969 27 26.7969V27.7969C29.4853 27.7969 31.5 25.7822 31.5 23.2969H30.5ZM30.5 5.29688V23.2969H31.5V5.29688H30.5ZM27 1.79688C28.933 1.79688 30.5 3.36388 30.5 5.29688H31.5C31.5 2.81159 29.4853 0.796875 27 0.796875V1.79688ZM5 1.79688H27V0.796875H5V1.79688Z" fill="url(#paint0_linear_1_1932)"/>
<defs>
<linearGradient vector-effect="non-scaling-stroke" id="paint0_linear_1_1932" x1="3.5" y1="1.29688" x2="26" y2="31.7969" gradientUnits="userSpaceOnUse">
<stop stop-color="#77D4E4"/>
<stop offset="1" stop-color="white"/>
</linearGradient>
</defs>
</svg>
