<svg preserveAspectRatio="none" width="20" height="19" viewBox="0 0 20 19" fill="none" xmlns="http://www.w3.org/2000/svg">
<path vector-effect="non-scaling-stroke" d="M12.2998 18.1651C11 17.6359 10.8076 16.873 10.8076 16.4674V10.8075C10.8076 10.4018 11.0027 9.64027 12.2998 9.10974C13.1917 8.77667 14.1383 8.61402 15.0905 8.63025C16.0421 8.61416 16.9883 8.77681 17.8798 9.10974C19.1782 9.64027 19.3733 10.4018 19.3733 10.8075V16.4674C19.3733 16.8744 19.1782 17.6359 17.8798 18.1651C16.9881 18.497 16.042 18.6592 15.0905 18.6433C14.1385 18.6593 13.1919 18.4971 12.2998 18.1651ZM12.2594 16.4446C12.3778 16.6675 13.3547 17.1927 15.0905 17.1927C16.8262 17.1927 17.8004 16.6689 17.9215 16.4446V10.8303C17.8004 10.6073 16.8235 10.0808 15.0905 10.0808C14.0952 9.98038 13.0966 10.2375 12.2742 10.8061C13.0962 11.3756 14.095 11.6333 15.0905 11.5327C15.3031 11.5327 15.5143 11.5233 15.7215 11.5072C15.8649 11.4946 16.0087 11.5252 16.1344 11.5952C16.2601 11.6651 16.3619 11.7711 16.4266 11.8994C16.491 12.0277 16.5165 12.1719 16.4997 12.3144C16.483 12.4569 16.4248 12.5914 16.3324 12.7013C16.2074 12.8478 16.0294 12.939 15.8372 12.9551C15.5902 12.9751 15.3424 12.985 15.0945 12.9847C14.1425 12.9994 13.1961 12.8368 12.3038 12.5052C12.2917 12.4971 12.2783 12.4918 12.2648 12.4864V13.577C12.3819 13.7986 13.3587 14.3251 15.0945 14.3251C15.3071 14.3251 15.5183 14.3184 15.7269 14.3023C15.822 14.2939 15.9178 14.3047 16.0086 14.334C16.0995 14.3633 16.1835 14.4105 16.2557 14.4729C16.3284 14.5345 16.3881 14.6099 16.4313 14.6947C16.4745 14.7796 16.5003 14.8722 16.5073 14.9671C16.5151 15.0621 16.5039 15.1577 16.4746 15.2484C16.4453 15.3391 16.3984 15.4232 16.3366 15.4958C16.2747 15.5684 16.1991 15.6281 16.1142 15.6715C16.0292 15.7149 15.9365 15.7412 15.8413 15.7488C15.5946 15.7684 15.3473 15.7778 15.0999 15.777C14.1477 15.7933 13.2011 15.6306 12.3092 15.2975L12.2688 15.2801L12.2594 16.4446ZM8.7812 16.7817C6.63368 16.6934 4.60431 15.7766 3.12048 14.2244C1.62275 12.6718 0.78808 10.5989 0.792694 8.44354C0.789707 7.34782 1.00422 6.26236 1.42385 5.24986C1.84348 4.23735 2.45992 3.31787 3.23755 2.54451C4.0106 1.76637 4.93091 1.14941 5.94499 0.729517C6.95906 0.309628 8.04665 0.0951918 9.1445 0.0986746C11.0593 0.100413 12.9154 0.758023 14.4029 1.96161C15.8635 3.14864 16.8815 4.79166 17.2931 6.62629C17.3336 6.81398 17.2994 7.01004 17.1976 7.17294C17.1199 7.29337 17.0084 7.38827 16.877 7.44574C16.7456 7.50322 16.6001 7.52072 16.4588 7.49606C16.3174 7.4714 16.1865 7.40566 16.0825 7.3071C15.9784 7.20853 15.9057 7.08151 15.8736 6.94193C15.5271 5.41579 14.6723 4.05209 13.4489 3.0737C12.2275 2.09451 10.7097 1.55758 9.14315 1.55059C7.31465 1.55276 5.5618 2.27933 4.26959 3.57068C2.99433 4.84616 2.26887 6.56859 2.248 8.3705C2.22714 10.1724 2.91251 11.9111 4.15789 13.2157C5.38774 14.5001 7.06866 15.2584 8.84712 15.3311C8.94233 15.3347 9.03589 15.3572 9.12237 15.3971C9.20885 15.437 9.28653 15.4936 9.35096 15.5637C9.4154 15.6337 9.46528 15.7158 9.49774 15.8052C9.5302 15.8947 9.54459 15.9896 9.54008 16.0846C9.53413 16.2718 9.45534 16.4493 9.32043 16.5794C9.18553 16.7096 9.00513 16.7822 8.81752 16.7817H8.7812ZM6.06588 11.5126C5.998 11.4455 5.94423 11.3656 5.90772 11.2775C5.87122 11.1894 5.85272 11.0949 5.8533 10.9995C5.85319 10.9044 5.87192 10.8103 5.9084 10.7225C5.94489 10.6347 5.9984 10.5549 6.06588 10.4878L8.41116 8.14403V3.73185C8.41116 3.53966 8.48765 3.35535 8.62378 3.21946C8.75992 3.08357 8.94456 3.00722 9.13709 3.00722C9.32961 3.00722 9.51426 3.08357 9.65039 3.21946C9.78653 3.35535 9.86302 3.53966 9.86302 3.73185V8.44221C9.86246 8.63553 9.7856 8.82085 9.64908 8.95798L7.0912 11.5126C7.02488 11.5812 6.94516 11.6356 6.85699 11.6723C6.76883 11.7091 6.67406 11.7274 6.57853 11.7262C6.48398 11.7261 6.3904 11.7072 6.30328 11.6705C6.21617 11.6339 6.13728 11.5802 6.07126 11.5126H6.06588Z" fill="white"/>
</svg>
