<svg preserveAspectRatio="none" width="69" height="11" viewBox="0 0 69 11" fill="none" xmlns="http://www.w3.org/2000/svg">
<path vector-effect="non-scaling-stroke" d="M0.428162 0.368522C0.955729 0.282758 1.49372 0.282758 2.02129 0.368522V8.14657C1.75967 8.18895 1.49515 8.21096 1.23011 8.2124C0.962344 8.2124 0.69458 8.18955 0.428162 8.14657V0.368522ZM4.62357 5.71282C4.21856 5.59731 3.90101 5.42808 3.66958 5.20378C3.44622 4.97276 3.33319 4.63026 3.33319 4.17629C3.33319 3.62829 3.5283 3.1985 3.91851 2.88958C4.31679 2.57931 4.85501 2.42351 5.53316 2.42351C5.81573 2.42351 6.09426 2.44902 6.36875 2.50006C6.64324 2.54975 6.92042 2.62632 7.20298 2.72705C7.18611 2.92493 7.14961 3.12064 7.094 3.31131C7.03614 3.51278 6.96752 3.69007 6.88813 3.8405C6.70152 3.76483 6.50946 3.70333 6.31358 3.6565C6.09814 3.59878 5.87597 3.56985 5.65291 3.57053C5.40668 3.57053 5.21562 3.61083 5.07837 3.69007C4.94112 3.76126 4.8725 3.8808 4.8725 4.046C4.8725 4.20583 4.91959 4.31731 5.01378 4.38178C5.11469 4.44625 5.25598 4.50805 5.43628 4.56581L6.05389 4.74981C6.25572 4.80756 6.43737 4.88008 6.59614 4.96604C6.75774 5.03778 6.90271 5.14211 7.02197 5.27248C7.14122 5.40284 7.23217 5.55644 7.2891 5.72358C7.35503 5.90356 7.38732 6.12383 7.38732 6.38306C7.38732 6.65034 7.32947 6.89882 7.21375 7.12984C7.10037 7.36694 6.93313 7.57434 6.72532 7.73557C6.49487 7.91319 6.23476 8.0487 5.95701 8.13583C5.65292 8.22985 5.30981 8.27686 4.92633 8.27686C4.75275 8.27686 4.59397 8.26881 4.45 8.25538C4.30794 8.24805 4.16668 8.22963 4.0275 8.20031C3.89594 8.17886 3.76567 8.15017 3.63729 8.11435C3.49431 8.07402 3.35331 8.02694 3.21479 7.97331C3.22824 7.77856 3.26188 7.58381 3.31166 7.38905C3.36916 7.18917 3.44157 6.99387 3.5283 6.80479C3.76646 6.89881 3.99117 6.97135 4.20107 7.02238C4.41771 7.06536 4.64107 7.08686 4.8725 7.08686C4.97342 7.08686 5.0824 7.07879 5.19812 7.06536C5.32056 7.04387 5.43225 7.0103 5.53316 6.96732C5.62767 6.92262 5.71264 6.86013 5.78343 6.7833C5.85655 6.69991 5.89505 6.59184 5.89108 6.4811C5.89108 6.30784 5.83726 6.18561 5.72827 6.11308C5.59739 6.01916 5.45061 5.94954 5.295 5.90758L4.62357 5.71282ZM9.36528 5.71282C8.96027 5.59731 8.64272 5.42808 8.41128 5.20378C8.18658 4.97276 8.0749 4.63026 8.0749 4.17629C8.0749 3.62829 8.27 3.1985 8.66021 2.88958C9.05849 2.57931 9.59671 2.42351 10.2749 2.42351C10.5574 2.42351 10.836 2.44902 11.1105 2.50006C11.3849 2.54975 11.6621 2.62632 11.9447 2.72705C11.9278 2.92493 11.8913 3.12064 11.8357 3.31131C11.7778 3.51278 11.7092 3.69007 11.6298 3.8405C11.4432 3.76483 11.2512 3.70333 11.0553 3.6565C10.8399 3.59878 10.6177 3.56985 10.3946 3.57053C10.1484 3.57053 9.95731 3.61083 9.82007 3.69007C9.68282 3.76126 9.6142 3.8808 9.6142 4.046C9.6142 4.20583 9.6613 4.31731 9.75549 4.38178C9.8564 4.44625 9.99769 4.50805 10.178 4.56581L10.7956 4.74981C10.9974 4.80756 11.1791 4.88008 11.3379 4.96604C11.4994 5.03778 11.6444 5.14211 11.7637 5.27248C11.8829 5.40284 11.9739 5.55644 12.0308 5.72358C12.0967 5.90356 12.129 6.12383 12.129 6.38306C12.129 6.65034 12.0712 6.89882 11.9555 7.12984C11.8416 7.36665 11.6745 7.57396 11.467 7.73557C11.2366 7.91319 10.9765 8.0487 10.6987 8.13583C10.3946 8.22985 10.0515 8.27686 9.66802 8.27686C9.49445 8.27686 9.33568 8.26881 9.1917 8.25538C9.04964 8.24814 8.90836 8.22972 8.7692 8.20031C8.63764 8.17886 8.50737 8.15017 8.37899 8.11435C8.23601 8.07402 8.09502 8.02694 7.95649 7.97331C7.96995 7.77856 8.00359 7.58381 8.05337 7.38905C8.11086 7.18917 8.18328 6.99387 8.27001 6.80479C8.50817 6.89881 8.73288 6.97135 8.94278 7.02238C9.15941 7.06536 9.38276 7.08686 9.6142 7.08686C9.71511 7.08686 9.82411 7.07879 9.93983 7.06536C10.0623 7.04387 10.174 7.0103 10.2749 6.96732C10.3694 6.92262 10.4543 6.86013 10.5251 6.7833C10.5983 6.69991 10.6368 6.59184 10.6328 6.4811C10.6328 6.30784 10.579 6.18561 10.47 6.11308C10.3391 6.01916 10.1923 5.94954 10.0367 5.90758L9.36528 5.71282ZM13.1691 2.55379C13.6783 2.46957 14.1979 2.46957 14.7071 2.55379V5.51808C14.7071 5.81357 14.73 6.05935 14.773 6.25411C14.8123 6.419 14.8862 6.57371 14.9897 6.70808C15.0906 6.81553 15.213 6.89612 15.3583 6.94582C15.5023 6.9888 15.6719 7.01029 15.867 7.01029C16.1347 7.01029 16.3581 6.98612 16.5397 6.93508V2.55379C17.0453 2.46953 17.5614 2.46953 18.0669 2.55379V7.93033C17.8368 8.00958 17.5287 8.08615 17.1466 8.15733C16.758 8.23812 16.3621 8.27817 15.9652 8.27686C15.5965 8.27686 15.2426 8.24732 14.9022 8.18957C14.5783 8.1381 14.2707 8.0126 14.0034 7.82288C13.7304 7.60809 13.5207 7.32361 13.3965 6.99955C13.2445 6.63959 13.1691 6.1601 13.1691 5.56106V2.55379ZM20.6934 5.82028C20.7217 6.25411 20.8737 6.56706 21.1482 6.76182C21.4227 6.95657 21.7847 7.05462 22.2327 7.05462C22.4776 7.05462 22.7266 7.03312 22.9795 6.98879C23.2406 6.9391 23.4854 6.8706 23.7169 6.7833C23.9057 7.14474 24.0097 7.54434 24.021 7.95183C23.4104 8.17643 22.7636 8.28661 22.113 8.27686C21.6555 8.28716 21.1999 8.21388 20.7688 8.06062C20.425 7.93227 20.1143 7.72901 19.8592 7.46562C19.6237 7.1982 19.4464 6.88491 19.3385 6.54558C19.2265 6.16996 19.1716 5.77968 19.1757 5.3878C19.1757 4.9768 19.2335 4.59132 19.3492 4.23002C19.4649 3.87006 19.6345 3.55575 19.8592 3.28981C20.0915 3.02124 20.3799 2.80668 20.7042 2.66123C21.0433 2.50274 21.4375 2.42351 21.8856 2.42351C22.2758 2.42351 22.6229 2.49201 22.9257 2.62901C23.2236 2.76318 23.4896 2.95882 23.7062 3.20306C23.9228 3.4473 24.0851 3.73459 24.1824 4.046C24.2914 4.37104 24.3452 4.72159 24.3452 5.09633C24.3452 5.23333 24.3385 5.37033 24.3237 5.50732C24.3196 5.61222 24.3088 5.71675 24.2914 5.82028H20.6934ZM22.8934 4.74981C22.8786 4.40328 22.7817 4.1266 22.6001 3.91707C22.4278 3.70083 22.1816 3.59203 21.8641 3.59203C21.5021 3.59203 21.2276 3.69276 21.0406 3.89557C20.8522 4.09704 20.7405 4.38179 20.7042 4.74981H22.8934ZM27.9352 0.368522H32.358C32.4446 0.811602 32.4446 1.26722 32.358 1.7103H29.5175V3.39727H31.7727C31.8568 3.8442 31.8568 4.30287 31.7727 4.74981H29.5175V6.80479H32.4333C32.5228 7.2476 32.5228 7.70377 32.4333 8.14657H27.9352V0.368522ZM34.3763 5.25885L33.3039 2.55379C33.5421 2.51081 33.8058 2.48932 34.0951 2.48932C34.3696 2.48932 34.6467 2.51081 34.9293 2.55379L35.7851 5.29109L34.6696 8.14657C34.1494 8.23426 33.6182 8.23426 33.098 8.14657L34.3763 5.25885ZM35.8618 5.29109L36.7283 2.55379C37.2668 2.46942 37.8152 2.46942 38.3537 2.55379L37.2706 5.25885L38.5596 8.14657C38.0394 8.23426 37.5082 8.23426 36.988 8.14657L35.8618 5.29109ZM39.4503 2.54303C39.5513 2.52154 39.6495 2.50677 39.7437 2.50006C39.8446 2.492 39.9563 2.48932 40.0787 2.48932C40.2819 2.48932 40.4877 2.51081 40.6963 2.55379C40.7192 2.59006 40.7367 2.64377 40.7515 2.7163C40.773 2.78077 40.7905 2.85331 40.8053 2.93255C40.8268 3.01034 40.8412 3.08991 40.8484 3.17029C40.8632 3.24282 40.8739 3.30325 40.8807 3.35429C40.9466 3.23878 41.026 3.1273 41.1202 3.01851C41.213 2.903 41.326 2.80226 41.4552 2.7163C41.5969 2.62696 41.7505 2.5578 41.9113 2.5108C42.0768 2.45304 42.2612 2.42351 42.463 2.42351C42.7738 2.42351 43.0631 2.48126 43.3309 2.59677C43.6054 2.71228 43.8435 2.88956 44.0454 3.12729C44.2485 3.35831 44.4033 3.64978 44.5123 4.00302C44.628 4.35627 44.6859 4.77532 44.6859 5.25885C44.6859 5.7276 44.6172 6.14935 44.48 6.52408C44.3428 6.8921 44.1436 7.20505 43.8839 7.46562C43.6229 7.72484 43.3053 7.9263 42.9299 8.07136C42.4014 8.25585 41.8379 8.31877 41.2816 8.25538C41.1838 8.24931 41.0864 8.23855 40.9896 8.22314V10.7106C40.8568 10.7319 40.723 10.7462 40.5887 10.7536C40.3395 10.7688 40.0897 10.7688 39.8405 10.7536C39.7098 10.7458 39.5796 10.7314 39.4503 10.7106V2.54303ZM40.9896 6.95658C41.1847 7.01433 41.4081 7.04386 41.6611 7.04386C42.1091 7.04386 42.4522 6.89881 42.6918 6.61003C42.9299 6.3226 43.0483 5.88609 43.0483 5.30183C43.0483 5.07752 43.0308 4.87202 42.9945 4.68533C42.9656 4.50897 42.903 4.3398 42.8102 4.18702C42.7265 4.05307 42.6109 3.94187 42.4738 3.86333C42.326 3.77843 42.1571 3.73699 41.9867 3.74379C41.8249 3.73954 41.6647 3.77653 41.5211 3.85124C41.3971 3.9175 41.2923 4.01468 41.217 4.13331C41.1337 4.25813 41.0748 4.39759 41.0435 4.54431C41.0071 4.7028 40.9896 4.87203 40.9896 5.05335V6.95658ZM47.1105 5.82028C47.1401 6.25411 47.2922 6.56706 47.5667 6.76182C47.8412 6.95657 48.2018 7.05462 48.6498 7.05462C48.8961 7.05462 49.145 7.03312 49.398 6.98879C49.6577 6.9391 49.9039 6.8706 50.1353 6.7833C50.3259 7.14402 50.4295 7.54413 50.4381 7.95183C49.828 8.17642 49.1816 8.2866 48.5314 8.27686C48.0739 8.28716 47.6183 8.21388 47.1872 8.06062C46.8431 7.93228 46.5319 7.72903 46.2763 7.46562C46.0408 7.19844 45.8639 6.88505 45.7569 6.54558C45.6449 6.16996 45.59 5.77968 45.5941 5.3878C45.5941 4.9768 45.652 4.59132 45.7677 4.23002C45.8834 3.87006 46.0529 3.55575 46.2763 3.28981C46.5077 3.02253 46.789 2.813 47.1213 2.66123C47.4617 2.50274 47.856 2.42351 48.3027 2.42351C48.6929 2.42351 49.04 2.49201 49.3441 2.62901C49.642 2.76318 49.908 2.95882 50.1246 3.20306C50.3413 3.4473 50.5036 3.73459 50.6009 4.046C50.7099 4.37104 50.7637 4.72159 50.7637 5.09633C50.7637 5.23333 50.757 5.37033 50.7422 5.50732C50.7367 5.61212 50.7259 5.71657 50.7099 5.82028H47.1105ZM49.3118 4.74981C49.297 4.40328 49.1988 4.1266 49.0185 3.91707C48.8449 3.70083 48.6001 3.59203 48.2812 3.59203C47.9206 3.59203 47.6461 3.69276 47.4577 3.89557C47.2707 4.09704 47.1576 4.38179 47.1213 4.74981H49.3118ZM51.972 2.55379C52.0729 2.5323 52.1752 2.51751 52.2761 2.5108C52.377 2.49602 52.4887 2.48932 52.6111 2.48932C52.7349 2.48932 52.8426 2.49602 52.9367 2.5108C53.0309 2.51751 53.1278 2.5323 53.2301 2.55379C53.2565 2.60478 53.2747 2.65962 53.2839 2.7163C53.3054 2.78077 53.3229 2.85331 53.3377 2.93255C53.3525 3.00374 53.3633 3.07626 53.37 3.14879C53.3848 3.22132 53.3956 3.28175 53.4023 3.33279C53.475 3.224 53.5624 3.11656 53.6633 3.00777C53.7643 2.90032 53.88 2.80226 54.0092 2.7163C54.1477 2.62899 54.2984 2.56049 54.4653 2.5108C54.6434 2.45081 54.8304 2.42131 55.0183 2.42351C55.6534 2.42351 56.1311 2.59677 56.4486 2.94329C56.7729 3.28982 56.9357 3.83379 56.9357 4.57654V8.14657C56.6814 8.18952 56.424 8.21155 56.1661 8.2124C55.9131 8.2124 55.6574 8.18955 55.3964 8.14657V4.98754C55.3964 4.59803 55.3359 4.29852 55.2134 4.09033C55.0977 3.8808 54.8918 3.77603 54.5945 3.77603C54.472 3.77603 54.3455 3.7935 54.2164 3.82976C54.0802 3.86949 53.9568 3.94403 53.8584 4.046C53.744 4.17045 53.6586 4.31859 53.6082 4.47983C53.5364 4.71791 53.5037 4.96601 53.5113 5.21452V8.14657C53.257 8.18952 52.9996 8.21155 52.7417 8.2124C52.4887 8.2124 52.2317 8.18955 51.972 8.14657V2.55379ZM59.4169 5.71282C59.0119 5.59731 58.6943 5.42808 58.4629 5.20378C58.2396 4.97276 58.1279 4.63026 58.1279 4.17629C58.1279 3.62829 58.323 3.1985 58.7132 2.88958C59.1101 2.57931 59.6483 2.42351 60.3278 2.42351C60.6091 2.42351 60.8876 2.44902 61.1621 2.50006C61.4459 2.55268 61.725 2.62861 61.9963 2.72705C61.9799 2.92489 61.9439 3.1206 61.8887 3.31131C61.8308 3.51278 61.7622 3.69007 61.6828 3.8405C61.4961 3.76502 61.3041 3.70353 61.1082 3.6565C60.8923 3.59886 60.6697 3.56994 60.4462 3.57053C60.2476 3.56043 60.0497 3.6016 59.8717 3.69007C59.7344 3.76126 59.6658 3.8808 59.6658 4.046C59.6658 4.20583 59.7129 4.31731 59.8071 4.38178C59.908 4.44625 60.0493 4.50805 60.2296 4.56581L60.8472 4.74981C61.0504 4.80756 61.2307 4.88008 61.3895 4.96604C61.5506 5.03878 61.6952 5.14345 61.8145 5.27367C61.9339 5.40388 62.0255 5.55696 62.0838 5.72358C62.1484 5.90356 62.1807 6.12383 62.1807 6.38306C62.1807 6.65034 62.1228 6.89882 62.0071 7.12984C61.8994 7.36086 61.7366 7.56231 61.52 7.73557C61.2889 7.91292 61.0284 8.0484 60.7503 8.13583C60.4462 8.22985 60.1031 8.27686 59.721 8.27686C59.5474 8.27686 59.3887 8.26881 59.2433 8.25538C59.1013 8.24805 58.96 8.22963 58.8208 8.20031C58.6893 8.17872 58.559 8.15003 58.4306 8.11435C58.2877 8.07382 58.1467 8.02674 58.0081 7.97331C58.0229 7.77856 58.0552 7.58381 58.105 7.38905C58.1628 7.18758 58.2355 6.99283 58.323 6.80479C58.5611 6.89881 58.7845 6.97135 58.9944 7.02238C59.211 7.06536 59.4357 7.08686 59.6658 7.08686C59.7681 7.08686 59.8757 7.07879 59.9915 7.06536C60.1139 7.04387 60.2269 7.0103 60.3278 6.96732C60.422 6.92262 60.5065 6.86012 60.5768 6.7833C60.6509 6.7004 60.6899 6.59211 60.6857 6.4811C60.6857 6.30784 60.6306 6.18561 60.5229 6.11308C60.3919 6.01941 60.2452 5.94982 60.0897 5.90758L59.4169 5.71282ZM64.5434 5.82028C64.5717 6.25411 64.7237 6.56706 64.9982 6.76182C65.2727 6.95657 65.6347 7.05462 66.0827 7.05462C66.3276 7.05462 66.5766 7.03312 66.8295 6.98879C67.0906 6.9391 67.3354 6.8706 67.5669 6.7833C67.7557 7.14474 67.8597 7.54434 67.871 7.95183C67.2604 8.17643 66.6136 8.28661 65.963 8.27686C65.5054 8.28716 65.0499 8.21388 64.6188 8.06062C64.275 7.93227 63.9643 7.72901 63.7092 7.46562C63.4737 7.1982 63.2964 6.88491 63.1885 6.54558C63.0765 6.16996 63.0216 5.77968 63.0256 5.3878C63.0256 4.9768 63.0835 4.59132 63.1992 4.23002C63.3149 3.87006 63.4845 3.55575 63.7092 3.28981C63.9415 3.02124 64.2299 2.80668 64.5542 2.66123C64.8933 2.50274 65.2875 2.42351 65.7356 2.42351C66.1258 2.42351 66.4716 2.49201 66.7757 2.62901C67.0736 2.76318 67.3396 2.95882 67.5562 3.20306C67.7728 3.4473 67.9351 3.73459 68.0324 4.046C68.1414 4.37104 68.1952 4.72159 68.1952 5.09633C68.1952 5.23333 68.1885 5.37033 68.1737 5.50732C68.1696 5.61222 68.1588 5.71675 68.1414 5.82028H64.5434ZM66.7434 4.74981C66.7286 4.40328 66.6317 4.1266 66.4501 3.91707C66.2765 3.70083 66.0316 3.59203 65.714 3.59203C65.3521 3.59203 65.0776 3.69276 64.8892 3.89557C64.7022 4.09704 64.5905 4.38179 64.5542 4.74981H66.7434Z" fill="#323232"/>
</svg>
