<svg preserveAspectRatio="none" width="21" height="45" viewBox="0 0 21 45" fill="none" xmlns="http://www.w3.org/2000/svg">
<path vector-effect="non-scaling-stroke" d="M0.980392 5.17934C0.980392 3.28424 2.51667 1.74797 4.41176 1.74797V0.767578C1.9752 0.767578 0 2.74279 0 5.17934H0.980392ZM0.980392 40.4735V5.17934H0V40.4735H0.980392ZM4.41176 43.9048C2.51667 43.9048 0.980392 42.3686 0.980392 40.4735H0C0 42.91 1.9752 44.8852 4.41176 44.8852V43.9048ZM14.2157 43.9048H4.41176V44.8852H14.2157V43.9048ZM16.1765 43.9048H14.2157V44.8852H16.1765V43.9048ZM19.6078 40.4735C19.6078 42.3686 18.0716 43.9048 16.1765 43.9048V44.8852C18.613 44.8852 20.5882 42.91 20.5882 40.4735H19.6078ZM19.6078 38.5127V40.4735H20.5882V38.5127H19.6078ZM19.6078 5.17934V38.5127H20.5882V5.17934H19.6078ZM16.1765 1.74797C18.0716 1.74797 19.6078 3.28424 19.6078 5.17934H20.5882C20.5882 2.74279 18.613 0.767578 16.1765 0.767578V1.74797ZM4.41176 1.74797H16.1765V0.767578H4.41176V1.74797ZM14.2157 33.1205C17.1937 33.1205 19.6078 35.5346 19.6078 38.5127H20.5882C20.5882 34.9932 17.7352 32.1401 14.2157 32.1401V33.1205ZM8.82353 38.5127C8.82353 35.5346 11.2376 33.1205 14.2157 33.1205V32.1401C10.6962 32.1401 7.84314 34.9932 7.84314 38.5127H8.82353ZM14.2157 43.9048C11.2376 43.9048 8.82353 41.4907 8.82353 38.5127H7.84314C7.84314 42.0322 10.6962 44.8852 14.2157 44.8852V43.9048ZM19.6078 38.5127C19.6078 41.4907 17.1937 43.9048 14.2157 43.9048V44.8852C17.7352 44.8852 20.5882 42.0322 20.5882 38.5127H19.6078Z" fill="url(#paint0_linear_1_2811)"/>
<defs>
<linearGradient vector-effect="non-scaling-stroke" id="paint0_linear_1_2811" x1="0.980391" y1="0.767578" x2="16.1765" y2="44.395" gradientUnits="userSpaceOnUse">
<stop stop-color="#7FCBD0"/>
<stop offset="1" stop-color="#52BCCB"/>
</linearGradient>
</defs>
</svg>
