<svg preserveAspectRatio="none" width="32" height="67" viewBox="0 0 32 67" fill="none" xmlns="http://www.w3.org/2000/svg">
<path vector-effect="non-scaling-stroke" d="M12.6974 1.45361C8.71861 11.6857 4.8166 21.9872 0.876208 32.254C0.573971 33.0335 1.34742 33.3234 1.7181 33.2793C4.57494 32.9321 7.09777 30.5587 9.53388 28.7116C11.97 26.8646 14.4877 24.8444 16.9279 22.8054C21.8084 18.7273 26.4852 14.266 31.1719 9.77302L29.4286 8.86944C25.7185 16.01 22.202 23.3943 18.596 30.6606C14.99 37.927 11.3829 45.1835 7.77806 52.4597C5.745 56.5647 3.71193 60.6698 1.70381 64.8114C1.38601 65.4623 1.53727 66.0345 2.12793 66.1698C2.71859 66.305 3.58362 65.826 3.93261 65.1504C11.2475 50.7336 18.3657 36.1038 25.5697 21.5621C27.6028 17.4571 29.6956 13.3937 31.6653 9.21736C31.9322 8.65451 31.9201 8.10224 31.3693 7.90071C30.7612 7.67735 30.0965 8.11702 29.6405 8.58662C25.3881 12.996 20.8925 16.9775 16.3643 20.8026C14.1192 22.7023 11.8467 24.5456 9.54569 26.3225C8.39578 27.2159 7.24348 28.0895 6.08326 28.9542C4.92304 29.8189 3.79735 30.7994 2.4703 30.9632L3.3122 31.9885C7.22452 21.7157 11.1697 11.4885 15.0448 1.191C15.3293 0.434188 14.5943 0.179009 14.2279 0.202352C13.6374 0.23831 12.9843 0.716598 12.6974 1.45361Z" fill="#EF790C"/>
</svg>
