<svg preserveAspectRatio="none" width="5" height="6" viewBox="0 0 5 6" fill="none" xmlns="http://www.w3.org/2000/svg">
<path vector-effect="non-scaling-stroke" d="M0.518023 1.77337C0.628023 1.03937 1.02702 0.373374 1.83902 0.0243736C1.92802 -0.0196264 2.03603 0.0283683 2.08103 0.117368C2.11903 0.218368 2.07103 0.326369 1.98103 0.366369C1.29603 0.661369 0.997022 1.18837 0.881022 1.82437C0.822022 2.17937 0.846028 2.57237 0.913028 2.95337C1.08203 2.49737 1.43402 2.10837 1.92302 1.92137C2.83902 1.56937 3.85202 2.02038 4.19902 2.92338C4.54702 3.83038 4.10003 4.84137 3.19003 5.19637C2.30203 5.53737 1.31003 5.11537 0.940028 4.24837C0.886028 4.14737 0.845028 4.04137 0.801028 3.92637C0.553028 3.26637 0.409028 2.49138 0.523028 1.77138L0.518023 1.77337ZM1.27503 4.08737C1.28903 4.12437 1.30902 4.14838 1.32402 4.17438C1.33302 4.19738 1.33803 4.21137 1.33403 4.22837C1.66403 4.82637 2.39903 5.10338 3.04903 4.85438C3.77203 4.57738 4.12703 3.76937 3.85503 3.06037C3.58303 2.35137 2.77503 1.99537 2.05203 2.27337C1.34303 2.54537 0.987028 3.35238 1.26003 4.06238L1.27002 4.08937L1.27503 4.08737Z" fill="#F8F8F8"/>
</svg>
