<svg preserveAspectRatio="none" width="40" height="10" viewBox="0 0 40 10" fill="none" xmlns="http://www.w3.org/2000/svg">
<path vector-effect="non-scaling-stroke" d="M4.26848 5.49478H1.73211L1.27732 7.034C1.19659 7.04609 1.11586 7.05549 1.03647 7.0622C0.869373 7.07373 0.701676 7.07373 0.534579 7.0622C0.459734 7.05621 0.385202 7.0468 0.311218 7.034L2.48564 0.366714C2.66684 0.339193 2.85 0.326594 3.03327 0.329086C3.21335 0.328618 3.39322 0.341207 3.57148 0.366714L5.73646 7.034C5.56437 7.06209 5.39006 7.07424 5.21574 7.07028C5.05402 7.07095 4.8925 7.05881 4.7327 7.034L4.26848 5.49478ZM1.98375 4.66873H4.0182L2.9956 1.26659L1.98375 4.66873ZM6.6299 2.27664C6.7586 2.2526 6.88919 2.23999 7.02012 2.23901C7.15098 2.24127 7.28145 2.25387 7.41032 2.27664C7.42143 2.31604 7.42777 2.35662 7.42917 2.39752C7.44128 2.4593 7.45069 2.52647 7.45742 2.60169C7.46953 2.67556 7.47895 2.74673 7.48434 2.81389C7.49779 2.88239 7.50316 2.92535 7.50316 2.94415C7.56506 2.8461 7.63906 2.74941 7.72653 2.65673C7.91961 2.45029 8.16734 2.30268 8.44102 2.23098C8.5971 2.18666 8.76665 2.16515 8.95233 2.16515C9.23086 2.16515 9.48786 2.21217 9.72333 2.30484C9.96553 2.39752 10.17 2.54258 10.3369 2.74002C10.5105 2.93209 10.6437 3.1792 10.7365 3.48275C10.8347 3.77958 10.8845 4.1315 10.8845 4.53981C10.8845 5.35509 10.6625 5.99575 10.2158 6.45913C9.7758 6.91579 9.15147 7.14549 8.34011 7.14549C8.07358 7.1446 7.80822 7.11028 7.55026 7.04339V9.22196C7.24539 9.2703 6.93478 9.2703 6.6299 9.22196V2.27664ZM7.55026 6.255C7.66733 6.29798 7.78842 6.32883 7.91221 6.34764C8.036 6.36644 8.19748 6.37588 8.39527 6.37588C8.61863 6.37588 8.82315 6.34093 9.00883 6.27378C9.19112 6.2015 9.3535 6.08686 9.48247 5.93935C9.61837 5.7916 9.72332 5.60625 9.79732 5.38329C9.87806 5.15496 9.91842 4.88501 9.91842 4.57609C9.91842 4.08182 9.82557 3.6896 9.63989 3.39815C9.46093 3.10803 9.16357 2.96296 8.7478 2.96296C8.59544 2.96279 8.4444 2.99105 8.30243 3.04625C8.15948 3.10281 8.02982 3.18831 7.92164 3.29739C7.80274 3.41869 7.71101 3.56384 7.65253 3.72319C7.57957 3.91568 7.54483 4.12052 7.55026 4.32626V6.255ZM12.1103 2.27664C12.239 2.2526 12.3696 2.23999 12.5005 2.23901C12.6309 2.24121 12.761 2.25381 12.8894 2.27664C12.9012 2.31587 12.9076 2.35655 12.9082 2.39752C12.9203 2.4593 12.9298 2.52647 12.9365 2.60169C12.9486 2.67556 12.958 2.74673 12.9647 2.81389C12.9737 2.8569 12.9799 2.90038 12.9836 2.94415C13.0485 2.84169 13.1228 2.74549 13.2056 2.65673C13.2969 2.5609 13.4 2.47696 13.5124 2.40691C13.6402 2.33027 13.7778 2.27112 13.9214 2.23098C14.0762 2.18666 14.2457 2.16515 14.4327 2.16515C14.7113 2.16515 14.9683 2.21217 15.2037 2.30484C15.4446 2.39752 15.6491 2.54258 15.816 2.74002C15.9895 2.93209 16.1227 3.1792 16.2156 3.48275C16.3152 3.77958 16.3649 4.1315 16.3649 4.53981C16.3649 5.35509 16.1416 5.99575 15.6962 6.45913C15.2562 6.91579 14.6305 7.14549 13.8192 7.14549C13.5526 7.14443 13.2873 7.11012 13.0293 7.04339V9.22196C12.7249 9.27075 12.4147 9.27075 12.1103 9.22196V2.27664ZM13.0293 6.255C13.1464 6.29798 13.2675 6.32883 13.3913 6.34764C13.5151 6.36644 13.6765 6.37588 13.8743 6.37588C14.0977 6.37588 14.3022 6.34093 14.4879 6.27378C14.6702 6.2015 14.8326 6.08686 14.9615 5.93935C15.0974 5.7916 15.2037 5.60625 15.2777 5.38329C15.3585 5.15496 15.3988 4.88501 15.3988 4.57609C15.3988 4.08182 15.306 3.6896 15.119 3.39815C14.94 3.10803 14.6426 2.96296 14.2282 2.96296C14.0754 2.96278 13.9239 2.99104 13.7815 3.04625C13.6385 3.10281 13.5089 3.18831 13.4007 3.29739C13.2823 3.41904 13.1906 3.56409 13.1316 3.72319C13.0586 3.91568 13.0239 4.12052 13.0293 4.32626V6.255ZM17.5988 2.27664C17.7949 2.24076 17.9949 2.23128 18.1935 2.24844C18.2608 2.25516 18.3227 2.26455 18.3792 2.27664C18.4257 2.5245 18.4535 2.77545 18.4626 3.02744C18.5932 2.81791 18.7627 2.63523 18.974 2.48077C19.1906 2.32631 19.4664 2.24844 19.8001 2.24844C19.8499 2.24844 19.8997 2.25246 19.9495 2.25783C20.0046 2.25783 20.0504 2.26184 20.0881 2.26721C20.1299 2.46556 20.1363 2.66973 20.1069 2.87029C20.1002 2.95088 20.0908 3.02744 20.0786 3.10265C20.0272 3.08948 19.9743 3.08315 19.9212 3.08384H19.8001C19.6333 3.08384 19.4718 3.10801 19.3171 3.1577C19.1634 3.20395 19.0231 3.28643 18.908 3.39815C18.7784 3.53636 18.6802 3.70083 18.6201 3.88034C18.5528 4.0845 18.5178 4.34772 18.5178 4.66873V7.034C18.3677 7.06066 18.2154 7.07282 18.063 7.07028C17.9076 7.07012 17.7524 7.05798 17.5988 7.034V2.27664ZM22.8518 7.14549C22.5172 7.15282 22.1848 7.08966 21.8763 6.96014C21.6073 6.83798 21.3691 6.65713 21.1793 6.43093C20.9882 6.19881 20.8459 5.93067 20.7608 5.6425C20.6718 5.32241 20.6279 4.99152 20.6303 4.65934C20.6303 4.30744 20.6747 3.97973 20.7608 3.67753C20.8537 3.37398 20.9936 3.11072 21.1793 2.8891C21.365 2.66614 21.5964 2.49017 21.8763 2.35989C22.1548 2.23095 22.4791 2.16515 22.8518 2.16515C23.2232 2.16515 23.5475 2.23095 23.826 2.35989C24.1059 2.49017 24.3373 2.66614 24.523 2.8891C24.7087 3.11072 24.8459 3.37398 24.932 3.67753C25.0249 3.97973 25.072 4.30744 25.072 4.65934C25.072 5.01258 25.0249 5.3403 24.932 5.6425C24.853 5.93119 24.7136 6.1999 24.523 6.43093C24.3373 6.65389 24.1059 6.82985 23.826 6.96014C23.5179 7.08955 23.186 7.15271 22.8518 7.14549ZM22.8518 6.41211C23.2783 6.41211 23.5946 6.25765 23.7991 5.94873C24.0036 5.63981 24.1059 5.21002 24.1059 4.65934C24.1059 4.11 24.0036 3.68289 23.7991 3.38068C23.5946 3.07176 23.2783 2.91595 22.8518 2.91595C22.4239 2.91595 22.1077 3.07176 21.9032 3.38068C21.7054 3.68289 21.6058 4.11 21.6058 4.65934C21.6058 5.21002 21.7054 5.63981 21.9032 5.94873C22.1077 6.25765 22.4239 6.41211 22.8518 6.41211ZM25.5133 2.27664C25.6859 2.25326 25.8598 2.24068 26.034 2.23901C26.1148 2.23901 26.2009 2.24307 26.2937 2.24844C26.3933 2.25516 26.4767 2.26455 26.5453 2.27664L27.8451 6.19856L29.1557 2.27664C29.223 2.26455 29.301 2.25516 29.3871 2.24844C29.4746 2.24307 29.558 2.23901 29.6387 2.23901C29.8035 2.24106 29.968 2.25364 30.1312 2.27664L28.273 7.034C28.0454 7.06711 27.815 7.07655 27.5854 7.0622C27.5107 7.05536 27.4362 7.04596 27.3621 7.034L25.5133 2.27664ZM31.54 4.88232C31.5521 5.40211 31.6853 5.78222 31.9396 6.02264C32.1993 6.2644 32.5801 6.38527 33.082 6.38527C33.522 6.38527 33.9405 6.30736 34.336 6.1529C34.3858 6.24558 34.4262 6.35975 34.4571 6.4954C34.4881 6.62569 34.5069 6.75598 34.5123 6.88492C34.2947 6.97618 34.0671 7.04154 33.8342 7.07966C33.5676 7.12592 33.2974 7.14796 33.0268 7.14549C32.5936 7.14549 32.2208 7.08638 31.9114 6.96952C31.6203 6.85729 31.3572 6.68312 31.1404 6.45913C30.941 6.23352 30.7923 5.96791 30.7044 5.68013C30.6087 5.35804 30.5615 5.0235 30.5645 4.68754C30.5645 4.33564 30.6075 4.00792 30.695 3.70437C30.7879 3.39545 30.9278 3.12953 31.1135 2.90792C31.2991 2.67824 31.5306 2.4996 31.8091 2.36932C32.0944 2.23366 32.4294 2.16515 32.8129 2.16515C33.1412 2.16515 33.4292 2.22155 33.6767 2.33169C33.9243 2.44317 34.1315 2.59764 34.2997 2.79643C34.4666 2.98715 34.593 3.21951 34.6805 3.49082C34.7666 3.75676 34.8097 4.0482 34.8097 4.3625C34.8097 4.4498 34.807 4.54249 34.8016 4.64188L34.7828 4.88232H31.54ZM33.9001 4.19596C33.9001 4.02269 33.8745 3.85883 33.8261 3.70437C33.7867 3.55326 33.7171 3.41165 33.6216 3.28801C33.5317 3.16788 33.4133 3.07188 33.2771 3.00863C33.1248 2.93115 32.9555 2.89327 32.7846 2.89849C32.4079 2.89849 32.1159 3.01266 31.9114 3.24099C31.7136 3.46933 31.5925 3.78765 31.5494 4.19596H33.9001ZM39.071 0.23641C39.2211 0.209936 39.3734 0.197782 39.5258 0.200135C39.6787 0.197696 39.8314 0.209851 39.982 0.23641V6.9037C39.7228 6.97696 39.4589 7.03264 39.1921 7.07028C38.8697 7.1227 38.5433 7.14786 38.2166 7.14549C37.8816 7.14549 37.5627 7.1052 37.2599 7.02461C36.9725 6.94361 36.7062 6.80106 36.4795 6.60689C36.2479 6.40382 36.0665 6.15008 35.9494 5.86548C35.8099 5.50841 35.7436 5.12707 35.7543 4.74398C35.7543 4.35985 35.8108 4.01062 35.9224 3.69499C36.0395 3.3807 36.2037 3.11072 36.4149 2.8891C36.6248 2.65943 36.8751 2.48346 37.1671 2.35989C37.4644 2.23632 37.7928 2.17454 38.152 2.17454C38.3121 2.17454 38.4736 2.18665 38.6351 2.21217C38.8019 2.23634 38.9472 2.26724 39.071 2.30484V0.23641ZM39.071 3.08384C38.9422 3.03251 38.8082 2.99517 38.6714 2.97239C38.5181 2.94621 38.3627 2.93361 38.2072 2.93476C37.9529 2.93476 37.7336 2.98178 37.5479 3.07445C37.3659 3.16384 37.2071 3.2939 37.0837 3.45455C36.9653 3.61572 36.8751 3.80646 36.8132 4.02942C36.7557 4.2632 36.7277 4.50326 36.7298 4.74398C36.7365 5.33093 36.8751 5.75132 37.1482 6.00517C37.42 6.25768 37.7928 6.38527 38.2623 6.38527C38.4238 6.38527 38.5732 6.37854 38.7091 6.36645C38.845 6.34765 38.9661 6.32348 39.071 6.29259V3.08384Z" fill="white"/>
</svg>
