<svg preserveAspectRatio="none" width="126" height="12" viewBox="0 0 126 12" fill="none" xmlns="http://www.w3.org/2000/svg">
<path vector-effect="non-scaling-stroke" d="M0.794922 0.501895V9.217H4.0621C6.67108 9.217 8.16333 7.61654 8.16333 4.82018C8.16333 2.08433 6.65341 0.501895 4.0621 0.501895H0.794922ZM2.35253 1.81248H3.85713C5.56582 1.81248 6.57477 2.92383 6.57477 4.84438C6.57477 6.80726 5.59056 7.90642 3.85713 7.90642H2.35253V1.81248ZM14.0996 7.41122C13.8822 7.90642 13.3689 8.18428 12.6259 8.18428C11.6416 8.18428 11.0073 7.48367 10.9711 6.3663V6.28785H15.5856V5.81067C15.5856 3.73913 14.4565 2.48898 12.572 2.48898C10.6574 2.48898 9.46739 3.82368 9.46739 5.94355C9.46739 8.05741 10.6389 9.34988 12.5843 9.34988C14.1419 9.34988 15.2472 8.60094 15.5193 7.41122H14.0996ZM12.5658 3.65458C13.4661 3.65458 14.058 4.28876 14.0881 5.29126H10.9773C11.0435 4.30077 11.6717 3.65458 12.5658 3.65458ZM20.6887 2.50709C19.7831 2.50709 19.0162 2.96006 18.6354 3.70892H18.533V2.61576H17.0893V11.4093H18.5868V8.21441H18.6902C19.0277 8.91502 19.7593 9.32568 20.7073 9.32568C22.3744 9.32568 23.4125 8.01509 23.4125 5.91943C23.4125 3.80557 22.3621 2.50709 20.6887 2.50709ZM20.2178 8.08153C19.1973 8.08153 18.563 7.25413 18.5568 5.91943C18.563 4.58464 19.2035 3.75724 20.224 3.75724C21.2506 3.75724 21.8726 4.56653 21.8726 5.91943C21.8726 7.27225 21.2568 8.08153 20.2178 8.08153ZM24.9772 9.217H26.4748V0.0610352H24.9772V9.217ZM31.2218 9.34988C33.1973 9.34988 34.3989 8.05741 34.3989 5.91333C34.3989 3.78145 33.1911 2.48898 31.2218 2.48898C29.2595 2.48898 28.0456 3.78745 28.0456 5.91333C28.0456 8.05741 29.241 9.34988 31.2218 9.34988ZM31.2218 8.12385C30.1775 8.12385 29.5794 7.31456 29.5794 5.91943C29.5794 4.5243 30.1775 3.71501 31.2218 3.71501C32.2608 3.71501 32.8589 4.5243 32.8589 5.91943C32.8589 7.31456 32.267 8.12385 31.2218 8.12385ZM36.3673 11.6086C37.8471 11.6086 38.5539 11.0711 39.1159 9.44654L41.5013 2.61576H39.919L38.379 7.79775H38.2765L36.7304 2.61576H35.0871L37.4487 9.24112L37.37 9.5492C37.1766 10.1713 36.8205 10.4128 36.1862 10.4128C36.0837 10.4128 35.8601 10.4068 35.7762 10.3947V11.5845C35.8725 11.6026 36.2772 11.6086 36.3673 11.6086ZM54.9393 2.61576H53.4471L52.3542 7.57423H52.2517L50.9715 2.61576H49.5403L48.2715 7.57423H48.1691L47.07 2.61576H45.5601L47.3474 9.217H48.9059L50.1861 4.43365H50.2886L51.575 9.217H53.152L54.9393 2.61576ZM60.2907 7.41122C60.0733 7.90642 59.5592 8.18428 58.817 8.18428C57.8319 8.18428 57.1985 7.48367 57.1622 6.3663V6.28785H61.7759V5.81067C61.7759 3.73913 60.6467 2.48898 58.7622 2.48898C56.8477 2.48898 55.6576 3.82368 55.6576 5.94355C55.6576 8.05741 56.83 9.34988 58.7746 9.34988C60.3322 9.34988 61.4375 8.60094 61.7096 7.41122H60.2907ZM58.756 3.65458C59.6563 3.65458 60.2483 4.28876 60.2783 5.29126H57.1675C57.2347 4.30077 57.8628 3.65458 58.756 3.65458ZM66.9523 9.32568C68.6186 9.32568 69.6637 8.01509 69.6637 5.91943C69.6637 3.81158 68.6248 2.50709 66.9523 2.50709C66.0458 2.50709 65.2851 2.94795 64.9405 3.66668H64.8381V0.0610352H63.3405V9.217H64.7842V8.17218H64.8867C65.2613 8.89691 66.0282 9.32568 66.9523 9.32568ZM66.4805 3.75724C67.5018 3.75724 68.1238 4.57262 68.1238 5.91943C68.1238 7.26624 67.508 8.08153 66.4805 8.08153C65.4539 8.08153 64.8142 7.25413 64.8142 5.91943C64.8142 4.58464 65.4601 3.75724 66.4805 3.75724ZM76.2829 9.32568C77.147 9.32568 77.8715 8.95125 78.2399 8.31106H78.3423V9.217H79.786V4.7055C79.786 3.31037 78.8318 2.48898 77.1346 2.48898C75.5646 2.48898 74.4708 3.22581 74.3507 4.37931H75.7634C75.903 3.92634 76.3739 3.6787 77.0622 3.6787C77.8715 3.6787 78.3061 4.04712 78.3061 4.7055V5.27315L76.6027 5.37581C74.9965 5.46646 74.0971 6.16098 74.0971 7.34478C74.0971 8.55261 75.0089 9.32568 76.2829 9.32568ZM76.7238 8.17218C76.0594 8.17218 75.5823 7.83998 75.5823 7.27224C75.5823 6.72271 75.9754 6.41463 76.8148 6.3603L78.3061 6.25763V6.79515C78.3061 7.58032 77.6303 8.17218 76.7238 8.17218ZM85.1912 2.50709C84.2857 2.50709 83.5188 2.96006 83.138 3.70892H83.0355V2.61576H81.5919V11.4093H83.0894V8.21441H83.1919C83.5303 8.91502 84.2609 9.32568 85.2098 9.32568C86.8761 9.32568 87.9151 8.01509 87.9151 5.91943C87.9151 3.80557 86.8646 2.50709 85.1912 2.50709ZM84.7203 8.08153C83.6999 8.08153 83.0655 7.25413 83.0593 5.91943C83.0655 4.58464 83.7061 3.75724 84.7265 3.75724C85.7531 3.75724 86.3751 4.56653 86.3751 5.91943C86.3751 7.27225 85.7593 8.08153 84.7203 8.08153ZM93.019 2.50709C92.1126 2.50709 91.3457 2.96006 90.9649 3.70892H90.8624V2.61576H89.4188V11.4093H90.9172V8.21441H91.0197C91.3581 8.91502 92.0887 9.32568 93.0367 9.32568C94.7039 9.32568 95.7429 8.01509 95.7429 5.91943C95.7429 3.80557 94.6915 2.50709 93.019 2.50709ZM92.5473 8.08153C91.5268 8.08153 90.8925 7.25413 90.8863 5.91943C90.8925 4.58464 91.533 3.75724 92.5535 3.75724C93.5801 3.75724 94.202 4.56653 94.202 5.91943C94.202 7.27225 93.5862 8.08153 92.5473 8.08153ZM104.85 7.41122C104.633 7.90642 104.119 8.18428 103.376 8.18428C102.392 8.18428 101.758 7.48367 101.722 6.3663V6.28785H106.336V5.81067C106.336 3.73913 105.206 2.48898 103.322 2.48898C101.408 2.48898 100.218 3.82368 100.218 5.94355C100.218 8.05741 101.389 9.34988 103.334 9.34988C104.892 9.34988 105.998 8.60094 106.27 7.41122H104.85ZM103.316 3.65458C104.216 3.65458 104.808 4.28876 104.838 5.29126H101.728C101.794 4.30077 102.422 3.65458 103.316 3.65458ZM113.59 2.61576H112.091V6.46296C112.091 7.45946 111.56 8.06342 110.587 8.06342C109.694 8.06342 109.277 7.56822 109.277 6.5415V2.61576H107.78V6.90382C107.78 8.44995 108.625 9.34988 110.068 9.34988C111.077 9.34988 111.723 8.92103 112.043 8.16608H112.146V9.217H113.59V2.61576ZM119.46 6.39051V5.0195H115.492V6.39051H119.46ZM123.464 9.217H125.022V0.501895H123.47L121.193 2.10245V3.57003L123.361 2.03601H123.464V9.217Z" fill="#2F363D"/>
</svg>
