<svg preserveAspectRatio="none" width="14" height="13" viewBox="0 0 14 13" fill="none" xmlns="http://www.w3.org/2000/svg">
<path vector-effect="non-scaling-stroke" fill-rule="evenodd" clip-rule="evenodd" d="M6.93157 12.4789C10.3472 12.4789 13.1161 9.70997 13.1161 6.29436C13.1161 2.87875 10.3472 0.109863 6.93157 0.109863C3.51596 0.109863 0.74707 2.87875 0.74707 6.29436C0.74707 9.70997 3.51596 12.4789 6.93157 12.4789ZM9.85401 4.96496C10.0804 4.73852 10.0804 4.37142 9.85401 4.14498C9.62757 3.91854 9.26047 3.91854 9.03403 4.14498L5.96519 7.21382L4.8291 6.07764C4.60266 5.8512 4.23557 5.8512 4.00913 6.07764C3.78269 6.30408 3.78269 6.67117 4.00913 6.89761L5.55525 8.44374C5.78169 8.67009 6.14879 8.67009 6.37523 8.44374L9.85401 4.96496Z" fill="#28A745"/>
</svg>
