<svg preserveAspectRatio="none" width="4" height="6" viewBox="0 0 4 6" fill="none" xmlns="http://www.w3.org/2000/svg">
<path vector-effect="non-scaling-stroke" d="M0.295959 3.95751C0.0399588 3.29051 -0.0280392 2.61851 0.0979608 2.03651C0.231961 1.47851 0.547957 1.00851 1.04996 0.815513C1.55196 0.622513 2.10596 0.758513 2.57796 1.07951C3.05396 1.42551 3.47196 1.96251 3.73296 2.62851C3.98896 3.29551 4.04295 3.97251 3.91795 4.54351C3.78595 5.10651 3.47095 5.58151 2.96895 5.77451C2.46695 5.96651 1.91296 5.83051 1.43796 5.50051C0.960957 5.16651 0.55096 4.62151 0.29396 3.95351L0.295959 3.95751ZM0.64096 3.82551C0.87496 4.43351 1.25096 4.91751 1.65596 5.20051C2.05796 5.47951 2.48196 5.56551 2.83696 5.42851C3.19096 5.29251 3.43795 4.94451 3.55595 4.46651C3.66195 3.98651 3.62196 3.37351 3.38896 2.76551C3.15596 2.15751 2.76995 1.67651 2.36995 1.39151C1.95795 1.10151 1.54395 1.02751 1.18895 1.16351C0.833949 1.29951 0.572955 1.63751 0.469955 2.12651C0.363955 2.60551 0.412949 3.21551 0.647949 3.82851L0.64096 3.82551Z" fill="#F8F8F8"/>
</svg>
