<svg preserveAspectRatio="none" width="9" height="7" viewBox="0 0 9 7" fill="none" xmlns="http://www.w3.org/2000/svg">
<path vector-effect="non-scaling-stroke" d="M0.791336 6.33296H1.60684L4.37662 0.828315V0.10791H0.256836V0.802431H3.58673V0.86286L0.791336 6.33296ZM5.12315 2.95517C5.12315 3.62813 5.51984 4.00344 6.39097 4.21486L7.18878 4.40896C7.68531 4.52974 7.92647 4.7454 7.92647 5.0647C7.92647 5.49178 7.47856 5.78943 6.85305 5.78943C6.25757 5.78943 5.88648 5.53923 5.76102 5.1466H4.99772C5.07988 5.91887 5.79105 6.41495 6.82652 6.41495C7.88407 6.41495 8.69074 5.84121 8.69074 5.0086C8.69074 4.33997 8.26752 3.96032 7.39197 3.7489L6.67547 3.57636C6.1277 3.44259 5.86882 3.24416 5.86882 2.92495C5.86882 2.51076 6.30086 2.23043 6.85305 2.23043C7.41319 2.23043 7.77629 2.47631 7.87524 2.84729H8.60856C8.50961 2.08368 7.83194 1.60058 6.85655 1.60058C5.8688 1.60058 5.12315 2.1829 5.12315 2.95517Z" fill="#D1D5DA"/>
</svg>
