<svg preserveAspectRatio="none" width="63" height="14" viewBox="0 0 63 14" fill="none" xmlns="http://www.w3.org/2000/svg">
<path vector-effect="non-scaling-stroke" d="M6.14225 12.8939C8.82025 12.8939 10.7748 11.2702 10.9672 8.90005H8.70481C8.48161 10.1236 7.48125 10.9085 6.14993 10.9085C4.39546 10.9085 3.31039 9.43106 3.31039 7.05318C3.31039 4.67541 4.39546 3.19792 6.14225 3.19792C7.46589 3.19792 8.47392 4.04432 8.69712 5.32944H10.9595C10.7902 2.94389 8.77406 1.22015 6.14225 1.22015C2.91797 1.22015 0.932617 3.44417 0.932617 7.05318C0.932617 10.6623 2.92566 12.8939 6.14225 12.8939ZM16.6466 12.7861C19.2549 12.7861 20.825 11.1394 20.825 8.36913C20.825 5.62189 19.2322 3.95203 16.6466 3.95203C14.0607 3.95203 12.4678 5.62957 12.4678 8.36913C12.4678 11.1316 14.0376 12.7861 16.6466 12.7861ZM16.6466 11.0163C15.4458 11.0163 14.7686 10.0467 14.7686 8.36913C14.7686 6.70696 15.4535 5.72965 16.6466 5.72965C17.8316 5.72965 18.524 6.70696 18.524 8.36913C18.524 10.0467 17.8394 11.0163 16.6466 11.0163ZM25.6958 12.74C26.8728 12.74 27.8352 12.1937 28.2892 11.2779H28.4281V12.6091H30.5981V0.896973H28.3582V5.49108H28.2272C27.7889 4.55228 26.8423 3.99822 25.6958 3.99822C23.5642 3.99822 22.2404 5.66808 22.2404 8.36135C22.2404 11.0624 23.5564 12.74 25.6958 12.74ZM26.4581 5.81426C27.651 5.81426 28.3818 6.79157 28.3818 8.37682C28.3818 9.96197 27.6579 10.9316 26.4581 10.9316C25.2574 10.9316 24.5413 9.96975 24.5413 8.36913C24.5413 6.7762 25.2653 5.81426 26.4581 5.81426ZM38.4081 10.216C38.1697 10.7931 37.562 11.1163 36.6774 11.1163C35.5073 11.1163 34.7685 10.3083 34.738 9.01549V8.90005H40.5633V8.23054C40.5633 5.55264 39.0858 3.95203 36.5849 3.95203C34.0603 3.95203 32.506 5.6604 32.506 8.41523C32.506 11.1548 34.0298 12.7861 36.6154 12.7861C38.6928 12.7861 40.1633 11.7935 40.4943 10.216H38.4081ZM36.5927 5.62189C37.6388 5.62189 38.3165 6.34527 38.3628 7.50726H34.7459C34.8227 6.36832 35.5536 5.62189 36.5927 5.62189ZM47.4809 12.8939C48.1891 12.8939 48.851 12.7861 49.4361 12.5861L50.2822 13.7096H52.4442L50.9668 11.7319C52.1448 10.7701 52.8136 9.13093 52.8136 7.05318C52.8136 3.45185 50.7441 1.22015 47.4809 1.22015C44.2186 1.22015 42.1333 3.45185 42.1333 7.05318C42.1333 10.6777 44.1949 12.8939 47.4809 12.8939ZM47.4887 11.0008C45.6419 11.0008 44.4491 9.48494 44.4491 7.05318C44.4491 4.6369 45.6419 3.10552 47.4809 3.10552C49.313 3.10552 50.4979 4.6369 50.4979 7.05318C50.4979 8.30757 50.1827 9.31561 49.6124 9.93124L48.8667 8.95393H46.6958L48.1733 10.9162C47.9507 10.9778 47.7271 11.0008 47.4887 11.0008ZM62.2794 10.6546H57.3387V1.50491H55.0151V12.6091H62.2794V10.6546Z" fill="white"/>
</svg>
