<svg preserveAspectRatio="none" width="48" height="48" viewBox="0 0 48 48" fill="none" xmlns="http://www.w3.org/2000/svg">
<path vector-effect="non-scaling-stroke" d="M34.4646 44.874L34.6843 45.3016L35.2896 44.9905L34.7942 44.524L34.4646 44.874ZM44.4701 34.8684L44.1201 35.198L44.5867 35.6934L44.8978 35.0881L44.4701 34.8684ZM23.9317 47.8932C27.8044 47.8932 31.4602 46.9583 34.6843 45.3016L34.2448 44.4464C31.1535 46.0348 27.6481 46.9317 23.9317 46.9317V47.8932ZM0.374023 24.3355C0.374023 37.3461 10.9212 47.8932 23.9317 47.8932V46.9317C11.4522 46.9317 1.33556 36.815 1.33556 24.3355H0.374023ZM23.9317 0.777832C10.9212 0.777832 0.374023 11.3249 0.374023 24.3355H1.33556C1.33556 11.856 11.4522 1.73937 23.9317 1.73937V0.777832ZM47.4894 24.3355C47.4894 11.3249 36.9422 0.777832 23.9317 0.777832V1.73937C36.4113 1.73937 46.5279 11.856 46.5279 24.3355H47.4894ZM44.8978 35.0881C46.5545 31.864 47.4894 28.2082 47.4894 24.3355H46.5279C46.5279 28.0519 45.6311 31.5574 44.0425 34.6487L44.8978 35.0881ZM39.3164 33.1227C41.2098 33.1227 42.9164 33.9198 44.1201 35.198L44.8201 34.5388C43.4422 33.0756 41.4857 32.1612 39.3164 32.1612V33.1227ZM32.7189 39.7201C32.7189 36.0765 35.6727 33.1227 39.3164 33.1227V32.1612C35.1416 32.1612 31.7573 35.5454 31.7573 39.7201H32.7189ZM34.7942 44.524C33.516 43.3201 32.7189 41.6136 32.7189 39.7201H31.7573C31.7573 41.8895 32.6718 43.8461 34.135 45.224L34.7942 44.524Z" fill="url(#paint0_linear_1_3117)"/>
<defs>
<linearGradient vector-effect="non-scaling-stroke" id="paint0_linear_1_3117" x1="11.0291" y1="14.7406" x2="33.0532" y2="39.7201" gradientUnits="userSpaceOnUse">
<stop stop-color="#97C6FD"/>
<stop offset="1" stop-color="#0D5B25"/>
</linearGradient>
</defs>
</svg>
