<svg preserveAspectRatio="none" width="5" height="7" viewBox="0 0 5 7" fill="none" xmlns="http://www.w3.org/2000/svg">
<path vector-effect="non-scaling-stroke" d="M1.61502 1.00897C2.18202 0.791971 2.82802 1.07197 3.04602 1.63797C3.17802 1.98397 3.12302 2.34797 2.94402 2.63897C3.62502 2.65197 4.26201 3.07297 4.51901 3.74097C4.86201 4.63397 4.42402 5.62697 3.53202 5.97397C2.64302 6.31597 1.64602 5.87897 1.29902 4.98797C1.04202 4.31997 1.23002 3.58197 1.71602 3.11597C1.39502 3.02197 1.11402 2.78697 0.98202 2.44097C0.76402 1.87497 1.03702 1.23597 1.61302 1.01497L1.61502 1.00897ZM3.40402 5.62697C4.11302 5.35497 4.45102 4.56997 4.18302 3.86997C3.91602 3.17497 3.13502 2.81897 2.42502 3.09197C1.72502 3.35997 1.38002 4.15297 1.64702 4.84897C1.91702 5.55297 2.70402 5.89597 3.40402 5.62697ZM2.28502 2.73897C2.66302 2.58297 2.85602 2.14997 2.71002 1.76697C2.56302 1.38497 2.13302 1.20097 1.75102 1.34797C1.36902 1.49497 1.18302 1.91997 1.33002 2.30197C1.47702 2.68397 1.90502 2.87897 2.28902 2.73697L2.28502 2.73897Z" fill="#F8F8F8"/>
</svg>
