<svg preserveAspectRatio="none" width="34" height="11" viewBox="0 0 34 11" fill="none" xmlns="http://www.w3.org/2000/svg">
<path vector-effect="non-scaling-stroke" d="M0.413086 0.620324V8.09038H2.97526C5.19637 8.09038 6.50041 6.70815 6.50041 4.35274C6.50041 2.00254 5.19107 0.620324 2.97526 0.620324H0.413086ZM1.34431 1.45892H2.9134C4.56997 1.45892 5.548 2.53573 5.548 4.36308C5.548 6.18538 4.57969 7.25177 2.9134 7.25177H1.34431V1.45892ZM11.698 6.64604C11.4648 7.13788 10.978 7.40187 10.2588 7.40187C9.31168 7.40187 8.69503 6.70302 8.64909 5.60033V5.55898H12.6611V5.21724C12.6611 3.48311 11.7449 2.41151 10.2385 2.41151C8.70564 2.41151 7.72229 3.55034 7.72229 5.30533C7.72229 7.07056 8.69062 8.18872 10.2385 8.18872C11.4595 8.18872 12.3297 7.59863 12.5886 6.64604H11.698ZM10.2279 3.19836C11.1132 3.19836 11.7033 3.85065 11.7236 4.83937H8.64909C8.71623 3.85065 9.33732 3.19836 10.2279 3.19836ZM16.7764 2.41151C16.0157 2.41151 15.3478 2.79972 14.9908 3.44167H14.9078V2.50985H14.0587V9.95404H14.9493V7.25177H15.0315C15.3372 7.84194 15.9795 8.18872 16.7764 8.18872C18.1944 8.18872 19.1212 7.04467 19.1212 5.30012C19.1212 3.54522 18.1997 2.41151 16.7764 2.41151ZM16.5643 7.38632C15.5598 7.38632 14.9228 6.5788 14.9228 5.30012C14.9228 4.0163 15.5598 3.21391 16.5696 3.21391C17.5892 3.21391 18.1997 3.99554 18.1997 5.30012C18.1997 6.60469 17.5892 7.38632 16.5643 7.38632ZM20.571 8.09038H21.4616V0.294189H20.571V8.09038ZM25.4833 8.18872C27.0727 8.18872 28.0569 7.09123 28.0569 5.30012C28.0569 3.50378 27.0727 2.41151 25.4833 2.41151C23.8948 2.41151 22.9105 3.50378 22.9105 5.30012C22.9105 7.09123 23.8948 8.18872 25.4833 8.18872ZM25.4833 7.38632C24.4275 7.38632 23.832 6.62015 23.832 5.30012C23.832 3.97487 24.4275 3.21391 25.4833 3.21391C26.54 3.21391 27.1354 3.97487 27.1354 5.30012C27.1354 6.62015 26.54 7.38632 25.4833 7.38632ZM29.7232 10.1094C30.7118 10.1094 31.1571 9.72627 31.6333 8.43203L33.8129 2.50985H32.8658L31.3382 7.10166H31.2561L29.7232 2.50985H28.7602L30.8258 8.0956L30.7225 8.42691C30.4892 9.09987 30.21 9.34319 29.6976 9.34319C29.573 9.34319 29.4334 9.33797 29.3247 9.3173V10.0783C29.4493 10.0989 29.6048 10.1094 29.7232 10.1094Z" fill="#6A737D"/>
</svg>
