<svg preserveAspectRatio="none" width="23" height="23" viewBox="0 0 23 23" fill="none" xmlns="http://www.w3.org/2000/svg">
<path vector-effect="non-scaling-stroke" d="M0.890137 5.15876C0.88996 4.54984 1.01 3.94686 1.24336 3.38426C1.47672 2.82166 1.81885 2.31045 2.2502 1.87988C2.68155 1.44931 3.19365 1.10781 3.75727 0.874866C4.32088 0.641923 4.92496 0.522102 5.53498 0.522278H17.9207C18.5307 0.522102 19.1348 0.641923 19.6984 0.874866C20.262 1.10781 20.7742 1.44931 21.2055 1.87988C21.6369 2.31045 21.979 2.82166 22.2123 3.38426C22.4457 3.94686 22.5657 4.54984 22.5655 5.15876V17.5223C22.5657 18.1312 22.4457 18.7342 22.2123 19.2968C21.979 19.8594 21.6369 20.3706 21.2055 20.8012C20.7742 21.2318 20.262 21.5732 19.6984 21.8062C19.1348 22.0391 18.5307 22.159 17.9207 22.1588H5.53498C4.92496 22.159 4.32088 22.0391 3.75727 21.8062C3.19365 21.5732 2.68155 21.2318 2.2502 20.8012C1.81885 20.3706 1.47672 19.8594 1.24336 19.2968C1.01 18.7342 0.88996 18.1312 0.890137 17.5223V5.15876Z" fill="#F2F2F2"/>
</svg>
