<svg preserveAspectRatio="none" width="50" height="50" viewBox="0 0 50 50" fill="none" xmlns="http://www.w3.org/2000/svg">
<path vector-effect="non-scaling-stroke" fill-rule="evenodd" clip-rule="evenodd" d="M49 25.2969C49 26.0968 48.9609 26.8876 48.8844 27.6674C48.7038 28.1748 48.322 28.5982 47.8123 28.8248L42.3124 31.2691C42.0641 31.3795 41.8727 31.5867 41.7739 31.8398C41.6832 32.0723 41.5877 32.3025 41.4877 32.5301C41.3783 32.7792 41.367 33.0613 41.4646 33.3151L43.6254 38.933C43.8251 39.4522 43.7964 40.0198 43.5671 40.5054C42.5609 41.7323 41.4355 42.8577 40.2086 43.8639C39.723 44.0932 39.1554 44.1219 38.6362 43.9222L33.0184 41.7615C32.7645 41.6638 32.4824 41.6751 32.2334 41.7845C32.0057 41.8846 31.7755 41.98 31.5429 42.0708C31.2898 42.1696 31.0826 42.361 30.9722 42.6093L28.5279 48.1092C28.3013 48.6189 27.8779 49.0007 27.3705 49.1813C26.5907 49.2578 25.7999 49.2969 25 49.2969C24.2001 49.2969 23.4093 49.2578 22.6295 49.1813C22.1221 49.0007 21.6987 48.6189 21.4721 48.1092L19.0278 42.6093C18.9174 42.361 18.7102 42.1696 18.4571 42.0708C18.2246 41.98 17.9944 41.8846 17.7667 41.7845C17.5177 41.6752 17.2356 41.6639 16.9817 41.7615L11.364 43.9222C10.8447 44.1219 10.2768 44.0932 9.79118 43.8637C9.19174 43.3721 8.61653 42.852 8.06761 42.3056L7.99132 42.2293C7.4449 41.6804 6.92488 41.1052 6.43331 40.5058C6.20381 40.0202 6.17505 39.4523 6.37478 38.933L8.53544 33.3153C8.63308 33.0615 8.62181 32.7794 8.51241 32.5303C8.41235 32.3026 8.31687 32.0724 8.22609 31.8398C8.12728 31.5867 7.93588 31.3795 7.68756 31.2691L2.18772 28.8248C1.678 28.5982 1.29617 28.1748 1.11559 27.6674C1.03913 26.8876 1 26.0968 1 25.2969C1 24.497 1.03913 23.7062 1.11559 22.9264C1.29617 22.419 1.678 21.9956 2.18772 21.769L7.68755 19.3247C7.93587 19.2143 8.12728 19.0071 8.22609 18.754C8.31687 18.5214 8.41235 18.2912 8.51241 18.0635C8.62181 17.8144 8.63308 17.5323 8.53544 17.2785L6.37478 11.6608C6.17505 11.1415 6.2038 10.5736 6.4333 10.0879C6.92485 9.48858 7.44486 8.91343 7.99125 8.36458L8.06771 8.28813C8.6166 7.7417 9.19178 7.22165 9.79119 6.73006C10.2768 6.50058 10.8447 6.47185 11.364 6.67158L16.9817 8.83226C17.2356 8.92989 17.5177 8.91863 17.7667 8.80923C17.9944 8.70919 18.2246 8.61374 18.4571 8.52297C18.7102 8.42416 18.9174 8.23275 19.0278 7.98444L21.4721 2.4846C21.6987 1.97488 22.1221 1.59304 22.6295 1.41246C23.4093 1.336 24.2001 1.29688 25 1.29688C25.7999 1.29688 26.5907 1.336 27.3705 1.41246C27.8779 1.59304 28.3013 1.97488 28.5279 2.4846L30.9722 7.98444C31.0826 8.23275 31.2898 8.42416 31.5429 8.52297C31.7755 8.61375 32.0057 8.7092 32.2334 8.80925C32.4824 8.91865 32.7645 8.92992 33.0184 8.83228L38.6362 6.67158C39.1554 6.4719 39.723 6.50058 40.2086 6.72989C41.4355 7.73608 42.5609 8.86149 43.5671 10.0884C43.7964 10.574 43.8251 11.1416 43.6254 11.6608L41.4646 17.2787C41.367 17.5325 41.3783 17.8146 41.4877 18.0637C41.5877 18.2913 41.6832 18.5215 41.7739 18.754C41.8727 19.0071 42.0641 19.2143 42.3124 19.3247L47.8123 21.769C48.322 21.9956 48.7038 22.419 48.8844 22.9264C48.9609 23.7062 49 24.497 49 25.2969ZM25 32.2969C29.4183 32.2969 32 29.7152 32 25.2969C32 20.8786 29.4183 18.2969 25 18.2969C20.5817 18.2969 18 20.8786 18 25.2969C18 29.7152 20.5817 32.2969 25 32.2969Z" fill="#E678AE" fill-opacity="0.3" stroke="url(#paint0_linear_1_2219)"/>
<defs>
<linearGradient vector-effect="non-scaling-stroke" id="paint0_linear_1_2219" x1="4.5" y1="2.79688" x2="43" y2="47.7969" gradientUnits="userSpaceOnUse">
<stop stop-color="#DA9BF7"/>
<stop offset="1" stop-color="#CF87E1"/>
</linearGradient>
</defs>
</svg>
