<svg preserveAspectRatio="none" width="14" height="14" viewBox="0 0 14 14" fill="none" xmlns="http://www.w3.org/2000/svg">
<path vector-effect="non-scaling-stroke" d="M5.01668 13.6667L4.76668 11.5667C4.65557 11.5 4.53335 11.4278 4.40001 11.35C4.26668 11.2722 4.14446 11.2 4.03335 11.1333L2.08335 11.95L0.200012 8.70001L1.86668 7.43334V6.56668L0.200012 5.30001L2.08335 2.05001L4.03335 2.86668C4.14446 2.80001 4.26668 2.72779 4.40001 2.65001C4.53335 2.57223 4.65557 2.50001 4.76668 2.43334L5.01668 0.333344H8.78335L9.03335 2.43334C9.14446 2.50001 9.26668 2.57223 9.40001 2.65001C9.53335 2.72779 9.65557 2.80001 9.76668 2.86668L11.7167 2.05001L13.6 5.30001L11.95 6.56668V7.43334L13.6 8.70001L11.7167 11.95L9.76668 11.1333C9.65557 11.2 9.53335 11.2722 9.40001 11.35C9.26668 11.4278 9.14446 11.5 9.03335 11.5667L8.78335 13.6667H5.01668ZM6.90001 9.38334C7.55557 9.38334 8.11668 9.15001 8.58335 8.68334C9.05001 8.21668 9.28335 7.65557 9.28335 7.00001C9.28335 6.34445 9.05001 5.78334 8.58335 5.31668C8.11668 4.85001 7.55557 4.61668 6.90001 4.61668C6.24446 4.61668 5.68335 4.85001 5.21668 5.31668C4.75001 5.78334 4.51668 6.34445 4.51668 7.00001C4.51668 7.65557 4.75001 8.21668 5.21668 8.68334C5.68335 9.15001 6.24446 9.38334 6.90001 9.38334ZM6.90001 7.98334C6.63335 7.98334 6.40279 7.88612 6.20835 7.69168C6.0139 7.49723 5.91668 7.26668 5.91668 7.00001C5.91668 6.73334 6.0139 6.50279 6.20835 6.30834C6.40279 6.1139 6.63335 6.01668 6.90001 6.01668C7.16668 6.01668 7.39723 6.1139 7.59168 6.30834C7.78612 6.50279 7.88335 6.73334 7.88335 7.00001C7.88335 7.26668 7.78612 7.49723 7.59168 7.69168C7.39723 7.88612 7.16668 7.98334 6.90001 7.98334ZM6.23335 12.2667H7.56668L7.76668 10.5333C8.0889 10.4445 8.40001 10.3111 8.70001 10.1333C9.00001 9.95557 9.27223 9.74446 9.51668 9.50001L11.1333 10.1833L11.8 9.08334L10.3833 8.00001C10.4389 7.84446 10.4778 7.68334 10.5 7.51668C10.5222 7.35001 10.5333 7.17779 10.5333 7.00001C10.5333 6.84445 10.5222 6.68612 10.5 6.52501C10.4778 6.3639 10.4445 6.19445 10.4 6.01668L11.8167 4.91668L11.15 3.81668L9.53335 4.51668C9.27779 4.26112 9.00279 4.04723 8.70835 3.87501C8.4139 3.70279 8.10557 3.57223 7.78335 3.48334L7.56668 1.73334H6.23335L6.01668 3.48334C5.69446 3.57223 5.38612 3.70279 5.09168 3.87501C4.79723 4.04723 4.52779 4.25557 4.28335 4.50001L2.66668 3.81668L2.00001 4.91668L3.40001 6.00001C3.35557 6.17779 3.32223 6.35001 3.30001 6.51668C3.27779 6.68334 3.26668 6.84445 3.26668 7.00001C3.26668 7.15557 3.27779 7.3139 3.30001 7.47501C3.32223 7.63612 3.35557 7.80557 3.40001 7.98334L2.00001 9.08334L2.66668 10.1833L4.28335 9.50001C4.52779 9.74446 4.79723 9.95279 5.09168 10.125C5.38612 10.2972 5.69446 10.4278 6.01668 10.5167L6.23335 12.2667Z" fill="#6F6F6F"/>
</svg>
