<svg preserveAspectRatio="none" width="18" height="10" viewBox="0 0 18 10" fill="none" xmlns="http://www.w3.org/2000/svg">
<path vector-effect="non-scaling-stroke" opacity="0.35" fill-rule="evenodd" clip-rule="evenodd" d="M15.0821 1.16463H2.17968C1.46654 1.16463 0.889277 1.74218 0.889277 2.45269V7.08918C0.889277 7.80104 1.46654 8.37725 2.17968 8.37725H15.0821C15.4242 8.37689 15.7522 8.24107 15.9941 7.99959C16.2361 7.75811 16.3721 7.43069 16.3725 7.08918V2.45269C16.3721 2.11119 16.2361 1.78377 15.9941 1.54229C15.7522 1.30081 15.4242 1.16499 15.0821 1.16463ZM2.17968 0.392334C1.03865 0.392334 0.114258 1.31506 0.114258 2.45269V7.08918C0.114258 8.22682 1.03865 9.14955 2.17968 9.14955H15.0821C16.2218 9.14955 17.1462 8.22682 17.1462 7.08918V2.45269C17.1462 1.31506 16.2218 0.392334 15.0821 0.392334H2.17968Z" fill="#1E1F20"/>
</svg>
