<svg preserveAspectRatio="none" width="5" height="6" viewBox="0 0 5 6" fill="none" xmlns="http://www.w3.org/2000/svg">
<path vector-effect="non-scaling-stroke" d="M3.73907 4.5641L1.05007 5.5971L1.04208 5.6051L1.02908 5.6101C0.992075 5.6241 0.949065 5.6361 0.909065 5.6141C0.809065 5.5891 0.756075 5.4771 0.794075 5.3831L2.28307 0.701095L2.28806 0.688102C2.32306 0.585102 2.41607 0.539096 2.51907 0.574096C2.55507 0.586096 2.58207 0.613101 2.60607 0.635101C2.61107 0.649101 2.62008 0.656095 2.62608 0.659095L2.63506 0.682098L3.95007 4.0821L4.28207 3.9551C4.38307 3.9161 4.49206 3.9641 4.52706 4.0561C4.56206 4.1481 4.51408 4.2571 4.41708 4.2941L4.08607 4.4211L4.41306 5.2731C4.44806 5.3651 4.40006 5.4731 4.30306 5.5101C4.21106 5.5461 4.10307 5.4981 4.06707 5.4051L3.74007 4.5531L3.73907 4.5641ZM3.60807 4.2241L2.48406 1.3211L1.26307 5.1341L3.61207 4.2331L3.60807 4.2241Z" fill="#F8F8F8"/>
</svg>
