<svg preserveAspectRatio="none" width="15" height="7" viewBox="0 0 15 7" fill="none" xmlns="http://www.w3.org/2000/svg">
<path vector-effect="non-scaling-stroke" d="M1.64184 3.95968H2.41401C3.28956 3.95968 3.82939 4.40833 3.82939 5.12882C3.82939 5.82767 3.24628 6.29787 2.42728 6.29787C1.62417 6.29787 1.06403 5.87944 0.995121 5.22371H0.244141C0.299801 6.28064 1.17182 6.97516 2.43523 6.97516C3.6739 6.97516 4.62718 6.19432 4.62718 5.15038C4.62718 4.28322 4.09177 3.73537 3.28513 3.60593V3.53693C3.9239 3.35148 4.38951 2.85531 4.39393 2.10469C4.39835 1.23329 3.69068 0.456787 2.46173 0.456787C1.20186 0.456787 0.429684 1.20308 0.351936 2.21689H1.10731C1.17181 1.51805 1.6595 1.13408 2.40959 1.13408C3.16056 1.13408 3.60496 1.6086 3.60496 2.19101C3.60496 2.83808 3.09607 3.29538 2.37955 3.29538H1.64184V3.95968ZM8.00038 6.97516C9.32032 6.97516 10.2436 6.22887 10.2436 5.16328C10.2436 4.35231 9.73027 3.72247 8.94926 3.57581V3.50672C9.59245 3.32984 9.98914 2.7993 9.98914 2.11768C9.98914 1.14698 9.16571 0.456787 8.00038 0.456787C6.83592 0.456787 6.01164 1.14698 6.01164 2.11768C6.01164 2.79497 6.41714 3.33417 7.05149 3.50672V3.57581C6.27048 3.72247 5.75717 4.35231 5.75717 5.16328C5.75717 6.22887 6.68043 6.97516 8.00038 6.97516ZM8.00038 3.24794C7.26707 3.24794 6.77586 2.82518 6.77586 2.19101C6.77586 1.54817 7.26265 1.12109 8.00038 1.12109C8.7381 1.12109 9.22581 1.54817 9.22581 2.19101C9.22581 2.82518 8.73368 3.24794 8.00038 3.24794ZM8.00038 6.31086C7.13808 6.31086 6.54261 5.81901 6.54261 5.10726C6.54261 4.39543 7.13808 3.90367 8.00038 3.90367C8.86356 3.90367 9.45904 4.39543 9.45904 5.10726C9.45904 5.81901 8.86356 6.31086 8.00038 6.31086ZM11.4133 3.4507C11.4133 4.12366 11.81 4.49897 12.6812 4.71031L13.479 4.9045C13.9755 5.02527 14.2167 5.24094 14.2167 5.56023C14.2167 5.98732 13.7688 6.28497 13.1432 6.28497C12.5478 6.28497 12.1767 6.03476 12.0512 5.64213H11.2879C11.3701 6.41431 12.0813 6.91049 13.1167 6.91049C14.1743 6.91049 14.9809 6.33674 14.9809 5.50413C14.9809 4.83541 14.5577 4.45586 13.6822 4.24444L12.9656 4.07189C12.4179 3.93813 12.159 3.73969 12.159 3.42049C12.159 3.0063 12.5911 2.72588 13.1432 2.72588C13.7034 2.72588 14.0665 2.97184 14.1654 3.34282H14.8988C14.7998 2.57922 14.1222 2.09612 13.1468 2.09612C12.159 2.09612 11.4133 2.67843 11.4133 3.4507Z" fill="#D1D5DA"/>
</svg>
