<svg preserveAspectRatio="none" width="10" height="8" viewBox="0 0 10 8" fill="none" xmlns="http://www.w3.org/2000/svg">
<path vector-effect="non-scaling-stroke" d="M2.82263 7.48572C4.09928 7.48572 5.00576 6.5925 5.00576 5.34147C5.00576 4.13372 4.147 3.25819 2.96046 3.25819C2.21832 3.25819 1.61047 3.61159 1.3039 4.2159H1.23498C1.2606 2.52488 1.86492 1.6617 2.90039 1.6617C3.53032 1.6617 3.9871 1.98594 4.11698 2.56375H4.91479C4.75576 1.5972 4.00919 0.97168 2.87477 0.97168C1.40375 0.97168 0.480469 2.1971 0.480469 4.33693C0.480469 6.43348 1.46822 7.48572 2.82263 7.48572ZM2.81384 6.80455C2.01604 6.80455 1.40727 6.17461 1.40727 5.34147C1.40727 4.51805 1.99832 3.93141 2.82263 3.93141C3.64693 3.93141 4.22035 4.51806 4.22035 5.36799C4.22035 6.18346 3.61252 6.80455 2.81384 6.80455ZM6.15344 3.96587C6.15344 4.63821 6.55013 5.01369 7.42126 5.22573L8.21907 5.41923C8.7156 5.54027 8.95676 5.75583 8.95676 6.07477C8.95676 6.50239 8.50885 6.80013 7.88334 6.80013C7.28786 6.80013 6.91677 6.5501 6.79131 6.15694H6.02801C6.11017 6.92912 6.82134 7.42565 7.85681 7.42565C8.91436 7.42565 9.72103 6.85138 9.72103 6.01912C9.72103 5.35031 9.29781 4.9704 8.42226 4.75924L7.70576 4.58697C7.15799 4.45356 6.89911 4.25477 6.89911 3.93583C6.89911 3.52147 7.33115 3.24051 7.88334 3.24051C8.44348 3.24051 8.80658 3.487 8.90553 3.85807H9.63885C9.5399 3.09384 8.86223 2.61146 7.88684 2.61146C6.89909 2.61146 6.15344 3.19369 6.15344 3.96587Z" fill="#D1D5DA"/>
</svg>
