<svg preserveAspectRatio="none" width="13" height="13" viewBox="0 0 13 13" fill="none" xmlns="http://www.w3.org/2000/svg">
<path vector-effect="non-scaling-stroke" fill-rule="evenodd" clip-rule="evenodd" d="M6.4677 12.5956C9.88331 12.5956 12.6522 9.82667 12.6522 6.41106C12.6522 2.99545 9.88331 0.226562 6.4677 0.226562C3.05209 0.226562 0.283203 2.99545 0.283203 6.41106C0.283203 9.82667 3.05209 12.5956 6.4677 12.5956ZM9.3903 5.08166C9.61648 4.85522 9.61648 4.48812 9.3903 4.26168C9.16324 4.03524 8.79661 4.03524 8.57043 4.26168L5.50116 7.33052L4.36497 6.19434C4.13879 5.9679 3.77127 5.9679 3.5451 6.19434C3.31892 6.42078 3.31892 6.78787 3.5451 7.01431L5.09122 8.56044C5.3174 8.78679 5.68492 8.78679 5.91109 8.56044L9.3903 5.08166Z" fill="#28A745"/>
</svg>
