<svg preserveAspectRatio="none" width="10" height="7" viewBox="0 0 10 7" fill="none" xmlns="http://www.w3.org/2000/svg">
<path vector-effect="non-scaling-stroke" d="M2.82263 6.97083C4.09928 6.97083 5.00576 6.07788 5.00576 4.82684C5.00576 3.61892 4.147 2.74319 2.96046 2.74319C2.21832 2.74319 1.61047 3.09695 1.3039 3.70091H1.23498C1.2606 2.0098 1.86492 1.14698 2.90039 1.14698C3.53032 1.14698 3.9871 1.47052 4.11698 2.04859H4.91479C4.75576 1.08231 4.00919 0.456787 2.87477 0.456787C1.40375 0.456787 0.480469 1.68193 0.480469 3.82168C0.480469 5.91823 1.46822 6.97083 2.82263 6.97083ZM2.81384 6.28921C2.01604 6.28921 1.40727 5.65945 1.40727 4.82684C1.40727 4.00289 1.99832 3.41616 2.82263 3.41616C3.64693 3.41616 4.22035 4.00289 4.22035 4.85273C4.22035 5.66802 3.61252 6.28921 2.81384 6.28921ZM6.15344 3.4507C6.15344 4.12366 6.55013 4.49897 7.42126 4.71031L8.21907 4.9045C8.7156 5.02527 8.95676 5.24094 8.95676 5.56023C8.95676 5.98732 8.50885 6.28497 7.88334 6.28497C7.28786 6.28497 6.91677 6.03476 6.79131 5.64213H6.02801C6.11017 6.41431 6.82134 6.91049 7.85681 6.91049C8.91436 6.91049 9.72103 6.33674 9.72103 5.50413C9.72103 4.83541 9.29781 4.45586 8.42226 4.24444L7.70576 4.07189C7.15799 3.93813 6.89911 3.73969 6.89911 3.42049C6.89911 3.0063 7.33115 2.72588 7.88334 2.72588C8.44348 2.72588 8.80658 2.97184 8.90553 3.34282H9.63885C9.5399 2.57922 8.86223 2.09612 7.88684 2.09612C6.89909 2.09612 6.15344 2.67843 6.15344 3.4507Z" fill="#D1D5DA"/>
</svg>
