<svg preserveAspectRatio="none" width="18" height="17" viewBox="0 0 18 17" fill="none" xmlns="http://www.w3.org/2000/svg">
<path vector-effect="non-scaling-stroke" d="M16.4186 5.26486C14.7439 1.16796 10.065 -0.795536 5.96809 0.879264C1.87109 2.55396 -0.0924128 7.23286 1.58239 11.3298C3.25719 15.4268 7.93598 17.3903 12.0329 15.7155C12.0834 15.6949 12.1335 15.6738 12.1832 15.6523C8.58019 17.0272 4.51969 15.2801 3.05259 11.6912C1.56389 8.04946 3.30929 3.89046 6.95099 2.40176C10.5927 0.913063 14.7517 2.65846 16.2404 6.30016C17.0284 8.22776 16.9103 10.3003 16.0845 12.045C17.1548 10.0193 17.3533 7.55146 16.4186 5.26486Z" fill="url(#paint0_linear_1_2699)" fill-opacity="0.5"/>
<defs>
<linearGradient vector-effect="non-scaling-stroke" id="paint0_linear_1_2699" x1="11.95" y1="7.35136" x2="8.72219" y2="1.78606" gradientUnits="userSpaceOnUse">
<stop stop-color="#368466" stop-opacity="0"/>
<stop offset="1" stop-color="#28C84D"/>
</linearGradient>
</defs>
</svg>
