<svg preserveAspectRatio="none" width="15" height="15" viewBox="0 0 15 15" fill="none" xmlns="http://www.w3.org/2000/svg">
<path vector-effect="non-scaling-stroke" d="M6.3908 1.1887C6.647 0.127203 8.1569 0.127203 8.4131 1.1887L9.2755 4.7613C9.3671 5.1406 9.6632 5.4368 10.0426 5.5284L13.6152 6.3908C14.6767 6.647 14.6767 8.15691 13.6152 8.41311L10.0426 9.27551C9.6632 9.36711 9.3671 9.6632 9.2755 10.0426L8.4131 13.6152C8.1569 14.6767 6.647 14.6767 6.3908 13.6152L5.5284 10.0426C5.4368 9.6632 5.1406 9.36711 4.7613 9.27551L1.1887 8.41311C0.127203 8.15691 0.127203 6.647 1.1887 6.3908L4.7613 5.5284C5.1406 5.4368 5.4368 5.1406 5.5284 4.7613L6.3908 1.1887Z" fill="white"/>
</svg>
