<svg preserveAspectRatio="none" width="83" height="27" viewBox="0 0 83 27" fill="none" xmlns="http://www.w3.org/2000/svg">
<path vector-effect="non-scaling-stroke" d="M5.17215 0.591103C5.41853 0.555708 5.66635 0.53107 5.91489 0.517241C6.41512 0.467991 6.919 0.467991 7.41923 0.517241C7.6547 0.529329 7.91571 0.554839 8.19962 0.591103L12.3802 13.9271C11.888 13.9996 11.3911 14.0364 10.8934 14.0372C10.4238 14.0372 9.96498 14.0009 9.51961 13.9271L8.77553 11.2556H4.35407L3.59248 13.9271C2.71926 14.0759 1.82709 14.0759 0.953866 13.9271L5.17215 0.591103ZM8.14446 9.01121L6.60247 3.41033L4.98513 9.01121H8.14446ZM13.8254 4.31964C13.9989 4.28203 14.1658 4.25786 14.3259 4.24577C14.4995 4.23234 14.6919 4.22696 14.9031 4.22696C15.249 4.22696 15.6028 4.26323 15.9621 4.33845C15.9984 4.40023 16.0294 4.49291 16.0549 4.61648C16.0913 4.72796 16.1222 4.85153 16.1478 4.98718C16.1841 5.12092 16.2089 5.25755 16.2218 5.39552C16.246 5.51909 16.2648 5.62383 16.2769 5.71113C16.3935 5.50581 16.5306 5.31278 16.686 5.13495C16.8506 4.93405 17.0447 4.75922 17.2619 4.61648C17.4973 4.46739 17.757 4.35054 18.0423 4.26323C18.3276 4.16519 18.6438 4.11551 18.9896 4.11551C19.5224 4.11551 20.0176 4.21487 20.4764 4.41231C20.952 4.61322 21.3723 4.92504 21.7022 5.32161C22.0493 5.71649 22.3158 6.2175 22.5015 6.82325C22.6992 7.429 22.7988 8.14622 22.7988 8.97493C22.7988 9.77812 22.6818 10.5021 22.4463 11.1441C22.2108 11.7754 21.8704 12.3126 21.4237 12.7586C20.9583 13.2161 20.4012 13.5699 19.7888 13.7968C19.1443 14.0318 18.4137 14.1487 17.5969 14.1487C17.3857 14.1487 17.1758 14.1366 16.9645 14.1124C16.7963 14.103 16.6287 14.0842 16.4626 14.056V18.3218C16.2349 18.3584 16.0054 18.383 15.7751 18.3957C15.3484 18.4211 14.9207 18.4211 14.4941 18.3957C14.2701 18.3823 14.0469 18.3577 13.8254 18.3218V4.31964ZM16.4626 11.8868C16.7977 11.9849 17.1811 12.0346 17.6158 12.0346C18.3827 12.0346 18.9721 11.7875 19.3798 11.2932C19.7888 10.7989 19.9934 10.0508 19.9934 9.04883C19.9934 8.66604 19.9624 8.31277 19.9005 7.99177C19.8509 7.68985 19.7436 7.40027 19.5843 7.13887C19.4382 6.89811 19.2304 6.70072 18.9822 6.56707C18.734 6.43341 18.4546 6.36837 18.1728 6.37868C17.8633 6.37868 17.5969 6.44047 17.3736 6.56403C17.1613 6.67728 16.9819 6.84335 16.8528 7.04619C16.7099 7.25984 16.609 7.49871 16.5555 7.75001C16.4921 8.03622 16.4609 8.32858 16.4626 8.62169V11.8868ZM24.8023 4.31964C24.9759 4.28203 25.1427 4.25786 25.3042 4.24577C25.4778 4.23234 25.6689 4.22696 25.8801 4.22696C26.2259 4.22696 26.5798 4.26323 26.939 4.33845C26.9754 4.40023 27.0063 4.49291 27.0319 4.61648C27.0682 4.72796 27.0992 4.85153 27.1247 4.98718C27.1611 5.12092 27.1858 5.25755 27.1987 5.39552C27.223 5.51909 27.2418 5.62383 27.2539 5.71113C27.3709 5.5061 27.508 5.31312 27.663 5.13495C27.8244 4.93751 28.0168 4.76422 28.2388 4.61648C28.4743 4.46739 28.7354 4.35054 29.0193 4.26323C29.3045 4.16519 29.6207 4.11551 29.9665 4.11551C30.4994 4.11551 30.9959 4.21487 31.4534 4.41231C31.9289 4.61322 32.3493 4.92504 32.6792 5.32161C33.0263 5.71649 33.2927 6.2175 33.4784 6.82325C33.6775 7.429 33.7758 8.14622 33.7758 8.97493C33.7758 9.77812 33.6587 10.5021 33.4232 11.1441C33.1878 11.7754 32.8473 12.3126 32.4006 12.7586C31.9353 13.2161 31.3781 13.5699 30.7658 13.7968C30.1226 14.0318 29.3906 14.1487 28.5739 14.1487C28.3626 14.1487 28.1527 14.1366 27.9415 14.1124C27.7737 14.1031 27.6066 14.0843 27.4409 14.056V18.3218C27.2132 18.3583 26.9837 18.383 26.7534 18.3957C26.3263 18.421 25.8981 18.421 25.4711 18.3957C25.2471 18.3823 25.0238 18.3577 24.8023 18.3218V4.31964ZM27.4409 11.8868C27.7746 11.9849 28.1581 12.0346 28.5927 12.0346C29.3597 12.0346 29.949 11.7875 30.3567 11.2932C30.7658 10.7989 30.9703 10.0508 30.9703 9.04883C30.9703 8.66604 30.9394 8.31277 30.8775 7.99177C30.8279 7.68985 30.7205 7.40027 30.5613 7.13887C30.4155 6.89781 30.2077 6.70019 29.9595 6.56649C29.7112 6.4328 29.4316 6.36794 29.1498 6.37868C28.8403 6.37868 28.5739 6.44047 28.3505 6.56403C28.1384 6.67697 27.9594 6.84313 27.8312 7.04619C27.6877 7.25954 27.5867 7.49852 27.5338 7.75001C27.4704 8.03622 27.4393 8.32858 27.4409 8.62169V11.8868ZM35.8345 4.33845C36.0201 4.30084 36.1937 4.27667 36.3552 4.26323C36.719 4.21344 37.088 4.21344 37.4518 4.26323C37.6375 4.28875 37.8165 4.31966 37.99 4.35726C38.0364 4.44408 38.0678 4.53807 38.0829 4.63529C38.1586 4.88291 38.2087 5.13767 38.2322 5.39552C38.2564 5.51909 38.2753 5.62383 38.2874 5.71113C38.5665 5.32064 38.9052 4.97619 39.2912 4.69034C39.6868 4.38142 40.1833 4.22696 40.7767 4.22696C40.9004 4.22696 41.0431 4.23234 41.2045 4.24577C41.366 4.25786 41.4831 4.27669 41.5571 4.30086C41.5826 4.42443 41.6015 4.56679 41.6136 4.72797C41.6427 5.12307 41.6364 5.51997 41.5947 5.91395C41.584 6.15121 41.553 6.38711 41.5019 6.61908C41.3486 6.593 41.1932 6.58044 41.0377 6.5815H40.7403C40.5291 6.5815 40.2936 6.60701 40.0339 6.65671C39.7742 6.69298 39.5266 6.80444 39.2912 6.98979C39.0557 7.17514 38.8579 7.45318 38.6964 7.82523C38.5471 8.19593 38.4731 8.71439 38.4731 9.38326V13.9445C38.2517 13.9815 38.0284 14.0066 37.8043 14.0197C37.371 14.0432 36.9366 14.0432 36.5032 14.0197C36.2792 14.0052 36.0561 13.9801 35.8345 13.9445V4.33845ZM47.1074 14.1487C46.327 14.1487 45.6462 14.0251 45.0636 13.778C44.515 13.5344 44.0267 13.1736 43.6332 12.7209C43.2521 12.2466 42.962 11.7061 42.7775 11.1267C42.5873 10.4887 42.4934 9.82591 42.499 9.16028C42.499 8.45514 42.5918 7.79432 42.7775 7.17514C42.9766 6.5573 43.2605 6.02545 43.6332 5.58087C44.0221 5.11862 44.5112 4.75069 45.0636 4.50499C45.6462 4.24576 46.327 4.11551 47.1074 4.11551C47.8878 4.11551 48.5687 4.24576 49.1513 4.50499C49.7326 4.76421 50.2157 5.12286 50.6005 5.58087C50.984 6.02545 51.2692 6.5573 51.4549 7.17514C51.6406 7.79432 51.7334 8.45514 51.7334 9.16028C51.7334 9.86543 51.6406 10.5196 51.4549 11.1267C51.2692 11.7324 50.984 12.2629 50.6005 12.7209C50.2018 13.1761 49.7069 13.5372 49.1513 13.778C48.5687 14.0251 47.8878 14.1487 47.1074 14.1487ZM47.1074 12.1461C47.8004 12.1461 48.2969 11.8922 48.5929 11.3859C48.9037 10.8661 49.0585 10.1247 49.0585 9.16028C49.0585 8.19592 48.9037 7.45987 48.5929 6.95351C48.2969 6.43372 47.8004 6.17451 47.1074 6.17451C46.4252 6.17451 45.9301 6.43372 45.6206 6.95351C45.3232 7.45987 45.1752 8.19592 45.1752 9.16028C45.1752 10.1247 45.3232 10.8661 45.6206 11.3859C45.9301 11.8922 46.4252 12.1461 47.1074 12.1461ZM52.2447 4.35726C52.514 4.29838 52.7876 4.26109 53.0628 4.24577C53.533 4.22033 54.0042 4.22033 54.4743 4.24577C54.7232 4.25786 54.952 4.28875 55.1619 4.33845L57.2623 11.4785L59.3237 4.33845C59.5349 4.30084 59.7583 4.27667 59.9924 4.26323C60.2279 4.23906 60.4633 4.22696 60.6988 4.22696C60.8845 4.22696 61.0957 4.23234 61.3312 4.24577C61.5788 4.25786 61.8573 4.29414 62.1668 4.35726L58.5257 13.9271C58.2792 13.9649 58.0308 13.9896 57.7817 14.0009C57.5652 14.012 57.3485 14.0183 57.1318 14.0197C56.9461 14.0197 56.7348 14.013 56.4994 14.0009C56.2741 13.9901 56.0503 13.9591 55.8306 13.9083L52.2447 4.35726ZM65.2952 9.93932C65.345 10.6807 65.606 11.2193 66.0756 11.5524C66.5465 11.8868 67.1668 12.0534 67.9338 12.0534C68.355 12.0534 68.7828 12.0158 69.2161 11.9419C69.6615 11.856 70.0826 11.7378 70.4796 11.59C70.6155 11.8372 70.7339 12.134 70.8321 12.4805C70.9339 12.8429 70.9904 13.2164 71.0003 13.5926C70.0342 13.9633 68.9443 14.1487 67.7293 14.1487C66.8385 14.1487 66.0702 14.0251 65.4257 13.778C64.836 13.5582 64.3028 13.2099 63.8649 12.7586C63.4619 12.2999 63.1582 11.763 62.9728 11.1817C62.7816 10.5375 62.6877 9.86841 62.6942 9.19656C62.6942 8.49276 62.7938 7.83061 62.9916 7.21277C63.1748 6.62347 63.4714 6.0755 63.8649 5.59964C64.2638 5.14014 64.7584 4.773 65.314 4.5238C65.8966 4.25115 66.5721 4.11551 67.3391 4.11551C68.0078 4.11551 68.6025 4.23235 69.1233 4.4674C69.644 4.70245 70.0826 5.02478 70.4419 5.43175C70.8146 5.84006 71.0931 6.32897 71.2788 6.89711C71.4645 7.45317 71.5574 8.05354 71.5574 8.6969C71.5574 8.93195 71.5452 9.16568 71.5197 9.40073C71.5076 9.62369 71.4887 9.80367 71.4645 9.93932H65.2952ZM69.0681 8.10326C69.0425 7.50959 68.8757 7.03276 68.5662 6.67548C68.2689 6.30344 67.8477 6.11811 67.3027 6.11811C66.6838 6.11811 66.2128 6.29137 65.8899 6.6379C65.5683 6.98442 65.3759 7.47199 65.314 8.10326H69.0681ZM79.3884 0.369516C79.604 0.332988 79.8214 0.308296 80.0397 0.295613C80.4725 0.269382 80.9066 0.269382 81.3395 0.295613C81.5628 0.307701 81.7862 0.331909 82.0082 0.369516V13.6114C80.7228 13.9837 79.3893 14.1648 78.051 14.1487C77.3943 14.1487 76.7633 14.0627 76.1564 13.8894C75.5783 13.7128 75.0413 13.4228 74.5768 13.0366C74.1016 12.6177 73.7268 12.0977 73.4801 11.5148C73.2205 10.897 73.0899 10.1435 73.0899 9.25296C73.0899 8.54782 73.2016 7.887 73.425 7.26782C73.6604 6.63789 73.9888 6.09393 74.4099 5.63592C74.8507 5.17418 75.382 4.80798 75.9707 4.56008C76.6091 4.28222 77.2995 4.14346 77.9958 4.1531C78.2178 4.1531 78.4479 4.1652 78.6834 4.18937C78.931 4.20146 79.1664 4.23908 79.3884 4.30086V0.369516ZM79.3884 6.32224C79.1876 6.26924 78.9829 6.232 78.7762 6.21079C78.5855 6.1838 78.3929 6.17166 78.2003 6.17451C77.8434 6.1654 77.4898 6.24537 77.1716 6.40721C76.8535 6.56905 76.5808 6.80763 76.3785 7.10128C76.1697 7.39832 76.0186 7.7318 75.9331 8.08444C75.8451 8.46771 75.8013 8.85976 75.8026 9.25296C75.8026 9.75932 75.8644 10.1918 75.9882 10.5504C76.1134 10.897 76.2802 11.175 76.4901 11.3859C76.7135 11.5954 76.9732 11.7499 77.2705 11.8493C77.5679 11.9352 77.8895 11.9795 78.2367 11.9795C78.4479 11.9795 78.639 11.9728 78.8125 11.9607C78.9861 11.9352 79.1785 11.8922 79.3884 11.8304V6.32224ZM0.766846 25.5142C0.766846 25.0871 1.11398 24.742 1.54187 24.742H18.5724C18.7776 24.742 18.9744 24.8233 19.1195 24.9681C19.2646 25.113 19.3461 25.3094 19.3461 25.5142C19.3461 25.7191 19.2646 25.9155 19.1195 26.0603C18.9744 26.2052 18.7776 26.2866 18.5724 26.2866H1.54187C1.44015 26.2867 1.33939 26.2669 1.24537 26.2281C1.15135 26.1894 1.06591 26.1326 0.993923 26.0608C0.921937 25.9891 0.864819 25.9039 0.825853 25.8101C0.786887 25.7163 0.766846 25.6158 0.766846 25.5142Z" fill="#1E1F20"/>
</svg>
