<svg preserveAspectRatio="none" width="5" height="7" viewBox="0 0 5 7" fill="none" xmlns="http://www.w3.org/2000/svg">
<path vector-effect="non-scaling-stroke" d="M1.61561 5.96613L3.12121 2.97814C3.29861 2.61414 3.31511 2.21713 3.17901 1.86213C3.06231 1.55813 2.83051 1.29913 2.51581 1.13913C2.16111 0.959132 1.75631 0.950131 1.41271 1.08713C1.09951 1.20813 0.836311 1.43013 0.672411 1.74713L0.517809 2.06014C0.475309 2.15514 0.358413 2.19513 0.276613 2.14713C0.181013 2.10413 0.14141 1.98813 0.18931 1.90613L0.342112 1.58813C0.549212 1.19213 0.890408 0.897134 1.28191 0.747134C1.71471 0.580134 2.21591 0.578133 2.67791 0.818133C3.08821 1.02013 3.37481 1.35413 3.52151 1.73613C3.68951 2.17413 3.68421 2.68314 3.45511 3.14614L2.16611 5.70713L4.51471 4.80513C4.60501 4.76513 4.71161 4.80913 4.75051 4.91013C4.78581 5.00213 4.73761 5.11114 4.64551 5.14614L1.88141 6.21714L1.85381 6.22814C1.80311 6.24814 1.74711 6.25313 1.70541 6.22713C1.61091 6.17313 1.57021 6.06714 1.61281 5.97214L1.61561 5.96613Z" fill="#F8F8F8"/>
</svg>
