<svg preserveAspectRatio="none" width="10" height="7" viewBox="0 0 10 7" fill="none" xmlns="http://www.w3.org/2000/svg">
<path vector-effect="non-scaling-stroke" fill-rule="evenodd" clip-rule="evenodd" d="M3.70707 0.58975C4.09757 0.98025 4.09757 1.61345 3.70707 2.00395L2.41417 3.29685L3.70707 4.58975C4.09757 4.98025 4.09757 5.61345 3.70707 6.00395C3.31657 6.39445 2.68338 6.39445 2.29288 6.00395L0.292875 4.00395C-0.097625 3.61345 -0.097625 2.98025 0.292875 2.58975L2.29288 0.58975C2.68338 0.19925 3.31657 0.19925 3.70707 0.58975ZM6.29287 0.58975C6.68337 0.19925 7.31657 0.19925 7.70707 0.58975L9.70708 2.58975C10.0976 2.98025 10.0976 3.61345 9.70708 4.00395L7.70707 6.00395C7.31657 6.39445 6.68337 6.39445 6.29287 6.00395C5.90237 5.61345 5.90237 4.98025 6.29287 4.58975L7.58577 3.29685L6.29287 2.00395C5.90237 1.61345 5.90237 0.98025 6.29287 0.58975Z" fill="#2F363D"/>
</svg>
