<svg preserveAspectRatio="none" width="22" height="9" viewBox="0 0 22 9" fill="none" xmlns="http://www.w3.org/2000/svg">
<path vector-effect="non-scaling-stroke" d="M3.37864 0.289673C4.35416 0.289673 5.10633 0.621428 5.63378 1.28493C6.16796 1.94307 6.43573 2.87923 6.43573 4.09879C6.43573 4.94899 6.30924 5.681 6.05628 6.29481C5.80331 6.90728 5.43733 7.37603 4.96101 7.70107C4.49141 8.02611 3.93166 8.18728 3.28177 8.18728C2.8189 8.18728 2.36679 8.11207 1.9268 7.96029C1.51067 7.81197 1.12762 7.58384 0.799232 7.28873L1.26614 6.27332C1.95237 6.80654 2.6063 7.07383 3.22794 7.07383C3.79845 7.07383 4.23845 6.83206 4.54927 6.34854C4.86817 5.85829 5.03366 5.15852 5.04712 4.24922C4.87984 4.58248 4.61586 4.85769 4.28958 5.03899C3.94364 5.23753 3.55023 5.33872 3.15125 5.33179C2.72227 5.33838 2.29938 5.22984 1.9268 5.01749C1.57282 4.80836 1.28401 4.50518 1.09256 4.14177C0.884639 3.74465 0.780062 3.30172 0.788463 2.85371C0.788463 2.36347 0.896113 1.92426 1.11409 1.53476C1.33745 1.14525 1.64558 0.8417 2.03444 0.625456C2.43272 0.402496 2.87945 0.289673 3.37864 0.289673ZM3.45534 4.21699C3.859 4.21699 4.18866 4.08805 4.44163 3.82748C4.69459 3.56826 4.82107 3.22979 4.82107 2.81073C4.82107 2.39302 4.69459 2.0532 4.44163 1.79398C4.31501 1.66134 4.1616 1.55707 3.99157 1.48807C3.82154 1.41906 3.63876 1.38691 3.45534 1.39373C3.05033 1.39373 2.72471 1.52401 2.47982 1.78323C2.24166 2.04246 2.12191 2.38496 2.12191 2.81073C2.12191 3.2365 2.24031 3.579 2.47982 3.83822C2.72471 4.09073 3.05033 4.21699 3.45534 4.21699ZM8.7716 2.74626V4.25057H7.25516V2.74626H8.7716ZM8.7716 6.57553V8.09058H7.25516V6.57553H8.7716ZM15.4051 6.58627H14.3099V8.09058H12.9441V6.58627H9.5843V5.54803L13.1944 0.387721H14.3099V5.4943H15.4051V6.58627ZM12.9441 5.4943V2.56225L10.907 5.4943H12.9441ZM21.4157 6.95429V8.09058H16.6578V6.95429H18.3492V1.98874L16.7776 2.92893V1.68653L18.9224 0.387721H19.7364V6.95563H21.4157V6.95429Z" fill="#1E1F20"/>
</svg>
