<svg preserveAspectRatio="none" width="5" height="6" viewBox="0 0 5 6" fill="none" xmlns="http://www.w3.org/2000/svg">
<path vector-effect="non-scaling-stroke" d="M1.43009 0.598828C2.28209 0.271828 3.21309 0.633831 3.61809 1.41283C3.63209 1.42383 3.63609 1.43283 3.64609 1.44483C3.70609 1.57483 3.7661 1.71583 3.8221 1.86283C4.0751 2.52183 4.2181 3.30683 4.1131 4.02383C3.9981 4.74383 3.5951 5.42683 2.7921 5.77183L2.7831 5.77583C2.6821 5.81483 2.5771 5.77583 2.5411 5.68383C2.5031 5.58183 2.5431 5.48183 2.6411 5.43383C3.3151 5.13783 3.63509 4.60883 3.74109 3.97583C3.79609 3.61183 3.78509 3.22483 3.70909 2.84683C3.54009 3.30283 3.18209 3.67783 2.68509 3.86883C1.78209 4.21483 0.770089 3.77983 0.413089 2.86483C0.067089 1.96283 0.5181 0.948826 1.4211 0.602826L1.43009 0.598828ZM3.35709 1.72483C3.08509 1.01583 2.28509 0.666829 1.56209 0.944829C0.853091 1.21683 0.496101 2.01983 0.766101 2.72483C1.0441 3.44783 1.84609 3.78883 2.55509 3.51683C3.27809 3.23983 3.6351 2.44783 3.3521 1.72583L3.35709 1.72483Z" fill="#F8F8F8"/>
</svg>
