<svg preserveAspectRatio="none" width="22" height="36" viewBox="0 0 22 36" fill="none" xmlns="http://www.w3.org/2000/svg">
<path vector-effect="non-scaling-stroke" d="M4.88247 1.74797H16.6472V0.767578H4.88247V1.74797ZM20.0785 5.17934V30.6695H21.0589V5.17934H20.0785ZM16.6472 34.1009H4.88247V35.0813H16.6472V34.1009ZM1.4511 30.6695V5.17934H0.470703V30.6695H1.4511ZM4.88247 34.1009C2.98737 34.1009 1.4511 32.5646 1.4511 30.6695H0.470703C0.470703 33.1061 2.44592 35.0813 4.88247 35.0813V34.1009ZM20.0785 30.6695C20.0785 32.5646 18.5423 34.1009 16.6472 34.1009V35.0813C19.0837 35.0813 21.0589 33.1061 21.0589 30.6695H20.0785ZM16.6472 1.74797C18.5423 1.74797 20.0785 3.28424 20.0785 5.17934H21.0589C21.0589 2.74279 19.0837 0.767578 16.6472 0.767578V1.74797ZM4.88247 0.767578C2.44592 0.767578 0.470703 2.74279 0.470703 5.17934H1.4511C1.4511 3.28424 2.98737 1.74797 4.88247 1.74797V0.767578Z" fill="url(#paint0_linear_1_2805)"/>
<defs>
<linearGradient vector-effect="non-scaling-stroke" id="paint0_linear_1_2805" x1="0.470704" y1="1.25777" x2="16.6472" y2="34.5911" gradientUnits="userSpaceOnUse">
<stop stop-color="#80CBD0"/>
<stop offset="1" stop-color="#51BBCA"/>
</linearGradient>
</defs>
</svg>
