<svg preserveAspectRatio="none" width="95" height="10" viewBox="0 0 95 10" fill="none" xmlns="http://www.w3.org/2000/svg">
<path vector-effect="non-scaling-stroke" d="M1.64257 5.93705H3.37069L5.07937 9.21652H6.86139L4.95834 5.70152C5.99733 5.32709 6.60163 4.36681 6.60163 3.21322C6.60163 1.54633 5.45397 0.501501 3.62424 0.501501H0.0849609V9.21652H1.64257V5.93705ZM1.64257 1.76376H3.4069C4.3973 1.76376 5.00075 2.3254 5.00075 3.24344C5.00075 4.17951 4.43354 4.71703 3.44314 4.71703H1.64257V1.76376ZM14.084 2.61528H12.5865V6.46247C12.5865 7.45906 12.0555 8.06293 11.0828 8.06293C10.1887 8.06293 9.77253 7.56773 9.77253 6.54102V2.61528H8.2741V6.90334C8.2741 8.44947 9.11962 9.3494 10.5633 9.3494C11.5722 9.3494 12.2181 8.92063 12.5379 8.16568H12.6412V9.21652H14.084V2.61528ZM15.9208 9.21652H17.4183V5.36932C17.4183 4.37883 17.9802 3.75676 18.8735 3.75676C19.7861 3.75676 20.2084 4.27016 20.2084 5.29688V9.21652H21.706V4.94656C21.706 3.37632 20.9029 2.48849 19.4292 2.48849C18.445 2.48849 17.7806 2.93536 17.4669 3.6722H17.3635V2.61528H15.9208V9.21652ZM26.9363 0.501501V9.21652H28.4948V6.33569H30.3855C32.1489 6.33569 33.3805 5.15798 33.3805 3.43666C33.3805 1.68521 32.1913 0.501501 30.4517 0.501501H26.9363ZM28.4948 1.77577H30.0409C31.1647 1.77577 31.7982 2.35561 31.7982 3.43666C31.7982 4.48758 31.1461 5.07945 30.0347 5.07945H28.4948V1.77577ZM35.0053 9.21652H36.5037V5.38142C36.5037 4.41505 37.0532 3.76886 38.0375 3.76886C38.9068 3.76886 39.3662 4.28827 39.3662 5.30897V9.21652H40.8637V4.95867C40.8637 3.38834 40.0059 2.4945 38.5932 2.4945C37.6081 2.4945 36.9021 2.94146 36.5876 3.68431H36.479V0.0605469H35.0053V9.21652ZM44.457 9.32527C45.321 9.32527 46.0455 8.95076 46.4139 8.31058H46.5164V9.21652H47.96V4.70501C47.96 3.30988 47.0058 2.48849 45.3086 2.48849C43.7387 2.48849 42.6458 3.22533 42.5247 4.37883H43.9383C44.077 3.92586 44.5479 3.6783 45.2362 3.6783C46.0455 3.6783 46.4802 4.04663 46.4802 4.70501V5.27266L44.7777 5.37542C43.1706 5.46598 42.2712 6.16049 42.2712 7.3443C42.2712 8.55222 43.1829 9.32527 44.457 9.32527ZM44.8978 8.17169C44.2343 8.17169 43.7563 7.8395 43.7563 7.27176C43.7563 6.72222 44.1495 6.41414 44.9888 6.35981L46.4802 6.25715V6.79467C46.4802 7.57984 45.8043 8.17169 44.8978 8.17169ZM49.7659 9.21652H51.2643V5.36932C51.2643 4.37883 51.8253 3.75676 52.7194 3.75676C53.6312 3.75676 54.0544 4.27016 54.0544 5.29688V9.21652H55.5519V4.94656C55.5519 3.37632 54.7488 2.48849 53.2752 2.48849C52.2909 2.48849 51.6266 2.93536 51.312 3.6722H51.2095V2.61528H49.7659V9.21652ZM57.8049 0.996704V2.65759H56.7597V3.82319H57.8049V7.46507C57.8049 8.73943 58.4083 9.24673 59.9244 9.24673C60.2142 9.24673 60.4925 9.22253 60.7098 9.1803V8.0328C60.5287 8.05092 60.4138 8.06293 60.2027 8.06293C59.5745 8.06293 59.2962 7.76705 59.2962 7.10875V3.82319H60.7098V2.65759H59.2962V0.996704H57.8049ZM64.9974 9.3494C66.9729 9.3494 68.1745 8.05693 68.1745 5.91294C68.1745 3.78096 66.9668 2.48849 64.9974 2.48849C63.0352 2.48849 61.8212 3.78697 61.8212 5.91294C61.8212 8.05693 63.0166 9.3494 64.9974 9.3494ZM64.9974 8.12336C63.9531 8.12336 63.355 7.31408 63.355 5.91894C63.355 4.52381 63.9531 3.71453 64.9974 3.71453C66.0364 3.71453 66.6346 4.52381 66.6346 5.91894C66.6346 7.31408 66.0426 8.12336 64.9974 8.12336ZM69.6844 9.21652H71.1819V5.20022C71.1819 4.37883 71.7324 3.75676 72.4745 3.75676C73.2113 3.75676 73.6708 4.20372 73.6708 4.93446V9.21652H75.1259V5.09154C75.1259 4.33659 75.6392 3.75676 76.4184 3.75676C77.2215 3.75676 77.6262 4.18561 77.6262 5.04322V9.21652H79.1184V4.6748C79.1184 3.30379 78.3215 2.48849 76.998 2.48849C76.0801 2.48849 75.3194 2.95958 74.9933 3.6783H74.8909C74.6126 2.94747 73.9782 2.48849 73.0664 2.48849C72.1909 2.48849 71.5141 2.93537 71.2305 3.6783H71.128V2.61528H69.6844V9.21652ZM80.4534 6.87321C80.4534 8.42534 81.5763 9.43395 83.2435 9.43395C84.9946 9.43395 86.0521 8.41324 86.0521 6.63158V0.501501H84.4936V6.61956C84.4936 7.56773 84.0404 8.06903 83.2249 8.06903C82.4819 8.06903 81.9871 7.59185 81.9748 6.87321H80.4534ZM87.8032 6.8551C87.8819 8.43135 89.2045 9.43395 91.2038 9.43395C93.3171 9.43395 94.6282 8.38311 94.6282 6.692C94.6282 5.36932 93.8852 4.63248 92.1156 4.22784L91.1128 3.99839C90.0314 3.74474 89.5905 3.40044 89.5905 2.80249C89.5905 2.04763 90.2549 1.55234 91.2577 1.55234C92.2119 1.55234 92.8886 2.04153 92.9973 2.82069H94.4887C94.4162 1.3289 93.0936 0.284071 91.2639 0.284071C89.3131 0.284071 88.0205 1.33491 88.0205 2.90524C88.0205 4.19762 88.7636 4.97678 90.3459 5.33911L91.475 5.59885C92.5927 5.85851 93.0698 6.24504 93.0698 6.87922C93.0698 7.62206 92.3267 8.15959 91.3001 8.15959C90.1948 8.15959 89.4218 7.65228 89.3255 6.8551H87.8032Z" fill="#2F363D"/>
</svg>
