<svg preserveAspectRatio="none" width="227" height="137" viewBox="0 0 227 137" fill="none" xmlns="http://www.w3.org/2000/svg">
<path vector-effect="non-scaling-stroke" d="M11.5643 -0.695801C8.63639 -0.695801 6.26331 1.67754 6.26331 4.6052H8.03031C8.03031 2.65342 9.61266 1.0712 11.5643 1.0712V-0.695801ZM77.8268 -0.695801H11.5643V1.0712H77.8268V-0.695801ZM83.1278 4.6052C83.1278 1.67754 80.7547 -0.695801 77.8268 -0.695801V1.0712C79.7784 1.0712 81.3608 2.65342 81.3608 4.6052H83.1278ZM83.1278 11.5171V4.6052H81.3608V11.5171H83.1278ZM221.837 15.2072H86.8182V16.9742H221.837V15.2072ZM227.138 20.5082C227.138 17.5805 224.765 15.2072 221.837 15.2072V16.9742C223.789 16.9742 225.371 18.5565 225.371 20.5082H227.138ZM227.138 131.829V20.5082H225.371V131.829H227.138ZM221.837 137.13C224.765 137.13 227.138 134.757 227.138 131.829H225.371C225.371 133.781 223.789 135.363 221.837 135.363V137.13ZM11.5643 137.13H221.837V135.363H11.5643V137.13ZM6.26331 131.829C6.26331 134.757 8.63639 137.13 11.5643 137.13V135.363C9.61266 135.363 8.03031 133.781 8.03031 131.829H6.26331ZM6.26331 44.303V131.829H8.03031V44.303H6.26331ZM6.26331 42.5957C3.33539 42.5957 0.962312 40.2223 0.962312 37.2947H-0.804688C-0.804688 41.1982 2.36001 44.3627 6.26331 44.3627V42.5957ZM0.962312 37.2947C0.962312 34.367 3.33539 31.9937 6.26331 31.9937V30.2267C2.36001 30.2267 -0.804688 33.3911 -0.804688 37.2947H0.962312ZM6.26331 22.2752V30.2863H8.03031V22.2752H6.26331ZM6.26331 20.5082V22.2752H8.03031V20.5082H6.26331ZM6.26331 4.6052V20.5082H8.03031V4.6052H6.26331ZM6.26331 31.9937C7.13709 31.9937 8.03031 31.3203 8.03031 30.2863H6.26331C6.26331 30.2703 6.26775 30.253 6.27393 30.2388C6.28012 30.2258 6.28628 30.2202 6.28628 30.2197C6.28716 30.2193 6.28452 30.2215 6.27922 30.2237C6.27392 30.2257 6.26861 30.2267 6.26331 30.2267V31.9937ZM8.03031 44.303C8.03031 43.2691 7.13709 42.5957 6.26331 42.5957V44.3627C6.26861 44.3627 6.27392 44.3637 6.27922 44.3657C6.28452 44.3679 6.28716 44.3701 6.28628 44.3697C6.28628 44.3691 6.28012 44.3636 6.27393 44.3506C6.26775 44.3364 6.26331 44.319 6.26331 44.303H8.03031ZM81.3608 11.5171C81.3608 14.531 83.8037 16.9742 86.8182 16.9742V15.2072C84.7799 15.2072 83.1278 13.555 83.1278 11.5171H81.3608Z" fill="#E1E4E8"/>
</svg>
