<svg preserveAspectRatio="none" width="125" height="13" viewBox="0 0 125 13" fill="none" xmlns="http://www.w3.org/2000/svg">
<path vector-effect="non-scaling-stroke" d="M0.794922 0.996775V9.71188H4.0621C6.67108 9.71188 8.16333 8.11142 8.16333 5.31506C8.16333 2.57921 6.65341 0.996775 4.0621 0.996775H0.794922ZM2.35253 2.30736H3.85713C5.56582 2.30736 6.57477 3.41871 6.57477 5.33926C6.57477 7.30213 5.59056 8.4013 3.85713 8.4013H2.35253V2.30736ZM14.0996 7.9061C13.8822 8.4013 13.3689 8.67916 12.6259 8.67916C11.6416 8.67916 11.0073 7.97854 10.9711 6.86118V6.78273H15.5856V6.30555C15.5856 4.23401 14.4565 2.98385 12.572 2.98385C10.6574 2.98385 9.46739 4.31856 9.46739 6.43842C9.46739 8.55229 10.6389 9.84476 12.5843 9.84476C14.1419 9.84476 15.2472 9.09582 15.5193 7.9061H14.0996ZM12.5658 4.14946C13.4661 4.14946 14.058 4.78363 14.0881 5.78614H10.9773C11.0435 4.79565 11.6717 4.14946 12.5658 4.14946ZM20.6887 3.00197C19.7831 3.00197 19.0162 3.45493 18.6354 4.20379H18.533V3.11064H17.0893V11.9042H18.5868V8.70928H18.6902C19.0277 9.4099 19.7593 9.82055 20.7073 9.82055C22.3744 9.82055 23.4125 8.50997 23.4125 6.41431C23.4125 4.30045 22.3621 3.00197 20.6887 3.00197ZM20.2178 8.57641C19.1973 8.57641 18.563 7.74901 18.5568 6.41431C18.563 5.07952 19.2035 4.25212 20.224 4.25212C21.2506 4.25212 21.8726 5.0614 21.8726 6.41431C21.8726 7.76712 21.2568 8.57641 20.2178 8.57641ZM24.9772 9.71188H26.4748V0.555908H24.9772V9.71188ZM31.2218 9.84476C33.1973 9.84476 34.3989 8.55229 34.3989 6.40821C34.3989 4.27633 33.1911 2.98385 31.2218 2.98385C29.2595 2.98385 28.0456 4.28233 28.0456 6.40821C28.0456 8.55229 29.241 9.84476 31.2218 9.84476ZM31.2218 8.61872C30.1775 8.61872 29.5794 7.80944 29.5794 6.41431C29.5794 5.01917 30.1775 4.20989 31.2218 4.20989C32.2608 4.20989 32.8589 5.01917 32.8589 6.41431C32.8589 7.80944 32.267 8.61872 31.2218 8.61872ZM36.3673 12.1035C37.8471 12.1035 38.5539 11.566 39.1159 9.94141L41.5013 3.11064H39.919L38.379 8.29263H38.2765L36.7304 3.11064H35.0871L37.4487 9.736L37.37 10.0441C37.1766 10.6661 36.8205 10.9077 36.1862 10.9077C36.0837 10.9077 35.8601 10.9017 35.7762 10.8896V12.0794C35.8725 12.0975 36.2771 12.1035 36.3673 12.1035ZM54.9393 3.11064H53.4471L52.3542 8.0691H52.2517L50.9715 3.11064H49.5403L48.2715 8.0691H48.1691L47.07 3.11064H45.5601L47.3474 9.71188H48.9059L50.1861 4.92852H50.2886L51.575 9.71188H53.152L54.9393 3.11064ZM60.2907 7.9061C60.0733 8.4013 59.5592 8.67916 58.817 8.67916C57.8319 8.67916 57.1985 7.97854 57.1622 6.86118V6.78273H61.7759V6.30555C61.7759 4.23401 60.6467 2.98385 58.7622 2.98385C56.8477 2.98385 55.6576 4.31856 55.6576 6.43842C55.6576 8.55229 56.83 9.84476 58.7746 9.84476C60.3322 9.84476 61.4375 9.09582 61.7096 7.9061H60.2907ZM58.756 4.14946C59.6563 4.14946 60.2483 4.78363 60.2783 5.78614H57.1675C57.2347 4.79565 57.8628 4.14946 58.756 4.14946ZM66.9523 9.82055C68.6186 9.82055 69.6637 8.50997 69.6637 6.41431C69.6637 4.30645 68.6248 3.00197 66.9523 3.00197C66.0458 3.00197 65.2851 3.44283 64.9405 4.16156H64.8381V0.555908H63.3405V9.71188H64.7841V8.66705H64.8867C65.2613 9.39179 66.0281 9.82055 66.9523 9.82055ZM66.4805 4.25212C67.5018 4.25212 68.1238 5.0675 68.1238 6.41431C68.1238 7.76111 67.508 8.57641 66.4805 8.57641C65.4539 8.57641 64.8142 7.74901 64.8142 6.41431C64.8142 5.07952 65.4601 4.25212 66.4805 4.25212ZM76.2829 9.82055C77.147 9.82055 77.8715 9.44612 78.2399 8.80594H78.3423V9.71188H79.786V5.20038C79.786 3.80524 78.8318 2.98385 77.1346 2.98385C75.5646 2.98385 74.4708 3.72069 74.3507 4.87419H75.7634C75.903 4.42122 76.3739 4.17357 77.0622 4.17357C77.8715 4.17357 78.3061 4.54199 78.3061 5.20038V5.76802L76.6027 5.87069C74.9965 5.96134 74.0971 6.65586 74.0971 7.83966C74.0971 9.04749 75.0089 9.82055 76.2829 9.82055ZM76.7238 8.66705C76.0594 8.66705 75.5823 8.33486 75.5823 7.76712C75.5823 7.21758 75.9754 6.90951 76.8148 6.85517L78.3061 6.75251V7.29003C78.3061 8.0752 77.6303 8.66705 76.7238 8.66705ZM85.1912 3.00197C84.2857 3.00197 83.5188 3.45493 83.138 4.20379H83.0355V3.11064H81.5919V11.9042H83.0894V8.70928H83.1919C83.5303 9.4099 84.2609 9.82055 85.2098 9.82055C86.8761 9.82055 87.9151 8.50997 87.9151 6.41431C87.9151 4.30045 86.8646 3.00197 85.1912 3.00197ZM84.7203 8.57641C83.6999 8.57641 83.0655 7.74901 83.0593 6.41431C83.0655 5.07952 83.7061 4.25212 84.7265 4.25212C85.7531 4.25212 86.3751 5.0614 86.3751 6.41431C86.3751 7.76712 85.7593 8.57641 84.7203 8.57641ZM93.019 3.00197C92.1126 3.00197 91.3457 3.45493 90.9649 4.20379H90.8624V3.11064H89.4188V11.9042H90.9172V8.70928H91.0197C91.3581 9.4099 92.0887 9.82055 93.0367 9.82055C94.7039 9.82055 95.7429 8.50997 95.7429 6.41431C95.7429 4.30045 94.6915 3.00197 93.019 3.00197ZM92.5472 8.57641C91.5268 8.57641 90.8924 7.74901 90.8863 6.41431C90.8924 5.07952 91.533 4.25212 92.5534 4.25212C93.5801 4.25212 94.202 5.0614 94.202 6.41431C94.202 7.76712 93.5862 8.57641 92.5472 8.57641ZM106.294 3.11064H104.796V6.95784C104.796 7.95433 104.264 8.5583 103.291 8.5583C102.398 8.5583 101.981 8.06309 101.981 7.03638V3.11064H100.484V7.3987C100.484 8.94483 101.329 9.84476 102.773 9.84476C103.781 9.84476 104.428 9.41591 104.748 8.66096H104.85V9.71188H106.294V3.11064ZM107.978 4.99496C107.978 5.98545 108.577 6.5653 109.844 6.85517L111.017 7.12694C111.645 7.27192 111.929 7.51347 111.929 7.8879C111.929 8.38919 111.403 8.73349 110.648 8.73349C109.899 8.73349 109.434 8.43151 109.29 7.94232H107.81C107.925 9.13213 108.963 9.84476 110.612 9.84476C112.261 9.84476 113.426 9.00526 113.426 7.743C113.426 6.77062 112.84 6.2331 111.578 5.94323L110.412 5.68347C109.748 5.52648 109.434 5.29094 109.434 4.91651C109.434 4.42732 109.948 4.09512 110.63 4.09512C111.33 4.09512 111.771 4.3971 111.88 4.86209H113.287C113.179 3.67236 112.195 2.98385 110.624 2.98385C109.066 2.98385 107.978 3.81125 107.978 4.99496ZM118.976 6.88539V5.51437H115.008V6.88539H118.976ZM122.981 9.71188H124.539V0.996775H122.986L120.71 2.59732V4.0649L122.878 2.53088H122.981V9.71188Z" fill="#2F363D"/>
</svg>
