<svg preserveAspectRatio="none" width="216" height="84" viewBox="0 0 216 84" fill="none" xmlns="http://www.w3.org/2000/svg">
<path vector-effect="non-scaling-stroke" fill-rule="evenodd" clip-rule="evenodd" d="M12.7381 0.187012C10.2988 0.187012 8.32064 2.16479 8.32064 4.60451V20.5075V22.2745V29.5739C8.32064 30.4677 7.44774 31.1095 6.55364 31.1095C3.13803 31.1095 0.369141 33.8784 0.369141 37.294C0.369141 40.7096 3.13803 43.4785 6.55364 43.4785C7.44774 43.4785 8.32064 44.1203 8.32064 45.0141V78.8185C8.32064 81.2582 10.2988 83.236 12.7381 83.236H203.574C206.013 83.236 207.992 81.2582 207.992 78.8185V44.3023C207.992 43.8344 208.407 43.4785 208.875 43.4785C212.291 43.4785 215.06 40.7096 215.06 37.294C215.06 33.8784 212.291 31.1095 208.875 31.1095C208.407 31.1095 207.992 30.7535 207.992 30.2856V20.5075C207.992 18.0678 206.013 16.09 203.574 16.09H72.8161C70.3768 16.09 68.3986 14.1122 68.3986 11.6725V4.60451C68.3986 2.16479 66.4205 0.187012 63.9811 0.187012H12.7381Z" fill="white"/>
</svg>
