<svg preserveAspectRatio="none" width="112" height="9" viewBox="0 0 112 9" fill="none" xmlns="http://www.w3.org/2000/svg">
<path vector-effect="non-scaling-stroke" d="M1.00817 0.38343C1.21293 0.351944 1.41996 0.337591 1.62712 0.340473C1.72803 0.340473 1.83567 0.344497 1.95004 0.351212C2.05233 0.356905 2.15427 0.367645 2.25549 0.38343L4.27111 5.25228L6.29751 0.38343C6.38703 0.367945 6.4773 0.357203 6.56796 0.351212C6.77722 0.338397 6.98707 0.338397 7.19633 0.351212C7.31205 0.359271 7.41028 0.369999 7.48966 0.38343L7.85834 8.16283C7.67875 8.18922 7.49759 8.20359 7.31608 8.20583C7.13805 8.2057 6.96032 8.19131 6.78459 8.16283L6.53567 2.11473L4.62768 6.5511C4.34389 6.59193 4.05571 6.59193 3.77192 6.5511L1.92852 2.08251L1.68094 8.16283C1.51584 8.18951 1.34898 8.20389 1.18174 8.20583C1.00731 8.20502 0.833205 8.19063 0.661011 8.16283L1.00817 0.38343ZM10.3557 5.65254C10.3691 6.25829 10.5252 6.70152 10.8212 6.98358C11.1253 7.26429 11.5694 7.40531 12.1547 7.40531C12.6673 7.40531 13.1544 7.31533 13.6173 7.13401C13.6751 7.2428 13.7222 7.37579 13.7586 7.53562C13.7949 7.68605 13.8164 7.8378 13.8232 7.98957C13.5688 8.09475 13.3034 8.1709 13.032 8.21657C12.7204 8.26963 12.4048 8.2948 12.0887 8.29178C11.5842 8.29178 11.1495 8.22331 10.7889 8.08631C10.4487 7.95637 10.1414 7.75319 9.88877 7.49127C9.65569 7.22872 9.4822 6.91901 9.38015 6.58332C9.26824 6.20768 9.21336 5.81742 9.21734 5.42554C9.21734 5.01454 9.26847 4.63174 9.36939 4.2785C9.46678 3.93846 9.63251 3.62177 9.85647 3.34772C10.0731 3.08178 10.3449 2.87224 10.6692 2.72046C11.0015 2.56198 11.3917 2.48277 11.8398 2.48277C12.2233 2.48277 12.5583 2.54722 12.8476 2.67751C13.1369 2.80779 13.3791 2.98775 13.5742 3.21877C13.7693 3.44173 13.9173 3.7117 14.0182 4.03003C14.1192 4.34029 14.1703 4.67878 14.1703 5.0468C14.1703 5.14754 14.1663 5.25629 14.1595 5.3718C14.1528 5.47925 14.1447 5.57329 14.138 5.65254H10.3557ZM13.1087 4.85202C13.1087 4.65055 13.0791 4.45848 13.0212 4.2785C12.9761 4.10182 12.895 3.93631 12.783 3.79229C12.6784 3.65245 12.5406 3.54075 12.3821 3.46724C12.2047 3.37591 12.007 3.3311 11.8075 3.33698C11.3662 3.33698 11.0271 3.4713 10.7889 3.73724C10.5575 4.00452 10.4162 4.37655 10.3664 4.85202H13.1087ZM18.5124 5.55449C18.3754 5.53775 18.2381 5.5234 18.1006 5.51149C17.9601 5.49885 17.8192 5.4917 17.6781 5.49002C17.2301 5.49002 16.887 5.57329 16.6488 5.73849C16.4174 5.90504 16.3016 6.15754 16.3016 6.49601C16.3016 6.71226 16.342 6.88283 16.4214 7.00506C16.494 7.12124 16.5943 7.21769 16.7134 7.28579C16.8378 7.35163 16.9741 7.39224 17.1144 7.40531C17.2597 7.42009 17.3969 7.42683 17.5261 7.42683C17.8584 7.43762 18.1905 7.40096 18.5124 7.31801V5.55449ZM18.5124 4.5055C18.5124 4.07973 18.4047 3.78423 18.1881 3.61903C17.9701 3.45248 17.6566 3.3692 17.2449 3.3692C17.0047 3.36847 16.765 3.39053 16.529 3.43503C16.3127 3.47082 16.0992 3.52154 15.8899 3.58681C15.7469 3.32473 15.6759 3.02957 15.684 2.73124C15.9303 2.652 16.2007 2.59018 16.4967 2.5472C16.7801 2.50517 17.0661 2.48366 17.3525 2.48277C18.0751 2.48277 18.6241 2.64797 19.0008 2.97972C19.3762 3.30476 19.5646 3.82724 19.5646 4.5485V8.02183C19.3116 8.07959 19.0035 8.13734 18.6429 8.19509C18.2778 8.2599 17.9077 8.29225 17.5369 8.29178C17.183 8.29178 16.8614 8.25956 16.5721 8.19509C16.3117 8.13984 16.0651 8.03295 15.8468 7.88079C15.6517 7.73699 15.495 7.54737 15.3907 7.32875C15.2764 7.07391 15.2212 6.79663 15.2292 6.51753C15.2292 6.20727 15.2898 5.93729 15.4136 5.70627C15.5428 5.46854 15.7163 5.27379 15.933 5.12202C16.1496 4.96353 16.3999 4.84799 16.6811 4.77681C16.9623 4.69622 17.2597 4.65728 17.5691 4.65728C17.8006 4.65728 17.989 4.66399 18.1329 4.67876C18.285 4.68548 18.4115 4.69624 18.5124 4.71102V4.5055ZM21.1523 0.233C21.3276 0.200712 21.5056 0.185879 21.6838 0.188691C21.8618 0.1905 22.0395 0.2053 22.2153 0.233V6.48527C22.2153 6.68809 22.2328 6.84659 22.2691 6.9621C22.2966 7.06104 22.3447 7.15304 22.4104 7.23205C22.4725 7.28788 22.5467 7.3288 22.6271 7.35162C22.7881 7.37788 22.9521 7.38149 23.1141 7.36236C23.2016 7.3543 23.2729 7.34352 23.3308 7.32875C23.3967 7.58125 23.429 7.85526 23.429 8.15209C23.3098 8.1909 23.1857 8.21262 23.0603 8.21657C22.9271 8.23053 22.7933 8.23769 22.6593 8.23805C22.4617 8.23941 22.2649 8.21411 22.074 8.16283C21.8927 8.11685 21.7251 8.02792 21.5855 7.90354C21.4459 7.77915 21.3384 7.62299 21.2721 7.44831C21.186 7.21643 21.1454 6.9702 21.1523 6.72301V0.233ZM24.3049 7.15684C24.5 7.23608 24.714 7.30058 24.9441 7.35162C25.1836 7.3946 25.4177 7.41605 25.6491 7.41605C25.8146 7.41605 25.9748 7.39728 26.1255 7.36236C26.2643 7.33199 26.3964 7.27694 26.5157 7.19984C26.6241 7.13425 26.7169 7.04574 26.7875 6.94058C26.8581 6.83478 26.8955 6.71043 26.8951 6.58332C26.9003 6.45855 26.8704 6.33484 26.809 6.22606C26.757 6.13057 26.6827 6.04902 26.5924 5.98832C26.4964 5.91831 26.3902 5.86349 26.2775 5.8258C26.1538 5.77177 26.0271 5.72467 25.8981 5.68476L25.5186 5.54375C25.0571 5.37183 24.7207 5.17708 24.5108 4.95949C24.3009 4.74325 24.1973 4.45178 24.1973 4.08376C24.1973 3.59352 24.3695 3.20402 24.7167 2.91524C25.0706 2.62647 25.5873 2.48277 26.2668 2.48277C26.548 2.48277 26.8238 2.51097 27.0902 2.56872C27.3647 2.61976 27.6029 2.68154 27.8061 2.75272C27.7913 2.89942 27.762 3.04428 27.7186 3.1852C27.6856 3.32343 27.6387 3.45799 27.5787 3.58681C27.3908 3.52044 27.1989 3.46615 27.0041 3.42429C26.7739 3.36463 26.5369 3.33527 26.299 3.33698C26.0535 3.33261 25.8099 3.38071 25.5846 3.47803C25.3814 3.57204 25.2805 3.73724 25.2805 3.97498C25.2805 4.09854 25.306 4.20328 25.3558 4.28924C25.4084 4.37797 25.4785 4.45518 25.5617 4.51624C25.6492 4.57399 25.746 4.62504 25.855 4.66802C25.9707 4.711 26.0932 4.754 26.2237 4.79832L26.7 4.95949C26.8736 5.01725 27.0364 5.08574 27.1885 5.16633C27.3403 5.24048 27.4764 5.34308 27.5894 5.46854C27.7099 5.59142 27.8022 5.73898 27.8599 5.90101C27.9325 6.06756 27.9689 6.26902 27.9689 6.50675C27.9689 6.77403 27.9137 7.01983 27.8061 7.24279C27.6945 7.46287 27.535 7.65519 27.3392 7.80557C27.1246 7.96674 26.8825 8.08778 26.6247 8.16283C26.3421 8.24879 26.0326 8.29178 25.6922 8.29178C25.3451 8.29178 25.0423 8.26761 24.7826 8.21657C24.5354 8.17689 24.2923 8.11532 24.056 8.03257C24.0708 7.88885 24.0991 7.74381 24.1421 7.60009C24.1933 7.44832 24.2471 7.30055 24.3049 7.15684ZM33.0443 2.15773C33.0443 2.46799 33.1465 2.71647 33.3484 2.90451C33.5583 3.08449 33.8906 3.17446 34.3454 3.17446H36.7082L37.7052 1.81251H37.7914V3.17446H39.2015C39.2298 3.29803 39.2446 3.43772 39.2446 3.59755C39.2446 3.67679 39.2405 3.75604 39.2338 3.83529C39.2256 3.90772 39.2148 3.97986 39.2015 4.05154H37.7914V5.65254C37.7914 6.09308 37.716 6.47856 37.564 6.81032C37.417 7.13571 37.1942 7.42125 36.9141 7.64305C36.6096 7.87032 36.2636 8.03596 35.8955 8.13062C35.5053 8.23807 35.072 8.29178 34.5943 8.29178C34.2122 8.29178 33.8435 8.24879 33.4896 8.16283C33.1531 8.08324 32.8337 7.94403 32.5464 7.75184C32.2789 7.56389 32.0599 7.31536 31.9073 7.02657C31.7391 6.69532 31.6568 6.3273 31.6678 5.9561C31.6678 5.71703 31.7014 5.4833 31.766 5.25228C31.8387 5.02126 31.9355 4.80904 32.058 4.61428C32.1885 4.41147 32.3365 4.23822 32.5034 4.0945C32.6769 3.94273 32.8599 3.82722 33.055 3.74798C32.7508 3.61484 32.4804 3.41517 32.2639 3.16372C32.0553 2.9045 31.9503 2.55795 31.9503 2.12547C31.9503 1.80849 32.0109 1.53449 32.1347 1.30347C32.2571 1.06574 32.424 0.870986 32.6325 0.719213C32.8424 0.560723 33.0887 0.44522 33.3699 0.372691C33.6592 0.293446 33.9619 0.254478 34.2808 0.254478C34.4679 0.254478 34.6778 0.267927 34.9092 0.297476C35.1406 0.325681 35.3828 0.383433 35.6345 0.470737C35.63 0.620465 35.6083 0.769169 35.5699 0.913952C35.5299 1.04429 35.4715 1.16825 35.3963 1.28199C35.2198 1.22648 35.0388 1.1865 34.8554 1.16247C34.6868 1.1345 34.5163 1.12011 34.3454 1.11947C34.1073 1.11947 33.9041 1.1517 33.7386 1.21752C33.5899 1.26829 33.4534 1.34924 33.3376 1.45525C33.2389 1.5452 33.1613 1.6557 33.1102 1.77894C33.0664 1.90043 33.0441 2.02861 33.0443 2.15773ZM34.6818 7.31801C35.1003 7.31801 35.4434 7.26429 35.7111 7.15684C35.9856 7.04804 36.1982 6.90433 36.3503 6.72301C36.5023 6.54303 36.6073 6.33349 36.6651 6.09575C36.723 5.85802 36.7512 5.61223 36.7512 5.36106V4.07302H34.5513C34.2916 4.07302 34.0561 4.12001 33.8462 4.21403C33.6439 4.29509 33.4626 4.42094 33.3161 4.58207C33.1699 4.7426 33.0557 4.92951 32.9797 5.13275C32.8992 5.34001 32.8586 5.56052 32.8599 5.7828C32.8599 6.27976 33.016 6.66259 33.3268 6.92853C33.6377 7.1891 34.0884 7.31801 34.6818 7.31801ZM42.8102 0.38343H47.0918C47.126 0.62364 47.1332 0.866922 47.1133 1.10873C47.1141 1.1885 47.1069 1.26814 47.0918 1.34647H43.9163V3.57472H46.4526C46.5115 3.89304 46.5115 4.21943 46.4526 4.53776H43.9163V7.19984H47.1779C47.2123 7.43958 47.2195 7.68243 47.1994 7.92378C47.2003 8.004 47.1931 8.08406 47.1779 8.16283H42.8102V0.38343ZM48.5342 2.61303C48.6096 2.59914 48.6854 2.58795 48.7616 2.57946C48.9134 2.56717 49.0659 2.56717 49.2177 2.57946C49.289 2.58752 49.3657 2.59826 49.4451 2.61303C49.4667 2.72048 49.4882 2.86821 49.5097 3.05625C49.5313 3.23623 49.542 3.38802 49.542 3.51024C49.6147 3.38802 49.7048 3.26581 49.8138 3.14224C49.9295 3.02002 50.0587 2.91123 50.204 2.81855C50.348 2.71647 50.5135 2.63722 50.7019 2.57946C50.8902 2.51499 51.0961 2.48277 51.3195 2.48277C51.9559 2.48277 52.4255 2.66675 52.7283 3.03477C53.0324 3.39473 53.1844 3.932 53.1844 4.64654V8.16283C53.0052 8.1927 52.8238 8.2071 52.6421 8.20583C52.4641 8.20621 52.2863 8.19182 52.1107 8.16283V4.93797C52.1107 4.42624 52.0313 4.05154 51.8725 3.81381C51.7137 3.56801 51.4608 3.44577 51.1136 3.44577C50.9118 3.44577 50.7207 3.48205 50.5391 3.55324C50.3565 3.62712 50.1935 3.74203 50.0627 3.88902C49.9255 4.0408 49.8138 4.23823 49.7264 4.48402C49.6411 4.76425 49.6012 5.0562 49.608 5.34897V8.16283C49.4323 8.19178 49.2545 8.20617 49.0765 8.20583C48.8948 8.20742 48.7133 8.19302 48.5342 8.16283V2.61303ZM55.0063 3.46724H54.1613L54.1169 3.3155L55.9818 1.239H56.0679V2.61303H57.4767C57.5063 2.73526 57.5211 2.87226 57.5211 3.02403C57.5201 3.17283 57.5052 3.32119 57.4767 3.46724H56.0679V5.99906C56.0679 6.30126 56.0787 6.54303 56.1002 6.72301C56.119 6.87048 56.1632 7.01361 56.2307 7.1461C56.291 7.23565 56.3781 7.30381 56.4796 7.34084C56.5886 7.36904 56.7219 7.38384 56.8806 7.38384C57.0044 7.38384 57.1201 7.37579 57.2278 7.36236C57.3261 7.34273 57.4239 7.32077 57.5211 7.29653C57.5709 7.44159 57.6005 7.58932 57.6072 7.7411C57.622 7.89153 57.6287 8.02585 57.6287 8.14135C57.4792 8.17739 57.3272 8.20253 57.174 8.21657C57.0049 8.23869 56.8345 8.24949 56.664 8.24883C56.1446 8.24883 55.7356 8.12256 55.4395 7.87005C55.1503 7.61754 55.0063 7.19984 55.0063 6.61558V3.46724ZM59.4869 5.65254C59.5004 6.25829 59.6565 6.70152 59.9525 6.98358C60.2566 7.26429 60.7006 7.40531 61.2859 7.40531C61.7986 7.40531 62.287 7.31533 62.7485 7.13401C62.8064 7.2428 62.8535 7.37579 62.8898 7.53562C62.9262 7.68605 62.9477 7.8378 62.9544 7.98957C62.7001 8.09475 62.4347 8.1709 62.1632 8.21657C61.8517 8.26963 61.536 8.2948 61.22 8.29178C60.7154 8.29178 60.2808 8.22331 59.9202 8.08631C59.58 7.95637 59.2727 7.75319 59.02 7.49127C58.7874 7.22838 58.614 6.91878 58.5114 6.58332C58.3995 6.20768 58.3446 5.81742 58.3486 5.42554C58.3486 5.01454 58.3997 4.63174 58.5007 4.2785C58.5981 3.93846 58.7638 3.62177 58.9877 3.34772C59.2044 3.08178 59.4762 2.87224 59.8005 2.72046C60.1328 2.56198 60.523 2.48277 60.9711 2.48277C61.3171 2.47506 61.6608 2.54146 61.9789 2.67751C62.2682 2.80779 62.5104 2.98775 62.7055 3.21877C62.9006 3.44173 63.0486 3.7117 63.1495 4.03003C63.2504 4.34029 63.3016 4.67878 63.3016 5.0468C63.3016 5.14754 63.2975 5.25629 63.2908 5.3718C63.2841 5.47925 63.276 5.57329 63.2693 5.65254H59.4869ZM62.2399 4.85202C62.2399 4.65055 62.2103 4.45848 62.1525 4.2785C62.1079 4.10162 62.0268 3.936 61.9143 3.79229C61.8097 3.65245 61.6719 3.54075 61.5133 3.46724C61.336 3.37574 61.1383 3.33092 60.9388 3.33698C60.4974 3.33698 60.1584 3.4713 59.9202 3.73724C59.6888 4.00452 59.5475 4.37655 59.4977 4.85202H62.2399ZM64.7063 2.61303C65.0073 2.55578 65.3163 2.55578 65.6173 2.61303C65.6715 2.90211 65.7039 3.19485 65.7141 3.48876C65.8662 3.24297 66.0653 3.03075 66.3116 2.85077C66.5632 2.67079 66.8847 2.57946 67.275 2.57946C67.3328 2.57946 67.3907 2.58349 67.4486 2.5902C67.5145 2.5902 67.5683 2.59423 67.6113 2.60229C67.6591 2.83344 67.6664 3.07113 67.6329 3.30476C67.6262 3.39878 67.6154 3.48876 67.6006 3.57472C67.5402 3.56056 67.4783 3.55337 67.4163 3.55324H67.275C67.0799 3.55324 66.8928 3.58279 66.7125 3.64055C66.5329 3.69411 66.3689 3.79042 66.2349 3.92124C66.0833 4.08235 65.9685 4.27436 65.8985 4.48402C65.8109 4.78261 65.771 5.09308 65.7801 5.40406V8.16283C65.6045 8.1924 65.4266 8.20679 65.2486 8.20583C65.0671 8.20359 64.8859 8.18922 64.7063 8.16283V2.61303ZM68.9448 3.46724H68.0998L68.0567 3.3155L69.9203 1.239H70.0078V2.61303H71.4166C71.4448 2.73526 71.4596 2.87226 71.4596 3.02403C71.4588 3.17277 71.4444 3.32111 71.4166 3.46724H70.0078V5.99906C70.0078 6.30126 70.0185 6.54303 70.0401 6.72301C70.0582 6.87062 70.1024 7.01386 70.1706 7.1461C70.2309 7.23565 70.318 7.30381 70.4195 7.34084C70.5272 7.36904 70.6617 7.38384 70.8205 7.38384C70.9429 7.38384 71.0586 7.37579 71.1676 7.36236C71.2753 7.34087 71.3735 7.31802 71.4596 7.29653C71.5107 7.44159 71.539 7.58932 71.5471 7.7411C71.5605 7.89153 71.5686 8.02585 71.5686 8.14135C71.4186 8.17728 71.2661 8.20242 71.1125 8.21657C70.9438 8.23869 70.7739 8.24949 70.6038 8.24883C70.0831 8.24883 69.6754 8.12256 69.3794 7.87005C69.0901 7.61754 68.9448 7.19984 68.9448 6.61558V3.46724ZM75.5608 5.55449C75.4238 5.53789 75.2866 5.52354 75.1491 5.51149C75.0086 5.49889 74.8677 5.49173 74.7266 5.49002C74.2785 5.49002 73.9354 5.57329 73.6973 5.73849C73.4658 5.90504 73.3501 6.15754 73.3501 6.49601C73.3501 6.71226 73.3891 6.88283 73.4685 7.00506C73.5493 7.12728 73.6461 7.22132 73.7618 7.28579C73.8863 7.35163 74.0226 7.39224 74.1628 7.40531C74.3068 7.42009 74.444 7.42683 74.5745 7.42683C74.9068 7.43762 75.2389 7.40096 75.5608 7.31801V5.55449ZM75.5608 4.5055C75.5608 4.07973 75.4518 3.78423 75.2352 3.61903C75.0186 3.45248 74.7051 3.3692 74.2933 3.3692C74.0404 3.3692 73.8009 3.39205 73.5775 3.43503C73.3612 3.47066 73.1476 3.52139 72.9384 3.58681C72.7954 3.32473 72.7243 3.02957 72.7325 2.73124C72.9774 2.652 73.2492 2.59018 73.5452 2.5472C73.8285 2.50517 74.1145 2.48366 74.401 2.48277C75.1235 2.48277 75.6725 2.64797 76.0479 2.97972C76.4247 3.30476 76.6117 3.82724 76.6117 4.5485V8.02183C76.3588 8.07959 76.052 8.13734 75.6914 8.19509C75.3263 8.25984 74.9561 8.29219 74.5853 8.29178C74.2314 8.29178 73.9099 8.25956 73.6206 8.19509C73.3602 8.13984 73.1135 8.03295 72.8953 7.88079C72.7001 7.73699 72.5435 7.54737 72.4392 7.32875C72.3244 7.07403 72.2687 6.79674 72.2764 6.51753C72.2764 6.20727 72.3383 5.93729 72.4607 5.70627C72.5912 5.46854 72.7648 5.27379 72.9814 5.12202C73.1981 4.96353 73.447 4.84799 73.7296 4.77681C74.0185 4.69561 74.3174 4.65538 74.6176 4.65728C74.849 4.65728 75.0374 4.66399 75.1814 4.67876C75.3334 4.68548 75.4599 4.69624 75.5608 4.71102V4.5055ZM78.548 3.45651H77.8429C77.8108 3.3183 77.7963 3.1766 77.7998 3.03477C77.8012 2.89317 77.8156 2.752 77.8429 2.61303H79.5988V8.16283C79.4237 8.19219 79.2463 8.20659 79.0687 8.20583C78.8942 8.20578 78.7201 8.19139 78.548 8.16283V3.45651ZM78.3098 1.38943C78.2942 1.29647 78.2834 1.20279 78.2775 1.10873V0.56743C78.2842 0.466695 78.295 0.37672 78.3098 0.297476C78.6942 0.238503 79.0853 0.238503 79.4696 0.297476C79.4831 0.37672 79.4912 0.466695 79.4912 0.56743C79.4979 0.668165 79.5019 0.759492 79.5019 0.838737C79.5019 0.917982 79.4979 1.008 79.4912 1.10873C79.4912 1.20947 79.4831 1.30346 79.4696 1.38943C79.1859 1.43015 78.8986 1.44144 78.6125 1.42304C78.5112 1.41591 78.4102 1.40467 78.3098 1.38943ZM81.3453 2.61303C81.4247 2.59826 81.5001 2.58752 81.5727 2.57946C81.7241 2.56724 81.8762 2.56724 82.0275 2.57946C82.1002 2.58752 82.1756 2.59826 82.2549 2.61303C82.2765 2.72048 82.2993 2.86821 82.3209 3.05625C82.3424 3.23623 82.3532 3.38802 82.3532 3.51024C82.4321 3.37971 82.5226 3.25656 82.6236 3.14224C82.7393 3.02002 82.8698 2.91123 83.0138 2.81855C83.1591 2.71647 83.3246 2.63722 83.513 2.57946C83.7001 2.51499 83.9059 2.48277 84.1306 2.48277C84.7657 2.48277 85.2353 2.66675 85.5394 3.03477C85.8435 3.39473 85.9942 3.932 85.9942 4.64654V8.16283C85.8155 8.1928 85.6345 8.2072 85.4533 8.20583C85.2752 8.20638 85.0974 8.19198 84.9218 8.16283V4.93797C84.9218 4.42624 84.8424 4.05154 84.6836 3.81381C84.5249 3.56801 84.2719 3.44577 83.9248 3.44577C83.7281 3.44482 83.5331 3.48131 83.3502 3.55324C83.1675 3.62741 83.0041 3.74226 82.8725 3.88902C82.7353 4.0408 82.6236 4.23823 82.5375 4.48402C82.4518 4.76416 82.4113 5.05613 82.4178 5.34897V8.16283C82.2426 8.19219 82.0652 8.20659 81.8876 8.20583C81.7059 8.20728 81.5245 8.19288 81.3453 8.16283V2.61303ZM87.6102 2.61303C87.6909 2.59826 87.7663 2.58752 87.8389 2.57946C87.9903 2.56724 88.1424 2.56724 88.2937 2.57946C88.3664 2.58752 88.4418 2.59826 88.5211 2.61303C88.5758 2.90207 88.6086 3.19481 88.6194 3.48876C88.684 3.35848 88.7633 3.23623 88.8575 3.12072C88.9584 2.9985 89.0742 2.88971 89.2047 2.79703C89.5109 2.58822 89.874 2.47853 90.2448 2.48277C90.678 2.48277 91.0104 2.57274 91.2418 2.75272C91.48 2.92599 91.6603 3.17179 91.7841 3.48876C91.9355 3.21494 92.1465 2.97854 92.4017 2.79703C92.5309 2.70301 92.6789 2.62648 92.8457 2.56872C93.0112 2.51097 93.1996 2.48277 93.4095 2.48277C94.0527 2.48277 94.5182 2.66273 94.8075 3.02403C95.1036 3.38399 95.2516 3.91854 95.2516 4.62502V8.16283C95.0724 8.19288 94.891 8.20728 94.7093 8.20583C94.5317 8.2063 94.3544 8.19191 94.1792 8.16283V4.93797C94.1792 4.44102 94.1025 4.069 93.9518 3.82455C93.7997 3.57204 93.5494 3.44577 93.2036 3.44577C93.0331 3.44051 92.8636 3.47377 92.7077 3.54307C92.5518 3.61238 92.4136 3.71595 92.3035 3.84603C92.0801 4.11331 91.9671 4.50549 91.9671 5.02528V8.16283C91.7919 8.19219 91.6145 8.20659 91.4369 8.20583C91.2589 8.20603 91.0811 8.19164 90.9055 8.16283V4.86276C90.9055 4.37923 90.8328 4.01928 90.6888 3.78155C90.5448 3.53576 90.3134 3.41355 89.9959 3.41355C89.8189 3.41226 89.6442 3.45274 89.4859 3.53172C89.3197 3.6172 89.1752 3.73942 89.0634 3.88902C88.9356 4.07354 88.84 4.27835 88.7808 4.49476C88.7121 4.7669 88.6796 5.04688 88.684 5.32749V8.16283C88.5084 8.1924 88.3305 8.20679 88.1525 8.20583C87.9708 8.20677 87.7894 8.19238 87.6102 8.16283V2.61303ZM97.6628 5.65254C97.6776 6.25829 97.8337 6.70152 98.1297 6.98358C98.4324 7.26429 98.8778 7.40531 99.4618 7.40531C99.9758 7.40531 100.463 7.31533 100.926 7.13401C100.984 7.2428 101.031 7.37579 101.067 7.53562C101.102 7.68605 101.125 7.8378 101.132 7.98957C100.877 8.09475 100.612 8.1709 100.34 8.21657C100.029 8.26963 99.7132 8.2948 99.3972 8.29178C98.955 8.30224 98.5147 8.23264 98.0974 8.08631C97.757 7.95673 97.4496 7.7535 97.1972 7.49127C96.9642 7.22843 96.7904 6.91884 96.6873 6.58332C96.5765 6.20747 96.522 5.81731 96.5258 5.42554C96.5258 5.01454 96.5756 4.63174 96.6765 4.2785C96.7855 3.91854 96.9483 3.60829 97.1649 3.34772C97.3816 3.08178 97.652 2.87224 97.9776 2.72046C98.31 2.56198 98.7002 2.48277 99.1483 2.48277C99.5317 2.48277 99.8668 2.54722 100.156 2.67751C100.445 2.80779 100.688 2.98775 100.883 3.21877C101.078 3.44173 101.226 3.7117 101.327 4.03003C101.428 4.34029 101.479 4.67878 101.479 5.0468C101.479 5.14754 101.475 5.25629 101.468 5.3718L101.446 5.65254H97.6628ZM100.416 4.85202C100.416 4.65055 100.388 4.45848 100.33 4.2785C100.284 4.10203 100.203 3.93663 100.091 3.79229C99.9869 3.65245 99.8491 3.54075 99.6905 3.46724C99.5132 3.37591 99.3154 3.3311 99.116 3.33698C98.6746 3.33698 98.3356 3.4713 98.0974 3.73724C97.866 4.00452 97.7247 4.37655 97.6735 4.85202H100.416ZM102.883 2.61303C102.959 2.59914 103.035 2.58795 103.111 2.57946C103.263 2.56717 103.415 2.56717 103.567 2.57946C103.638 2.58752 103.715 2.59826 103.794 2.61303C103.816 2.72048 103.837 2.86821 103.859 3.05625C103.881 3.23623 103.891 3.38802 103.891 3.51024C104.053 3.23012 104.28 2.99293 104.553 2.81855C104.697 2.71647 104.863 2.63722 105.051 2.57946C105.24 2.51499 105.445 2.48277 105.669 2.48277C106.305 2.48277 106.775 2.66675 107.078 3.03477C107.382 3.39473 107.534 3.932 107.534 4.64654V8.16283C107.355 8.1927 107.173 8.2071 106.991 8.20583C106.813 8.20621 106.636 8.19182 106.46 8.16283V4.93797C106.46 4.42624 106.381 4.05154 106.222 3.81381C106.063 3.56801 105.81 3.44577 105.463 3.44577C105.261 3.44577 105.069 3.48205 104.888 3.55324C104.706 3.62712 104.543 3.74203 104.412 3.88902C104.275 4.0408 104.163 4.23823 104.076 4.48402C103.99 4.76425 103.95 5.0562 103.957 5.34897V8.16283C103.782 8.19178 103.604 8.20617 103.426 8.20583C103.244 8.20728 103.063 8.19288 102.883 8.16283V2.61303ZM109.356 3.46724H108.511L108.466 3.3155L110.331 1.239H110.417V2.61303H111.826C111.886 2.89462 111.886 3.18566 111.826 3.46724H110.417V5.99906C110.417 6.30126 110.428 6.54303 110.45 6.72301C110.468 6.87048 110.512 7.01361 110.58 7.1461C110.64 7.23565 110.727 7.30381 110.829 7.34084C110.938 7.36904 111.071 7.38384 111.23 7.38384C111.354 7.38384 111.469 7.37579 111.577 7.36236C111.675 7.34273 111.773 7.32077 111.87 7.29653C111.92 7.44159 111.95 7.58932 111.957 7.7411C111.971 7.89153 111.978 8.02585 111.978 8.14135C111.828 8.17739 111.676 8.20253 111.523 8.21657C111.354 8.23869 111.184 8.24949 111.013 8.24883C110.494 8.24883 110.085 8.12256 109.789 7.87005C109.5 7.61754 109.356 7.19984 109.356 6.61558V3.46724Z" fill="#57D9A3"/>
</svg>
