<svg preserveAspectRatio="none" width="84" height="11" viewBox="0 0 84 11" fill="none" xmlns="http://www.w3.org/2000/svg">
<path vector-effect="non-scaling-stroke" d="M0.478455 0.369898C0.796003 0.333633 1.09336 0.305434 1.36785 0.283944C1.64907 0.254395 1.9599 0.240967 2.29897 0.240967C2.69726 0.240967 3.08746 0.27587 3.46959 0.348399C3.8598 0.420928 4.21101 0.551223 4.52183 0.737919C4.8313 0.917898 5.08156 1.16772 5.2686 1.4847C5.4637 1.79496 5.56193 2.19119 5.56193 2.67471C5.56193 2.96349 5.52559 3.21867 5.45293 3.44297C5.38745 3.64671 5.29272 3.83989 5.17171 4.01649C5.0698 4.17416 4.94968 4.31933 4.8138 4.44899C4.69915 4.55288 4.5758 4.64679 4.44512 4.7297L4.26079 4.84925L6.15799 8.13856L5.7032 8.18154C5.26937 8.22079 4.83235 8.20636 4.40207 8.13856L2.3649 4.5242L2.6246 4.39525C2.72552 4.34421 2.84797 4.27976 2.99328 4.20051C3.13726 4.12127 3.2745 4.02322 3.40502 3.90771C3.54358 3.7834 3.66084 3.6373 3.75217 3.47521C3.84861 3.28807 3.89671 3.07987 3.89211 2.86947C3.89211 2.4155 3.76292 2.08373 3.50189 1.8742C3.2422 1.65795 2.90582 1.54917 2.49408 1.54917C2.33531 1.54917 2.19133 1.55992 2.06081 1.58141V8.14932C1.93029 8.16275 1.80113 8.17348 1.67061 8.18154C1.54464 8.19583 1.41796 8.20302 1.29117 8.20304C1.16872 8.20304 1.0382 8.19901 0.90095 8.1923C0.759491 8.18495 0.61849 8.17061 0.478455 8.14932V0.369898ZM8.14673 5.82301C8.17633 6.25549 8.32836 6.56979 8.60285 6.76455C8.87735 6.9593 9.23796 7.056 9.68603 7.056C9.93226 7.056 10.1812 7.03452 10.4342 6.99154C10.6851 6.94302 10.9317 6.87429 11.1715 6.78604C11.3613 7.14705 11.4649 7.54697 11.4743 7.95456C10.8641 8.17869 10.2177 8.28842 9.56762 8.27825C9.0469 8.27825 8.59882 8.20707 8.22341 8.06201C7.879 7.93421 7.5677 7.73087 7.31248 7.467C7.07668 7.20054 6.89972 6.88753 6.79309 6.54831C6.68128 6.17265 6.6264 5.7824 6.63028 5.39053C6.63028 4.97953 6.68815 4.59271 6.80387 4.23275C6.91824 3.87145 7.08912 3.55849 7.31248 3.29121C7.54391 3.02393 7.82514 2.81575 8.15749 2.66398C8.49791 2.50549 8.8908 2.42624 9.33886 2.42624C9.72907 2.42624 10.0762 2.49474 10.3803 2.63174C10.6775 2.7669 10.943 2.96288 11.1595 3.20698C11.376 3.45108 11.5387 3.73786 11.6371 4.04873C11.7461 4.37377 11.7999 4.72299 11.7999 5.09772C11.7999 5.23472 11.7918 5.37172 11.7783 5.50872C11.7729 5.61396 11.7621 5.71885 11.746 5.82301H8.14673ZM10.3467 4.75118C10.3332 4.406 10.235 4.12798 10.0547 3.91845C9.88114 3.7022 9.63624 3.59476 9.31735 3.59476C8.95674 3.59476 8.68225 3.6955 8.49387 3.89697C8.30684 4.09844 8.19382 4.38451 8.15749 4.75118H10.3467ZM16.3465 8.1923L15.967 8.23528C15.8195 8.25067 15.6713 8.25784 15.523 8.25675C15.1543 8.25675 14.8004 8.20975 14.46 8.11573C14.1283 8.01875 13.8192 7.85714 13.5504 7.64026C13.2794 7.40192 13.0648 7.10649 12.9221 6.77528C12.77 6.42204 12.6947 5.98554 12.6947 5.46574C12.6947 5.05475 12.7633 4.66522 12.9005 4.29721C13.0445 3.92247 13.2504 3.59745 13.5181 3.32345C13.798 3.04089 14.1339 2.8199 14.5044 2.67471C14.8946 2.50817 15.3387 2.42624 15.8365 2.42624C16.2415 2.42624 16.6035 2.45042 16.921 2.50145C17.2467 2.54443 17.5682 2.60219 17.8858 2.67471V10.7134C17.7565 10.7342 17.6263 10.7486 17.4956 10.7563C17.2464 10.7701 16.9966 10.7701 16.7475 10.7563C16.6167 10.7486 16.4865 10.7343 16.3572 10.7134L16.3465 8.1923ZM16.3465 3.74519C16.2347 3.72516 16.1225 3.70726 16.0101 3.69147C15.9346 3.68362 15.8586 3.68002 15.7827 3.68071C15.2916 3.68071 14.9189 3.84726 14.6672 4.17901C14.421 4.51077 14.2986 4.93924 14.2986 5.46574C14.2986 5.76123 14.3309 6.00971 14.3954 6.21252C14.4681 6.40728 14.5623 6.56575 14.678 6.68798C14.8009 6.80386 14.9493 6.88943 15.1113 6.93781C15.2848 6.9875 15.4719 7.01302 15.675 7.01302C15.7975 7.01302 15.9092 7.009 16.0101 7.00228C16.111 6.98751 16.224 6.96198 16.3465 6.92571V3.74519ZM19.2717 2.55517C19.7813 2.4708 20.3014 2.4708 20.811 2.55517V5.51946C20.811 5.81629 20.8325 6.06075 20.8756 6.2555C20.9267 6.44354 20.9994 6.59397 21.0922 6.70948C21.1931 6.81827 21.3169 6.89751 21.4609 6.94855C21.6062 6.99153 21.7757 7.01302 21.9709 7.01302C22.2373 7.01302 22.462 6.9875 22.6423 6.93781V2.55517C23.1483 2.47076 23.6648 2.47076 24.1708 2.55517V7.93306C23.9394 8.01231 23.6326 8.08753 23.2491 8.16006C22.5094 8.30455 21.7497 8.31547 21.0061 8.1923C20.6815 8.141 20.3733 8.015 20.1059 7.82428C19.8332 7.60977 19.6236 7.32579 19.4991 7.00228C19.347 6.64098 19.2717 6.16148 19.2717 5.56379V2.55517ZM26.796 5.82301C26.8256 6.25549 26.9776 6.56979 27.2521 6.76455C27.5266 6.9593 27.8872 7.056 28.3353 7.056C28.5815 7.056 28.8305 7.03452 29.0834 6.99154C29.3344 6.94302 29.5809 6.87429 29.8208 6.78604C30.0106 7.14705 30.1142 7.54697 30.1235 7.95456C29.5129 8.17879 28.8661 8.28853 28.2155 8.27825C27.6962 8.27825 27.2481 8.20707 26.8727 8.06201C26.5283 7.93421 26.217 7.73087 25.9617 7.467C25.726 7.20026 25.5487 6.88737 25.441 6.54831C25.3303 6.17243 25.2759 5.78229 25.2795 5.39053C25.2795 4.97953 25.3374 4.59271 25.4518 4.23275C25.5588 3.88877 25.732 3.56893 25.9617 3.29121C26.1932 3.02393 26.4744 2.81575 26.8068 2.66398C27.1472 2.50549 27.5401 2.42624 27.9881 2.42624C28.3783 2.42624 28.7255 2.49474 29.0296 2.63174C29.3323 2.76874 29.5893 2.95542 29.7979 3.1945C30.0159 3.43223 30.1773 3.71698 30.2863 4.04873C30.394 4.37377 30.4491 4.72299 30.4491 5.09772C30.4491 5.23472 30.4411 5.37172 30.4276 5.50872C30.4225 5.61405 30.4113 5.71898 30.394 5.82301H26.796ZM28.996 4.75118C28.9825 4.406 28.8843 4.12798 28.704 3.91845C28.5304 3.7022 28.2842 3.59476 27.9666 3.59476C27.606 3.59476 27.3315 3.6955 27.1431 3.89697C26.9548 4.09844 26.8431 4.38451 26.8068 4.75118H28.996ZM32.742 5.71422C32.3369 5.59871 32.0194 5.42947 31.788 5.20651C31.5633 4.97549 31.4516 4.63299 31.4516 4.17901C31.4516 3.62967 31.6467 3.20122 32.0369 2.89095C32.4338 2.58069 32.972 2.42624 33.6515 2.42624C33.9341 2.42624 34.2113 2.45042 34.4858 2.50145C34.7603 2.55249 35.0388 2.6277 35.3214 2.72843C35.3066 2.91647 35.2702 3.11122 35.2124 3.31269C35.1619 3.49604 35.093 3.67381 35.0065 3.84323C34.8201 3.76695 34.628 3.70544 34.432 3.65923C34.2167 3.60048 33.9945 3.57111 33.7713 3.57193C33.5251 3.57193 33.334 3.61223 33.1967 3.69147C33.0595 3.764 32.9909 3.88218 32.9909 4.04873C32.9909 4.20722 33.038 4.3187 33.1308 4.38451C33.2331 4.44898 33.373 4.51078 33.5547 4.56853L34.1723 4.75118C34.3741 4.80894 34.5544 4.88147 34.7132 4.96877C34.8749 5.04021 35.02 5.14427 35.1395 5.27441C35.259 5.40454 35.3502 5.55794 35.4075 5.72496C35.4721 5.90628 35.5044 6.12522 35.5044 6.38579C35.5046 6.64655 35.4452 6.90392 35.3307 7.1383C35.2162 7.37269 35.0496 7.5779 34.8437 7.73832C34.6121 7.91493 34.3518 8.05032 34.0741 8.13856C33.7713 8.23124 33.4282 8.27825 33.0447 8.27825C32.8711 8.27825 32.7124 8.27153 32.5684 8.25675C32.4264 8.24995 32.2851 8.232 32.1459 8.20304C31.8679 8.15345 31.5953 8.07743 31.3318 7.97604C31.3468 7.77872 31.3797 7.58318 31.43 7.39178C31.4871 7.19175 31.5595 6.99642 31.6467 6.80752C31.8848 6.90154 32.1095 6.97272 32.3181 7.02376C32.5347 7.06674 32.7594 7.08824 32.9909 7.08824C33.2172 7.09864 33.4429 7.05825 33.6515 6.97004C33.7451 6.92444 33.8295 6.86208 33.9005 6.78604C33.9748 6.70274 34.0138 6.59392 34.0095 6.48248C34.0095 6.30922 33.9556 6.18701 33.8466 6.11448C33.7158 6.02055 33.569 5.95094 33.4134 5.90898L32.742 5.71422ZM36.7947 3.72369H36.0897L36.0358 3.50745L38.0622 0.921919H38.3112V2.55517H39.6231C39.662 2.74017 39.6801 2.92894 39.6769 3.11795C39.6805 3.3212 39.6624 3.52424 39.6231 3.72369H38.3112V5.91972C38.3112 6.14402 38.33 6.324 38.3663 6.461C38.3926 6.57889 38.444 6.68976 38.517 6.78604C38.5872 6.86338 38.6776 6.91964 38.7781 6.94855C38.8949 6.97893 39.0153 6.99341 39.136 6.99154C39.2436 6.99154 39.3486 6.98348 39.4495 6.97004L39.7321 6.91498C39.8218 7.18036 39.869 7.45824 39.872 7.73832C39.872 7.81757 39.8693 7.88607 39.8612 7.94382C39.8617 7.99417 39.8581 8.04448 39.8505 8.09425C39.5133 8.17429 39.1678 8.21439 38.8211 8.21378C38.1632 8.21378 37.6613 8.06201 37.3141 7.7598C36.9683 7.44954 36.7947 6.94856 36.7947 6.2555V3.72369ZM43.1726 0.369898H47.5954C47.6825 0.812942 47.6825 1.26865 47.5954 1.7117H44.755V3.4H47.0101C47.0944 3.84646 47.0944 4.30471 47.0101 4.75118H44.755V6.80752H47.6708C47.7574 7.2506 47.7574 7.70624 47.6708 8.14932H43.1726V0.369898ZM49.6138 5.26025L48.54 2.55517C48.7795 2.51219 49.0432 2.49069 49.3312 2.49069C49.6057 2.49069 49.8842 2.51219 50.1668 2.55517L51.0225 5.29246L49.9057 8.14932C49.3856 8.23729 48.8543 8.23729 48.3341 8.14932L49.6138 5.26025ZM51.0979 5.29246L51.9658 2.55517C52.5043 2.47059 53.0527 2.47059 53.5912 2.55517L52.5067 5.26025L53.797 8.14932C53.2769 8.23729 52.7456 8.23729 52.2255 8.14932L51.0979 5.29246ZM54.6878 2.54443C54.7887 2.52294 54.887 2.50817 54.9798 2.50145C55.0821 2.49474 55.1937 2.49069 55.3162 2.49069C55.518 2.49069 55.7239 2.51219 55.9338 2.55517C55.9553 2.59143 55.9742 2.64516 55.9876 2.71769C56.0105 2.78216 56.028 2.85469 56.0428 2.93393C56.0643 3.01172 56.0787 3.09129 56.0858 3.17167C56.1006 3.2442 56.1114 3.30599 56.1181 3.35569C56.262 3.10466 56.4579 2.88715 56.6927 2.71769C56.8299 2.63173 56.982 2.56323 57.1475 2.51219C57.3143 2.45444 57.4986 2.42624 57.7005 2.42624C58.0113 2.42624 58.3006 2.48399 58.5684 2.5995C58.8429 2.71367 59.081 2.89096 59.2829 3.12869C59.4847 3.35971 59.6408 3.65251 59.7484 4.00575C59.8641 4.359 59.922 4.77672 59.922 5.26025C59.922 5.729 59.8534 6.15074 59.7161 6.52548C59.5887 6.87899 59.3852 7.20035 59.12 7.467C58.8491 7.73469 58.5238 7.94126 58.1661 8.07275C57.638 8.25732 57.075 8.32022 56.5191 8.25675C56.4212 8.25203 56.3237 8.24128 56.2271 8.22454V10.7134C56.0942 10.7339 55.9604 10.7482 55.8261 10.7563C55.577 10.7701 55.3272 10.7701 55.078 10.7563C54.9474 10.7478 54.8172 10.7335 54.6878 10.7134V2.54443ZM56.2271 6.95931C56.4222 7.01706 56.6456 7.04526 56.8985 7.04526C57.3466 7.04526 57.6897 6.90154 57.9279 6.61276C58.166 6.32399 58.2858 5.88748 58.2858 5.30322C58.2858 5.08026 58.2683 4.87476 58.232 4.68673C58.2025 4.51095 58.1399 4.34232 58.0476 4.18975C57.9631 4.0486 57.842 3.9328 57.6971 3.85457C57.5522 3.77633 57.3888 3.73855 57.2242 3.74519C57.0617 3.7407 56.9009 3.77817 56.7573 3.85397C56.6337 3.91974 56.5293 4.01648 56.4545 4.13469C56.3712 4.25951 56.3123 4.39897 56.2809 4.54568C56.2446 4.70552 56.2271 4.87477 56.2271 5.05475V6.95931ZM62.348 5.82301C62.3776 6.25549 62.5283 6.56979 62.8041 6.76455C63.0786 6.9593 63.4392 7.056 63.8873 7.056C64.1335 7.056 64.3825 7.03452 64.6354 6.99154C64.8951 6.9405 65.1414 6.872 65.3714 6.78604C65.4522 6.92976 65.5208 7.103 65.5787 7.30447C65.6352 7.50729 65.6688 7.72354 65.6755 7.95456C65.0649 8.17879 64.4181 8.28853 63.7676 8.27825C63.2482 8.27825 62.8001 8.20707 62.4247 8.06201C62.0803 7.93421 61.769 7.73087 61.5138 7.467C61.278 7.20026 61.1007 6.88737 60.993 6.54831C60.8823 6.17243 60.8279 5.78229 60.8316 5.39053C60.8316 4.97953 60.8881 4.59271 61.0038 4.23275C61.1108 3.88877 61.284 3.56893 61.5138 3.29121C61.7452 3.02393 62.0264 2.81575 62.3588 2.66398C62.6992 2.50549 63.0921 2.42624 63.5402 2.42624C63.9304 2.42624 64.2775 2.49474 64.5803 2.63174C64.8776 2.76689 65.1433 2.96285 65.36 3.20694C65.5767 3.45103 65.7397 3.73781 65.8383 4.04873C65.946 4.37377 66.0012 4.72299 66.0012 5.09772C66.0012 5.23472 65.9931 5.37172 65.9796 5.50872C65.9745 5.61405 65.9633 5.71898 65.946 5.82301H62.348ZM64.548 4.75118C64.5345 4.406 64.4363 4.12798 64.256 3.91845C64.0824 3.7022 63.8362 3.59476 63.5186 3.59476C63.158 3.59476 62.8835 3.6955 62.6952 3.89697C62.5068 4.09844 62.3951 4.38451 62.3588 4.75118H64.548ZM67.2095 2.55517C67.3104 2.53368 67.4113 2.51891 67.5135 2.51219C67.6145 2.49742 67.7262 2.49069 67.8486 2.49069C67.971 2.49069 68.08 2.49742 68.1742 2.51219C68.2684 2.51891 68.3653 2.53368 68.4662 2.55517C68.4932 2.60604 68.5118 2.66092 68.5214 2.71769C68.5656 2.85835 68.5944 3.00336 68.6075 3.15019C68.6223 3.22272 68.633 3.28449 68.6398 3.33419C68.7124 3.22674 68.7986 3.11795 68.9008 3.0105C69.0017 2.9017 69.1174 2.805 69.2466 2.71769C69.3839 2.63173 69.5359 2.56323 69.7027 2.51219C69.8683 2.45444 70.0526 2.42624 70.2544 2.42624C70.8909 2.42624 71.3672 2.5995 71.6861 2.94469C72.0104 3.29122 72.1732 3.83518 72.1732 4.57927V8.14932C71.6636 8.23369 71.1435 8.23369 70.6339 8.14932V4.99027C70.6339 4.60076 70.5733 4.30124 70.4495 4.09171C70.3338 3.88218 70.128 3.77876 69.8319 3.77876C69.7095 3.77876 69.583 3.79623 69.4525 3.83249C69.3167 3.87203 69.1937 3.94661 69.0959 4.04873C68.9808 4.17214 68.8952 4.32003 68.8456 4.48123C68.7811 4.66927 68.7488 4.9137 68.7488 5.21725V8.14932C68.2391 8.23347 67.7191 8.23347 67.2095 8.14932V2.55517ZM74.6544 5.71422C74.2494 5.59871 73.9318 5.42947 73.7004 5.20651C73.477 4.97549 73.364 4.63299 73.364 4.17901C73.364 3.62967 73.5591 3.20122 73.9493 2.89095C74.3476 2.58069 74.8858 2.42624 75.5653 2.42624C75.8465 2.42624 76.125 2.45042 76.3995 2.50145C76.674 2.55249 76.9525 2.6277 77.2338 2.72843C77.219 2.91647 77.1826 3.11122 77.1248 3.31269C77.0744 3.49604 77.0054 3.67381 76.9189 3.84323C76.7325 3.76695 76.5404 3.70544 76.3444 3.65923C76.1291 3.60038 75.9069 3.57101 75.6837 3.57193C75.4851 3.56182 75.2872 3.603 75.1092 3.69147C74.9719 3.764 74.9033 3.88218 74.9033 4.04873C74.9033 4.20722 74.9504 4.3187 75.0446 4.38451C75.1455 4.44898 75.2868 4.51078 75.4671 4.56853L76.0847 4.75118C76.2879 4.80894 76.4682 4.88147 76.6269 4.96877C76.7884 5.04036 76.9333 5.14449 77.0525 5.27461C77.1718 5.40474 77.2628 5.55806 77.3199 5.72496C77.3858 5.90628 77.4181 6.12522 77.4181 6.38579C77.4181 6.65173 77.3603 6.90155 77.2445 7.13257C77.1309 7.36911 76.9642 7.57638 76.7575 7.73832C76.5257 7.91466 76.2654 8.05002 75.9878 8.13856C75.6531 8.23576 75.3057 8.28284 74.9571 8.27825C74.7849 8.27825 74.6248 8.27153 74.4808 8.25675C74.3388 8.24987 74.1975 8.23191 74.0583 8.20304C73.7807 8.15348 73.5086 8.07746 73.2456 7.97604C73.2604 7.78129 73.2927 7.58654 73.3425 7.39178C73.3995 7.19175 73.4719 6.99642 73.5591 6.80752C73.7986 6.90154 74.022 6.97272 74.2319 7.02376C74.4485 7.06674 74.6719 7.08824 74.9033 7.08824C75.1299 7.09741 75.3559 7.05708 75.5653 6.97004C75.6586 6.92408 75.743 6.86176 75.8142 6.78604C75.8876 6.70225 75.9261 6.59366 75.9219 6.48248C75.9219 6.30922 75.8681 6.18701 75.7604 6.11448C75.6289 6.02083 75.4817 5.95125 75.3258 5.90898L74.6544 5.71422ZM79.7809 5.82301C79.8092 6.25549 79.9612 6.56979 80.2357 6.76455C80.5102 6.9593 80.8708 7.056 81.3189 7.056C81.5651 7.056 81.814 7.03452 82.067 6.99154C82.3179 6.94302 82.5645 6.87429 82.8043 6.78604C82.9941 7.14705 83.0978 7.54697 83.1071 7.95456C82.4969 8.17869 81.8505 8.28842 81.2005 8.27825C80.6797 8.27825 80.2317 8.20707 79.8562 8.06201C79.512 7.93384 79.2008 7.73055 78.9453 7.467C78.71 7.20019 78.5331 6.88729 78.4259 6.54831C78.3141 6.17265 78.2592 5.7824 78.2631 5.39053C78.2631 4.97953 78.321 4.59271 78.4367 4.23275C78.5524 3.87145 78.7219 3.55849 78.9453 3.29121C79.1785 3.02328 79.4673 2.80925 79.7917 2.66398C80.1307 2.50549 80.525 2.42624 80.9731 2.42624C81.3633 2.42624 81.7091 2.49474 82.0132 2.63174C82.311 2.76591 82.577 2.96155 82.7937 3.20579C83.0103 3.45003 83.1726 3.73732 83.2699 4.04873C83.3789 4.37377 83.4327 4.72299 83.4327 5.09772C83.4327 5.23472 83.426 5.37172 83.4112 5.50872C83.4064 5.61402 83.3956 5.71894 83.3789 5.82301H79.7809ZM81.9809 4.75118C81.9661 4.406 81.8678 4.12798 81.6875 3.91845C81.514 3.7022 81.2691 3.59476 80.9502 3.59476C80.5896 3.59476 80.3151 3.6955 80.1267 3.89697C79.9397 4.09844 79.8266 4.38451 79.7917 4.75118H81.9809Z" fill="white"/>
</svg>
