<svg preserveAspectRatio="none" width="14" height="13" viewBox="0 0 14 13" fill="none" xmlns="http://www.w3.org/2000/svg">
<path vector-effect="non-scaling-stroke" fill-rule="evenodd" clip-rule="evenodd" d="M7.61014 0.682385C7.74377 0.815397 7.82409 0.992573 7.83599 1.18057C7.84788 1.36857 7.79053 1.55442 7.67473 1.70316L7.61149 1.77569L3.5143 5.86687H12.4824C12.6796 5.86711 12.8693 5.94252 13.0126 6.07768C13.156 6.21285 13.2423 6.39757 13.2538 6.59409C13.2653 6.79062 13.2012 6.98411 13.0746 7.13504C12.9479 7.28596 12.7684 7.38291 12.5725 7.40609L12.4824 7.41147H3.5143L7.61014 11.5026C7.74341 11.6356 7.8235 11.8125 7.83539 12.0002C7.84729 12.1879 7.79015 12.3734 7.67473 12.5221L7.61149 12.5946C7.47809 12.7277 7.30064 12.8077 7.11238 12.8196C6.92413 12.8315 6.73799 12.7744 6.58887 12.6591L6.51621 12.5946L1.09635 7.18582C1.06949 7.15865 1.04475 7.12946 1.02235 7.09852L0.967188 7.01256L0.925468 6.9266L0.898562 6.84467L0.878379 6.75333L0.87299 6.70901L0.8703 6.63917L0.87299 6.58141L0.886448 6.48471L0.90932 6.3974L0.942961 6.31279L0.983326 6.23623L1.03311 6.16504L1.09635 6.09252L6.51621 0.683727C6.6613 0.538964 6.85804 0.457642 7.06318 0.457642C7.26832 0.457642 7.46506 0.537621 7.61014 0.682385Z" fill="#1E1F20"/>
</svg>
