<svg preserveAspectRatio="none" width="29" height="14" viewBox="0 0 29 14" fill="none" xmlns="http://www.w3.org/2000/svg">
<path vector-effect="non-scaling-stroke" d="M2.80352 1.51262H26.3329V0.532227H2.80352V1.51262ZM27.8035 2.98321V10.8263H28.7839V2.98321H27.8035ZM26.3329 12.2969H2.80352V13.2773H26.3329V12.2969ZM1.33293 10.8263V2.98321H0.352539V10.8263H1.33293ZM2.80352 12.2969C1.99133 12.2969 1.33293 11.6385 1.33293 10.8263H0.352539C0.352539 12.18 1.44988 13.2773 2.80352 13.2773V12.2969ZM27.8035 10.8263C27.8035 11.6385 27.1451 12.2969 26.3329 12.2969V13.2773C27.6866 13.2773 28.7839 12.18 28.7839 10.8263H27.8035ZM26.3329 1.51262C27.1451 1.51262 27.8035 2.17105 27.8035 2.98321H28.7839C28.7839 1.62958 27.6866 0.532227 26.3329 0.532227V1.51262ZM2.80352 0.532227C1.44988 0.532227 0.352539 1.62958 0.352539 2.98321H1.33293C1.33293 2.17105 1.99133 1.51262 2.80352 1.51262V0.532227Z" fill="url(#paint0_linear_1_2817)"/>
<defs>
<linearGradient vector-effect="non-scaling-stroke" id="paint0_linear_1_2817" x1="6.72509" y1="0.0420307" x2="20.4506" y2="15.2381" gradientUnits="userSpaceOnUse">
<stop stop-color="#FCA239"/>
<stop offset="1" stop-color="#FFBB8B"/>
</linearGradient>
</defs>
</svg>
