<svg preserveAspectRatio="none" width="92" height="12" viewBox="0 0 92 12" fill="none" xmlns="http://www.w3.org/2000/svg">
<path vector-effect="non-scaling-stroke" d="M0.794922 0.512156V9.22699H4.0621C6.67108 9.22699 8.16333 7.62609 8.16333 4.82981C8.16333 2.0945 6.65341 0.512156 4.0621 0.512156H0.794922ZM2.35253 1.82239H3.85713C5.56582 1.82239 6.57477 2.93382 6.57477 4.85455C6.57477 6.8168 5.59056 7.91676 3.85713 7.91676H2.35253V1.82239ZM14.0996 7.42112C13.8822 7.91676 13.3689 8.19418 12.6259 8.19418C11.6416 8.19418 11.0073 7.49356 10.9711 6.37594V6.29819H15.5856V5.82111C15.5856 3.7493 14.4565 2.49914 12.572 2.49914C10.6574 2.49914 9.46739 3.83411 9.46739 5.95363C9.46739 8.06784 10.6389 9.35951 12.5843 9.35951C14.1419 9.35951 15.2472 8.61119 15.5193 7.42112H14.0996ZM12.5658 3.66448C13.4661 3.66448 14.058 4.29884 14.0881 5.30161H10.9773C11.0435 4.31121 11.6717 3.66448 12.5658 3.66448ZM20.6887 2.51681C19.7831 2.51681 19.0162 2.97006 18.6354 3.71926H18.533V2.62549H17.0893V11.419H18.5868V8.22423H18.6902C19.0277 8.92484 19.7593 9.33567 20.7073 9.33567C22.3744 9.33567 23.4125 8.02544 23.4125 5.92978C23.4125 3.81556 22.3621 2.51681 20.6887 2.51681ZM20.2178 8.09169C19.1973 8.09169 18.563 7.26386 18.5568 5.92978C18.563 4.59481 19.2035 3.76697 20.224 3.76697C21.2506 3.76697 21.8726 4.57626 21.8726 5.92978C21.8726 7.28242 21.2568 8.09169 20.2178 8.09169ZM24.9772 9.22699H26.4748V0.0712891H24.9772V9.22699ZM31.2218 9.35951C33.1973 9.35951 34.3989 8.06784 34.3989 5.92359C34.3989 3.79171 33.1911 2.49914 31.2218 2.49914C29.2595 2.49914 28.0456 3.79701 28.0456 5.92359C28.0456 8.06784 29.241 9.35951 31.2218 9.35951ZM31.2218 8.13411C30.1775 8.13411 29.5794 7.32482 29.5794 5.92978C29.5794 4.53385 30.1775 3.72456 31.2218 3.72456C32.2608 3.72456 32.8589 4.53385 32.8589 5.92978C32.8589 7.32482 32.267 8.13411 31.2218 8.13411ZM36.3673 11.6186C37.8471 11.6186 38.5539 11.0815 39.1159 9.4567L41.5013 2.62549H39.919L38.379 7.80809H38.2765L36.7304 2.62549H35.0871L37.4487 9.25084L37.37 9.5592C37.1766 10.1812 36.8205 10.4233 36.1862 10.4233C36.0837 10.4233 35.8601 10.4171 35.7762 10.4047V11.5948C35.8725 11.6124 36.2771 11.6186 36.3673 11.6186ZM46.2483 0.512156V9.22699H49.5155C52.1245 9.22699 53.6168 7.62609 53.6168 4.82981C53.6168 2.0945 52.1068 0.512156 49.5155 0.512156H46.2483ZM47.8068 1.82239H49.3106C51.0192 1.82239 52.0282 2.93382 52.0282 4.85455C52.0282 6.8168 51.044 7.91676 49.3106 7.91676H47.8068V1.82239ZM59.1306 9.22699C60.9913 9.22699 62.1266 8.28519 62.1266 6.75055C62.1266 5.61525 61.3173 4.76974 60.1458 4.66107V4.5524C61.0213 4.41369 61.6972 3.6044 61.6972 2.68645C61.6972 1.34529 60.7006 0.512156 59.0458 0.512156H55.404V9.22699H59.1306ZM56.9626 1.72608H58.6659C59.6077 1.72608 60.1573 2.17844 60.1573 2.95769C60.1573 3.75549 59.5715 4.18399 58.4662 4.18399H56.9626V1.72608ZM56.9626 8.01307V5.28924H58.7136C59.9037 5.28924 60.5319 5.75396 60.5319 6.64188C60.5319 7.53598 59.9222 8.01307 58.7746 8.01307H56.9626ZM71.2699 7.42112C71.0526 7.91676 70.5393 8.19418 69.7963 8.19418C68.8121 8.19418 68.1777 7.49356 68.1414 6.37594V6.29819H72.756V5.82111C72.756 3.7493 71.6269 2.49914 69.7423 2.49914C67.8278 2.49914 66.6377 3.83411 66.6377 5.95363C66.6377 8.06784 67.8093 9.35951 69.7547 9.35951C71.3124 9.35951 72.4176 8.61119 72.6897 7.42112H71.2699ZM69.7362 3.66448C70.6365 3.66448 71.2284 4.29884 71.2584 5.30161H68.1476C68.2139 4.31121 68.8421 3.66448 69.7362 3.66448ZM80.0095 2.62549H78.512V6.47312C78.512 7.46971 77.9801 8.07314 77.0074 8.07314C76.1142 8.07314 75.6971 7.57838 75.6971 6.55176V2.62549H74.1996V6.914C74.1996 8.46012 75.0452 9.35951 76.4888 9.35951C77.4969 9.35951 78.1436 8.93103 78.4634 8.17652H78.5659V9.22699H80.0095V2.62549ZM85.8795 6.40067V5.02948H81.9117V6.40067H85.8795ZM89.8844 9.22699H91.442V0.512156H89.8905L87.6129 2.11218V3.57967L89.7819 2.0459H89.8844V9.22699Z" fill="#2F363D"/>
</svg>
