<svg preserveAspectRatio="none" width="143" height="13" viewBox="0 0 143 13" fill="none" xmlns="http://www.w3.org/2000/svg">
<path vector-effect="non-scaling-stroke" d="M5.64055 3.78234H4.65949V7.47036C4.65949 8.53799 3.96706 9.2595 2.9338 9.2595C1.95767 9.2595 1.49668 8.72849 1.49668 7.59732V3.78234H0.515625V7.84544C0.515625 9.34608 1.25436 10.1598 2.61562 10.1598C3.56811 10.1598 4.28423 9.72117 4.61912 8.94204H4.69989V10.0443H5.64055V3.78234ZM8.10502 5.47338C8.10502 6.36224 8.66448 6.93354 9.79623 7.19328L10.7251 7.40683C11.521 7.5858 11.8273 7.85126 11.8273 8.34759C11.8273 8.94785 11.2846 9.33446 10.4306 9.33446C9.62289 9.33446 9.06831 8.99976 8.9245 8.42265H7.92574C8.03508 9.4961 8.97574 10.1598 10.3961 10.1598C11.8795 10.1598 12.8428 9.40951 12.8428 8.2552C12.8428 7.3491 12.2893 6.81819 11.0708 6.54111L10.1883 6.33909C9.40323 6.16593 9.08015 5.89476 9.08015 5.41566C9.08015 4.84427 9.59332 4.47489 10.3902 4.47489C11.123 4.47489 11.648 4.80969 11.7643 5.35794H12.7099C12.5946 4.31335 11.712 3.66119 10.4079 3.66119C9.02794 3.66119 8.10502 4.38841 8.10502 5.47338ZM19.3822 8.42836C19.2088 8.97671 18.6257 9.31141 17.8358 9.31141C16.768 9.31141 16.0864 8.57267 16.0864 7.42416V7.17023H20.3514V6.55845C20.3514 4.74616 19.394 3.6669 17.7658 3.6669C16.1731 3.6669 15.1172 4.75197 15.1172 6.40263V7.34339C15.1172 9.12672 16.116 10.1598 17.8358 10.1598C19.1517 10.1598 20.1436 9.46142 20.3347 8.42836H19.3822ZM17.7599 4.50956C18.7705 4.50956 19.3822 5.23097 19.3822 6.42567H16.0864C16.0864 5.22526 16.7158 4.50956 17.7599 4.50956ZM24.7494 7.23948C24.7494 5.64654 25.5689 4.68844 26.9538 4.68844C27.2947 4.68844 27.6985 4.75778 27.9871 4.8616V3.75929C27.7793 3.67271 27.4394 3.6208 27.0809 3.6208C25.8753 3.6208 25.0961 4.22096 24.8647 5.38109H24.7376V3.78234H22.4002V4.56729H23.791V9.2595H22.5273V10.0443H26.6889V9.2595H24.7494V7.23948ZM35.3578 6.80657V5.89476H29.2509V6.80657H35.3578ZM40.003 3.67853C39.1087 3.67853 38.4566 4.0479 38.1276 4.74045H38.0242V3.78234H37.054V12.1568H38.0528V9.07481H38.1621C38.4339 9.76155 39.0978 10.1483 40.003 10.1483C41.452 10.1483 42.3985 9.10367 42.3985 7.49922V6.33338C42.3985 4.72311 41.452 3.67853 40.003 3.67853ZM39.7204 4.57881C40.7536 4.57881 41.4116 5.31756 41.4116 6.47187V7.37225C41.4116 8.52647 40.7536 9.27103 39.7204 9.27103C38.6881 9.27103 38.0301 8.53228 38.0301 7.37225V6.47187C38.0301 5.31756 38.6881 4.57881 39.7204 4.57881ZM46.6695 7.23948C46.6695 5.64654 47.489 4.68844 48.8739 4.68844C49.2147 4.68844 49.6186 4.75778 49.9072 4.8616V3.75929C49.6993 3.67271 49.3595 3.6208 49.001 3.6208C47.7953 3.6208 47.0162 4.22096 46.7847 5.38109H46.6577V3.78234H44.3203V4.56729H45.7111V9.2595H44.4473V10.0443H48.6089V9.2595H46.6695V7.23948ZM54.2244 10.1598C55.8812 10.1598 56.9371 9.08053 56.9371 7.38949V6.44301C56.9371 4.75197 55.8812 3.67271 54.2244 3.67271C52.5676 3.67271 51.5117 4.75197 51.5117 6.44301V7.38949C51.5117 9.08053 52.5676 10.1598 54.2244 10.1598ZM54.2244 4.53843C55.298 4.53843 55.9678 5.30022 55.9678 6.52959V7.2972C55.9678 8.53228 55.298 9.28836 54.2244 9.28836C53.1507 9.28836 52.4809 8.53228 52.4809 7.2972V6.52959C52.4809 5.30022 53.1507 4.53843 54.2244 4.53843ZM58.7032 3.78234L60.9942 10.0443H62.0738L64.359 3.78234H63.3139L61.5774 8.99395H61.5025L59.7532 3.78234H58.7032ZM68.9471 2.24713C69.409 2.24713 69.7607 1.90091 69.7607 1.43914C69.7607 0.983189 69.409 0.636963 68.9471 0.636963C68.4851 0.636963 68.1335 0.983189 68.1335 1.43914C68.1335 1.90091 68.4851 2.24713 68.9471 2.24713ZM71.5731 10.0443V9.23064H69.5016V3.78234H66.4019V4.59615H68.5314V9.23064H66.3851V10.0443H71.5731ZM75.7514 10.1483C76.6468 10.1483 77.3047 9.77889 77.6278 9.08634H77.7372V10.0443H78.7015V1.3237H77.7027V4.75197H77.5983C77.3274 4.06514 76.6576 3.67853 75.7514 3.67853C74.3035 3.67853 73.3569 4.72311 73.3569 6.32757V7.49341C73.3569 9.10367 74.3035 10.1483 75.7514 10.1483ZM76.04 9.25369C75.0077 9.25369 74.3439 8.50923 74.3439 7.35492V6.45453C74.3439 5.30022 75.0077 4.56147 76.04 4.56147C77.0674 4.56147 77.7313 5.30022 77.7313 6.45453V7.35492C77.7313 8.51494 77.0674 9.25369 76.04 9.25369ZM85.1424 8.42836C84.969 8.97671 84.3859 9.31141 83.5949 9.31141C82.5272 9.31141 81.8466 8.57267 81.8466 7.42416V7.17023H86.1116V6.55845C86.1116 4.74616 85.1532 3.6669 83.526 3.6669C81.9332 3.6669 80.8773 4.75197 80.8773 6.40263V7.34339C80.8773 9.12672 81.8751 10.1598 83.5949 10.1598C84.9109 10.1598 85.9037 9.46142 86.0938 8.42836H85.1424ZM83.5201 4.50956C84.5307 4.50956 85.1424 5.23097 85.1424 6.42567H81.8466C81.8466 5.22526 82.476 4.50956 83.5201 4.50956ZM90.3648 10.1483C91.2601 10.1483 91.9181 9.77889 92.2412 9.08634H92.3505V10.0443H93.3149V1.3237H92.3161V4.75197H92.2116C91.9408 4.06514 91.271 3.67853 90.3648 3.67853C88.9168 3.67853 87.9703 4.72311 87.9703 6.32757V7.49341C87.9703 9.10367 88.9168 10.1483 90.3648 10.1483ZM90.6534 9.25369C89.6211 9.25369 88.9572 8.50923 88.9572 7.35492V6.45453C88.9572 5.30022 89.6211 4.56147 90.6534 4.56147C91.6808 4.56147 92.3446 5.30022 92.3446 6.45453V7.35492C92.3446 8.51494 91.6808 9.25369 90.6534 9.25369ZM102.543 3.78234L104.834 10.0443H105.914L108.199 3.78234H107.154L105.417 8.99395H105.342L103.593 3.78234H102.543ZM112.043 10.1541C112.955 10.1541 113.635 9.77889 113.936 9.10939H114.034V10.0502H114.969V5.76199C114.969 4.45766 114.126 3.70739 112.654 3.70739C111.374 3.70739 110.404 4.39412 110.288 5.39833H111.252C111.414 4.8616 111.921 4.55576 112.643 4.55576C113.514 4.55576 113.994 4.98857 113.994 5.77351V6.33909L112.274 6.42567C110.848 6.50073 110.052 7.15871 110.052 8.26682C110.052 9.4038 110.848 10.1541 112.043 10.1541ZM112.325 9.29407C111.535 9.29407 111.045 8.89013 111.045 8.23215C111.045 7.57999 111.506 7.2048 112.383 7.16442L113.994 7.08936V7.82811C113.994 8.66506 113.272 9.29407 112.325 9.29407ZM122.72 10.0443V9.23064H120.653V1.3237H117.549V2.1375H119.672V9.23064H117.531V10.0443H122.72ZM129.853 3.78234H128.872V7.47036C128.872 8.53799 128.18 9.2595 127.146 9.2595C126.171 9.2595 125.709 8.72849 125.709 7.59732V3.78234H124.728V7.84544C124.728 9.34608 125.467 10.1598 126.829 10.1598C127.782 10.1598 128.497 9.72117 128.832 8.94204H128.913V10.0443H129.853V3.78234ZM136.288 8.42836C136.116 8.97671 135.533 9.31141 134.742 9.31141C133.674 9.31141 132.993 8.57267 132.993 7.42416V7.17023H137.258V6.55845C137.258 4.74616 136.3 3.6669 134.673 3.6669C133.08 3.6669 132.023 4.75197 132.023 6.40263V7.34339C132.023 9.12672 133.022 10.1598 134.742 10.1598C136.058 10.1598 137.051 9.46142 137.241 8.42836H136.288ZM134.667 4.50956C135.676 4.50956 136.288 5.23097 136.288 6.42567H132.993C132.993 5.22526 133.622 4.50956 134.667 4.50956ZM141.905 10.079C142.476 10.079 142.949 9.60001 142.949 9.01128C142.949 8.42836 142.476 7.94936 141.905 7.94936C141.333 7.94936 140.86 8.42836 140.86 9.01128C140.86 9.60001 141.333 10.079 141.905 10.079Z" fill="#2188FF"/>
</svg>
