<svg preserveAspectRatio="none" width="5" height="6" viewBox="0 0 5 6" fill="none" xmlns="http://www.w3.org/2000/svg">
<path vector-effect="non-scaling-stroke" d="M0.324964 2.11739C0.434964 1.38299 0.831964 0.712492 1.64596 0.368392C1.73496 0.323892 1.84296 0.372093 1.88696 0.460693C1.92596 0.561993 1.87796 0.670288 1.78796 0.710288C1.10496 1.00939 0.802971 1.53199 0.687971 2.16839C0.628971 2.52339 0.652969 2.91539 0.719969 3.29739C0.888969 2.84139 1.24097 2.45239 1.72897 2.26539C2.64597 1.91319 3.65896 2.36439 4.00596 3.26639C4.35396 4.17439 3.90696 5.18539 2.99696 5.54039C2.10796 5.88139 1.11696 5.45939 0.746962 4.59139C0.691961 4.49139 0.651969 4.38539 0.607969 4.27039C0.358969 3.60939 0.214969 2.83539 0.329969 2.11539L0.324964 2.11739ZM1.08197 4.43139C1.09597 4.46839 1.11596 4.49239 1.13096 4.51839C1.13996 4.54139 1.14497 4.55539 1.14097 4.57239C1.47097 5.16939 2.20596 5.44739 2.85496 5.19839C3.57796 4.92039 3.93397 4.11339 3.66197 3.40439C3.38997 2.69439 2.58196 2.33939 1.85896 2.61639C1.14996 2.88939 0.793962 3.69639 1.06596 4.40539L1.07696 4.43339L1.08197 4.43139Z" fill="#F8F8F8"/>
</svg>
