<svg preserveAspectRatio="none" width="79" height="19" viewBox="0 0 79 19" fill="none" xmlns="http://www.w3.org/2000/svg">
<path vector-effect="non-scaling-stroke" d="M0.635925 0.805176H8.21671C8.36595 1.56442 8.36595 2.34537 8.21671 3.10461H3.34853V5.99906H7.21429C7.36128 6.76485 7.36128 7.55152 7.21429 8.3173H3.34853V11.8403H8.34723C8.49647 12.5996 8.49647 13.3805 8.34723 14.1398H0.635925V0.805176ZM11.6775 9.189L9.8381 4.55117C10.286 4.47413 10.7399 4.43727 11.1944 4.44103C11.6654 4.44103 12.1417 4.4773 12.6247 4.55117L14.0927 9.24407L12.1794 14.1398C11.7432 14.2132 11.3017 14.2505 10.8594 14.2513C10.4261 14.2513 9.96863 14.2137 9.48558 14.1398L11.6775 9.189ZM14.2232 9.24273L15.7087 4.55117C16.1822 4.4762 16.661 4.43937 17.1404 4.44103C17.5979 4.44103 18.05 4.4773 18.4967 4.55117L16.6385 9.189L18.8492 14.1398C18.3662 14.215 17.9073 14.2513 17.4741 14.2513C17.0408 14.2513 16.6008 14.2137 16.1554 14.1398L14.2232 9.24273ZM20.3764 4.53371C20.55 4.4961 20.7168 4.47192 20.8783 4.45849C21.07 4.44586 21.2621 4.44003 21.4542 4.44103C21.8 4.44103 22.1539 4.4773 22.5131 4.55117C22.5495 4.61295 22.5804 4.70563 22.606 4.83054C22.6423 4.94068 22.6733 5.06559 22.6988 5.20124C22.7352 5.3369 22.7607 5.47255 22.7728 5.60955C22.7971 5.73312 22.8159 5.83789 22.828 5.92385C22.945 5.71923 23.0821 5.52667 23.2371 5.34899C23.3985 5.15155 23.5909 4.97829 23.8129 4.83054C24.056 4.67828 24.3185 4.55946 24.5934 4.4773C24.8786 4.37925 25.1948 4.32955 25.5406 4.32955C26.0735 4.32955 26.5686 4.4276 27.0275 4.62504C27.4984 4.82382 27.9074 5.12603 28.2532 5.53434C28.6004 5.93056 28.8668 6.43155 29.0525 7.0373C29.2503 7.64171 29.3499 8.36029 29.3499 9.189C29.3609 9.92711 29.2415 10.6614 28.9973 11.3582C28.7779 11.9636 28.4289 12.5141 27.9747 12.9713C27.5096 13.4294 26.9524 13.7837 26.3399 14.0108C25.6954 14.2459 24.9647 14.3627 24.148 14.3627C23.9367 14.3627 23.7268 14.3493 23.5156 14.3251C23.3474 14.3163 23.1798 14.298 23.0137 14.2701V18.5358C22.7864 18.572 22.5573 18.5967 22.3275 18.6097C21.9004 18.6351 21.4722 18.6351 21.0452 18.6097C20.8212 18.596 20.598 18.5713 20.3764 18.5358V4.53371ZM23.0137 12.0996C23.3487 12.199 23.7322 12.2473 24.1668 12.2473C24.9338 12.2473 25.5231 12.0015 25.9308 11.5072C26.3399 11.0116 26.5444 10.2635 26.5444 9.26287C26.5444 8.87874 26.5135 8.52683 26.4516 8.20582C26.402 7.90348 26.2946 7.61347 26.1354 7.3516C25.9897 7.11045 25.7819 6.91271 25.5337 6.779C25.2854 6.64529 25.0058 6.5805 24.7239 6.59138C24.4144 6.59138 24.148 6.65317 23.9246 6.77673C23.7123 6.89051 23.5329 7.05705 23.4039 7.26026C23.2615 7.47403 23.161 7.71286 23.1079 7.96406C23.046 8.23672 23.0137 8.52683 23.0137 8.8371V12.0996ZM33.509 10.152C33.5574 10.8948 33.8184 11.432 34.2894 11.7665C34.759 12.0996 35.3793 12.2675 36.1462 12.2675C36.5674 12.2675 36.9953 12.2298 37.4285 12.156C37.8752 12.0687 38.2964 11.9518 38.692 11.8027C39.0161 12.422 39.1942 13.1069 39.2127 13.8053C38.2466 14.1774 37.1567 14.3627 35.943 14.3627C35.0509 14.3627 34.2826 14.2392 33.6381 13.992C33.0483 13.7719 32.515 13.4231 32.0773 12.9713C31.6742 12.5134 31.3708 11.9769 31.1865 11.3958C30.9953 10.7516 30.9014 10.0825 30.908 9.41062C30.908 8.70682 31.0062 8.04465 31.204 7.42681C31.4032 6.80897 31.6938 6.27038 32.0773 5.81237C32.4742 5.3557 32.9573 4.99709 33.5265 4.73786C34.1091 4.46521 34.7845 4.32955 35.5528 4.32955C36.2216 4.32955 36.8163 4.44641 37.3357 4.68145C37.8458 4.91261 38.3014 5.24845 38.6728 5.66709C39.0442 6.08573 39.3231 6.57777 39.4913 7.11117C39.6769 7.66723 39.7698 8.26627 39.7698 8.91097C39.7698 9.14467 39.7577 9.38106 39.7321 9.61477C39.72 9.83773 39.7012 10.0177 39.6769 10.152H33.509ZM37.2805 8.3173C37.255 7.72364 37.0881 7.24683 36.7786 6.88821C36.4813 6.51751 36.0601 6.33216 35.5152 6.33216C34.8962 6.33216 34.4253 6.50542 34.1037 6.85195C33.7807 7.19713 33.5883 7.68603 33.5265 8.31596L37.2805 8.3173ZM41.8419 4.55117C42.0136 4.51447 42.1875 4.48978 42.3626 4.4773C42.5349 4.45312 42.7273 4.44103 42.9385 4.44103C43.1484 4.44103 43.3341 4.45312 43.4956 4.4773C43.6571 4.49073 43.8239 4.51491 43.9975 4.55117C44.0338 4.61295 44.0648 4.70563 44.0903 4.83054C44.1635 5.07235 44.213 5.32063 44.2383 5.57195C44.2639 5.69551 44.2814 5.80028 44.2948 5.88758C44.4186 5.70089 44.5667 5.51688 44.7402 5.33018C44.9138 5.14483 45.1116 4.97829 45.3349 4.83054C45.578 4.67828 45.8405 4.55946 46.1154 4.4773C46.4006 4.37925 46.7155 4.32955 47.0626 4.32955C48.1525 4.32955 48.9706 4.62504 49.5156 5.2187C50.0726 5.81237 50.3512 6.74585 50.3512 8.02048V14.1398C49.9154 14.2132 49.4744 14.2505 49.0325 14.2513C48.5992 14.2513 48.1593 14.2137 47.7125 14.1398V8.72428C47.7125 8.05674 47.6076 7.54366 47.3977 7.18505C47.1985 6.82643 46.846 6.64779 46.3387 6.64779C46.1275 6.64779 45.9109 6.67869 45.6875 6.74047C45.4545 6.8086 45.2434 6.9364 45.0753 7.11117C44.8787 7.32313 44.7325 7.57653 44.6474 7.85259C44.5357 8.17494 44.4805 8.59533 44.4805 9.11513V14.1398C44.0444 14.2132 43.6029 14.2505 43.1605 14.2513C42.7273 14.2513 42.2873 14.2137 41.8419 14.1398V4.55117ZM54.6044 9.96667C53.9115 9.76923 53.3652 9.47912 52.9696 9.09498C52.5861 8.7001 52.3937 8.11315 52.3937 7.33413C52.3937 6.39394 52.7274 5.65791 53.3961 5.12737C54.0783 4.59549 55.0014 4.32955 56.1653 4.32955C56.6483 4.32955 57.1246 4.37253 57.5956 4.45849C58.0665 4.5458 58.5428 4.67608 59.0259 4.848C59.0017 5.17035 58.9398 5.50345 58.8402 5.84998C58.7541 6.1643 58.636 6.46899 58.4877 6.75927C58.1682 6.6284 57.8388 6.52286 57.5027 6.44364C57.1335 6.3436 56.7524 6.29391 56.3698 6.2959C55.9486 6.2959 55.6203 6.36305 55.3848 6.49871C55.1494 6.62227 55.0323 6.82643 55.0323 7.11117C55.0323 7.38383 55.1117 7.57456 55.2731 7.68604C55.4467 7.79752 55.6889 7.90228 55.9984 8.00167L57.0573 8.3173C57.4032 8.41535 57.714 8.53892 57.9858 8.68801C58.271 8.82232 58.5119 8.99693 58.711 9.20646C58.9088 9.41733 59.0636 9.67655 59.1752 9.98547C59.2869 10.2944 59.3421 10.6718 59.3421 11.1177C59.3421 11.5744 59.2425 12.0015 59.0447 12.3964C58.8508 12.8029 58.5647 13.1588 58.2091 13.436C57.8126 13.7394 57.3658 13.9713 56.8892 14.121C56.3698 14.2822 55.7818 14.3627 55.1251 14.3627C54.8278 14.3627 54.5546 14.3493 54.3071 14.3251C54.0637 14.3134 53.8216 14.2824 53.5831 14.2325C53.3573 14.195 53.1337 14.1457 52.9131 14.0847C52.6682 14.0152 52.4266 13.9345 52.1892 13.8429C52.2134 13.5099 52.2699 13.1754 52.356 12.8423C52.4556 12.4958 52.5794 12.1613 52.7274 11.8403C53.1364 12.0015 53.5213 12.1251 53.8805 12.211C54.2519 12.2863 54.6354 12.3225 55.0323 12.3225C55.2045 12.3225 55.3916 12.3091 55.5894 12.2849C55.7993 12.2487 55.9917 12.1922 56.1653 12.1184C56.3265 12.0409 56.4716 11.9338 56.5931 11.8027C56.7193 11.66 56.7857 11.4745 56.7788 11.2843C56.7788 10.9874 56.686 10.7766 56.499 10.653C56.2745 10.4922 56.023 10.3729 55.7562 10.3011L54.6044 9.96667ZM63.3922 10.152C63.442 10.8948 63.7016 11.432 64.1726 11.7665C64.6435 12.0996 65.2625 12.2675 66.0308 12.2675C66.452 12.2675 66.8785 12.2298 67.3118 12.156C67.7585 12.0687 68.1796 11.9518 68.5752 11.8027C68.8993 12.422 69.0774 13.1069 69.096 13.8053C68.1299 14.1774 67.04 14.3627 65.8263 14.3627C64.9342 14.3627 64.1659 14.2392 63.5214 13.992C62.9317 13.7722 62.3989 13.4234 61.9619 12.9713C61.5579 12.5138 61.254 11.9772 61.0698 11.3958C60.8785 10.7516 60.7847 10.0825 60.7912 9.41062C60.7861 8.73791 60.8864 8.06854 61.0886 7.42681C61.2706 6.83663 61.5674 6.28804 61.9619 5.81237C62.3575 5.3557 62.8405 4.99709 63.411 4.73786C63.9923 4.46521 64.6678 4.32955 65.4361 4.32955C66.1048 4.32955 66.6995 4.44641 67.2189 4.68145C67.729 4.91261 68.1846 5.24845 68.556 5.66709C68.9274 6.08573 69.2063 6.57777 69.3745 7.11117C69.5602 7.66723 69.653 8.26627 69.653 8.91097C69.653 9.14467 69.6409 9.38106 69.6167 9.61477C69.6032 9.83773 69.5857 10.0177 69.5602 10.152H63.3922ZM67.1637 8.3173C67.1382 7.72364 66.9713 7.24683 66.6619 6.88821C66.3645 6.51751 65.9433 6.33216 65.3984 6.33216C64.7794 6.33216 64.3085 6.50542 63.9869 6.85195C63.664 7.19713 63.4729 7.68603 63.411 8.31596L67.1637 8.3173ZM73.5833 9.96667C72.889 9.76923 72.3441 9.47912 71.9485 9.09498C71.5637 8.7001 71.3726 8.11315 71.3726 7.33413C71.3726 6.39394 71.7063 5.65791 72.375 5.12737C73.0572 4.59549 73.9789 4.32955 75.1442 4.32955C75.6272 4.32955 76.1036 4.37253 76.5745 4.45849C77.0454 4.5458 77.5218 4.67608 78.0048 4.848C77.9806 5.17035 77.9187 5.50345 77.8191 5.84998C77.733 6.1643 77.6149 6.46899 77.4666 6.75927C77.1471 6.6284 76.8178 6.52286 76.4817 6.44364C76.1124 6.3436 75.7313 6.29391 75.3487 6.2959C74.9275 6.2959 74.5992 6.36305 74.3638 6.49871C74.1283 6.62227 74.0099 6.82643 74.0099 7.11117C74.0099 7.38383 74.0906 7.57456 74.2521 7.68604C74.4257 7.79752 74.6665 7.90228 74.9773 8.00167L76.0363 8.3173C76.3821 8.41535 76.6916 8.53892 76.9647 8.68801C77.25 8.82232 77.4908 8.99693 77.69 9.20646C77.8877 9.41733 78.0425 9.67655 78.1542 9.98547C78.2658 10.2944 78.321 10.6718 78.321 11.1177C78.321 11.5744 78.2214 12.0015 78.0236 12.3964C77.8297 12.8029 77.5436 13.1588 77.1881 13.436C76.7915 13.7394 76.3447 13.9713 75.8681 14.121C75.2955 14.2893 74.7009 14.3708 74.1041 14.3627C73.8067 14.3627 73.5336 14.3493 73.286 14.3251C73.0422 14.3133 72.7997 14.2823 72.5607 14.2325C72.3354 14.1949 72.1122 14.1456 71.892 14.0847C71.6471 14.0152 71.4056 13.9345 71.1681 13.8429C71.1923 13.5099 71.2488 13.1754 71.3349 12.8423C71.4345 12.4958 71.5583 12.1613 71.7063 11.8403C72.1154 12.0015 72.4988 12.1251 72.8581 12.211C73.2308 12.2863 73.6143 12.3225 74.0099 12.3225C74.1835 12.3225 74.3692 12.3091 74.5683 12.2849C74.7782 12.2487 74.9706 12.1922 75.1442 12.1184C75.3178 12.0324 75.4604 11.9263 75.5707 11.8027C75.6969 11.66 75.7633 11.4745 75.7564 11.2843C75.7564 10.9874 75.6636 10.7766 75.4779 10.653C75.2533 10.4924 75.0018 10.3732 74.7351 10.3011L73.5833 9.96667Z" fill="black"/>
</svg>
