<svg preserveAspectRatio="none" width="72" height="12" viewBox="0 0 72 12" fill="none" xmlns="http://www.w3.org/2000/svg">
<path vector-effect="non-scaling-stroke" opacity="0.5" d="M0.931641 1.38802V9.04248H2.30017V6.51222H3.96044C5.5094 6.51222 6.59152 5.47781 6.59152 3.96607C6.59152 2.42768 5.54653 1.38802 4.0188 1.38802H0.931641ZM2.30017 2.50728H3.65813C4.64475 2.50728 5.20176 3.01649 5.20176 3.96607C5.20176 4.88899 4.62885 5.40887 3.6528 5.40887H2.30017V2.50728ZM7.96538 9.04248H9.28097V5.67414C9.28097 4.85719 9.87502 4.32675 10.7291 4.32675C10.9519 4.32675 11.3019 4.36388 11.4028 4.40102V3.20216C11.2808 3.17036 11.0473 3.14912 10.8564 3.14912C10.1084 3.14912 9.48255 3.5735 9.32334 4.14641H9.23317V3.24463H7.96538V9.04248ZM14.8401 9.15921C16.5747 9.15921 17.6303 8.02406 17.6303 6.14088C17.6303 4.26838 16.5693 3.13322 14.8401 3.13322C13.1162 3.13322 12.0499 4.27371 12.0499 6.14088C12.0499 8.02406 13.1002 9.15921 14.8401 9.15921ZM14.8401 8.08232C13.9224 8.08232 13.3972 7.37154 13.3972 6.14622C13.3972 4.92089 13.9224 4.21001 14.8401 4.21001C15.7525 4.21001 16.2776 4.92089 16.2776 6.14622C16.2776 7.37154 15.7578 8.08232 14.8401 8.08232ZM19.6354 2.27391C20.0651 2.27391 20.4205 1.92913 20.4205 1.49409C20.4205 1.06446 20.0651 0.714355 19.6354 0.714355C19.2004 0.714355 18.845 1.06446 18.845 1.49409C18.845 1.92913 19.2004 2.27391 19.6354 2.27391ZM20.2825 3.24463H18.9723V9.24938C18.9723 9.78516 18.7655 10.0026 18.182 10.0026C18.1554 10.0026 18.0281 10.0026 18.0122 9.9973V11.0105C18.0494 11.0157 18.2615 11.0211 18.3304 11.0211C19.6301 11.0211 20.2825 10.4535 20.2825 9.26528V3.24463ZM25.6985 7.45638C25.5075 7.89142 25.0566 8.13536 24.4041 8.13536C23.5396 8.13536 22.9825 7.52008 22.9507 6.53869V6.46976H27.0034V6.05072C27.0034 4.23125 26.0114 3.13322 24.3564 3.13322C22.6749 3.13322 21.6299 4.30551 21.6299 6.16745C21.6299 8.02405 22.659 9.15921 24.367 9.15921C25.7356 9.15921 26.7063 8.50136 26.945 7.45638H25.6985ZM24.3511 4.15698C25.1415 4.15698 25.6613 4.71399 25.6878 5.59454H22.956C23.0144 4.72456 23.566 4.15698 24.3511 4.15698ZM33.337 5.18073C33.1991 3.98197 32.2973 3.13322 30.8068 3.13322C29.0616 3.13322 28.0377 4.25248 28.0377 6.13032C28.0377 8.02929 29.0668 9.15921 30.812 9.15921C32.2814 9.15921 33.1937 8.34226 33.337 7.14341H32.0851C31.9472 7.75345 31.491 8.07709 30.8068 8.07709C29.9102 8.07709 29.3692 7.36098 29.3692 6.13032C29.3692 4.92089 29.905 4.21001 30.8068 4.21001C31.5281 4.21001 31.9632 4.61849 32.0851 5.18073H33.337ZM35.0875 1.82297V3.28176H34.1698V4.30551H35.0875V7.50418C35.0875 8.62343 35.6179 9.06904 36.9494 9.06904C37.204 9.06904 37.448 9.04781 37.6389 9.01068V8.00282C37.4798 8.01872 37.379 8.02929 37.1934 8.02929C36.6418 8.02929 36.3977 7.76935 36.3977 7.19121V4.30551H37.6389V3.28176H36.3977V1.82297H35.0875ZM45.0759 9.13798C46.54 9.13798 47.4576 7.98692 47.4576 6.14622C47.4576 4.29495 46.5453 3.14912 45.0759 3.14912C44.2802 3.14912 43.6119 3.53637 43.3095 4.16764H43.2193V1.0008H41.9038V9.04248H43.1716V8.12479H43.2618C43.5907 8.7613 44.2643 9.13798 45.0759 9.13798ZM44.6622 4.24715C45.5587 4.24715 46.105 4.96326 46.105 6.14622C46.105 7.32908 45.5639 8.04519 44.6622 8.04519C43.7604 8.04519 43.1981 7.31851 43.1981 6.14622C43.1981 4.97393 43.7657 4.24715 44.6622 4.24715ZM51.2823 9.15921C53.0168 9.15921 54.0724 8.02406 54.0724 6.14088C54.0724 4.26838 53.0116 3.13322 51.2823 3.13322C49.5583 3.13322 48.4921 4.27371 48.4921 6.14088C48.4921 8.02406 49.5424 9.15921 51.2823 9.15921ZM51.2823 8.08232C50.3646 8.08232 49.8394 7.37154 49.8394 6.14622C49.8394 4.92089 50.3646 4.21001 51.2823 4.21001C52.1946 4.21001 52.7197 4.92089 52.7197 6.14622C52.7197 7.37154 52.1999 8.08232 51.2823 8.08232ZM56.9952 9.13798C57.7537 9.13798 58.3903 8.8091 58.7139 8.24676H58.8041V9.04248H60.0719V5.08C60.0719 3.85467 59.2337 3.13322 57.7432 3.13322C56.364 3.13322 55.4038 3.7804 55.2978 4.79359H56.539C56.6611 4.39568 57.0748 4.17821 57.6795 4.17821C58.3903 4.17821 58.7723 4.50175 58.7723 5.08V5.57864L57.2763 5.66881C55.8653 5.74841 55.075 6.35835 55.075 7.39811C55.075 8.459 55.8759 9.13798 56.9952 9.13798ZM57.3824 8.12479C56.7989 8.12479 56.3799 7.83305 56.3799 7.33441C56.3799 6.85167 56.7247 6.58116 57.462 6.53346L58.7723 6.44329V6.91537C58.7723 7.60491 58.1781 8.12479 57.3824 8.12479ZM61.6579 9.04248H62.9735V5.67414C62.9735 4.85719 63.5675 4.32675 64.4216 4.32675C64.6444 4.32675 64.9945 4.36388 65.0952 4.40102V3.20216C64.9733 3.17036 64.7398 3.14912 64.5489 3.14912C63.801 3.14912 63.175 3.5735 63.0158 4.14641H62.9256V3.24463H61.6579V9.04248ZM68.1295 9.13798C68.9357 9.13798 69.6041 8.7613 69.9329 8.12479H70.0232V9.04248H71.2962V1.0008H69.9807V4.16764H69.8906C69.5829 3.53103 68.9251 3.14912 68.1295 3.14912C66.6653 3.14912 65.7424 4.30551 65.7424 6.14088C65.7424 7.98159 66.6601 9.13798 68.1295 9.13798ZM68.5378 4.24715C69.4396 4.24715 69.9966 4.97393 69.9966 6.14622C69.9966 7.32384 69.4449 8.04519 68.5378 8.04519C67.6361 8.04519 67.0897 7.33441 67.0897 6.14622C67.0897 4.96326 67.6414 4.24715 68.5378 4.24715Z" fill="#8292AD"/>
</svg>
