<svg preserveAspectRatio="none" width="13" height="14" viewBox="0 0 13 14" fill="none" xmlns="http://www.w3.org/2000/svg">
<path vector-effect="non-scaling-stroke" fill-rule="evenodd" clip-rule="evenodd" d="M6.4677 13.1004C9.88331 13.1004 12.6522 10.3316 12.6522 6.91594C12.6522 3.50033 9.88331 0.731445 6.4677 0.731445C3.05209 0.731445 0.283203 3.50033 0.283203 6.91594C0.283203 10.3316 3.05209 13.1004 6.4677 13.1004ZM9.3903 5.58654C9.61648 5.3601 9.61648 4.99301 9.3903 4.76656C9.16324 4.54012 8.79661 4.54012 8.57043 4.76656L5.50116 7.8354L4.36497 6.69922C4.13879 6.47278 3.77127 6.47278 3.5451 6.69922C3.31892 6.92566 3.31892 7.29276 3.5451 7.5192L5.09122 9.06532C5.3174 9.29167 5.68492 9.29167 5.91109 9.06532L9.3903 5.58654Z" fill="#28A745"/>
</svg>
