<svg preserveAspectRatio="none" width="11" height="14" viewBox="0 0 11 14" fill="none" xmlns="http://www.w3.org/2000/svg">
<path vector-effect="non-scaling-stroke" d="M0.200012 11.6667V10.2667H1.51668V5.67714C1.51668 4.77017 1.79446 3.95834 2.35001 3.24168C2.90557 2.52501 3.62223 2.05351 4.50001 1.82718V0.333344H6.56668V1.83334C7.44569 2.05557 8.15989 2.52501 8.70928 3.24168C9.25866 3.95834 9.53335 4.77017 9.53335 5.67714V10.2667H10.8667V11.6667H0.200012ZM5.53335 13.6667C5.15557 13.6667 4.8389 13.5389 4.58335 13.2833C4.32779 13.0278 4.20001 12.7111 4.20001 12.3333H6.86668C6.86668 12.7111 6.7389 13.0278 6.48335 13.2833C6.22779 13.5389 5.91112 13.6667 5.53335 13.6667ZM2.91668 10.2667H8.13335V5.68334C8.13335 4.96834 7.88335 4.35626 7.38335 3.84709C6.88335 3.33793 6.26668 3.08334 5.53335 3.08334C4.82223 3.08334 4.20835 3.33793 3.69168 3.84709C3.17501 4.35626 2.91668 4.96834 2.91668 5.68334V10.2667Z" fill="#6F6F6F"/>
</svg>
