<svg preserveAspectRatio="none" width="70" height="19" viewBox="0 0 70 19" fill="none" xmlns="http://www.w3.org/2000/svg">
<path vector-effect="non-scaling-stroke" d="M0.654144 0.531991C1.22466 0.482295 1.80056 0.44602 2.38183 0.4205C2.96445 0.384236 3.55245 0.365411 4.14718 0.365411C4.76613 0.365411 5.39182 0.427196 6.02423 0.550764C6.6674 0.674332 7.24329 0.909412 7.7519 1.25594C8.27128 1.58904 8.69379 2.05911 9.01537 2.66486C9.3383 3.27061 9.49842 4.05634 9.49842 5.02071C9.49842 5.98507 9.33696 6.76949 9.01403 7.37524C8.69244 7.96891 8.27801 8.43899 7.77074 8.78551C7.26212 9.13204 6.69296 9.36708 6.0619 9.49065C5.4416 9.61422 4.82803 9.676 4.22119 9.676H3.75697L3.36676 9.63842V13.923C3.13938 13.9589 2.91036 13.9835 2.68054 13.9969C2.24715 14.0203 1.81279 14.0203 1.3794 13.9969C1.13662 13.9836 0.894599 13.959 0.654144 13.923V0.531991ZM3.36676 7.39402C3.5018 7.41809 3.63864 7.43069 3.77581 7.43164H4.25886C4.56834 7.43164 4.87243 7.39403 5.1698 7.32015C5.46582 7.23419 5.72686 7.09721 5.95022 6.91186C6.19132 6.71912 6.38238 6.47123 6.50727 6.18922C6.65302 5.82995 6.72266 5.44445 6.71179 5.05698C6.71179 4.60032 6.64317 4.2162 6.50727 3.90728C6.38892 3.6106 6.19674 3.34894 5.94887 3.14705C5.72578 2.94976 5.45793 2.8096 5.16846 2.73872C4.87289 2.65305 4.56664 2.60966 4.25886 2.60981C4.12296 2.60981 3.99244 2.61515 3.86865 2.62858C3.75697 2.62858 3.59012 2.64068 3.36676 2.66486V7.39402ZM13.313 9.93522C13.3628 10.6766 13.6225 11.2152 14.0935 11.5483C14.5644 11.8828 15.1834 12.0493 15.9517 12.0493C16.3728 12.0493 16.7993 12.0117 17.234 11.9379C17.6793 11.8519 18.1005 11.7337 18.4974 11.5859C18.6333 11.8331 18.7517 12.1299 18.85 12.4764C18.9495 12.8216 19.0047 13.1937 19.0182 13.5885C18.0521 13.9592 16.9608 14.1446 15.7485 14.1446C14.8564 14.1446 14.0881 14.021 13.4436 13.7739C12.8537 13.5544 12.3205 13.2061 11.8827 12.7544C11.4791 12.2962 11.1753 11.7593 10.9906 11.1776C10.7994 10.5339 10.7055 9.86523 10.7121 9.19381C10.7121 8.48866 10.8117 7.8265 11.0095 7.20866C11.2073 6.59082 11.4992 6.05224 11.8841 5.59558C12.2824 5.13598 12.7765 4.76881 13.3319 4.51974C13.9145 4.24708 14.59 4.1114 15.3569 4.1114C16.027 4.1114 16.6217 4.2296 17.1411 4.46465C17.6618 4.69835 18.1005 5.02073 18.4598 5.42904C18.8311 5.83601 19.111 6.3249 19.2967 6.89305C19.4824 7.45045 19.5752 8.04948 19.5752 8.69284C19.5752 8.92789 19.5631 9.16293 19.5375 9.39797C19.5297 9.57798 19.5113 9.75736 19.4824 9.93522H13.313ZM17.0846 8.09919C17.0604 7.50553 16.8935 7.03004 16.5841 6.67142C16.2867 6.30072 15.8655 6.11401 15.3193 6.11401C14.7003 6.11401 14.2294 6.28731 13.9078 6.63383C13.5862 6.98036 13.3938 7.46792 13.3319 8.09919H17.0846ZM21.6474 4.33439C21.8209 4.29678 21.9945 4.27261 22.1667 4.26052C22.3403 4.235 22.5327 4.2229 22.7426 4.2229C22.9539 4.2229 23.1396 4.235 23.301 4.26052C23.4612 4.27261 23.6293 4.29678 23.8029 4.33439C23.8393 4.39617 23.8702 4.48885 23.8958 4.61241C23.9689 4.85421 24.0185 5.1025 24.0438 5.35383C24.068 5.47739 24.0868 5.58348 24.0989 5.66944C24.2241 5.48409 24.3721 5.29874 24.5457 5.11338C24.7192 4.92803 24.917 4.76016 25.1404 4.61241C25.3759 4.46467 25.6356 4.34648 25.9208 4.26052C26.2047 4.16113 26.5209 4.1114 26.8681 4.1114C27.958 4.1114 28.7761 4.40827 29.321 5.00193C29.8781 5.5956 30.1566 6.52906 30.1566 7.80235V13.923C29.7209 13.9963 29.2798 14.0335 28.8379 14.0345C28.4033 14.0345 27.9647 13.9969 27.518 13.923V8.50749C27.518 7.83995 27.413 7.32688 27.2018 6.96826C27.004 6.60965 26.6514 6.42967 26.1428 6.42967C25.9329 6.42967 25.7163 6.46056 25.4929 6.52234C25.2594 6.59015 25.0478 6.71798 24.8794 6.89305C24.6835 7.10583 24.5378 7.3596 24.4528 7.63581C24.3411 7.95682 24.286 8.37721 24.286 8.89701V13.923C23.8498 13.9962 23.4083 14.0335 22.966 14.0345C22.5327 14.0345 22.0927 13.9969 21.6474 13.923V4.33439ZM38.3119 0.365411C38.534 0.327803 38.7506 0.303637 38.9618 0.291549C39.3947 0.265472 39.8288 0.265472 40.2616 0.291549C40.485 0.303637 40.7084 0.327803 40.9317 0.365411V13.6073C40.3475 13.7812 39.7511 13.9114 39.1475 13.9969C38.5528 14.0963 37.8289 14.1446 36.9731 14.1446C36.3165 14.1446 35.6854 14.0586 35.0786 13.8854C34.5005 13.7087 33.9635 13.4187 33.4989 13.0325C33.0245 12.6138 32.6502 12.0943 32.4036 11.5121C32.1426 10.8929 32.0134 10.1394 32.0134 9.2489C32.0134 8.54375 32.1238 7.88295 32.3471 7.26511C32.5826 6.63383 32.9109 6.08986 33.3321 5.63185C33.7653 5.17519 34.2861 4.81655 34.8929 4.55733C35.531 4.27853 36.2215 4.13932 36.918 4.14903C37.1413 4.14903 37.3701 4.16113 37.6055 4.18531C37.8531 4.19874 38.0886 4.23497 38.3119 4.29676V0.365411ZM38.3119 6.31818C38.1108 6.26484 37.9056 6.22801 37.6984 6.20804C37.5078 6.17983 37.3152 6.16727 37.1225 6.17045C36.7657 6.16132 36.4123 6.2413 36.0944 6.40315C35.7764 6.56499 35.504 6.80358 35.302 7.09721C35.0922 7.39386 34.9407 7.72745 34.8552 8.08038C34.7677 8.4637 34.7244 8.85575 34.7261 9.2489C34.7261 9.75526 34.788 10.1891 34.9117 10.5477C35.0355 10.8929 35.2024 11.1723 35.4123 11.3818C35.6357 11.5927 35.8953 11.7471 36.1927 11.8452C36.4901 11.9325 36.813 11.9755 37.1588 11.9755C37.3701 11.9755 37.5625 11.9687 37.7347 11.9566C37.9083 11.9325 38.1007 11.8882 38.3119 11.8264V6.31818ZM43.9942 6.33699H42.7496C42.7122 6.17124 42.6812 6.0041 42.6567 5.83598C42.6448 5.66341 42.6386 5.49052 42.6379 5.31755C42.6379 4.98311 42.6756 4.65539 42.7496 4.33439H46.5776V13.923C46.1477 13.9957 45.7125 14.0329 45.2765 14.0345C44.8674 14.0345 44.4409 13.9969 43.9942 13.923V6.33699ZM43.604 2.72126C43.5311 2.31067 43.4942 1.89452 43.4936 1.47753C43.4953 1.06103 43.5322 0.645434 43.604 0.235148C43.8252 0.197351 44.0485 0.172693 44.2727 0.161285C44.5216 0.137109 44.7437 0.123657 44.9428 0.123657C45.1527 0.123657 45.3814 0.137109 45.629 0.161285C45.8779 0.173373 46.1067 0.198883 46.3166 0.235148C46.3543 0.446019 46.3785 0.655549 46.392 0.866421C46.4169 1.2739 46.4169 1.68254 46.392 2.09003C46.3785 2.3009 46.3543 2.51039 46.3166 2.72126C46.0891 2.7599 45.8595 2.78461 45.629 2.79516C45.1835 2.81805 44.7371 2.81805 44.2915 2.79516C44.0611 2.78446 43.8315 2.75976 43.604 2.72126ZM49.1718 4.33439C49.3454 4.29678 49.519 4.27261 49.6926 4.26052C49.8648 4.235 50.0572 4.2229 50.2685 4.2229C50.4784 4.2229 50.6641 4.235 50.8255 4.26052C50.9856 4.27261 51.1538 4.29678 51.3274 4.33439C51.3637 4.39617 51.3947 4.48885 51.4203 4.61241C51.4934 4.85421 51.543 5.1025 51.5683 5.35383C51.5938 5.47739 51.6113 5.58348 51.6248 5.66944C51.7486 5.48409 51.8966 5.29874 52.0701 5.11338C52.2437 4.92803 52.4415 4.76016 52.6649 4.61241C52.9003 4.46467 53.16 4.34648 53.4453 4.26052C53.7306 4.16113 54.0454 4.1114 54.3926 4.1114C55.4825 4.1114 56.3005 4.40827 56.8455 5.00193C57.4025 5.5956 57.6811 6.52906 57.6811 7.80235V13.923C57.2453 13.9963 56.8043 14.0335 56.3624 14.0345C55.9278 14.0345 55.4892 13.9969 55.0425 13.923V8.50749C55.0425 7.83995 54.9375 7.32688 54.7276 6.96826C54.5285 6.60965 54.1759 6.42967 53.6673 6.42967C53.4574 6.42967 53.2408 6.46056 53.0174 6.52234C52.7843 6.59024 52.5732 6.71808 52.4052 6.89305C52.2084 7.10537 52.0622 7.35926 51.9773 7.63581C51.8656 7.95682 51.8105 8.37721 51.8105 8.89701V13.923C51.3743 13.9962 50.9328 14.0335 50.4905 14.0345C50.0572 14.0345 49.6172 13.9969 49.1718 13.923V4.33439ZM65.4651 12.3273C66.5913 12.3529 67.4215 12.6054 67.9543 13.0876C68.4872 13.5577 68.7536 14.2319 68.7536 15.109C68.7536 15.6288 68.6163 16.0989 68.3445 16.5193C68.0601 16.9634 67.6788 17.3376 67.2291 17.6139C66.7581 17.9107 66.2011 18.1391 65.5579 18.2989C64.9134 18.4601 64.2191 18.5407 63.4763 18.5407C62.7336 18.5407 62.1012 18.4789 61.5818 18.3553C61.0611 18.2438 60.6332 18.0827 60.2995 17.8731C59.9963 17.6837 59.7518 17.4141 59.5931 17.0941C59.4542 16.7719 59.3846 16.4241 59.3886 16.0733C59.3886 15.5173 59.5191 15.0606 59.7788 14.702C60.0519 14.3434 60.4112 14.0278 60.8566 13.7551C60.5856 13.5957 60.3513 13.381 60.169 13.1252C60.0075 12.8659 59.9281 12.5382 59.9281 12.142C59.9281 11.6719 60.0264 11.2891 60.2255 10.9923C60.4233 10.6955 60.7139 10.4107 61.0988 10.1394C60.6794 9.84689 60.3354 9.45931 60.095 9.00845C59.8568 8.55029 59.7357 8.04048 59.7425 7.52432C59.7425 7.04214 59.8353 6.59619 60.021 6.18922C60.2022 5.77511 60.475 5.40732 60.8189 5.11338C61.1781 4.80446 61.6128 4.5627 62.12 4.38943C62.6714 4.2096 63.2488 4.12202 63.8289 4.13022C64.4492 4.13022 65.0183 4.22962 65.5391 4.42706C66.0585 4.61241 66.4931 4.85417 66.8389 5.14966C67.0743 4.84074 67.3663 4.61239 67.7121 4.46465C68.0593 4.30347 68.5302 4.2229 69.1249 4.2229C69.1492 4.38407 69.168 4.54392 69.1801 4.70509C69.2057 4.85418 69.2178 5.01402 69.2178 5.18729C69.2178 5.38473 69.2111 5.58349 69.199 5.78093C69.1854 5.98628 69.1607 6.19073 69.1249 6.39339H67.6193C67.6812 6.51696 67.7377 6.66469 67.7875 6.83796C67.8359 7.01122 67.8615 7.23958 67.8615 7.52432C67.8615 8.00651 67.7686 8.45779 67.583 8.87819C67.4089 9.28642 67.1416 9.64837 66.8025 9.93522C66.4239 10.2495 65.9887 10.4888 65.5202 10.6404C64.9751 10.8213 64.4033 10.9089 63.8289 10.8996C63.3469 10.9058 62.8662 10.8498 62.3986 10.7331C62.1887 10.8687 62.0581 11.0165 62.0084 11.1776C61.9607 11.3151 61.9357 11.4593 61.9344 11.6047C61.9344 11.8022 61.9963 11.9634 62.12 12.0869C62.2559 12.2105 62.5224 12.2776 62.9193 12.2911L65.4651 12.3273ZM63.0861 14.2561C62.853 14.2384 62.6187 14.27 62.3986 14.3488C62.2402 14.4139 62.0954 14.5082 61.972 14.6268C61.877 14.7437 61.8015 14.8753 61.7487 15.0163C61.7122 15.1558 61.6932 15.2993 61.6921 15.4434C61.6921 15.9135 61.8657 16.2292 62.2129 16.389C62.5721 16.5623 63.0485 16.6496 63.6432 16.6496C64.4236 16.6496 65.0493 16.5246 65.5202 16.2775C66.0033 16.0304 66.2441 15.6973 66.2441 15.2769C66.2452 15.1569 66.2265 15.0376 66.189 14.9236C66.1609 14.8064 66.1035 14.6983 66.0221 14.6093C65.915 14.5102 65.7886 14.4344 65.6507 14.3864C65.454 14.3169 65.2457 14.2854 65.0372 14.2937L63.0861 14.2561ZM63.8477 9.19381C64.3684 9.19381 64.7398 9.04476 64.9632 8.74793C65.1986 8.4511 65.3157 8.04411 65.3157 7.52432C65.3157 7.00453 65.1986 6.5962 64.9632 6.30071C64.7398 5.99045 64.3684 5.83598 63.8477 5.83598C63.3149 5.83598 62.9314 5.99045 62.6959 6.30071C62.4605 6.5962 62.3434 7.00453 62.3434 7.52432C62.3434 8.04411 62.4605 8.4511 62.6959 8.74793C62.9314 9.04476 63.3149 9.19381 63.8477 9.19381Z" fill="#9393AA"/>
</svg>
