<svg preserveAspectRatio="none" width="10" height="7" viewBox="0 0 10 7" fill="none" xmlns="http://www.w3.org/2000/svg">
<path vector-effect="non-scaling-stroke" d="M2.85774 6.48011C4.13086 6.48011 4.99757 5.60006 4.99757 4.31881C4.99757 3.085 4.13443 2.26537 3.09101 2.26537C2.46991 2.26537 2.00785 2.45524 1.70569 2.83055H1.63678L1.83112 0.802913H4.67866V0.108398H1.22328L0.864577 3.6674H1.59347C1.83997 3.20586 2.30555 2.934 2.89661 2.934C3.68205 2.934 4.221 3.49918 4.221 4.34036C4.221 5.21185 3.68205 5.79849 2.86658 5.79849C2.13327 5.79849 1.59789 5.35418 1.52898 4.68979H0.765625C0.834538 5.75538 1.68003 6.48011 2.85774 6.48011ZM6.15409 2.95565C6.15409 3.62862 6.55078 4.00392 7.42191 4.21526L8.21972 4.40945C8.71625 4.53023 8.95741 4.74589 8.95741 5.06518C8.95741 5.49227 8.50951 5.78992 7.88399 5.78992C7.28851 5.78992 6.91742 5.53971 6.79196 5.14709H6.02866C6.11083 5.91927 6.822 6.41543 7.85746 6.41543C8.91501 6.41543 9.72168 5.84169 9.72168 5.00908C9.72168 4.34036 9.29846 3.96081 8.42291 3.74939L7.70641 3.57684C7.15864 3.44308 6.89976 3.24464 6.89976 2.92544C6.89976 2.51125 7.3318 2.23083 7.88399 2.23083C8.44413 2.23083 8.80723 2.4768 8.90618 2.84778H9.6395C9.54055 2.08417 8.86288 1.60107 7.88749 1.60107C6.89974 1.60107 6.15409 2.18339 6.15409 2.95565Z" fill="#D1D5DA"/>
</svg>
