<svg preserveAspectRatio="none" width="263" height="13" viewBox="0 0 263 13" fill="none" xmlns="http://www.w3.org/2000/svg">
<path vector-effect="non-scaling-stroke" d="M3.92258 9.25369C2.57205 9.25369 1.86798 8.34759 1.86798 6.62188V5.13868C1.86798 3.41297 2.57204 2.50688 3.91686 2.50688C4.98449 2.50688 5.72905 3.26296 5.76372 4.38841H6.79679C6.76211 2.61079 5.67714 1.54306 3.92258 1.54306C1.96608 1.54306 0.829102 2.86472 0.829102 5.13868V6.62188C0.829102 8.89584 1.96608 10.2175 3.92258 10.2175C5.62514 10.2175 6.79097 9.12672 6.79097 7.51645H5.76372C5.73486 8.59 5.03069 9.25369 3.92258 9.25369ZM10.7906 7.23948C10.7906 5.64654 11.6102 4.68844 12.9953 4.68844C13.3359 4.68844 13.7398 4.75778 14.0284 4.8616V3.75929C13.8206 3.67271 13.4801 3.6208 13.1223 3.6208C11.916 3.6208 11.1369 4.22096 10.9061 5.38109H10.779V3.78234H8.44163V4.56729H9.83254V9.2595H8.56859V10.0443H12.7298V9.2595H10.7906V7.23948ZM18.3451 10.1598C20.0019 10.1598 21.0578 9.08053 21.0578 7.38949V6.44301C21.0578 4.75197 20.0019 3.67271 18.3451 3.67271C16.6894 3.67271 15.6329 4.75197 15.6329 6.44301V7.38949C15.6329 9.08053 16.6894 10.1598 18.3451 10.1598ZM18.3451 4.53842C19.4188 4.53842 20.0886 5.30022 20.0886 6.52959V7.2972C20.0886 8.53228 19.4188 9.28836 18.3451 9.28836C17.2715 9.28836 16.6027 8.53228 16.6027 7.2972V6.52959C16.6027 5.30022 17.2715 4.53842 18.3451 4.53842ZM23.3726 5.47338C23.3726 6.36224 23.932 6.93354 25.0638 7.19328L25.9926 7.40683C26.7895 7.5858 27.0948 7.85126 27.0948 8.34759C27.0948 8.94785 26.5521 9.33446 25.6981 9.33446C24.8904 9.33446 24.3359 8.99976 24.1921 8.42265H23.1933C23.3026 9.49609 24.2443 10.1598 25.6636 10.1598C27.147 10.1598 28.1104 9.40951 28.1104 8.2552C28.1104 7.3491 27.5568 6.81819 26.3394 6.54111L25.4558 6.33909C24.6708 6.16593 24.3477 5.89476 24.3477 5.41566C24.3477 4.84427 24.8619 4.47489 25.6577 4.47489C26.3906 4.47489 26.9156 4.80969 27.0318 5.35794H27.9784C27.8622 4.31335 26.9796 3.66119 25.6755 3.66119C24.2955 3.66119 23.3726 4.38841 23.3726 5.47338ZM30.6792 5.47338C30.6792 6.36224 31.2387 6.93354 32.3705 7.19328L33.2993 7.40683C34.0962 7.5858 34.4015 7.85126 34.4015 8.34759C34.4015 8.94785 33.8588 9.33446 33.0048 9.33446C32.1971 9.33446 31.6426 8.99976 31.4988 8.42265H30.5C30.6093 9.49609 31.551 10.1598 32.9703 10.1598C34.4537 10.1598 35.4171 9.40951 35.4171 8.2552C35.4171 7.3491 34.8635 6.81819 33.6451 6.54111L32.7625 6.33909C31.9775 6.16593 31.6544 5.89476 31.6544 5.41566C31.6544 4.84427 32.1676 4.47489 32.9644 4.47489C33.6973 4.47489 34.2223 4.80969 34.3385 5.35794H35.2851C35.1688 4.31335 34.2863 3.66119 32.9822 3.66119C31.6022 3.66119 30.6792 4.38841 30.6792 5.47338ZM43.3187 6.80657V5.89476H37.2127V6.80657H43.3187ZM45.2926 5.47338C45.2926 6.36224 45.8521 6.93354 46.9838 7.19328L47.9127 7.40683C48.7086 7.5858 49.0149 7.85126 49.0149 8.34759C49.0149 8.94785 48.4722 9.33446 47.6182 9.33446C46.8105 9.33446 46.2559 8.99976 46.1121 8.42265H45.1133C45.2227 9.49609 46.1633 10.1598 47.5837 10.1598C49.0671 10.1598 50.0304 9.40951 50.0304 8.2552C50.0304 7.3491 49.4769 6.81819 48.2584 6.54111L47.3759 6.33909C46.5908 6.16593 46.2678 5.89476 46.2678 5.41566C46.2678 4.84427 46.7809 4.47489 47.5778 4.47489C48.3106 4.47489 48.8356 4.80969 48.9519 5.35794H49.8975C49.7822 4.31335 48.8997 3.66119 47.5955 3.66119C46.2155 3.66119 45.2926 4.38841 45.2926 5.47338ZM57.4878 5.73312C57.3263 4.44613 56.3797 3.66119 54.9938 3.66119C53.2917 3.66119 52.2989 4.70578 52.2989 6.50073V7.32024C52.2989 9.1152 53.2917 10.1598 54.9938 10.1598C56.3797 10.1598 57.3312 9.38065 57.4878 8.10519H56.5176C56.3964 8.82088 55.7848 9.27674 54.9771 9.27674C53.8857 9.27674 53.2799 8.53799 53.2799 7.19328V6.62769C53.2799 5.28298 53.8857 4.53842 54.9771 4.53842C55.7848 4.53842 56.3964 5.00019 56.5176 5.73312H57.4878ZM61.937 7.23948C61.937 5.64654 62.7565 4.68844 64.1414 4.68844C64.4823 4.68844 64.8861 4.75778 65.1747 4.8616V3.75929C64.9669 3.67271 64.627 3.6208 64.2685 3.6208C63.0629 3.6208 62.2837 4.22096 62.0523 5.38109H61.9252V3.78234H59.5878V4.56729H60.9786V9.2595H59.7149V10.0443H63.8765V9.2595H61.937V7.23948ZM69.6013 2.24713C70.0632 2.24713 70.4159 1.90091 70.4159 1.43914C70.4159 0.983189 70.0632 0.636963 69.6013 0.636963C69.1403 0.636963 68.7877 0.983189 68.7877 1.43914C68.7877 1.90091 69.1403 2.24713 69.6013 2.24713ZM72.2273 10.0443V9.23064H70.1558V3.78234H67.056V4.59615H69.1866V9.23064H67.0393V10.0443H72.2273ZM77.1906 3.67853C76.2963 3.67853 75.6442 4.0479 75.3152 4.74045H75.2118V3.78234H74.2416V12.1568H75.2404V9.07481H75.3497C75.6215 9.76155 76.2854 10.1483 77.1906 10.1483C78.6396 10.1483 79.5861 9.10367 79.5861 7.49922V6.33338C79.5861 4.72311 78.6396 3.67853 77.1906 3.67853ZM76.908 4.57881C77.9412 4.57881 78.5992 5.31756 78.5992 6.47187V7.37225C78.5992 8.52647 77.9412 9.27103 76.908 9.27103C75.8757 9.27103 75.2177 8.53228 75.2177 7.37225V6.47187C75.2177 5.31756 75.8757 4.57881 76.908 4.57881ZM83.0376 2.10283V3.79968H81.37V4.63653H83.0376V8.18024C83.0376 9.48457 83.7586 10.0732 85.3119 10.0732C85.6114 10.0732 86.3737 10.0443 86.5294 10.0155V9.18444C86.3619 9.20178 85.7325 9.21912 85.3809 9.21912C84.4973 9.21912 84.0186 8.84974 84.0186 8.16862V4.63653H86.5471V3.79968H84.0068V2.10283H83.0376ZM91.5213 2.24713C91.9833 2.24713 92.3349 1.90091 92.3349 1.43914C92.3349 0.983189 91.9833 0.636963 91.5213 0.636963C91.0603 0.636963 90.7077 0.983189 90.7077 1.43914C90.7077 1.90091 91.0603 2.24713 91.5213 2.24713ZM94.1473 10.0443V9.23064H92.0759V3.78234H88.9761V4.59615H91.1057V9.23064H88.9593V10.0443H94.1473ZM96.1557 10.0443H97.1368V6.35643C97.1368 5.28869 97.8302 4.56729 98.8625 4.56729C99.8386 4.56729 100.3 5.0983 100.3 6.22946V10.0443H101.282V5.98124C101.282 4.4807 100.543 3.6669 99.1806 3.6669C98.2281 3.6669 97.5121 4.10552 97.1772 4.88475H97.0964V3.78234H96.1557V10.0443ZM105.84 12.3934C107.537 12.3934 108.542 11.5161 108.542 10.0443V3.78234H107.572V4.75197H107.462C107.192 4.07676 106.504 3.67853 105.598 3.67853C104.132 3.67853 103.174 4.7173 103.174 6.32757V7.45302C103.174 9.05748 104.126 10.1021 105.575 10.1021C106.487 10.1021 107.18 9.70383 107.457 9.04595H107.561V10.0213C107.561 11.0255 106.954 11.5796 105.858 11.5796C105.021 11.5796 104.392 11.239 104.265 10.7197H103.295C103.422 11.7585 104.392 12.3934 105.84 12.3934ZM104.161 7.31453V6.45453C104.161 5.30603 104.831 4.56147 105.87 4.56147C106.903 4.56147 107.566 5.30022 107.566 6.45453V7.31453C107.566 8.46875 106.903 9.2133 105.87 9.2133C104.831 9.2133 104.161 8.46303 104.161 7.31453ZM117.811 3.78234L120.102 10.0443H121.181L123.467 3.78234H122.422L120.685 8.99395H120.61L118.861 3.78234H117.811ZM130.507 3.78234H129.526V7.47036C129.526 8.53799 128.834 9.2595 127.801 9.2595C126.825 9.2595 126.364 8.72849 126.364 7.59732V3.78234H125.382V7.84544C125.382 9.34608 126.121 10.1598 127.483 10.1598C128.436 10.1598 129.151 9.72117 129.486 8.94204H129.567V10.0443H130.507V3.78234ZM137.987 10.0443V9.23064H135.921V1.3237H132.816V2.1375H134.94V9.23064H132.799V10.0443H137.987ZM139.996 10.0443H140.977V6.35643C140.977 5.28869 141.669 4.56729 142.703 4.56729C143.678 4.56729 144.14 5.0983 144.14 6.22946V10.0443H145.121V5.98124C145.121 4.4807 144.382 3.6669 143.021 3.6669C142.068 3.6669 141.352 4.10552 141.017 4.88475H140.936V3.78234H139.996V10.0443ZM151.557 8.42836C151.383 8.97671 150.8 9.31141 150.009 9.31141C148.942 9.31141 148.261 8.57266 148.261 7.42416V7.17023H152.526V6.55845C152.526 4.74616 151.568 3.6669 149.94 3.6669C148.348 3.6669 147.291 4.75197 147.291 6.40263V7.34339C147.291 9.12672 148.289 10.1598 150.009 10.1598C151.325 10.1598 152.318 9.46142 152.508 8.42836H151.557ZM149.934 4.50956C150.944 4.50956 151.557 5.23097 151.557 6.42567H148.261C148.261 5.22526 148.889 4.50956 149.934 4.50956ZM156.924 7.23948C156.924 5.64654 157.743 4.68844 159.128 4.68844C159.469 4.68844 159.873 4.75778 160.162 4.8616V3.75929C159.954 3.67271 159.613 3.6208 159.255 3.6208C158.049 3.6208 157.27 4.22096 157.039 5.38109H156.912V3.78234H154.575V4.56729H155.966V9.2595H154.702V10.0443H158.862V9.2595H156.924V7.23948ZM163.843 10.1541C164.756 10.1541 165.436 9.77889 165.737 9.10939H165.835V10.0502H166.77V5.76199C166.77 4.45766 165.927 3.70739 164.455 3.70739C163.174 3.70739 162.204 4.39412 162.089 5.39833H163.053C163.214 4.8616 163.722 4.55576 164.444 4.55576C165.315 4.55576 165.795 4.98857 165.795 5.77351V6.33909L164.075 6.42567C162.649 6.50073 161.853 7.15871 161.853 8.26682C161.853 9.4038 162.649 10.1541 163.843 10.1541ZM164.126 9.29407C163.336 9.29407 162.845 8.89013 162.845 8.23215C162.845 7.57999 163.307 7.2048 164.184 7.16442L165.795 7.08936V7.82811C165.795 8.66506 165.073 9.29407 164.126 9.29407ZM172.178 10.1483C173.626 10.1483 174.573 9.10367 174.573 7.49341V6.32757C174.573 4.72311 173.626 3.67853 172.178 3.67853C171.271 3.67853 170.607 4.06514 170.331 4.75197H170.227V1.3237H169.228V10.0443H170.192V9.08634H170.302C170.625 9.77889 171.283 10.1483 172.178 10.1483ZM171.889 9.25369C170.862 9.25369 170.204 8.51494 170.204 7.35492V6.45453C170.204 5.30022 170.862 4.56147 171.889 4.56147C172.928 4.56147 173.586 5.30022 173.586 6.45453V7.35492C173.586 8.50923 172.928 9.25369 171.889 9.25369ZM179.202 2.24713C179.663 2.24713 180.015 1.90091 180.015 1.43914C180.015 0.983189 179.663 0.636963 179.202 0.636963C178.74 0.636963 178.388 0.983189 178.388 1.43914C178.388 1.90091 178.74 2.24713 179.202 2.24713ZM181.828 10.0443V9.23064H179.755V3.78234H176.656V4.59615H178.786V9.23064H176.639V10.0443H181.828ZM189.134 10.0443V9.23064H187.068V1.3237H183.963V2.1375H186.087V9.23064H183.945V10.0443H189.134ZM193.815 2.24713C194.277 2.24713 194.629 1.90091 194.629 1.43914C194.629 0.983189 194.277 0.636963 193.815 0.636963C193.353 0.636963 193.001 0.983189 193.001 1.43914C193.001 1.90091 193.353 2.24713 193.815 2.24713ZM196.441 10.0443V9.23064H194.368V3.78234H191.27V4.59615H193.399V9.23064H191.252V10.0443H196.441ZM199.945 2.10283V3.79968H198.276V4.63653H199.945V8.18024C199.945 9.48457 200.666 10.0732 202.218 10.0732C202.518 10.0732 203.28 10.0443 203.435 10.0155V9.18444C203.269 9.20178 202.639 9.21912 202.287 9.21912C201.404 9.21912 200.926 8.84974 200.926 8.16862V4.63653H203.453V3.79968H200.914V2.10283H199.945ZM206.564 12.2722C207.724 12.2722 208.249 11.8162 208.798 10.2752L211.158 3.78234H210.114L208.364 9.02281H208.289L206.535 3.78234H205.467L207.77 10.0848L207.661 10.4253C207.401 11.1525 207.078 11.418 206.489 11.418C206.396 11.418 206.218 11.4122 206.142 11.3949V12.2549C206.229 12.2664 206.42 12.2722 206.564 12.2722ZM222.539 10.1483C223.434 10.1483 224.092 9.77889 224.415 9.08634H224.525V10.0443H225.488V1.3237H224.49V4.75197H224.386C224.115 4.06514 223.445 3.67853 222.539 3.67853C221.09 3.67853 220.144 4.72311 220.144 6.32757V7.49341C220.144 9.10367 221.09 10.1483 222.539 10.1483ZM222.828 9.25369C221.795 9.25369 221.131 8.50923 221.131 7.35492V6.45453C221.131 5.30022 221.795 4.56147 222.828 4.56147C223.855 4.56147 224.519 5.30022 224.519 6.45453V7.35492C224.519 8.51494 223.855 9.25369 222.828 9.25369ZM232.801 3.78234H231.82V7.47036C231.82 8.53799 231.127 9.2595 230.094 9.2595C229.119 9.2595 228.657 8.72849 228.657 7.59732V3.78234H227.676V7.84544C227.676 9.34608 228.415 10.1598 229.777 10.1598C230.729 10.1598 231.445 9.72117 231.779 8.94204H231.86V10.0443H232.801V3.78234ZM239.236 8.42836C239.063 8.97671 238.48 9.31141 237.689 9.31141C236.622 9.31141 235.94 8.57266 235.94 7.42416V7.17023H240.206V6.55845C240.206 4.74616 239.248 3.6669 237.621 3.6669C236.027 3.6669 234.971 4.75197 234.971 6.40263V7.34339C234.971 9.12672 235.97 10.1598 237.689 10.1598C239.005 10.1598 239.998 9.46142 240.188 8.42836H239.236ZM237.615 4.50956C238.624 4.50956 239.236 5.23097 239.236 6.42567H235.94C235.94 5.22526 236.57 4.50956 237.615 4.50956ZM251.09 2.10283V3.79968H249.423V4.63653H251.09V8.18024C251.09 9.48457 251.812 10.0732 253.365 10.0732C253.665 10.0732 254.426 10.0443 254.582 10.0155V9.18444C254.415 9.20178 253.786 9.21912 253.434 9.21912C252.551 9.21912 252.071 8.84974 252.071 8.16862V4.63653H254.6V3.79968H252.061V2.10283H251.09ZM259.465 10.1598C261.122 10.1598 262.177 9.08053 262.177 7.38949V6.44301C262.177 4.75197 261.122 3.67271 259.465 3.67271C257.809 3.67271 256.752 4.75197 256.752 6.44301V7.38949C256.752 9.08053 257.809 10.1598 259.465 10.1598ZM259.465 4.53842C260.538 4.53842 261.208 5.30022 261.208 6.52959V7.2972C261.208 8.53228 260.538 9.28836 259.465 9.28836C258.391 9.28836 257.722 8.53228 257.722 7.2972V6.52959C257.722 5.30022 258.391 4.53842 259.465 4.53842Z" fill="#8292AD"/>
</svg>
