<svg preserveAspectRatio="none" width="9" height="8" viewBox="0 0 9 8" fill="none" xmlns="http://www.w3.org/2000/svg">
<path vector-effect="non-scaling-stroke" d="M0.821609 6.95503H1.63711L4.40689 1.45039V0.72998H0.287109V1.42449H3.617V1.48493L0.821609 6.95503ZM5.15342 3.57741C5.15342 4.24975 5.55011 4.62524 6.42124 4.83728L7.21905 5.03077C7.71558 5.1518 7.95674 5.36738 7.95674 5.68633C7.95674 6.11394 7.50884 6.41168 6.88332 6.41168C6.28784 6.41168 5.91675 6.16164 5.79129 5.76849H5.02799C5.11016 6.54067 5.82133 7.0372 6.85679 7.0372C7.91434 7.0372 8.72101 6.46292 8.72101 5.63066C8.72101 4.96185 8.29779 4.58195 7.42224 4.37079L6.70575 4.19851C6.15798 4.0651 5.89909 3.86631 5.89909 3.54737C5.89909 3.13301 6.33113 2.85206 6.88332 2.85206C7.44346 2.85206 7.80656 3.09855 7.90551 3.46962H8.63883C8.53988 2.7054 7.86221 2.22265 6.88683 2.22265C5.89907 2.22265 5.15342 2.80523 5.15342 3.57741Z" fill="#D1D5DA"/>
</svg>
