<svg preserveAspectRatio="none" width="65" height="10" viewBox="0 0 65 10" fill="none" xmlns="http://www.w3.org/2000/svg">
<path vector-effect="non-scaling-stroke" d="M1.64257 6.4321H3.37069L5.07937 9.71156H6.86139L4.95834 6.19656C5.99733 5.82213 6.60163 4.86186 6.60163 3.70827C6.60163 2.04137 5.45397 0.996545 3.62424 0.996545H0.0849609V9.71156H1.64257V6.4321ZM1.64257 2.2588H3.4069C4.3973 2.2588 5.00075 2.82044 5.00075 3.73849C5.00075 4.67455 4.43354 5.21208 3.44314 5.21208H1.64257V2.2588ZM14.084 3.11032H12.5865V6.95752C12.5865 7.95411 12.0555 8.55798 11.0828 8.55798C10.1887 8.55798 9.77253 8.06277 9.77253 7.03606V3.11032H8.2741V7.39839C8.2741 8.94451 9.11961 9.84444 10.5633 9.84444C11.5722 9.84444 12.2181 9.41568 12.5379 8.66073H12.6412V9.71156H14.084V3.11032ZM15.9208 9.71156H17.4183V5.86436C17.4183 4.87387 17.9802 4.2518 18.8735 4.2518C19.7861 4.2518 20.2084 4.7652 20.2084 5.79192V9.71156H21.7059V5.44161C21.7059 3.87136 20.9029 2.98354 19.4292 2.98354C18.445 2.98354 17.7806 3.43041 17.4669 4.16725H17.3635V3.11032H15.9208V9.71156ZM32.5774 8.40098H28.4948V5.90668H32.3539V4.66855H28.4948V2.30713H32.5774V0.996545H26.9363V9.71156H32.5774V8.40098ZM34.1112 7.35014C34.1898 8.92639 35.5124 9.92899 37.5118 9.92899C39.626 9.92899 40.9362 8.87816 40.9362 7.18705C40.9362 5.86436 40.1932 5.12753 38.4235 4.72288L37.4216 4.49344C36.3402 4.23978 35.8994 3.89548 35.8994 3.29753C35.8994 2.54267 36.5638 2.04738 37.5665 2.04738C38.5207 2.04738 39.1966 2.53657 39.3053 3.31573H40.7975C40.7251 1.82394 39.4025 0.779115 37.5718 0.779115C35.6211 0.779115 34.3294 1.82995 34.3294 3.40028C34.3294 4.69267 35.0715 5.47183 36.6539 5.83415L37.7839 6.0939C38.9006 6.35356 39.3777 6.74009 39.3777 7.37426C39.3777 8.11711 38.6356 8.65463 37.6081 8.65463C36.5037 8.65463 35.7297 8.14732 35.6334 7.35014H34.1112ZM48.2445 8.37686H44.2458V0.996545H42.6882V9.71156H48.2445V8.37686ZM50.5275 2.00515C51.0222 2.00515 51.4269 1.61252 51.4269 1.11732C51.4269 0.628126 51.0222 0.229492 50.5275 0.229492C50.038 0.229492 49.6334 0.628126 49.6334 1.11732C49.6334 1.61252 50.038 2.00515 50.5275 2.00515ZM49.7845 9.71156H51.2758V3.11032H49.7845V9.71156ZM53.1365 9.71156H54.634V5.86436C54.634 4.87387 55.1959 4.2518 56.0891 4.2518C57.0017 4.2518 57.4241 4.7652 57.4241 5.79192V9.71156H58.9216V5.44161C58.9216 3.87136 58.1185 2.98354 56.6448 2.98354C55.6606 2.98354 54.9962 3.43041 54.6826 4.16725H54.5792V3.11032H53.1365V9.71156ZM61.1745 1.49175V3.15264H60.1302V4.31824H61.1745V7.96011C61.1745 9.23447 61.7788 9.74178 63.2949 9.74178C63.5847 9.74178 63.8621 9.71757 64.0795 9.67534V8.52785C63.8984 8.54596 63.7835 8.55798 63.5723 8.55798C62.9442 8.55798 62.6668 8.26209 62.6668 7.6038V4.31824H64.0795V3.15264H62.6668V1.49175H61.1745Z" fill="#2F363D"/>
</svg>
