<svg preserveAspectRatio="none" width="32" height="32" viewBox="0 0 32 32" fill="none" xmlns="http://www.w3.org/2000/svg">
<path vector-effect="non-scaling-stroke" fill-rule="evenodd" clip-rule="evenodd" d="M22.2574 0.956139H9.87031C8.75186 0.956139 7.64437 1.17606 6.61108 1.60334C5.57779 2.03062 4.63894 2.6569 3.84814 3.44641C3.05734 4.23591 2.43009 5.17317 2.0022 6.20468C1.57431 7.23618 1.35418 8.34172 1.35435 9.45816V21.8217C1.35453 22.938 1.57497 24.0434 2.0031 25.0746C2.43123 26.1059 3.05866 27.0429 3.84957 27.8322C4.64047 28.6214 5.57937 29.2474 6.61264 29.6744C7.64591 30.1015 8.75332 30.3212 9.87165 30.321H22.2574C24.5156 30.321 26.6813 29.4255 28.2781 27.8316C29.8749 26.2377 30.772 24.0758 30.772 21.8217V9.45681C30.7722 8.34055 30.5521 7.23519 30.1243 6.20385C29.6964 5.17251 29.0693 4.23539 28.2786 3.44601C27.488 2.65663 26.5492 2.03045 25.5161 1.60324C24.483 1.17602 23.3757 0.956139 22.2574 0.956139ZM22.2574 0.183838H9.87031C7.40654 0.183838 5.04368 1.16081 3.30153 2.89983C1.55938 4.63885 0.580658 6.99747 0.580658 9.45681V21.8217C0.580658 24.281 1.55938 26.6396 3.30153 28.3787C5.04368 30.1177 7.40654 31.0946 9.87031 31.0946H22.2574C24.7212 31.0946 27.084 30.1177 28.8262 28.3787C30.5683 26.6396 31.5471 24.281 31.5471 21.8217V9.45681C31.5471 6.99747 30.5683 4.63885 28.8262 2.89983C27.084 1.16081 24.7212 0.183838 22.2574 0.183838Z" fill="#E0E0E0"/>
</svg>
