<svg preserveAspectRatio="none" width="5" height="7" viewBox="0 0 5 7" fill="none" xmlns="http://www.w3.org/2000/svg">
<path vector-effect="non-scaling-stroke" d="M3.1189 0.844877L2.3469 2.65787C2.6839 2.60287 3.0399 2.63487 3.3719 2.78287C3.8239 2.98387 4.1559 3.35288 4.3219 3.78588C4.4879 4.21888 4.4929 4.71388 4.2869 5.16788C4.0859 5.62088 3.7179 5.95687 3.2869 6.12787C2.8639 6.28987 2.3689 6.29487 1.9146 6.08887C1.8208 6.05087 1.7738 5.94287 1.8192 5.84087C1.8554 5.74187 1.9659 5.69988 2.0679 5.74488C2.4279 5.89788 2.8129 5.89788 3.1539 5.76688C3.4949 5.63588 3.7859 5.37587 3.9499 5.01787C4.1109 4.65387 4.1049 4.26588 3.9739 3.92488C3.8429 3.58388 3.5839 3.29287 3.2239 3.14087C2.8649 2.97687 2.4769 2.98387 2.1359 3.11387C2.0809 3.13587 2.0189 3.12687 1.9665 3.09987L1.9573 3.10387C1.8571 3.06287 1.8129 2.94787 1.8601 2.84987L2.6019 1.10688L0.699897 1.83687C0.600297 1.88087 0.492002 1.83288 0.454902 1.73588C0.416002 1.63488 0.464197 1.52587 0.560897 1.48887L2.8819 0.597876C2.9809 0.554876 3.0899 0.602873 3.1269 0.699873C3.1379 0.726873 3.1389 0.758879 3.1339 0.786879C3.1339 0.812879 3.1269 0.836879 3.1179 0.855879L3.1189 0.844877Z" fill="#F8F8F8"/>
</svg>
