<svg preserveAspectRatio="none" width="135" height="55" viewBox="0 0 135 55" fill="none" xmlns="http://www.w3.org/2000/svg">
<path vector-effect="non-scaling-stroke" d="M115.831 9.23837H122.605C122.861 9.23801 123.107 9.13612 123.288 8.95509C123.47 8.77406 123.572 8.52864 123.572 8.27262V1.50999C123.571 1.25431 123.468 1.00947 123.287 0.828674C123.106 0.647873 122.861 0.545661 122.605 0.54425H115.831C115.575 0.544606 115.329 0.646497 115.148 0.827526C114.966 1.00856 114.864 1.25398 114.864 1.50999V8.27262C114.864 8.39949 114.889 8.52518 114.937 8.64243C114.986 8.75967 115.057 8.8662 115.147 8.95591C115.237 9.04562 115.343 9.11673 115.461 9.1652C115.578 9.21367 115.704 9.23854 115.831 9.23837ZM116.799 2.47705H121.637V7.30557H116.799V2.47705ZM126.476 9.23837H133.249C133.506 9.23801 133.752 9.13612 133.933 8.95509C134.114 8.77406 134.216 8.52864 134.217 8.27262V1.50999C134.215 1.25431 134.113 1.00947 133.932 0.828674C133.751 0.647873 133.505 0.545661 133.249 0.54425H126.476C126.219 0.544606 125.974 0.646497 125.792 0.827526C125.611 1.00856 125.509 1.25398 125.508 1.50999V8.27262C125.508 8.39949 125.533 8.52518 125.582 8.64243C125.63 8.75967 125.702 8.8662 125.791 8.95591C125.881 9.04562 125.988 9.11673 126.105 9.1652C126.223 9.21367 126.349 9.23854 126.476 9.23837ZM127.443 2.47705H132.282V7.30557H127.443V2.47705ZM115.831 19.8638H122.605C122.861 19.8635 123.107 19.7616 123.288 19.5806C123.47 19.3996 123.572 19.1542 123.572 18.8981V12.1355C123.571 11.8798 123.468 11.635 123.287 11.4542C123.106 11.2734 122.861 11.1712 122.605 11.1698H115.831C115.575 11.1701 115.329 11.272 115.148 11.453C114.966 11.634 114.864 11.8795 114.864 12.1355V18.8981C114.864 19.025 114.889 19.1507 114.937 19.2679C114.986 19.3852 115.057 19.4917 115.147 19.5814C115.237 19.6711 115.343 19.7423 115.461 19.7907C115.578 19.8392 115.704 19.864 115.831 19.8638ZM116.799 13.1012H121.637V17.9311H116.799V13.1012ZM126.476 19.8638H133.249C133.506 19.8635 133.752 19.7616 133.933 19.5806C134.114 19.3996 134.216 19.1542 134.217 18.8981V12.1355C134.215 11.8798 134.113 11.635 133.932 11.4542C133.751 11.2734 133.505 11.1712 133.249 11.1698H126.476C126.219 11.1701 125.974 11.272 125.792 11.453C125.611 11.634 125.509 11.8795 125.508 12.1355V18.8981C125.508 19.025 125.533 19.1507 125.582 19.2679C125.63 19.3852 125.702 19.4917 125.791 19.5814C125.881 19.6711 125.988 19.7423 126.105 19.7907C126.223 19.8392 126.349 19.864 126.476 19.8638ZM127.443 13.1012H132.282V17.9311H127.443V13.1012ZM0.676727 14.8392C0.676727 13.2155 0.997136 11.6077 1.61966 10.1076C2.24219 8.60748 3.15464 7.24446 4.3049 6.09639C5.45517 4.94831 6.82072 4.03768 8.32359 3.41644C9.82645 2.79519 11.4372 2.47552 13.0638 2.4757H71.1255C74.4104 2.4757 77.5608 3.77827 79.8835 6.09688C82.2063 8.41549 83.5112 11.5602 83.5112 14.8392V41.8858C83.5112 45.1649 82.2064 48.3098 79.8836 50.6286C77.5609 52.9474 74.4105 54.2503 71.1255 54.2507H13.0638C9.77856 54.2507 6.62785 52.948 4.30482 50.6291C1.98179 48.3103 0.676727 45.1652 0.676727 41.8858V14.8392Z" fill="white"/>
</svg>
