<svg preserveAspectRatio="none" width="24" height="50" viewBox="0 0 24 50" fill="none" xmlns="http://www.w3.org/2000/svg">
<path vector-effect="non-scaling-stroke" d="M9.54056 1.35315C6.55078 9.0419 3.61867 16.7828 0.657733 24.4976C0.430622 25.0834 1.01181 25.3012 1.29036 25.268C3.43708 25.0072 5.33282 23.2237 7.16339 21.8357C8.99396 20.4478 10.8859 18.9298 12.7195 17.3976C16.3869 14.3332 19.9012 10.9808 23.4229 7.60463L22.113 6.92565C19.3251 12.2913 16.6826 17.8401 13.973 23.3003C11.2633 28.7605 8.55277 34.2132 5.84401 39.6808C4.3163 42.7655 2.78859 45.8501 1.27962 48.9623C1.04082 49.4514 1.15448 49.8814 1.59832 49.983C2.04216 50.0847 2.69217 49.7247 2.95442 49.217C8.45105 38.3838 13.7999 27.3904 19.2133 16.4633C20.741 13.3787 22.3136 10.3253 23.7937 7.18709C23.9943 6.76415 23.9852 6.34915 23.5713 6.19772C23.1143 6.02987 22.6148 6.36026 22.2722 6.71313C19.0768 10.0265 15.6986 13.0183 12.296 15.8926C10.6089 17.3201 8.90133 18.7052 7.17227 20.0404C6.30819 20.7118 5.44231 21.3682 4.57049 22.018C3.69866 22.6678 2.85277 23.4046 1.85559 23.5276L2.48822 24.2981C5.42807 16.5788 8.39261 8.89373 11.3045 1.15581C11.5183 0.587123 10.9659 0.395373 10.6906 0.412913C10.2469 0.439933 9.75612 0.799334 9.54056 1.35315Z" fill="#EF790C"/>
</svg>
