<svg preserveAspectRatio="none" width="32" height="34" viewBox="0 0 32 34" fill="none" xmlns="http://www.w3.org/2000/svg">
<path vector-effect="non-scaling-stroke" d="M31 12.9045H31.5V11.1059L30.5717 12.6464L31 12.9045ZM25.8965 2.35378L25.8331 2.84967L27.2553 3.03148L26.2545 2.00478L25.8965 2.35378ZM1.5 23.2969V5.29688H0.5V23.2969H1.5ZM5 26.7969C3.067 26.7969 1.5 25.2299 1.5 23.2969H0.5C0.5 25.7822 2.51472 27.7969 5 27.7969V26.7969ZM5.125 26.7969H5V27.7969H5.125V26.7969ZM6.5 28.1719C6.5 27.4125 5.88439 26.7969 5.125 26.7969V27.7969C5.33211 27.7969 5.5 27.9648 5.5 28.1719H6.5ZM6.5 32.3702V28.1719H5.5V32.3702H6.5ZM7.10184 32.6689C6.85493 32.8564 6.5 32.6803 6.5 32.3702H5.5C5.5 33.5072 6.80139 34.1529 7.70675 33.4652L7.10184 32.6689ZM13.759 27.6117L7.10184 32.6689L7.70675 33.4652L14.3639 28.408L13.759 27.6117ZM16.1786 26.7969C15.3047 26.7969 14.4549 27.0831 13.759 27.6117L14.3639 28.408C14.8858 28.0115 15.5232 27.7969 16.1786 27.7969V26.7969ZM27 26.7969H16.1786V27.7969H27V26.7969ZM30.5 23.2969C30.5 25.2299 28.933 26.7969 27 26.7969V27.7969C29.4853 27.7969 31.5 25.7822 31.5 23.2969H30.5ZM30.5 12.9045V23.2969H31.5V12.9045H30.5ZM30.5717 12.6464C29.4335 14.5354 27.3639 15.7969 25 15.7969V16.7969C27.7288 16.7969 30.1167 15.3393 31.4283 13.1625L30.5717 12.6464ZM25 15.7969C21.4101 15.7969 18.5 12.8868 18.5 9.29688H17.5C17.5 13.439 20.8579 16.7969 25 16.7969V15.7969ZM18.5 9.29688C18.5 5.70697 21.4101 2.79688 25 2.79688V1.79688C20.8579 1.79688 17.5 5.15478 17.5 9.29688H18.5ZM25 2.79688C25.2825 2.79688 25.5605 2.81487 25.8331 2.84967L25.9599 1.85777C25.6454 1.81757 25.325 1.79688 25 1.79688V2.79688ZM23.3902 1.79688C24.2017 1.79688 24.9757 2.12547 25.5384 2.70277L26.2545 2.00478C25.5042 1.23498 24.4723 0.796875 23.3902 0.796875V1.79688ZM5 1.79688H23.3902V0.796875H5V1.79688ZM1.5 5.29688C1.5 3.36388 3.067 1.79688 5 1.79688V0.796875C2.51472 0.796875 0.5 2.81157 0.5 5.29688H1.5Z" fill="url(#paint0_linear_1_1936)"/>
<defs>
<linearGradient vector-effect="non-scaling-stroke" id="paint0_linear_1_1936" x1="4" y1="1.29687" x2="21.5" y2="32.2969" gradientUnits="userSpaceOnUse">
<stop stop-color="#7845D5"/>
<stop offset="1" stop-color="#9F7BE4"/>
</linearGradient>
</defs>
</svg>
