<svg preserveAspectRatio="none" width="13" height="14" viewBox="0 0 13 14" fill="none" xmlns="http://www.w3.org/2000/svg">
<path vector-effect="non-scaling-stroke" fill-rule="evenodd" clip-rule="evenodd" d="M6.4677 13.1104C9.88331 13.1104 12.6522 10.3416 12.6522 6.92595C12.6522 3.51034 9.88331 0.741455 6.4677 0.741455C3.05209 0.741455 0.283203 3.51034 0.283203 6.92595C0.283203 10.3416 3.05209 13.1104 6.4677 13.1104ZM9.3903 5.59628C9.61648 5.37011 9.61648 5.00257 9.3903 4.7764C9.16324 4.55022 8.79661 4.55022 8.57043 4.7764L5.50116 7.84568L4.36497 6.7095C4.13879 6.48244 3.77127 6.48244 3.5451 6.7095C3.31892 6.93568 3.31892 7.30321 3.5451 7.52938L5.09122 9.07551C5.3174 9.30168 5.68492 9.30168 5.91109 9.07551L9.3903 5.59628Z" fill="#28A745"/>
</svg>
