<svg preserveAspectRatio="none" width="227" height="137" viewBox="0 0 227 137" fill="none" xmlns="http://www.w3.org/2000/svg">
<path vector-effect="non-scaling-stroke" fill-rule="evenodd" clip-rule="evenodd" d="M7.1471 4.605C7.1471 2.16528 9.12525 0.1875 11.5646 0.1875H77.8271C80.2664 0.1875 82.2446 2.16528 82.2446 4.605V11.5169C82.2446 14.0428 84.2925 16.0905 86.8184 16.0905H221.838C224.277 16.0905 226.255 18.0683 226.255 20.508V131.829C226.255 134.268 224.277 136.246 221.838 136.246H11.5646C9.12525 136.246 7.1471 134.268 7.1471 131.829V44.3028C7.1471 43.8349 6.73185 43.479 6.2636 43.479C2.84799 43.479 0.0791016 40.7101 0.0791016 37.2945C0.0791016 33.8789 2.84799 31.11 6.2636 31.11C6.73185 31.11 7.1471 30.754 7.1471 30.2861V22.275V20.508V4.605Z" fill="white"/>
</svg>
