<svg preserveAspectRatio="none" width="4" height="6" viewBox="0 0 4 6" fill="none" xmlns="http://www.w3.org/2000/svg">
<path vector-effect="non-scaling-stroke" d="M2.544 5.62547L2.69401 0.564468L0.294004 1.48547C0.204004 1.52447 0.0970017 1.48147 0.0620017 1.38947C0.0270017 1.29747 0.0750051 1.18847 0.167005 1.15347L2.79201 0.14547C2.82301 0.11747 2.85601 0.105469 2.89801 0.105469C2.94801 0.112469 3.001 0.139468 3.031 0.175468C3.049 0.195468 3.05901 0.207464 3.06601 0.225464C3.08001 0.262464 3.081 0.293468 3.073 0.328468L2.918 5.63447C2.915 5.70947 2.86601 5.77647 2.80201 5.80047C2.77401 5.81147 2.76 5.81647 2.727 5.81347C2.626 5.81047 2.54401 5.72046 2.53901 5.62646L2.544 5.62547Z" fill="#F8F8F8"/>
</svg>
