<svg preserveAspectRatio="none" width="42" height="41" viewBox="0 0 42 41" fill="none" xmlns="http://www.w3.org/2000/svg">
<path vector-effect="non-scaling-stroke" d="M40.7686 37.641L40.2879 37.7787L40.7166 39.2749L41.2395 37.809L40.7686 37.641ZM29.083 40.2969V40.7969H29.6738L29.5761 40.2142L29.083 40.2969ZM18 40.2969H17.5V40.7969H18V40.2969ZM1 6.29688H0.5V6.79688H1V6.29688ZM5 0.796875C2.51472 0.796875 0.5 2.81159 0.5 5.29688H1.5C1.5 3.36388 3.067 1.79688 5 1.79688V0.796875ZM37 0.796875H5V1.79688H37V0.796875ZM41.5 5.29688C41.5 2.81159 39.4853 0.796875 37 0.796875V1.79688C38.933 1.79688 40.5 3.36388 40.5 5.29688H41.5ZM41.5 36.2969V5.29688H40.5V36.2969H41.5ZM41.2395 37.809C41.4083 37.3357 41.5 36.8265 41.5 36.2969H40.5C40.5 36.7104 40.4285 37.1061 40.2976 37.473L41.2395 37.809ZM35 33.7969C37.5103 33.7969 39.629 35.4791 40.2879 37.7787L41.2492 37.5033C40.4707 34.7862 37.9683 32.7969 35 32.7969V33.7969ZM29.5 39.2969C29.5 36.2593 31.9624 33.7969 35 33.7969V32.7969C31.4101 32.7969 28.5 35.707 28.5 39.2969H29.5ZM29.5761 40.2142C29.5261 39.9162 29.5 39.6098 29.5 39.2969H28.5C28.5 39.6654 28.5307 40.0272 28.5898 40.3796L29.5761 40.2142ZM18 40.7969H29.083V39.7969H18V40.7969ZM17.5 10.2969V40.2969H18.5V10.2969H17.5ZM14 6.79688C15.933 6.79688 17.5 8.36388 17.5 10.2969H18.5C18.5 7.81159 16.4853 5.79688 14 5.79688V6.79688ZM1 6.79688H14V5.79688H1V6.79688ZM0.5 5.29688V6.29688H1.5V5.29688H0.5Z" fill="url(#paint0_linear_1_2679)"/>
<defs>
<linearGradient vector-effect="non-scaling-stroke" id="paint0_linear_1_2679" x1="16.3125" y1="0.859375" x2="36" y2="40.2969" gradientUnits="userSpaceOnUse">
<stop stop-color="#06B99F"/>
<stop offset="1" stop-color="#9DE3D8"/>
</linearGradient>
</defs>
</svg>
