<svg preserveAspectRatio="none" width="139" height="11" viewBox="0 0 139 11" fill="none" xmlns="http://www.w3.org/2000/svg">
<path vector-effect="non-scaling-stroke" d="M5.76468 7.15962C5.9248 7.46854 6.02573 7.76806 6.06879 8.05683C5.76967 8.18581 5.45684 8.28046 5.13632 8.33892C4.79648 8.39834 4.45198 8.4271 4.10698 8.42487C3.58493 8.43244 3.06619 8.34083 2.57844 8.15492C2.1463 7.97754 1.75824 7.70797 1.44145 7.36514C1.11971 6.99952 0.876126 6.57219 0.725621 6.10931C0.552777 5.57498 0.468684 5.01603 0.476688 4.45458C0.476688 3.83406 0.558773 3.27528 0.725621 2.77698C0.891123 2.27331 1.12928 1.84354 1.44145 1.49029C1.75092 1.13705 2.13037 0.865733 2.57844 0.679038C3.05501 0.478213 3.5682 0.378478 4.08544 0.386212C4.49718 0.386212 4.85106 0.415764 5.14708 0.473519C5.44444 0.531274 5.70818 0.599794 5.93827 0.679038C5.92481 0.844243 5.89116 1.00006 5.84138 1.14377C5.79315 1.29366 5.73884 1.44151 5.67858 1.58699C5.56959 1.55207 5.46598 1.5185 5.36372 1.49029C5.13103 1.42283 4.89124 1.38269 4.64923 1.37073C4.49045 1.35583 4.33104 1.34867 4.17156 1.34925C3.38442 1.34925 2.77084 1.61655 2.3295 2.14977C1.89624 2.68433 1.67961 3.45127 1.67961 4.45458C1.67961 4.96632 1.74016 5.40955 1.86395 5.78562C1.9864 6.16036 2.15997 6.4706 2.38333 6.71505C2.60803 6.96084 2.8758 7.14487 3.18527 7.26709C3.50417 7.38932 3.85805 7.45109 4.24826 7.45109C4.76885 7.46396 5.2861 7.36453 5.76468 7.15962ZM7.39279 0.364734C7.47218 0.349959 7.55964 0.339232 7.65249 0.332516C7.7534 0.325801 7.8449 0.321777 7.92429 0.321777C8.00368 0.321777 8.09382 0.325801 8.19474 0.332516C8.29566 0.339232 8.38581 0.349959 8.4652 0.364734V3.58959C8.53113 3.48751 8.61052 3.38006 8.70471 3.26455C8.93079 3.0072 9.22296 2.81636 9.54971 2.71255C9.73809 2.64808 9.94395 2.61581 10.1673 2.61581C10.8038 2.61581 11.2733 2.79983 11.5761 3.1665C11.8869 3.5278 12.043 4.06508 12.043 4.77963V8.29457C11.7773 8.33501 11.5079 8.3463 11.2397 8.32818C11.1527 8.32116 11.066 8.30992 10.98 8.29457V5.07106C10.98 4.55933 10.8939 4.18462 10.7203 3.94554C10.5535 3.70109 10.2978 3.5775 9.95068 3.5775C9.75557 3.5775 9.5672 3.61376 9.3869 3.68629C9.20339 3.75316 9.03962 3.86492 8.91058 4.01133C8.76082 4.17607 8.64959 4.37196 8.58495 4.58485C8.49922 4.86498 8.45879 5.15699 8.4652 5.44984V8.29457C8.37569 8.31039 8.28541 8.32163 8.19474 8.32818C8.10473 8.33469 8.01453 8.33827 7.92429 8.33892C7.85163 8.33892 7.76552 8.33489 7.66325 8.32818C7.57258 8.32163 7.48231 8.31039 7.39279 8.29457V0.364734ZM16.6071 5.68758C16.4702 5.6703 16.3329 5.65596 16.1954 5.64458C16.0545 5.63129 15.913 5.62414 15.7715 5.6231C15.3234 5.6231 14.9803 5.70637 14.7422 5.87158C14.5107 6.03813 14.395 6.29063 14.395 6.6291C14.395 6.84534 14.4354 7.01456 14.5148 7.13679C14.5873 7.25339 14.6876 7.35031 14.8068 7.41888C14.9319 7.48412 15.0685 7.52469 15.2091 7.5384C15.3531 7.55183 15.4903 7.55988 15.6208 7.55988C15.7863 7.55988 15.9559 7.55183 16.1294 7.5384C16.3097 7.51557 16.4698 7.48736 16.6071 7.45109V5.68758ZM16.6071 4.63859C16.6071 4.21281 16.4981 3.91731 16.2815 3.75076C16.0648 3.58556 15.75 3.50229 15.3383 3.50229C14.8787 3.5109 14.4226 3.5837 13.9833 3.71854C13.8401 3.45702 13.7691 3.16221 13.7774 2.86429C14.0236 2.78505 14.2941 2.72327 14.5901 2.68029C14.8875 2.63731 15.1727 2.61581 15.4472 2.61581C16.1698 2.61581 16.7188 2.78101 17.0942 3.11277C17.4696 3.4378 17.658 3.96028 17.658 4.68154V8.15492C17.405 8.21267 17.0982 8.27042 16.7363 8.32818C16.3716 8.39299 16.0019 8.42534 15.6316 8.42487C15.2777 8.42487 14.9561 8.39265 14.6668 8.32818C14.4063 8.272 14.1594 8.16519 13.9402 8.01387C13.7451 7.8704 13.5888 7.68067 13.4854 7.46183C13.3702 7.20726 13.3145 6.92982 13.3226 6.65058C13.3226 6.34031 13.3845 6.07034 13.507 5.83932C13.6375 5.60159 13.8097 5.40683 14.0277 5.25506C14.2521 5.09295 14.5056 4.97532 14.7745 4.90854C15.057 4.82929 15.353 4.79037 15.6639 4.79037C15.8953 4.79037 16.0823 4.79707 16.2277 4.81185C16.3784 4.81856 16.5048 4.82929 16.6071 4.84406V4.63859ZM19.2686 2.74477C19.4969 2.70186 19.7302 2.69103 19.9615 2.71255C20.0409 2.71926 20.1136 2.72999 20.1782 2.74477C20.2011 2.85356 20.2226 2.99726 20.2441 3.17724C20.2656 3.35051 20.2764 3.49828 20.2764 3.62185C20.4284 3.37606 20.6262 3.16383 20.8725 2.9825C21.1254 2.80252 21.447 2.71255 21.8372 2.71255C21.8951 2.71255 21.953 2.71657 22.0108 2.72329C22.0754 2.72329 22.1292 2.72731 22.1736 2.73403C22.1871 2.79984 22.1978 2.86832 22.2059 2.9395C22.224 3.10537 22.2204 3.27288 22.1952 3.43781C22.1871 3.53183 22.1763 3.62184 22.1615 3.7078C22.1017 3.69292 22.0402 3.68567 21.9785 3.68629H21.8372C21.6421 3.68629 21.4538 3.71453 21.2734 3.77228C21.0942 3.82662 20.9308 3.92338 20.7971 4.05433C20.6451 4.21509 20.5303 4.40721 20.4607 4.61711C20.3728 4.91517 20.3324 5.22519 20.341 5.5358V8.29457C20.0757 8.33491 19.8068 8.3462 19.539 8.32818C19.4485 8.32079 19.3582 8.30956 19.2686 8.29457V2.74477ZM23.2797 0.364734C23.3591 0.349959 23.4452 0.339232 23.5393 0.332516C23.807 0.314333 24.0759 0.325123 24.3413 0.364734V6.61836C24.3413 6.81983 24.3588 6.97832 24.3951 7.09383C24.4229 7.19304 24.471 7.28542 24.5364 7.36514C24.5983 7.42105 24.6725 7.46157 24.753 7.48335C24.8405 7.49813 24.9306 7.50483 25.0248 7.50483C25.1703 7.50528 25.3155 7.49086 25.4581 7.46183C25.5227 7.71434 25.555 7.98834 25.555 8.28383C25.4359 8.32327 25.3117 8.34545 25.1863 8.34966C25.053 8.36298 24.9192 8.37014 24.7853 8.37113C24.5876 8.37256 24.3907 8.34679 24.2 8.29457C24.0191 8.248 23.852 8.15899 23.7125 8.03494C23.573 7.91089 23.4652 7.75542 23.3981 7.5814C23.3125 7.34941 23.2723 7.10319 23.2797 6.8561V0.364734ZM27.3311 5.78562C27.3459 6.39138 27.5006 6.8346 27.7967 7.11531C28.1007 7.39737 28.5448 7.5384 29.1301 7.5384C29.6427 7.5384 30.1312 7.44707 30.5927 7.26709C30.6506 7.37589 30.6976 7.50886 30.734 7.66735C30.7703 7.81913 30.7918 7.97087 30.7999 8.12131C30.5457 8.22719 30.2803 8.30382 30.0087 8.34966C29.7262 8.39935 29.4127 8.42487 29.0655 8.42487C28.6229 8.43519 28.1821 8.36556 27.7644 8.21935C27.4246 8.0894 27.1177 7.88625 26.8655 7.62435C26.6323 7.36122 26.4583 7.05112 26.3556 6.71505C26.2442 6.33929 26.1894 5.94911 26.1928 5.55727C26.1928 5.14628 26.2439 4.76483 26.3448 4.41159C26.4538 4.05029 26.6153 3.74003 26.8319 3.48081C27.0499 3.21352 27.3203 3.00532 27.646 2.85355C27.9783 2.69506 28.3685 2.61581 28.8166 2.61581C29.1987 2.61581 29.5351 2.68031 29.8244 2.81059C30.1123 2.93953 30.3545 3.11948 30.5496 3.3505C30.7448 3.57481 30.8928 3.84478 30.995 4.16176C31.0959 4.47202 31.1457 4.81183 31.1457 5.17985C31.1457 5.28058 31.143 5.38803 31.135 5.50354C31.1282 5.61233 31.1202 5.70638 31.1134 5.78562H27.3311ZM30.0841 4.98511C30.0841 4.78229 30.0545 4.59157 29.9966 4.41159C29.9521 4.23429 29.871 4.06821 29.7585 3.92402C29.6541 3.78428 29.5162 3.67297 29.3575 3.60033C29.1802 3.50883 28.9824 3.46401 28.7829 3.47007C28.3429 3.47007 28.0025 3.60304 27.7644 3.87033C27.5329 4.13761 27.393 4.5083 27.3419 4.98511H30.0841ZM32.4536 7.28857C32.6487 7.36782 32.8626 7.43366 33.0927 7.48335C33.3322 7.52633 33.5664 7.54914 33.7978 7.54914C33.9646 7.54914 34.1234 7.53035 34.2741 7.49409C34.4129 7.46372 34.5451 7.40867 34.6643 7.33157C34.7731 7.26637 34.8659 7.17783 34.9361 7.07235C35.007 6.9667 35.0445 6.84221 35.0438 6.71505C35.0477 6.59843 35.022 6.48273 34.969 6.3787C34.9161 6.27466 34.8377 6.18569 34.741 6.12005C34.6447 6.05099 34.5386 5.99668 34.4262 5.95888C34.3024 5.90485 34.1757 5.85775 34.0467 5.81784L33.6673 5.67684C33.2057 5.50357 32.8694 5.30878 32.6595 5.09254C32.4509 4.8763 32.346 4.58487 32.346 4.21685C32.346 3.72661 32.5195 3.3371 32.8653 3.04833C33.2192 2.75956 33.7359 2.61581 34.4154 2.61581C34.698 2.61581 34.9724 2.64401 35.2389 2.70177C35.5134 2.75281 35.7529 2.81328 35.9547 2.88581C35.9398 3.03249 35.9105 3.17734 35.8672 3.31829C35.8345 3.45614 35.7876 3.59027 35.7273 3.71854C35.5393 3.65279 35.3474 3.59851 35.1528 3.55602C34.9225 3.49683 34.6855 3.46793 34.4477 3.47007C34.2022 3.4657 33.9586 3.51376 33.7332 3.61107C33.53 3.70375 33.4291 3.87033 33.4291 4.10806C33.4291 4.23029 33.4547 4.33502 33.5058 4.42233C33.558 4.51137 33.6281 4.58867 33.7117 4.64932C33.7978 4.70708 33.8947 4.75678 34.0037 4.80111C34.1194 4.84409 34.2418 4.88708 34.3723 4.93006L34.8487 5.09254C35.0222 5.15029 35.1851 5.21881 35.3371 5.29806C35.4893 5.37223 35.6255 5.47536 35.7381 5.60162C35.8586 5.72451 35.9509 5.87207 36.0085 6.0341C36.0812 6.1993 36.1175 6.4021 36.1175 6.63984C36.1175 6.90712 36.0623 7.15158 35.9547 7.37588C35.8457 7.59212 35.691 7.77883 35.4891 7.93866C35.274 8.0994 35.0315 8.21996 34.7733 8.29457C34.4921 8.38187 34.1813 8.42487 33.8409 8.42487C33.4937 8.42487 33.191 8.39935 32.9313 8.34966C32.6842 8.30934 32.4411 8.24778 32.2047 8.16566C32.2195 8.0206 32.2477 7.87689 32.2908 7.73183C32.3419 7.5814 32.3957 7.43363 32.4536 7.28857ZM40.3587 0.516517C40.6712 0.473701 40.9872 0.462876 41.3019 0.484258C41.4243 0.490974 41.5253 0.501742 41.606 0.516517L43.6216 5.38537L45.648 0.516517C45.7373 0.499705 45.8277 0.488912 45.9185 0.484258C46.1281 0.468696 46.3386 0.468696 46.5482 0.484258C46.6626 0.490974 46.7608 0.501742 46.8402 0.516517L47.2089 8.29457C46.8533 8.35249 46.4907 8.35249 46.1351 8.29457L45.8862 2.24781L43.9795 6.68283C43.8321 6.7045 43.6832 6.71526 43.5342 6.71505C43.3969 6.71505 43.2597 6.70432 43.1224 6.68283L41.2804 2.21556L41.0314 8.29457C40.8667 8.32451 40.6996 8.33937 40.5322 8.33892C40.3577 8.34032 40.1833 8.32545 40.0115 8.29457L40.3587 0.516517ZM51.158 8.42487C50.7248 8.42487 50.3453 8.35233 50.0197 8.20861C49.7065 8.06559 49.4289 7.85506 49.207 7.59214C48.9845 7.32116 48.8188 7.00828 48.7199 6.6721C48.6161 6.29866 48.5649 5.9126 48.5678 5.52506C48.5678 5.11406 48.619 4.73261 48.7199 4.37937C48.8275 4.02478 48.9904 3.71855 49.207 3.45933C49.4285 3.19601 49.7062 2.98537 50.0197 2.84281C50.3778 2.68455 50.7665 2.60704 51.158 2.61581C51.5913 2.61581 51.9707 2.69104 52.2964 2.84281C52.6206 2.99324 52.8924 3.2001 53.1091 3.45933C53.3257 3.71855 53.4845 4.02478 53.5854 4.37937C53.6944 4.73261 53.7482 5.11406 53.7482 5.52506C53.7482 5.93605 53.6944 6.31885 53.5854 6.6721C53.4988 7.00792 53.3382 7.32017 53.1151 7.58603C52.8921 7.85188 52.6124 8.06459 52.2964 8.20861C51.9362 8.35933 51.5484 8.43301 51.158 8.42487ZM51.158 7.57062C51.6572 7.57062 52.0246 7.38932 52.2641 7.02936C52.5022 6.66805 52.6206 6.16707 52.6206 5.52506C52.6206 4.88304 52.5022 4.38609 52.2641 4.03285C52.0246 3.67155 51.6572 3.49155 51.158 3.49155C50.6602 3.49155 50.2915 3.67155 50.052 4.03285C49.8219 4.38609 49.7062 4.88304 49.7062 5.52506C49.7062 6.16707 49.8219 6.66805 50.052 7.02936C50.2915 7.38932 50.6602 7.57062 51.158 7.57062ZM55.1597 2.74477C55.3845 2.70285 55.6141 2.69202 55.8419 2.71255C55.9145 2.71926 55.9899 2.72999 56.0693 2.74477C56.1236 3.03431 56.1564 3.32748 56.1675 3.62185C56.3021 3.34604 56.5033 3.10787 56.7528 2.92877C57.0592 2.72043 57.4223 2.61118 57.7929 2.61581C58.2262 2.61581 58.5585 2.70583 58.79 2.88581C59.0281 3.05907 59.2084 3.30353 59.3322 3.62185C59.4852 3.34878 59.6959 3.11225 59.9498 2.92877C60.2435 2.7193 60.5968 2.60958 60.9576 2.61581C61.6008 2.61581 62.0664 2.7958 62.3557 3.15576C62.6517 3.51707 62.7997 4.05027 62.7997 4.75676V8.29457C62.7102 8.31039 62.6199 8.32163 62.5292 8.32818C62.4388 8.3347 62.3481 8.33827 62.2574 8.33892C62.0797 8.34184 61.9021 8.32696 61.7273 8.29457V5.07106C61.7273 4.57276 61.6506 4.20207 61.4999 3.95628C61.3479 3.70377 61.0989 3.5775 60.7518 3.5775C60.3831 3.5775 60.083 3.71182 59.8516 3.97776C59.6282 4.24504 59.5166 4.63857 59.5166 5.15702V8.29457C59.2508 8.33501 58.9815 8.3463 58.7133 8.32818C58.6262 8.32116 58.5395 8.30992 58.4536 8.29457V4.99585C58.4536 4.51232 58.3809 4.15102 58.2369 3.91328C58.093 3.66883 57.8615 3.54528 57.544 3.54528C57.3669 3.54446 57.1922 3.58541 57.034 3.66481C56.8678 3.75029 56.7233 3.87247 56.6115 4.02207C56.4834 4.20643 56.3879 4.41132 56.329 4.62785C56.2602 4.89999 56.2277 5.17996 56.2321 5.46058V8.29457C55.9668 8.33463 55.6979 8.34592 55.4301 8.32818C55.3395 8.32163 55.2492 8.31039 55.1597 8.29457V2.74477ZM67.3463 5.68758C67.0693 5.65343 66.791 5.63191 66.512 5.6231C66.064 5.6231 65.7209 5.70637 65.4827 5.87158C65.2513 6.03813 65.1356 6.29063 65.1356 6.6291C65.1356 6.84534 65.1759 7.01456 65.2553 7.13679C65.3275 7.25368 65.4279 7.35068 65.5473 7.41888C65.672 7.48411 65.8082 7.52468 65.9483 7.5384C66.0936 7.55183 66.2308 7.55988 66.36 7.55988C66.5269 7.55988 66.6964 7.55183 66.87 7.5384C67.0503 7.51557 67.2091 7.48736 67.3463 7.45109V5.68758ZM67.3463 4.63859C67.3463 4.21281 67.2387 3.91731 67.022 3.75076C66.8054 3.58556 66.4905 3.50229 66.0788 3.50229C65.8258 3.50229 65.5877 3.52378 65.363 3.56676C65.1468 3.60319 64.9333 3.6539 64.7238 3.71854C64.5806 3.45702 64.5096 3.16221 64.518 2.86429C64.7642 2.78505 65.0346 2.72327 65.3307 2.68029C65.614 2.63826 65.9 2.6167 66.1864 2.61581C66.909 2.61581 67.458 2.78101 67.8347 3.11277C68.2101 3.4378 68.3985 3.96028 68.3985 4.68154V8.15492C68.1455 8.21267 67.8374 8.27042 67.4768 8.32818C67.1117 8.39298 66.7416 8.42533 66.3708 8.42487C66.0169 8.42487 65.6953 8.39265 65.406 8.32818C65.146 8.27173 64.8996 8.16494 64.6808 8.01387C64.4856 7.87007 64.3289 7.68046 64.2246 7.46183C64.1104 7.20695 64.0553 6.92967 64.0632 6.65058C64.0632 6.34031 64.1237 6.07034 64.2475 5.83932C64.3767 5.60159 64.5502 5.40683 64.7669 5.25506C64.9835 5.09657 65.2338 4.98107 65.515 4.90854C65.7962 4.82929 66.0936 4.79037 66.4031 4.79037C66.6345 4.79037 66.8229 4.79707 66.9669 4.81185C67.1189 4.81856 67.2454 4.82929 67.3463 4.84406V4.63859ZM70.0091 2.74477C70.234 2.70285 70.4635 2.69202 70.6913 2.71255C70.764 2.71926 70.8393 2.72999 70.9187 2.74477C70.9402 2.85356 70.9618 3.00129 70.9833 3.18798C71.0062 3.3693 71.0169 3.51976 71.0169 3.64333C71.0883 3.51976 71.1784 3.39751 71.2874 3.27529C71.5327 3.01784 71.8377 2.82461 72.1754 2.71255C72.3638 2.64808 72.5697 2.61581 72.7944 2.61581C73.4295 2.61581 73.8991 2.79983 74.2032 3.1665C74.5059 3.5278 74.658 4.06508 74.658 4.77963V8.29457C74.5685 8.31039 74.4782 8.32163 74.3875 8.32818C74.2971 8.33467 74.2064 8.33825 74.1157 8.33892C73.938 8.34184 73.7604 8.32696 73.5856 8.29457V5.07106C73.5856 4.55933 73.5062 4.18462 73.3461 3.94554C73.1873 3.70109 72.9343 3.5775 72.5885 3.5775C72.3918 3.57631 72.1966 3.61325 72.014 3.68629C71.8309 3.75977 71.6673 3.87472 71.5363 4.02207C71.3991 4.1725 71.2874 4.37131 71.2013 4.61711C71.1205 4.85484 71.0815 5.14359 71.0815 5.48206V8.29457C70.8162 8.33463 70.5473 8.34592 70.2796 8.32818C70.1889 8.32163 70.0987 8.31039 70.0091 8.29457V2.74477ZM78.1712 8.30535H77.9869C77.8535 8.31736 77.7193 8.31736 77.5859 8.30535C77.5207 8.30666 77.4555 8.30303 77.3908 8.29457L75.5487 2.74477C75.6416 2.72999 75.7398 2.72329 75.8407 2.72329C76.0392 2.70947 76.2384 2.70947 76.4368 2.72329C76.5525 2.72329 76.6494 2.72999 76.7288 2.74477L78.2681 7.90509L79.8612 2.74477C80.127 2.70969 80.3958 2.7025 80.6632 2.72329C80.7654 2.72329 80.8663 2.72999 80.9673 2.74477L78.8103 9.42013C78.7257 9.67711 78.6204 9.92685 78.4955 10.1669C78.3878 10.3684 78.2654 10.5309 78.1282 10.6531C77.9943 10.7742 77.8347 10.8633 77.6613 10.9137C77.4708 10.9669 77.2737 10.9923 77.0759 10.9889C76.9104 10.9889 76.7436 10.9741 76.5781 10.9459C76.4352 10.9276 76.294 10.8984 76.1556 10.8586C76.1556 10.6934 76.169 10.5457 76.1986 10.4154C76.2269 10.2851 76.2713 10.1561 76.3278 10.0259C76.3938 10.0474 76.4799 10.0688 76.5889 10.0903C76.7094 10.1205 76.8332 10.1354 76.9575 10.1347C77.0452 10.1356 77.1326 10.1243 77.2172 10.1011C77.3047 10.0868 77.3869 10.0498 77.4554 9.99365C77.5363 9.93316 77.6029 9.85566 77.6505 9.76665C77.7151 9.66591 77.777 9.52892 77.8348 9.35565L78.1712 8.30535ZM82.3357 3.58959H81.6319C81.6163 3.52551 81.6051 3.46045 81.5983 3.39485C81.5843 3.24699 81.5843 3.09815 81.5983 2.95029C81.6064 2.87104 81.6171 2.80252 81.6319 2.74477H83.3879V8.29457C83.1261 8.33413 82.8609 8.34542 82.5967 8.32818C82.5092 8.32124 82.4221 8.31 82.3357 8.29457V3.58959ZM82.0975 1.52251C82.0819 1.42956 82.0711 1.33588 82.0652 1.24182V0.700517C82.0719 0.599782 82.0827 0.509807 82.0975 0.430562C82.3841 0.385958 82.6749 0.374698 82.964 0.396992C83.073 0.405051 83.1699 0.415788 83.2574 0.430562C83.2722 0.509807 83.2789 0.599782 83.2789 0.700517C83.2856 0.801251 83.2897 0.891226 83.2897 0.970471C83.2897 1.04972 83.2856 1.13974 83.2789 1.24182C83.2789 1.34255 83.2722 1.43655 83.2574 1.52251C83.1602 1.53841 83.0623 1.5492 82.964 1.55477C82.7769 1.57039 82.5888 1.57039 82.4016 1.55477C82.2998 1.5488 82.1983 1.53802 82.0975 1.52251ZM85.1223 7.10457C85.2084 7.09114 85.2959 7.08041 85.382 7.07235C85.4762 7.05758 85.5636 7.05083 85.643 7.05083C85.8085 7.05083 85.9929 7.06831 86.1947 7.10457L85.5125 9.51817C85.423 9.53226 85.3326 9.53943 85.2421 9.53965C85.0723 9.55286 84.9018 9.55286 84.7321 9.53965C84.646 9.53965 84.5625 9.5316 84.4832 9.51817L85.1223 7.10457ZM90.0995 0.516517H94.1738C94.1886 0.589046 94.1993 0.668293 94.2061 0.754253C94.223 0.916332 94.223 1.07974 94.2061 1.24182C94.2002 1.32165 94.1894 1.40104 94.1738 1.47956H91.2042V3.7615H93.6867C93.7434 4.08363 93.7434 4.41315 93.6867 4.73528H91.2042V8.29457C91.0219 8.32509 90.8373 8.33994 90.6525 8.33892C90.5583 8.33892 90.4601 8.33489 90.3592 8.32818C90.2721 8.32124 90.1854 8.31 90.0995 8.29457V0.516517ZM95.3148 2.74477C95.5437 2.7026 95.7773 2.69178 96.0091 2.71255C96.0885 2.71926 96.1598 2.72999 96.2257 2.74477C96.2796 3.03434 96.312 3.32751 96.3226 3.62185C96.4785 3.37265 96.6809 3.15559 96.9187 2.9825C97.1717 2.80252 97.4932 2.71255 97.8835 2.71255C97.9413 2.71255 97.9992 2.71657 98.057 2.72329C98.1216 2.72329 98.1768 2.72731 98.2198 2.73403C98.2346 2.79984 98.2454 2.86832 98.2521 2.9395C98.2589 3.01203 98.2629 3.08726 98.2629 3.1665C98.2629 3.25381 98.2562 3.34379 98.2414 3.43781C98.2346 3.53183 98.2239 3.62184 98.2091 3.7078C98.1488 3.69299 98.0869 3.68574 98.0248 3.68629H97.8835C97.6883 3.68629 97.5013 3.71453 97.3197 3.77228C97.1405 3.82662 96.977 3.92338 96.8434 4.05433C96.6918 4.21543 96.577 4.40745 96.507 4.61711C96.4195 4.91525 96.3796 5.22526 96.3886 5.5358V8.29457C96.1233 8.33491 95.8543 8.3462 95.5866 8.32818C95.4956 8.32071 95.4049 8.30947 95.3148 8.29457V2.74477ZM99.673 3.58959H98.968C98.9522 3.5256 98.9414 3.4605 98.9357 3.39485C98.9162 3.17771 98.9271 2.95892 98.968 2.74477H100.724V8.29457C100.462 8.33385 100.197 8.34514 99.9327 8.32818C99.8457 8.32124 99.759 8.31 99.673 8.29457V3.58959ZM99.4349 1.52251C99.4195 1.42949 99.4082 1.33584 99.4012 1.24182V0.700517C99.4093 0.599782 99.4201 0.509807 99.4349 0.430562C99.6281 0.400466 99.8233 0.385619 100.019 0.386212C100.1 0.386212 100.192 0.390277 100.301 0.396992C100.409 0.405051 100.507 0.415788 100.593 0.430562C100.608 0.509807 100.615 0.599782 100.615 0.700517C100.629 0.880661 100.629 1.06167 100.615 1.24182C100.615 1.34255 100.608 1.43655 100.593 1.52251C100.497 1.53842 100.399 1.5492 100.301 1.55477C100.114 1.57046 99.9252 1.57046 99.7376 1.55477C99.6363 1.5488 99.5352 1.53802 99.4349 1.52251ZM102.46 7.10457C102.546 7.09114 102.632 7.08041 102.719 7.07235C102.814 7.05758 102.9 7.05083 102.979 7.05083C103.146 7.05083 103.33 7.06831 103.532 7.10457L102.849 9.51817C102.762 9.5316 102.672 9.53965 102.578 9.53965C102.409 9.55305 102.239 9.55305 102.069 9.53965C101.986 9.53952 101.902 9.53234 101.819 9.51817L102.46 7.10457ZM107.967 3.43781C107.873 3.3252 107.793 3.20164 107.729 3.06981C107.664 2.92873 107.606 2.78438 107.555 2.63733L110.437 1.2633H110.6V7.37588H112.15C112.191 7.68074 112.191 7.9897 112.15 8.29457H107.913C107.883 8.14155 107.868 7.98588 107.869 7.82987C107.869 7.67138 107.884 7.51959 107.913 7.37588H109.539V2.72329L107.967 3.43781ZM115.637 9.09508C115.451 9.05499 115.269 8.99744 115.094 8.92318C114.926 8.85178 114.769 8.75681 114.627 8.64113L117.402 2.28003H113.739C113.708 2.13077 113.694 1.97853 113.696 1.82608C113.695 1.65544 113.71 1.48506 113.739 1.31703H118.887L118.93 1.39225L115.637 9.09508ZM124.338 1.47956H122.973C122.915 1.16113 122.915 0.834941 122.973 0.516517H125.443V6.13079C125.443 6.56462 125.397 6.92861 125.303 7.2241C125.209 7.51958 125.072 7.75734 124.891 7.93866C124.71 8.11058 124.49 8.23416 124.229 8.30535C123.774 8.43235 123.297 8.45845 122.831 8.38187C122.671 8.36259 122.512 8.33343 122.355 8.29457C122.355 8.15085 122.37 7.9991 122.398 7.84061C122.428 7.68212 122.471 7.5196 122.528 7.3544C122.615 7.37589 122.713 7.40007 122.82 7.42961C122.936 7.4511 123.056 7.46183 123.178 7.46183C123.309 7.46183 123.438 7.4511 123.569 7.42961C123.703 7.40904 123.833 7.36103 123.948 7.28857C124.071 7.20942 124.168 7.09717 124.229 6.96488C124.31 6.78095 124.347 6.58112 124.338 6.38062V1.47956ZM127.15 2.74477C127.23 2.72999 127.32 2.71926 127.421 2.71255C127.523 2.70583 127.609 2.70177 127.682 2.70177C127.761 2.70177 127.851 2.70583 127.952 2.71255C128.053 2.71926 128.143 2.72999 128.223 2.74477V5.78562C128.223 6.13081 128.256 6.41956 128.321 6.65058C128.372 6.84906 128.473 7.03153 128.613 7.18114C128.746 7.31147 128.91 7.40458 129.091 7.45109C129.278 7.50213 129.494 7.52631 129.741 7.52631C130.109 7.52631 130.424 7.48738 130.684 7.40814V2.74477C130.763 2.72999 130.849 2.71926 130.944 2.71255C131.211 2.69408 131.48 2.70487 131.745 2.74477V8.12131C131.446 8.2044 131.142 8.27345 130.836 8.32818C130.478 8.39358 130.115 8.42594 129.751 8.42487C129.397 8.42487 129.061 8.39265 128.744 8.32818C128.443 8.27458 128.16 8.14819 127.92 7.96014C127.666 7.75066 127.472 7.47836 127.356 7.1704C127.219 6.83059 127.15 6.38329 127.15 5.82858V2.74477ZM133.44 2.74477C133.664 2.70285 133.894 2.69202 134.122 2.71255C134.194 2.71926 134.27 2.72999 134.349 2.74477C134.371 2.85356 134.392 3.00129 134.414 3.18798C134.437 3.3693 134.447 3.51976 134.447 3.64333C134.519 3.51976 134.609 3.39751 134.718 3.27529C134.963 3.01784 135.268 2.82461 135.606 2.71255C135.794 2.64808 136 2.61581 136.225 2.61581C136.86 2.61581 137.329 2.79983 137.634 3.1665C137.936 3.5278 138.088 4.06508 138.088 4.77963V8.29457C137.999 8.31039 137.909 8.32163 137.818 8.32818C137.727 8.33467 137.637 8.33825 137.546 8.33892C137.368 8.34184 137.191 8.32696 137.016 8.29457V5.07106C137.016 4.55933 136.937 4.18462 136.776 3.94554C136.618 3.70109 136.365 3.5775 136.019 3.5775C135.822 3.57631 135.627 3.61325 135.444 3.68629C135.261 3.75977 135.098 3.87472 134.967 4.02207C134.829 4.1725 134.718 4.37131 134.632 4.61711C134.551 4.85484 134.512 5.14359 134.512 5.48206V8.29457C134.247 8.33463 133.978 8.34592 133.71 8.32818C133.619 8.32163 133.529 8.31039 133.44 8.29457V2.74477Z" fill="#72777B"/>
</svg>
