<svg preserveAspectRatio="none" width="16" height="17" viewBox="0 0 16 17" fill="none" xmlns="http://www.w3.org/2000/svg">
<path vector-effect="non-scaling-stroke" fill-rule="evenodd" clip-rule="evenodd" d="M8 16.2969C12.4183 16.2969 16 12.7152 16 8.29688C16 3.87857 12.4183 0.296875 8 0.296875C3.5817 0.296875 0 3.87857 0 8.29688C0 12.7152 3.5817 16.2969 8 16.2969ZM7 8.29688C7 7.74458 7.4477 7.29688 8 7.29688C8.5523 7.29688 9 7.74458 9 8.29688C9 8.84917 8.5523 9.29688 8 9.29688C7.4477 9.29688 7 8.84917 7 8.29688ZM8 5.29688C6.6938 5.29688 5.5825 6.13168 5.1707 7.29688H4C3.4477 7.29688 3 7.74458 3 8.29688C3 8.84917 3.4477 9.29688 4 9.29688H5.1707C5.5825 10.4621 6.6938 11.2969 8 11.2969C9.3062 11.2969 10.4175 10.4621 10.8293 9.29688H12C12.5523 9.29688 13 8.84917 13 8.29688C13 7.74458 12.5523 7.29688 12 7.29688H10.8293C10.4175 6.13168 9.3062 5.29688 8 5.29688Z" fill="#28A745"/>
</svg>
