<svg preserveAspectRatio="none" width="5" height="7" viewBox="0 0 5 7" fill="none" xmlns="http://www.w3.org/2000/svg">
<path vector-effect="non-scaling-stroke" d="M1.91104 6.3315C1.81104 6.2905 1.76704 6.1755 1.81604 6.0825C1.85804 5.9875 1.97405 5.9425 2.06905 5.9855C2.42905 6.1375 2.81404 6.1375 3.15504 6.0075C3.49604 5.8765 3.77805 5.6205 3.94005 5.2565C4.10205 4.8935 4.09705 4.5095 3.96605 4.1685C3.83305 3.8235 3.57404 3.5325 3.21704 3.3735C2.86004 3.2145 2.47104 3.2205 2.13104 3.3515C1.78504 3.4845 1.49905 3.7425 1.33705 4.1055C1.29405 4.2015 1.18104 4.24949 1.08804 4.20049C1.06004 4.19549 1.03705 4.1785 1.02605 4.1615L1.02205 4.1525C1.02205 4.1525 1.00804 4.1425 1.00404 4.1325C0.989043 4.1225 0.981044 4.0995 0.974044 4.0815C0.970044 4.0715 0.96905 4.0565 0.96405 4.0425L0.430038 1.94949C0.409038 1.89349 0.419042 1.8375 0.450042 1.7935C0.467042 1.7555 0.503041 1.7255 0.549041 1.7085L2.86005 0.820795C2.96005 0.777295 3.06804 0.825497 3.10504 0.922197C3.14604 1.0285 3.09604 1.1315 2.99904 1.1685L0.835052 1.9995L1.22905 3.5495C1.42605 3.3055 1.68404 3.1105 1.98404 2.9965C2.41604 2.8295 2.89804 2.8195 3.35904 3.0285C3.82104 3.2265 4.14004 3.5895 4.31004 4.0315C4.47204 4.4555 4.49005 4.9555 4.27905 5.4115C4.07605 5.8595 3.70405 6.1975 3.27605 6.3625C2.84305 6.5285 2.34804 6.5335 1.89604 6.3325L1.91104 6.3315Z" fill="#F8F8F8"/>
</svg>
