<svg preserveAspectRatio="none" width="13" height="13" viewBox="0 0 13 13" fill="none" xmlns="http://www.w3.org/2000/svg">
<path vector-effect="non-scaling-stroke" fill-rule="evenodd" clip-rule="evenodd" d="M6.75774 12.5951C10.1733 12.5951 12.9422 9.82618 12.9422 6.41057C12.9422 2.99496 10.1733 0.226074 6.75774 0.226074C3.34213 0.226074 0.573242 2.99496 0.573242 6.41057C0.573242 9.82618 3.34213 12.5951 6.75774 12.5951ZM9.68037 5.08117C9.90654 4.85473 9.90654 4.48763 9.68037 4.26119C9.45331 4.03475 9.08665 4.03475 8.86047 4.26119L5.7912 7.33003L4.65501 6.19385C4.42883 5.96741 4.06129 5.96741 3.83511 6.19385C3.60893 6.42029 3.60893 6.78738 3.83511 7.01383L5.38123 8.55995C5.60741 8.78639 5.97495 8.78639 6.20113 8.55995L9.68037 5.08117Z" fill="#28A745"/>
</svg>
