<svg preserveAspectRatio="none" width="13" height="13" viewBox="0 0 13 13" fill="none" xmlns="http://www.w3.org/2000/svg">
<path vector-effect="non-scaling-stroke" fill-rule="evenodd" clip-rule="evenodd" d="M6.4677 12.6056C9.88331 12.6056 12.6522 9.83668 12.6522 6.42107C12.6522 3.00546 9.88331 0.236572 6.4677 0.236572C3.05209 0.236572 0.283203 3.00546 0.283203 6.42107C0.283203 9.83668 3.05209 12.6056 6.4677 12.6056ZM9.3903 5.09167C9.61648 4.86523 9.61648 4.49813 9.3903 4.27169C9.16324 4.04525 8.79661 4.04525 8.57043 4.27169L5.50116 7.34079L4.36497 6.20461C4.13879 5.97755 3.77127 5.97755 3.5451 6.20461C3.31892 6.43079 3.31892 6.79832 3.5451 7.0245L5.09122 8.57062C5.3174 8.7968 5.68492 8.7968 5.91109 8.57062L9.3903 5.09167Z" fill="#28A745"/>
</svg>
