<svg preserveAspectRatio="none" width="5" height="6" viewBox="0 0 5 6" fill="none" xmlns="http://www.w3.org/2000/svg">
<path vector-effect="non-scaling-stroke" d="M3.17292 0.546041L2.39991 2.36004C2.73791 2.30404 3.09392 2.33605 3.42492 2.48405C3.87792 2.68505 4.20992 3.05404 4.37592 3.48704C4.54192 3.92004 4.54692 4.41505 4.34092 4.86905C4.13892 5.32205 3.77191 5.65805 3.34491 5.82705C2.92191 5.99005 2.42192 5.99704 1.96792 5.79104C1.87392 5.75304 1.82691 5.64404 1.87291 5.54204C1.91091 5.44804 2.01892 5.40104 2.12092 5.44604C2.48092 5.59904 2.86691 5.59905 3.20791 5.46805C3.54791 5.33705 3.83992 5.07705 4.00292 4.71905C4.16492 4.35605 4.15791 3.96704 4.02791 3.62604C3.89691 3.28604 3.63691 2.99405 3.27691 2.84205C2.91891 2.67805 2.52991 2.68505 2.18891 2.81605C2.13391 2.83705 2.07292 2.82905 2.01992 2.80105L2.01091 2.80504C1.91091 2.76404 1.86591 2.64905 1.91391 2.55105L2.65491 0.809042L0.752919 1.53905C0.653919 1.58205 0.545909 1.53405 0.507909 1.43705C0.469909 1.33605 0.517912 1.22705 0.613912 1.19005L2.93491 0.299047C3.03491 0.256047 3.14291 0.304045 3.17991 0.401045C3.19091 0.429045 3.19191 0.460043 3.18691 0.488043C3.18691 0.515043 3.17991 0.538043 3.17191 0.557043L3.17292 0.546041Z" fill="#F8F8F8"/>
</svg>
