<svg preserveAspectRatio="none" width="24" height="22" viewBox="0 0 24 22" fill="none" xmlns="http://www.w3.org/2000/svg">
<path vector-effect="non-scaling-stroke" fill-rule="evenodd" clip-rule="evenodd" d="M14.5935 1.1122C14.6348 1.13754 14.6761 1.1642 14.7135 1.19487C16.5158 2.61063 16.6482 5.24252 16.6545 10.4984L16.6548 10.9989C16.6548 16.5909 16.5721 19.3442 14.7135 20.8055C14.6761 20.8349 14.6348 20.8629 14.5921 20.8869C14.0401 21.2015 13.4788 21.3349 12.9188 21.3349C11.0641 21.3349 9.22548 19.8749 7.79348 18.7389C7.14681 18.2255 6.16948 17.4495 5.83214 17.4149C5.44948 17.3855 5.11881 17.3735 4.82681 17.3655C3.76281 17.3269 2.92148 17.2989 1.93214 16.4829C0.741744 15.5025 0.632424 13.5598 0.628296 11.8475L0.629477 11.2869L0.630811 10.9989L0.629477 10.7109L0.628296 10.1503C0.632424 8.4382 0.741744 6.4966 1.93214 5.5162C2.92281 4.7002 3.76548 4.67087 4.83214 4.63487C5.12281 4.6242 5.45214 4.61354 5.83481 4.58554C6.16948 4.54954 7.14681 3.77354 7.79348 3.2602C9.65748 1.77887 12.2135 -0.243795 14.5935 1.1122ZM12.9055 2.67354C11.7481 2.67354 10.2681 3.8482 9.03614 4.82687C7.85081 5.76687 6.91481 6.51087 5.98148 6.5802C5.56814 6.60954 5.21348 6.62287 4.90148 6.63354C3.90548 6.66687 3.65348 6.68954 3.20414 7.0602C2.68848 7.4837 2.63116 9.05054 2.62847 10.2261L2.62948 10.7015L2.63081 10.9962V11.0015L2.62948 11.2962L2.62847 11.772C2.63116 12.9485 2.68848 14.5154 3.20414 14.9389C3.65214 15.3095 3.90414 15.3309 4.89748 15.3669C5.21081 15.3762 5.56681 15.3895 5.98148 15.4202C6.91481 15.4882 7.85081 16.2322 9.03614 17.1722C10.5068 18.3389 12.3295 19.7855 13.5361 19.1842C14.5142 18.3365 14.6469 16.1339 14.6544 11.4732L14.6548 10.9989C14.6548 6.0122 14.5468 3.69087 13.5361 2.81354C13.3401 2.7162 13.1281 2.67354 12.9055 2.67354ZM21.9368 5.5878C23.8501 8.9318 23.8501 13.0785 21.9368 16.4118C21.7515 16.7345 21.4155 16.9145 21.0688 16.9145C20.8995 16.9145 20.7288 16.8718 20.5715 16.7811C20.0928 16.5065 19.9275 15.8945 20.2021 15.4171C21.7635 12.6958 21.7635 9.3118 20.2021 6.58247C19.9275 6.10247 20.0941 5.4918 20.5728 5.21714C21.0528 4.9478 21.6621 5.10914 21.9368 5.5878Z" fill="#00A4FF"/>
</svg>
