<svg preserveAspectRatio="none" width="56" height="12" viewBox="0 0 56 12" fill="none" xmlns="http://www.w3.org/2000/svg">
<path vector-effect="non-scaling-stroke" d="M9.85503 3.09677L4.12828 8.926H9.85503V11.704H0.132072V8.926L5.85883 3.09677H0.132072V0.318786H9.85503V3.09677Z" fill="white"/>
<path vector-effect="non-scaling-stroke" d="M15.9602 12C14.9127 12 13.9564 11.7305 13.0911 11.1916C12.2334 10.6528 11.5465 9.92789 11.0304 9.01708C10.5218 8.10626 10.2676 7.10057 10.2676 6C10.2676 5.17267 10.4156 4.39848 10.7116 3.67742C11.0076 2.94877 11.4137 2.3112 11.9298 1.76471C12.4535 1.21063 13.0607 0.777988 13.7514 0.466793C14.4421 0.155598 15.1784 0 15.9602 0C16.8482 0 17.6604 0.189754 18.3966 0.56926C19.1404 0.941177 19.7704 1.45351 20.2865 2.10626C20.8027 2.75901 21.1784 3.50285 21.4137 4.33776C21.649 5.17268 21.7021 6.04554 21.5731 6.95636H13.2505C13.3568 7.3814 13.5313 7.76471 13.7742 8.10626C14.0171 8.44023 14.3245 8.70968 14.6964 8.91461C15.0683 9.11195 15.4896 9.21442 15.9602 9.22201C16.4459 9.2296 16.8862 9.11575 17.2808 8.88046C17.6831 8.63757 18.0171 8.3112 18.2827 7.90133L21.1177 8.56167C20.6547 9.57116 19.964 10.3985 19.0456 11.0436C18.1272 11.6812 17.0987 12 15.9602 12ZM13.1594 4.87286H18.7609C18.6774 4.41746 18.4991 4.00759 18.2258 3.64326C17.9602 3.27135 17.63 2.97533 17.2353 2.75522C16.8406 2.5351 16.4156 2.42505 15.9602 2.42505C15.5048 2.42505 15.0835 2.5351 14.6964 2.75522C14.3093 2.96774 13.9791 3.25996 13.7059 3.63188C13.4402 3.9962 13.2581 4.40987 13.1594 4.87286Z" fill="white"/>
<path vector-effect="non-scaling-stroke" d="M32.9435 4.50854V11.704H30.1655V5.23719C30.1655 4.78937 30.0555 4.3833 29.8353 4.01898C29.6152 3.64706 29.3192 3.35484 28.9473 3.14232C28.583 2.9222 28.1769 2.81214 27.7291 2.81214C27.2813 2.81214 26.8714 2.9222 26.4995 3.14232C26.1352 3.35484 25.8429 3.64706 25.6228 4.01898C25.4103 4.3833 25.304 4.78937 25.304 5.23719V11.704H22.526L22.5147 0.318786H25.2926L25.304 1.33207C25.6911 0.922201 26.1541 0.59962 26.693 0.364326C27.2319 0.121442 27.8126 0 28.435 0C29.2623 0 30.0175 0.204934 30.7006 0.6148C31.3837 1.01708 31.9264 1.55977 32.3287 2.24288C32.7386 2.91841 32.9435 3.67362 32.9435 4.50854Z" fill="white"/>
<path vector-effect="non-scaling-stroke" d="M40.837 11.704H37.2507L33.1065 0.3074H36.0666L39.0495 8.50474L42.0211 0.3074H44.9812L40.837 11.704Z" fill="white"/>
<path vector-effect="non-scaling-stroke" d="M50.3186 12C49.2711 12 48.3148 11.7305 47.4495 11.1916C46.5918 10.6528 45.9049 9.92789 45.3888 9.01708C44.8802 8.10626 44.626 7.10057 44.626 6C44.626 5.17267 44.774 4.39848 45.07 3.67742C45.366 2.94877 45.7721 2.3112 46.2882 1.76471C46.8119 1.21063 47.4191 0.777988 48.1098 0.466793C48.8005 0.155598 49.5368 0 50.3186 0C51.2066 0 52.0187 0.189754 52.755 0.56926C53.4988 0.941177 54.1288 1.45351 54.6449 2.10626C55.1611 2.75901 55.5368 3.50285 55.7721 4.33776C56.0074 5.17268 56.0605 6.04554 55.9315 6.95636H47.6089C47.7151 7.3814 47.8897 7.76471 48.1326 8.10626C48.3755 8.44023 48.6829 8.70968 49.0548 8.91461C49.4267 9.11195 49.848 9.21442 50.3186 9.22201C50.8043 9.2296 51.2446 9.11575 51.6392 8.88046C52.0415 8.63757 52.3755 8.3112 52.6411 7.90133L55.4761 8.56167C55.0131 9.57116 54.3224 10.3985 53.4039 11.0436C52.4855 11.6812 51.4571 12 50.3186 12ZM47.5178 4.87286H53.1193C53.0358 4.41746 52.8575 4.00759 52.5842 3.64326C52.3186 3.27135 51.9884 2.97533 51.5937 2.75522C51.199 2.5351 50.774 2.42505 50.3186 2.42505C49.8632 2.42505 49.4419 2.5351 49.0548 2.75522C48.6677 2.96774 48.3375 3.25996 48.0643 3.63188C47.7986 3.9962 47.6165 4.40987 47.5178 4.87286Z" fill="white"/>
</svg>
