<svg preserveAspectRatio="none" width="56" height="12" viewBox="0 0 56 12" fill="none" xmlns="http://www.w3.org/2000/svg">
<path vector-effect="non-scaling-stroke" d="M9.85528 3.09677L4.12853 8.926H9.85528V11.704H0.132324V8.926L5.85908 3.09677H0.132324V0.318786H9.85528V3.09677Z" fill="white"/>
<path vector-effect="non-scaling-stroke" d="M15.9604 12C14.913 12 13.9566 11.7305 13.0913 11.1916C12.2337 10.6528 11.5468 9.92789 11.0306 9.01708C10.5221 8.10626 10.2678 7.10057 10.2678 6C10.2678 5.17267 10.4158 4.39848 10.7118 3.67742C11.0079 2.94877 11.4139 2.3112 11.9301 1.76471C12.4538 1.21063 13.061 0.777988 13.7517 0.466793C14.4424 0.155598 15.1786 0 15.9604 0C16.8485 0 17.6606 0.189754 18.3968 0.56926C19.1407 0.941177 19.7707 1.45351 20.2868 2.10626C20.8029 2.75901 21.1786 3.50285 21.4139 4.33776C21.6492 5.17268 21.7024 6.04554 21.5733 6.95636H13.2507C13.357 7.3814 13.5316 7.76471 13.7745 8.10626C14.0173 8.44023 14.3247 8.70968 14.6967 8.91461C15.0686 9.11195 15.4898 9.21442 15.9604 9.22201C16.4462 9.2296 16.8864 9.11575 17.2811 8.88046C17.6834 8.63757 18.0173 8.3112 18.283 7.90133L21.1179 8.56167C20.6549 9.57116 19.9642 10.3985 19.0458 11.0436C18.1274 11.6812 17.0989 12 15.9604 12ZM13.1597 4.87286H18.7612C18.6777 4.41746 18.4993 4.00759 18.2261 3.64326C17.9604 3.27135 17.6302 2.97533 17.2356 2.75522C16.8409 2.5351 16.4158 2.42505 15.9604 2.42505C15.505 2.42505 15.0838 2.5351 14.6967 2.75522C14.3096 2.96774 13.9794 3.25996 13.7061 3.63188C13.4405 3.9962 13.2583 4.40987 13.1597 4.87286Z" fill="white"/>
<path vector-effect="non-scaling-stroke" d="M32.9438 4.50854V11.704H30.1658V5.23719C30.1658 4.78937 30.0557 4.3833 29.8356 4.01898C29.6155 3.64706 29.3195 3.35484 28.9475 3.14232C28.5832 2.9222 28.1771 2.81214 27.7293 2.81214C27.2815 2.81214 26.8716 2.9222 26.4997 3.14232C26.1354 3.35484 25.8432 3.64706 25.6231 4.01898C25.4105 4.3833 25.3043 4.78937 25.3043 5.23719V11.704H22.5263L22.5149 0.318786H25.2929L25.3043 1.33207C25.6914 0.922201 26.1544 0.59962 26.6933 0.364326C27.2322 0.121442 27.8128 0 28.4352 0C29.2625 0 30.0178 0.204934 30.7009 0.6148C31.384 1.01708 31.9267 1.55977 32.329 2.24288C32.7388 2.91841 32.9438 3.67362 32.9438 4.50854Z" fill="white"/>
<path vector-effect="non-scaling-stroke" d="M40.8373 11.704H37.2509L33.1067 0.3074H36.0669L39.0498 8.50474L42.0213 0.3074H44.9815L40.8373 11.704Z" fill="white"/>
<path vector-effect="non-scaling-stroke" d="M50.3188 12C49.2714 12 48.315 11.7305 47.4497 11.1916C46.5921 10.6528 45.9051 9.92789 45.389 9.01708C44.8805 8.10626 44.6262 7.10057 44.6262 6C44.6262 5.17267 44.7742 4.39848 45.0702 3.67742C45.3662 2.94877 45.7723 2.3112 46.2884 1.76471C46.8122 1.21063 47.4194 0.777988 48.1101 0.466793C48.8008 0.155598 49.537 0 50.3188 0C51.2069 0 52.019 0.189754 52.7552 0.56926C53.4991 0.941177 54.1291 1.45351 54.6452 2.10626C55.1613 2.75901 55.537 3.50285 55.7723 4.33776C56.0076 5.17268 56.0607 6.04554 55.9317 6.95636H47.6091C47.7154 7.3814 47.89 7.76471 48.1329 8.10626C48.3757 8.44023 48.6831 8.70968 49.0551 8.91461C49.427 9.11195 49.8482 9.21442 50.3188 9.22201C50.8046 9.2296 51.2448 9.11575 51.6395 8.88046C52.0418 8.63757 52.3757 8.3112 52.6414 7.90133L55.4763 8.56167C55.0133 9.57116 54.3226 10.3985 53.4042 11.0436C52.4858 11.6812 51.4573 12 50.3188 12ZM47.5181 4.87286H53.1196C53.0361 4.41746 52.8577 4.00759 52.5845 3.64326C52.3188 3.27135 51.9886 2.97533 51.594 2.75522C51.1993 2.5351 50.7742 2.42505 50.3188 2.42505C49.8634 2.42505 49.4421 2.5351 49.0551 2.75522C48.668 2.96774 48.3378 3.25996 48.0645 3.63188C47.7989 3.9962 47.6167 4.40987 47.5181 4.87286Z" fill="white"/>
</svg>
